<?xml version="1.0" encoding="utf-8"?>
<svg xmlns="http://www.w3.org/2000/svg" xmlns:xlink="http://www.w3.org/1999/xlink" width="600" height="400" viewBox="0 0 2400 1600">
<defs>
  <clipPath id="clip850">
    <rect x="0" y="0" width="2400" height="1600"/>
  </clipPath>
</defs>
<path clip-path="url(#clip850)" d="
M0 1600 L2400 1600 L2400 0 L0 0  Z
  " fill="#ffffff" fill-rule="evenodd" fill-opacity="1"/>
<defs>
  <clipPath id="clip851">
    <rect x="480" y="0" width="1681" height="1600"/>
  </clipPath>
</defs>
<path clip-path="url(#clip850)" d="
M179.654 1486.45 L1893.45 1486.45 L1893.45 47.2441 L179.654 47.2441  Z
  " fill="#ffffff" fill-rule="evenodd" fill-opacity="1"/>
<defs>
  <clipPath id="clip852">
    <rect x="179" y="47" width="1715" height="1440"/>
  </clipPath>
</defs>
<polyline clip-path="url(#clip852)" style="stroke:#000000; stroke-width:2; stroke-opacity:0.1; fill:none" points="
  362.889,1486.45 362.889,47.2441 
  "/>
<polyline clip-path="url(#clip852)" style="stroke:#000000; stroke-width:2; stroke-opacity:0.1; fill:none" points="
  587.443,1486.45 587.443,47.2441 
  "/>
<polyline clip-path="url(#clip852)" style="stroke:#000000; stroke-width:2; stroke-opacity:0.1; fill:none" points="
  811.997,1486.45 811.997,47.2441 
  "/>
<polyline clip-path="url(#clip852)" style="stroke:#000000; stroke-width:2; stroke-opacity:0.1; fill:none" points="
  1036.55,1486.45 1036.55,47.2441 
  "/>
<polyline clip-path="url(#clip852)" style="stroke:#000000; stroke-width:2; stroke-opacity:0.1; fill:none" points="
  1261.1,1486.45 1261.1,47.2441 
  "/>
<polyline clip-path="url(#clip852)" style="stroke:#000000; stroke-width:2; stroke-opacity:0.1; fill:none" points="
  1485.66,1486.45 1485.66,47.2441 
  "/>
<polyline clip-path="url(#clip852)" style="stroke:#000000; stroke-width:2; stroke-opacity:0.1; fill:none" points="
  1710.21,1486.45 1710.21,47.2441 
  "/>
<polyline clip-path="url(#clip850)" style="stroke:#000000; stroke-width:4; stroke-opacity:1; fill:none" points="
  179.654,1486.45 1893.45,1486.45 
  "/>
<polyline clip-path="url(#clip850)" style="stroke:#000000; stroke-width:4; stroke-opacity:1; fill:none" points="
  362.889,1486.45 362.889,1469.18 
  "/>
<polyline clip-path="url(#clip850)" style="stroke:#000000; stroke-width:4; stroke-opacity:1; fill:none" points="
  587.443,1486.45 587.443,1469.18 
  "/>
<polyline clip-path="url(#clip850)" style="stroke:#000000; stroke-width:4; stroke-opacity:1; fill:none" points="
  811.997,1486.45 811.997,1469.18 
  "/>
<polyline clip-path="url(#clip850)" style="stroke:#000000; stroke-width:4; stroke-opacity:1; fill:none" points="
  1036.55,1486.45 1036.55,1469.18 
  "/>
<polyline clip-path="url(#clip850)" style="stroke:#000000; stroke-width:4; stroke-opacity:1; fill:none" points="
  1261.1,1486.45 1261.1,1469.18 
  "/>
<polyline clip-path="url(#clip850)" style="stroke:#000000; stroke-width:4; stroke-opacity:1; fill:none" points="
  1485.66,1486.45 1485.66,1469.18 
  "/>
<polyline clip-path="url(#clip850)" style="stroke:#000000; stroke-width:4; stroke-opacity:1; fill:none" points="
  1710.21,1486.45 1710.21,1469.18 
  "/>
<path clip-path="url(#clip850)" d="M 0 0 M331.848 1515.64 Q328.237 1515.64 326.408 1519.2 Q324.603 1522.75 324.603 1529.87 Q324.603 1536.98 326.408 1540.55 Q328.237 1544.09 331.848 1544.09 Q335.482 1544.09 337.288 1540.55 Q339.116 1536.98 339.116 1529.87 Q339.116 1522.75 337.288 1519.2 Q335.482 1515.64 331.848 1515.64 M331.848 1511.93 Q337.658 1511.93 340.714 1516.54 Q343.792 1521.12 343.792 1529.87 Q343.792 1538.6 340.714 1543.21 Q337.658 1547.79 331.848 1547.79 Q326.038 1547.79 322.959 1543.21 Q319.904 1538.6 319.904 1529.87 Q319.904 1521.12 322.959 1516.54 Q326.038 1511.93 331.848 1511.93 Z" fill="#000000" fill-rule="evenodd" fill-opacity="1" /><path clip-path="url(#clip850)" d="M 0 0 M348.862 1541.24 L353.746 1541.24 L353.746 1547.12 L348.862 1547.12 L348.862 1541.24 Z" fill="#000000" fill-rule="evenodd" fill-opacity="1" /><path clip-path="url(#clip850)" d="M 0 0 M357.635 1512.56 L379.857 1512.56 L379.857 1514.55 L367.311 1547.12 L362.427 1547.12 L374.232 1516.5 L357.635 1516.5 L357.635 1512.56 Z" fill="#000000" fill-rule="evenodd" fill-opacity="1" /><path clip-path="url(#clip850)" d="M 0 0 M384.973 1512.56 L403.329 1512.56 L403.329 1516.5 L389.255 1516.5 L389.255 1524.97 Q390.274 1524.62 391.292 1524.46 Q392.311 1524.27 393.329 1524.27 Q399.116 1524.27 402.496 1527.44 Q405.875 1530.62 405.875 1536.03 Q405.875 1541.61 402.403 1544.71 Q398.931 1547.79 392.612 1547.79 Q390.436 1547.79 388.167 1547.42 Q385.922 1547.05 383.514 1546.31 L383.514 1541.61 Q385.598 1542.74 387.82 1543.3 Q390.042 1543.86 392.519 1543.86 Q396.524 1543.86 398.862 1541.75 Q401.199 1539.64 401.199 1536.03 Q401.199 1532.42 398.862 1530.31 Q396.524 1528.21 392.519 1528.21 Q390.644 1528.21 388.769 1528.62 Q386.917 1529.04 384.973 1529.92 L384.973 1512.56 Z" fill="#000000" fill-rule="evenodd" fill-opacity="1" /><path clip-path="url(#clip850)" d="M 0 0 M545.835 1543.18 L553.473 1543.18 L553.473 1516.82 L545.163 1518.49 L545.163 1514.23 L553.427 1512.56 L558.103 1512.56 L558.103 1543.18 L565.742 1543.18 L565.742 1547.12 L545.835 1547.12 L545.835 1543.18 Z" fill="#000000" fill-rule="evenodd" fill-opacity="1" /><path clip-path="url(#clip850)" d="M 0 0 M570.811 1541.24 L575.696 1541.24 L575.696 1547.12 L570.811 1547.12 L570.811 1541.24 Z" fill="#000000" fill-rule="evenodd" fill-opacity="1" /><path clip-path="url(#clip850)" d="M 0 0 M590.765 1515.64 Q587.154 1515.64 585.325 1519.2 Q583.52 1522.75 583.52 1529.87 Q583.52 1536.98 585.325 1540.55 Q587.154 1544.09 590.765 1544.09 Q594.399 1544.09 596.205 1540.55 Q598.033 1536.98 598.033 1529.87 Q598.033 1522.75 596.205 1519.2 Q594.399 1515.64 590.765 1515.64 M590.765 1511.93 Q596.575 1511.93 599.631 1516.54 Q602.709 1521.12 602.709 1529.87 Q602.709 1538.6 599.631 1543.21 Q596.575 1547.79 590.765 1547.79 Q584.955 1547.79 581.876 1543.21 Q578.821 1538.6 578.821 1529.87 Q578.821 1521.12 581.876 1516.54 Q584.955 1511.93 590.765 1511.93 Z" fill="#000000" fill-rule="evenodd" fill-opacity="1" /><path clip-path="url(#clip850)" d="M 0 0 M617.779 1515.64 Q614.168 1515.64 612.339 1519.2 Q610.533 1522.75 610.533 1529.87 Q610.533 1536.98 612.339 1540.55 Q614.168 1544.09 617.779 1544.09 Q621.413 1544.09 623.218 1540.55 Q625.047 1536.98 625.047 1529.87 Q625.047 1522.75 623.218 1519.2 Q621.413 1515.64 617.779 1515.64 M617.779 1511.93 Q623.589 1511.93 626.644 1516.54 Q629.723 1521.12 629.723 1529.87 Q629.723 1538.6 626.644 1543.21 Q623.589 1547.79 617.779 1547.79 Q611.969 1547.79 608.89 1543.21 Q605.834 1538.6 605.834 1529.87 Q605.834 1521.12 608.89 1516.54 Q611.969 1511.93 617.779 1511.93 Z" fill="#000000" fill-rule="evenodd" fill-opacity="1" /><path clip-path="url(#clip850)" d="M 0 0 M771.685 1543.18 L779.323 1543.18 L779.323 1516.82 L771.013 1518.49 L771.013 1514.23 L779.277 1512.56 L783.953 1512.56 L783.953 1543.18 L791.592 1543.18 L791.592 1547.12 L771.685 1547.12 L771.685 1543.18 Z" fill="#000000" fill-rule="evenodd" fill-opacity="1" /><path clip-path="url(#clip850)" d="M 0 0 M796.661 1541.24 L801.546 1541.24 L801.546 1547.12 L796.661 1547.12 L796.661 1541.24 Z" fill="#000000" fill-rule="evenodd" fill-opacity="1" /><path clip-path="url(#clip850)" d="M 0 0 M810.643 1543.18 L826.962 1543.18 L826.962 1547.12 L805.018 1547.12 L805.018 1543.18 Q807.68 1540.43 812.263 1535.8 Q816.87 1531.15 818.05 1529.81 Q820.295 1527.28 821.175 1525.55 Q822.078 1523.79 822.078 1522.1 Q822.078 1519.34 820.133 1517.61 Q818.212 1515.87 815.11 1515.87 Q812.911 1515.87 810.458 1516.63 Q808.027 1517.4 805.249 1518.95 L805.249 1514.23 Q808.073 1513.09 810.527 1512.51 Q812.981 1511.93 815.018 1511.93 Q820.388 1511.93 823.582 1514.62 Q826.777 1517.31 826.777 1521.8 Q826.777 1523.93 825.967 1525.85 Q825.18 1527.74 823.073 1530.34 Q822.495 1531.01 819.393 1534.23 Q816.291 1537.42 810.643 1543.18 Z" fill="#000000" fill-rule="evenodd" fill-opacity="1" /><path clip-path="url(#clip850)" d="M 0 0 M832.078 1512.56 L850.434 1512.56 L850.434 1516.5 L836.36 1516.5 L836.36 1524.97 Q837.379 1524.62 838.397 1524.46 Q839.416 1524.27 840.434 1524.27 Q846.221 1524.27 849.601 1527.44 Q852.98 1530.62 852.98 1536.03 Q852.98 1541.61 849.508 1544.71 Q846.036 1547.79 839.717 1547.79 Q837.541 1547.79 835.272 1547.42 Q833.027 1547.05 830.619 1546.31 L830.619 1541.61 Q832.703 1542.74 834.925 1543.3 Q837.147 1543.86 839.624 1543.86 Q843.629 1543.86 845.967 1541.75 Q848.305 1539.64 848.305 1536.03 Q848.305 1532.42 845.967 1530.31 Q843.629 1528.21 839.624 1528.21 Q837.749 1528.21 835.874 1528.62 Q834.022 1529.04 832.078 1529.92 L832.078 1512.56 Z" fill="#000000" fill-rule="evenodd" fill-opacity="1" /><path clip-path="url(#clip850)" d="M 0 0 M995.44 1543.18 L1003.08 1543.18 L1003.08 1516.82 L994.768 1518.49 L994.768 1514.23 L1003.03 1512.56 L1007.71 1512.56 L1007.71 1543.18 L1015.35 1543.18 L1015.35 1547.12 L995.44 1547.12 L995.44 1543.18 Z" fill="#000000" fill-rule="evenodd" fill-opacity="1" /><path clip-path="url(#clip850)" d="M 0 0 M1020.42 1541.24 L1025.3 1541.24 L1025.3 1547.12 L1020.42 1547.12 L1020.42 1541.24 Z" fill="#000000" fill-rule="evenodd" fill-opacity="1" /><path clip-path="url(#clip850)" d="M 0 0 M1030.42 1512.56 L1048.77 1512.56 L1048.77 1516.5 L1034.7 1516.5 L1034.7 1524.97 Q1035.72 1524.62 1036.74 1524.46 Q1037.75 1524.27 1038.77 1524.27 Q1044.56 1524.27 1047.94 1527.44 Q1051.32 1530.62 1051.32 1536.03 Q1051.32 1541.61 1047.85 1544.71 Q1044.37 1547.79 1038.06 1547.79 Q1035.88 1547.79 1033.61 1547.42 Q1031.37 1547.05 1028.96 1546.31 L1028.96 1541.61 Q1031.04 1542.74 1033.26 1543.3 Q1035.49 1543.86 1037.96 1543.86 Q1041.97 1543.86 1044.31 1541.75 Q1046.64 1539.64 1046.64 1536.03 Q1046.64 1532.42 1044.31 1530.31 Q1041.97 1528.21 1037.96 1528.21 Q1036.09 1528.21 1034.21 1528.62 Q1032.36 1529.04 1030.42 1529.92 L1030.42 1512.56 Z" fill="#000000" fill-rule="evenodd" fill-opacity="1" /><path clip-path="url(#clip850)" d="M 0 0 M1066.39 1515.64 Q1062.78 1515.64 1060.95 1519.2 Q1059.14 1522.75 1059.14 1529.87 Q1059.14 1536.98 1060.95 1540.55 Q1062.78 1544.09 1066.39 1544.09 Q1070.02 1544.09 1071.83 1540.55 Q1073.66 1536.98 1073.66 1529.87 Q1073.66 1522.75 1071.83 1519.2 Q1070.02 1515.64 1066.39 1515.64 M1066.39 1511.93 Q1072.2 1511.93 1075.25 1516.54 Q1078.33 1521.12 1078.33 1529.87 Q1078.33 1538.6 1075.25 1543.21 Q1072.2 1547.79 1066.39 1547.79 Q1060.58 1547.79 1057.5 1543.21 Q1054.44 1538.6 1054.44 1529.87 Q1054.44 1521.12 1057.5 1516.54 Q1060.58 1511.93 1066.39 1511.93 Z" fill="#000000" fill-rule="evenodd" fill-opacity="1" /><path clip-path="url(#clip850)" d="M 0 0 M1220.44 1543.18 L1228.08 1543.18 L1228.08 1516.82 L1219.77 1518.49 L1219.77 1514.23 L1228.04 1512.56 L1232.71 1512.56 L1232.71 1543.18 L1240.35 1543.18 L1240.35 1547.12 L1220.44 1547.12 L1220.44 1543.18 Z" fill="#000000" fill-rule="evenodd" fill-opacity="1" /><path clip-path="url(#clip850)" d="M 0 0 M1245.42 1541.24 L1250.31 1541.24 L1250.31 1547.12 L1245.42 1547.12 L1245.42 1541.24 Z" fill="#000000" fill-rule="evenodd" fill-opacity="1" /><path clip-path="url(#clip850)" d="M 0 0 M1254.19 1512.56 L1276.42 1512.56 L1276.42 1514.55 L1263.87 1547.12 L1258.99 1547.12 L1270.79 1516.5 L1254.19 1516.5 L1254.19 1512.56 Z" fill="#000000" fill-rule="evenodd" fill-opacity="1" /><path clip-path="url(#clip850)" d="M 0 0 M1281.53 1512.56 L1299.89 1512.56 L1299.89 1516.5 L1285.81 1516.5 L1285.81 1524.97 Q1286.83 1524.62 1287.85 1524.46 Q1288.87 1524.27 1289.89 1524.27 Q1295.68 1524.27 1299.06 1527.44 Q1302.44 1530.62 1302.44 1536.03 Q1302.44 1541.61 1298.96 1544.71 Q1295.49 1547.79 1289.17 1547.79 Q1287 1547.79 1284.73 1547.42 Q1282.48 1547.05 1280.07 1546.31 L1280.07 1541.61 Q1282.16 1542.74 1284.38 1543.3 Q1286.6 1543.86 1289.08 1543.86 Q1293.08 1543.86 1295.42 1541.75 Q1297.76 1539.64 1297.76 1536.03 Q1297.76 1532.42 1295.42 1530.31 Q1293.08 1528.21 1289.08 1528.21 Q1287.2 1528.21 1285.33 1528.62 Q1283.48 1529.04 1281.53 1529.92 L1281.53 1512.56 Z" fill="#000000" fill-rule="evenodd" fill-opacity="1" /><path clip-path="url(#clip850)" d="M 0 0 M1448.32 1543.18 L1464.64 1543.18 L1464.64 1547.12 L1442.7 1547.12 L1442.7 1543.18 Q1445.36 1540.43 1449.94 1535.8 Q1454.55 1531.15 1455.73 1529.81 Q1457.97 1527.28 1458.85 1525.55 Q1459.76 1523.79 1459.76 1522.1 Q1459.76 1519.34 1457.81 1517.61 Q1455.89 1515.87 1452.79 1515.87 Q1450.59 1515.87 1448.14 1516.63 Q1445.7 1517.4 1442.93 1518.95 L1442.93 1514.23 Q1445.75 1513.09 1448.2 1512.51 Q1450.66 1511.93 1452.7 1511.93 Q1458.07 1511.93 1461.26 1514.62 Q1464.45 1517.31 1464.45 1521.8 Q1464.45 1523.93 1463.64 1525.85 Q1462.86 1527.74 1460.75 1530.34 Q1460.17 1531.01 1457.07 1534.23 Q1453.97 1537.42 1448.32 1543.18 Z" fill="#000000" fill-rule="evenodd" fill-opacity="1" /><path clip-path="url(#clip850)" d="M 0 0 M1469.71 1541.24 L1474.59 1541.24 L1474.59 1547.12 L1469.71 1547.12 L1469.71 1541.24 Z" fill="#000000" fill-rule="evenodd" fill-opacity="1" /><path clip-path="url(#clip850)" d="M 0 0 M1489.66 1515.64 Q1486.05 1515.64 1484.22 1519.2 Q1482.42 1522.75 1482.42 1529.87 Q1482.42 1536.98 1484.22 1540.55 Q1486.05 1544.09 1489.66 1544.09 Q1493.3 1544.09 1495.1 1540.55 Q1496.93 1536.98 1496.93 1529.87 Q1496.93 1522.75 1495.1 1519.2 Q1493.3 1515.64 1489.66 1515.64 M1489.66 1511.93 Q1495.47 1511.93 1498.53 1516.54 Q1501.61 1521.12 1501.61 1529.87 Q1501.61 1538.6 1498.53 1543.21 Q1495.47 1547.79 1489.66 1547.79 Q1483.85 1547.79 1480.77 1543.21 Q1477.72 1538.6 1477.72 1529.87 Q1477.72 1521.12 1480.77 1516.54 Q1483.85 1511.93 1489.66 1511.93 Z" fill="#000000" fill-rule="evenodd" fill-opacity="1" /><path clip-path="url(#clip850)" d="M 0 0 M1516.68 1515.64 Q1513.07 1515.64 1511.24 1519.2 Q1509.43 1522.75 1509.43 1529.87 Q1509.43 1536.98 1511.24 1540.55 Q1513.07 1544.09 1516.68 1544.09 Q1520.31 1544.09 1522.12 1540.55 Q1523.94 1536.98 1523.94 1529.87 Q1523.94 1522.75 1522.12 1519.2 Q1520.31 1515.64 1516.68 1515.64 M1516.68 1511.93 Q1522.49 1511.93 1525.54 1516.54 Q1528.62 1521.12 1528.62 1529.87 Q1528.62 1538.6 1525.54 1543.21 Q1522.49 1547.79 1516.68 1547.79 Q1510.87 1547.79 1507.79 1543.21 Q1504.73 1538.6 1504.73 1529.87 Q1504.73 1521.12 1507.79 1516.54 Q1510.87 1511.93 1516.68 1511.93 Z" fill="#000000" fill-rule="evenodd" fill-opacity="1" /><path clip-path="url(#clip850)" d="M 0 0 M1674.17 1543.18 L1690.49 1543.18 L1690.49 1547.12 L1668.55 1547.12 L1668.55 1543.18 Q1671.21 1540.43 1675.79 1535.8 Q1680.4 1531.15 1681.58 1529.81 Q1683.82 1527.28 1684.7 1525.55 Q1685.61 1523.79 1685.61 1522.1 Q1685.61 1519.34 1683.66 1517.61 Q1681.74 1515.87 1678.64 1515.87 Q1676.44 1515.87 1673.98 1516.63 Q1671.55 1517.4 1668.78 1518.95 L1668.78 1514.23 Q1671.6 1513.09 1674.05 1512.51 Q1676.51 1511.93 1678.55 1511.93 Q1683.92 1511.93 1687.11 1514.62 Q1690.3 1517.31 1690.3 1521.8 Q1690.3 1523.93 1689.49 1525.85 Q1688.71 1527.74 1686.6 1530.34 Q1686.02 1531.01 1682.92 1534.23 Q1679.82 1537.42 1674.17 1543.18 Z" fill="#000000" fill-rule="evenodd" fill-opacity="1" /><path clip-path="url(#clip850)" d="M 0 0 M1695.56 1541.24 L1700.44 1541.24 L1700.44 1547.12 L1695.56 1547.12 L1695.56 1541.24 Z" fill="#000000" fill-rule="evenodd" fill-opacity="1" /><path clip-path="url(#clip850)" d="M 0 0 M1709.54 1543.18 L1725.86 1543.18 L1725.86 1547.12 L1703.92 1547.12 L1703.92 1543.18 Q1706.58 1540.43 1711.16 1535.8 Q1715.77 1531.15 1716.95 1529.81 Q1719.19 1527.28 1720.07 1525.55 Q1720.98 1523.79 1720.98 1522.1 Q1720.98 1519.34 1719.03 1517.61 Q1717.11 1515.87 1714.01 1515.87 Q1711.81 1515.87 1709.36 1516.63 Q1706.92 1517.4 1704.15 1518.95 L1704.15 1514.23 Q1706.97 1513.09 1709.42 1512.51 Q1711.88 1511.93 1713.92 1511.93 Q1719.29 1511.93 1722.48 1514.62 Q1725.67 1517.31 1725.67 1521.8 Q1725.67 1523.93 1724.86 1525.85 Q1724.08 1527.74 1721.97 1530.34 Q1721.39 1531.01 1718.29 1534.23 Q1715.19 1537.42 1709.54 1543.18 Z" fill="#000000" fill-rule="evenodd" fill-opacity="1" /><path clip-path="url(#clip850)" d="M 0 0 M1730.98 1512.56 L1749.33 1512.56 L1749.33 1516.5 L1735.26 1516.5 L1735.26 1524.97 Q1736.28 1524.62 1737.29 1524.46 Q1738.31 1524.27 1739.33 1524.27 Q1745.12 1524.27 1748.5 1527.44 Q1751.88 1530.62 1751.88 1536.03 Q1751.88 1541.61 1748.41 1544.71 Q1744.93 1547.79 1738.61 1547.79 Q1736.44 1547.79 1734.17 1547.42 Q1731.92 1547.05 1729.52 1546.31 L1729.52 1541.61 Q1731.6 1542.74 1733.82 1543.3 Q1736.04 1543.86 1738.52 1543.86 Q1742.53 1543.86 1744.86 1541.75 Q1747.2 1539.64 1747.2 1536.03 Q1747.2 1532.42 1744.86 1530.31 Q1742.53 1528.21 1738.52 1528.21 Q1736.65 1528.21 1734.77 1528.62 Q1732.92 1529.04 1730.98 1529.92 L1730.98 1512.56 Z" fill="#000000" fill-rule="evenodd" fill-opacity="1" /><polyline clip-path="url(#clip852)" style="stroke:#000000; stroke-width:2; stroke-opacity:0.1; fill:none" points="
  179.654,1341.27 1893.45,1341.27 
  "/>
<polyline clip-path="url(#clip852)" style="stroke:#000000; stroke-width:2; stroke-opacity:0.1; fill:none" points="
  179.654,1080.17 1893.45,1080.17 
  "/>
<polyline clip-path="url(#clip852)" style="stroke:#000000; stroke-width:2; stroke-opacity:0.1; fill:none" points="
  179.654,819.067 1893.45,819.067 
  "/>
<polyline clip-path="url(#clip852)" style="stroke:#000000; stroke-width:2; stroke-opacity:0.1; fill:none" points="
  179.654,557.963 1893.45,557.963 
  "/>
<polyline clip-path="url(#clip852)" style="stroke:#000000; stroke-width:2; stroke-opacity:0.1; fill:none" points="
  179.654,296.859 1893.45,296.859 
  "/>
<polyline clip-path="url(#clip850)" style="stroke:#000000; stroke-width:4; stroke-opacity:1; fill:none" points="
  179.654,1486.45 179.654,47.2441 
  "/>
<polyline clip-path="url(#clip850)" style="stroke:#000000; stroke-width:4; stroke-opacity:1; fill:none" points="
  179.654,1341.27 200.219,1341.27 
  "/>
<polyline clip-path="url(#clip850)" style="stroke:#000000; stroke-width:4; stroke-opacity:1; fill:none" points="
  179.654,1080.17 200.219,1080.17 
  "/>
<polyline clip-path="url(#clip850)" style="stroke:#000000; stroke-width:4; stroke-opacity:1; fill:none" points="
  179.654,819.067 200.219,819.067 
  "/>
<polyline clip-path="url(#clip850)" style="stroke:#000000; stroke-width:4; stroke-opacity:1; fill:none" points="
  179.654,557.963 200.219,557.963 
  "/>
<polyline clip-path="url(#clip850)" style="stroke:#000000; stroke-width:4; stroke-opacity:1; fill:none" points="
  179.654,296.859 200.219,296.859 
  "/>
<path clip-path="url(#clip850)" d="M 0 0 M50.9921 1341.73 L80.6679 1341.73 L80.6679 1345.66 L50.9921 1345.66 L50.9921 1341.73 Z" fill="#000000" fill-rule="evenodd" fill-opacity="1" /><path clip-path="url(#clip850)" d="M 0 0 M85.7836 1323.99 L104.14 1323.99 L104.14 1327.93 L90.066 1327.93 L90.066 1336.4 Q91.0845 1336.05 92.103 1335.89 Q93.1215 1335.71 94.14 1335.71 Q99.927 1335.71 103.307 1338.88 Q106.686 1342.05 106.686 1347.47 Q106.686 1353.04 103.214 1356.15 Q99.7419 1359.23 93.4225 1359.23 Q91.2465 1359.23 88.978 1358.86 Q86.7327 1358.48 84.3253 1357.74 L84.3253 1353.04 Q86.4086 1354.18 88.6308 1354.73 Q90.853 1355.29 93.3299 1355.29 Q97.3345 1355.29 99.6724 1353.18 Q102.01 1351.08 102.01 1347.47 Q102.01 1343.86 99.6724 1341.75 Q97.3345 1339.64 93.3299 1339.64 Q91.4549 1339.64 89.5799 1340.06 Q87.728 1340.48 85.7836 1341.36 L85.7836 1323.99 Z" fill="#000000" fill-rule="evenodd" fill-opacity="1" /><path clip-path="url(#clip850)" d="M 0 0 M111.756 1352.67 L116.64 1352.67 L116.64 1358.55 L111.756 1358.55 L111.756 1352.67 Z" fill="#000000" fill-rule="evenodd" fill-opacity="1" /><path clip-path="url(#clip850)" d="M 0 0 M131.709 1327.07 Q128.098 1327.07 126.27 1330.64 Q124.464 1334.18 124.464 1341.31 Q124.464 1348.42 126.27 1351.98 Q128.098 1355.52 131.709 1355.52 Q135.344 1355.52 137.149 1351.98 Q138.978 1348.42 138.978 1341.31 Q138.978 1334.18 137.149 1330.64 Q135.344 1327.07 131.709 1327.07 M131.709 1323.37 Q137.519 1323.37 140.575 1327.98 Q143.654 1332.56 143.654 1341.31 Q143.654 1350.04 140.575 1354.64 Q137.519 1359.23 131.709 1359.23 Q125.899 1359.23 122.82 1354.64 Q119.765 1350.04 119.765 1341.31 Q119.765 1332.56 122.82 1327.98 Q125.899 1323.37 131.709 1323.37 Z" fill="#000000" fill-rule="evenodd" fill-opacity="1" /><path clip-path="url(#clip850)" d="M 0 0 M52.5893 1080.62 L82.2651 1080.62 L82.2651 1084.56 L52.5893 1084.56 L52.5893 1080.62 Z" fill="#000000" fill-rule="evenodd" fill-opacity="1" /><path clip-path="url(#clip850)" d="M 0 0 M91.3623 1093.52 L107.682 1093.52 L107.682 1097.45 L85.7373 1097.45 L85.7373 1093.52 Q88.3993 1090.76 92.9826 1086.13 Q97.5891 1081.48 98.7696 1080.14 Q101.015 1077.61 101.895 1075.88 Q102.797 1074.12 102.797 1072.43 Q102.797 1069.67 100.853 1067.94 Q98.9317 1066.2 95.8298 1066.2 Q93.6308 1066.2 91.1771 1066.96 Q88.7466 1067.73 85.9688 1069.28 L85.9688 1064.56 Q88.7928 1063.42 91.2465 1062.84 Q93.7002 1062.27 95.7373 1062.27 Q101.108 1062.27 104.302 1064.95 Q107.496 1067.64 107.496 1072.13 Q107.496 1074.26 106.686 1076.18 Q105.899 1078.08 103.793 1080.67 Q103.214 1081.34 100.112 1084.56 Q97.0104 1087.75 91.3623 1093.52 Z" fill="#000000" fill-rule="evenodd" fill-opacity="1" /><path clip-path="url(#clip850)" d="M 0 0 M112.751 1091.57 L117.635 1091.57 L117.635 1097.45 L112.751 1097.45 L112.751 1091.57 Z" fill="#000000" fill-rule="evenodd" fill-opacity="1" /><path clip-path="url(#clip850)" d="M 0 0 M122.751 1062.89 L141.107 1062.89 L141.107 1066.83 L127.033 1066.83 L127.033 1075.3 Q128.052 1074.95 129.07 1074.79 Q130.089 1074.6 131.107 1074.6 Q136.894 1074.6 140.274 1077.77 Q143.654 1080.95 143.654 1086.36 Q143.654 1091.94 140.181 1095.04 Q136.709 1098.12 130.39 1098.12 Q128.214 1098.12 125.945 1097.75 Q123.7 1097.38 121.293 1096.64 L121.293 1091.94 Q123.376 1093.08 125.598 1093.63 Q127.82 1094.19 130.297 1094.19 Q134.302 1094.19 136.64 1092.08 Q138.978 1089.97 138.978 1086.36 Q138.978 1082.75 136.64 1080.64 Q134.302 1078.54 130.297 1078.54 Q128.422 1078.54 126.547 1078.96 Q124.695 1079.37 122.751 1080.25 L122.751 1062.89 Z" fill="#000000" fill-rule="evenodd" fill-opacity="1" /><path clip-path="url(#clip850)" d="M 0 0 M94.7419 804.865 Q91.1308 804.865 89.3021 808.43 Q87.4966 811.972 87.4966 819.101 Q87.4966 826.208 89.3021 829.773 Q91.1308 833.314 94.7419 833.314 Q98.3761 833.314 100.182 829.773 Q102.01 826.208 102.01 819.101 Q102.01 811.972 100.182 808.43 Q98.3761 804.865 94.7419 804.865 M94.7419 801.162 Q100.552 801.162 103.608 805.768 Q106.686 810.351 106.686 819.101 Q106.686 827.828 103.608 832.435 Q100.552 837.018 94.7419 837.018 Q88.9317 837.018 85.8531 832.435 Q82.7975 827.828 82.7975 819.101 Q82.7975 810.351 85.8531 805.768 Q88.9317 801.162 94.7419 801.162 Z" fill="#000000" fill-rule="evenodd" fill-opacity="1" /><path clip-path="url(#clip850)" d="M 0 0 M111.756 830.467 L116.64 830.467 L116.64 836.347 L111.756 836.347 L111.756 830.467 Z" fill="#000000" fill-rule="evenodd" fill-opacity="1" /><path clip-path="url(#clip850)" d="M 0 0 M131.709 804.865 Q128.098 804.865 126.27 808.43 Q124.464 811.972 124.464 819.101 Q124.464 826.208 126.27 829.773 Q128.098 833.314 131.709 833.314 Q135.344 833.314 137.149 829.773 Q138.978 826.208 138.978 819.101 Q138.978 811.972 137.149 808.43 Q135.344 804.865 131.709 804.865 M131.709 801.162 Q137.519 801.162 140.575 805.768 Q143.654 810.351 143.654 819.101 Q143.654 827.828 140.575 832.435 Q137.519 837.018 131.709 837.018 Q125.899 837.018 122.82 832.435 Q119.765 827.828 119.765 819.101 Q119.765 810.351 122.82 805.768 Q125.899 801.162 131.709 801.162 Z" fill="#000000" fill-rule="evenodd" fill-opacity="1" /><path clip-path="url(#clip850)" d="M 0 0 M91.3623 571.308 L107.682 571.308 L107.682 575.243 L85.7373 575.243 L85.7373 571.308 Q88.3993 568.553 92.9826 563.924 Q97.5891 559.271 98.7696 557.928 Q101.015 555.405 101.895 553.669 Q102.797 551.91 102.797 550.22 Q102.797 547.465 100.853 545.729 Q98.9317 543.993 95.8298 543.993 Q93.6308 543.993 91.1771 544.757 Q88.7466 545.521 85.9688 547.072 L85.9688 542.35 Q88.7928 541.215 91.2465 540.637 Q93.7002 540.058 95.7373 540.058 Q101.108 540.058 104.302 542.743 Q107.496 545.428 107.496 549.919 Q107.496 552.049 106.686 553.97 Q105.899 555.868 103.793 558.461 Q103.214 559.132 100.112 562.35 Q97.0104 565.544 91.3623 571.308 Z" fill="#000000" fill-rule="evenodd" fill-opacity="1" /><path clip-path="url(#clip850)" d="M 0 0 M112.751 569.363 L117.635 569.363 L117.635 575.243 L112.751 575.243 L112.751 569.363 Z" fill="#000000" fill-rule="evenodd" fill-opacity="1" /><path clip-path="url(#clip850)" d="M 0 0 M122.751 540.683 L141.107 540.683 L141.107 544.618 L127.033 544.618 L127.033 553.09 Q128.052 552.743 129.07 552.581 Q130.089 552.396 131.107 552.396 Q136.894 552.396 140.274 555.567 Q143.654 558.738 143.654 564.155 Q143.654 569.734 140.181 572.836 Q136.709 575.914 130.39 575.914 Q128.214 575.914 125.945 575.544 Q123.7 575.174 121.293 574.433 L121.293 569.734 Q123.376 570.868 125.598 571.424 Q127.82 571.979 130.297 571.979 Q134.302 571.979 136.64 569.873 Q138.978 567.766 138.978 564.155 Q138.978 560.544 136.64 558.438 Q134.302 556.331 130.297 556.331 Q128.422 556.331 126.547 556.748 Q124.695 557.164 122.751 558.044 L122.751 540.683 Z" fill="#000000" fill-rule="evenodd" fill-opacity="1" /><path clip-path="url(#clip850)" d="M 0 0 M85.7836 279.579 L104.14 279.579 L104.14 283.514 L90.066 283.514 L90.066 291.987 Q91.0845 291.639 92.103 291.477 Q93.1215 291.292 94.14 291.292 Q99.927 291.292 103.307 294.463 Q106.686 297.635 106.686 303.051 Q106.686 308.63 103.214 311.732 Q99.7419 314.811 93.4225 314.811 Q91.2465 314.811 88.978 314.44 Q86.7327 314.07 84.3253 313.329 L84.3253 308.63 Q86.4086 309.764 88.6308 310.32 Q90.853 310.875 93.3299 310.875 Q97.3345 310.875 99.6724 308.769 Q102.01 306.662 102.01 303.051 Q102.01 299.44 99.6724 297.334 Q97.3345 295.227 93.3299 295.227 Q91.4549 295.227 89.5799 295.644 Q87.728 296.061 85.7836 296.94 L85.7836 279.579 Z" fill="#000000" fill-rule="evenodd" fill-opacity="1" /><path clip-path="url(#clip850)" d="M 0 0 M111.756 308.26 L116.64 308.26 L116.64 314.139 L111.756 314.139 L111.756 308.26 Z" fill="#000000" fill-rule="evenodd" fill-opacity="1" /><path clip-path="url(#clip850)" d="M 0 0 M131.709 282.658 Q128.098 282.658 126.27 286.223 Q124.464 289.764 124.464 296.894 Q124.464 304 126.27 307.565 Q128.098 311.107 131.709 311.107 Q135.344 311.107 137.149 307.565 Q138.978 304 138.978 296.894 Q138.978 289.764 137.149 286.223 Q135.344 282.658 131.709 282.658 M131.709 278.954 Q137.519 278.954 140.575 283.561 Q143.654 288.144 143.654 296.894 Q143.654 305.621 140.575 310.227 Q137.519 314.811 131.709 314.811 Q125.899 314.811 122.82 310.227 Q119.765 305.621 119.765 296.894 Q119.765 288.144 122.82 283.561 Q125.899 278.954 131.709 278.954 Z" fill="#000000" fill-rule="evenodd" fill-opacity="1" /><path clip-path="url(#clip852)" d="
M587.443 1341.27 L407.8 1341.27 L767.086 1341.27 L587.443 1341.27 L587.443 1106.28 L587.443 1341.27  Z
  " fill="#009af9" fill-rule="evenodd" fill-opacity="1"/>
<polyline clip-path="url(#clip852)" style="stroke:#000000; stroke-width:4; stroke-opacity:1; fill:none" points="
  587.443,1341.27 407.8,1341.27 767.086,1341.27 587.443,1341.27 587.443,1106.28 587.443,1341.27 
  "/>
<path clip-path="url(#clip852)" d="
M946.729 1106.28 L946.729 923.508 L228.157 923.508 L228.157 1106.28 L946.729 1106.28 L946.729 923.508 L946.729 1106.28  Z
  " fill="#009af9" fill-rule="evenodd" fill-opacity="1"/>
<polyline clip-path="url(#clip852)" style="stroke:#000000; stroke-width:4; stroke-opacity:1; fill:none" points="
  946.729,1106.28 946.729,923.508 228.157,923.508 228.157,1106.28 946.729,1106.28 946.729,923.508 946.729,1106.28 
  "/>
<path clip-path="url(#clip852)" d="
M946.729 505.742 L228.157 505.742 L228.157 923.508 L946.729 923.508 L946.729 505.742 L587.443 505.742 L946.729 505.742  Z
  " fill="#009af9" fill-rule="evenodd" fill-opacity="1"/>
<polyline clip-path="url(#clip852)" style="stroke:#000000; stroke-width:4; stroke-opacity:1; fill:none" points="
  946.729,505.742 228.157,505.742 228.157,923.508 946.729,923.508 946.729,505.742 587.443,505.742 946.729,505.742 
  "/>
<path clip-path="url(#clip852)" d="
M587.443 192.418 L407.8 192.418 L767.086 192.418 L587.443 192.418 L587.443 505.742 L587.443 192.418  Z
  " fill="#009af9" fill-rule="evenodd" fill-opacity="1"/>
<polyline clip-path="url(#clip852)" style="stroke:#000000; stroke-width:4; stroke-opacity:1; fill:none" points="
  587.443,192.418 407.8,192.418 767.086,192.418 587.443,192.418 587.443,505.742 587.443,192.418 
  "/>
<polyline clip-path="url(#clip852)" style="stroke:#009af9; stroke-width:0; stroke-opacity:1; fill:none" points="
  587.443,1341.27 407.8,1341.27 767.086,1341.27 587.443,1341.27 587.443,1106.28 
  "/>
<polyline clip-path="url(#clip852)" style="stroke:#009af9; stroke-width:0; stroke-opacity:1; fill:none" points="
  946.729,1106.28 946.729,923.508 228.157,923.508 228.157,1106.28 946.729,1106.28 946.729,923.508 
  "/>
<polyline clip-path="url(#clip852)" style="stroke:#009af9; stroke-width:0; stroke-opacity:1; fill:none" points="
  946.729,505.742 228.157,505.742 228.157,923.508 946.729,923.508 946.729,505.742 587.443,505.742 
  "/>
<polyline clip-path="url(#clip852)" style="stroke:#009af9; stroke-width:0; stroke-opacity:1; fill:none" points="
  587.443,192.418 407.8,192.418 767.086,192.418 587.443,192.418 587.443,505.742 
  "/>
<path clip-path="url(#clip852)" d="
M1485.66 1445.72 L1306.02 1445.72 L1665.3 1445.72 L1485.66 1445.72 L1485.66 1132.39 L1485.66 1445.72  Z
  " fill="#e26f46" fill-rule="evenodd" fill-opacity="1"/>
<polyline clip-path="url(#clip852)" style="stroke:#000000; stroke-width:4; stroke-opacity:1; fill:none" points="
  1485.66,1445.72 1306.02,1445.72 1665.3,1445.72 1485.66,1445.72 1485.66,1132.39 1485.66,1445.72 
  "/>
<path clip-path="url(#clip852)" d="
M1844.94 1132.39 L1844.94 819.067 L1126.37 819.067 L1126.37 1132.39 L1844.94 1132.39 L1844.94 819.067 L1844.94 1132.39  Z
  " fill="#e26f46" fill-rule="evenodd" fill-opacity="1"/>
<polyline clip-path="url(#clip852)" style="stroke:#000000; stroke-width:4; stroke-opacity:1; fill:none" points="
  1844.94,1132.39 1844.94,819.067 1126.37,819.067 1126.37,1132.39 1844.94,1132.39 1844.94,819.067 1844.94,1132.39 
  "/>
<path clip-path="url(#clip852)" d="
M1844.94 610.184 L1126.37 610.184 L1126.37 819.067 L1844.94 819.067 L1844.94 610.184 L1485.66 610.184 L1844.94 610.184  Z
  " fill="#e26f46" fill-rule="evenodd" fill-opacity="1"/>
<polyline clip-path="url(#clip852)" style="stroke:#000000; stroke-width:4; stroke-opacity:1; fill:none" points="
  1844.94,610.184 1126.37,610.184 1126.37,819.067 1844.94,819.067 1844.94,610.184 1485.66,610.184 1844.94,610.184 
  "/>
<path clip-path="url(#clip852)" d="
M1485.66 87.9763 L1306.02 87.9763 L1665.3 87.9763 L1485.66 87.9763 L1485.66 610.184 L1485.66 87.9763  Z
  " fill="#e26f46" fill-rule="evenodd" fill-opacity="1"/>
<polyline clip-path="url(#clip852)" style="stroke:#000000; stroke-width:4; stroke-opacity:1; fill:none" points="
  1485.66,87.9763 1306.02,87.9763 1665.3,87.9763 1485.66,87.9763 1485.66,610.184 1485.66,87.9763 
  "/>
<polyline clip-path="url(#clip852)" style="stroke:#e26f46; stroke-width:0; stroke-opacity:1; fill:none" points="
  1485.66,1445.72 1306.02,1445.72 1665.3,1445.72 1485.66,1445.72 1485.66,1132.39 
  "/>
<polyline clip-path="url(#clip852)" style="stroke:#e26f46; stroke-width:0; stroke-opacity:1; fill:none" points="
  1844.94,1132.39 1844.94,819.067 1126.37,819.067 1126.37,1132.39 1844.94,1132.39 1844.94,819.067 
  "/>
<polyline clip-path="url(#clip852)" style="stroke:#e26f46; stroke-width:0; stroke-opacity:1; fill:none" points="
  1844.94,610.184 1126.37,610.184 1126.37,819.067 1844.94,819.067 1844.94,610.184 1485.66,610.184 
  "/>
<polyline clip-path="url(#clip852)" style="stroke:#e26f46; stroke-width:0; stroke-opacity:1; fill:none" points="
  1485.66,87.9763 1306.02,87.9763 1665.3,87.9763 1485.66,87.9763 1485.66,610.184 
  "/>
<path clip-path="url(#clip850)" d="
M1965.88 1438.47 L2352.76 1438.47 L2352.76 1257.03 L1965.88 1257.03  Z
  " fill="#ffffff" fill-rule="evenodd" fill-opacity="1"/>
<polyline clip-path="url(#clip850)" style="stroke:#000000; stroke-width:4; stroke-opacity:1; fill:none" points="
  1965.88,1438.47 2352.76,1438.47 2352.76,1257.03 1965.88,1257.03 1965.88,1438.47 
  "/>
<path clip-path="url(#clip850)" d="
M1990.03 1341.71 L2134.9 1341.71 L2134.9 1293.32 L1990.03 1293.32 L1990.03 1341.71  Z
  " fill="#009af9" fill-rule="evenodd" fill-opacity="1"/>
<polyline clip-path="url(#clip850)" style="stroke:#000000; stroke-width:4; stroke-opacity:1; fill:none" points="
  1990.03,1341.71 2134.9,1341.71 2134.9,1293.32 1990.03,1293.32 1990.03,1341.71 
  "/>
<path clip-path="url(#clip850)" d="M 0 0 M2179.4 1313.85 Q2180.99 1310.98 2183.22 1309.61 Q2185.44 1308.24 2188.45 1308.24 Q2192.5 1308.24 2194.7 1311.09 Q2196.9 1313.91 2196.9 1319.15 L2196.9 1334.79 L2192.61 1334.79 L2192.61 1319.29 Q2192.61 1315.56 2191.29 1313.75 Q2189.97 1311.95 2187.27 1311.95 Q2183.96 1311.95 2182.03 1314.15 Q2180.11 1316.35 2180.11 1320.14 L2180.11 1334.79 L2175.83 1334.79 L2175.83 1319.29 Q2175.83 1315.54 2174.51 1313.75 Q2173.19 1311.95 2170.44 1311.95 Q2167.17 1311.95 2165.25 1314.17 Q2163.33 1316.37 2163.33 1320.14 L2163.33 1334.79 L2159.05 1334.79 L2159.05 1308.87 L2163.33 1308.87 L2163.33 1312.9 Q2164.79 1310.51 2166.83 1309.38 Q2168.86 1308.24 2171.66 1308.24 Q2174.49 1308.24 2176.46 1309.68 Q2178.45 1311.11 2179.4 1313.85 Z" fill="#000000" fill-rule="evenodd" fill-opacity="1" /><path clip-path="url(#clip850)" d="M 0 0 M2213.15 1321.76 Q2207.98 1321.76 2205.99 1322.94 Q2204 1324.12 2204 1326.97 Q2204 1329.24 2205.48 1330.58 Q2206.99 1331.9 2209.56 1331.9 Q2213.1 1331.9 2215.23 1329.4 Q2217.38 1326.88 2217.38 1322.71 L2217.38 1321.76 L2213.15 1321.76 M2221.64 1320 L2221.64 1334.79 L2217.38 1334.79 L2217.38 1330.86 Q2215.92 1333.22 2213.75 1334.35 Q2211.57 1335.47 2208.42 1335.47 Q2204.44 1335.47 2202.08 1333.24 Q2199.74 1331 2199.74 1327.25 Q2199.74 1322.87 2202.66 1320.65 Q2205.6 1318.43 2211.41 1318.43 L2217.38 1318.43 L2217.38 1318.01 Q2217.38 1315.07 2215.44 1313.48 Q2213.52 1311.85 2210.02 1311.85 Q2207.8 1311.85 2205.69 1312.39 Q2203.59 1312.92 2201.64 1313.98 L2201.64 1310.05 Q2203.98 1309.15 2206.18 1308.71 Q2208.38 1308.24 2210.46 1308.24 Q2216.09 1308.24 2218.86 1311.16 Q2221.64 1314.08 2221.64 1320 Z" fill="#000000" fill-rule="evenodd" fill-opacity="1" /><path clip-path="url(#clip850)" d="M 0 0 M2226.11 1298.78 L2230.37 1298.78 L2230.37 1334.79 L2226.11 1334.79 L2226.11 1298.78 Z" fill="#000000" fill-rule="evenodd" fill-opacity="1" /><path clip-path="url(#clip850)" d="M 0 0 M2257.01 1320.77 L2257.01 1322.85 L2237.43 1322.85 Q2237.71 1327.25 2240.07 1329.56 Q2242.45 1331.85 2246.69 1331.85 Q2249.14 1331.85 2251.43 1331.25 Q2253.75 1330.65 2256.02 1329.45 L2256.02 1333.47 Q2253.72 1334.45 2251.32 1334.96 Q2248.91 1335.47 2246.43 1335.47 Q2240.23 1335.47 2236.59 1331.85 Q2232.98 1328.24 2232.98 1322.09 Q2232.98 1315.72 2236.41 1311.99 Q2239.86 1308.24 2245.69 1308.24 Q2250.92 1308.24 2253.96 1311.62 Q2257.01 1314.98 2257.01 1320.77 M2252.75 1319.52 Q2252.71 1316.02 2250.78 1313.94 Q2248.89 1311.85 2245.74 1311.85 Q2242.17 1311.85 2240.02 1313.87 Q2237.89 1315.88 2237.57 1319.54 L2252.75 1319.52 Z" fill="#000000" fill-rule="evenodd" fill-opacity="1" /><path clip-path="url(#clip850)" d="
M1990.03 1402.19 L2134.9 1402.19 L2134.9 1353.8 L1990.03 1353.8 L1990.03 1402.19  Z
  " fill="#e26f46" fill-rule="evenodd" fill-opacity="1"/>
<polyline clip-path="url(#clip850)" style="stroke:#000000; stroke-width:4; stroke-opacity:1; fill:none" points="
  1990.03,1402.19 2134.9,1402.19 2134.9,1353.8 1990.03,1353.8 1990.03,1402.19 
  "/>
<path clip-path="url(#clip850)" d="M 0 0 M2175.55 1359.26 L2175.55 1362.8 L2171.48 1362.8 Q2169.19 1362.8 2168.28 1363.72 Q2167.41 1364.65 2167.41 1367.06 L2167.41 1369.35 L2174.42 1369.35 L2174.42 1372.66 L2167.41 1372.66 L2167.41 1395.27 L2163.12 1395.27 L2163.12 1372.66 L2159.05 1372.66 L2159.05 1369.35 L2163.12 1369.35 L2163.12 1367.54 Q2163.12 1363.21 2165.14 1361.25 Q2167.15 1359.26 2171.53 1359.26 L2175.55 1359.26 Z" fill="#000000" fill-rule="evenodd" fill-opacity="1" /><path clip-path="url(#clip850)" d="M 0 0 M2202.2 1381.25 L2202.2 1383.33 L2182.61 1383.33 Q2182.89 1387.73 2185.25 1390.04 Q2187.64 1392.33 2191.87 1392.33 Q2194.33 1392.33 2196.62 1391.73 Q2198.93 1391.13 2201.2 1389.93 L2201.2 1393.95 Q2198.91 1394.93 2196.5 1395.44 Q2194.09 1395.95 2191.62 1395.95 Q2185.41 1395.95 2181.78 1392.33 Q2178.17 1388.72 2178.17 1382.57 Q2178.17 1376.2 2181.6 1372.47 Q2185.04 1368.72 2190.88 1368.72 Q2196.11 1368.72 2199.14 1372.1 Q2202.2 1375.46 2202.2 1381.25 M2197.94 1380 Q2197.89 1376.5 2195.97 1374.42 Q2194.07 1372.33 2190.92 1372.33 Q2187.36 1372.33 2185.21 1374.35 Q2183.08 1376.36 2182.75 1380.02 L2197.94 1380 Z" fill="#000000" fill-rule="evenodd" fill-opacity="1" /><path clip-path="url(#clip850)" d="M 0 0 M2226.85 1374.33 Q2228.45 1371.46 2230.67 1370.09 Q2232.89 1368.72 2235.9 1368.72 Q2239.95 1368.72 2242.15 1371.57 Q2244.35 1374.39 2244.35 1379.63 L2244.35 1395.27 L2240.07 1395.27 L2240.07 1379.77 Q2240.07 1376.04 2238.75 1374.23 Q2237.43 1372.43 2234.72 1372.43 Q2231.41 1372.43 2229.49 1374.63 Q2227.57 1376.83 2227.57 1380.62 L2227.57 1395.27 L2223.28 1395.27 L2223.28 1379.77 Q2223.28 1376.02 2221.97 1374.23 Q2220.65 1372.43 2217.89 1372.43 Q2214.63 1372.43 2212.71 1374.65 Q2210.78 1376.85 2210.78 1380.62 L2210.78 1395.27 L2206.5 1395.27 L2206.5 1369.35 L2210.78 1369.35 L2210.78 1373.38 Q2212.24 1370.99 2214.28 1369.86 Q2216.32 1368.72 2219.12 1368.72 Q2221.94 1368.72 2223.91 1370.16 Q2225.9 1371.59 2226.85 1374.33 Z" fill="#000000" fill-rule="evenodd" fill-opacity="1" /><path clip-path="url(#clip850)" d="M 0 0 M2260.6 1382.24 Q2255.44 1382.24 2253.45 1383.42 Q2251.46 1384.6 2251.46 1387.45 Q2251.46 1389.72 2252.94 1391.06 Q2254.44 1392.38 2257.01 1392.38 Q2260.55 1392.38 2262.68 1389.88 Q2264.84 1387.36 2264.84 1383.19 L2264.84 1382.24 L2260.6 1382.24 M2269.09 1380.48 L2269.09 1395.27 L2264.84 1395.27 L2264.84 1391.34 Q2263.38 1393.7 2261.2 1394.83 Q2259.03 1395.95 2255.88 1395.95 Q2251.9 1395.95 2249.53 1393.72 Q2247.2 1391.48 2247.2 1387.73 Q2247.2 1383.35 2250.11 1381.13 Q2253.05 1378.91 2258.86 1378.91 L2264.84 1378.91 L2264.84 1378.49 Q2264.84 1375.55 2262.89 1373.96 Q2260.97 1372.33 2257.47 1372.33 Q2255.25 1372.33 2253.15 1372.87 Q2251.04 1373.4 2249.09 1374.46 L2249.09 1370.53 Q2251.43 1369.63 2253.63 1369.19 Q2255.83 1368.72 2257.91 1368.72 Q2263.54 1368.72 2266.32 1371.64 Q2269.09 1374.56 2269.09 1380.48 Z" fill="#000000" fill-rule="evenodd" fill-opacity="1" /><path clip-path="url(#clip850)" d="M 0 0 M2273.56 1359.26 L2277.82 1359.26 L2277.82 1395.27 L2273.56 1395.27 L2273.56 1359.26 Z" fill="#000000" fill-rule="evenodd" fill-opacity="1" /><path clip-path="url(#clip850)" d="M 0 0 M2304.46 1381.25 L2304.46 1383.33 L2284.88 1383.33 Q2285.16 1387.73 2287.52 1390.04 Q2289.9 1392.33 2294.14 1392.33 Q2296.59 1392.33 2298.89 1391.73 Q2301.2 1391.13 2303.47 1389.93 L2303.47 1393.95 Q2301.18 1394.93 2298.77 1395.44 Q2296.36 1395.95 2293.89 1395.95 Q2287.68 1395.95 2284.05 1392.33 Q2280.44 1388.72 2280.44 1382.57 Q2280.44 1376.2 2283.86 1372.47 Q2287.31 1368.72 2293.15 1368.72 Q2298.38 1368.72 2301.41 1372.1 Q2304.46 1375.46 2304.46 1381.25 M2300.21 1380 Q2300.16 1376.5 2298.24 1374.42 Q2296.34 1372.33 2293.19 1372.33 Q2289.63 1372.33 2287.47 1374.35 Q2285.34 1376.36 2285.02 1380.02 L2300.21 1380 Z" fill="#000000" fill-rule="evenodd" fill-opacity="1" /></svg>
