<?xml version="1.0" encoding="utf-8"?>
<svg xmlns="http://www.w3.org/2000/svg" xmlns:xlink="http://www.w3.org/1999/xlink" width="600" height="400" viewBox="0 0 2400 1600">
<defs>
  <clipPath id="clip890">
    <rect x="0" y="0" width="2400" height="1600"/>
  </clipPath>
</defs>
<path clip-path="url(#clip890)" d="
M0 1600 L2400 1600 L2400 0 L0 0  Z
  " fill="#ffffff" fill-rule="evenodd" fill-opacity="1"/>
<defs>
  <clipPath id="clip891">
    <rect x="480" y="0" width="1681" height="1600"/>
  </clipPath>
</defs>
<path clip-path="url(#clip890)" d="
M179.654 1486.45 L2013.68 1486.45 L2013.68 47.2441 L179.654 47.2441  Z
  " fill="#ffffff" fill-rule="evenodd" fill-opacity="1"/>
<defs>
  <clipPath id="clip892">
    <rect x="179" y="47" width="1835" height="1440"/>
  </clipPath>
</defs>
<polyline clip-path="url(#clip892)" style="stroke:#000000; stroke-width:2; stroke-opacity:0.1; fill:none" points="
  413.688,1486.45 413.688,47.2441 
  "/>
<polyline clip-path="url(#clip892)" style="stroke:#000000; stroke-width:2; stroke-opacity:0.1; fill:none" points="
  869.007,1486.45 869.007,47.2441 
  "/>
<polyline clip-path="url(#clip892)" style="stroke:#000000; stroke-width:2; stroke-opacity:0.1; fill:none" points="
  1324.33,1486.45 1324.33,47.2441 
  "/>
<polyline clip-path="url(#clip892)" style="stroke:#000000; stroke-width:2; stroke-opacity:0.1; fill:none" points="
  1779.64,1486.45 1779.64,47.2441 
  "/>
<polyline clip-path="url(#clip890)" style="stroke:#000000; stroke-width:4; stroke-opacity:1; fill:none" points="
  179.654,1486.45 2013.68,1486.45 
  "/>
<polyline clip-path="url(#clip890)" style="stroke:#000000; stroke-width:4; stroke-opacity:1; fill:none" points="
  413.688,1486.45 413.688,1469.18 
  "/>
<polyline clip-path="url(#clip890)" style="stroke:#000000; stroke-width:4; stroke-opacity:1; fill:none" points="
  869.007,1486.45 869.007,1469.18 
  "/>
<polyline clip-path="url(#clip890)" style="stroke:#000000; stroke-width:4; stroke-opacity:1; fill:none" points="
  1324.33,1486.45 1324.33,1469.18 
  "/>
<polyline clip-path="url(#clip890)" style="stroke:#000000; stroke-width:4; stroke-opacity:1; fill:none" points="
  1779.64,1486.45 1779.64,1469.18 
  "/>
<path clip-path="url(#clip890)" d="M 0 0 M404.07 1543.18 L411.708 1543.18 L411.708 1516.82 L403.398 1518.49 L403.398 1514.23 L411.662 1512.56 L416.338 1512.56 L416.338 1543.18 L423.977 1543.18 L423.977 1547.12 L404.07 1547.12 L404.07 1543.18 Z" fill="#000000" fill-rule="evenodd" fill-opacity="1" /><path clip-path="url(#clip890)" d="M 0 0 M863.659 1543.18 L879.979 1543.18 L879.979 1547.12 L858.034 1547.12 L858.034 1543.18 Q860.696 1540.43 865.28 1535.8 Q869.886 1531.15 871.067 1529.81 Q873.312 1527.28 874.192 1525.55 Q875.094 1523.79 875.094 1522.1 Q875.094 1519.34 873.15 1517.61 Q871.229 1515.87 868.127 1515.87 Q865.928 1515.87 863.474 1516.63 Q861.044 1517.4 858.266 1518.95 L858.266 1514.23 Q861.09 1513.09 863.544 1512.51 Q865.997 1511.93 868.034 1511.93 Q873.405 1511.93 876.599 1514.62 Q879.794 1517.31 879.794 1521.8 Q879.794 1523.93 878.983 1525.85 Q878.196 1527.74 876.09 1530.34 Q875.511 1531.01 872.409 1534.23 Q869.307 1537.42 863.659 1543.18 Z" fill="#000000" fill-rule="evenodd" fill-opacity="1" /><path clip-path="url(#clip890)" d="M 0 0 M1328.57 1528.49 Q1331.93 1529.2 1333.8 1531.47 Q1335.7 1533.74 1335.7 1537.07 Q1335.7 1542.19 1332.18 1544.99 Q1328.67 1547.79 1322.18 1547.79 Q1320.01 1547.79 1317.69 1547.35 Q1315.4 1546.93 1312.95 1546.08 L1312.95 1541.56 Q1314.89 1542.7 1317.21 1543.28 Q1319.52 1543.86 1322.05 1543.86 Q1326.44 1543.86 1328.74 1542.12 Q1331.05 1540.38 1331.05 1537.07 Q1331.05 1534.02 1328.9 1532.31 Q1326.77 1530.57 1322.95 1530.57 L1318.92 1530.57 L1318.92 1526.73 L1323.13 1526.73 Q1326.58 1526.73 1328.41 1525.36 Q1330.24 1523.97 1330.24 1521.38 Q1330.24 1518.72 1328.34 1517.31 Q1326.47 1515.87 1322.95 1515.87 Q1321.03 1515.87 1318.83 1516.29 Q1316.63 1516.7 1313.99 1517.58 L1313.99 1513.42 Q1316.65 1512.68 1318.97 1512.31 Q1321.3 1511.93 1323.36 1511.93 Q1328.69 1511.93 1331.79 1514.37 Q1334.89 1516.77 1334.89 1520.89 Q1334.89 1523.76 1333.25 1525.75 Q1331.61 1527.72 1328.57 1528.49 Z" fill="#000000" fill-rule="evenodd" fill-opacity="1" /><path clip-path="url(#clip890)" d="M 0 0 M1782.65 1516.63 L1770.85 1535.08 L1782.65 1535.08 L1782.65 1516.63 M1781.43 1512.56 L1787.31 1512.56 L1787.31 1535.08 L1792.24 1535.08 L1792.24 1538.97 L1787.31 1538.97 L1787.31 1547.12 L1782.65 1547.12 L1782.65 1538.97 L1767.05 1538.97 L1767.05 1534.46 L1781.43 1512.56 Z" fill="#000000" fill-rule="evenodd" fill-opacity="1" /><polyline clip-path="url(#clip892)" style="stroke:#000000; stroke-width:2; stroke-opacity:0.1; fill:none" points="
  179.654,1341.27 2013.68,1341.27 
  "/>
<polyline clip-path="url(#clip892)" style="stroke:#000000; stroke-width:2; stroke-opacity:0.1; fill:none" points="
  179.654,1080.17 2013.68,1080.17 
  "/>
<polyline clip-path="url(#clip892)" style="stroke:#000000; stroke-width:2; stroke-opacity:0.1; fill:none" points="
  179.654,819.067 2013.68,819.067 
  "/>
<polyline clip-path="url(#clip892)" style="stroke:#000000; stroke-width:2; stroke-opacity:0.1; fill:none" points="
  179.654,557.963 2013.68,557.963 
  "/>
<polyline clip-path="url(#clip892)" style="stroke:#000000; stroke-width:2; stroke-opacity:0.1; fill:none" points="
  179.654,296.859 2013.68,296.859 
  "/>
<polyline clip-path="url(#clip890)" style="stroke:#000000; stroke-width:4; stroke-opacity:1; fill:none" points="
  179.654,1486.45 179.654,47.2441 
  "/>
<polyline clip-path="url(#clip890)" style="stroke:#000000; stroke-width:4; stroke-opacity:1; fill:none" points="
  179.654,1341.27 201.662,1341.27 
  "/>
<polyline clip-path="url(#clip890)" style="stroke:#000000; stroke-width:4; stroke-opacity:1; fill:none" points="
  179.654,1080.17 201.662,1080.17 
  "/>
<polyline clip-path="url(#clip890)" style="stroke:#000000; stroke-width:4; stroke-opacity:1; fill:none" points="
  179.654,819.067 201.662,819.067 
  "/>
<polyline clip-path="url(#clip890)" style="stroke:#000000; stroke-width:4; stroke-opacity:1; fill:none" points="
  179.654,557.963 201.662,557.963 
  "/>
<polyline clip-path="url(#clip890)" style="stroke:#000000; stroke-width:4; stroke-opacity:1; fill:none" points="
  179.654,296.859 201.662,296.859 
  "/>
<path clip-path="url(#clip890)" d="M 0 0 M50.9921 1341.73 L80.6679 1341.73 L80.6679 1345.66 L50.9921 1345.66 L50.9921 1341.73 Z" fill="#000000" fill-rule="evenodd" fill-opacity="1" /><path clip-path="url(#clip890)" d="M 0 0 M85.7836 1323.99 L104.14 1323.99 L104.14 1327.93 L90.066 1327.93 L90.066 1336.4 Q91.0845 1336.05 92.103 1335.89 Q93.1215 1335.71 94.14 1335.71 Q99.927 1335.71 103.307 1338.88 Q106.686 1342.05 106.686 1347.47 Q106.686 1353.04 103.214 1356.15 Q99.7419 1359.23 93.4225 1359.23 Q91.2465 1359.23 88.978 1358.86 Q86.7327 1358.48 84.3253 1357.74 L84.3253 1353.04 Q86.4086 1354.18 88.6308 1354.73 Q90.853 1355.29 93.3299 1355.29 Q97.3345 1355.29 99.6724 1353.18 Q102.01 1351.08 102.01 1347.47 Q102.01 1343.86 99.6724 1341.75 Q97.3345 1339.64 93.3299 1339.64 Q91.4549 1339.64 89.5799 1340.06 Q87.728 1340.48 85.7836 1341.36 L85.7836 1323.99 Z" fill="#000000" fill-rule="evenodd" fill-opacity="1" /><path clip-path="url(#clip890)" d="M 0 0 M111.756 1352.67 L116.64 1352.67 L116.64 1358.55 L111.756 1358.55 L111.756 1352.67 Z" fill="#000000" fill-rule="evenodd" fill-opacity="1" /><path clip-path="url(#clip890)" d="M 0 0 M131.709 1327.07 Q128.098 1327.07 126.27 1330.64 Q124.464 1334.18 124.464 1341.31 Q124.464 1348.42 126.27 1351.98 Q128.098 1355.52 131.709 1355.52 Q135.344 1355.52 137.149 1351.98 Q138.978 1348.42 138.978 1341.31 Q138.978 1334.18 137.149 1330.64 Q135.344 1327.07 131.709 1327.07 M131.709 1323.37 Q137.519 1323.37 140.575 1327.98 Q143.654 1332.56 143.654 1341.31 Q143.654 1350.04 140.575 1354.64 Q137.519 1359.23 131.709 1359.23 Q125.899 1359.23 122.82 1354.64 Q119.765 1350.04 119.765 1341.31 Q119.765 1332.56 122.82 1327.98 Q125.899 1323.37 131.709 1323.37 Z" fill="#000000" fill-rule="evenodd" fill-opacity="1" /><path clip-path="url(#clip890)" d="M 0 0 M52.5893 1080.62 L82.2651 1080.62 L82.2651 1084.56 L52.5893 1084.56 L52.5893 1080.62 Z" fill="#000000" fill-rule="evenodd" fill-opacity="1" /><path clip-path="url(#clip890)" d="M 0 0 M91.3623 1093.52 L107.682 1093.52 L107.682 1097.45 L85.7373 1097.45 L85.7373 1093.52 Q88.3993 1090.76 92.9826 1086.13 Q97.5891 1081.48 98.7696 1080.14 Q101.015 1077.61 101.895 1075.88 Q102.797 1074.12 102.797 1072.43 Q102.797 1069.67 100.853 1067.94 Q98.9317 1066.2 95.8298 1066.2 Q93.6308 1066.2 91.1771 1066.96 Q88.7466 1067.73 85.9688 1069.28 L85.9688 1064.56 Q88.7928 1063.42 91.2465 1062.84 Q93.7002 1062.27 95.7373 1062.27 Q101.108 1062.27 104.302 1064.95 Q107.496 1067.64 107.496 1072.13 Q107.496 1074.26 106.686 1076.18 Q105.899 1078.08 103.793 1080.67 Q103.214 1081.34 100.112 1084.56 Q97.0104 1087.75 91.3623 1093.52 Z" fill="#000000" fill-rule="evenodd" fill-opacity="1" /><path clip-path="url(#clip890)" d="M 0 0 M112.751 1091.57 L117.635 1091.57 L117.635 1097.45 L112.751 1097.45 L112.751 1091.57 Z" fill="#000000" fill-rule="evenodd" fill-opacity="1" /><path clip-path="url(#clip890)" d="M 0 0 M122.751 1062.89 L141.107 1062.89 L141.107 1066.83 L127.033 1066.83 L127.033 1075.3 Q128.052 1074.95 129.07 1074.79 Q130.089 1074.6 131.107 1074.6 Q136.894 1074.6 140.274 1077.77 Q143.654 1080.95 143.654 1086.36 Q143.654 1091.94 140.181 1095.04 Q136.709 1098.12 130.39 1098.12 Q128.214 1098.12 125.945 1097.75 Q123.7 1097.38 121.293 1096.64 L121.293 1091.94 Q123.376 1093.08 125.598 1093.63 Q127.82 1094.19 130.297 1094.19 Q134.302 1094.19 136.64 1092.08 Q138.978 1089.97 138.978 1086.36 Q138.978 1082.75 136.64 1080.64 Q134.302 1078.54 130.297 1078.54 Q128.422 1078.54 126.547 1078.96 Q124.695 1079.37 122.751 1080.25 L122.751 1062.89 Z" fill="#000000" fill-rule="evenodd" fill-opacity="1" /><path clip-path="url(#clip890)" d="M 0 0 M94.7419 804.865 Q91.1308 804.865 89.3021 808.43 Q87.4966 811.972 87.4966 819.101 Q87.4966 826.208 89.3021 829.773 Q91.1308 833.314 94.7419 833.314 Q98.3761 833.314 100.182 829.773 Q102.01 826.208 102.01 819.101 Q102.01 811.972 100.182 808.43 Q98.3761 804.865 94.7419 804.865 M94.7419 801.162 Q100.552 801.162 103.608 805.768 Q106.686 810.351 106.686 819.101 Q106.686 827.828 103.608 832.435 Q100.552 837.018 94.7419 837.018 Q88.9317 837.018 85.8531 832.435 Q82.7975 827.828 82.7975 819.101 Q82.7975 810.351 85.8531 805.768 Q88.9317 801.162 94.7419 801.162 Z" fill="#000000" fill-rule="evenodd" fill-opacity="1" /><path clip-path="url(#clip890)" d="M 0 0 M111.756 830.467 L116.64 830.467 L116.64 836.347 L111.756 836.347 L111.756 830.467 Z" fill="#000000" fill-rule="evenodd" fill-opacity="1" /><path clip-path="url(#clip890)" d="M 0 0 M131.709 804.865 Q128.098 804.865 126.27 808.43 Q124.464 811.972 124.464 819.101 Q124.464 826.208 126.27 829.773 Q128.098 833.314 131.709 833.314 Q135.344 833.314 137.149 829.773 Q138.978 826.208 138.978 819.101 Q138.978 811.972 137.149 808.43 Q135.344 804.865 131.709 804.865 M131.709 801.162 Q137.519 801.162 140.575 805.768 Q143.654 810.351 143.654 819.101 Q143.654 827.828 140.575 832.435 Q137.519 837.018 131.709 837.018 Q125.899 837.018 122.82 832.435 Q119.765 827.828 119.765 819.101 Q119.765 810.351 122.82 805.768 Q125.899 801.162 131.709 801.162 Z" fill="#000000" fill-rule="evenodd" fill-opacity="1" /><path clip-path="url(#clip890)" d="M 0 0 M91.3623 571.308 L107.682 571.308 L107.682 575.243 L85.7373 575.243 L85.7373 571.308 Q88.3993 568.553 92.9826 563.924 Q97.5891 559.271 98.7696 557.928 Q101.015 555.405 101.895 553.669 Q102.797 551.91 102.797 550.22 Q102.797 547.465 100.853 545.729 Q98.9317 543.993 95.8298 543.993 Q93.6308 543.993 91.1771 544.757 Q88.7466 545.521 85.9688 547.072 L85.9688 542.35 Q88.7928 541.215 91.2465 540.637 Q93.7002 540.058 95.7373 540.058 Q101.108 540.058 104.302 542.743 Q107.496 545.428 107.496 549.919 Q107.496 552.049 106.686 553.97 Q105.899 555.868 103.793 558.461 Q103.214 559.132 100.112 562.35 Q97.0104 565.544 91.3623 571.308 Z" fill="#000000" fill-rule="evenodd" fill-opacity="1" /><path clip-path="url(#clip890)" d="M 0 0 M112.751 569.363 L117.635 569.363 L117.635 575.243 L112.751 575.243 L112.751 569.363 Z" fill="#000000" fill-rule="evenodd" fill-opacity="1" /><path clip-path="url(#clip890)" d="M 0 0 M122.751 540.683 L141.107 540.683 L141.107 544.618 L127.033 544.618 L127.033 553.09 Q128.052 552.743 129.07 552.581 Q130.089 552.396 131.107 552.396 Q136.894 552.396 140.274 555.567 Q143.654 558.738 143.654 564.155 Q143.654 569.734 140.181 572.836 Q136.709 575.914 130.39 575.914 Q128.214 575.914 125.945 575.544 Q123.7 575.174 121.293 574.433 L121.293 569.734 Q123.376 570.868 125.598 571.424 Q127.82 571.979 130.297 571.979 Q134.302 571.979 136.64 569.873 Q138.978 567.766 138.978 564.155 Q138.978 560.544 136.64 558.438 Q134.302 556.331 130.297 556.331 Q128.422 556.331 126.547 556.748 Q124.695 557.164 122.751 558.044 L122.751 540.683 Z" fill="#000000" fill-rule="evenodd" fill-opacity="1" /><path clip-path="url(#clip890)" d="M 0 0 M85.7836 279.579 L104.14 279.579 L104.14 283.514 L90.066 283.514 L90.066 291.987 Q91.0845 291.639 92.103 291.477 Q93.1215 291.292 94.14 291.292 Q99.927 291.292 103.307 294.463 Q106.686 297.635 106.686 303.051 Q106.686 308.63 103.214 311.732 Q99.7419 314.811 93.4225 314.811 Q91.2465 314.811 88.978 314.44 Q86.7327 314.07 84.3253 313.329 L84.3253 308.63 Q86.4086 309.764 88.6308 310.32 Q90.853 310.875 93.3299 310.875 Q97.3345 310.875 99.6724 308.769 Q102.01 306.662 102.01 303.051 Q102.01 299.44 99.6724 297.334 Q97.3345 295.227 93.3299 295.227 Q91.4549 295.227 89.5799 295.644 Q87.728 296.061 85.7836 296.94 L85.7836 279.579 Z" fill="#000000" fill-rule="evenodd" fill-opacity="1" /><path clip-path="url(#clip890)" d="M 0 0 M111.756 308.26 L116.64 308.26 L116.64 314.139 L111.756 314.139 L111.756 308.26 Z" fill="#000000" fill-rule="evenodd" fill-opacity="1" /><path clip-path="url(#clip890)" d="M 0 0 M131.709 282.658 Q128.098 282.658 126.27 286.223 Q124.464 289.764 124.464 296.894 Q124.464 304 126.27 307.565 Q128.098 311.107 131.709 311.107 Q135.344 311.107 137.149 307.565 Q138.978 304 138.978 296.894 Q138.978 289.764 137.149 286.223 Q135.344 282.658 131.709 282.658 M131.709 278.954 Q137.519 278.954 140.575 283.561 Q143.654 288.144 143.654 296.894 Q143.654 305.621 140.575 310.227 Q137.519 314.811 131.709 314.811 Q125.899 314.811 122.82 310.227 Q119.765 305.621 119.765 296.894 Q119.765 288.144 122.82 283.561 Q125.899 278.954 131.709 278.954 Z" fill="#000000" fill-rule="evenodd" fill-opacity="1" /><path clip-path="url(#clip892)" d="
M413.688 1027.95 L322.624 1027.95 L504.751 1027.95 L413.688 1027.95 L413.688 949.619 L413.688 1027.95  Z
  " fill="#009af9" fill-rule="evenodd" fill-opacity="1"/>
<polyline clip-path="url(#clip892)" style="stroke:#000000; stroke-width:4; stroke-opacity:1; fill:none" points="
  413.688,1027.95 322.624,1027.95 504.751,1027.95 413.688,1027.95 413.688,949.619 413.688,1027.95 
  "/>
<path clip-path="url(#clip892)" d="
M595.815 949.619 L595.815 871.287 L231.56 871.287 L231.56 949.619 L595.815 949.619 L595.815 871.287 L595.815 949.619  Z
  " fill="#009af9" fill-rule="evenodd" fill-opacity="1"/>
<polyline clip-path="url(#clip892)" style="stroke:#000000; stroke-width:4; stroke-opacity:1; fill:none" points="
  595.815,949.619 595.815,871.287 231.56,871.287 231.56,949.619 595.815,949.619 595.815,871.287 595.815,949.619 
  "/>
<path clip-path="url(#clip892)" d="
M595.815 766.846 L231.56 766.846 L231.56 871.287 L595.815 871.287 L595.815 766.846 L413.688 766.846 L595.815 766.846  Z
  " fill="#009af9" fill-rule="evenodd" fill-opacity="1"/>
<polyline clip-path="url(#clip892)" style="stroke:#000000; stroke-width:4; stroke-opacity:1; fill:none" points="
  595.815,766.846 231.56,766.846 231.56,871.287 595.815,871.287 595.815,766.846 413.688,766.846 595.815,766.846 
  "/>
<path clip-path="url(#clip892)" d="
M413.688 610.184 L322.624 610.184 L504.751 610.184 L413.688 610.184 L413.688 766.846 L413.688 610.184  Z
  " fill="#009af9" fill-rule="evenodd" fill-opacity="1"/>
<polyline clip-path="url(#clip892)" style="stroke:#000000; stroke-width:4; stroke-opacity:1; fill:none" points="
  413.688,610.184 322.624,610.184 504.751,610.184 413.688,610.184 413.688,766.846 413.688,610.184 
  "/>
<polyline clip-path="url(#clip892)" style="stroke:#009af9; stroke-width:0; stroke-opacity:1; fill:none" points="
  413.688,1027.95 322.624,1027.95 504.751,1027.95 413.688,1027.95 413.688,949.619 
  "/>
<polyline clip-path="url(#clip892)" style="stroke:#009af9; stroke-width:0; stroke-opacity:1; fill:none" points="
  595.815,949.619 595.815,871.287 231.56,871.287 231.56,949.619 595.815,949.619 595.815,871.287 
  "/>
<polyline clip-path="url(#clip892)" style="stroke:#009af9; stroke-width:0; stroke-opacity:1; fill:none" points="
  595.815,766.846 231.56,766.846 231.56,871.287 595.815,871.287 595.815,766.846 413.688,766.846 
  "/>
<polyline clip-path="url(#clip892)" style="stroke:#009af9; stroke-width:0; stroke-opacity:1; fill:none" points="
  413.688,610.184 322.624,610.184 504.751,610.184 413.688,610.184 413.688,766.846 
  "/>
<path clip-path="url(#clip892)" d="
M869.007 1341.27 L777.943 1341.27 L960.07 1341.27 L869.007 1341.27 L869.007 1236.83 L869.007 1341.27  Z
  " fill="#e26f46" fill-rule="evenodd" fill-opacity="1"/>
<polyline clip-path="url(#clip892)" style="stroke:#000000; stroke-width:4; stroke-opacity:1; fill:none" points="
  869.007,1341.27 777.943,1341.27 960.07,1341.27 869.007,1341.27 869.007,1236.83 869.007,1341.27 
  "/>
<path clip-path="url(#clip892)" d="
M1051.13 1236.83 L1051.13 1027.95 L686.879 1027.95 L686.879 1236.83 L1051.13 1236.83 L1051.13 1027.95 L1051.13 1236.83  Z
  " fill="#e26f46" fill-rule="evenodd" fill-opacity="1"/>
<polyline clip-path="url(#clip892)" style="stroke:#000000; stroke-width:4; stroke-opacity:1; fill:none" points="
  1051.13,1236.83 1051.13,1027.95 686.879,1027.95 686.879,1236.83 1051.13,1236.83 1051.13,1027.95 1051.13,1236.83 
  "/>
<path clip-path="url(#clip892)" d="
M1051.13 610.184 L686.879 610.184 L686.879 1027.95 L1051.13 1027.95 L1051.13 610.184 L869.007 610.184 L1051.13 610.184  Z
  " fill="#e26f46" fill-rule="evenodd" fill-opacity="1"/>
<polyline clip-path="url(#clip892)" style="stroke:#000000; stroke-width:4; stroke-opacity:1; fill:none" points="
  1051.13,610.184 686.879,610.184 686.879,1027.95 1051.13,1027.95 1051.13,610.184 869.007,610.184 1051.13,610.184 
  "/>
<path clip-path="url(#clip892)" d="
M869.007 296.859 L777.943 296.859 L960.07 296.859 L869.007 296.859 L869.007 610.184 L869.007 296.859  Z
  " fill="#e26f46" fill-rule="evenodd" fill-opacity="1"/>
<polyline clip-path="url(#clip892)" style="stroke:#000000; stroke-width:4; stroke-opacity:1; fill:none" points="
  869.007,296.859 777.943,296.859 960.07,296.859 869.007,296.859 869.007,610.184 869.007,296.859 
  "/>
<polyline clip-path="url(#clip892)" style="stroke:#e26f46; stroke-width:0; stroke-opacity:1; fill:none" points="
  869.007,1341.27 777.943,1341.27 960.07,1341.27 869.007,1341.27 869.007,1236.83 
  "/>
<polyline clip-path="url(#clip892)" style="stroke:#e26f46; stroke-width:0; stroke-opacity:1; fill:none" points="
  1051.13,1236.83 1051.13,1027.95 686.879,1027.95 686.879,1236.83 1051.13,1236.83 1051.13,1027.95 
  "/>
<polyline clip-path="url(#clip892)" style="stroke:#e26f46; stroke-width:0; stroke-opacity:1; fill:none" points="
  1051.13,610.184 686.879,610.184 686.879,1027.95 1051.13,1027.95 1051.13,610.184 869.007,610.184 
  "/>
<polyline clip-path="url(#clip892)" style="stroke:#e26f46; stroke-width:0; stroke-opacity:1; fill:none" points="
  869.007,296.859 777.943,296.859 960.07,296.859 869.007,296.859 869.007,610.184 
  "/>
<path clip-path="url(#clip892)" d="
M1324.33 1341.27 L1233.26 1341.27 L1415.39 1341.27 L1324.33 1341.27 L1324.33 1027.95 L1324.33 1341.27  Z
  " fill="#3da44d" fill-rule="evenodd" fill-opacity="1"/>
<polyline clip-path="url(#clip892)" style="stroke:#000000; stroke-width:4; stroke-opacity:1; fill:none" points="
  1324.33,1341.27 1233.26,1341.27 1415.39,1341.27 1324.33,1341.27 1324.33,1027.95 1324.33,1341.27 
  "/>
<path clip-path="url(#clip892)" d="
M1506.45 1027.95 L1506.45 923.508 L1142.2 923.508 L1142.2 1027.95 L1506.45 1027.95 L1506.45 923.508 L1506.45 1027.95  Z
  " fill="#3da44d" fill-rule="evenodd" fill-opacity="1"/>
<polyline clip-path="url(#clip892)" style="stroke:#000000; stroke-width:4; stroke-opacity:1; fill:none" points="
  1506.45,1027.95 1506.45,923.508 1142.2,923.508 1142.2,1027.95 1506.45,1027.95 1506.45,923.508 1506.45,1027.95 
  "/>
<path clip-path="url(#clip892)" d="
M1506.45 610.184 L1142.2 610.184 L1142.2 923.508 L1506.45 923.508 L1506.45 610.184 L1324.33 610.184 L1506.45 610.184  Z
  " fill="#3da44d" fill-rule="evenodd" fill-opacity="1"/>
<polyline clip-path="url(#clip892)" style="stroke:#000000; stroke-width:4; stroke-opacity:1; fill:none" points="
  1506.45,610.184 1142.2,610.184 1142.2,923.508 1506.45,923.508 1506.45,610.184 1324.33,610.184 1506.45,610.184 
  "/>
<path clip-path="url(#clip892)" d="
M1324.33 87.9763 L1233.26 87.9763 L1415.39 87.9763 L1324.33 87.9763 L1324.33 610.184 L1324.33 87.9763  Z
  " fill="#3da44d" fill-rule="evenodd" fill-opacity="1"/>
<polyline clip-path="url(#clip892)" style="stroke:#000000; stroke-width:4; stroke-opacity:1; fill:none" points="
  1324.33,87.9763 1233.26,87.9763 1415.39,87.9763 1324.33,87.9763 1324.33,610.184 1324.33,87.9763 
  "/>
<polyline clip-path="url(#clip892)" style="stroke:#3da44d; stroke-width:0; stroke-opacity:1; fill:none" points="
  1324.33,1341.27 1233.26,1341.27 1415.39,1341.27 1324.33,1341.27 1324.33,1027.95 
  "/>
<polyline clip-path="url(#clip892)" style="stroke:#3da44d; stroke-width:0; stroke-opacity:1; fill:none" points="
  1506.45,1027.95 1506.45,923.508 1142.2,923.508 1142.2,1027.95 1506.45,1027.95 1506.45,923.508 
  "/>
<polyline clip-path="url(#clip892)" style="stroke:#3da44d; stroke-width:0; stroke-opacity:1; fill:none" points="
  1506.45,610.184 1142.2,610.184 1142.2,923.508 1506.45,923.508 1506.45,610.184 1324.33,610.184 
  "/>
<polyline clip-path="url(#clip892)" style="stroke:#3da44d; stroke-width:0; stroke-opacity:1; fill:none" points="
  1324.33,87.9763 1233.26,87.9763 1415.39,87.9763 1324.33,87.9763 1324.33,610.184 
  "/>
<path clip-path="url(#clip892)" d="
M1779.64 1445.72 L1688.58 1445.72 L1870.71 1445.72 L1779.64 1445.72 L1779.64 1054.06 L1779.64 1445.72  Z
  " fill="#c271d2" fill-rule="evenodd" fill-opacity="1"/>
<polyline clip-path="url(#clip892)" style="stroke:#000000; stroke-width:4; stroke-opacity:1; fill:none" points="
  1779.64,1445.72 1688.58,1445.72 1870.71,1445.72 1779.64,1445.72 1779.64,1054.06 1779.64,1445.72 
  "/>
<path clip-path="url(#clip892)" d="
M1961.77 1054.06 L1961.77 871.287 L1597.52 871.287 L1597.52 1054.06 L1961.77 1054.06 L1961.77 871.287 L1961.77 1054.06  Z
  " fill="#c271d2" fill-rule="evenodd" fill-opacity="1"/>
<polyline clip-path="url(#clip892)" style="stroke:#000000; stroke-width:4; stroke-opacity:1; fill:none" points="
  1961.77,1054.06 1961.77,871.287 1597.52,871.287 1597.52,1054.06 1961.77,1054.06 1961.77,871.287 1961.77,1054.06 
  "/>
<path clip-path="url(#clip892)" d="
M1961.77 557.963 L1597.52 557.963 L1597.52 871.287 L1961.77 871.287 L1961.77 557.963 L1779.64 557.963 L1961.77 557.963  Z
  " fill="#c271d2" fill-rule="evenodd" fill-opacity="1"/>
<polyline clip-path="url(#clip892)" style="stroke:#000000; stroke-width:4; stroke-opacity:1; fill:none" points="
  1961.77,557.963 1597.52,557.963 1597.52,871.287 1961.77,871.287 1961.77,557.963 1779.64,557.963 1961.77,557.963 
  "/>
<path clip-path="url(#clip892)" d="
M1779.64 192.418 L1688.58 192.418 L1870.71 192.418 L1779.64 192.418 L1779.64 557.963 L1779.64 192.418  Z
  " fill="#c271d2" fill-rule="evenodd" fill-opacity="1"/>
<polyline clip-path="url(#clip892)" style="stroke:#000000; stroke-width:4; stroke-opacity:1; fill:none" points="
  1779.64,192.418 1688.58,192.418 1870.71,192.418 1779.64,192.418 1779.64,557.963 1779.64,192.418 
  "/>
<polyline clip-path="url(#clip892)" style="stroke:#c271d2; stroke-width:0; stroke-opacity:1; fill:none" points="
  1779.64,1445.72 1688.58,1445.72 1870.71,1445.72 1779.64,1445.72 1779.64,1054.06 
  "/>
<polyline clip-path="url(#clip892)" style="stroke:#c271d2; stroke-width:0; stroke-opacity:1; fill:none" points="
  1961.77,1054.06 1961.77,871.287 1597.52,871.287 1597.52,1054.06 1961.77,1054.06 1961.77,871.287 
  "/>
<polyline clip-path="url(#clip892)" style="stroke:#c271d2; stroke-width:0; stroke-opacity:1; fill:none" points="
  1961.77,557.963 1597.52,557.963 1597.52,871.287 1961.77,871.287 1961.77,557.963 1779.64,557.963 
  "/>
<polyline clip-path="url(#clip892)" style="stroke:#c271d2; stroke-width:0; stroke-opacity:1; fill:none" points="
  1779.64,192.418 1688.58,192.418 1870.71,192.418 1779.64,192.418 1779.64,557.963 
  "/>
<path clip-path="url(#clip890)" d="
M2086.12 1438.47 L2352.76 1438.47 L2352.76 1136.07 L2086.12 1136.07  Z
  " fill="#ffffff" fill-rule="evenodd" fill-opacity="1"/>
<polyline clip-path="url(#clip890)" style="stroke:#000000; stroke-width:4; stroke-opacity:1; fill:none" points="
  2086.12,1438.47 2352.76,1438.47 2352.76,1136.07 2086.12,1136.07 2086.12,1438.47 
  "/>
<path clip-path="url(#clip890)" d="
M2110.26 1220.75 L2255.13 1220.75 L2255.13 1172.36 L2110.26 1172.36 L2110.26 1220.75  Z
  " fill="#009af9" fill-rule="evenodd" fill-opacity="1"/>
<polyline clip-path="url(#clip890)" style="stroke:#000000; stroke-width:4; stroke-opacity:1; fill:none" points="
  2110.26,1220.75 2255.13,1220.75 2255.13,1172.36 2110.26,1172.36 2110.26,1220.75 
  "/>
<path clip-path="url(#clip890)" d="M 0 0 M2279.95 1209.9 L2287.59 1209.9 L2287.59 1183.53 L2279.28 1185.2 L2279.28 1180.94 L2287.54 1179.27 L2292.22 1179.27 L2292.22 1209.9 L2299.86 1209.9 L2299.86 1213.83 L2279.95 1213.83 L2279.95 1209.9 Z" fill="#000000" fill-rule="evenodd" fill-opacity="1" /><path clip-path="url(#clip890)" d="
M2110.26 1281.23 L2255.13 1281.23 L2255.13 1232.84 L2110.26 1232.84 L2110.26 1281.23  Z
  " fill="#e26f46" fill-rule="evenodd" fill-opacity="1"/>
<polyline clip-path="url(#clip890)" style="stroke:#000000; stroke-width:4; stroke-opacity:1; fill:none" points="
  2110.26,1281.23 2255.13,1281.23 2255.13,1232.84 2110.26,1232.84 2110.26,1281.23 
  "/>
<path clip-path="url(#clip890)" d="M 0 0 M2284.9 1270.38 L2301.22 1270.38 L2301.22 1274.31 L2279.28 1274.31 L2279.28 1270.38 Q2281.94 1267.62 2286.53 1263 Q2291.13 1258.34 2292.31 1257 Q2294.56 1254.48 2295.44 1252.74 Q2296.34 1250.98 2296.34 1249.29 Q2296.34 1246.54 2294.4 1244.8 Q2292.47 1243.06 2289.37 1243.06 Q2287.17 1243.06 2284.72 1243.83 Q2282.29 1244.59 2279.51 1246.14 L2279.51 1241.42 Q2282.34 1240.29 2284.79 1239.71 Q2287.24 1239.13 2289.28 1239.13 Q2294.65 1239.13 2297.84 1241.81 Q2301.04 1244.5 2301.04 1248.99 Q2301.04 1251.12 2300.23 1253.04 Q2299.44 1254.94 2297.34 1257.53 Q2296.76 1258.2 2293.65 1261.42 Q2290.55 1264.62 2284.9 1270.38 Z" fill="#000000" fill-rule="evenodd" fill-opacity="1" /><path clip-path="url(#clip890)" d="
M2110.26 1341.71 L2255.13 1341.71 L2255.13 1293.32 L2110.26 1293.32 L2110.26 1341.71  Z
  " fill="#3da44d" fill-rule="evenodd" fill-opacity="1"/>
<polyline clip-path="url(#clip890)" style="stroke:#000000; stroke-width:4; stroke-opacity:1; fill:none" points="
  2110.26,1341.71 2255.13,1341.71 2255.13,1293.32 2110.26,1293.32 2110.26,1341.71 
  "/>
<path clip-path="url(#clip890)" d="M 0 0 M2294.9 1316.16 Q2298.26 1316.88 2300.14 1319.15 Q2302.03 1321.41 2302.03 1324.75 Q2302.03 1329.86 2298.52 1332.66 Q2295 1335.47 2288.52 1335.47 Q2286.34 1335.47 2284.03 1335.03 Q2281.73 1334.61 2279.28 1333.75 L2279.28 1329.24 Q2281.22 1330.37 2283.54 1330.95 Q2285.85 1331.53 2288.38 1331.53 Q2292.77 1331.53 2295.07 1329.79 Q2297.38 1328.06 2297.38 1324.75 Q2297.38 1321.69 2295.23 1319.98 Q2293.1 1318.24 2289.28 1318.24 L2285.25 1318.24 L2285.25 1314.4 L2289.46 1314.4 Q2292.91 1314.4 2294.74 1313.04 Q2296.57 1311.65 2296.57 1309.05 Q2296.57 1306.39 2294.67 1304.98 Q2292.8 1303.54 2289.28 1303.54 Q2287.36 1303.54 2285.16 1303.96 Q2282.96 1304.38 2280.32 1305.26 L2280.32 1301.09 Q2282.98 1300.35 2285.3 1299.98 Q2287.64 1299.61 2289.7 1299.61 Q2295.02 1299.61 2298.12 1302.04 Q2301.22 1304.45 2301.22 1308.57 Q2301.22 1311.44 2299.58 1313.43 Q2297.94 1315.4 2294.9 1316.16 Z" fill="#000000" fill-rule="evenodd" fill-opacity="1" /><path clip-path="url(#clip890)" d="
M2110.26 1402.19 L2255.13 1402.19 L2255.13 1353.8 L2110.26 1353.8 L2110.26 1402.19  Z
  " fill="#c271d2" fill-rule="evenodd" fill-opacity="1"/>
<polyline clip-path="url(#clip890)" style="stroke:#000000; stroke-width:4; stroke-opacity:1; fill:none" points="
  2110.26,1402.19 2255.13,1402.19 2255.13,1353.8 2110.26,1353.8 2110.26,1402.19 
  "/>
<path clip-path="url(#clip890)" d="M 0 0 M2294.88 1364.79 L2283.08 1383.24 L2294.88 1383.24 L2294.88 1364.79 M2293.65 1360.71 L2299.53 1360.71 L2299.53 1383.24 L2304.46 1383.24 L2304.46 1387.13 L2299.53 1387.13 L2299.53 1395.27 L2294.88 1395.27 L2294.88 1387.13 L2279.28 1387.13 L2279.28 1382.61 L2293.65 1360.71 Z" fill="#000000" fill-rule="evenodd" fill-opacity="1" /></svg>
