<?xml version="1.0" encoding="utf-8"?>
<svg xmlns="http://www.w3.org/2000/svg" xmlns:xlink="http://www.w3.org/1999/xlink" width="600" height="400" viewBox="0 0 2400 1600">
<defs>
  <clipPath id="clip340">
    <rect x="0" y="0" width="2400" height="1600"/>
  </clipPath>
</defs>
<path clip-path="url(#clip340)" d="
M0 1600 L2400 1600 L2400 0 L0 0  Z
  " fill="#ffffff" fill-rule="evenodd" fill-opacity="1"/>
<defs>
  <clipPath id="clip341">
    <rect x="480" y="0" width="1681" height="1600"/>
  </clipPath>
</defs>
<path clip-path="url(#clip340)" d="
M148.334 1486.45 L2352.76 1486.45 L2352.76 47.2441 L148.334 47.2441  Z
  " fill="#ffffff" fill-rule="evenodd" fill-opacity="1"/>
<defs>
  <clipPath id="clip342">
    <rect x="148" y="47" width="2205" height="1440"/>
  </clipPath>
</defs>
<polyline clip-path="url(#clip342)" style="stroke:#000000; stroke-width:2; stroke-opacity:0.1; fill:none" points="
  418.688,1486.45 418.688,47.2441 
  "/>
<polyline clip-path="url(#clip342)" style="stroke:#000000; stroke-width:2; stroke-opacity:0.1; fill:none" points="
  834.617,1486.45 834.617,47.2441 
  "/>
<polyline clip-path="url(#clip342)" style="stroke:#000000; stroke-width:2; stroke-opacity:0.1; fill:none" points="
  1250.55,1486.45 1250.55,47.2441 
  "/>
<polyline clip-path="url(#clip342)" style="stroke:#000000; stroke-width:2; stroke-opacity:0.1; fill:none" points="
  1666.47,1486.45 1666.47,47.2441 
  "/>
<polyline clip-path="url(#clip342)" style="stroke:#000000; stroke-width:2; stroke-opacity:0.1; fill:none" points="
  2082.4,1486.45 2082.4,47.2441 
  "/>
<polyline clip-path="url(#clip340)" style="stroke:#000000; stroke-width:4; stroke-opacity:1; fill:none" points="
  148.334,1486.45 2352.76,1486.45 
  "/>
<polyline clip-path="url(#clip340)" style="stroke:#000000; stroke-width:4; stroke-opacity:1; fill:none" points="
  418.688,1486.45 418.688,1469.18 
  "/>
<polyline clip-path="url(#clip340)" style="stroke:#000000; stroke-width:4; stroke-opacity:1; fill:none" points="
  834.617,1486.45 834.617,1469.18 
  "/>
<polyline clip-path="url(#clip340)" style="stroke:#000000; stroke-width:4; stroke-opacity:1; fill:none" points="
  1250.55,1486.45 1250.55,1469.18 
  "/>
<polyline clip-path="url(#clip340)" style="stroke:#000000; stroke-width:4; stroke-opacity:1; fill:none" points="
  1666.47,1486.45 1666.47,1469.18 
  "/>
<polyline clip-path="url(#clip340)" style="stroke:#000000; stroke-width:4; stroke-opacity:1; fill:none" points="
  2082.4,1486.45 2082.4,1469.18 
  "/>
<path clip-path="url(#clip340)" d="M 0 0 M390.1 1530.29 L419.776 1530.29 L419.776 1534.23 L390.1 1534.23 L390.1 1530.29 Z" fill="#000000" fill-rule="evenodd" fill-opacity="1" /><path clip-path="url(#clip340)" d="M 0 0 M437.692 1516.63 L425.887 1535.08 L437.692 1535.08 L437.692 1516.63 M436.466 1512.56 L442.345 1512.56 L442.345 1535.08 L447.276 1535.08 L447.276 1538.97 L442.345 1538.97 L442.345 1547.12 L437.692 1547.12 L437.692 1538.97 L422.091 1538.97 L422.091 1534.46 L436.466 1512.56 Z" fill="#000000" fill-rule="evenodd" fill-opacity="1" /><path clip-path="url(#clip340)" d="M 0 0 M807.07 1530.29 L836.746 1530.29 L836.746 1534.23 L807.07 1534.23 L807.07 1530.29 Z" fill="#000000" fill-rule="evenodd" fill-opacity="1" /><path clip-path="url(#clip340)" d="M 0 0 M845.843 1543.18 L862.163 1543.18 L862.163 1547.12 L840.218 1547.12 L840.218 1543.18 Q842.88 1540.43 847.464 1535.8 Q852.07 1531.15 853.251 1529.81 Q855.496 1527.28 856.376 1525.55 Q857.278 1523.79 857.278 1522.1 Q857.278 1519.34 855.334 1517.61 Q853.413 1515.87 850.311 1515.87 Q848.112 1515.87 845.658 1516.63 Q843.228 1517.4 840.45 1518.95 L840.45 1514.23 Q843.274 1513.09 845.728 1512.51 Q848.181 1511.93 850.218 1511.93 Q855.589 1511.93 858.783 1514.62 Q861.978 1517.31 861.978 1521.8 Q861.978 1523.93 861.167 1525.85 Q860.38 1527.74 858.274 1530.34 Q857.695 1531.01 854.593 1534.23 Q851.491 1537.42 845.843 1543.18 Z" fill="#000000" fill-rule="evenodd" fill-opacity="1" /><path clip-path="url(#clip340)" d="M 0 0 M1250.55 1515.64 Q1246.93 1515.64 1245.11 1519.2 Q1243.3 1522.75 1243.3 1529.87 Q1243.3 1536.98 1245.11 1540.55 Q1246.93 1544.09 1250.55 1544.09 Q1254.18 1544.09 1255.98 1540.55 Q1257.81 1536.98 1257.81 1529.87 Q1257.81 1522.75 1255.98 1519.2 Q1254.18 1515.64 1250.55 1515.64 M1250.55 1511.93 Q1256.36 1511.93 1259.41 1516.54 Q1262.49 1521.12 1262.49 1529.87 Q1262.49 1538.6 1259.41 1543.21 Q1256.36 1547.79 1250.55 1547.79 Q1244.73 1547.79 1241.66 1543.21 Q1238.6 1538.6 1238.6 1529.87 Q1238.6 1521.12 1241.66 1516.54 Q1244.73 1511.93 1250.55 1511.93 Z" fill="#000000" fill-rule="evenodd" fill-opacity="1" /><path clip-path="url(#clip340)" d="M 0 0 M1661.13 1543.18 L1677.45 1543.18 L1677.45 1547.12 L1655.5 1547.12 L1655.5 1543.18 Q1658.16 1540.43 1662.75 1535.8 Q1667.35 1531.15 1668.53 1529.81 Q1670.78 1527.28 1671.66 1525.55 Q1672.56 1523.79 1672.56 1522.1 Q1672.56 1519.34 1670.62 1517.61 Q1668.7 1515.87 1665.59 1515.87 Q1663.4 1515.87 1660.94 1516.63 Q1658.51 1517.4 1655.73 1518.95 L1655.73 1514.23 Q1658.56 1513.09 1661.01 1512.51 Q1663.46 1511.93 1665.5 1511.93 Q1670.87 1511.93 1674.07 1514.62 Q1677.26 1517.31 1677.26 1521.8 Q1677.26 1523.93 1676.45 1525.85 Q1675.66 1527.74 1673.56 1530.34 Q1672.98 1531.01 1669.88 1534.23 Q1666.77 1537.42 1661.13 1543.18 Z" fill="#000000" fill-rule="evenodd" fill-opacity="1" /><path clip-path="url(#clip340)" d="M 0 0 M2085.41 1516.63 L2073.61 1535.08 L2085.41 1535.08 L2085.41 1516.63 M2084.18 1512.56 L2090.06 1512.56 L2090.06 1535.08 L2094.99 1535.08 L2094.99 1538.97 L2090.06 1538.97 L2090.06 1547.12 L2085.41 1547.12 L2085.41 1538.97 L2069.81 1538.97 L2069.81 1534.46 L2084.18 1512.56 Z" fill="#000000" fill-rule="evenodd" fill-opacity="1" /><polyline clip-path="url(#clip342)" style="stroke:#000000; stroke-width:2; stroke-opacity:0.1; fill:none" points="
  148.334,1445.72 2352.76,1445.72 
  "/>
<polyline clip-path="url(#clip342)" style="stroke:#000000; stroke-width:2; stroke-opacity:0.1; fill:none" points="
  148.334,1105.28 2352.76,1105.28 
  "/>
<polyline clip-path="url(#clip342)" style="stroke:#000000; stroke-width:2; stroke-opacity:0.1; fill:none" points="
  148.334,764.841 2352.76,764.841 
  "/>
<polyline clip-path="url(#clip342)" style="stroke:#000000; stroke-width:2; stroke-opacity:0.1; fill:none" points="
  148.334,424.402 2352.76,424.402 
  "/>
<polyline clip-path="url(#clip342)" style="stroke:#000000; stroke-width:2; stroke-opacity:0.1; fill:none" points="
  148.334,83.9619 2352.76,83.9619 
  "/>
<polyline clip-path="url(#clip340)" style="stroke:#000000; stroke-width:4; stroke-opacity:1; fill:none" points="
  148.334,1486.45 148.334,47.2441 
  "/>
<polyline clip-path="url(#clip340)" style="stroke:#000000; stroke-width:4; stroke-opacity:1; fill:none" points="
  148.334,1445.72 174.787,1445.72 
  "/>
<polyline clip-path="url(#clip340)" style="stroke:#000000; stroke-width:4; stroke-opacity:1; fill:none" points="
  148.334,1105.28 174.787,1105.28 
  "/>
<polyline clip-path="url(#clip340)" style="stroke:#000000; stroke-width:4; stroke-opacity:1; fill:none" points="
  148.334,764.841 174.787,764.841 
  "/>
<polyline clip-path="url(#clip340)" style="stroke:#000000; stroke-width:4; stroke-opacity:1; fill:none" points="
  148.334,424.402 174.787,424.402 
  "/>
<polyline clip-path="url(#clip340)" style="stroke:#000000; stroke-width:4; stroke-opacity:1; fill:none" points="
  148.334,83.9619 174.787,83.9619 
  "/>
<path clip-path="url(#clip340)" d="M 0 0 M63.4226 1431.52 Q59.8115 1431.52 57.9828 1435.08 Q56.1773 1438.63 56.1773 1445.76 Q56.1773 1452.86 57.9828 1456.43 Q59.8115 1459.97 63.4226 1459.97 Q67.0569 1459.97 68.8624 1456.43 Q70.6911 1452.86 70.6911 1445.76 Q70.6911 1438.63 68.8624 1435.08 Q67.0569 1431.52 63.4226 1431.52 M63.4226 1427.82 Q69.2328 1427.82 72.2883 1432.42 Q75.367 1437.01 75.367 1445.76 Q75.367 1454.48 72.2883 1459.09 Q69.2328 1463.67 63.4226 1463.67 Q57.6125 1463.67 54.5338 1459.09 Q51.4782 1454.48 51.4782 1445.76 Q51.4782 1437.01 54.5338 1432.42 Q57.6125 1427.82 63.4226 1427.82 Z" fill="#000000" fill-rule="evenodd" fill-opacity="1" /><path clip-path="url(#clip340)" d="M 0 0 M80.4364 1457.12 L85.3206 1457.12 L85.3206 1463 L80.4364 1463 L80.4364 1457.12 Z" fill="#000000" fill-rule="evenodd" fill-opacity="1" /><path clip-path="url(#clip340)" d="M 0 0 M100.39 1431.52 Q96.7789 1431.52 94.9502 1435.08 Q93.1447 1438.63 93.1447 1445.76 Q93.1447 1452.86 94.9502 1456.43 Q96.7789 1459.97 100.39 1459.97 Q104.024 1459.97 105.83 1456.43 Q107.658 1452.86 107.658 1445.76 Q107.658 1438.63 105.83 1435.08 Q104.024 1431.52 100.39 1431.52 M100.39 1427.82 Q106.2 1427.82 109.256 1432.42 Q112.334 1437.01 112.334 1445.76 Q112.334 1454.48 109.256 1459.09 Q106.2 1463.67 100.39 1463.67 Q94.5799 1463.67 91.5012 1459.09 Q88.4456 1454.48 88.4456 1445.76 Q88.4456 1437.01 91.5012 1432.42 Q94.5799 1427.82 100.39 1427.82 Z" fill="#000000" fill-rule="evenodd" fill-opacity="1" /><path clip-path="url(#clip340)" d="M 0 0 M64.6495 1091.08 Q61.0384 1091.08 59.2097 1094.64 Q57.4041 1098.19 57.4041 1105.32 Q57.4041 1112.42 59.2097 1115.99 Q61.0384 1119.53 64.6495 1119.53 Q68.2837 1119.53 70.0892 1115.99 Q71.9179 1112.42 71.9179 1105.32 Q71.9179 1098.19 70.0892 1094.64 Q68.2837 1091.08 64.6495 1091.08 M64.6495 1087.38 Q70.4596 1087.38 73.5152 1091.98 Q76.5938 1096.57 76.5938 1105.32 Q76.5938 1114.04 73.5152 1118.65 Q70.4596 1123.23 64.6495 1123.23 Q58.8393 1123.23 55.7606 1118.65 Q52.7051 1114.04 52.7051 1105.32 Q52.7051 1096.57 55.7606 1091.98 Q58.8393 1087.38 64.6495 1087.38 Z" fill="#000000" fill-rule="evenodd" fill-opacity="1" /><path clip-path="url(#clip340)" d="M 0 0 M81.6633 1116.68 L86.5475 1116.68 L86.5475 1122.56 L81.6633 1122.56 L81.6633 1116.68 Z" fill="#000000" fill-rule="evenodd" fill-opacity="1" /><path clip-path="url(#clip340)" d="M 0 0 M92.4271 1118.63 L100.066 1118.63 L100.066 1092.26 L91.7558 1093.93 L91.7558 1089.67 L100.02 1088 L104.696 1088 L104.696 1118.63 L112.334 1118.63 L112.334 1122.56 L92.4271 1122.56 L92.4271 1118.63 Z" fill="#000000" fill-rule="evenodd" fill-opacity="1" /><path clip-path="url(#clip340)" d="M 0 0 M65.0198 750.64 Q61.4087 750.64 59.58 754.205 Q57.7745 757.746 57.7745 764.876 Q57.7745 771.983 59.58 775.547 Q61.4087 779.089 65.0198 779.089 Q68.6541 779.089 70.4596 775.547 Q72.2883 771.983 72.2883 764.876 Q72.2883 757.746 70.4596 754.205 Q68.6541 750.64 65.0198 750.64 M65.0198 746.936 Q70.83 746.936 73.8855 751.543 Q76.9642 756.126 76.9642 764.876 Q76.9642 773.603 73.8855 778.209 Q70.83 782.793 65.0198 782.793 Q59.2097 782.793 56.131 778.209 Q53.0754 773.603 53.0754 764.876 Q53.0754 756.126 56.131 751.543 Q59.2097 746.936 65.0198 746.936 Z" fill="#000000" fill-rule="evenodd" fill-opacity="1" /><path clip-path="url(#clip340)" d="M 0 0 M82.0336 776.242 L86.9179 776.242 L86.9179 782.121 L82.0336 782.121 L82.0336 776.242 Z" fill="#000000" fill-rule="evenodd" fill-opacity="1" /><path clip-path="url(#clip340)" d="M 0 0 M96.015 778.186 L112.334 778.186 L112.334 782.121 L90.3901 782.121 L90.3901 778.186 Q93.0521 775.432 97.6354 770.802 Q102.242 766.149 103.422 764.807 Q105.668 762.283 106.547 760.547 Q107.45 758.788 107.45 757.098 Q107.45 754.344 105.506 752.608 Q103.584 750.872 100.483 750.872 Q98.2835 750.872 95.8298 751.635 Q93.3993 752.399 90.6215 753.95 L90.6215 749.228 Q93.4456 748.094 95.8993 747.515 Q98.353 746.936 100.39 746.936 Q105.76 746.936 108.955 749.622 Q112.149 752.307 112.149 756.797 Q112.149 758.927 111.339 760.848 Q110.552 762.746 108.446 765.339 Q107.867 766.01 104.765 769.228 Q101.663 772.422 96.015 778.186 Z" fill="#000000" fill-rule="evenodd" fill-opacity="1" /><path clip-path="url(#clip340)" d="M 0 0 M64.0708 410.2 Q60.4597 410.2 58.631 413.765 Q56.8254 417.307 56.8254 424.436 Q56.8254 431.543 58.631 435.108 Q60.4597 438.649 64.0708 438.649 Q67.705 438.649 69.5105 435.108 Q71.3392 431.543 71.3392 424.436 Q71.3392 417.307 69.5105 413.765 Q67.705 410.2 64.0708 410.2 M64.0708 406.497 Q69.8809 406.497 72.9365 411.103 Q76.0151 415.686 76.0151 424.436 Q76.0151 433.163 72.9365 437.77 Q69.8809 442.353 64.0708 442.353 Q58.2606 442.353 55.1819 437.77 Q52.1264 433.163 52.1264 424.436 Q52.1264 415.686 55.1819 411.103 Q58.2606 406.497 64.0708 406.497 Z" fill="#000000" fill-rule="evenodd" fill-opacity="1" /><path clip-path="url(#clip340)" d="M 0 0 M81.0846 435.802 L85.9688 435.802 L85.9688 441.682 L81.0846 441.682 L81.0846 435.802 Z" fill="#000000" fill-rule="evenodd" fill-opacity="1" /><path clip-path="url(#clip340)" d="M 0 0 M105.205 423.047 Q108.561 423.765 110.436 426.034 Q112.334 428.302 112.334 431.635 Q112.334 436.751 108.816 439.552 Q105.297 442.353 98.8159 442.353 Q96.64 442.353 94.3252 441.913 Q92.0336 441.496 89.5799 440.64 L89.5799 436.126 Q91.5243 437.26 93.8391 437.839 Q96.1539 438.418 98.6771 438.418 Q103.075 438.418 105.367 436.682 Q107.682 434.946 107.682 431.635 Q107.682 428.58 105.529 426.867 Q103.399 425.131 99.5798 425.131 L95.5521 425.131 L95.5521 421.288 L99.765 421.288 Q103.214 421.288 105.043 419.922 Q106.871 418.534 106.871 415.941 Q106.871 413.279 104.973 411.867 Q103.098 410.432 99.5798 410.432 Q97.6585 410.432 95.4595 410.848 Q93.2604 411.265 90.6215 412.145 L90.6215 407.978 Q93.2836 407.237 95.5984 406.867 Q97.9363 406.497 99.9965 406.497 Q105.321 406.497 108.422 408.927 Q111.524 411.335 111.524 415.455 Q111.524 418.325 109.881 420.316 Q108.237 422.284 105.205 423.047 Z" fill="#000000" fill-rule="evenodd" fill-opacity="1" /><path clip-path="url(#clip340)" d="M 0 0 M62.9365 69.7606 Q59.3254 69.7606 57.4967 73.3254 Q55.6912 76.8671 55.6912 83.9966 Q55.6912 91.1031 57.4967 94.6679 Q59.3254 98.2095 62.9365 98.2095 Q66.5707 98.2095 68.3763 94.6679 Q70.205 91.1031 70.205 83.9966 Q70.205 76.8671 68.3763 73.3254 Q66.5707 69.7606 62.9365 69.7606 M62.9365 66.0569 Q68.7467 66.0569 71.8022 70.6634 Q74.8809 75.2467 74.8809 83.9966 Q74.8809 92.7235 71.8022 97.3299 Q68.7467 101.913 62.9365 101.913 Q57.1264 101.913 54.0477 97.3299 Q50.9921 92.7235 50.9921 83.9966 Q50.9921 75.2467 54.0477 70.6634 Q57.1264 66.0569 62.9365 66.0569 Z" fill="#000000" fill-rule="evenodd" fill-opacity="1" /><path clip-path="url(#clip340)" d="M 0 0 M79.9503 95.3623 L84.8345 95.3623 L84.8345 101.242 L79.9503 101.242 L79.9503 95.3623 Z" fill="#000000" fill-rule="evenodd" fill-opacity="1" /><path clip-path="url(#clip340)" d="M 0 0 M102.751 70.756 L90.9456 89.205 L102.751 89.205 L102.751 70.756 M101.524 66.6819 L107.404 66.6819 L107.404 89.205 L112.334 89.205 L112.334 93.0938 L107.404 93.0938 L107.404 101.242 L102.751 101.242 L102.751 93.0938 L87.1493 93.0938 L87.1493 88.58 L101.524 66.6819 Z" fill="#000000" fill-rule="evenodd" fill-opacity="1" /><polyline clip-path="url(#clip342)" style="stroke:#009af9; stroke-width:4; stroke-opacity:1; fill:none" points="
  210.724,1445.72 231.033,1445.71 418.823,1445.26 531.677,1442.27 627.093,1430.54 678.918,1414.65 730.742,1385.97 754.631,1366.62 778.52,1342.38 802.409,1312.48 
  826.298,1276.18 851.909,1229.41 877.52,1173.88 903.132,1109.24 928.743,1035.51 958.416,939.342 988.09,833.229 1017.76,719.81 1047.44,602.727 1073.81,499.231 
  1100.18,399.977 1126.55,308.745 1152.92,229.269 1176.04,171.983 1199.16,128.388 1222.29,100.041 1245.41,87.9763 1258.02,88.4396 1270.62,93.8789 1283.23,104.234 
  1295.84,119.393 1321.05,163.41 1346.26,224.053 1371.62,299.29 1396.98,385.774 1422.34,480.201 1447.71,579.199 1503.79,798.639 1559.87,996.399 1586.55,1077.5 
  1613.23,1148.88 1639.91,1210.33 1666.58,1262.11 1694.33,1306.36 1722.07,1341.81 1749.81,1369.61 1777.55,1390.96 1824.25,1415.49 1870.95,1429.86 1984.99,1443.06 
  2092.19,1445.34 2263.94,1445.71 2290.37,1445.72 
  "/>
<path clip-path="url(#clip340)" d="
M1983.32 216.178 L2279.28 216.178 L2279.28 95.2176 L1983.32 95.2176  Z
  " fill="#ffffff" fill-rule="evenodd" fill-opacity="1"/>
<polyline clip-path="url(#clip340)" style="stroke:#000000; stroke-width:4; stroke-opacity:1; fill:none" points="
  1983.32,216.178 2279.28,216.178 2279.28,95.2176 1983.32,95.2176 1983.32,216.178 
  "/>
<polyline clip-path="url(#clip340)" style="stroke:#009af9; stroke-width:4; stroke-opacity:1; fill:none" points="
  2007.81,155.698 2154.78,155.698 
  "/>
<path clip-path="url(#clip340)" d="M 0 0 M2193.11 175.385 Q2191.31 180.015 2189.59 181.427 Q2187.88 182.839 2185.01 182.839 L2181.61 182.839 L2181.61 179.274 L2184.11 179.274 Q2185.87 179.274 2186.84 178.44 Q2187.81 177.607 2188.99 174.505 L2189.76 172.561 L2179.27 147.052 L2183.78 147.052 L2191.89 167.329 L2199.99 147.052 L2204.5 147.052 L2193.11 175.385 Z" fill="#000000" fill-rule="evenodd" fill-opacity="1" /><path clip-path="url(#clip340)" d="M 0 0 M2210.38 169.042 L2218.02 169.042 L2218.02 142.677 L2209.71 144.343 L2209.71 140.084 L2217.97 138.418 L2222.65 138.418 L2222.65 169.042 L2230.29 169.042 L2230.29 172.978 L2210.38 172.978 L2210.38 169.042 Z" fill="#000000" fill-rule="evenodd" fill-opacity="1" /></svg>
