<?xml version="1.0" encoding="utf-8"?>
<svg xmlns="http://www.w3.org/2000/svg" xmlns:xlink="http://www.w3.org/1999/xlink" width="600" height="400" viewBox="0 0 2400 1600">
<defs>
  <clipPath id="clip970">
    <rect x="0" y="0" width="2400" height="1600"/>
  </clipPath>
</defs>
<path clip-path="url(#clip970)" d="
M0 1600 L2400 1600 L2400 0 L0 0  Z
  " fill="#ffffff" fill-rule="evenodd" fill-opacity="1"/>
<defs>
  <clipPath id="clip971">
    <rect x="480" y="0" width="1681" height="1600"/>
  </clipPath>
</defs>
<path clip-path="url(#clip970)" d="
M179.654 1486.45 L1880.25 1486.45 L1880.25 47.2441 L179.654 47.2441  Z
  " fill="#ffffff" fill-rule="evenodd" fill-opacity="1"/>
<defs>
  <clipPath id="clip972">
    <rect x="179" y="47" width="1702" height="1440"/>
  </clipPath>
</defs>
<polyline clip-path="url(#clip972)" style="stroke:#000000; stroke-width:2; stroke-opacity:0.1; fill:none" points="
  361.479,1486.45 361.479,47.2441 
  "/>
<polyline clip-path="url(#clip972)" style="stroke:#000000; stroke-width:2; stroke-opacity:0.1; fill:none" points="
  584.304,1486.45 584.304,47.2441 
  "/>
<polyline clip-path="url(#clip972)" style="stroke:#000000; stroke-width:2; stroke-opacity:0.1; fill:none" points="
  807.129,1486.45 807.129,47.2441 
  "/>
<polyline clip-path="url(#clip972)" style="stroke:#000000; stroke-width:2; stroke-opacity:0.1; fill:none" points="
  1029.95,1486.45 1029.95,47.2441 
  "/>
<polyline clip-path="url(#clip972)" style="stroke:#000000; stroke-width:2; stroke-opacity:0.1; fill:none" points="
  1252.78,1486.45 1252.78,47.2441 
  "/>
<polyline clip-path="url(#clip972)" style="stroke:#000000; stroke-width:2; stroke-opacity:0.1; fill:none" points="
  1475.6,1486.45 1475.6,47.2441 
  "/>
<polyline clip-path="url(#clip972)" style="stroke:#000000; stroke-width:2; stroke-opacity:0.1; fill:none" points="
  1698.43,1486.45 1698.43,47.2441 
  "/>
<polyline clip-path="url(#clip970)" style="stroke:#000000; stroke-width:4; stroke-opacity:1; fill:none" points="
  179.654,1486.45 1880.25,1486.45 
  "/>
<polyline clip-path="url(#clip970)" style="stroke:#000000; stroke-width:4; stroke-opacity:1; fill:none" points="
  361.479,1486.45 361.479,1469.18 
  "/>
<polyline clip-path="url(#clip970)" style="stroke:#000000; stroke-width:4; stroke-opacity:1; fill:none" points="
  584.304,1486.45 584.304,1469.18 
  "/>
<polyline clip-path="url(#clip970)" style="stroke:#000000; stroke-width:4; stroke-opacity:1; fill:none" points="
  807.129,1486.45 807.129,1469.18 
  "/>
<polyline clip-path="url(#clip970)" style="stroke:#000000; stroke-width:4; stroke-opacity:1; fill:none" points="
  1029.95,1486.45 1029.95,1469.18 
  "/>
<polyline clip-path="url(#clip970)" style="stroke:#000000; stroke-width:4; stroke-opacity:1; fill:none" points="
  1252.78,1486.45 1252.78,1469.18 
  "/>
<polyline clip-path="url(#clip970)" style="stroke:#000000; stroke-width:4; stroke-opacity:1; fill:none" points="
  1475.6,1486.45 1475.6,1469.18 
  "/>
<polyline clip-path="url(#clip970)" style="stroke:#000000; stroke-width:4; stroke-opacity:1; fill:none" points="
  1698.43,1486.45 1698.43,1469.18 
  "/>
<path clip-path="url(#clip970)" d="M 0 0 M330.437 1515.64 Q326.826 1515.64 324.997 1519.2 Q323.192 1522.75 323.192 1529.87 Q323.192 1536.98 324.997 1540.55 Q326.826 1544.09 330.437 1544.09 Q334.072 1544.09 335.877 1540.55 Q337.706 1536.98 337.706 1529.87 Q337.706 1522.75 335.877 1519.2 Q334.072 1515.64 330.437 1515.64 M330.437 1511.93 Q336.247 1511.93 339.303 1516.54 Q342.382 1521.12 342.382 1529.87 Q342.382 1538.6 339.303 1543.21 Q336.247 1547.79 330.437 1547.79 Q324.627 1547.79 321.548 1543.21 Q318.493 1538.6 318.493 1529.87 Q318.493 1521.12 321.548 1516.54 Q324.627 1511.93 330.437 1511.93 Z" fill="#000000" fill-rule="evenodd" fill-opacity="1" /><path clip-path="url(#clip970)" d="M 0 0 M347.451 1541.24 L352.335 1541.24 L352.335 1547.12 L347.451 1547.12 L347.451 1541.24 Z" fill="#000000" fill-rule="evenodd" fill-opacity="1" /><path clip-path="url(#clip970)" d="M 0 0 M356.224 1512.56 L378.446 1512.56 L378.446 1514.55 L365.9 1547.12 L361.016 1547.12 L372.821 1516.5 L356.224 1516.5 L356.224 1512.56 Z" fill="#000000" fill-rule="evenodd" fill-opacity="1" /><path clip-path="url(#clip970)" d="M 0 0 M383.562 1512.56 L401.918 1512.56 L401.918 1516.5 L387.844 1516.5 L387.844 1524.97 Q388.863 1524.62 389.881 1524.46 Q390.9 1524.27 391.918 1524.27 Q397.705 1524.27 401.085 1527.44 Q404.465 1530.62 404.465 1536.03 Q404.465 1541.61 400.992 1544.71 Q397.52 1547.79 391.201 1547.79 Q389.025 1547.79 386.756 1547.42 Q384.511 1547.05 382.104 1546.31 L382.104 1541.61 Q384.187 1542.74 386.409 1543.3 Q388.631 1543.86 391.108 1543.86 Q395.113 1543.86 397.451 1541.75 Q399.789 1539.64 399.789 1536.03 Q399.789 1532.42 397.451 1530.31 Q395.113 1528.21 391.108 1528.21 Q389.233 1528.21 387.358 1528.62 Q385.506 1529.04 383.562 1529.92 L383.562 1512.56 Z" fill="#000000" fill-rule="evenodd" fill-opacity="1" /><path clip-path="url(#clip970)" d="M 0 0 M542.695 1543.18 L550.334 1543.18 L550.334 1516.82 L542.024 1518.49 L542.024 1514.23 L550.288 1512.56 L554.964 1512.56 L554.964 1543.18 L562.602 1543.18 L562.602 1547.12 L542.695 1547.12 L542.695 1543.18 Z" fill="#000000" fill-rule="evenodd" fill-opacity="1" /><path clip-path="url(#clip970)" d="M 0 0 M567.672 1541.24 L572.556 1541.24 L572.556 1547.12 L567.672 1547.12 L567.672 1541.24 Z" fill="#000000" fill-rule="evenodd" fill-opacity="1" /><path clip-path="url(#clip970)" d="M 0 0 M587.625 1515.64 Q584.014 1515.64 582.186 1519.2 Q580.38 1522.75 580.38 1529.87 Q580.38 1536.98 582.186 1540.55 Q584.014 1544.09 587.625 1544.09 Q591.26 1544.09 593.065 1540.55 Q594.894 1536.98 594.894 1529.87 Q594.894 1522.75 593.065 1519.2 Q591.26 1515.64 587.625 1515.64 M587.625 1511.93 Q593.436 1511.93 596.491 1516.54 Q599.57 1521.12 599.57 1529.87 Q599.57 1538.6 596.491 1543.21 Q593.436 1547.79 587.625 1547.79 Q581.815 1547.79 578.737 1543.21 Q575.681 1538.6 575.681 1529.87 Q575.681 1521.12 578.737 1516.54 Q581.815 1511.93 587.625 1511.93 Z" fill="#000000" fill-rule="evenodd" fill-opacity="1" /><path clip-path="url(#clip970)" d="M 0 0 M614.639 1515.64 Q611.028 1515.64 609.199 1519.2 Q607.394 1522.75 607.394 1529.87 Q607.394 1536.98 609.199 1540.55 Q611.028 1544.09 614.639 1544.09 Q618.273 1544.09 620.079 1540.55 Q621.908 1536.98 621.908 1529.87 Q621.908 1522.75 620.079 1519.2 Q618.273 1515.64 614.639 1515.64 M614.639 1511.93 Q620.449 1511.93 623.505 1516.54 Q626.584 1521.12 626.584 1529.87 Q626.584 1538.6 623.505 1543.21 Q620.449 1547.79 614.639 1547.79 Q608.829 1547.79 605.75 1543.21 Q602.695 1538.6 602.695 1529.87 Q602.695 1521.12 605.75 1516.54 Q608.829 1511.93 614.639 1511.93 Z" fill="#000000" fill-rule="evenodd" fill-opacity="1" /><path clip-path="url(#clip970)" d="M 0 0 M766.816 1543.18 L774.455 1543.18 L774.455 1516.82 L766.145 1518.49 L766.145 1514.23 L774.409 1512.56 L779.085 1512.56 L779.085 1543.18 L786.724 1543.18 L786.724 1547.12 L766.816 1547.12 L766.816 1543.18 Z" fill="#000000" fill-rule="evenodd" fill-opacity="1" /><path clip-path="url(#clip970)" d="M 0 0 M791.793 1541.24 L796.677 1541.24 L796.677 1547.12 L791.793 1547.12 L791.793 1541.24 Z" fill="#000000" fill-rule="evenodd" fill-opacity="1" /><path clip-path="url(#clip970)" d="M 0 0 M805.774 1543.18 L822.094 1543.18 L822.094 1547.12 L800.149 1547.12 L800.149 1543.18 Q802.811 1540.43 807.395 1535.8 Q812.001 1531.15 813.182 1529.81 Q815.427 1527.28 816.307 1525.55 Q817.209 1523.79 817.209 1522.1 Q817.209 1519.34 815.265 1517.61 Q813.344 1515.87 810.242 1515.87 Q808.043 1515.87 805.589 1516.63 Q803.159 1517.4 800.381 1518.95 L800.381 1514.23 Q803.205 1513.09 805.659 1512.51 Q808.112 1511.93 810.149 1511.93 Q815.52 1511.93 818.714 1514.62 Q821.909 1517.31 821.909 1521.8 Q821.909 1523.93 821.098 1525.85 Q820.311 1527.74 818.205 1530.34 Q817.626 1531.01 814.524 1534.23 Q811.422 1537.42 805.774 1543.18 Z" fill="#000000" fill-rule="evenodd" fill-opacity="1" /><path clip-path="url(#clip970)" d="M 0 0 M827.209 1512.56 L845.566 1512.56 L845.566 1516.5 L831.492 1516.5 L831.492 1524.97 Q832.51 1524.62 833.529 1524.46 Q834.547 1524.27 835.566 1524.27 Q841.353 1524.27 844.732 1527.44 Q848.112 1530.62 848.112 1536.03 Q848.112 1541.61 844.64 1544.71 Q841.168 1547.79 834.848 1547.79 Q832.672 1547.79 830.404 1547.42 Q828.158 1547.05 825.751 1546.31 L825.751 1541.61 Q827.834 1542.74 830.057 1543.3 Q832.279 1543.86 834.756 1543.86 Q838.76 1543.86 841.098 1541.75 Q843.436 1539.64 843.436 1536.03 Q843.436 1532.42 841.098 1530.31 Q838.76 1528.21 834.756 1528.21 Q832.881 1528.21 831.006 1528.62 Q829.154 1529.04 827.209 1529.92 L827.209 1512.56 Z" fill="#000000" fill-rule="evenodd" fill-opacity="1" /><path clip-path="url(#clip970)" d="M 0 0 M988.842 1543.18 L996.481 1543.18 L996.481 1516.82 L988.171 1518.49 L988.171 1514.23 L996.435 1512.56 L1001.11 1512.56 L1001.11 1543.18 L1008.75 1543.18 L1008.75 1547.12 L988.842 1547.12 L988.842 1543.18 Z" fill="#000000" fill-rule="evenodd" fill-opacity="1" /><path clip-path="url(#clip970)" d="M 0 0 M1013.82 1541.24 L1018.7 1541.24 L1018.7 1547.12 L1013.82 1547.12 L1013.82 1541.24 Z" fill="#000000" fill-rule="evenodd" fill-opacity="1" /><path clip-path="url(#clip970)" d="M 0 0 M1023.82 1512.56 L1042.18 1512.56 L1042.18 1516.5 L1028.1 1516.5 L1028.1 1524.97 Q1029.12 1524.62 1030.14 1524.46 Q1031.16 1524.27 1032.18 1524.27 Q1037.96 1524.27 1041.34 1527.44 Q1044.72 1530.62 1044.72 1536.03 Q1044.72 1541.61 1041.25 1544.71 Q1037.78 1547.79 1031.46 1547.79 Q1029.28 1547.79 1027.01 1547.42 Q1024.77 1547.05 1022.36 1546.31 L1022.36 1541.61 Q1024.44 1542.74 1026.67 1543.3 Q1028.89 1543.86 1031.37 1543.86 Q1035.37 1543.86 1037.71 1541.75 Q1040.05 1539.64 1040.05 1536.03 Q1040.05 1532.42 1037.71 1530.31 Q1035.37 1528.21 1031.37 1528.21 Q1029.49 1528.21 1027.62 1528.62 Q1025.76 1529.04 1023.82 1529.92 L1023.82 1512.56 Z" fill="#000000" fill-rule="evenodd" fill-opacity="1" /><path clip-path="url(#clip970)" d="M 0 0 M1059.79 1515.64 Q1056.18 1515.64 1054.35 1519.2 Q1052.55 1522.75 1052.55 1529.87 Q1052.55 1536.98 1054.35 1540.55 Q1056.18 1544.09 1059.79 1544.09 Q1063.43 1544.09 1065.23 1540.55 Q1067.06 1536.98 1067.06 1529.87 Q1067.06 1522.75 1065.23 1519.2 Q1063.43 1515.64 1059.79 1515.64 M1059.79 1511.93 Q1065.6 1511.93 1068.66 1516.54 Q1071.74 1521.12 1071.74 1529.87 Q1071.74 1538.6 1068.66 1543.21 Q1065.6 1547.79 1059.79 1547.79 Q1053.98 1547.79 1050.9 1543.21 Q1047.85 1538.6 1047.85 1529.87 Q1047.85 1521.12 1050.9 1516.54 Q1053.98 1511.93 1059.79 1511.93 Z" fill="#000000" fill-rule="evenodd" fill-opacity="1" /><path clip-path="url(#clip970)" d="M 0 0 M1212.12 1543.18 L1219.76 1543.18 L1219.76 1516.82 L1211.45 1518.49 L1211.45 1514.23 L1219.71 1512.56 L1224.39 1512.56 L1224.39 1543.18 L1232.03 1543.18 L1232.03 1547.12 L1212.12 1547.12 L1212.12 1543.18 Z" fill="#000000" fill-rule="evenodd" fill-opacity="1" /><path clip-path="url(#clip970)" d="M 0 0 M1237.1 1541.24 L1241.98 1541.24 L1241.98 1547.12 L1237.1 1547.12 L1237.1 1541.24 Z" fill="#000000" fill-rule="evenodd" fill-opacity="1" /><path clip-path="url(#clip970)" d="M 0 0 M1245.87 1512.56 L1268.09 1512.56 L1268.09 1514.55 L1255.54 1547.12 L1250.66 1547.12 L1262.47 1516.5 L1245.87 1516.5 L1245.87 1512.56 Z" fill="#000000" fill-rule="evenodd" fill-opacity="1" /><path clip-path="url(#clip970)" d="M 0 0 M1273.21 1512.56 L1291.56 1512.56 L1291.56 1516.5 L1277.49 1516.5 L1277.49 1524.97 Q1278.51 1524.62 1279.53 1524.46 Q1280.54 1524.27 1281.56 1524.27 Q1287.35 1524.27 1290.73 1527.44 Q1294.11 1530.62 1294.11 1536.03 Q1294.11 1541.61 1290.64 1544.71 Q1287.16 1547.79 1280.85 1547.79 Q1278.67 1547.79 1276.4 1547.42 Q1274.16 1547.05 1271.75 1546.31 L1271.75 1541.61 Q1273.83 1542.74 1276.05 1543.3 Q1278.28 1543.86 1280.75 1543.86 Q1284.76 1543.86 1287.1 1541.75 Q1289.43 1539.64 1289.43 1536.03 Q1289.43 1532.42 1287.1 1530.31 Q1284.76 1528.21 1280.75 1528.21 Q1278.88 1528.21 1277 1528.62 Q1275.15 1529.04 1273.21 1529.92 L1273.21 1512.56 Z" fill="#000000" fill-rule="evenodd" fill-opacity="1" /><path clip-path="url(#clip970)" d="M 0 0 M1438.27 1543.18 L1454.58 1543.18 L1454.58 1547.12 L1432.64 1547.12 L1432.64 1543.18 Q1435.3 1540.43 1439.89 1535.8 Q1444.49 1531.15 1445.67 1529.81 Q1447.92 1527.28 1448.8 1525.55 Q1449.7 1523.79 1449.7 1522.1 Q1449.7 1519.34 1447.76 1517.61 Q1445.83 1515.87 1442.73 1515.87 Q1440.53 1515.87 1438.08 1516.63 Q1435.65 1517.4 1432.87 1518.95 L1432.87 1514.23 Q1435.7 1513.09 1438.15 1512.51 Q1440.6 1511.93 1442.64 1511.93 Q1448.01 1511.93 1451.21 1514.62 Q1454.4 1517.31 1454.4 1521.8 Q1454.4 1523.93 1453.59 1525.85 Q1452.8 1527.74 1450.7 1530.34 Q1450.12 1531.01 1447.02 1534.23 Q1443.91 1537.42 1438.27 1543.18 Z" fill="#000000" fill-rule="evenodd" fill-opacity="1" /><path clip-path="url(#clip970)" d="M 0 0 M1459.65 1541.24 L1464.54 1541.24 L1464.54 1547.12 L1459.65 1547.12 L1459.65 1541.24 Z" fill="#000000" fill-rule="evenodd" fill-opacity="1" /><path clip-path="url(#clip970)" d="M 0 0 M1479.61 1515.64 Q1476 1515.64 1474.17 1519.2 Q1472.36 1522.75 1472.36 1529.87 Q1472.36 1536.98 1474.17 1540.55 Q1476 1544.09 1479.61 1544.09 Q1483.24 1544.09 1485.05 1540.55 Q1486.88 1536.98 1486.88 1529.87 Q1486.88 1522.75 1485.05 1519.2 Q1483.24 1515.64 1479.61 1515.64 M1479.61 1511.93 Q1485.42 1511.93 1488.47 1516.54 Q1491.55 1521.12 1491.55 1529.87 Q1491.55 1538.6 1488.47 1543.21 Q1485.42 1547.79 1479.61 1547.79 Q1473.8 1547.79 1470.72 1543.21 Q1467.66 1538.6 1467.66 1529.87 Q1467.66 1521.12 1470.72 1516.54 Q1473.8 1511.93 1479.61 1511.93 Z" fill="#000000" fill-rule="evenodd" fill-opacity="1" /><path clip-path="url(#clip970)" d="M 0 0 M1506.62 1515.64 Q1503.01 1515.64 1501.18 1519.2 Q1499.38 1522.75 1499.38 1529.87 Q1499.38 1536.98 1501.18 1540.55 Q1503.01 1544.09 1506.62 1544.09 Q1510.26 1544.09 1512.06 1540.55 Q1513.89 1536.98 1513.89 1529.87 Q1513.89 1522.75 1512.06 1519.2 Q1510.26 1515.64 1506.62 1515.64 M1506.62 1511.93 Q1512.43 1511.93 1515.49 1516.54 Q1518.57 1521.12 1518.57 1529.87 Q1518.57 1538.6 1515.49 1543.21 Q1512.43 1547.79 1506.62 1547.79 Q1500.81 1547.79 1497.73 1543.21 Q1494.68 1538.6 1494.68 1529.87 Q1494.68 1521.12 1497.73 1516.54 Q1500.81 1511.93 1506.62 1511.93 Z" fill="#000000" fill-rule="evenodd" fill-opacity="1" /><path clip-path="url(#clip970)" d="M 0 0 M1662.39 1543.18 L1678.71 1543.18 L1678.71 1547.12 L1656.76 1547.12 L1656.76 1543.18 Q1659.42 1540.43 1664.01 1535.8 Q1668.61 1531.15 1669.79 1529.81 Q1672.04 1527.28 1672.92 1525.55 Q1673.82 1523.79 1673.82 1522.1 Q1673.82 1519.34 1671.88 1517.61 Q1669.96 1515.87 1666.85 1515.87 Q1664.66 1515.87 1662.2 1516.63 Q1659.77 1517.4 1656.99 1518.95 L1656.99 1514.23 Q1659.82 1513.09 1662.27 1512.51 Q1664.72 1511.93 1666.76 1511.93 Q1672.13 1511.93 1675.33 1514.62 Q1678.52 1517.31 1678.52 1521.8 Q1678.52 1523.93 1677.71 1525.85 Q1676.92 1527.74 1674.82 1530.34 Q1674.24 1531.01 1671.14 1534.23 Q1668.03 1537.42 1662.39 1543.18 Z" fill="#000000" fill-rule="evenodd" fill-opacity="1" /><path clip-path="url(#clip970)" d="M 0 0 M1683.78 1541.24 L1688.66 1541.24 L1688.66 1547.12 L1683.78 1547.12 L1683.78 1541.24 Z" fill="#000000" fill-rule="evenodd" fill-opacity="1" /><path clip-path="url(#clip970)" d="M 0 0 M1697.76 1543.18 L1714.08 1543.18 L1714.08 1547.12 L1692.13 1547.12 L1692.13 1543.18 Q1694.79 1540.43 1699.38 1535.8 Q1703.98 1531.15 1705.16 1529.81 Q1707.41 1527.28 1708.29 1525.55 Q1709.19 1523.79 1709.19 1522.1 Q1709.19 1519.34 1707.25 1517.61 Q1705.33 1515.87 1702.22 1515.87 Q1700.03 1515.87 1697.57 1516.63 Q1695.14 1517.4 1692.36 1518.95 L1692.36 1514.23 Q1695.19 1513.09 1697.64 1512.51 Q1700.09 1511.93 1702.13 1511.93 Q1707.5 1511.93 1710.7 1514.62 Q1713.89 1517.31 1713.89 1521.8 Q1713.89 1523.93 1713.08 1525.85 Q1712.29 1527.74 1710.19 1530.34 Q1709.61 1531.01 1706.51 1534.23 Q1703.4 1537.42 1697.76 1543.18 Z" fill="#000000" fill-rule="evenodd" fill-opacity="1" /><path clip-path="url(#clip970)" d="M 0 0 M1719.19 1512.56 L1737.55 1512.56 L1737.55 1516.5 L1723.47 1516.5 L1723.47 1524.97 Q1724.49 1524.62 1725.51 1524.46 Q1726.53 1524.27 1727.55 1524.27 Q1733.34 1524.27 1736.71 1527.44 Q1740.09 1530.62 1740.09 1536.03 Q1740.09 1541.61 1736.62 1544.71 Q1733.15 1547.79 1726.83 1547.79 Q1724.65 1547.79 1722.39 1547.42 Q1720.14 1547.05 1717.73 1546.31 L1717.73 1541.61 Q1719.82 1542.74 1722.04 1543.3 Q1724.26 1543.86 1726.74 1543.86 Q1730.74 1543.86 1733.08 1541.75 Q1735.42 1539.64 1735.42 1536.03 Q1735.42 1532.42 1733.08 1530.31 Q1730.74 1528.21 1726.74 1528.21 Q1724.86 1528.21 1722.99 1528.62 Q1721.14 1529.04 1719.19 1529.92 L1719.19 1512.56 Z" fill="#000000" fill-rule="evenodd" fill-opacity="1" /><polyline clip-path="url(#clip972)" style="stroke:#000000; stroke-width:2; stroke-opacity:0.1; fill:none" points="
  179.654,1341.27 1880.25,1341.27 
  "/>
<polyline clip-path="url(#clip972)" style="stroke:#000000; stroke-width:2; stroke-opacity:0.1; fill:none" points="
  179.654,1080.17 1880.25,1080.17 
  "/>
<polyline clip-path="url(#clip972)" style="stroke:#000000; stroke-width:2; stroke-opacity:0.1; fill:none" points="
  179.654,819.067 1880.25,819.067 
  "/>
<polyline clip-path="url(#clip972)" style="stroke:#000000; stroke-width:2; stroke-opacity:0.1; fill:none" points="
  179.654,557.963 1880.25,557.963 
  "/>
<polyline clip-path="url(#clip972)" style="stroke:#000000; stroke-width:2; stroke-opacity:0.1; fill:none" points="
  179.654,296.859 1880.25,296.859 
  "/>
<polyline clip-path="url(#clip970)" style="stroke:#000000; stroke-width:4; stroke-opacity:1; fill:none" points="
  179.654,1486.45 179.654,47.2441 
  "/>
<polyline clip-path="url(#clip970)" style="stroke:#000000; stroke-width:4; stroke-opacity:1; fill:none" points="
  179.654,1341.27 200.061,1341.27 
  "/>
<polyline clip-path="url(#clip970)" style="stroke:#000000; stroke-width:4; stroke-opacity:1; fill:none" points="
  179.654,1080.17 200.061,1080.17 
  "/>
<polyline clip-path="url(#clip970)" style="stroke:#000000; stroke-width:4; stroke-opacity:1; fill:none" points="
  179.654,819.067 200.061,819.067 
  "/>
<polyline clip-path="url(#clip970)" style="stroke:#000000; stroke-width:4; stroke-opacity:1; fill:none" points="
  179.654,557.963 200.061,557.963 
  "/>
<polyline clip-path="url(#clip970)" style="stroke:#000000; stroke-width:4; stroke-opacity:1; fill:none" points="
  179.654,296.859 200.061,296.859 
  "/>
<path clip-path="url(#clip970)" d="M 0 0 M50.9921 1341.73 L80.6679 1341.73 L80.6679 1345.66 L50.9921 1345.66 L50.9921 1341.73 Z" fill="#000000" fill-rule="evenodd" fill-opacity="1" /><path clip-path="url(#clip970)" d="M 0 0 M85.7836 1323.99 L104.14 1323.99 L104.14 1327.93 L90.066 1327.93 L90.066 1336.4 Q91.0845 1336.05 92.103 1335.89 Q93.1215 1335.71 94.14 1335.71 Q99.927 1335.71 103.307 1338.88 Q106.686 1342.05 106.686 1347.47 Q106.686 1353.04 103.214 1356.15 Q99.7419 1359.23 93.4225 1359.23 Q91.2465 1359.23 88.978 1358.86 Q86.7327 1358.48 84.3253 1357.74 L84.3253 1353.04 Q86.4086 1354.18 88.6308 1354.73 Q90.853 1355.29 93.3299 1355.29 Q97.3345 1355.29 99.6724 1353.18 Q102.01 1351.08 102.01 1347.47 Q102.01 1343.86 99.6724 1341.75 Q97.3345 1339.64 93.3299 1339.64 Q91.4549 1339.64 89.5799 1340.06 Q87.728 1340.48 85.7836 1341.36 L85.7836 1323.99 Z" fill="#000000" fill-rule="evenodd" fill-opacity="1" /><path clip-path="url(#clip970)" d="M 0 0 M111.756 1352.67 L116.64 1352.67 L116.64 1358.55 L111.756 1358.55 L111.756 1352.67 Z" fill="#000000" fill-rule="evenodd" fill-opacity="1" /><path clip-path="url(#clip970)" d="M 0 0 M131.709 1327.07 Q128.098 1327.07 126.27 1330.64 Q124.464 1334.18 124.464 1341.31 Q124.464 1348.42 126.27 1351.98 Q128.098 1355.52 131.709 1355.52 Q135.344 1355.52 137.149 1351.98 Q138.978 1348.42 138.978 1341.31 Q138.978 1334.18 137.149 1330.64 Q135.344 1327.07 131.709 1327.07 M131.709 1323.37 Q137.519 1323.37 140.575 1327.98 Q143.654 1332.56 143.654 1341.31 Q143.654 1350.04 140.575 1354.64 Q137.519 1359.23 131.709 1359.23 Q125.899 1359.23 122.82 1354.64 Q119.765 1350.04 119.765 1341.31 Q119.765 1332.56 122.82 1327.98 Q125.899 1323.37 131.709 1323.37 Z" fill="#000000" fill-rule="evenodd" fill-opacity="1" /><path clip-path="url(#clip970)" d="M 0 0 M52.5893 1080.62 L82.2651 1080.62 L82.2651 1084.56 L52.5893 1084.56 L52.5893 1080.62 Z" fill="#000000" fill-rule="evenodd" fill-opacity="1" /><path clip-path="url(#clip970)" d="M 0 0 M91.3623 1093.52 L107.682 1093.52 L107.682 1097.45 L85.7373 1097.45 L85.7373 1093.52 Q88.3993 1090.76 92.9826 1086.13 Q97.5891 1081.48 98.7696 1080.14 Q101.015 1077.61 101.895 1075.88 Q102.797 1074.12 102.797 1072.43 Q102.797 1069.67 100.853 1067.94 Q98.9317 1066.2 95.8298 1066.2 Q93.6308 1066.2 91.1771 1066.96 Q88.7466 1067.73 85.9688 1069.28 L85.9688 1064.56 Q88.7928 1063.42 91.2465 1062.84 Q93.7002 1062.27 95.7373 1062.27 Q101.108 1062.27 104.302 1064.95 Q107.496 1067.64 107.496 1072.13 Q107.496 1074.26 106.686 1076.18 Q105.899 1078.08 103.793 1080.67 Q103.214 1081.34 100.112 1084.56 Q97.0104 1087.75 91.3623 1093.52 Z" fill="#000000" fill-rule="evenodd" fill-opacity="1" /><path clip-path="url(#clip970)" d="M 0 0 M112.751 1091.57 L117.635 1091.57 L117.635 1097.45 L112.751 1097.45 L112.751 1091.57 Z" fill="#000000" fill-rule="evenodd" fill-opacity="1" /><path clip-path="url(#clip970)" d="M 0 0 M122.751 1062.89 L141.107 1062.89 L141.107 1066.83 L127.033 1066.83 L127.033 1075.3 Q128.052 1074.95 129.07 1074.79 Q130.089 1074.6 131.107 1074.6 Q136.894 1074.6 140.274 1077.77 Q143.654 1080.95 143.654 1086.36 Q143.654 1091.94 140.181 1095.04 Q136.709 1098.12 130.39 1098.12 Q128.214 1098.12 125.945 1097.75 Q123.7 1097.38 121.293 1096.64 L121.293 1091.94 Q123.376 1093.08 125.598 1093.63 Q127.82 1094.19 130.297 1094.19 Q134.302 1094.19 136.64 1092.08 Q138.978 1089.97 138.978 1086.36 Q138.978 1082.75 136.64 1080.64 Q134.302 1078.54 130.297 1078.54 Q128.422 1078.54 126.547 1078.96 Q124.695 1079.37 122.751 1080.25 L122.751 1062.89 Z" fill="#000000" fill-rule="evenodd" fill-opacity="1" /><path clip-path="url(#clip970)" d="M 0 0 M94.7419 804.865 Q91.1308 804.865 89.3021 808.43 Q87.4966 811.972 87.4966 819.101 Q87.4966 826.208 89.3021 829.773 Q91.1308 833.314 94.7419 833.314 Q98.3761 833.314 100.182 829.773 Q102.01 826.208 102.01 819.101 Q102.01 811.972 100.182 808.43 Q98.3761 804.865 94.7419 804.865 M94.7419 801.162 Q100.552 801.162 103.608 805.768 Q106.686 810.351 106.686 819.101 Q106.686 827.828 103.608 832.435 Q100.552 837.018 94.7419 837.018 Q88.9317 837.018 85.8531 832.435 Q82.7975 827.828 82.7975 819.101 Q82.7975 810.351 85.8531 805.768 Q88.9317 801.162 94.7419 801.162 Z" fill="#000000" fill-rule="evenodd" fill-opacity="1" /><path clip-path="url(#clip970)" d="M 0 0 M111.756 830.467 L116.64 830.467 L116.64 836.347 L111.756 836.347 L111.756 830.467 Z" fill="#000000" fill-rule="evenodd" fill-opacity="1" /><path clip-path="url(#clip970)" d="M 0 0 M131.709 804.865 Q128.098 804.865 126.27 808.43 Q124.464 811.972 124.464 819.101 Q124.464 826.208 126.27 829.773 Q128.098 833.314 131.709 833.314 Q135.344 833.314 137.149 829.773 Q138.978 826.208 138.978 819.101 Q138.978 811.972 137.149 808.43 Q135.344 804.865 131.709 804.865 M131.709 801.162 Q137.519 801.162 140.575 805.768 Q143.654 810.351 143.654 819.101 Q143.654 827.828 140.575 832.435 Q137.519 837.018 131.709 837.018 Q125.899 837.018 122.82 832.435 Q119.765 827.828 119.765 819.101 Q119.765 810.351 122.82 805.768 Q125.899 801.162 131.709 801.162 Z" fill="#000000" fill-rule="evenodd" fill-opacity="1" /><path clip-path="url(#clip970)" d="M 0 0 M91.3623 571.308 L107.682 571.308 L107.682 575.243 L85.7373 575.243 L85.7373 571.308 Q88.3993 568.553 92.9826 563.924 Q97.5891 559.271 98.7696 557.928 Q101.015 555.405 101.895 553.669 Q102.797 551.91 102.797 550.22 Q102.797 547.465 100.853 545.729 Q98.9317 543.993 95.8298 543.993 Q93.6308 543.993 91.1771 544.757 Q88.7466 545.521 85.9688 547.072 L85.9688 542.35 Q88.7928 541.215 91.2465 540.637 Q93.7002 540.058 95.7373 540.058 Q101.108 540.058 104.302 542.743 Q107.496 545.428 107.496 549.919 Q107.496 552.049 106.686 553.97 Q105.899 555.868 103.793 558.461 Q103.214 559.132 100.112 562.35 Q97.0104 565.544 91.3623 571.308 Z" fill="#000000" fill-rule="evenodd" fill-opacity="1" /><path clip-path="url(#clip970)" d="M 0 0 M112.751 569.363 L117.635 569.363 L117.635 575.243 L112.751 575.243 L112.751 569.363 Z" fill="#000000" fill-rule="evenodd" fill-opacity="1" /><path clip-path="url(#clip970)" d="M 0 0 M122.751 540.683 L141.107 540.683 L141.107 544.618 L127.033 544.618 L127.033 553.09 Q128.052 552.743 129.07 552.581 Q130.089 552.396 131.107 552.396 Q136.894 552.396 140.274 555.567 Q143.654 558.738 143.654 564.155 Q143.654 569.734 140.181 572.836 Q136.709 575.914 130.39 575.914 Q128.214 575.914 125.945 575.544 Q123.7 575.174 121.293 574.433 L121.293 569.734 Q123.376 570.868 125.598 571.424 Q127.82 571.979 130.297 571.979 Q134.302 571.979 136.64 569.873 Q138.978 567.766 138.978 564.155 Q138.978 560.544 136.64 558.438 Q134.302 556.331 130.297 556.331 Q128.422 556.331 126.547 556.748 Q124.695 557.164 122.751 558.044 L122.751 540.683 Z" fill="#000000" fill-rule="evenodd" fill-opacity="1" /><path clip-path="url(#clip970)" d="M 0 0 M85.7836 279.579 L104.14 279.579 L104.14 283.514 L90.066 283.514 L90.066 291.987 Q91.0845 291.639 92.103 291.477 Q93.1215 291.292 94.14 291.292 Q99.927 291.292 103.307 294.463 Q106.686 297.635 106.686 303.051 Q106.686 308.63 103.214 311.732 Q99.7419 314.811 93.4225 314.811 Q91.2465 314.811 88.978 314.44 Q86.7327 314.07 84.3253 313.329 L84.3253 308.63 Q86.4086 309.764 88.6308 310.32 Q90.853 310.875 93.3299 310.875 Q97.3345 310.875 99.6724 308.769 Q102.01 306.662 102.01 303.051 Q102.01 299.44 99.6724 297.334 Q97.3345 295.227 93.3299 295.227 Q91.4549 295.227 89.5799 295.644 Q87.728 296.061 85.7836 296.94 L85.7836 279.579 Z" fill="#000000" fill-rule="evenodd" fill-opacity="1" /><path clip-path="url(#clip970)" d="M 0 0 M111.756 308.26 L116.64 308.26 L116.64 314.139 L111.756 314.139 L111.756 308.26 Z" fill="#000000" fill-rule="evenodd" fill-opacity="1" /><path clip-path="url(#clip970)" d="M 0 0 M131.709 282.658 Q128.098 282.658 126.27 286.223 Q124.464 289.764 124.464 296.894 Q124.464 304 126.27 307.565 Q128.098 311.107 131.709 311.107 Q135.344 311.107 137.149 307.565 Q138.978 304 138.978 296.894 Q138.978 289.764 137.149 286.223 Q135.344 282.658 131.709 282.658 M131.709 278.954 Q137.519 278.954 140.575 283.561 Q143.654 288.144 143.654 296.894 Q143.654 305.621 140.575 310.227 Q137.519 314.811 131.709 314.811 Q125.899 314.811 122.82 310.227 Q119.765 305.621 119.765 296.894 Q119.765 288.144 122.82 283.561 Q125.899 278.954 131.709 278.954 Z" fill="#000000" fill-rule="evenodd" fill-opacity="1" /><path clip-path="url(#clip972)" d="
M584.304 1341.27 L406.044 1341.27 L762.564 1341.27 L584.304 1341.27 L584.304 1106.28 L584.304 1341.27  Z
  " fill="#009af9" fill-rule="evenodd" fill-opacity="1"/>
<polyline clip-path="url(#clip972)" style="stroke:#000000; stroke-width:4; stroke-opacity:1; fill:none" points="
  584.304,1341.27 406.044,1341.27 762.564,1341.27 584.304,1341.27 584.304,1106.28 584.304,1341.27 
  "/>
<path clip-path="url(#clip972)" d="
M940.823 1106.28 L940.823 923.508 L227.784 923.508 L227.784 1106.28 L940.823 1106.28 L940.823 923.508 L940.823 1106.28  Z
  " fill="#009af9" fill-rule="evenodd" fill-opacity="1"/>
<polyline clip-path="url(#clip972)" style="stroke:#000000; stroke-width:4; stroke-opacity:1; fill:none" points="
  940.823,1106.28 940.823,923.508 227.784,923.508 227.784,1106.28 940.823,1106.28 940.823,923.508 940.823,1106.28 
  "/>
<path clip-path="url(#clip972)" d="
M940.823 531.853 L227.784 531.853 L227.784 923.508 L940.823 923.508 L940.823 531.853 L584.304 531.853 L940.823 531.853  Z
  " fill="#009af9" fill-rule="evenodd" fill-opacity="1"/>
<polyline clip-path="url(#clip972)" style="stroke:#000000; stroke-width:4; stroke-opacity:1; fill:none" points="
  940.823,531.853 227.784,531.853 227.784,923.508 940.823,923.508 940.823,531.853 584.304,531.853 940.823,531.853 
  "/>
<path clip-path="url(#clip972)" d="
M584.304 87.9763 L406.044 87.9763 L762.564 87.9763 L584.304 87.9763 L584.304 531.853 L584.304 87.9763  Z
  " fill="#009af9" fill-rule="evenodd" fill-opacity="1"/>
<polyline clip-path="url(#clip972)" style="stroke:#000000; stroke-width:4; stroke-opacity:1; fill:none" points="
  584.304,87.9763 406.044,87.9763 762.564,87.9763 584.304,87.9763 584.304,531.853 584.304,87.9763 
  "/>
<polyline clip-path="url(#clip972)" style="stroke:#009af9; stroke-width:0; stroke-opacity:1; fill:none" points="
  584.304,1341.27 406.044,1341.27 762.564,1341.27 584.304,1341.27 584.304,1106.28 
  "/>
<polyline clip-path="url(#clip972)" style="stroke:#009af9; stroke-width:0; stroke-opacity:1; fill:none" points="
  940.823,1106.28 940.823,923.508 227.784,923.508 227.784,1106.28 940.823,1106.28 940.823,923.508 
  "/>
<polyline clip-path="url(#clip972)" style="stroke:#009af9; stroke-width:0; stroke-opacity:1; fill:none" points="
  940.823,531.853 227.784,531.853 227.784,923.508 940.823,923.508 940.823,531.853 584.304,531.853 
  "/>
<polyline clip-path="url(#clip972)" style="stroke:#009af9; stroke-width:0; stroke-opacity:1; fill:none" points="
  584.304,87.9763 406.044,87.9763 762.564,87.9763 584.304,87.9763 584.304,531.853 
  "/>
<path clip-path="url(#clip972)" d="
M1475.6 1445.72 L1297.34 1445.72 L1653.86 1445.72 L1475.6 1445.72 L1475.6 1132.39 L1475.6 1445.72  Z
  " fill="#e26f46" fill-rule="evenodd" fill-opacity="1"/>
<polyline clip-path="url(#clip972)" style="stroke:#000000; stroke-width:4; stroke-opacity:1; fill:none" points="
  1475.6,1445.72 1297.34,1445.72 1653.86,1445.72 1475.6,1445.72 1475.6,1132.39 1475.6,1445.72 
  "/>
<path clip-path="url(#clip972)" d="
M1832.12 1132.39 L1832.12 975.729 L1119.08 975.729 L1119.08 1132.39 L1832.12 1132.39 L1832.12 975.729 L1832.12 1132.39  Z
  " fill="#e26f46" fill-rule="evenodd" fill-opacity="1"/>
<polyline clip-path="url(#clip972)" style="stroke:#000000; stroke-width:4; stroke-opacity:1; fill:none" points="
  1832.12,1132.39 1832.12,975.729 1119.08,975.729 1119.08,1132.39 1832.12,1132.39 1832.12,975.729 1832.12,1132.39 
  "/>
<path clip-path="url(#clip972)" d="
M1832.12 688.515 L1119.08 688.515 L1119.08 975.729 L1832.12 975.729 L1832.12 688.515 L1475.6 688.515 L1832.12 688.515  Z
  " fill="#e26f46" fill-rule="evenodd" fill-opacity="1"/>
<polyline clip-path="url(#clip972)" style="stroke:#000000; stroke-width:4; stroke-opacity:1; fill:none" points="
  1832.12,688.515 1119.08,688.515 1119.08,975.729 1832.12,975.729 1832.12,688.515 1475.6,688.515 1832.12,688.515 
  "/>
<path clip-path="url(#clip972)" d="
M1475.6 296.859 L1297.34 296.859 L1653.86 296.859 L1475.6 296.859 L1475.6 688.515 L1475.6 296.859  Z
  " fill="#e26f46" fill-rule="evenodd" fill-opacity="1"/>
<polyline clip-path="url(#clip972)" style="stroke:#000000; stroke-width:4; stroke-opacity:1; fill:none" points="
  1475.6,296.859 1297.34,296.859 1653.86,296.859 1475.6,296.859 1475.6,688.515 1475.6,296.859 
  "/>
<polyline clip-path="url(#clip972)" style="stroke:#e26f46; stroke-width:0; stroke-opacity:1; fill:none" points="
  1475.6,1445.72 1297.34,1445.72 1653.86,1445.72 1475.6,1445.72 1475.6,1132.39 
  "/>
<polyline clip-path="url(#clip972)" style="stroke:#e26f46; stroke-width:0; stroke-opacity:1; fill:none" points="
  1832.12,1132.39 1832.12,975.729 1119.08,975.729 1119.08,1132.39 1832.12,1132.39 1832.12,975.729 
  "/>
<polyline clip-path="url(#clip972)" style="stroke:#e26f46; stroke-width:0; stroke-opacity:1; fill:none" points="
  1832.12,688.515 1119.08,688.515 1119.08,975.729 1832.12,975.729 1832.12,688.515 1475.6,688.515 
  "/>
<polyline clip-path="url(#clip972)" style="stroke:#e26f46; stroke-width:0; stroke-opacity:1; fill:none" points="
  1475.6,296.859 1297.34,296.859 1653.86,296.859 1475.6,296.859 1475.6,688.515 
  "/>
<path clip-path="url(#clip970)" d="
M1952.69 1438.47 L2352.76 1438.47 L2352.76 1257.03 L1952.69 1257.03  Z
  " fill="#ffffff" fill-rule="evenodd" fill-opacity="1"/>
<polyline clip-path="url(#clip970)" style="stroke:#000000; stroke-width:4; stroke-opacity:1; fill:none" points="
  1952.69,1438.47 2352.76,1438.47 2352.76,1257.03 1952.69,1257.03 1952.69,1438.47 
  "/>
<path clip-path="url(#clip970)" d="
M1976.84 1341.71 L2121.71 1341.71 L2121.71 1293.32 L1976.84 1293.32 L1976.84 1341.71  Z
  " fill="#009af9" fill-rule="evenodd" fill-opacity="1"/>
<polyline clip-path="url(#clip970)" style="stroke:#000000; stroke-width:4; stroke-opacity:1; fill:none" points="
  1976.84,1341.71 2121.71,1341.71 2121.71,1293.32 1976.84,1293.32 1976.84,1341.71 
  "/>
<path clip-path="url(#clip970)" d="M 0 0 M2168.1 1301.37 L2168.1 1305.93 Q2165.44 1304.66 2163.08 1304.03 Q2160.72 1303.41 2158.52 1303.41 Q2154.7 1303.41 2152.61 1304.89 Q2150.55 1306.37 2150.55 1309.1 Q2150.55 1311.39 2151.92 1312.57 Q2153.31 1313.73 2157.15 1314.45 L2159.97 1315.03 Q2165.21 1316.02 2167.68 1318.54 Q2170.18 1321.04 2170.18 1325.26 Q2170.18 1330.28 2166.8 1332.87 Q2163.45 1335.47 2156.94 1335.47 Q2154.49 1335.47 2151.71 1334.91 Q2148.96 1334.35 2145.99 1333.27 L2145.99 1328.45 Q2148.84 1330.05 2151.57 1330.86 Q2154.3 1331.67 2156.94 1331.67 Q2160.95 1331.67 2163.12 1330.1 Q2165.3 1328.52 2165.3 1325.6 Q2165.3 1323.06 2163.72 1321.62 Q2162.17 1320.19 2158.61 1319.47 L2155.76 1318.91 Q2150.53 1317.87 2148.19 1315.65 Q2145.85 1313.43 2145.85 1309.47 Q2145.85 1304.89 2149.07 1302.25 Q2152.31 1299.61 2157.98 1299.61 Q2160.41 1299.61 2162.94 1300.05 Q2165.46 1300.49 2168.1 1301.37 Z" fill="#000000" fill-rule="evenodd" fill-opacity="1" /><path clip-path="url(#clip970)" d="M 0 0 M2193.31 1309.86 L2193.31 1313.85 Q2191.5 1312.85 2189.67 1312.36 Q2187.87 1311.85 2186.02 1311.85 Q2181.87 1311.85 2179.58 1314.49 Q2177.29 1317.11 2177.29 1321.85 Q2177.29 1326.6 2179.58 1329.24 Q2181.87 1331.85 2186.02 1331.85 Q2187.87 1331.85 2189.67 1331.37 Q2191.5 1330.86 2193.31 1329.86 L2193.31 1333.8 Q2191.53 1334.63 2189.6 1335.05 Q2187.71 1335.47 2185.55 1335.47 Q2179.7 1335.47 2176.25 1331.79 Q2172.8 1328.1 2172.8 1321.85 Q2172.8 1315.51 2176.27 1311.88 Q2179.77 1308.24 2185.83 1308.24 Q2187.8 1308.24 2189.67 1308.66 Q2191.55 1309.05 2193.31 1309.86 Z" fill="#000000" fill-rule="evenodd" fill-opacity="1" /><path clip-path="url(#clip970)" d="M 0 0 M2197.78 1308.87 L2202.03 1308.87 L2202.03 1334.79 L2197.78 1334.79 L2197.78 1308.87 M2197.78 1298.78 L2202.03 1298.78 L2202.03 1304.17 L2197.78 1304.17 L2197.78 1298.78 Z" fill="#000000" fill-rule="evenodd" fill-opacity="1" /><path clip-path="url(#clip970)" d="M 0 0 M2228.68 1320.77 L2228.68 1322.85 L2209.09 1322.85 Q2209.37 1327.25 2211.73 1329.56 Q2214.12 1331.85 2218.35 1331.85 Q2220.81 1331.85 2223.1 1331.25 Q2225.41 1330.65 2227.68 1329.45 L2227.68 1333.47 Q2225.39 1334.45 2222.98 1334.96 Q2220.58 1335.47 2218.1 1335.47 Q2211.9 1335.47 2208.26 1331.85 Q2204.65 1328.24 2204.65 1322.09 Q2204.65 1315.72 2208.08 1311.99 Q2211.53 1308.24 2217.36 1308.24 Q2222.59 1308.24 2225.62 1311.62 Q2228.68 1314.98 2228.68 1320.77 M2224.42 1319.52 Q2224.37 1316.02 2222.45 1313.94 Q2220.55 1311.85 2217.41 1311.85 Q2213.84 1311.85 2211.69 1313.87 Q2209.56 1315.88 2209.23 1319.54 L2224.42 1319.52 Z" fill="#000000" fill-rule="evenodd" fill-opacity="1" /><path clip-path="url(#clip970)" d="M 0 0 M2254.7 1319.15 L2254.7 1334.79 L2250.44 1334.79 L2250.44 1319.29 Q2250.44 1315.6 2249 1313.78 Q2247.57 1311.95 2244.7 1311.95 Q2241.25 1311.95 2239.26 1314.15 Q2237.27 1316.35 2237.27 1320.14 L2237.27 1334.79 L2232.98 1334.79 L2232.98 1308.87 L2237.27 1308.87 L2237.27 1312.9 Q2238.79 1310.56 2240.85 1309.4 Q2242.94 1308.24 2245.65 1308.24 Q2250.11 1308.24 2252.4 1311.02 Q2254.7 1313.78 2254.7 1319.15 Z" fill="#000000" fill-rule="evenodd" fill-opacity="1" /><path clip-path="url(#clip970)" d="M 0 0 M2277.82 1309.86 L2277.82 1313.85 Q2276.02 1312.85 2274.19 1312.36 Q2272.38 1311.85 2270.53 1311.85 Q2266.39 1311.85 2264.09 1314.49 Q2261.8 1317.11 2261.8 1321.85 Q2261.8 1326.6 2264.09 1329.24 Q2266.39 1331.85 2270.53 1331.85 Q2272.38 1331.85 2274.19 1331.37 Q2276.02 1330.86 2277.82 1329.86 L2277.82 1333.8 Q2276.04 1334.63 2274.12 1335.05 Q2272.22 1335.47 2270.07 1335.47 Q2264.21 1335.47 2260.76 1331.79 Q2257.31 1328.1 2257.31 1321.85 Q2257.31 1315.51 2260.78 1311.88 Q2264.28 1308.24 2270.34 1308.24 Q2272.31 1308.24 2274.19 1308.66 Q2276.06 1309.05 2277.82 1309.86 Z" fill="#000000" fill-rule="evenodd" fill-opacity="1" /><path clip-path="url(#clip970)" d="M 0 0 M2304.46 1320.77 L2304.46 1322.85 L2284.88 1322.85 Q2285.16 1327.25 2287.52 1329.56 Q2289.9 1331.85 2294.14 1331.85 Q2296.59 1331.85 2298.89 1331.25 Q2301.2 1330.65 2303.47 1329.45 L2303.47 1333.47 Q2301.18 1334.45 2298.77 1334.96 Q2296.36 1335.47 2293.89 1335.47 Q2287.68 1335.47 2284.05 1331.85 Q2280.44 1328.24 2280.44 1322.09 Q2280.44 1315.72 2283.86 1311.99 Q2287.31 1308.24 2293.15 1308.24 Q2298.38 1308.24 2301.41 1311.62 Q2304.46 1314.98 2304.46 1320.77 M2300.21 1319.52 Q2300.16 1316.02 2298.24 1313.94 Q2296.34 1311.85 2293.19 1311.85 Q2289.63 1311.85 2287.47 1313.87 Q2285.34 1315.88 2285.02 1319.54 L2300.21 1319.52 Z" fill="#000000" fill-rule="evenodd" fill-opacity="1" /><path clip-path="url(#clip970)" d="
M1976.84 1402.19 L2121.71 1402.19 L2121.71 1353.8 L1976.84 1353.8 L1976.84 1402.19  Z
  " fill="#e26f46" fill-rule="evenodd" fill-opacity="1"/>
<polyline clip-path="url(#clip970)" style="stroke:#000000; stroke-width:4; stroke-opacity:1; fill:none" points="
  1976.84,1402.19 2121.71,1402.19 2121.71,1353.8 1976.84,1353.8 1976.84,1402.19 
  "/>
<path clip-path="url(#clip970)" d="M 0 0 M2161.69 1365.32 L2155.35 1382.52 L2168.05 1382.52 L2161.69 1365.32 M2159.05 1360.71 L2164.35 1360.71 L2177.52 1395.27 L2172.66 1395.27 L2169.51 1386.41 L2153.93 1386.41 L2150.79 1395.27 L2145.85 1395.27 L2159.05 1360.71 Z" fill="#000000" fill-rule="evenodd" fill-opacity="1" /><path clip-path="url(#clip970)" d="M 0 0 M2197.01 1373.33 Q2196.29 1372.91 2195.44 1372.73 Q2194.6 1372.52 2193.59 1372.52 Q2189.97 1372.52 2188.03 1374.88 Q2186.11 1377.22 2186.11 1381.62 L2186.11 1395.27 L2181.83 1395.27 L2181.83 1369.35 L2186.11 1369.35 L2186.11 1373.38 Q2187.45 1371.02 2189.6 1369.88 Q2191.76 1368.72 2194.84 1368.72 Q2195.28 1368.72 2195.81 1368.79 Q2196.34 1368.84 2196.99 1368.96 L2197.01 1373.33 Z" fill="#000000" fill-rule="evenodd" fill-opacity="1" /><path clip-path="url(#clip970)" d="M 0 0 M2205.69 1361.99 L2205.69 1369.35 L2214.47 1369.35 L2214.47 1372.66 L2205.69 1372.66 L2205.69 1386.73 Q2205.69 1389.9 2206.55 1390.81 Q2207.43 1391.71 2210.09 1391.71 L2214.47 1391.71 L2214.47 1395.27 L2210.09 1395.27 Q2205.16 1395.27 2203.28 1393.45 Q2201.41 1391.59 2201.41 1386.73 L2201.41 1372.66 L2198.28 1372.66 L2198.28 1369.35 L2201.41 1369.35 L2201.41 1361.99 L2205.69 1361.99 Z" fill="#000000" fill-rule="evenodd" fill-opacity="1" /></svg>
