<?xml version="1.0" encoding="utf-8"?>
<svg xmlns="http://www.w3.org/2000/svg" xmlns:xlink="http://www.w3.org/1999/xlink" width="600" height="400" viewBox="0 0 2400 1600">
<defs>
  <clipPath id="clip420">
    <rect x="0" y="0" width="2400" height="1600"/>
  </clipPath>
</defs>
<path clip-path="url(#clip420)" d="
M0 1600 L2400 1600 L2400 0 L0 0  Z
  " fill="#ffffff" fill-rule="evenodd" fill-opacity="1"/>
<defs>
  <clipPath id="clip421">
    <rect x="480" y="0" width="1681" height="1600"/>
  </clipPath>
</defs>
<path clip-path="url(#clip420)" d="
M169.469 1486.45 L2352.76 1486.45 L2352.76 47.2441 L169.469 47.2441  Z
  " fill="#ffffff" fill-rule="evenodd" fill-opacity="1"/>
<defs>
  <clipPath id="clip422">
    <rect x="169" y="47" width="2184" height="1440"/>
  </clipPath>
</defs>
<polyline clip-path="url(#clip422)" style="stroke:#000000; stroke-width:2; stroke-opacity:0.1; fill:none" points="
  525.503,1486.45 525.503,47.2441 
  "/>
<polyline clip-path="url(#clip422)" style="stroke:#000000; stroke-width:2; stroke-opacity:0.1; fill:none" points="
  893.308,1486.45 893.308,47.2441 
  "/>
<polyline clip-path="url(#clip422)" style="stroke:#000000; stroke-width:2; stroke-opacity:0.1; fill:none" points="
  1261.11,1486.45 1261.11,47.2441 
  "/>
<polyline clip-path="url(#clip422)" style="stroke:#000000; stroke-width:2; stroke-opacity:0.1; fill:none" points="
  1628.92,1486.45 1628.92,47.2441 
  "/>
<polyline clip-path="url(#clip422)" style="stroke:#000000; stroke-width:2; stroke-opacity:0.1; fill:none" points="
  1996.72,1486.45 1996.72,47.2441 
  "/>
<polyline clip-path="url(#clip420)" style="stroke:#000000; stroke-width:4; stroke-opacity:1; fill:none" points="
  169.469,1486.45 2352.76,1486.45 
  "/>
<polyline clip-path="url(#clip420)" style="stroke:#000000; stroke-width:4; stroke-opacity:1; fill:none" points="
  525.503,1486.45 525.503,1469.18 
  "/>
<polyline clip-path="url(#clip420)" style="stroke:#000000; stroke-width:4; stroke-opacity:1; fill:none" points="
  893.308,1486.45 893.308,1469.18 
  "/>
<polyline clip-path="url(#clip420)" style="stroke:#000000; stroke-width:4; stroke-opacity:1; fill:none" points="
  1261.11,1486.45 1261.11,1469.18 
  "/>
<polyline clip-path="url(#clip420)" style="stroke:#000000; stroke-width:4; stroke-opacity:1; fill:none" points="
  1628.92,1486.45 1628.92,1469.18 
  "/>
<polyline clip-path="url(#clip420)" style="stroke:#000000; stroke-width:4; stroke-opacity:1; fill:none" points="
  1996.72,1486.45 1996.72,1469.18 
  "/>
<path clip-path="url(#clip420)" d="M 0 0 M497.402 1543.18 L505.04 1543.18 L505.04 1516.82 L496.73 1518.49 L496.73 1514.23 L504.994 1512.56 L509.67 1512.56 L509.67 1543.18 L517.309 1543.18 L517.309 1547.12 L497.402 1547.12 L497.402 1543.18 Z" fill="#000000" fill-rule="evenodd" fill-opacity="1" /><path clip-path="url(#clip420)" d="M 0 0 M522.378 1541.24 L527.263 1541.24 L527.263 1547.12 L522.378 1547.12 L522.378 1541.24 Z" fill="#000000" fill-rule="evenodd" fill-opacity="1" /><path clip-path="url(#clip420)" d="M 0 0 M542.332 1515.64 Q538.721 1515.64 536.892 1519.2 Q535.087 1522.75 535.087 1529.87 Q535.087 1536.98 536.892 1540.55 Q538.721 1544.09 542.332 1544.09 Q545.966 1544.09 547.772 1540.55 Q549.6 1536.98 549.6 1529.87 Q549.6 1522.75 547.772 1519.2 Q545.966 1515.64 542.332 1515.64 M542.332 1511.93 Q548.142 1511.93 551.198 1516.54 Q554.276 1521.12 554.276 1529.87 Q554.276 1538.6 551.198 1543.21 Q548.142 1547.79 542.332 1547.79 Q536.522 1547.79 533.443 1543.21 Q530.388 1538.6 530.388 1529.87 Q530.388 1521.12 533.443 1516.54 Q536.522 1511.93 542.332 1511.93 Z" fill="#000000" fill-rule="evenodd" fill-opacity="1" /><path clip-path="url(#clip420)" d="M 0 0 M865.704 1543.18 L873.343 1543.18 L873.343 1516.82 L865.032 1518.49 L865.032 1514.23 L873.296 1512.56 L877.972 1512.56 L877.972 1543.18 L885.611 1543.18 L885.611 1547.12 L865.704 1547.12 L865.704 1543.18 Z" fill="#000000" fill-rule="evenodd" fill-opacity="1" /><path clip-path="url(#clip420)" d="M 0 0 M890.68 1541.24 L895.565 1541.24 L895.565 1547.12 L890.68 1547.12 L890.68 1541.24 Z" fill="#000000" fill-rule="evenodd" fill-opacity="1" /><path clip-path="url(#clip420)" d="M 0 0 M900.68 1512.56 L919.037 1512.56 L919.037 1516.5 L904.963 1516.5 L904.963 1524.97 Q905.981 1524.62 907 1524.46 Q908.018 1524.27 909.037 1524.27 Q914.824 1524.27 918.203 1527.44 Q921.583 1530.62 921.583 1536.03 Q921.583 1541.61 918.111 1544.71 Q914.639 1547.79 908.319 1547.79 Q906.143 1547.79 903.875 1547.42 Q901.629 1547.05 899.222 1546.31 L899.222 1541.61 Q901.305 1542.74 903.528 1543.3 Q905.75 1543.86 908.227 1543.86 Q912.231 1543.86 914.569 1541.75 Q916.907 1539.64 916.907 1536.03 Q916.907 1532.42 914.569 1530.31 Q912.231 1528.21 908.227 1528.21 Q906.352 1528.21 904.477 1528.62 Q902.625 1529.04 900.68 1529.92 L900.68 1512.56 Z" fill="#000000" fill-rule="evenodd" fill-opacity="1" /><path clip-path="url(#clip420)" d="M 0 0 M1237.28 1543.18 L1253.6 1543.18 L1253.6 1547.12 L1231.66 1547.12 L1231.66 1543.18 Q1234.32 1540.43 1238.9 1535.8 Q1243.51 1531.15 1244.69 1529.81 Q1246.93 1527.28 1247.81 1525.55 Q1248.72 1523.79 1248.72 1522.1 Q1248.72 1519.34 1246.77 1517.61 Q1244.85 1515.87 1241.75 1515.87 Q1239.55 1515.87 1237.1 1516.63 Q1234.67 1517.4 1231.89 1518.95 L1231.89 1514.23 Q1234.71 1513.09 1237.17 1512.51 Q1239.62 1511.93 1241.66 1511.93 Q1247.03 1511.93 1250.22 1514.62 Q1253.42 1517.31 1253.42 1521.8 Q1253.42 1523.93 1252.61 1525.85 Q1251.82 1527.74 1249.71 1530.34 Q1249.13 1531.01 1246.03 1534.23 Q1242.93 1537.42 1237.28 1543.18 Z" fill="#000000" fill-rule="evenodd" fill-opacity="1" /><path clip-path="url(#clip420)" d="M 0 0 M1258.67 1541.24 L1263.55 1541.24 L1263.55 1547.12 L1258.67 1547.12 L1258.67 1541.24 Z" fill="#000000" fill-rule="evenodd" fill-opacity="1" /><path clip-path="url(#clip420)" d="M 0 0 M1278.62 1515.64 Q1275.01 1515.64 1273.18 1519.2 Q1271.38 1522.75 1271.38 1529.87 Q1271.38 1536.98 1273.18 1540.55 Q1275.01 1544.09 1278.62 1544.09 Q1282.26 1544.09 1284.06 1540.55 Q1285.89 1536.98 1285.89 1529.87 Q1285.89 1522.75 1284.06 1519.2 Q1282.26 1515.64 1278.62 1515.64 M1278.62 1511.93 Q1284.43 1511.93 1287.49 1516.54 Q1290.57 1521.12 1290.57 1529.87 Q1290.57 1538.6 1287.49 1543.21 Q1284.43 1547.79 1278.62 1547.79 Q1272.81 1547.79 1269.73 1543.21 Q1266.68 1538.6 1266.68 1529.87 Q1266.68 1521.12 1269.73 1516.54 Q1272.81 1511.93 1278.62 1511.93 Z" fill="#000000" fill-rule="evenodd" fill-opacity="1" /><path clip-path="url(#clip420)" d="M 0 0 M1605.58 1543.18 L1621.9 1543.18 L1621.9 1547.12 L1599.96 1547.12 L1599.96 1543.18 Q1602.62 1540.43 1607.2 1535.8 Q1611.81 1531.15 1612.99 1529.81 Q1615.24 1527.28 1616.12 1525.55 Q1617.02 1523.79 1617.02 1522.1 Q1617.02 1519.34 1615.07 1517.61 Q1613.15 1515.87 1610.05 1515.87 Q1607.85 1515.87 1605.4 1516.63 Q1602.97 1517.4 1600.19 1518.95 L1600.19 1514.23 Q1603.01 1513.09 1605.47 1512.51 Q1607.92 1511.93 1609.96 1511.93 Q1615.33 1511.93 1618.52 1514.62 Q1621.72 1517.31 1621.72 1521.8 Q1621.72 1523.93 1620.91 1525.85 Q1620.12 1527.74 1618.01 1530.34 Q1617.44 1531.01 1614.33 1534.23 Q1611.23 1537.42 1605.58 1543.18 Z" fill="#000000" fill-rule="evenodd" fill-opacity="1" /><path clip-path="url(#clip420)" d="M 0 0 M1626.97 1541.24 L1631.86 1541.24 L1631.86 1547.12 L1626.97 1547.12 L1626.97 1541.24 Z" fill="#000000" fill-rule="evenodd" fill-opacity="1" /><path clip-path="url(#clip420)" d="M 0 0 M1636.97 1512.56 L1655.33 1512.56 L1655.33 1516.5 L1641.25 1516.5 L1641.25 1524.97 Q1642.27 1524.62 1643.29 1524.46 Q1644.31 1524.27 1645.33 1524.27 Q1651.12 1524.27 1654.5 1527.44 Q1657.87 1530.62 1657.87 1536.03 Q1657.87 1541.61 1654.4 1544.71 Q1650.93 1547.79 1644.61 1547.79 Q1642.44 1547.79 1640.17 1547.42 Q1637.92 1547.05 1635.51 1546.31 L1635.51 1541.61 Q1637.6 1542.74 1639.82 1543.3 Q1642.04 1543.86 1644.52 1543.86 Q1648.52 1543.86 1650.86 1541.75 Q1653.2 1539.64 1653.2 1536.03 Q1653.2 1532.42 1650.86 1530.31 Q1648.52 1528.21 1644.52 1528.21 Q1642.64 1528.21 1640.77 1528.62 Q1638.92 1529.04 1636.97 1529.92 L1636.97 1512.56 Z" fill="#000000" fill-rule="evenodd" fill-opacity="1" /><path clip-path="url(#clip420)" d="M 0 0 M1982.49 1528.49 Q1985.84 1529.2 1987.72 1531.47 Q1989.61 1533.74 1989.61 1537.07 Q1989.61 1542.19 1986.1 1544.99 Q1982.58 1547.79 1976.1 1547.79 Q1973.92 1547.79 1971.61 1547.35 Q1969.31 1546.93 1966.86 1546.08 L1966.86 1541.56 Q1968.8 1542.7 1971.12 1543.28 Q1973.43 1543.86 1975.96 1543.86 Q1980.36 1543.86 1982.65 1542.12 Q1984.96 1540.38 1984.96 1537.07 Q1984.96 1534.02 1982.81 1532.31 Q1980.68 1530.57 1976.86 1530.57 L1972.83 1530.57 L1972.83 1526.73 L1977.05 1526.73 Q1980.49 1526.73 1982.32 1525.36 Q1984.15 1523.97 1984.15 1521.38 Q1984.15 1518.72 1982.25 1517.31 Q1980.38 1515.87 1976.86 1515.87 Q1974.94 1515.87 1972.74 1516.29 Q1970.54 1516.7 1967.9 1517.58 L1967.9 1513.42 Q1970.56 1512.68 1972.88 1512.31 Q1975.22 1511.93 1977.28 1511.93 Q1982.6 1511.93 1985.7 1514.37 Q1988.8 1516.77 1988.8 1520.89 Q1988.8 1523.76 1987.16 1525.75 Q1985.52 1527.72 1982.49 1528.49 Z" fill="#000000" fill-rule="evenodd" fill-opacity="1" /><path clip-path="url(#clip420)" d="M 0 0 M1994.68 1541.24 L1999.57 1541.24 L1999.57 1547.12 L1994.68 1547.12 L1994.68 1541.24 Z" fill="#000000" fill-rule="evenodd" fill-opacity="1" /><path clip-path="url(#clip420)" d="M 0 0 M2014.64 1515.64 Q2011.03 1515.64 2009.2 1519.2 Q2007.39 1522.75 2007.39 1529.87 Q2007.39 1536.98 2009.2 1540.55 Q2011.03 1544.09 2014.64 1544.09 Q2018.27 1544.09 2020.08 1540.55 Q2021.91 1536.98 2021.91 1529.87 Q2021.91 1522.75 2020.08 1519.2 Q2018.27 1515.64 2014.64 1515.64 M2014.64 1511.93 Q2020.45 1511.93 2023.5 1516.54 Q2026.58 1521.12 2026.58 1529.87 Q2026.58 1538.6 2023.5 1543.21 Q2020.45 1547.79 2014.64 1547.79 Q2008.83 1547.79 2005.75 1543.21 Q2002.69 1538.6 2002.69 1529.87 Q2002.69 1521.12 2005.75 1516.54 Q2008.83 1511.93 2014.64 1511.93 Z" fill="#000000" fill-rule="evenodd" fill-opacity="1" /><polyline clip-path="url(#clip422)" style="stroke:#000000; stroke-width:2; stroke-opacity:0.1; fill:none" points="
  169.469,1264.79 2352.76,1264.79 
  "/>
<polyline clip-path="url(#clip422)" style="stroke:#000000; stroke-width:2; stroke-opacity:0.1; fill:none" points="
  169.469,1015.14 2352.76,1015.14 
  "/>
<polyline clip-path="url(#clip422)" style="stroke:#000000; stroke-width:2; stroke-opacity:0.1; fill:none" points="
  169.469,765.497 2352.76,765.497 
  "/>
<polyline clip-path="url(#clip422)" style="stroke:#000000; stroke-width:2; stroke-opacity:0.1; fill:none" points="
  169.469,515.85 2352.76,515.85 
  "/>
<polyline clip-path="url(#clip422)" style="stroke:#000000; stroke-width:2; stroke-opacity:0.1; fill:none" points="
  169.469,266.204 2352.76,266.204 
  "/>
<polyline clip-path="url(#clip420)" style="stroke:#000000; stroke-width:4; stroke-opacity:1; fill:none" points="
  169.469,1486.45 169.469,47.2441 
  "/>
<polyline clip-path="url(#clip420)" style="stroke:#000000; stroke-width:4; stroke-opacity:1; fill:none" points="
  169.469,1264.79 195.668,1264.79 
  "/>
<polyline clip-path="url(#clip420)" style="stroke:#000000; stroke-width:4; stroke-opacity:1; fill:none" points="
  169.469,1015.14 195.668,1015.14 
  "/>
<polyline clip-path="url(#clip420)" style="stroke:#000000; stroke-width:4; stroke-opacity:1; fill:none" points="
  169.469,765.497 195.668,765.497 
  "/>
<polyline clip-path="url(#clip420)" style="stroke:#000000; stroke-width:4; stroke-opacity:1; fill:none" points="
  169.469,515.85 195.668,515.85 
  "/>
<polyline clip-path="url(#clip420)" style="stroke:#000000; stroke-width:4; stroke-opacity:1; fill:none" points="
  169.469,266.204 195.668,266.204 
  "/>
<path clip-path="url(#clip420)" d="M 0 0 M50.9921 1265.24 L80.6679 1265.24 L80.6679 1269.18 L50.9921 1269.18 L50.9921 1265.24 Z" fill="#000000" fill-rule="evenodd" fill-opacity="1" /><path clip-path="url(#clip420)" d="M 0 0 M86.5475 1278.13 L94.1863 1278.13 L94.1863 1251.77 L85.8762 1253.44 L85.8762 1249.18 L94.14 1247.51 L98.8159 1247.51 L98.8159 1278.13 L106.455 1278.13 L106.455 1282.07 L86.5475 1282.07 L86.5475 1278.13 Z" fill="#000000" fill-rule="evenodd" fill-opacity="1" /><path clip-path="url(#clip420)" d="M 0 0 M121.524 1250.59 Q117.913 1250.59 116.084 1254.15 Q114.279 1257.69 114.279 1264.82 Q114.279 1271.93 116.084 1275.5 Q117.913 1279.04 121.524 1279.04 Q125.158 1279.04 126.964 1275.5 Q128.793 1271.93 128.793 1264.82 Q128.793 1257.69 126.964 1254.15 Q125.158 1250.59 121.524 1250.59 M121.524 1246.88 Q127.334 1246.88 130.39 1251.49 Q133.469 1256.07 133.469 1264.82 Q133.469 1273.55 130.39 1278.16 Q127.334 1282.74 121.524 1282.74 Q115.714 1282.74 112.635 1278.16 Q109.58 1273.55 109.58 1264.82 Q109.58 1256.07 112.635 1251.49 Q115.714 1246.88 121.524 1246.88 Z" fill="#000000" fill-rule="evenodd" fill-opacity="1" /><path clip-path="url(#clip420)" d="M 0 0 M77.7744 1015.59 L107.45 1015.59 L107.45 1019.53 L77.7744 1019.53 L77.7744 1015.59 Z" fill="#000000" fill-rule="evenodd" fill-opacity="1" /><path clip-path="url(#clip420)" d="M 0 0 M112.566 997.863 L130.922 997.863 L130.922 1001.8 L116.848 1001.8 L116.848 1010.27 Q117.867 1009.92 118.885 1009.76 Q119.904 1009.58 120.922 1009.58 Q126.709 1009.58 130.089 1012.75 Q133.469 1015.92 133.469 1021.34 Q133.469 1026.91 129.996 1030.02 Q126.524 1033.09 120.205 1033.09 Q118.029 1033.09 115.76 1032.72 Q113.515 1032.35 111.108 1031.61 L111.108 1026.91 Q113.191 1028.05 115.413 1028.6 Q117.635 1029.16 120.112 1029.16 Q124.117 1029.16 126.455 1027.05 Q128.793 1024.95 128.793 1021.34 Q128.793 1017.72 126.455 1015.62 Q124.117 1013.51 120.112 1013.51 Q118.237 1013.51 116.362 1013.93 Q114.51 1014.34 112.566 1015.22 L112.566 997.863 Z" fill="#000000" fill-rule="evenodd" fill-opacity="1" /><path clip-path="url(#clip420)" d="M 0 0 M121.524 751.295 Q117.913 751.295 116.084 754.86 Q114.279 758.402 114.279 765.531 Q114.279 772.638 116.084 776.203 Q117.913 779.744 121.524 779.744 Q125.158 779.744 126.964 776.203 Q128.793 772.638 128.793 765.531 Q128.793 758.402 126.964 754.86 Q125.158 751.295 121.524 751.295 M121.524 747.592 Q127.334 747.592 130.39 752.198 Q133.469 756.781 133.469 765.531 Q133.469 774.258 130.39 778.865 Q127.334 783.448 121.524 783.448 Q115.714 783.448 112.635 778.865 Q109.58 774.258 109.58 765.531 Q109.58 756.781 112.635 752.198 Q115.714 747.592 121.524 747.592 Z" fill="#000000" fill-rule="evenodd" fill-opacity="1" /><path clip-path="url(#clip420)" d="M 0 0 M112.566 498.57 L130.922 498.57 L130.922 502.505 L116.848 502.505 L116.848 510.978 Q117.867 510.63 118.885 510.468 Q119.904 510.283 120.922 510.283 Q126.709 510.283 130.089 513.454 Q133.469 516.626 133.469 522.042 Q133.469 527.621 129.996 530.723 Q126.524 533.801 120.205 533.801 Q118.029 533.801 115.76 533.431 Q113.515 533.061 111.108 532.32 L111.108 527.621 Q113.191 528.755 115.413 529.311 Q117.635 529.866 120.112 529.866 Q124.117 529.866 126.455 527.76 Q128.793 525.653 128.793 522.042 Q128.793 518.431 126.455 516.325 Q124.117 514.218 120.112 514.218 Q118.237 514.218 116.362 514.635 Q114.51 515.052 112.566 515.931 L112.566 498.57 Z" fill="#000000" fill-rule="evenodd" fill-opacity="1" /><path clip-path="url(#clip420)" d="M 0 0 M86.5475 279.549 L94.1863 279.549 L94.1863 253.183 L85.8762 254.85 L85.8762 250.59 L94.14 248.924 L98.8159 248.924 L98.8159 279.549 L106.455 279.549 L106.455 283.484 L86.5475 283.484 L86.5475 279.549 Z" fill="#000000" fill-rule="evenodd" fill-opacity="1" /><path clip-path="url(#clip420)" d="M 0 0 M121.524 252.002 Q117.913 252.002 116.084 255.567 Q114.279 259.109 114.279 266.238 Q114.279 273.345 116.084 276.91 Q117.913 280.451 121.524 280.451 Q125.158 280.451 126.964 276.91 Q128.793 273.345 128.793 266.238 Q128.793 259.109 126.964 255.567 Q125.158 252.002 121.524 252.002 M121.524 248.299 Q127.334 248.299 130.39 252.905 Q133.469 257.488 133.469 266.238 Q133.469 274.965 130.39 279.572 Q127.334 284.155 121.524 284.155 Q115.714 284.155 112.635 279.572 Q109.58 274.965 109.58 266.238 Q109.58 257.488 112.635 252.905 Q115.714 248.299 121.524 248.299 Z" fill="#000000" fill-rule="evenodd" fill-opacity="1" /><path clip-path="url(#clip422)" d="
M525.503 893.789 L378.381 893.789 L672.625 893.789 L525.503 893.789 L525.503 801.304 L525.503 893.789  Z
  " fill="#a6cee2" fill-rule="evenodd" fill-opacity="1"/>
<polyline clip-path="url(#clip422)" style="stroke:#000000; stroke-width:4; stroke-opacity:1; fill:none" points="
  525.503,893.789 378.381,893.789 672.625,893.789 525.503,893.789 525.503,801.304 525.503,893.789 
  "/>
<path clip-path="url(#clip422)" d="
M819.747 801.304 L819.747 766.777 L231.26 766.777 L231.26 801.304 L819.747 801.304 L819.747 766.777 L819.747 801.304  Z
  " fill="#a6cee2" fill-rule="evenodd" fill-opacity="1"/>
<polyline clip-path="url(#clip422)" style="stroke:#000000; stroke-width:4; stroke-opacity:1; fill:none" points="
  819.747,801.304 819.747,766.777 231.26,766.777 231.26,801.304 819.747,801.304 819.747,766.777 819.747,801.304 
  "/>
<path clip-path="url(#clip422)" d="
M819.747 735.447 L231.26 735.447 L231.26 766.777 L819.747 766.777 L819.747 735.447 L525.503 735.447 L819.747 735.447  Z
  " fill="#a6cee2" fill-rule="evenodd" fill-opacity="1"/>
<polyline clip-path="url(#clip422)" style="stroke:#000000; stroke-width:4; stroke-opacity:1; fill:none" points="
  819.747,735.447 231.26,735.447 231.26,766.777 819.747,766.777 819.747,735.447 525.503,735.447 819.747,735.447 
  "/>
<path clip-path="url(#clip422)" d="
M525.503 648.13 L378.381 648.13 L672.625 648.13 L525.503 648.13 L525.503 735.447 L525.503 648.13  Z
  " fill="#a6cee2" fill-rule="evenodd" fill-opacity="1"/>
<polyline clip-path="url(#clip422)" style="stroke:#000000; stroke-width:4; stroke-opacity:1; fill:none" points="
  525.503,648.13 378.381,648.13 672.625,648.13 525.503,648.13 525.503,735.447 525.503,648.13 
  "/>
<circle clip-path="url(#clip422)" cx="525.503" cy="937.63" r="14" fill="#a6cee2" fill-rule="evenodd" fill-opacity="1" stroke="#000000" stroke-opacity="1" stroke-width="3.2"/>
<circle clip-path="url(#clip422)" cx="525.503" cy="907.42" r="14" fill="#a6cee2" fill-rule="evenodd" fill-opacity="1" stroke="#000000" stroke-opacity="1" stroke-width="3.2"/>
<circle clip-path="url(#clip422)" cx="525.503" cy="934.479" r="14" fill="#a6cee2" fill-rule="evenodd" fill-opacity="1" stroke="#000000" stroke-opacity="1" stroke-width="3.2"/>
<circle clip-path="url(#clip422)" cx="525.503" cy="630.956" r="14" fill="#a6cee2" fill-rule="evenodd" fill-opacity="1" stroke="#000000" stroke-opacity="1" stroke-width="3.2"/>
<polyline clip-path="url(#clip422)" style="stroke:#a6cee2; stroke-width:0; stroke-opacity:1; fill:none" points="
  525.503,893.789 378.381,893.789 672.625,893.789 525.503,893.789 525.503,801.304 
  "/>
<polyline clip-path="url(#clip422)" style="stroke:#a6cee2; stroke-width:0; stroke-opacity:1; fill:none" points="
  819.747,801.304 819.747,766.777 231.26,766.777 231.26,801.304 819.747,801.304 819.747,766.777 
  "/>
<polyline clip-path="url(#clip422)" style="stroke:#a6cee2; stroke-width:0; stroke-opacity:1; fill:none" points="
  819.747,735.447 231.26,735.447 231.26,766.777 819.747,766.777 819.747,735.447 525.503,735.447 
  "/>
<polyline clip-path="url(#clip422)" style="stroke:#a6cee2; stroke-width:0; stroke-opacity:1; fill:none" points="
  525.503,648.13 378.381,648.13 672.625,648.13 525.503,648.13 525.503,735.447 
  "/>
<path clip-path="url(#clip422)" d="
M1261.11 1431.02 L1113.99 1431.02 L1408.23 1431.02 L1261.11 1431.02 L1261.11 934.4 L1261.11 1431.02  Z
  " fill="#1f78b4" fill-rule="evenodd" fill-opacity="1"/>
<polyline clip-path="url(#clip422)" style="stroke:#000000; stroke-width:4; stroke-opacity:1; fill:none" points="
  1261.11,1431.02 1113.99,1431.02 1408.23,1431.02 1261.11,1431.02 1261.11,934.4 1261.11,1431.02 
  "/>
<path clip-path="url(#clip422)" d="
M1555.36 934.4 L1555.36 770.898 L966.869 770.898 L966.869 934.4 L1555.36 934.4 L1555.36 770.898 L1555.36 934.4  Z
  " fill="#1f78b4" fill-rule="evenodd" fill-opacity="1"/>
<polyline clip-path="url(#clip422)" style="stroke:#000000; stroke-width:4; stroke-opacity:1; fill:none" points="
  1555.36,934.4 1555.36,770.898 966.869,770.898 966.869,934.4 1555.36,934.4 1555.36,770.898 1555.36,934.4 
  "/>
<path clip-path="url(#clip422)" d="
M1555.36 597.94 L966.869 597.94 L966.869 770.898 L1555.36 770.898 L1555.36 597.94 L1261.11 597.94 L1555.36 597.94  Z
  " fill="#1f78b4" fill-rule="evenodd" fill-opacity="1"/>
<polyline clip-path="url(#clip422)" style="stroke:#000000; stroke-width:4; stroke-opacity:1; fill:none" points="
  1555.36,597.94 966.869,597.94 966.869,770.898 1555.36,770.898 1555.36,597.94 1261.11,597.94 1555.36,597.94 
  "/>
<path clip-path="url(#clip422)" d="
M1261.11 115.412 L1113.99 115.412 L1408.23 115.412 L1261.11 115.412 L1261.11 597.94 L1261.11 115.412  Z
  " fill="#1f78b4" fill-rule="evenodd" fill-opacity="1"/>
<polyline clip-path="url(#clip422)" style="stroke:#000000; stroke-width:4; stroke-opacity:1; fill:none" points="
  1261.11,115.412 1113.99,115.412 1408.23,115.412 1261.11,115.412 1261.11,597.94 1261.11,115.412 
  "/>
<circle clip-path="url(#clip422)" cx="1261.11" cy="1445.72" r="14" fill="#1f78b4" fill-rule="evenodd" fill-opacity="1" stroke="#000000" stroke-opacity="1" stroke-width="3.2"/>
<circle clip-path="url(#clip422)" cx="1261.11" cy="87.9763" r="14" fill="#1f78b4" fill-rule="evenodd" fill-opacity="1" stroke="#000000" stroke-opacity="1" stroke-width="3.2"/>
<polyline clip-path="url(#clip422)" style="stroke:#1f78b4; stroke-width:0; stroke-opacity:1; fill:none" points="
  1261.11,1431.02 1113.99,1431.02 1408.23,1431.02 1261.11,1431.02 1261.11,934.4 
  "/>
<polyline clip-path="url(#clip422)" style="stroke:#1f78b4; stroke-width:0; stroke-opacity:1; fill:none" points="
  1555.36,934.4 1555.36,770.898 966.869,770.898 966.869,934.4 1555.36,934.4 1555.36,770.898 
  "/>
<polyline clip-path="url(#clip422)" style="stroke:#1f78b4; stroke-width:0; stroke-opacity:1; fill:none" points="
  1555.36,597.94 966.869,597.94 966.869,770.898 1555.36,770.898 1555.36,597.94 1261.11,597.94 
  "/>
<polyline clip-path="url(#clip422)" style="stroke:#1f78b4; stroke-width:0; stroke-opacity:1; fill:none" points="
  1261.11,115.412 1113.99,115.412 1408.23,115.412 1261.11,115.412 1261.11,597.94 
  "/>
<path clip-path="url(#clip422)" d="
M1996.72 1178.65 L1849.6 1178.65 L2143.84 1178.65 L1996.72 1178.65 L1996.72 875.043 L1996.72 1178.65  Z
  " fill="#b1df89" fill-rule="evenodd" fill-opacity="1"/>
<polyline clip-path="url(#clip422)" style="stroke:#000000; stroke-width:4; stroke-opacity:1; fill:none" points="
  1996.72,1178.65 1849.6,1178.65 2143.84,1178.65 1996.72,1178.65 1996.72,875.043 1996.72,1178.65 
  "/>
<path clip-path="url(#clip422)" d="
M2290.96 875.043 L2290.96 771.387 L1702.48 771.387 L1702.48 875.043 L2290.96 875.043 L2290.96 771.387 L2290.96 875.043  Z
  " fill="#b1df89" fill-rule="evenodd" fill-opacity="1"/>
<polyline clip-path="url(#clip422)" style="stroke:#000000; stroke-width:4; stroke-opacity:1; fill:none" points="
  2290.96,875.043 2290.96,771.387 1702.48,771.387 1702.48,875.043 2290.96,875.043 2290.96,771.387 2290.96,875.043 
  "/>
<path clip-path="url(#clip422)" d="
M2290.96 667.956 L1702.48 667.956 L1702.48 771.387 L2290.96 771.387 L2290.96 667.956 L1996.72 667.956 L2290.96 667.956  Z
  " fill="#b1df89" fill-rule="evenodd" fill-opacity="1"/>
<polyline clip-path="url(#clip422)" style="stroke:#000000; stroke-width:4; stroke-opacity:1; fill:none" points="
  2290.96,667.956 1702.48,667.956 1702.48,771.387 2290.96,771.387 2290.96,667.956 1996.72,667.956 2290.96,667.956 
  "/>
<path clip-path="url(#clip422)" d="
M1996.72 376.023 L1849.6 376.023 L2143.84 376.023 L1996.72 376.023 L1996.72 667.956 L1996.72 376.023  Z
  " fill="#b1df89" fill-rule="evenodd" fill-opacity="1"/>
<polyline clip-path="url(#clip422)" style="stroke:#000000; stroke-width:4; stroke-opacity:1; fill:none" points="
  1996.72,376.023 1849.6,376.023 2143.84,376.023 1996.72,376.023 1996.72,667.956 1996.72,376.023 
  "/>
<circle clip-path="url(#clip422)" cx="1996.72" cy="311.486" r="14" fill="#b1df89" fill-rule="evenodd" fill-opacity="1" stroke="#000000" stroke-opacity="1" stroke-width="3.2"/>
<circle clip-path="url(#clip422)" cx="1996.72" cy="325.171" r="14" fill="#b1df89" fill-rule="evenodd" fill-opacity="1" stroke="#000000" stroke-opacity="1" stroke-width="3.2"/>
<circle clip-path="url(#clip422)" cx="1996.72" cy="1237.76" r="14" fill="#b1df89" fill-rule="evenodd" fill-opacity="1" stroke="#000000" stroke-opacity="1" stroke-width="3.2"/>
<circle clip-path="url(#clip422)" cx="1996.72" cy="1269.73" r="14" fill="#b1df89" fill-rule="evenodd" fill-opacity="1" stroke="#000000" stroke-opacity="1" stroke-width="3.2"/>
<circle clip-path="url(#clip422)" cx="1996.72" cy="1189.4" r="14" fill="#b1df89" fill-rule="evenodd" fill-opacity="1" stroke="#000000" stroke-opacity="1" stroke-width="3.2"/>
<circle clip-path="url(#clip422)" cx="1996.72" cy="1256" r="14" fill="#b1df89" fill-rule="evenodd" fill-opacity="1" stroke="#000000" stroke-opacity="1" stroke-width="3.2"/>
<circle clip-path="url(#clip422)" cx="1996.72" cy="332.219" r="14" fill="#b1df89" fill-rule="evenodd" fill-opacity="1" stroke="#000000" stroke-opacity="1" stroke-width="3.2"/>
<circle clip-path="url(#clip422)" cx="1996.72" cy="1205.71" r="14" fill="#b1df89" fill-rule="evenodd" fill-opacity="1" stroke="#000000" stroke-opacity="1" stroke-width="3.2"/>
<polyline clip-path="url(#clip422)" style="stroke:#b1df89; stroke-width:0; stroke-opacity:1; fill:none" points="
  1996.72,1178.65 1849.6,1178.65 2143.84,1178.65 1996.72,1178.65 1996.72,875.043 
  "/>
<polyline clip-path="url(#clip422)" style="stroke:#b1df89; stroke-width:0; stroke-opacity:1; fill:none" points="
  2290.96,875.043 2290.96,771.387 1702.48,771.387 1702.48,875.043 2290.96,875.043 2290.96,771.387 
  "/>
<polyline clip-path="url(#clip422)" style="stroke:#b1df89; stroke-width:0; stroke-opacity:1; fill:none" points="
  2290.96,667.956 1702.48,667.956 1702.48,771.387 2290.96,771.387 2290.96,667.956 1996.72,667.956 
  "/>
<polyline clip-path="url(#clip422)" style="stroke:#b1df89; stroke-width:0; stroke-opacity:1; fill:none" points="
  1996.72,376.023 1849.6,376.023 2143.84,376.023 1996.72,376.023 1996.72,667.956 
  "/>
<path clip-path="url(#clip420)" d="
M1985.8 337.138 L2279.98 337.138 L2279.98 95.2176 L1985.8 95.2176  Z
  " fill="#ffffff" fill-rule="evenodd" fill-opacity="1"/>
<polyline clip-path="url(#clip420)" style="stroke:#000000; stroke-width:4; stroke-opacity:1; fill:none" points="
  1985.8,337.138 2279.98,337.138 2279.98,95.2176 1985.8,95.2176 1985.8,337.138 
  "/>
<path clip-path="url(#clip420)" d="
M2010.05 179.89 L2155.61 179.89 L2155.61 131.506 L2010.05 131.506 L2010.05 179.89  Z
  " fill="#a6cee2" fill-rule="evenodd" fill-opacity="1"/>
<polyline clip-path="url(#clip420)" style="stroke:#000000; stroke-width:4; stroke-opacity:1; fill:none" points="
  2010.05,179.89 2155.61,179.89 2155.61,131.506 2010.05,131.506 2010.05,179.89 
  "/>
<path clip-path="url(#clip420)" d="M 0 0 M2193.71 175.385 Q2191.9 180.015 2190.19 181.427 Q2188.48 182.839 2185.61 182.839 L2182.2 182.839 L2182.2 179.274 L2184.7 179.274 Q2186.46 179.274 2187.43 178.44 Q2188.41 177.607 2189.59 174.505 L2190.35 172.561 L2179.87 147.052 L2184.38 147.052 L2192.48 167.329 L2200.58 147.052 L2205.1 147.052 L2193.71 175.385 Z" fill="#000000" fill-rule="evenodd" fill-opacity="1" /><path clip-path="url(#clip420)" d="M 0 0 M2210.98 169.042 L2218.62 169.042 L2218.62 142.677 L2210.3 144.343 L2210.3 140.084 L2218.57 138.418 L2223.24 138.418 L2223.24 169.042 L2230.88 169.042 L2230.88 172.978 L2210.98 172.978 L2210.98 169.042 Z" fill="#000000" fill-rule="evenodd" fill-opacity="1" /><path clip-path="url(#clip420)" d="
M2010.05 240.37 L2155.61 240.37 L2155.61 191.986 L2010.05 191.986 L2010.05 240.37  Z
  " fill="#1f78b4" fill-rule="evenodd" fill-opacity="1"/>
<polyline clip-path="url(#clip420)" style="stroke:#000000; stroke-width:4; stroke-opacity:1; fill:none" points="
  2010.05,240.37 2155.61,240.37 2155.61,191.986 2010.05,191.986 2010.05,240.37 
  "/>
<path clip-path="url(#clip420)" d="M 0 0 M2193.71 235.865 Q2191.9 240.495 2190.19 241.907 Q2188.48 243.319 2185.61 243.319 L2182.2 243.319 L2182.2 239.754 L2184.7 239.754 Q2186.46 239.754 2187.43 238.92 Q2188.41 238.087 2189.59 234.985 L2190.35 233.041 L2179.87 207.532 L2184.38 207.532 L2192.48 227.809 L2200.58 207.532 L2205.1 207.532 L2193.71 235.865 Z" fill="#000000" fill-rule="evenodd" fill-opacity="1" /><path clip-path="url(#clip420)" d="M 0 0 M2214.19 229.522 L2230.51 229.522 L2230.51 233.458 L2208.57 233.458 L2208.57 229.522 Q2211.23 226.768 2215.81 222.138 Q2220.42 217.485 2221.6 216.143 Q2223.85 213.62 2224.73 211.884 Q2225.63 210.124 2225.63 208.435 Q2225.63 205.68 2223.68 203.944 Q2221.76 202.208 2218.66 202.208 Q2216.46 202.208 2214.01 202.972 Q2211.58 203.735 2208.8 205.286 L2208.8 200.564 Q2211.62 199.43 2214.08 198.851 Q2216.53 198.273 2218.57 198.273 Q2223.94 198.273 2227.13 200.958 Q2230.33 203.643 2230.33 208.134 Q2230.33 210.263 2229.52 212.185 Q2228.73 214.083 2226.62 216.675 Q2226.05 217.347 2222.94 220.564 Q2219.84 223.759 2214.19 229.522 Z" fill="#000000" fill-rule="evenodd" fill-opacity="1" /><path clip-path="url(#clip420)" d="
M2010.05 300.85 L2155.61 300.85 L2155.61 252.466 L2010.05 252.466 L2010.05 300.85  Z
  " fill="#b1df89" fill-rule="evenodd" fill-opacity="1"/>
<polyline clip-path="url(#clip420)" style="stroke:#000000; stroke-width:4; stroke-opacity:1; fill:none" points="
  2010.05,300.85 2155.61,300.85 2155.61,252.466 2010.05,252.466 2010.05,300.85 
  "/>
<path clip-path="url(#clip420)" d="M 0 0 M2193.71 296.345 Q2191.9 300.975 2190.19 302.387 Q2188.48 303.799 2185.61 303.799 L2182.2 303.799 L2182.2 300.234 L2184.7 300.234 Q2186.46 300.234 2187.43 299.4 Q2188.41 298.567 2189.59 295.465 L2190.35 293.521 L2179.87 268.012 L2184.38 268.012 L2192.48 288.289 L2200.58 268.012 L2205.1 268.012 L2193.71 296.345 Z" fill="#000000" fill-rule="evenodd" fill-opacity="1" /><path clip-path="url(#clip420)" d="M 0 0 M2224.33 275.303 Q2227.69 276.021 2229.56 278.289 Q2231.46 280.558 2231.46 283.891 Q2231.46 289.007 2227.94 291.808 Q2224.43 294.609 2217.94 294.609 Q2215.77 294.609 2213.45 294.169 Q2211.16 293.752 2208.71 292.896 L2208.71 288.382 Q2210.65 289.516 2212.97 290.095 Q2215.28 290.674 2217.8 290.674 Q2222.2 290.674 2224.49 288.938 Q2226.81 287.201 2226.81 283.891 Q2226.81 280.836 2224.66 279.123 Q2222.53 277.387 2218.71 277.387 L2214.68 277.387 L2214.68 273.544 L2218.89 273.544 Q2222.34 273.544 2224.17 272.178 Q2226 270.79 2226 268.197 Q2226 265.535 2224.1 264.123 Q2222.23 262.688 2218.71 262.688 Q2216.79 262.688 2214.59 263.104 Q2212.39 263.521 2209.75 264.401 L2209.75 260.234 Q2212.41 259.493 2214.73 259.123 Q2217.06 258.753 2219.12 258.753 Q2224.45 258.753 2227.55 261.183 Q2230.65 263.59 2230.65 267.711 Q2230.65 270.581 2229.01 272.572 Q2227.36 274.54 2224.33 275.303 Z" fill="#000000" fill-rule="evenodd" fill-opacity="1" /></svg>
