<?xml version="1.0" encoding="utf-8"?>
<svg xmlns="http://www.w3.org/2000/svg" xmlns:xlink="http://www.w3.org/1999/xlink" width="600" height="400" viewBox="0 0 2400 1600">
<defs>
  <clipPath id="clip290">
    <rect x="0" y="0" width="2400" height="1600"/>
  </clipPath>
</defs>
<path clip-path="url(#clip290)" d="
M0 1600 L2400 1600 L2400 0 L0 0  Z
  " fill="#ffffff" fill-rule="evenodd" fill-opacity="1"/>
<defs>
  <clipPath id="clip291">
    <rect x="480" y="0" width="1681" height="1600"/>
  </clipPath>
</defs>
<path clip-path="url(#clip290)" d="
M148.334 1486.45 L2352.76 1486.45 L2352.76 47.2441 L148.334 47.2441  Z
  " fill="#ffffff" fill-rule="evenodd" fill-opacity="1"/>
<defs>
  <clipPath id="clip292">
    <rect x="148" y="47" width="2205" height="1440"/>
  </clipPath>
</defs>
<polyline clip-path="url(#clip292)" style="stroke:#000000; stroke-width:2; stroke-opacity:0.1; fill:none" points="
  510.195,1486.45 510.195,47.2441 
  "/>
<polyline clip-path="url(#clip292)" style="stroke:#000000; stroke-width:2; stroke-opacity:0.1; fill:none" points="
  880.37,1486.45 880.37,47.2441 
  "/>
<polyline clip-path="url(#clip292)" style="stroke:#000000; stroke-width:2; stroke-opacity:0.1; fill:none" points="
  1250.55,1486.45 1250.55,47.2441 
  "/>
<polyline clip-path="url(#clip292)" style="stroke:#000000; stroke-width:2; stroke-opacity:0.1; fill:none" points="
  1620.72,1486.45 1620.72,47.2441 
  "/>
<polyline clip-path="url(#clip292)" style="stroke:#000000; stroke-width:2; stroke-opacity:0.1; fill:none" points="
  1990.9,1486.45 1990.9,47.2441 
  "/>
<polyline clip-path="url(#clip290)" style="stroke:#000000; stroke-width:4; stroke-opacity:1; fill:none" points="
  148.334,1486.45 2352.76,1486.45 
  "/>
<polyline clip-path="url(#clip290)" style="stroke:#000000; stroke-width:4; stroke-opacity:1; fill:none" points="
  510.195,1486.45 510.195,1469.18 
  "/>
<polyline clip-path="url(#clip290)" style="stroke:#000000; stroke-width:4; stroke-opacity:1; fill:none" points="
  880.37,1486.45 880.37,1469.18 
  "/>
<polyline clip-path="url(#clip290)" style="stroke:#000000; stroke-width:4; stroke-opacity:1; fill:none" points="
  1250.55,1486.45 1250.55,1469.18 
  "/>
<polyline clip-path="url(#clip290)" style="stroke:#000000; stroke-width:4; stroke-opacity:1; fill:none" points="
  1620.72,1486.45 1620.72,1469.18 
  "/>
<polyline clip-path="url(#clip290)" style="stroke:#000000; stroke-width:4; stroke-opacity:1; fill:none" points="
  1990.9,1486.45 1990.9,1469.18 
  "/>
<path clip-path="url(#clip290)" d="M 0 0 M481.607 1530.29 L511.283 1530.29 L511.283 1534.23 L481.607 1534.23 L481.607 1530.29 Z" fill="#000000" fill-rule="evenodd" fill-opacity="1" /><path clip-path="url(#clip290)" d="M 0 0 M529.2 1516.63 L517.394 1535.08 L529.2 1535.08 L529.2 1516.63 M527.973 1512.56 L533.853 1512.56 L533.853 1535.08 L538.783 1535.08 L538.783 1538.97 L533.853 1538.97 L533.853 1547.12 L529.2 1547.12 L529.2 1538.97 L513.598 1538.97 L513.598 1534.46 L527.973 1512.56 Z" fill="#000000" fill-rule="evenodd" fill-opacity="1" /><path clip-path="url(#clip290)" d="M 0 0 M852.824 1530.29 L882.5 1530.29 L882.5 1534.23 L852.824 1534.23 L852.824 1530.29 Z" fill="#000000" fill-rule="evenodd" fill-opacity="1" /><path clip-path="url(#clip290)" d="M 0 0 M891.597 1543.18 L907.916 1543.18 L907.916 1547.12 L885.972 1547.12 L885.972 1543.18 Q888.634 1540.43 893.217 1535.8 Q897.824 1531.15 899.004 1529.81 Q901.25 1527.28 902.129 1525.55 Q903.032 1523.79 903.032 1522.1 Q903.032 1519.34 901.088 1517.61 Q899.166 1515.87 896.065 1515.87 Q893.865 1515.87 891.412 1516.63 Q888.981 1517.4 886.203 1518.95 L886.203 1514.23 Q889.028 1513.09 891.481 1512.51 Q893.935 1511.93 895.972 1511.93 Q901.342 1511.93 904.537 1514.62 Q907.731 1517.31 907.731 1521.8 Q907.731 1523.93 906.921 1525.85 Q906.134 1527.74 904.027 1530.34 Q903.449 1531.01 900.347 1534.23 Q897.245 1537.42 891.597 1543.18 Z" fill="#000000" fill-rule="evenodd" fill-opacity="1" /><path clip-path="url(#clip290)" d="M 0 0 M1250.55 1515.64 Q1246.93 1515.64 1245.11 1519.2 Q1243.3 1522.75 1243.3 1529.87 Q1243.3 1536.98 1245.11 1540.55 Q1246.93 1544.09 1250.55 1544.09 Q1254.18 1544.09 1255.98 1540.55 Q1257.81 1536.98 1257.81 1529.87 Q1257.81 1522.75 1255.98 1519.2 Q1254.18 1515.64 1250.55 1515.64 M1250.55 1511.93 Q1256.36 1511.93 1259.41 1516.54 Q1262.49 1521.12 1262.49 1529.87 Q1262.49 1538.6 1259.41 1543.21 Q1256.36 1547.79 1250.55 1547.79 Q1244.73 1547.79 1241.66 1543.21 Q1238.6 1538.6 1238.6 1529.87 Q1238.6 1521.12 1241.66 1516.54 Q1244.73 1511.93 1250.55 1511.93 Z" fill="#000000" fill-rule="evenodd" fill-opacity="1" /><path clip-path="url(#clip290)" d="M 0 0 M1615.37 1543.18 L1631.69 1543.18 L1631.69 1547.12 L1609.75 1547.12 L1609.75 1543.18 Q1612.41 1540.43 1616.99 1535.8 Q1621.6 1531.15 1622.78 1529.81 Q1625.03 1527.28 1625.91 1525.55 Q1626.81 1523.79 1626.81 1522.1 Q1626.81 1519.34 1624.86 1517.61 Q1622.94 1515.87 1619.84 1515.87 Q1617.64 1515.87 1615.19 1516.63 Q1612.76 1517.4 1609.98 1518.95 L1609.98 1514.23 Q1612.8 1513.09 1615.26 1512.51 Q1617.71 1511.93 1619.75 1511.93 Q1625.12 1511.93 1628.31 1514.62 Q1631.51 1517.31 1631.51 1521.8 Q1631.51 1523.93 1630.7 1525.85 Q1629.91 1527.74 1627.8 1530.34 Q1627.22 1531.01 1624.12 1534.23 Q1621.02 1537.42 1615.37 1543.18 Z" fill="#000000" fill-rule="evenodd" fill-opacity="1" /><path clip-path="url(#clip290)" d="M 0 0 M1993.9 1516.63 L1982.1 1535.08 L1993.9 1535.08 L1993.9 1516.63 M1992.68 1512.56 L1998.56 1512.56 L1998.56 1535.08 L2003.49 1535.08 L2003.49 1538.97 L1998.56 1538.97 L1998.56 1547.12 L1993.9 1547.12 L1993.9 1538.97 L1978.3 1538.97 L1978.3 1534.46 L1992.68 1512.56 Z" fill="#000000" fill-rule="evenodd" fill-opacity="1" /><polyline clip-path="url(#clip292)" style="stroke:#000000; stroke-width:2; stroke-opacity:0.1; fill:none" points="
  148.334,1445.72 2352.76,1445.72 
  "/>
<polyline clip-path="url(#clip292)" style="stroke:#000000; stroke-width:2; stroke-opacity:0.1; fill:none" points="
  148.334,1105.35 2352.76,1105.35 
  "/>
<polyline clip-path="url(#clip292)" style="stroke:#000000; stroke-width:2; stroke-opacity:0.1; fill:none" points="
  148.334,764.992 2352.76,764.992 
  "/>
<polyline clip-path="url(#clip292)" style="stroke:#000000; stroke-width:2; stroke-opacity:0.1; fill:none" points="
  148.334,424.63 2352.76,424.63 
  "/>
<polyline clip-path="url(#clip292)" style="stroke:#000000; stroke-width:2; stroke-opacity:0.1; fill:none" points="
  148.334,84.2675 2352.76,84.2675 
  "/>
<polyline clip-path="url(#clip290)" style="stroke:#000000; stroke-width:4; stroke-opacity:1; fill:none" points="
  148.334,1486.45 148.334,47.2441 
  "/>
<polyline clip-path="url(#clip290)" style="stroke:#000000; stroke-width:4; stroke-opacity:1; fill:none" points="
  148.334,1445.72 174.787,1445.72 
  "/>
<polyline clip-path="url(#clip290)" style="stroke:#000000; stroke-width:4; stroke-opacity:1; fill:none" points="
  148.334,1105.35 174.787,1105.35 
  "/>
<polyline clip-path="url(#clip290)" style="stroke:#000000; stroke-width:4; stroke-opacity:1; fill:none" points="
  148.334,764.992 174.787,764.992 
  "/>
<polyline clip-path="url(#clip290)" style="stroke:#000000; stroke-width:4; stroke-opacity:1; fill:none" points="
  148.334,424.63 174.787,424.63 
  "/>
<polyline clip-path="url(#clip290)" style="stroke:#000000; stroke-width:4; stroke-opacity:1; fill:none" points="
  148.334,84.2675 174.787,84.2675 
  "/>
<path clip-path="url(#clip290)" d="M 0 0 M63.4226 1431.51 Q59.8115 1431.51 57.9828 1435.08 Q56.1773 1438.62 56.1773 1445.75 Q56.1773 1452.86 57.9828 1456.42 Q59.8115 1459.96 63.4226 1459.96 Q67.0569 1459.96 68.8624 1456.42 Q70.6911 1452.86 70.6911 1445.75 Q70.6911 1438.62 68.8624 1435.08 Q67.0569 1431.51 63.4226 1431.51 M63.4226 1427.81 Q69.2328 1427.81 72.2883 1432.42 Q75.367 1437 75.367 1445.75 Q75.367 1454.48 72.2883 1459.08 Q69.2328 1463.67 63.4226 1463.67 Q57.6125 1463.67 54.5338 1459.08 Q51.4782 1454.48 51.4782 1445.75 Q51.4782 1437 54.5338 1432.42 Q57.6125 1427.81 63.4226 1427.81 Z" fill="#000000" fill-rule="evenodd" fill-opacity="1" /><path clip-path="url(#clip290)" d="M 0 0 M80.4364 1457.12 L85.3206 1457.12 L85.3206 1463 L80.4364 1463 L80.4364 1457.12 Z" fill="#000000" fill-rule="evenodd" fill-opacity="1" /><path clip-path="url(#clip290)" d="M 0 0 M100.39 1431.51 Q96.7789 1431.51 94.9502 1435.08 Q93.1447 1438.62 93.1447 1445.75 Q93.1447 1452.86 94.9502 1456.42 Q96.7789 1459.96 100.39 1459.96 Q104.024 1459.96 105.83 1456.42 Q107.658 1452.86 107.658 1445.75 Q107.658 1438.62 105.83 1435.08 Q104.024 1431.51 100.39 1431.51 M100.39 1427.81 Q106.2 1427.81 109.256 1432.42 Q112.334 1437 112.334 1445.75 Q112.334 1454.48 109.256 1459.08 Q106.2 1463.67 100.39 1463.67 Q94.5799 1463.67 91.5012 1459.08 Q88.4456 1454.48 88.4456 1445.75 Q88.4456 1437 91.5012 1432.42 Q94.5799 1427.81 100.39 1427.81 Z" fill="#000000" fill-rule="evenodd" fill-opacity="1" /><path clip-path="url(#clip290)" d="M 0 0 M65.0198 1091.15 Q61.4087 1091.15 59.58 1094.72 Q57.7745 1098.26 57.7745 1105.39 Q57.7745 1112.49 59.58 1116.06 Q61.4087 1119.6 65.0198 1119.6 Q68.6541 1119.6 70.4596 1116.06 Q72.2883 1112.49 72.2883 1105.39 Q72.2883 1098.26 70.4596 1094.72 Q68.6541 1091.15 65.0198 1091.15 M65.0198 1087.45 Q70.83 1087.45 73.8855 1092.06 Q76.9642 1096.64 76.9642 1105.39 Q76.9642 1114.12 73.8855 1118.72 Q70.83 1123.3 65.0198 1123.3 Q59.2097 1123.3 56.131 1118.72 Q53.0754 1114.12 53.0754 1105.39 Q53.0754 1096.64 56.131 1092.06 Q59.2097 1087.45 65.0198 1087.45 Z" fill="#000000" fill-rule="evenodd" fill-opacity="1" /><path clip-path="url(#clip290)" d="M 0 0 M82.0336 1116.75 L86.9179 1116.75 L86.9179 1122.63 L82.0336 1122.63 L82.0336 1116.75 Z" fill="#000000" fill-rule="evenodd" fill-opacity="1" /><path clip-path="url(#clip290)" d="M 0 0 M96.015 1118.7 L112.334 1118.7 L112.334 1122.63 L90.3901 1122.63 L90.3901 1118.7 Q93.0521 1115.94 97.6354 1111.31 Q102.242 1106.66 103.422 1105.32 Q105.668 1102.8 106.547 1101.06 Q107.45 1099.3 107.45 1097.61 Q107.45 1094.86 105.506 1093.12 Q103.584 1091.38 100.483 1091.38 Q98.2835 1091.38 95.8298 1092.15 Q93.3993 1092.91 90.6215 1094.46 L90.6215 1089.74 Q93.4456 1088.61 95.8993 1088.03 Q98.353 1087.45 100.39 1087.45 Q105.76 1087.45 108.955 1090.13 Q112.149 1092.82 112.149 1097.31 Q112.149 1099.44 111.339 1101.36 Q110.552 1103.26 108.446 1105.85 Q107.867 1106.52 104.765 1109.74 Q101.663 1112.93 96.015 1118.7 Z" fill="#000000" fill-rule="evenodd" fill-opacity="1" /><path clip-path="url(#clip290)" d="M 0 0 M62.9365 750.79 Q59.3254 750.79 57.4967 754.355 Q55.6912 757.897 55.6912 765.026 Q55.6912 772.133 57.4967 775.698 Q59.3254 779.239 62.9365 779.239 Q66.5707 779.239 68.3763 775.698 Q70.205 772.133 70.205 765.026 Q70.205 757.897 68.3763 754.355 Q66.5707 750.79 62.9365 750.79 M62.9365 747.087 Q68.7467 747.087 71.8022 751.693 Q74.8809 756.276 74.8809 765.026 Q74.8809 773.753 71.8022 778.36 Q68.7467 782.943 62.9365 782.943 Q57.1264 782.943 54.0477 778.36 Q50.9921 773.753 50.9921 765.026 Q50.9921 756.276 54.0477 751.693 Q57.1264 747.087 62.9365 747.087 Z" fill="#000000" fill-rule="evenodd" fill-opacity="1" /><path clip-path="url(#clip290)" d="M 0 0 M79.9503 776.392 L84.8345 776.392 L84.8345 782.272 L79.9503 782.272 L79.9503 776.392 Z" fill="#000000" fill-rule="evenodd" fill-opacity="1" /><path clip-path="url(#clip290)" d="M 0 0 M102.751 751.786 L90.9456 770.235 L102.751 770.235 L102.751 751.786 M101.524 747.712 L107.404 747.712 L107.404 770.235 L112.334 770.235 L112.334 774.123 L107.404 774.123 L107.404 782.272 L102.751 782.272 L102.751 774.123 L87.1493 774.123 L87.1493 769.61 L101.524 747.712 Z" fill="#000000" fill-rule="evenodd" fill-opacity="1" /><path clip-path="url(#clip290)" d="M 0 0 M63.2606 410.428 Q59.6495 410.428 57.8208 413.993 Q56.0152 417.535 56.0152 424.664 Q56.0152 431.771 57.8208 435.336 Q59.6495 438.877 63.2606 438.877 Q66.8948 438.877 68.7004 435.336 Q70.5291 431.771 70.5291 424.664 Q70.5291 417.535 68.7004 413.993 Q66.8948 410.428 63.2606 410.428 M63.2606 406.725 Q69.0707 406.725 72.1263 411.331 Q75.205 415.914 75.205 424.664 Q75.205 433.391 72.1263 437.998 Q69.0707 442.581 63.2606 442.581 Q57.4504 442.581 54.3717 437.998 Q51.3162 433.391 51.3162 424.664 Q51.3162 415.914 54.3717 411.331 Q57.4504 406.725 63.2606 406.725 Z" fill="#000000" fill-rule="evenodd" fill-opacity="1" /><path clip-path="url(#clip290)" d="M 0 0 M80.2744 436.03 L85.1586 436.03 L85.1586 441.91 L80.2744 441.91 L80.2744 436.03 Z" fill="#000000" fill-rule="evenodd" fill-opacity="1" /><path clip-path="url(#clip290)" d="M 0 0 M100.807 422.766 Q97.6585 422.766 95.8067 424.919 Q93.978 427.072 93.978 430.822 Q93.978 434.548 95.8067 436.724 Q97.6585 438.877 100.807 438.877 Q103.955 438.877 105.783 436.724 Q107.635 434.548 107.635 430.822 Q107.635 427.072 105.783 424.919 Q103.955 422.766 100.807 422.766 M110.089 408.113 L110.089 412.373 Q108.33 411.539 106.524 411.1 Q104.742 410.66 102.983 410.66 Q98.353 410.66 95.8993 413.785 Q93.4688 416.91 93.1215 423.229 Q94.4873 421.215 96.5474 420.15 Q98.6076 419.062 101.084 419.062 Q106.293 419.062 109.302 422.234 Q112.334 425.382 112.334 430.822 Q112.334 436.146 109.186 439.363 Q106.038 442.581 100.807 442.581 Q94.8113 442.581 91.6401 437.998 Q88.4688 433.391 88.4688 424.664 Q88.4688 416.47 92.3576 411.609 Q96.2465 406.725 102.797 406.725 Q104.557 406.725 106.339 407.072 Q108.145 407.419 110.089 408.113 Z" fill="#000000" fill-rule="evenodd" fill-opacity="1" /><path clip-path="url(#clip290)" d="M 0 0 M63.5152 70.0662 Q59.9041 70.0662 58.0754 73.631 Q56.2699 77.1726 56.2699 84.3022 Q56.2699 91.4087 58.0754 94.9735 Q59.9041 98.5151 63.5152 98.5151 Q67.1494 98.5151 68.955 94.9735 Q70.7837 91.4087 70.7837 84.3022 Q70.7837 77.1726 68.955 73.631 Q67.1494 70.0662 63.5152 70.0662 M63.5152 66.3625 Q69.3254 66.3625 72.3809 70.969 Q75.4596 75.5523 75.4596 84.3022 Q75.4596 93.029 72.3809 97.6355 Q69.3254 102.219 63.5152 102.219 Q57.7051 102.219 54.6264 97.6355 Q51.5708 93.029 51.5708 84.3022 Q51.5708 75.5523 54.6264 70.969 Q57.7051 66.3625 63.5152 66.3625 Z" fill="#000000" fill-rule="evenodd" fill-opacity="1" /><path clip-path="url(#clip290)" d="M 0 0 M80.529 95.6679 L85.4132 95.6679 L85.4132 101.547 L80.529 101.547 L80.529 95.6679 Z" fill="#000000" fill-rule="evenodd" fill-opacity="1" /><path clip-path="url(#clip290)" d="M 0 0 M100.483 85.1355 Q97.1493 85.1355 95.228 86.9179 Q93.3299 88.7003 93.3299 91.8253 Q93.3299 94.9503 95.228 96.7327 Q97.1493 98.5151 100.483 98.5151 Q103.816 98.5151 105.737 96.7327 Q107.658 94.9272 107.658 91.8253 Q107.658 88.7003 105.737 86.9179 Q103.839 85.1355 100.483 85.1355 M95.8067 83.1448 Q92.7975 82.4041 91.1077 80.3439 Q89.441 78.2837 89.441 75.3208 Q89.441 71.1773 92.3808 68.7699 Q95.3437 66.3625 100.483 66.3625 Q105.645 66.3625 108.584 68.7699 Q111.524 71.1773 111.524 75.3208 Q111.524 78.2837 109.834 80.3439 Q108.168 82.4041 105.182 83.1448 Q108.561 83.9318 110.436 86.2235 Q112.334 88.5152 112.334 91.8253 Q112.334 96.8484 109.256 99.5336 Q106.2 102.219 100.483 102.219 Q94.765 102.219 91.6864 99.5336 Q88.6308 96.8484 88.6308 91.8253 Q88.6308 88.5152 90.529 86.2235 Q92.4271 83.9318 95.8067 83.1448 M94.0937 75.7606 Q94.0937 78.4458 95.7604 79.9504 Q97.4502 81.455 100.483 81.455 Q103.492 81.455 105.182 79.9504 Q106.895 78.4458 106.895 75.7606 Q106.895 73.0754 105.182 71.5708 Q103.492 70.0662 100.483 70.0662 Q97.4502 70.0662 95.7604 71.5708 Q94.0937 73.0754 94.0937 75.7606 Z" fill="#000000" fill-rule="evenodd" fill-opacity="1" /><polyline clip-path="url(#clip292)" style="stroke:#009af9; stroke-width:4; stroke-opacity:1; fill:none" points="
  325.108,1445.71 343.183,1445.71 510.315,1445.49 610.755,1443.99 695.675,1438.13 741.799,1430.18 787.923,1415.85 809.184,1406.18 830.445,1394.06 851.706,1379.11 
  872.967,1360.97 895.761,1337.58 918.555,1309.83 941.349,1277.52 964.143,1240.66 990.552,1192.58 1016.96,1139.54 1043.37,1082.84 1069.78,1024.32 1093.25,972.579 
  1116.72,922.963 1140.19,877.357 1163.66,837.629 1184.24,808.992 1204.82,787.199 1225.4,773.029 1245.98,766.998 1257.2,767.23 1268.42,769.949 1279.64,775.125 
  1290.85,782.703 1313.29,804.706 1335.73,835.021 1358.3,872.631 1380.87,915.863 1403.45,963.066 1426.02,1012.55 1475.93,1122.25 1525.84,1221.11 1549.58,1261.64 
  1573.33,1297.33 1597.07,1328.05 1620.82,1353.93 1645.51,1376.05 1670.2,1393.77 1694.89,1407.67 1719.58,1418.34 1761.14,1430.61 1802.71,1437.79 1904.2,1444.39 
  1999.61,1445.53 2152.46,1445.71 2175.98,1445.71 
  "/>
<polyline clip-path="url(#clip292)" style="stroke:#e26f46; stroke-width:4; stroke-opacity:1; fill:none" points="
  269.581,1398.19 279.161,1396.72 288.741,1395.23 377.321,1380 465.902,1362.33 519.135,1350.67 572.368,1338.37 617.375,1327.59 662.383,1316.58 760.165,1292.49 
  850.312,1271.18 898.635,1260.58 946.958,1250.83 1002.95,1240.82 1058.93,1232.49 1108.69,1226.67 1158.44,1222.5 1202.07,1220.27 1245.7,1219.42 1293.27,1220.08 
  1340.84,1222.38 1388.69,1226.3 1436.55,1231.76 1489.45,1239.41 1542.36,1248.6 1592.7,1258.54 1643.04,1269.44 1747.72,1294.15 1835.84,1315.87 1943.42,1341.82 
  2044.55,1364.31 2125.56,1380.34 2206.57,1394.31 2219.04,1396.28 2231.51,1398.19 
  "/>
<polyline clip-path="url(#clip292)" style="stroke:#3da44d; stroke-width:4; stroke-opacity:1; fill:none" points="
  210.724,1445.72 231.033,1445.72 418.823,1445.72 531.677,1445.72 627.093,1445.72 730.742,1445.72 826.298,1445.68 877.52,1445.31 928.743,1442.5 958.416,1436.4 
  988.09,1421.37 1002.93,1407.85 1017.76,1388.31 1032.6,1360.9 1047.44,1323.57 1060.62,1280.41 1073.81,1226.51 1086.99,1160.87 1100.18,1083.01 1113.36,993.142 
  1126.55,892.361 1139.73,782.732 1152.92,667.346 1164.48,564.592 1176.04,463.721 1187.6,368.253 1199.16,281.814 1210.73,207.913 1222.29,149.707 1228.07,127.326 
  1233.85,109.781 1239.63,97.2756 1245.41,89.9537 1251.72,87.9763 1258.02,92.2885 1264.32,102.831 1270.62,119.457 1276.93,141.939 1283.23,169.972 1289.53,203.178 
  1295.84,241.121 1308.44,329.212 1321.05,429.885 1333.65,538.471 1346.26,650.345 1358.94,761.891 1371.62,868.729 1384.3,967.93 1396.98,1057.43 1409.66,1136.04 
  1422.34,1203.33 1435.02,1259.52 1447.71,1305.35 1461.73,1345.23 1475.75,1375.41 1489.77,1397.64 1503.79,1413.59 1531.83,1432.32 1559.87,1440.62 1613.23,1445.09 
  1666.58,1445.66 1777.55,1445.72 1870.95,1445.72 1984.99,1445.72 2092.19,1445.72 2263.94,1445.72 2290.37,1445.72 
  "/>
<path clip-path="url(#clip290)" d="
M1910.61 337.138 L2279.28 337.138 L2279.28 95.2176 L1910.61 95.2176  Z
  " fill="#ffffff" fill-rule="evenodd" fill-opacity="1"/>
<polyline clip-path="url(#clip290)" style="stroke:#000000; stroke-width:4; stroke-opacity:1; fill:none" points="
  1910.61,337.138 2279.28,337.138 2279.28,95.2176 1910.61,95.2176 1910.61,337.138 
  "/>
<polyline clip-path="url(#clip290)" style="stroke:#009af9; stroke-width:4; stroke-opacity:1; fill:none" points="
  1935.11,155.698 2082.07,155.698 
  "/>
<path clip-path="url(#clip290)" d="M 0 0 M2118.46 150.431 Q2114.94 150.431 2113.04 152.978 Q2111.05 155.64 2111.05 160.038 Q2111.05 164.691 2113.02 167.376 Q2115.01 170.038 2118.46 170.038 Q2121.86 170.038 2123.85 167.353 Q2125.84 164.667 2125.84 160.038 Q2125.84 155.802 2123.85 152.978 Q2122.02 150.431 2118.46 150.431 M2118.46 147.052 L2132.6 147.052 L2132.6 151.311 L2127.83 151.311 Q2130.36 154.922 2130.36 160.038 Q2130.36 166.404 2127.19 170.015 Q2124.02 173.649 2118.46 173.649 Q2112.88 173.649 2109.73 170.015 Q2106.56 166.404 2106.56 160.038 Q2106.56 153.626 2109.73 150.038 Q2112.35 147.052 2118.46 147.052 Z" fill="#000000" fill-rule="evenodd" fill-opacity="1" /><path clip-path="url(#clip290)" d="M 0 0 M2137.63 151.45 L2167.3 151.45 L2167.3 155.339 L2137.63 155.339 L2137.63 151.45 M2137.63 160.894 L2167.3 160.894 L2167.3 164.829 L2137.63 164.829 L2137.63 160.894 Z" fill="#000000" fill-rule="evenodd" fill-opacity="1" /><path clip-path="url(#clip290)" d="M 0 0 M2173.18 169.042 L2180.82 169.042 L2180.82 142.677 L2172.51 144.343 L2172.51 140.084 L2180.77 138.418 L2185.45 138.418 L2185.45 169.042 L2193.09 169.042 L2193.09 172.978 L2173.18 172.978 L2173.18 169.042 Z" fill="#000000" fill-rule="evenodd" fill-opacity="1" /><polyline clip-path="url(#clip290)" style="stroke:#e26f46; stroke-width:4; stroke-opacity:1; fill:none" points="
  1935.11,216.178 2082.07,216.178 
  "/>
<path clip-path="url(#clip290)" d="M 0 0 M2118.46 210.911 Q2114.94 210.911 2113.04 213.458 Q2111.05 216.12 2111.05 220.518 Q2111.05 225.171 2113.02 227.856 Q2115.01 230.518 2118.46 230.518 Q2121.86 230.518 2123.85 227.833 Q2125.84 225.147 2125.84 220.518 Q2125.84 216.282 2123.85 213.458 Q2122.02 210.911 2118.46 210.911 M2118.46 207.532 L2132.6 207.532 L2132.6 211.791 L2127.83 211.791 Q2130.36 215.402 2130.36 220.518 Q2130.36 226.884 2127.19 230.495 Q2124.02 234.129 2118.46 234.129 Q2112.88 234.129 2109.73 230.495 Q2106.56 226.884 2106.56 220.518 Q2106.56 214.106 2109.73 210.518 Q2112.35 207.532 2118.46 207.532 Z" fill="#000000" fill-rule="evenodd" fill-opacity="1" /><path clip-path="url(#clip290)" d="M 0 0 M2137.63 211.93 L2167.3 211.93 L2167.3 215.819 L2137.63 215.819 L2137.63 211.93 M2137.63 221.374 L2167.3 221.374 L2167.3 225.309 L2137.63 225.309 L2137.63 221.374 Z" fill="#000000" fill-rule="evenodd" fill-opacity="1" /><path clip-path="url(#clip290)" d="M 0 0 M2186.54 214.823 Q2189.89 215.541 2191.77 217.809 Q2193.67 220.078 2193.67 223.411 Q2193.67 228.527 2190.15 231.328 Q2186.63 234.129 2180.15 234.129 Q2177.97 234.129 2175.66 233.689 Q2173.37 233.272 2170.91 232.416 L2170.91 227.902 Q2172.86 229.036 2175.17 229.615 Q2177.49 230.194 2180.01 230.194 Q2184.41 230.194 2186.7 228.458 Q2189.02 226.721 2189.02 223.411 Q2189.02 220.356 2186.86 218.643 Q2184.73 216.907 2180.91 216.907 L2176.89 216.907 L2176.89 213.064 L2181.1 213.064 Q2184.55 213.064 2186.38 211.698 Q2188.2 210.31 2188.2 207.717 Q2188.2 205.055 2186.31 203.643 Q2184.43 202.208 2180.91 202.208 Q2178.99 202.208 2176.79 202.624 Q2174.59 203.041 2171.96 203.921 L2171.96 199.754 Q2174.62 199.013 2176.93 198.643 Q2179.27 198.273 2181.33 198.273 Q2186.65 198.273 2189.76 200.703 Q2192.86 203.11 2192.86 207.231 Q2192.86 210.101 2191.21 212.092 Q2189.57 214.06 2186.54 214.823 Z" fill="#000000" fill-rule="evenodd" fill-opacity="1" /><polyline clip-path="url(#clip290)" style="stroke:#3da44d; stroke-width:4; stroke-opacity:1; fill:none" points="
  1935.11,276.658 2082.07,276.658 
  "/>
<path clip-path="url(#clip290)" d="M 0 0 M2118.46 271.391 Q2114.94 271.391 2113.04 273.938 Q2111.05 276.6 2111.05 280.998 Q2111.05 285.651 2113.02 288.336 Q2115.01 290.998 2118.46 290.998 Q2121.86 290.998 2123.85 288.313 Q2125.84 285.627 2125.84 280.998 Q2125.84 276.762 2123.85 273.938 Q2122.02 271.391 2118.46 271.391 M2118.46 268.012 L2132.6 268.012 L2132.6 272.271 L2127.83 272.271 Q2130.36 275.882 2130.36 280.998 Q2130.36 287.364 2127.19 290.975 Q2124.02 294.609 2118.46 294.609 Q2112.88 294.609 2109.73 290.975 Q2106.56 287.364 2106.56 280.998 Q2106.56 274.586 2109.73 270.998 Q2112.35 268.012 2118.46 268.012 Z" fill="#000000" fill-rule="evenodd" fill-opacity="1" /><path clip-path="url(#clip290)" d="M 0 0 M2137.63 272.41 L2167.3 272.41 L2167.3 276.299 L2137.63 276.299 L2137.63 272.41 M2137.63 281.854 L2167.3 281.854 L2167.3 285.789 L2137.63 285.789 L2137.63 281.854 Z" fill="#000000" fill-rule="evenodd" fill-opacity="1" /><path clip-path="url(#clip290)" d="M 0 0 M2182.37 262.456 Q2178.76 262.456 2176.93 266.021 Q2175.13 269.563 2175.13 276.692 Q2175.13 283.799 2176.93 287.364 Q2178.76 290.905 2182.37 290.905 Q2186.01 290.905 2187.81 287.364 Q2189.64 283.799 2189.64 276.692 Q2189.64 269.563 2187.81 266.021 Q2186.01 262.456 2182.37 262.456 M2182.37 258.753 Q2188.18 258.753 2191.24 263.359 Q2194.32 267.942 2194.32 276.692 Q2194.32 285.419 2191.24 290.026 Q2188.18 294.609 2182.37 294.609 Q2176.56 294.609 2173.48 290.026 Q2170.43 285.419 2170.43 276.692 Q2170.43 267.942 2173.48 263.359 Q2176.56 258.753 2182.37 258.753 Z" fill="#000000" fill-rule="evenodd" fill-opacity="1" /><path clip-path="url(#clip290)" d="M 0 0 M2199.39 288.058 L2204.27 288.058 L2204.27 293.938 L2199.39 293.938 L2199.39 288.058 Z" fill="#000000" fill-rule="evenodd" fill-opacity="1" /><path clip-path="url(#clip290)" d="M 0 0 M2209.39 259.378 L2227.74 259.378 L2227.74 263.313 L2213.67 263.313 L2213.67 271.785 Q2214.69 271.438 2215.7 271.276 Q2216.72 271.09 2217.74 271.09 Q2223.53 271.09 2226.91 274.262 Q2230.29 277.433 2230.29 282.85 Q2230.29 288.428 2226.82 291.53 Q2223.34 294.609 2217.02 294.609 Q2214.85 294.609 2212.58 294.238 Q2210.33 293.868 2207.93 293.127 L2207.93 288.428 Q2210.01 289.563 2212.23 290.118 Q2214.45 290.674 2216.93 290.674 Q2220.94 290.674 2223.27 288.567 Q2225.61 286.461 2225.61 282.85 Q2225.61 279.239 2223.27 277.132 Q2220.94 275.026 2216.93 275.026 Q2215.06 275.026 2213.18 275.442 Q2211.33 275.859 2209.39 276.739 L2209.39 259.378 Z" fill="#000000" fill-rule="evenodd" fill-opacity="1" /></svg>
