<?xml version="1.0" encoding="utf-8"?>
<svg xmlns="http://www.w3.org/2000/svg" xmlns:xlink="http://www.w3.org/1999/xlink" width="600" height="600" viewBox="0 0 2400 2400">
<defs>
  <clipPath id="clip320">
    <rect x="0" y="0" width="2400" height="2400"/>
  </clipPath>
</defs>
<path clip-path="url(#clip320)" d="M0 2400 L2400 2400 L2400 0 L0 0  Z" fill="#ffffff" fill-rule="evenodd" fill-opacity="1"/>
<defs>
  <clipPath id="clip321">
    <rect x="480" y="240" width="1681" height="1681"/>
  </clipPath>
</defs>
<path clip-path="url(#clip320)" d="M112.177 2125.12 L2054.01 2125.12 L2054.01 183.289 L112.177 183.289  Z" fill="#ffffff" fill-rule="evenodd" fill-opacity="1"/>
<defs>
  <clipPath id="clip322">
    <rect x="112" y="183" width="1943" height="1943"/>
  </clipPath>
</defs>
<polyline clip-path="url(#clip322)" style="stroke:#009af9; stroke-linecap:round; stroke-linejoin:round; stroke-width:12; stroke-opacity:1; fill:none" points="306.361,1930.94 694.728,765.839 "/>
<polyline clip-path="url(#clip322)" style="stroke:#009af9; stroke-linecap:round; stroke-linejoin:round; stroke-width:12; stroke-opacity:1; fill:none" points="666.267,794.3 694.728,765.839 700.42,805.684 "/>
<polyline clip-path="url(#clip322)" style="stroke:#009af9; stroke-linecap:round; stroke-linejoin:round; stroke-width:12; stroke-opacity:1; fill:none" points="694.728,765.839 306.361,1930.94 "/>
<polyline clip-path="url(#clip322)" style="stroke:#e26f46; stroke-linecap:round; stroke-linejoin:round; stroke-width:12; stroke-opacity:1; fill:none" points="888.911,1930.94 1432.62,299.799 "/>
<polyline clip-path="url(#clip322)" style="stroke:#e26f46; stroke-linecap:round; stroke-linejoin:round; stroke-width:12; stroke-opacity:1; fill:none" points="1404.16,328.259 1432.62,299.799 1438.32,339.643 "/>
<polyline clip-path="url(#clip322)" style="stroke:#e26f46; stroke-linecap:round; stroke-linejoin:round; stroke-width:12; stroke-opacity:1; fill:none" points="1432.62,299.799 888.911,1930.94 "/>
<polyline clip-path="url(#clip322)" style="stroke:#3da44d; stroke-linecap:round; stroke-linejoin:round; stroke-width:12; stroke-opacity:1; fill:none" points="1859.83,765.839 1471.46,1930.94 "/>
<polyline clip-path="url(#clip322)" style="stroke:#3da44d; stroke-linecap:round; stroke-linejoin:round; stroke-width:12; stroke-opacity:1; fill:none" points="1499.92,1902.48 1471.46,1930.94 1465.77,1891.1 "/>
<polyline clip-path="url(#clip322)" style="stroke:#3da44d; stroke-linecap:round; stroke-linejoin:round; stroke-width:12; stroke-opacity:1; fill:none" points="1471.46,1930.94 1859.83,765.839 "/>
<path clip-path="url(#clip320)" d="M452.753 1377.41 Q449.802 1377.17 439.063 1377.17 Q427.463 1377.17 424.266 1377.41 L424.266 1373.48 L432.259 1373.48 L427.217 1361.22 L404.714 1361.22 L400.533 1371.39 L400.205 1372.37 Q400.205 1372.86 402.05 1373.15 Q403.935 1373.4 405.78 1373.44 L407.665 1373.48 L407.665 1377.41 Q404.55 1377.17 396.598 1377.17 L386.761 1377.41 L386.761 1373.48 L388.523 1373.48 Q391.597 1373.48 393.114 1373.23 Q394.631 1372.99 394.999 1372.66 Q395.368 1372.33 395.655 1371.55 L416.478 1321.01 Q416.97 1319.74 417.544 1319.29 Q418.117 1318.8 419.757 1318.8 Q420.659 1318.8 421.11 1318.88 Q421.561 1318.96 422.093 1319.5 Q422.667 1319.99 423.118 1321.01 L444.596 1373.48 L452.753 1373.48 L452.753 1377.41 M425.536 1357.25 L415.986 1333.92 L406.394 1357.25 L425.536 1357.25 Z" fill="#000000" fill-rule="nonzero" fill-opacity="1" /><path clip-path="url(#clip320)" d="M1530.4 309.293 Q1530.4 312.941 1528.64 316.507 Q1526.88 320.073 1523.72 322.943 Q1520.57 325.771 1515.69 327.534 Q1510.85 329.296 1505.2 329.296 Q1497.49 329.296 1491.14 327.083 Q1484.78 324.828 1480.48 320.893 Q1476.18 316.958 1473.8 311.507 Q1471.46 306.014 1471.46 299.579 Q1471.46 293.144 1473.8 287.692 Q1476.18 282.199 1480.48 278.264 Q1484.78 274.329 1491.14 272.116 Q1497.49 269.862 1505.2 269.862 Q1514.66 269.862 1521.76 275.559 L1527.29 270.599 Q1528.15 269.862 1528.89 269.862 Q1529.95 269.862 1530.16 270.353 Q1530.4 270.804 1530.4 272.198 L1530.4 290.233 Q1530.4 291.873 1530.04 292.242 Q1529.71 292.611 1528.11 292.611 Q1526.67 292.611 1526.35 292.365 Q1526.06 292.078 1525.85 290.848 Q1524.5 283.019 1519.21 278.428 Q1513.93 273.797 1506.96 273.797 Q1496.22 273.797 1489.87 280.232 Q1484.29 286.052 1484.29 299.579 Q1484.29 305.727 1485.36 310.277 Q1486.46 314.786 1489.25 318.188 Q1492.33 321.836 1497.12 323.599 Q1501.92 325.32 1507.25 325.32 Q1509.87 325.32 1512.45 324.705 Q1515.03 324.09 1517.49 322.779 Q1519.99 321.467 1521.88 319.582 Q1523.8 317.696 1525.03 314.95 Q1526.31 312.204 1526.47 308.965 Q1526.51 307.982 1526.92 307.777 Q1527.37 307.531 1528.4 307.531 Q1529.58 307.531 1529.99 307.818 Q1530.4 308.105 1530.4 309.293 Z" fill="#000000" fill-rule="nonzero" fill-opacity="1" /><path clip-path="url(#clip320)" d="M1563.81 315.606 Q1563.89 314.581 1565.49 314.581 L1616.93 314.581 Q1619.35 314.581 1619.39 315.524 Q1619.39 316.548 1617.09 316.507 L1566.06 316.507 Q1563.81 316.548 1563.81 315.606 M1563.81 299.21 Q1563.81 298.185 1565.57 298.226 L1616.85 298.226 Q1619.35 298.226 1619.39 299.21 Q1619.39 300.153 1617.26 300.153 L1565.49 300.153 Q1563.81 300.153 1563.81 299.21 Z" fill="#000000" fill-rule="nonzero" fill-opacity="1" /><path clip-path="url(#clip320)" d="M1682.67 304.662 Q1682.67 310.564 1679.68 316.343 Q1676.73 322.082 1671.97 325.689 Q1667.26 329.296 1662.42 329.296 Q1657.71 329.296 1654.72 325.689 Q1651.77 322.041 1651.77 316.098 Q1651.77 314.007 1652.01 312.531 Q1652.26 311.056 1653.12 307.613 L1660 280.232 Q1661.19 275.108 1661.19 275.067 Q1661.19 274.575 1660.99 274.329 Q1660.82 274.043 1659.84 273.838 Q1658.86 273.633 1656.97 273.633 Q1656.19 273.633 1655.82 273.592 Q1655.5 273.551 1655.21 273.346 Q1654.96 273.1 1654.96 272.608 Q1654.96 271.911 1655.25 271.542 Q1655.58 271.132 1655.82 271.05 Q1656.07 270.968 1656.56 270.927 Q1657.26 270.886 1659.59 270.681 Q1661.93 270.435 1663.94 270.272 Q1665.95 270.108 1666.81 270.108 Q1667.3 270.108 1667.55 270.353 Q1667.83 270.558 1667.83 270.804 L1667.87 271.009 L1661.69 296.3 Q1666.56 291.258 1671.52 291.258 Q1676.48 291.258 1679.56 295.07 Q1682.67 298.882 1682.67 304.662 M1676.61 300.972 Q1676.61 297.078 1675.13 295.111 Q1673.7 293.103 1671.32 293.103 Q1669.31 293.103 1666.69 294.619 Q1664.06 296.136 1661.28 299.825 Q1660.74 300.522 1660.54 300.931 Q1660.37 301.341 1660 302.735 L1658.16 310.482 Q1656.81 315.77 1656.81 318.967 Q1656.81 323.312 1658.41 325.361 Q1660 327.411 1662.42 327.411 Q1664.96 327.411 1667.63 325.156 Q1670.29 322.902 1672.34 318.803 Q1673.61 316.098 1675.09 310.277 Q1676.61 304.416 1676.61 300.972 Z" fill="#000000" fill-rule="nonzero" fill-opacity="1" /><path clip-path="url(#clip320)" d="M1753.4 328.353 Q1750.45 328.107 1739.71 328.107 Q1728.11 328.107 1724.91 328.353 L1724.91 324.418 L1732.91 324.418 L1727.87 312.163 L1705.36 312.163 L1701.18 322.328 L1700.85 323.312 Q1700.85 323.804 1702.7 324.09 Q1704.58 324.336 1706.43 324.377 L1708.31 324.418 L1708.31 328.353 Q1705.2 328.107 1697.25 328.107 L1687.41 328.353 L1687.41 324.418 L1689.17 324.418 Q1692.25 324.418 1693.76 324.172 Q1695.28 323.926 1695.65 323.599 Q1696.02 323.271 1696.3 322.492 L1717.13 271.952 Q1717.62 270.681 1718.19 270.231 Q1718.77 269.739 1720.41 269.739 Q1721.31 269.739 1721.76 269.821 Q1722.21 269.903 1722.74 270.435 Q1723.32 270.927 1723.77 271.952 L1745.25 324.418 L1753.4 324.418 L1753.4 328.353 M1726.19 308.187 L1716.63 284.864 L1707.04 308.187 L1726.19 308.187 Z" fill="#000000" fill-rule="nonzero" fill-opacity="1" /><path clip-path="url(#clip320)" d="M1536.11 1355.24 Q1536.6 1355.73 1536.6 1356.43 Q1536.6 1357.12 1536.11 1357.62 Q1535.62 1358.11 1534.92 1358.11 L1482.37 1358.11 Q1481.67 1358.11 1481.18 1357.62 Q1480.69 1357.12 1480.69 1356.43 Q1480.69 1355.73 1481.18 1355.24 Q1481.67 1354.75 1482.37 1354.75 L1534.92 1354.75 Q1535.62 1354.75 1536.11 1355.24 Z" fill="#000000" fill-rule="nonzero" fill-opacity="1" /><path clip-path="url(#clip320)" d="M1611.35 1377.41 Q1608.4 1377.17 1597.66 1377.17 Q1586.06 1377.17 1582.86 1377.41 L1582.86 1373.48 L1590.86 1373.48 L1585.82 1361.22 L1563.31 1361.22 L1559.13 1371.39 L1558.8 1372.37 Q1558.8 1372.86 1560.65 1373.15 Q1562.53 1373.4 1564.38 1373.44 L1566.26 1373.48 L1566.26 1377.41 Q1563.15 1377.17 1555.2 1377.17 L1545.36 1377.41 L1545.36 1373.48 L1547.12 1373.48 Q1550.2 1373.48 1551.71 1373.23 Q1553.23 1372.99 1553.6 1372.66 Q1553.97 1372.33 1554.25 1371.55 L1575.08 1321.01 Q1575.57 1319.74 1576.14 1319.29 Q1576.72 1318.8 1578.36 1318.8 Q1579.26 1318.8 1579.71 1318.88 Q1580.16 1318.96 1580.69 1319.5 Q1581.27 1319.99 1581.72 1321.01 L1603.2 1373.48 L1611.35 1373.48 L1611.35 1377.41 M1584.14 1357.25 L1574.58 1333.92 L1564.99 1357.25 L1584.14 1357.25 Z" fill="#000000" fill-rule="nonzero" fill-opacity="1" /></svg>
