<?xml version="1.0" encoding="utf-8"?>
<svg xmlns="http://www.w3.org/2000/svg" xmlns:xlink="http://www.w3.org/1999/xlink" width="900" height="600" viewBox="0 0 3600 2400">
<defs>
  <clipPath id="clip400">
    <rect x="0" y="0" width="3600" height="2400"/>
  </clipPath>
</defs>
<path clip-path="url(#clip400)" d="M0 2400 L3600 2400 L3600 0 L0 0  Z" fill="#ffffff" fill-rule="evenodd" fill-opacity="1"/>
<defs>
  <clipPath id="clip401">
    <rect x="720" y="0" width="2521" height="2400"/>
  </clipPath>
</defs>
<path clip-path="url(#clip400)" d="M159.478 2265.66 L3100.32 2265.66 L3100.32 60.0306 L159.478 60.0306  Z" fill="#ffffff" fill-rule="evenodd" fill-opacity="1"/>
<defs>
  <clipPath id="clip402">
    <rect x="159" y="60" width="2942" height="2207"/>
  </clipPath>
</defs>
<polyline clip-path="url(#clip402)" style="stroke:#009af9; stroke-linecap:round; stroke-linejoin:round; stroke-width:12; stroke-opacity:1; fill:none" points="343.28,1714.25 710.886,611.438 "/>
<polyline clip-path="url(#clip402)" style="stroke:#009af9; stroke-linecap:round; stroke-linejoin:round; stroke-width:12; stroke-opacity:1; fill:none" points="668.195,654.129 710.886,611.438 719.424,671.205 "/>
<polyline clip-path="url(#clip402)" style="stroke:#009af9; stroke-linecap:round; stroke-linejoin:round; stroke-width:12; stroke-opacity:1; fill:none" points="710.886,611.438 343.28,1714.25 "/>
<polyline clip-path="url(#clip402)" style="stroke:#e26f46; stroke-linecap:round; stroke-linejoin:round; stroke-width:12; stroke-opacity:1; fill:none" points="343.28,1714.25 1078.49,1346.65 "/>
<polyline clip-path="url(#clip402)" style="stroke:#e26f46; stroke-linecap:round; stroke-linejoin:round; stroke-width:12; stroke-opacity:1; fill:none" points="1018.12,1346.65 1078.49,1346.65 1042.27,1394.95 "/>
<polyline clip-path="url(#clip402)" style="stroke:#e26f46; stroke-linecap:round; stroke-linejoin:round; stroke-width:12; stroke-opacity:1; fill:none" points="1078.49,1346.65 343.28,1714.25 "/>
<polyline clip-path="url(#clip402)" style="stroke:#e26f46; stroke-linecap:round; stroke-linejoin:round; stroke-width:12; stroke-opacity:1; fill:none" stroke-dasharray="48, 30" points="710.886,611.438 1446.1,243.833 "/>
<polyline clip-path="url(#clip402)" style="stroke:#009af9; stroke-linecap:round; stroke-linejoin:round; stroke-width:12; stroke-opacity:1; fill:none" stroke-dasharray="48, 30" points="1078.49,1346.65 1446.1,243.833 "/>
<polyline clip-path="url(#clip402)" style="stroke:#3da44d; stroke-linecap:round; stroke-linejoin:round; stroke-width:12; stroke-opacity:1; fill:none" points="343.28,1714.25 1446.1,243.833 "/>
<polyline clip-path="url(#clip402)" style="stroke:#3da44d; stroke-linecap:round; stroke-linejoin:round; stroke-width:12; stroke-opacity:1; fill:none" points="1392.1,270.833 1446.1,243.833 1435.3,303.233 "/>
<polyline clip-path="url(#clip402)" style="stroke:#3da44d; stroke-linecap:round; stroke-linejoin:round; stroke-width:12; stroke-opacity:1; fill:none" points="1446.1,243.833 343.28,1714.25 "/>
<polyline clip-path="url(#clip402)" style="stroke:#009af9; stroke-linecap:round; stroke-linejoin:round; stroke-width:12; stroke-opacity:1; fill:none" points="2181.31,1714.25 2548.91,611.438 "/>
<polyline clip-path="url(#clip402)" style="stroke:#009af9; stroke-linecap:round; stroke-linejoin:round; stroke-width:12; stroke-opacity:1; fill:none" points="2506.22,654.129 2548.91,611.438 2557.45,671.205 "/>
<polyline clip-path="url(#clip402)" style="stroke:#009af9; stroke-linecap:round; stroke-linejoin:round; stroke-width:12; stroke-opacity:1; fill:none" points="2548.91,611.438 2181.31,1714.25 "/>
<polyline clip-path="url(#clip402)" style="stroke:#e26f46; stroke-linecap:round; stroke-linejoin:round; stroke-width:12; stroke-opacity:1; fill:none" points="2181.31,1714.25 2916.52,1346.65 "/>
<polyline clip-path="url(#clip402)" style="stroke:#e26f46; stroke-linecap:round; stroke-linejoin:round; stroke-width:12; stroke-opacity:1; fill:none" points="2856.14,1346.65 2916.52,1346.65 2880.29,1394.95 "/>
<polyline clip-path="url(#clip402)" style="stroke:#e26f46; stroke-linecap:round; stroke-linejoin:round; stroke-width:12; stroke-opacity:1; fill:none" points="2916.52,1346.65 2181.31,1714.25 "/>
<polyline clip-path="url(#clip402)" style="stroke:#3da44d; stroke-linecap:round; stroke-linejoin:round; stroke-width:12; stroke-opacity:1; fill:none" points="2181.31,1714.25 1813.7,979.043 "/>
<polyline clip-path="url(#clip402)" style="stroke:#3da44d; stroke-linecap:round; stroke-linejoin:round; stroke-width:12; stroke-opacity:1; fill:none" points="1813.7,1039.42 1813.7,979.043 1862,1015.27 "/>
<polyline clip-path="url(#clip402)" style="stroke:#3da44d; stroke-linecap:round; stroke-linejoin:round; stroke-width:12; stroke-opacity:1; fill:none" points="1813.7,979.043 2181.31,1714.25 "/>
<polyline clip-path="url(#clip402)" style="stroke:#ac8d18; stroke-linecap:round; stroke-linejoin:round; stroke-width:12; stroke-opacity:1; fill:none" points="2181.31,1714.25 1446.1,2081.86 "/>
<polyline clip-path="url(#clip402)" style="stroke:#ac8d18; stroke-linecap:round; stroke-linejoin:round; stroke-width:12; stroke-opacity:1; fill:none" points="1506.47,2081.86 1446.1,2081.86 1482.32,2033.56 "/>
<polyline clip-path="url(#clip402)" style="stroke:#ac8d18; stroke-linecap:round; stroke-linejoin:round; stroke-width:12; stroke-opacity:1; fill:none" points="1446.1,2081.86 2181.31,1714.25 "/>
<polyline clip-path="url(#clip402)" style="stroke:#ac8d18; stroke-linecap:round; stroke-linejoin:round; stroke-width:12; stroke-opacity:1; fill:none" stroke-dasharray="48, 30" points="2548.91,611.438 1813.7,979.043 "/>
<polyline clip-path="url(#clip402)" style="stroke:#009af9; stroke-linecap:round; stroke-linejoin:round; stroke-width:12; stroke-opacity:1; fill:none" stroke-dasharray="48, 30" points="1446.1,2081.86 1813.7,979.043 "/>
<path clip-path="url(#clip400)" d="M483.448 1191.87 Q480.497 1191.63 469.758 1191.63 Q458.158 1191.63 454.96 1191.87 L454.96 1187.94 L462.953 1187.94 L457.912 1175.68 L435.409 1175.68 L431.228 1185.85 L430.9 1186.83 Q430.9 1187.32 432.744 1187.61 Q434.63 1187.86 436.474 1187.9 L438.36 1187.94 L438.36 1191.87 Q435.245 1191.63 427.293 1191.63 L417.455 1191.87 L417.455 1187.94 L419.218 1187.94 Q422.292 1187.94 423.809 1187.69 Q425.325 1187.45 425.694 1187.12 Q426.063 1186.79 426.35 1186.01 L447.172 1135.47 Q447.664 1134.2 448.238 1133.75 Q448.812 1133.26 450.452 1133.26 Q451.353 1133.26 451.804 1133.34 Q452.255 1133.42 452.788 1133.96 Q453.362 1134.45 453.813 1135.47 L475.291 1187.94 L483.448 1187.94 L483.448 1191.87 M456.231 1171.71 L446.681 1148.38 L437.089 1171.71 L456.231 1171.71 Z" fill="#000000" fill-rule="nonzero" fill-opacity="1" /><path clip-path="url(#clip400)" d="M736.816 1635.25 Q736.816 1641.81 731.282 1646.36 Q725.79 1650.86 715.829 1650.86 L676.89 1650.86 L676.89 1646.93 L685.948 1646.93 L685.948 1597.21 L676.89 1597.21 L676.89 1593.27 L713.329 1593.27 Q723.044 1593.27 728.577 1597.46 Q734.152 1601.59 734.152 1607.7 Q734.152 1612.58 730.258 1616.11 Q726.364 1619.63 719.6 1620.82 Q727.183 1621.39 731.979 1625.33 Q736.816 1629.26 736.816 1635.25 M722.224 1607.7 Q722.224 1606.39 722.019 1605.12 Q721.814 1603.85 721.117 1602.37 Q720.461 1600.86 719.396 1599.79 Q718.371 1598.68 716.485 1597.95 Q714.641 1597.21 712.222 1597.21 L696.933 1597.21 L696.933 1619.38 L710.05 1619.38 Q715.911 1619.38 719.068 1616.11 Q722.224 1612.83 722.224 1607.7 M724.478 1635.17 Q724.478 1629.51 721.732 1626.02 Q718.863 1622.42 713.247 1622.42 L696.933 1622.42 L696.933 1646.93 L712.386 1646.93 Q714.846 1646.93 716.854 1646.31 Q718.863 1645.7 720.092 1644.8 Q721.322 1643.9 722.224 1642.63 Q723.126 1641.31 723.535 1640.25 Q723.945 1639.18 724.191 1637.95 Q724.437 1636.68 724.437 1636.19 Q724.478 1635.66 724.478 1635.17 Z" fill="#000000" fill-rule="nonzero" fill-opacity="1" /><path clip-path="url(#clip400)" d="M743.028 1300.84 Q743.028 1303.97 741.517 1307.03 Q740.006 1310.08 737.301 1312.54 Q734.595 1314.97 730.415 1316.48 Q726.269 1317.99 721.42 1317.99 Q714.815 1317.99 709.369 1316.09 Q703.924 1314.16 700.235 1310.79 Q696.546 1307.41 694.508 1302.74 Q692.505 1298.03 692.505 1292.52 Q692.505 1287 694.508 1282.33 Q696.546 1277.62 700.235 1274.25 Q703.924 1270.87 709.369 1268.98 Q714.815 1267.04 721.42 1267.04 Q729.536 1267.04 735.614 1271.93 L740.357 1267.68 Q741.095 1267.04 741.728 1267.04 Q742.641 1267.04 742.817 1267.47 Q743.028 1267.85 743.028 1269.05 L743.028 1284.51 Q743.028 1285.91 742.711 1286.23 Q742.43 1286.54 741.06 1286.54 Q739.83 1286.54 739.549 1286.33 Q739.303 1286.09 739.128 1285.03 Q737.968 1278.32 733.436 1274.39 Q728.904 1270.42 722.931 1270.42 Q713.726 1270.42 708.28 1275.93 Q703.502 1280.92 703.502 1292.52 Q703.502 1297.79 704.416 1301.69 Q705.364 1305.55 707.753 1308.47 Q710.388 1311.59 714.499 1313.1 Q718.61 1314.58 723.177 1314.58 Q725.426 1314.58 727.639 1314.05 Q729.852 1313.53 731.96 1312.4 Q734.104 1311.28 735.72 1309.66 Q737.371 1308.05 738.425 1305.69 Q739.514 1303.34 739.655 1300.56 Q739.69 1299.72 740.041 1299.54 Q740.428 1299.33 741.306 1299.33 Q742.325 1299.33 742.676 1299.58 Q743.028 1299.82 743.028 1300.84 Z" fill="#000000" fill-rule="nonzero" fill-opacity="1" /><path clip-path="url(#clip400)" d="M771.64 1306.25 Q771.711 1305.38 773.081 1305.38 L817.173 1305.38 Q819.246 1305.38 819.281 1306.18 Q819.281 1307.06 817.314 1307.03 L773.573 1307.03 Q771.64 1307.06 771.64 1306.25 M771.64 1292.2 Q771.64 1291.32 773.151 1291.36 L817.103 1291.36 Q819.246 1291.36 819.281 1292.2 Q819.281 1293.01 817.455 1293.01 L773.081 1293.01 Q771.64 1293.01 771.64 1292.2 Z" fill="#000000" fill-rule="nonzero" fill-opacity="1" /><path clip-path="url(#clip400)" d="M903.583 1317.18 Q901.053 1316.97 891.848 1316.97 Q881.906 1316.97 879.165 1317.18 L879.165 1313.81 L886.016 1313.81 L881.695 1303.3 L862.406 1303.3 L858.823 1312.02 L858.542 1312.86 Q858.542 1313.28 860.123 1313.53 Q861.739 1313.74 863.32 1313.77 L864.936 1313.81 L864.936 1317.18 Q862.266 1316.97 855.45 1316.97 L847.018 1317.18 L847.018 1313.81 L848.529 1313.81 Q851.164 1313.81 852.464 1313.6 Q853.763 1313.39 854.08 1313.1 Q854.396 1312.82 854.642 1312.16 L872.49 1268.84 Q872.911 1267.75 873.403 1267.36 Q873.895 1266.94 875.3 1266.94 Q876.073 1266.94 876.46 1267.01 Q876.846 1267.08 877.303 1267.54 Q877.795 1267.96 878.181 1268.84 L896.591 1313.81 L903.583 1313.81 L903.583 1317.18 M880.254 1299.89 L872.068 1279.9 L863.847 1299.89 L880.254 1299.89 Z" fill="#000000" fill-rule="nonzero" fill-opacity="1" /><path clip-path="url(#clip400)" d="M930.518 1300.07 Q928.866 1300.07 928.866 1299.19 Q928.866 1298.31 930.588 1298.31 Q930.799 1298.31 931.15 1298.35 Q931.537 1298.38 931.607 1298.38 L951.879 1298.38 L951.879 1278.04 Q951.879 1277.97 951.844 1277.65 Q951.809 1277.3 951.809 1277.09 Q951.809 1275.37 952.652 1275.37 Q953.53 1275.37 953.53 1277.09 L953.53 1298.38 L973.837 1298.38 Q973.908 1298.38 974.259 1298.35 Q974.61 1298.31 974.821 1298.31 Q976.472 1298.31 976.472 1299.19 Q976.508 1300.07 974.751 1300.07 Q974.54 1300.07 974.224 1300.03 Q973.908 1300 973.837 1300 L953.53 1300 L953.53 1321.36 Q953.53 1323.01 952.652 1323.01 Q951.809 1323.01 951.809 1321.29 Q951.809 1321.08 951.844 1320.73 Q951.879 1320.41 951.879 1320.34 L951.879 1300 L931.607 1300 Q931.537 1300 931.115 1300.03 Q930.728 1300.07 930.518 1300.07 Z" fill="#000000" fill-rule="nonzero" fill-opacity="1" /><path clip-path="url(#clip400)" d="M1055.61 1303.79 Q1055.61 1309.42 1050.87 1313.32 Q1046.16 1317.18 1037.62 1317.18 L1004.24 1317.18 L1004.24 1313.81 L1012.01 1313.81 L1012.01 1271.19 L1004.24 1271.19 L1004.24 1267.82 L1035.48 1267.82 Q1043.8 1267.82 1048.55 1271.4 Q1053.33 1274.95 1053.33 1280.18 Q1053.33 1284.37 1049.99 1287.39 Q1046.65 1290.41 1040.85 1291.43 Q1047.35 1291.92 1051.46 1295.29 Q1055.61 1298.66 1055.61 1303.79 M1043.1 1280.18 Q1043.1 1279.06 1042.93 1277.97 Q1042.75 1276.88 1042.15 1275.62 Q1041.59 1274.32 1040.68 1273.4 Q1039.8 1272.45 1038.18 1271.82 Q1036.6 1271.19 1034.53 1271.19 L1021.42 1271.19 L1021.42 1290.2 L1032.67 1290.2 Q1037.69 1290.2 1040.4 1287.39 Q1043.1 1284.58 1043.1 1280.18 M1045.03 1303.72 Q1045.03 1298.88 1042.68 1295.89 Q1040.22 1292.8 1035.41 1292.8 L1021.42 1292.8 L1021.42 1313.81 L1034.67 1313.81 Q1036.78 1313.81 1038.5 1313.28 Q1040.22 1312.75 1041.27 1311.98 Q1042.33 1311.21 1043.1 1310.12 Q1043.87 1308.99 1044.23 1308.08 Q1044.58 1307.17 1044.79 1306.11 Q1045 1305.02 1045 1304.6 Q1045.03 1304.15 1045.03 1303.72 Z" fill="#000000" fill-rule="nonzero" fill-opacity="1" /><path clip-path="url(#clip400)" d="M1802.79 1977.91 Q1803.28 1978.41 1803.28 1979.1 Q1803.28 1979.8 1802.79 1980.29 Q1802.3 1980.78 1801.6 1980.78 L1749.05 1980.78 Q1748.36 1980.78 1747.87 1980.29 Q1747.37 1979.8 1747.37 1979.1 Q1747.37 1978.41 1747.87 1977.91 Q1748.36 1977.42 1749.05 1977.42 L1801.6 1977.42 Q1802.3 1977.42 1802.79 1977.91 Z" fill="#000000" fill-rule="nonzero" fill-opacity="1" /><path clip-path="url(#clip400)" d="M1871.96 1984.47 Q1871.96 1991.03 1866.43 1995.58 Q1860.94 2000.09 1850.98 2000.09 L1812.04 2000.09 L1812.04 1996.15 L1821.1 1996.15 L1821.1 1946.43 L1812.04 1946.43 L1812.04 1942.5 L1848.48 1942.5 Q1858.19 1942.5 1863.72 1946.68 Q1869.3 1950.82 1869.3 1956.93 Q1869.3 1961.8 1865.4 1965.33 Q1861.51 1968.86 1854.75 1970.04 Q1862.33 1970.62 1867.13 1974.55 Q1871.96 1978.49 1871.96 1984.47 M1857.37 1956.93 Q1857.37 1955.62 1857.17 1954.34 Q1856.96 1953.07 1856.26 1951.6 Q1855.61 1950.08 1854.54 1949.02 Q1853.52 1947.91 1851.63 1947.17 Q1849.79 1946.43 1847.37 1946.43 L1832.08 1946.43 L1832.08 1968.61 L1845.2 1968.61 Q1851.06 1968.61 1854.21 1965.33 Q1857.37 1962.05 1857.37 1956.93 M1859.63 1984.39 Q1859.63 1978.73 1856.88 1975.25 Q1854.01 1971.64 1848.39 1971.64 L1832.08 1971.64 L1832.08 1996.15 L1847.53 1996.15 Q1849.99 1996.15 1852 1995.54 Q1854.01 1994.92 1855.24 1994.02 Q1856.47 1993.12 1857.37 1991.85 Q1858.27 1990.54 1858.68 1989.47 Q1859.09 1988.41 1859.34 1987.18 Q1859.58 1985.91 1859.58 1985.41 Q1859.63 1984.88 1859.63 1984.39 Z" fill="#000000" fill-rule="nonzero" fill-opacity="1" /><path clip-path="url(#clip400)" d="M2574.84 1635.25 Q2574.84 1641.81 2569.31 1646.36 Q2563.82 1650.86 2553.86 1650.86 L2514.92 1650.86 L2514.92 1646.93 L2523.97 1646.93 L2523.97 1597.21 L2514.92 1597.21 L2514.92 1593.27 L2551.35 1593.27 Q2561.07 1593.27 2566.6 1597.46 Q2572.18 1601.59 2572.18 1607.7 Q2572.18 1612.58 2568.28 1616.11 Q2564.39 1619.63 2557.63 1620.82 Q2565.21 1621.39 2570 1625.33 Q2574.84 1629.26 2574.84 1635.25 M2560.25 1607.7 Q2560.25 1606.39 2560.04 1605.12 Q2559.84 1603.85 2559.14 1602.37 Q2558.49 1600.86 2557.42 1599.79 Q2556.4 1598.68 2554.51 1597.95 Q2552.67 1597.21 2550.25 1597.21 L2534.96 1597.21 L2534.96 1619.38 L2548.08 1619.38 Q2553.94 1619.38 2557.09 1616.11 Q2560.25 1612.83 2560.25 1607.7 M2562.5 1635.17 Q2562.5 1629.51 2559.76 1626.02 Q2556.89 1622.42 2551.27 1622.42 L2534.96 1622.42 L2534.96 1646.93 L2550.41 1646.93 Q2552.87 1646.93 2554.88 1646.31 Q2556.89 1645.7 2558.12 1644.8 Q2559.35 1643.9 2560.25 1642.63 Q2561.15 1641.31 2561.56 1640.25 Q2561.97 1639.18 2562.22 1637.95 Q2562.46 1636.68 2562.46 1636.19 Q2562.5 1635.66 2562.5 1635.17 Z" fill="#000000" fill-rule="nonzero" fill-opacity="1" /><path clip-path="url(#clip400)" d="M1716.61 1631.85 Q1716.61 1635.5 1714.85 1639.07 Q1713.09 1642.63 1709.93 1645.5 Q1706.78 1648.33 1701.9 1650.09 Q1697.06 1651.85 1691.41 1651.85 Q1683.7 1651.85 1677.35 1649.64 Q1670.99 1647.39 1666.69 1643.45 Q1662.39 1639.52 1660.01 1634.06 Q1657.67 1628.57 1657.67 1622.14 Q1657.67 1615.7 1660.01 1610.25 Q1662.39 1604.76 1666.69 1600.82 Q1670.99 1596.89 1677.35 1594.67 Q1683.7 1592.42 1691.41 1592.42 Q1700.88 1592.42 1707.97 1598.12 L1713.5 1593.16 Q1714.36 1592.42 1715.1 1592.42 Q1716.16 1592.42 1716.37 1592.91 Q1716.61 1593.36 1716.61 1594.76 L1716.61 1612.79 Q1716.61 1614.43 1716.25 1614.8 Q1715.92 1615.17 1714.32 1615.17 Q1712.88 1615.17 1712.56 1614.92 Q1712.27 1614.64 1712.07 1613.41 Q1710.71 1605.58 1705.42 1600.99 Q1700.14 1596.35 1693.17 1596.35 Q1682.43 1596.35 1676.08 1602.79 Q1670.5 1608.61 1670.5 1622.14 Q1670.5 1628.28 1671.57 1632.83 Q1672.67 1637.34 1675.46 1640.75 Q1678.54 1644.39 1683.33 1646.16 Q1688.13 1647.88 1693.46 1647.88 Q1696.08 1647.88 1698.66 1647.26 Q1701.24 1646.65 1703.7 1645.34 Q1706.2 1644.02 1708.09 1642.14 Q1710.02 1640.25 1711.25 1637.51 Q1712.52 1634.76 1712.68 1631.52 Q1712.72 1630.54 1713.13 1630.33 Q1713.58 1630.09 1714.61 1630.09 Q1715.8 1630.09 1716.21 1630.38 Q1716.61 1630.66 1716.61 1631.85 Z" fill="#000000" fill-rule="nonzero" fill-opacity="1" /><path clip-path="url(#clip400)" d="M1750.01 1638.16 Q1750.09 1637.14 1751.69 1637.14 L1803.13 1637.14 Q1805.55 1637.14 1805.59 1638.08 Q1805.59 1639.11 1803.29 1639.07 L1752.26 1639.07 Q1750.01 1639.11 1750.01 1638.16 M1750.01 1621.77 Q1750.01 1620.74 1751.77 1620.78 L1803.05 1620.78 Q1805.55 1620.78 1805.59 1621.77 Q1805.59 1622.71 1803.46 1622.71 L1751.69 1622.71 Q1750.01 1622.71 1750.01 1621.77 Z" fill="#000000" fill-rule="nonzero" fill-opacity="1" /><path clip-path="url(#clip400)" d="M1903.95 1650.91 Q1901 1650.67 1890.26 1650.67 Q1878.66 1650.67 1875.46 1650.91 L1875.46 1646.98 L1883.46 1646.98 L1878.42 1634.72 L1855.91 1634.72 L1851.73 1644.89 L1851.4 1645.87 Q1851.4 1646.36 1853.25 1646.65 Q1855.13 1646.89 1856.98 1646.94 L1858.86 1646.98 L1858.86 1650.91 Q1855.75 1650.67 1847.8 1650.67 L1837.96 1650.91 L1837.96 1646.98 L1839.72 1646.98 Q1842.8 1646.98 1844.31 1646.73 Q1845.83 1646.48 1846.2 1646.16 Q1846.57 1645.83 1846.85 1645.05 L1867.68 1594.51 Q1868.17 1593.24 1868.74 1592.79 Q1869.32 1592.3 1870.96 1592.3 Q1871.86 1592.3 1872.31 1592.38 Q1872.76 1592.46 1873.29 1592.99 Q1873.87 1593.48 1874.32 1594.51 L1895.8 1646.98 L1903.95 1646.98 L1903.95 1650.91 M1876.74 1630.74 L1867.18 1607.42 L1857.59 1630.74 L1876.74 1630.74 Z" fill="#000000" fill-rule="nonzero" fill-opacity="1" /><path clip-path="url(#clip400)" d="M1988.88 1628.74 Q1989.37 1629.23 1989.37 1629.92 Q1989.37 1630.62 1988.88 1631.11 Q1988.39 1631.61 1987.69 1631.61 L1935.14 1631.61 Q1934.45 1631.61 1933.95 1631.11 Q1933.46 1630.62 1933.46 1629.92 Q1933.46 1629.23 1933.95 1628.74 Q1934.45 1628.24 1935.14 1628.24 L1987.69 1628.24 Q1988.39 1628.24 1988.88 1628.74 Z" fill="#000000" fill-rule="nonzero" fill-opacity="1" /><path clip-path="url(#clip400)" d="M2081.34 1635.29 Q2081.34 1641.85 2075.81 1646.4 Q2070.31 1650.91 2060.35 1650.91 L2021.41 1650.91 L2021.41 1646.98 L2030.47 1646.98 L2030.47 1597.26 L2021.41 1597.26 L2021.41 1593.32 L2057.85 1593.32 Q2067.57 1593.32 2073.1 1597.5 Q2078.67 1601.64 2078.67 1607.75 Q2078.67 1612.63 2074.78 1616.15 Q2070.89 1619.68 2064.12 1620.87 Q2071.71 1621.44 2076.5 1625.37 Q2081.34 1629.31 2081.34 1635.29 M2066.75 1607.75 Q2066.75 1606.44 2066.54 1605.17 Q2066.34 1603.9 2065.64 1602.42 Q2064.98 1600.9 2063.92 1599.84 Q2062.89 1598.73 2061.01 1597.99 Q2059.16 1597.26 2056.75 1597.26 L2041.46 1597.26 L2041.46 1619.43 L2054.57 1619.43 Q2060.43 1619.43 2063.59 1616.15 Q2066.75 1612.87 2066.75 1607.75 M2069 1635.21 Q2069 1629.56 2066.26 1626.07 Q2063.39 1622.46 2057.77 1622.46 L2041.46 1622.46 L2041.46 1646.98 L2056.91 1646.98 Q2059.37 1646.98 2061.38 1646.36 Q2063.39 1645.75 2064.62 1644.84 Q2065.85 1643.94 2066.75 1642.67 Q2067.65 1641.36 2068.06 1640.29 Q2068.47 1639.23 2068.71 1638 Q2068.96 1636.73 2068.96 1636.24 Q2069 1635.7 2069 1635.21 Z" fill="#000000" fill-rule="nonzero" fill-opacity="1" /><path clip-path="url(#clip400)" d="M2486.9 1191.87 Q2483.94 1191.63 2473.21 1191.63 Q2461.61 1191.63 2458.41 1191.87 L2458.41 1187.94 L2466.4 1187.94 L2461.36 1175.68 L2438.86 1175.68 L2434.68 1185.85 L2434.35 1186.83 Q2434.35 1187.32 2436.19 1187.61 Q2438.08 1187.86 2439.92 1187.9 L2441.81 1187.94 L2441.81 1191.87 Q2438.69 1191.63 2430.74 1191.63 L2420.9 1191.87 L2420.9 1187.94 L2422.67 1187.94 Q2425.74 1187.94 2427.26 1187.69 Q2428.77 1187.45 2429.14 1187.12 Q2429.51 1186.79 2429.8 1186.01 L2450.62 1135.47 Q2451.11 1134.2 2451.69 1133.75 Q2452.26 1133.26 2453.9 1133.26 Q2454.8 1133.26 2455.25 1133.34 Q2455.7 1133.42 2456.24 1133.96 Q2456.81 1134.45 2457.26 1135.47 L2478.74 1187.94 L2486.9 1187.94 L2486.9 1191.87 M2459.68 1171.71 L2450.13 1148.38 L2440.54 1171.71 L2459.68 1171.71 Z" fill="#000000" fill-rule="nonzero" fill-opacity="1" /></svg>
