<?xml version="1.0" encoding="utf-8"?>
<svg xmlns="http://www.w3.org/2000/svg" xmlns:xlink="http://www.w3.org/1999/xlink" width="1000" height="500" viewBox="0 0 4000 2000">
<defs>
  <clipPath id="clip600">
    <rect x="0" y="0" width="4000" height="2000"/>
  </clipPath>
</defs>
<path clip-path="url(#clip600)" d="M0 2000 L4000 2000 L4000 0 L0 0  Z" fill="#ffffff" fill-rule="evenodd" fill-opacity="1"/>
<defs>
  <clipPath id="clip601">
    <rect x="800" y="0" width="2801" height="2000"/>
  </clipPath>
</defs>
<path clip-path="url(#clip600)" d="M128.177 1759.82 L1709.48 1759.82 L1709.48 178.515 L128.177 178.515  Z" fill="#ffffff" fill-rule="evenodd" fill-opacity="1"/>
<defs>
  <clipPath id="clip602">
    <rect x="128" y="178" width="1582" height="1582"/>
  </clipPath>
</defs>
<polyline clip-path="url(#clip602)" style="stroke:#009af9; stroke-linecap:round; stroke-linejoin:round; stroke-width:12; stroke-opacity:1; fill:none" points="286.307,1601.69 602.568,652.906 "/>
<polyline clip-path="url(#clip602)" style="stroke:#009af9; stroke-linecap:round; stroke-linejoin:round; stroke-width:12; stroke-opacity:1; fill:none" points="555.133,700.34 602.568,652.906 612.054,719.314 "/>
<polyline clip-path="url(#clip602)" style="stroke:#009af9; stroke-linecap:round; stroke-linejoin:round; stroke-width:12; stroke-opacity:1; fill:none" points="602.568,652.906 286.307,1601.69 "/>
<polyline clip-path="url(#clip602)" style="stroke:#e26f46; stroke-linecap:round; stroke-linejoin:round; stroke-width:12; stroke-opacity:1; fill:none" points="286.307,1601.69 1235.09,1127.3 "/>
<polyline clip-path="url(#clip602)" style="stroke:#e26f46; stroke-linecap:round; stroke-linejoin:round; stroke-width:12; stroke-opacity:1; fill:none" points="1168.01,1127.3 1235.09,1127.3 1194.84,1180.96 "/>
<polyline clip-path="url(#clip602)" style="stroke:#e26f46; stroke-linecap:round; stroke-linejoin:round; stroke-width:12; stroke-opacity:1; fill:none" points="1235.09,1127.3 286.307,1601.69 "/>
<polyline clip-path="url(#clip602)" style="stroke:#000000; stroke-linecap:round; stroke-linejoin:round; stroke-width:12; stroke-opacity:1; fill:none" stroke-dasharray="48, 30" points="602.568,652.906 918.828,1285.43 "/>
<polyline clip-path="url(#clip602)" style="stroke:#009af9; stroke-linecap:round; stroke-linejoin:round; stroke-width:12; stroke-opacity:1; fill:none" stroke-dasharray="48, 30" points="286.307,1601.69 918.828,1285.43 "/>
<polyline clip-path="url(#clip602)" style="stroke:#000000; stroke-linecap:round; stroke-linejoin:round; stroke-width:12; stroke-opacity:1; fill:none" points="975.402,1257.14 947.115,1200.56 890.541,1228.85 "/>
<polyline clip-path="url(#clip602)" style="stroke:#000000; stroke-linecap:round; stroke-linejoin:round; stroke-width:12; stroke-opacity:1; fill:none" stroke-dasharray="48, 30" points="427.743,1530.97 421.042,1518.91 413.314,1507.48 404.621,1496.77 395.027,1486.86 384.605,1477.82 373.435,1469.73 361.603,1462.63 349.197,1456.6 336.312,1451.67 "/>
<path clip-path="url(#clip600)" d="M533.102 681.929 Q530.15 681.683 519.411 681.683 Q507.811 681.683 504.614 681.929 L504.614 677.994 L512.607 677.994 L507.565 665.738 L485.062 665.738 L480.881 675.904 L480.553 676.887 Q480.553 677.379 482.398 677.666 Q484.283 677.912 486.128 677.953 L488.013 677.994 L488.013 681.929 Q484.898 681.683 476.946 681.683 L467.109 681.929 L467.109 677.994 L468.871 677.994 Q471.946 677.994 473.462 677.748 Q474.979 677.502 475.348 677.174 Q475.717 676.846 476.004 676.068 L496.826 625.528 Q497.318 624.257 497.892 623.806 Q498.466 623.314 500.105 623.314 Q501.007 623.314 501.458 623.396 Q501.909 623.478 502.442 624.011 Q503.015 624.503 503.466 625.528 L524.945 677.994 L533.102 677.994 L533.102 681.929 M505.885 661.762 L496.334 638.439 L486.743 661.762 L505.885 661.762 Z" fill="#000000" fill-rule="nonzero" fill-opacity="1" /><path clip-path="url(#clip600)" d="M1163.78 1266.7 Q1163.78 1273.26 1158.24 1277.81 Q1152.75 1282.32 1142.79 1282.32 L1103.85 1282.32 L1103.85 1278.38 L1112.91 1278.38 L1112.91 1228.66 L1103.85 1228.66 L1103.85 1224.73 L1140.29 1224.73 Q1150 1224.73 1155.54 1228.91 Q1161.11 1233.05 1161.11 1239.15 Q1161.11 1244.03 1157.22 1247.56 Q1153.32 1251.08 1146.56 1252.27 Q1154.14 1252.84 1158.94 1256.78 Q1163.78 1260.71 1163.78 1266.7 M1149.18 1239.15 Q1149.18 1237.84 1148.98 1236.57 Q1148.77 1235.3 1148.08 1233.83 Q1147.42 1232.31 1146.36 1231.24 Q1145.33 1230.14 1143.45 1229.4 Q1141.6 1228.66 1139.18 1228.66 L1123.89 1228.66 L1123.89 1250.84 L1137.01 1250.84 Q1142.87 1250.84 1146.03 1247.56 Q1149.18 1244.28 1149.18 1239.15 M1151.44 1266.62 Q1151.44 1260.96 1148.69 1257.48 Q1145.82 1253.87 1140.21 1253.87 L1123.89 1253.87 L1123.89 1278.38 L1139.35 1278.38 Q1141.81 1278.38 1143.82 1277.77 Q1145.82 1277.15 1147.05 1276.25 Q1148.28 1275.35 1149.18 1274.08 Q1150.09 1272.77 1150.5 1271.7 Q1150.91 1270.63 1151.15 1269.4 Q1151.4 1268.13 1151.4 1267.64 Q1151.44 1267.11 1151.44 1266.62 Z" fill="#000000" fill-rule="nonzero" fill-opacity="1" /><path clip-path="url(#clip600)" d="M459.632 1414.61 Q459.632 1421.5 457.419 1429.24 Q455.246 1436.95 451.803 1443.18 Q448.36 1449.37 443.851 1453.47 Q439.342 1457.53 435.038 1457.53 Q432.292 1457.53 430.243 1456.01 Q428.234 1454.45 427.127 1451.87 Q426.021 1449.25 425.488 1446.38 Q424.955 1443.47 424.955 1440.31 Q424.955 1435.6 425.98 1430.47 Q427.005 1425.31 428.726 1420.64 Q430.448 1415.92 432.866 1411.66 Q435.284 1407.36 437.949 1404.24 Q440.654 1401.09 443.687 1399.24 Q446.72 1397.4 449.549 1397.4 Q451.598 1397.4 453.238 1398.3 Q454.918 1399.16 455.984 1400.68 Q457.05 1402.15 457.787 1403.91 Q458.566 1405.68 458.935 1407.73 Q459.304 1409.73 459.468 1411.41 Q459.632 1413.05 459.632 1414.61 M454.098 1409.41 Q454.098 1407.32 453.934 1405.76 Q453.771 1404.16 453.32 1402.56 Q452.869 1400.96 451.885 1400.1 Q450.942 1399.24 449.467 1399.24 Q445.163 1399.24 440.326 1408.05 Q438.768 1410.8 437.375 1414.53 Q435.981 1418.26 435.489 1420.02 Q434.997 1421.78 433.85 1426.13 L451.393 1426.13 Q454.098 1414.94 454.098 1409.41 M450.655 1428.79 L433.194 1428.79 Q430.489 1439.04 430.489 1445.44 Q430.489 1451.01 431.636 1453.35 Q432.825 1455.64 435.038 1455.64 Q437.58 1455.64 439.957 1453.1 Q442.335 1450.52 444.753 1445.85 Q447.95 1439.78 450.655 1428.79 Z" fill="#000000" fill-rule="nonzero" fill-opacity="1" /><path clip-path="url(#clip600)" d="M386.312 1579.03 L386.312 1601.76 L396.601 1601.76 Q402.313 1601.76 405.432 1598.8 Q408.551 1595.84 408.551 1590.38 Q408.551 1584.95 405.432 1581.99 Q402.313 1579.03 396.601 1579.03 L386.312 1579.03 M378.129 1572.31 L396.601 1572.31 Q406.769 1572.31 411.954 1576.93 Q417.18 1581.5 417.18 1590.38 Q417.18 1599.33 411.954 1603.91 Q406.769 1608.48 396.601 1608.48 L386.312 1608.48 L386.312 1632.79 L378.129 1632.79 L378.129 1572.31 Z" fill="#000000" fill-rule="nonzero" fill-opacity="1" /><path clip-path="url(#clip600)" d="M452.666 1594.39 Q451.41 1593.66 449.911 1593.33 Q448.453 1592.97 446.67 1592.97 Q440.351 1592.97 436.948 1597.1 Q433.586 1601.19 433.586 1608.89 L433.586 1632.79 L426.092 1632.79 L426.092 1587.42 L433.586 1587.42 L433.586 1594.47 Q435.936 1590.34 439.703 1588.35 Q443.47 1586.33 448.858 1586.33 Q449.628 1586.33 450.559 1586.45 Q451.491 1586.53 452.625 1586.73 L452.666 1594.39 Z" fill="#000000" fill-rule="nonzero" fill-opacity="1" /><path clip-path="url(#clip600)" d="M476.242 1592.64 Q470.247 1592.64 466.763 1597.34 Q463.279 1602 463.279 1610.14 Q463.279 1618.29 466.722 1622.99 Q470.206 1627.64 476.242 1627.64 Q482.197 1627.64 485.681 1622.95 Q489.164 1618.25 489.164 1610.14 Q489.164 1602.08 485.681 1597.38 Q482.197 1592.64 476.242 1592.64 M476.242 1586.33 Q485.964 1586.33 491.514 1592.64 Q497.064 1598.96 497.064 1610.14 Q497.064 1621.28 491.514 1627.64 Q485.964 1633.96 476.242 1633.96 Q466.479 1633.96 460.93 1627.64 Q455.42 1621.28 455.42 1610.14 Q455.42 1598.96 460.93 1592.64 Q466.479 1586.33 476.242 1586.33 Z" fill="#000000" fill-rule="nonzero" fill-opacity="1" /><path clip-path="url(#clip600)" d="M509.419 1587.42 L516.873 1587.42 L516.873 1633.6 Q516.873 1642.27 513.551 1646.16 Q510.27 1650.05 502.938 1650.05 L500.102 1650.05 L500.102 1643.73 L502.087 1643.73 Q506.34 1643.73 507.88 1641.74 Q509.419 1639.8 509.419 1633.6 L509.419 1587.42 M509.419 1569.76 L516.873 1569.76 L516.873 1579.2 L509.419 1579.2 L509.419 1569.76 Z" fill="#000000" fill-rule="nonzero" fill-opacity="1" /><path clip-path="url(#clip600)" d="M571.276 1608.24 L571.276 1611.89 L537.006 1611.89 Q537.492 1619.58 541.624 1623.63 Q545.796 1627.64 553.209 1627.64 Q557.503 1627.64 561.514 1626.59 Q565.565 1625.54 569.534 1623.43 L569.534 1630.48 Q565.524 1632.18 561.311 1633.07 Q557.098 1633.96 552.764 1633.96 Q541.907 1633.96 535.547 1627.64 Q529.228 1621.33 529.228 1610.55 Q529.228 1599.41 535.223 1592.89 Q541.259 1586.33 551.467 1586.33 Q560.622 1586.33 565.929 1592.24 Q571.276 1598.11 571.276 1608.24 M563.823 1606.05 Q563.742 1599.94 560.379 1596.29 Q557.058 1592.64 551.548 1592.64 Q545.31 1592.64 541.543 1596.17 Q537.816 1599.69 537.249 1606.09 L563.823 1606.05 Z" fill="#000000" fill-rule="nonzero" fill-opacity="1" /><path clip-path="url(#clip600)" d="M616.16 1589.16 L616.16 1596.13 Q613.001 1594.39 609.8 1593.54 Q606.641 1592.64 603.4 1592.64 Q596.149 1592.64 592.138 1597.26 Q588.128 1601.84 588.128 1610.14 Q588.128 1618.45 592.138 1623.07 Q596.149 1627.64 603.4 1627.64 Q606.641 1627.64 609.8 1626.79 Q613.001 1625.9 616.16 1624.16 L616.16 1631.05 Q613.041 1632.51 609.679 1633.23 Q606.357 1633.96 602.59 1633.96 Q592.341 1633.96 586.305 1627.52 Q580.269 1621.08 580.269 1610.14 Q580.269 1599.05 586.346 1592.69 Q592.463 1586.33 603.076 1586.33 Q606.519 1586.33 609.8 1587.05 Q613.082 1587.74 616.16 1589.16 Z" fill="#000000" fill-rule="nonzero" fill-opacity="1" /><path clip-path="url(#clip600)" d="M636.496 1574.54 L636.496 1587.42 L651.849 1587.42 L651.849 1593.21 L636.496 1593.21 L636.496 1617.84 Q636.496 1623.39 637.995 1624.97 Q639.534 1626.55 644.193 1626.55 L651.849 1626.55 L651.849 1632.79 L644.193 1632.79 Q635.564 1632.79 632.283 1629.59 Q629.002 1626.35 629.002 1617.84 L629.002 1593.21 L623.533 1593.21 L623.533 1587.42 L629.002 1587.42 L629.002 1574.54 L636.496 1574.54 Z" fill="#000000" fill-rule="nonzero" fill-opacity="1" /><path clip-path="url(#clip600)" d="M661.652 1587.42 L669.106 1587.42 L669.106 1632.79 L661.652 1632.79 L661.652 1587.42 M661.652 1569.76 L669.106 1569.76 L669.106 1579.2 L661.652 1579.2 L661.652 1569.76 Z" fill="#000000" fill-rule="nonzero" fill-opacity="1" /><path clip-path="url(#clip600)" d="M702.283 1592.64 Q696.287 1592.64 692.803 1597.34 Q689.32 1602 689.32 1610.14 Q689.32 1618.29 692.763 1622.99 Q696.247 1627.64 702.283 1627.64 Q708.237 1627.64 711.721 1622.95 Q715.205 1618.25 715.205 1610.14 Q715.205 1602.08 711.721 1597.38 Q708.237 1592.64 702.283 1592.64 M702.283 1586.33 Q712.005 1586.33 717.554 1592.64 Q723.104 1598.96 723.104 1610.14 Q723.104 1621.28 717.554 1627.64 Q712.005 1633.96 702.283 1633.96 Q692.52 1633.96 686.97 1627.64 Q681.461 1621.28 681.461 1610.14 Q681.461 1598.96 686.97 1592.64 Q692.52 1586.33 702.283 1586.33 Z" fill="#000000" fill-rule="nonzero" fill-opacity="1" /><path clip-path="url(#clip600)" d="M773.173 1605.4 L773.173 1632.79 L765.72 1632.79 L765.72 1605.65 Q765.72 1599.21 763.208 1596.01 Q760.697 1592.81 755.673 1592.81 Q749.638 1592.81 746.154 1596.66 Q742.67 1600.5 742.67 1607.15 L742.67 1632.79 L735.176 1632.79 L735.176 1587.42 L742.67 1587.42 L742.67 1594.47 Q745.344 1590.38 748.949 1588.35 Q752.595 1586.33 757.334 1586.33 Q765.153 1586.33 769.163 1591.19 Q773.173 1596.01 773.173 1605.4 Z" fill="#000000" fill-rule="nonzero" fill-opacity="1" /><path clip-path="url(#clip600)" d="M831.992 1592.64 Q825.997 1592.64 822.513 1597.34 Q819.03 1602 819.03 1610.14 Q819.03 1618.29 822.473 1622.99 Q825.957 1627.64 831.992 1627.64 Q837.947 1627.64 841.431 1622.95 Q844.915 1618.25 844.915 1610.14 Q844.915 1602.08 841.431 1597.38 Q837.947 1592.64 831.992 1592.64 M831.992 1586.33 Q841.715 1586.33 847.264 1592.64 Q852.814 1598.96 852.814 1610.14 Q852.814 1621.28 847.264 1627.64 Q841.715 1633.96 831.992 1633.96 Q822.23 1633.96 816.68 1627.64 Q811.171 1621.28 811.171 1610.14 Q811.171 1598.96 816.68 1592.64 Q822.23 1586.33 831.992 1586.33 Z" fill="#000000" fill-rule="nonzero" fill-opacity="1" /><path clip-path="url(#clip600)" d="M888.138 1569.76 L888.138 1575.95 L881.008 1575.95 Q876.998 1575.95 875.418 1577.58 Q873.879 1579.2 873.879 1583.41 L873.879 1587.42 L886.153 1587.42 L886.153 1593.21 L873.879 1593.21 L873.879 1632.79 L866.385 1632.79 L866.385 1593.21 L859.255 1593.21 L859.255 1587.42 L866.385 1587.42 L866.385 1584.26 Q866.385 1576.68 869.909 1573.24 Q873.433 1569.76 881.089 1569.76 L888.138 1569.76 Z" fill="#000000" fill-rule="nonzero" fill-opacity="1" /><path clip-path="url(#clip600)" d="M978.922 1632.79 Q975.971 1632.54 965.232 1632.54 Q953.632 1632.54 950.435 1632.79 L950.435 1628.85 L958.428 1628.85 L953.386 1616.6 L930.883 1616.6 L926.702 1626.76 L926.374 1627.75 Q926.374 1628.24 928.219 1628.53 Q930.104 1628.77 931.949 1628.81 L933.834 1628.85 L933.834 1632.79 Q930.719 1632.54 922.767 1632.54 L912.93 1632.79 L912.93 1628.85 L914.692 1628.85 Q917.766 1628.85 919.283 1628.61 Q920.799 1628.36 921.168 1628.03 Q921.537 1627.71 921.824 1626.93 L942.647 1576.39 Q943.139 1575.12 943.712 1574.67 Q944.286 1574.17 945.926 1574.17 Q946.828 1574.17 947.279 1574.26 Q947.729 1574.34 948.262 1574.87 Q948.836 1575.36 949.287 1576.39 L970.765 1628.85 L978.922 1628.85 L978.922 1632.79 M951.705 1612.62 L942.155 1589.3 L932.563 1612.62 L951.705 1612.62 Z" fill="#000000" fill-rule="nonzero" fill-opacity="1" /><path clip-path="url(#clip600)" d="M621.37 1682.86 Q615.375 1682.86 611.891 1687.56 Q608.407 1692.21 608.407 1700.36 Q608.407 1708.5 611.85 1713.2 Q615.334 1717.86 621.37 1717.86 Q627.325 1717.86 630.808 1713.16 Q634.292 1708.46 634.292 1700.36 Q634.292 1692.3 630.808 1687.6 Q627.325 1682.86 621.37 1682.86 M621.37 1676.54 Q631.092 1676.54 636.642 1682.86 Q642.191 1689.18 642.191 1700.36 Q642.191 1711.5 636.642 1717.86 Q631.092 1724.18 621.37 1724.18 Q611.607 1724.18 606.057 1717.86 Q600.548 1711.5 600.548 1700.36 Q600.548 1689.18 606.057 1682.86 Q611.607 1676.54 621.37 1676.54 Z" fill="#000000" fill-rule="nonzero" fill-opacity="1" /><path clip-path="url(#clip600)" d="M692.261 1695.62 L692.261 1723 L684.807 1723 L684.807 1695.86 Q684.807 1689.42 682.295 1686.22 Q679.784 1683.02 674.761 1683.02 Q668.725 1683.02 665.241 1686.87 Q661.757 1690.72 661.757 1697.36 L661.757 1723 L654.263 1723 L654.263 1677.63 L661.757 1677.63 L661.757 1684.68 Q664.431 1680.59 668.036 1678.56 Q671.682 1676.54 676.422 1676.54 Q684.24 1676.54 688.25 1681.4 Q692.261 1686.22 692.261 1695.62 Z" fill="#000000" fill-rule="nonzero" fill-opacity="1" /><path clip-path="url(#clip600)" d="M785.607 1707.38 Q785.607 1713.94 780.073 1718.49 Q774.581 1723 764.62 1723 L725.681 1723 L725.681 1719.07 L734.739 1719.07 L734.739 1669.35 L725.681 1669.35 L725.681 1665.41 L762.12 1665.41 Q771.835 1665.41 777.368 1669.59 Q782.943 1673.73 782.943 1679.84 Q782.943 1684.72 779.049 1688.24 Q775.155 1691.77 768.391 1692.96 Q775.974 1693.53 780.77 1697.46 Q785.607 1701.4 785.607 1707.38 M771.015 1679.84 Q771.015 1678.53 770.81 1677.26 Q770.605 1675.99 769.908 1674.51 Q769.252 1672.99 768.187 1671.93 Q767.162 1670.82 765.276 1670.08 Q763.432 1669.35 761.013 1669.35 L745.724 1669.35 L745.724 1691.52 L758.841 1691.52 Q764.702 1691.52 767.859 1688.24 Q771.015 1684.96 771.015 1679.84 M773.269 1707.3 Q773.269 1701.65 770.523 1698.16 Q767.654 1694.55 762.038 1694.55 L745.724 1694.55 L745.724 1719.07 L761.177 1719.07 Q763.637 1719.07 765.645 1718.45 Q767.654 1717.84 768.883 1716.93 Q770.113 1716.03 771.015 1714.76 Q771.917 1713.45 772.326 1712.39 Q772.736 1711.32 772.982 1710.09 Q773.228 1708.82 773.228 1708.33 Q773.269 1707.79 773.269 1707.3 Z" fill="#000000" fill-rule="nonzero" fill-opacity="1" /><path clip-path="url(#clip600)" d="M2128.18 1759.82 L3709.48 1759.82 L3709.48 178.515 L2128.18 178.515  Z" fill="#ffffff" fill-rule="evenodd" fill-opacity="1"/>
<defs>
  <clipPath id="clip603">
    <rect x="2128" y="178" width="1582" height="1582"/>
  </clipPath>
</defs>
<polyline clip-path="url(#clip603)" style="stroke:#009af9; stroke-linecap:round; stroke-linejoin:round; stroke-width:12; stroke-opacity:1; fill:none" points="2286.31,1601.69 2602.57,652.906 "/>
<polyline clip-path="url(#clip603)" style="stroke:#009af9; stroke-linecap:round; stroke-linejoin:round; stroke-width:12; stroke-opacity:1; fill:none" points="2555.13,700.34 2602.57,652.906 2612.05,719.314 "/>
<polyline clip-path="url(#clip603)" style="stroke:#009af9; stroke-linecap:round; stroke-linejoin:round; stroke-width:12; stroke-opacity:1; fill:none" points="2602.57,652.906 2286.31,1601.69 "/>
<polyline clip-path="url(#clip603)" style="stroke:#e26f46; stroke-linecap:round; stroke-linejoin:round; stroke-width:12; stroke-opacity:1; fill:none" points="2286.31,1601.69 3235.09,1127.3 "/>
<polyline clip-path="url(#clip603)" style="stroke:#e26f46; stroke-linecap:round; stroke-linejoin:round; stroke-width:12; stroke-opacity:1; fill:none" points="3168.01,1127.3 3235.09,1127.3 3194.84,1180.96 "/>
<polyline clip-path="url(#clip603)" style="stroke:#e26f46; stroke-linecap:round; stroke-linejoin:round; stroke-width:12; stroke-opacity:1; fill:none" points="3235.09,1127.3 2286.31,1601.69 "/>
<polyline clip-path="url(#clip603)" style="stroke:#000000; stroke-linecap:round; stroke-linejoin:round; stroke-width:12; stroke-opacity:1; fill:none" stroke-dasharray="48, 30" points="3235.09,1127.3 2523.5,890.101 "/>
<polyline clip-path="url(#clip603)" style="stroke:#e26f46; stroke-linecap:round; stroke-linejoin:round; stroke-width:12; stroke-opacity:1; fill:none" stroke-dasharray="48, 30" points="2286.31,1601.69 2523.5,890.101 "/>
<polyline clip-path="url(#clip603)" style="stroke:#000000; stroke-linecap:round; stroke-linejoin:round; stroke-width:12; stroke-opacity:1; fill:none" points="2543.5,830.095 2603.51,850.097 2583.51,910.103 "/>
<polyline clip-path="url(#clip603)" style="stroke:#000000; stroke-linecap:round; stroke-linejoin:round; stroke-width:12; stroke-opacity:1; fill:none" stroke-dasharray="48, 30" points="2427.74,1530.97 2421.04,1518.91 2413.31,1507.48 2404.62,1496.77 2395.03,1486.86 2384.61,1477.82 2373.44,1469.73 2361.6,1462.63 2349.2,1456.6 2336.31,1451.67 "/>
<path clip-path="url(#clip600)" d="M2533.1 681.929 Q2530.15 681.683 2519.41 681.683 Q2507.81 681.683 2504.61 681.929 L2504.61 677.994 L2512.61 677.994 L2507.57 665.738 L2485.06 665.738 L2480.88 675.904 L2480.55 676.887 Q2480.55 677.379 2482.4 677.666 Q2484.28 677.912 2486.13 677.953 L2488.01 677.994 L2488.01 681.929 Q2484.9 681.683 2476.95 681.683 L2467.11 681.929 L2467.11 677.994 L2468.87 677.994 Q2471.95 677.994 2473.46 677.748 Q2474.98 677.502 2475.35 677.174 Q2475.72 676.846 2476 676.068 L2496.83 625.528 Q2497.32 624.257 2497.89 623.806 Q2498.47 623.314 2500.11 623.314 Q2501.01 623.314 2501.46 623.396 Q2501.91 623.478 2502.44 624.011 Q2503.02 624.503 2503.47 625.528 L2524.94 677.994 L2533.1 677.994 L2533.1 681.929 M2505.88 661.762 L2496.33 638.439 L2486.74 661.762 L2505.88 661.762 Z" fill="#000000" fill-rule="nonzero" fill-opacity="1" /><path clip-path="url(#clip600)" d="M1850.78 1056.7 L1850.78 1079.42 L1861.07 1079.42 Q1866.78 1079.42 1869.9 1076.46 Q1873.02 1073.51 1873.02 1068.04 Q1873.02 1062.61 1869.9 1059.65 Q1866.78 1056.7 1861.07 1056.7 L1850.78 1056.7 M1842.6 1049.97 L1861.07 1049.97 Q1871.24 1049.97 1876.42 1054.59 Q1881.65 1059.17 1881.65 1068.04 Q1881.65 1076.99 1876.42 1081.57 Q1871.24 1086.15 1861.07 1086.15 L1850.78 1086.15 L1850.78 1110.45 L1842.6 1110.45 L1842.6 1049.97 Z" fill="#000000" fill-rule="nonzero" fill-opacity="1" /><path clip-path="url(#clip600)" d="M1917.13 1072.05 Q1915.88 1071.32 1914.38 1071 Q1912.92 1070.63 1911.14 1070.63 Q1904.82 1070.63 1901.42 1074.76 Q1898.05 1078.85 1898.05 1086.55 L1898.05 1110.45 L1890.56 1110.45 L1890.56 1065.08 L1898.05 1065.08 L1898.05 1072.13 Q1900.4 1068 1904.17 1066.01 Q1907.94 1063.99 1913.33 1063.99 Q1914.1 1063.99 1915.03 1064.11 Q1915.96 1064.19 1917.09 1064.39 L1917.13 1072.05 Z" fill="#000000" fill-rule="nonzero" fill-opacity="1" /><path clip-path="url(#clip600)" d="M1940.71 1070.31 Q1934.71 1070.31 1931.23 1075.01 Q1927.75 1079.66 1927.75 1087.81 Q1927.75 1095.95 1931.19 1100.65 Q1934.67 1105.31 1940.71 1105.31 Q1946.66 1105.31 1950.15 1100.61 Q1953.63 1095.91 1953.63 1087.81 Q1953.63 1079.75 1950.15 1075.05 Q1946.66 1070.31 1940.71 1070.31 M1940.71 1063.99 Q1950.43 1063.99 1955.98 1070.31 Q1961.53 1076.63 1961.53 1087.81 Q1961.53 1098.95 1955.98 1105.31 Q1950.43 1111.63 1940.71 1111.63 Q1930.95 1111.63 1925.4 1105.31 Q1919.89 1098.95 1919.89 1087.81 Q1919.89 1076.63 1925.4 1070.31 Q1930.95 1063.99 1940.71 1063.99 Z" fill="#000000" fill-rule="nonzero" fill-opacity="1" /><path clip-path="url(#clip600)" d="M1973.89 1065.08 L1981.34 1065.08 L1981.34 1111.26 Q1981.34 1119.93 1978.02 1123.82 Q1974.74 1127.71 1967.41 1127.71 L1964.57 1127.71 L1964.57 1121.39 L1966.55 1121.39 Q1970.81 1121.39 1972.35 1119.4 Q1973.89 1117.46 1973.89 1111.26 L1973.89 1065.08 M1973.89 1047.42 L1981.34 1047.42 L1981.34 1056.86 L1973.89 1056.86 L1973.89 1047.42 Z" fill="#000000" fill-rule="nonzero" fill-opacity="1" /><path clip-path="url(#clip600)" d="M2035.74 1085.9 L2035.74 1089.55 L2001.47 1089.55 Q2001.96 1097.25 2006.09 1101.3 Q2010.26 1105.31 2017.68 1105.31 Q2021.97 1105.31 2025.98 1104.25 Q2030.03 1103.2 2034 1101.09 L2034 1108.14 Q2029.99 1109.84 2025.78 1110.74 Q2021.57 1111.63 2017.23 1111.63 Q2006.38 1111.63 2000.02 1105.31 Q1993.7 1098.99 1993.7 1088.21 Q1993.7 1077.07 1999.69 1070.55 Q2005.73 1063.99 2015.94 1063.99 Q2025.09 1063.99 2030.4 1069.9 Q2035.74 1075.78 2035.74 1085.9 M2028.29 1083.72 Q2028.21 1077.6 2024.85 1073.95 Q2021.53 1070.31 2016.02 1070.31 Q2009.78 1070.31 2006.01 1073.83 Q2002.28 1077.36 2001.72 1083.76 L2028.29 1083.72 Z" fill="#000000" fill-rule="nonzero" fill-opacity="1" /><path clip-path="url(#clip600)" d="M2080.63 1066.82 L2080.63 1073.79 Q2077.47 1072.05 2074.27 1071.2 Q2071.11 1070.31 2067.87 1070.31 Q2060.62 1070.31 2056.61 1074.93 Q2052.6 1079.5 2052.6 1087.81 Q2052.6 1096.11 2056.61 1100.73 Q2060.62 1105.31 2067.87 1105.31 Q2071.11 1105.31 2074.27 1104.46 Q2077.47 1103.57 2080.63 1101.82 L2080.63 1108.71 Q2077.51 1110.17 2074.15 1110.9 Q2070.83 1111.63 2067.06 1111.63 Q2056.81 1111.63 2050.77 1105.19 Q2044.74 1098.74 2044.74 1087.81 Q2044.74 1076.71 2050.81 1070.35 Q2056.93 1063.99 2067.54 1063.99 Q2070.99 1063.99 2074.27 1064.72 Q2077.55 1065.41 2080.63 1066.82 Z" fill="#000000" fill-rule="nonzero" fill-opacity="1" /><path clip-path="url(#clip600)" d="M2100.96 1052.2 L2100.96 1065.08 L2116.32 1065.08 L2116.32 1070.87 L2100.96 1070.87 L2100.96 1095.5 Q2100.96 1101.05 2102.46 1102.63 Q2104 1104.21 2108.66 1104.21 L2116.32 1104.21 L2116.32 1110.45 L2108.66 1110.45 Q2100.03 1110.45 2096.75 1107.25 Q2093.47 1104.01 2093.47 1095.5 L2093.47 1070.87 L2088 1070.87 L2088 1065.08 L2093.47 1065.08 L2093.47 1052.2 L2100.96 1052.2 Z" fill="#000000" fill-rule="nonzero" fill-opacity="1" /><path clip-path="url(#clip600)" d="M2126.12 1065.08 L2133.57 1065.08 L2133.57 1110.45 L2126.12 1110.45 L2126.12 1065.08 M2126.12 1047.42 L2133.57 1047.42 L2133.57 1056.86 L2126.12 1056.86 L2126.12 1047.42 Z" fill="#000000" fill-rule="nonzero" fill-opacity="1" /><path clip-path="url(#clip600)" d="M2166.75 1070.31 Q2160.76 1070.31 2157.27 1075.01 Q2153.79 1079.66 2153.79 1087.81 Q2153.79 1095.95 2157.23 1100.65 Q2160.71 1105.31 2166.75 1105.31 Q2172.71 1105.31 2176.19 1100.61 Q2179.67 1095.91 2179.67 1087.81 Q2179.67 1079.75 2176.19 1075.05 Q2172.71 1070.31 2166.75 1070.31 M2166.75 1063.99 Q2176.47 1063.99 2182.02 1070.31 Q2187.57 1076.63 2187.57 1087.81 Q2187.57 1098.95 2182.02 1105.31 Q2176.47 1111.63 2166.75 1111.63 Q2156.99 1111.63 2151.44 1105.31 Q2145.93 1098.95 2145.93 1087.81 Q2145.93 1076.63 2151.44 1070.31 Q2156.99 1063.99 2166.75 1063.99 Z" fill="#000000" fill-rule="nonzero" fill-opacity="1" /><path clip-path="url(#clip600)" d="M2237.64 1083.07 L2237.64 1110.45 L2230.19 1110.45 L2230.19 1083.31 Q2230.19 1076.87 2227.68 1073.67 Q2225.16 1070.47 2220.14 1070.47 Q2214.11 1070.47 2210.62 1074.32 Q2207.14 1078.17 2207.14 1084.81 L2207.14 1110.45 L2199.64 1110.45 L2199.64 1065.08 L2207.14 1065.08 L2207.14 1072.13 Q2209.81 1068.04 2213.42 1066.01 Q2217.06 1063.99 2221.8 1063.99 Q2229.62 1063.99 2233.63 1068.85 Q2237.64 1073.67 2237.64 1083.07 Z" fill="#000000" fill-rule="nonzero" fill-opacity="1" /><path clip-path="url(#clip600)" d="M2296.46 1070.31 Q2290.47 1070.31 2286.98 1075.01 Q2283.5 1079.66 2283.5 1087.81 Q2283.5 1095.95 2286.94 1100.65 Q2290.42 1105.31 2296.46 1105.31 Q2302.42 1105.31 2305.9 1100.61 Q2309.38 1095.91 2309.38 1087.81 Q2309.38 1079.75 2305.9 1075.05 Q2302.42 1070.31 2296.46 1070.31 M2296.46 1063.99 Q2306.18 1063.99 2311.73 1070.31 Q2317.28 1076.63 2317.28 1087.81 Q2317.28 1098.95 2311.73 1105.31 Q2306.18 1111.63 2296.46 1111.63 Q2286.7 1111.63 2281.15 1105.31 Q2275.64 1098.95 2275.64 1087.81 Q2275.64 1076.63 2281.15 1070.31 Q2286.7 1063.99 2296.46 1063.99 Z" fill="#000000" fill-rule="nonzero" fill-opacity="1" /><path clip-path="url(#clip600)" d="M2352.61 1047.42 L2352.61 1053.62 L2345.48 1053.62 Q2341.47 1053.62 2339.89 1055.24 Q2338.35 1056.86 2338.35 1061.07 L2338.35 1065.08 L2350.62 1065.08 L2350.62 1070.87 L2338.35 1070.87 L2338.35 1110.45 L2330.85 1110.45 L2330.85 1070.87 L2323.72 1070.87 L2323.72 1065.08 L2330.85 1065.08 L2330.85 1061.92 Q2330.85 1054.35 2334.38 1050.9 Q2337.9 1047.42 2345.56 1047.42 L2352.61 1047.42 Z" fill="#000000" fill-rule="nonzero" fill-opacity="1" /><path clip-path="url(#clip600)" d="M2437.32 1094.83 Q2437.32 1101.39 2431.79 1105.94 Q2426.3 1110.45 2416.34 1110.45 L2377.4 1110.45 L2377.4 1106.52 L2386.46 1106.52 L2386.46 1056.8 L2377.4 1056.8 L2377.4 1052.86 L2413.84 1052.86 Q2423.55 1052.86 2429.09 1057.04 Q2434.66 1061.18 2434.66 1067.29 Q2434.66 1072.17 2430.77 1075.69 Q2426.87 1079.22 2420.11 1080.41 Q2427.69 1080.98 2432.49 1084.92 Q2437.32 1088.85 2437.32 1094.83 M2422.73 1067.29 Q2422.73 1065.98 2422.53 1064.71 Q2422.32 1063.44 2421.63 1061.96 Q2420.97 1060.44 2419.9 1059.38 Q2418.88 1058.27 2416.99 1057.53 Q2415.15 1056.8 2412.73 1056.8 L2397.44 1056.8 L2397.44 1078.97 L2410.56 1078.97 Q2416.42 1078.97 2419.58 1075.69 Q2422.73 1072.41 2422.73 1067.29 M2424.99 1094.75 Q2424.99 1089.1 2422.24 1085.61 Q2419.37 1082.01 2413.76 1082.01 L2397.44 1082.01 L2397.44 1106.52 L2412.89 1106.52 Q2415.35 1106.52 2417.36 1105.9 Q2419.37 1105.29 2420.6 1104.39 Q2421.83 1103.48 2422.73 1102.21 Q2423.63 1100.9 2424.04 1099.84 Q2424.45 1098.77 2424.7 1097.54 Q2424.95 1096.27 2424.95 1095.78 Q2424.99 1095.24 2424.99 1094.75 Z" fill="#000000" fill-rule="nonzero" fill-opacity="1" /><path clip-path="url(#clip600)" d="M2081.62 1161.54 Q2075.62 1161.54 2072.14 1166.23 Q2068.65 1170.89 2068.65 1179.04 Q2068.65 1187.18 2072.1 1191.88 Q2075.58 1196.53 2081.62 1196.53 Q2087.57 1196.53 2091.06 1191.84 Q2094.54 1187.14 2094.54 1179.04 Q2094.54 1170.97 2091.06 1166.27 Q2087.57 1161.54 2081.62 1161.54 M2081.62 1155.22 Q2091.34 1155.22 2096.89 1161.54 Q2102.44 1167.85 2102.44 1179.04 Q2102.44 1190.18 2096.89 1196.53 Q2091.34 1202.85 2081.62 1202.85 Q2071.85 1202.85 2066.3 1196.53 Q2060.8 1190.18 2060.8 1179.04 Q2060.8 1167.85 2066.3 1161.54 Q2071.85 1155.22 2081.62 1155.22 Z" fill="#000000" fill-rule="nonzero" fill-opacity="1" /><path clip-path="url(#clip600)" d="M2152.51 1174.3 L2152.51 1201.68 L2145.05 1201.68 L2145.05 1174.54 Q2145.05 1168.1 2142.54 1164.9 Q2140.03 1161.7 2135.01 1161.7 Q2128.97 1161.7 2125.49 1165.55 Q2122 1169.39 2122 1176.04 L2122 1201.68 L2114.51 1201.68 L2114.51 1156.31 L2122 1156.31 L2122 1163.36 Q2124.68 1159.27 2128.28 1157.24 Q2131.93 1155.22 2136.67 1155.22 Q2144.49 1155.22 2148.5 1160.08 Q2152.51 1164.9 2152.51 1174.3 Z" fill="#000000" fill-rule="nonzero" fill-opacity="1" /><path clip-path="url(#clip600)" d="M2251.92 1201.68 Q2248.97 1201.43 2238.23 1201.43 Q2226.63 1201.43 2223.43 1201.68 L2223.43 1197.74 L2231.43 1197.74 L2226.38 1185.49 L2203.88 1185.49 L2199.7 1195.65 L2199.37 1196.64 Q2199.37 1197.13 2201.22 1197.42 Q2203.1 1197.66 2204.95 1197.7 L2206.83 1197.74 L2206.83 1201.68 Q2203.72 1201.43 2195.76 1201.43 L2185.93 1201.68 L2185.93 1197.74 L2187.69 1197.74 Q2190.76 1197.74 2192.28 1197.5 Q2193.8 1197.25 2194.17 1196.92 Q2194.54 1196.6 2194.82 1195.82 L2215.64 1145.28 Q2216.14 1144.01 2216.71 1143.56 Q2217.28 1143.06 2218.92 1143.06 Q2219.83 1143.06 2220.28 1143.15 Q2220.73 1143.23 2221.26 1143.76 Q2221.83 1144.25 2222.28 1145.28 L2243.76 1197.74 L2251.92 1197.74 L2251.92 1201.68 M2224.7 1181.51 L2215.15 1158.19 L2205.56 1181.51 L2224.7 1181.51 Z" fill="#000000" fill-rule="nonzero" fill-opacity="1" /><path clip-path="url(#clip600)" d="M2459.63 1414.61 Q2459.63 1421.5 2457.42 1429.24 Q2455.25 1436.95 2451.8 1443.18 Q2448.36 1449.37 2443.85 1453.47 Q2439.34 1457.53 2435.04 1457.53 Q2432.29 1457.53 2430.24 1456.01 Q2428.23 1454.45 2427.13 1451.87 Q2426.02 1449.25 2425.49 1446.38 Q2424.96 1443.47 2424.96 1440.31 Q2424.96 1435.6 2425.98 1430.47 Q2427 1425.31 2428.73 1420.64 Q2430.45 1415.92 2432.87 1411.66 Q2435.28 1407.36 2437.95 1404.24 Q2440.65 1401.09 2443.69 1399.24 Q2446.72 1397.4 2449.55 1397.4 Q2451.6 1397.4 2453.24 1398.3 Q2454.92 1399.16 2455.98 1400.68 Q2457.05 1402.15 2457.79 1403.91 Q2458.57 1405.68 2458.94 1407.73 Q2459.3 1409.73 2459.47 1411.41 Q2459.63 1413.05 2459.63 1414.61 M2454.1 1409.41 Q2454.1 1407.32 2453.93 1405.76 Q2453.77 1404.16 2453.32 1402.56 Q2452.87 1400.96 2451.89 1400.1 Q2450.94 1399.24 2449.47 1399.24 Q2445.16 1399.24 2440.33 1408.05 Q2438.77 1410.8 2437.37 1414.53 Q2435.98 1418.26 2435.49 1420.02 Q2435 1421.78 2433.85 1426.13 L2451.39 1426.13 Q2454.1 1414.94 2454.1 1409.41 M2450.66 1428.79 L2433.19 1428.79 Q2430.49 1439.04 2430.49 1445.44 Q2430.49 1451.01 2431.64 1453.35 Q2432.83 1455.64 2435.04 1455.64 Q2437.58 1455.64 2439.96 1453.1 Q2442.33 1450.52 2444.75 1445.85 Q2447.95 1439.78 2450.66 1428.79 Z" fill="#000000" fill-rule="nonzero" fill-opacity="1" /></svg>
