<?xml version="1.0" encoding="utf-8"?>
<svg xmlns="http://www.w3.org/2000/svg" xmlns:xlink="http://www.w3.org/1999/xlink" width="600" height="500" viewBox="0 0 2400 2000">
<defs>
  <clipPath id="clip800">
    <rect x="0" y="0" width="2400" height="2000"/>
  </clipPath>
</defs>
<path clip-path="url(#clip800)" d="M0 2000 L2400 2000 L2400 0 L0 0  Z" fill="#ffffff" fill-rule="evenodd" fill-opacity="1"/>
<defs>
  <clipPath id="clip801">
    <rect x="480" y="0" width="1681" height="1681"/>
  </clipPath>
</defs>
<path clip-path="url(#clip800)" d="M192.941 1759.48 L2064.78 1759.48 L2064.78 161.57 L192.941 161.57  Z" fill="#ffffff" fill-rule="evenodd" fill-opacity="1"/>
<defs>
  <clipPath id="clip802">
    <rect x="192" y="161" width="1873" height="1599"/>
  </clipPath>
</defs>
<path clip-path="url(#clip802)" d="M421.214 1531.21 L1106.03 914.871 L1106.03 1531.21 L421.214 1531.21  Z" fill="#009af9" fill-rule="evenodd" fill-opacity="0.1"/>
<polyline clip-path="url(#clip802)" style="stroke:#009af9; stroke-linecap:round; stroke-linejoin:round; stroke-width:12; stroke-opacity:1; fill:none" points="421.214,1531.21 1106.03,914.871 "/>
<polyline clip-path="url(#clip802)" style="stroke:#009af9; stroke-linecap:round; stroke-linejoin:round; stroke-width:12; stroke-opacity:1; fill:none" points="1067.23,925.575 1106.03,914.871 1091.32,952.333 "/>
<polyline clip-path="url(#clip802)" style="stroke:#009af9; stroke-linecap:round; stroke-linejoin:round; stroke-width:12; stroke-opacity:1; fill:none" points="1106.03,914.871 421.214,1531.21 "/>
<polyline clip-path="url(#clip802)" style="stroke:#e26f46; stroke-linecap:round; stroke-linejoin:round; stroke-width:12; stroke-opacity:1; fill:none" points="421.214,1531.21 1334.31,1531.21 "/>
<polyline clip-path="url(#clip802)" style="stroke:#e26f46; stroke-linecap:round; stroke-linejoin:round; stroke-width:12; stroke-opacity:1; fill:none" points="1298.31,1513.21 1334.31,1531.21 1298.31,1549.21 "/>
<polyline clip-path="url(#clip802)" style="stroke:#e26f46; stroke-linecap:round; stroke-linejoin:round; stroke-width:12; stroke-opacity:1; fill:none" points="1334.31,1531.21 421.214,1531.21 "/>
<path clip-path="url(#clip802)" d="M1106.03 914.871 L1334.31 914.871 L1334.31 1531.21 L1106.03 1531.21  Z" fill="#009af9" fill-rule="evenodd" fill-opacity="0.1"/>
<polyline clip-path="url(#clip802)" style="stroke:#009af9; stroke-linecap:round; stroke-linejoin:round; stroke-width:0; stroke-opacity:1; fill:none" points="1106.03,914.871 1334.31,914.871 "/>
<polyline clip-path="url(#clip802)" style="stroke:#009af9; stroke-linecap:round; stroke-linejoin:round; stroke-width:0; stroke-opacity:1; fill:none" points="1298.31,896.871 1334.31,914.871 1298.31,932.871 "/>
<polyline clip-path="url(#clip802)" style="stroke:#009af9; stroke-linecap:round; stroke-linejoin:round; stroke-width:0; stroke-opacity:1; fill:none" points="1334.31,914.871 1106.03,914.871 "/>
<path clip-path="url(#clip802)" d="M1334.31 914.871 L2019.13 914.871 L2019.13 914.871 L1334.31 1531.21  Z" fill="#009af9" fill-rule="evenodd" fill-opacity="0.1"/>
<polyline clip-path="url(#clip802)" style="stroke:#009af9; stroke-linecap:round; stroke-linejoin:round; stroke-width:0; stroke-opacity:1; fill:none" points="1334.31,914.871 2019.13,914.871 "/>
<polyline clip-path="url(#clip802)" style="stroke:#009af9; stroke-linecap:round; stroke-linejoin:round; stroke-width:0; stroke-opacity:1; fill:none" points="1983.13,896.871 2019.13,914.871 1983.13,932.871 "/>
<polyline clip-path="url(#clip802)" style="stroke:#009af9; stroke-linecap:round; stroke-linejoin:round; stroke-width:0; stroke-opacity:1; fill:none" points="2019.13,914.871 1334.31,914.871 "/>
<polyline clip-path="url(#clip802)" style="stroke:#3da44d; stroke-linecap:round; stroke-linejoin:round; stroke-width:12; stroke-opacity:1; fill:none" points="421.214,1531.21 421.214,510.34 "/>
<polyline clip-path="url(#clip802)" style="stroke:#3da44d; stroke-linecap:round; stroke-linejoin:round; stroke-width:12; stroke-opacity:1; fill:none" points="403.214,546.34 421.214,510.34 439.214,546.34 "/>
<polyline clip-path="url(#clip802)" style="stroke:#3da44d; stroke-linecap:round; stroke-linejoin:round; stroke-width:12; stroke-opacity:1; fill:none" points="421.214,510.34 421.214,1531.21 "/>
<polyline clip-path="url(#clip802)" style="stroke:#e26f46; stroke-linecap:round; stroke-linejoin:round; stroke-width:12; stroke-opacity:1; fill:none" stroke-dasharray="48, 30" points="1106.03,914.871 2019.13,914.871 "/>
<polyline clip-path="url(#clip802)" style="stroke:#009af9; stroke-linecap:round; stroke-linejoin:round; stroke-width:12; stroke-opacity:1; fill:none" stroke-dasharray="48, 30" points="1334.31,1531.21 2019.13,914.871 "/>
<polyline clip-path="url(#clip802)" style="stroke:#000000; stroke-linecap:round; stroke-linejoin:round; stroke-width:12; stroke-opacity:1; fill:none" stroke-dasharray="48, 30" points="649.487,1531.21 648.731,1512.64 646.467,1494.2 642.71,1476 637.486,1458.17 630.829,1440.82 622.783,1424.07 613.401,1408.03 602.746,1392.81 590.888,1378.5 "/>
<path clip-path="url(#clip800)" d="M525.811 741.747 Q525.811 745.396 524.048 748.962 Q522.286 752.528 519.13 755.397 Q515.974 758.225 511.096 759.988 Q506.259 761.75 500.603 761.75 Q492.897 761.75 486.543 759.537 Q480.19 757.282 475.886 753.347 Q471.582 749.412 469.205 743.961 Q466.868 738.468 466.868 732.033 Q466.868 725.598 469.205 720.146 Q471.582 714.654 475.886 710.719 Q480.19 706.784 486.543 704.57 Q492.897 702.316 500.603 702.316 Q510.071 702.316 517.162 708.013 L522.696 703.054 Q523.557 702.316 524.294 702.316 Q525.36 702.316 525.565 702.808 Q525.811 703.259 525.811 704.652 L525.811 722.687 Q525.811 724.327 525.442 724.696 Q525.114 725.065 523.516 725.065 Q522.081 725.065 521.753 724.819 Q521.466 724.532 521.261 723.302 Q519.909 715.473 514.621 710.883 Q509.333 706.251 502.365 706.251 Q491.626 706.251 485.273 712.686 Q479.698 718.507 479.698 732.033 Q479.698 738.181 480.764 742.731 Q481.87 747.24 484.658 750.642 Q487.732 754.29 492.528 756.053 Q497.323 757.774 502.652 757.774 Q505.275 757.774 507.858 757.159 Q510.44 756.545 512.899 755.233 Q515.4 753.921 517.285 752.036 Q519.212 750.15 520.441 747.404 Q521.712 744.658 521.876 741.42 Q521.917 740.436 522.327 740.231 Q522.778 739.985 523.803 739.985 Q524.991 739.985 525.401 740.272 Q525.811 740.559 525.811 741.747 Z" fill="#000000" fill-rule="nonzero" fill-opacity="1" /><path clip-path="url(#clip800)" d="M559.213 748.06 Q559.295 747.035 560.893 747.035 L612.335 747.035 Q614.753 747.035 614.794 747.978 Q614.794 749.003 612.499 748.962 L561.467 748.962 Q559.213 749.003 559.213 748.06 M559.213 731.664 Q559.213 730.639 560.975 730.68 L612.253 730.68 Q614.753 730.68 614.794 731.664 Q614.794 732.607 612.663 732.607 L560.893 732.607 Q559.213 732.607 559.213 731.664 Z" fill="#000000" fill-rule="nonzero" fill-opacity="1" /><path clip-path="url(#clip800)" d="M713.165 760.808 Q710.214 760.562 699.475 760.562 Q687.875 760.562 684.678 760.808 L684.678 756.873 L692.671 756.873 L687.629 744.617 L665.126 744.617 L660.945 754.782 L660.617 755.766 Q660.617 756.258 662.462 756.545 Q664.347 756.791 666.192 756.832 L668.077 756.873 L668.077 760.808 Q664.962 760.562 657.01 760.562 L647.173 760.808 L647.173 756.873 L648.935 756.873 Q652.009 756.873 653.526 756.627 Q655.043 756.381 655.412 756.053 Q655.78 755.725 656.067 754.946 L676.89 704.406 Q677.382 703.136 677.956 702.685 Q678.529 702.193 680.169 702.193 Q681.071 702.193 681.522 702.275 Q681.973 702.357 682.505 702.89 Q683.079 703.382 683.53 704.406 L705.009 756.873 L713.165 756.873 L713.165 760.808 M685.949 740.641 L676.398 717.318 L666.807 740.641 L685.949 740.641 Z" fill="#000000" fill-rule="nonzero" fill-opacity="1" /><path clip-path="url(#clip800)" d="M789.302 759.537 Q788.893 760.029 788.155 760.029 Q787.458 760.029 786.966 759.537 L769.587 742.157 L752.207 759.537 Q751.715 760.029 750.977 760.029 Q750.281 760.029 749.83 759.537 Q749.338 759.086 749.338 758.389 Q749.338 757.692 749.83 757.2 L767.209 739.821 L749.83 722.442 Q749.338 721.95 749.338 721.253 Q749.338 720.515 749.83 720.105 Q750.281 719.613 750.977 719.613 Q751.715 719.613 752.207 720.105 L769.587 737.485 L786.966 720.105 Q787.458 719.613 788.155 719.613 Q788.893 719.613 789.302 720.105 Q789.794 720.515 789.794 721.253 Q789.794 721.95 789.302 722.442 L771.923 739.821 L789.302 757.2 Q789.794 757.692 789.794 758.43 Q789.794 759.127 789.302 759.537 Z" fill="#000000" fill-rule="nonzero" fill-opacity="1" /><path clip-path="url(#clip800)" d="M889.287 745.191 Q889.287 751.749 883.754 756.299 Q878.261 760.808 868.301 760.808 L829.361 760.808 L829.361 756.873 L838.42 756.873 L838.42 707.153 L829.361 707.153 L829.361 703.218 L865.8 703.218 Q875.515 703.218 881.048 707.398 Q886.623 711.538 886.623 717.646 Q886.623 722.524 882.729 726.049 Q878.835 729.574 872.072 730.762 Q879.655 731.336 884.451 735.271 Q889.287 739.206 889.287 745.191 M874.695 717.646 Q874.695 716.334 874.49 715.063 Q874.285 713.793 873.588 712.317 Q872.933 710.801 871.867 709.735 Q870.842 708.628 868.957 707.89 Q867.112 707.153 864.694 707.153 L849.405 707.153 L849.405 729.328 L862.521 729.328 Q868.383 729.328 871.539 726.049 Q874.695 722.769 874.695 717.646 M876.95 745.109 Q876.95 739.452 874.203 735.968 Q871.334 732.361 865.718 732.361 L849.405 732.361 L849.405 756.873 L864.858 756.873 Q867.317 756.873 869.326 756.258 Q871.334 755.643 872.564 754.741 Q873.793 753.839 874.695 752.569 Q875.597 751.257 876.007 750.191 Q876.417 749.126 876.663 747.896 Q876.909 746.625 876.909 746.133 Q876.95 745.6 876.95 745.109 Z" fill="#000000" fill-rule="nonzero" fill-opacity="1" /><path clip-path="url(#clip800)" d="M596.196 1449.6 Q596.196 1456.48 593.982 1464.23 Q591.81 1471.94 588.367 1478.17 Q584.924 1484.36 580.415 1488.46 Q575.906 1492.51 571.602 1492.51 Q568.856 1492.51 566.807 1491 Q564.798 1489.44 563.691 1486.86 Q562.585 1484.23 562.052 1481.36 Q561.519 1478.45 561.519 1475.3 Q561.519 1470.58 562.544 1465.46 Q563.568 1460.3 565.29 1455.62 Q567.011 1450.91 569.43 1446.65 Q571.848 1442.34 574.513 1439.23 Q577.218 1436.07 580.251 1434.23 Q583.284 1432.38 586.112 1432.38 Q588.162 1432.38 589.802 1433.28 Q591.482 1434.14 592.548 1435.66 Q593.614 1437.14 594.351 1438.9 Q595.13 1440.66 595.499 1442.71 Q595.868 1444.72 596.032 1446.4 Q596.196 1448.04 596.196 1449.6 M590.662 1444.39 Q590.662 1442.3 590.498 1440.74 Q590.334 1439.15 589.883 1437.55 Q589.433 1435.95 588.449 1435.09 Q587.506 1434.23 586.031 1434.23 Q581.727 1434.23 576.89 1443.04 Q575.332 1445.79 573.939 1449.52 Q572.545 1453.25 572.053 1455.01 Q571.561 1456.77 570.414 1461.12 L587.957 1461.12 Q590.662 1449.93 590.662 1444.39 M587.219 1463.78 L569.758 1463.78 Q567.052 1474.03 567.052 1480.42 Q567.052 1486 568.2 1488.33 Q569.389 1490.63 571.602 1490.63 Q574.144 1490.63 576.521 1488.09 Q578.898 1485.5 581.317 1480.83 Q584.514 1474.77 587.219 1463.78 Z" fill="#000000" fill-rule="nonzero" fill-opacity="1" /><path clip-path="url(#clip800)" d="M793.506 1103.69 Q790.555 1103.44 779.816 1103.44 Q768.216 1103.44 765.019 1103.69 L765.019 1099.75 L773.011 1099.75 L767.97 1087.5 L745.467 1087.5 L741.286 1097.66 L740.958 1098.64 Q740.958 1099.14 742.802 1099.42 Q744.688 1099.67 746.532 1099.71 L748.418 1099.75 L748.418 1103.69 Q745.303 1103.44 737.351 1103.44 L727.513 1103.69 L727.513 1099.75 L729.276 1099.75 Q732.35 1099.75 733.867 1099.51 Q735.383 1099.26 735.752 1098.93 Q736.121 1098.6 736.408 1097.82 L757.231 1047.28 Q757.722 1046.01 758.296 1045.56 Q758.87 1045.07 760.51 1045.07 Q761.412 1045.07 761.862 1045.15 Q762.313 1045.24 762.846 1045.77 Q763.42 1046.26 763.871 1047.28 L785.349 1099.75 L793.506 1099.75 L793.506 1103.69 M766.289 1083.52 L756.739 1060.2 L747.147 1083.52 L766.289 1083.52 Z" fill="#000000" fill-rule="nonzero" fill-opacity="1" /><path clip-path="url(#clip800)" d="M1131.96 1635.42 Q1131.96 1641.98 1126.43 1646.52 Q1120.93 1651.03 1110.97 1651.03 L1072.03 1651.03 L1072.03 1647.1 L1081.09 1647.1 L1081.09 1597.38 L1072.03 1597.38 L1072.03 1593.44 L1108.47 1593.44 Q1118.19 1593.44 1123.72 1597.62 Q1129.3 1601.76 1129.3 1607.87 Q1129.3 1612.75 1125.4 1616.27 Q1121.51 1619.8 1114.74 1620.99 Q1122.33 1621.56 1127.12 1625.5 Q1131.96 1629.43 1131.96 1635.42 M1117.37 1607.87 Q1117.37 1606.56 1117.16 1605.29 Q1116.96 1604.02 1116.26 1602.54 Q1115.61 1601.03 1114.54 1599.96 Q1113.52 1598.85 1111.63 1598.12 Q1109.79 1597.38 1107.37 1597.38 L1092.08 1597.38 L1092.08 1619.55 L1105.19 1619.55 Q1111.06 1619.55 1114.21 1616.27 Q1117.37 1613 1117.37 1607.87 M1119.62 1635.33 Q1119.62 1629.68 1116.88 1626.19 Q1114.01 1622.59 1108.39 1622.59 L1092.08 1622.59 L1092.08 1647.1 L1107.53 1647.1 Q1109.99 1647.1 1112 1646.48 Q1114.01 1645.87 1115.24 1644.97 Q1116.47 1644.07 1117.37 1642.79 Q1118.27 1641.48 1118.68 1640.42 Q1119.09 1639.35 1119.34 1638.12 Q1119.58 1636.85 1119.58 1636.36 Q1119.62 1635.83 1119.62 1635.33 Z" fill="#000000" fill-rule="nonzero" fill-opacity="1" /><path clip-path="url(#clip800)" d="M946.291 1342.13 L946.291 1263.96 Q946.291 1260.85 947.972 1260.85 Q949.652 1260.85 949.652 1263.35 L949.652 1341.51 Q949.652 1344.63 947.972 1344.63 Q946.291 1344.63 946.291 1342.13 Z" fill="#000000" fill-rule="nonzero" fill-opacity="1" /><path clip-path="url(#clip800)" d="M1046.93 1323.72 Q1043.98 1323.48 1033.24 1323.48 Q1021.64 1323.48 1018.45 1323.72 L1018.45 1319.79 L1026.44 1319.79 L1021.4 1307.53 L998.893 1307.53 L994.712 1317.7 L994.384 1318.68 Q994.384 1319.17 996.229 1319.46 Q998.114 1319.71 999.959 1319.75 L1001.84 1319.79 L1001.84 1323.72 Q998.729 1323.48 990.777 1323.48 L980.94 1323.72 L980.94 1319.79 L982.703 1319.79 Q985.777 1319.79 987.293 1319.54 Q988.81 1319.3 989.179 1318.97 Q989.548 1318.64 989.835 1317.86 L1010.66 1267.32 Q1011.15 1266.05 1011.72 1265.6 Q1012.3 1265.11 1013.94 1265.11 Q1014.84 1265.11 1015.29 1265.19 Q1015.74 1265.27 1016.27 1265.81 Q1016.85 1266.3 1017.3 1267.32 L1038.78 1319.79 L1046.93 1319.79 L1046.93 1323.72 M1019.72 1303.56 L1010.17 1280.24 L1000.57 1303.56 L1019.72 1303.56 Z" fill="#000000" fill-rule="nonzero" fill-opacity="1" /><path clip-path="url(#clip800)" d="M1123.07 1322.45 Q1122.66 1322.95 1121.92 1322.95 Q1121.23 1322.95 1120.73 1322.45 L1103.35 1305.07 L1085.97 1322.45 Q1085.48 1322.95 1084.74 1322.95 Q1084.05 1322.95 1083.6 1322.45 Q1083.11 1322 1083.11 1321.31 Q1083.11 1320.61 1083.6 1320.12 L1100.98 1302.74 L1083.6 1285.36 Q1083.11 1284.87 1083.11 1284.17 Q1083.11 1283.43 1083.6 1283.02 Q1084.05 1282.53 1084.74 1282.53 Q1085.48 1282.53 1085.97 1283.02 L1103.35 1300.4 L1120.73 1283.02 Q1121.23 1282.53 1121.92 1282.53 Q1122.66 1282.53 1123.07 1283.02 Q1123.56 1283.43 1123.56 1284.17 Q1123.56 1284.87 1123.07 1285.36 L1105.69 1302.74 L1123.07 1320.12 Q1123.56 1320.61 1123.56 1321.35 Q1123.56 1322.04 1123.07 1322.45 Z" fill="#000000" fill-rule="nonzero" fill-opacity="1" /><path clip-path="url(#clip800)" d="M1223.05 1308.11 Q1223.05 1314.67 1217.52 1319.22 Q1212.03 1323.72 1202.07 1323.72 L1163.13 1323.72 L1163.13 1319.79 L1172.19 1319.79 L1172.19 1270.07 L1163.13 1270.07 L1163.13 1266.13 L1199.57 1266.13 Q1209.28 1266.13 1214.82 1270.32 Q1220.39 1274.46 1220.39 1280.56 Q1220.39 1285.44 1216.5 1288.97 Q1212.6 1292.49 1205.84 1293.68 Q1213.42 1294.25 1218.22 1298.19 Q1223.05 1302.12 1223.05 1308.11 M1208.46 1280.56 Q1208.46 1279.25 1208.26 1277.98 Q1208.05 1276.71 1207.36 1275.23 Q1206.7 1273.72 1205.63 1272.65 Q1204.61 1271.55 1202.72 1270.81 Q1200.88 1270.07 1198.46 1270.07 L1183.17 1270.07 L1183.17 1292.25 L1196.29 1292.25 Q1202.15 1292.25 1205.31 1288.97 Q1208.46 1285.69 1208.46 1280.56 M1210.72 1308.03 Q1210.72 1302.37 1207.97 1298.89 Q1205.1 1295.28 1199.49 1295.28 L1183.17 1295.28 L1183.17 1319.79 L1198.62 1319.79 Q1201.08 1319.79 1203.09 1319.17 Q1205.1 1318.56 1206.33 1317.66 Q1207.56 1316.76 1208.46 1315.49 Q1209.36 1314.17 1209.77 1313.11 Q1210.18 1312.04 1210.43 1310.81 Q1210.68 1309.54 1210.68 1309.05 Q1210.72 1308.52 1210.72 1308.03 Z" fill="#000000" fill-rule="nonzero" fill-opacity="1" /><path clip-path="url(#clip800)" d="M1231.13 1342.13 L1231.13 1263.96 Q1231.13 1260.85 1232.81 1260.85 Q1234.49 1260.85 1234.49 1263.35 L1234.49 1341.51 Q1234.49 1344.63 1232.81 1344.63 Q1231.13 1344.63 1231.13 1342.13 Z" fill="#000000" fill-rule="nonzero" fill-opacity="1" /></svg>
