<?xml version="1.0" encoding="utf-8"?>
<svg xmlns="http://www.w3.org/2000/svg" xmlns:xlink="http://www.w3.org/1999/xlink" width="600" height="400" viewBox="0 0 2400 1600">
<defs>
  <clipPath id="clip280">
    <rect x="0" y="0" width="2400" height="1600"/>
  </clipPath>
</defs>
<path clip-path="url(#clip280)" d="
M0 1600 L2400 1600 L2400 0 L0 0  Z
  " fill="#ffffff" fill-rule="evenodd" fill-opacity="1"/>
<defs>
  <clipPath id="clip281">
    <rect x="480" y="0" width="1681" height="1600"/>
  </clipPath>
</defs>
<defs>
  <clipPath id="clip282">
    <rect x="249" y="33" width="1535" height="1535"/>
  </clipPath>
</defs>
<path clip-path="url(#clip280)" d="
M237.762 1566.93 L1771.62 1566.93 L1771.62 33.0709 L237.762 33.0709  Z
  " fill="#ffffff" fill-rule="evenodd" fill-opacity="1"/>
<defs>
  <clipPath id="clip283">
    <rect x="237" y="33" width="1535" height="1535"/>
  </clipPath>
</defs>
<polyline clip-path="url(#clip283)" style="stroke:#009af9; stroke-linecap:butt; stroke-linejoin:round; stroke-width:8; stroke-opacity:1; fill:none" points="
  694.612,1110.08 446.548,283.201 
  "/>
<polyline clip-path="url(#clip283)" style="stroke:#009af9; stroke-linecap:butt; stroke-linejoin:round; stroke-width:8; stroke-opacity:1; fill:none" points="
  439.652,322.855 446.548,283.201 474.134,312.511 
  "/>
<polyline clip-path="url(#clip283)" style="stroke:#009af9; stroke-linecap:butt; stroke-linejoin:round; stroke-width:8; stroke-opacity:1; fill:none" points="
  446.548,283.201 694.612,1110.08 
  "/>
<polyline clip-path="url(#clip283)" style="stroke:#e26f46; stroke-linecap:butt; stroke-linejoin:round; stroke-width:8; stroke-opacity:1; fill:none" points="
  694.612,1110.08 1521.49,1192.77 
  "/>
<polyline clip-path="url(#clip283)" style="stroke:#e26f46; stroke-linecap:butt; stroke-linejoin:round; stroke-width:8; stroke-opacity:1; fill:none" points="
  1487.46,1171.27 1521.49,1192.77 1483.88,1207.1 
  "/>
<polyline clip-path="url(#clip283)" style="stroke:#e26f46; stroke-linecap:butt; stroke-linejoin:round; stroke-width:8; stroke-opacity:1; fill:none" points="
  1521.49,1192.77 694.612,1110.08 
  "/>
<polyline clip-path="url(#clip283)" style="stroke:#3da44d; stroke-linecap:butt; stroke-linejoin:round; stroke-width:8; stroke-opacity:1; fill:none" points="
  694.612,1110.08 1430.46,889.326 
  "/>
<polyline clip-path="url(#clip283)" style="stroke:#3da44d; stroke-linecap:butt; stroke-linejoin:round; stroke-width:8; stroke-opacity:1; fill:none" points="
  1390.8,882.429 1430.46,889.326 1401.15,916.911 
  "/>
<polyline clip-path="url(#clip283)" style="stroke:#3da44d; stroke-linecap:butt; stroke-linejoin:round; stroke-width:8; stroke-opacity:1; fill:none" points="
  1430.46,889.326 694.612,1110.08 
  "/>
<polyline clip-path="url(#clip283)" style="stroke:#000000; stroke-linecap:butt; stroke-linejoin:round; stroke-width:5; stroke-opacity:1; fill:none" stroke-dasharray="20, 13" points="
  603.579,806.638 1430.46,889.326 1521.49,1192.77 
  "/>
<polyline clip-path="url(#clip283)" style="stroke:#000000; stroke-linecap:butt; stroke-linejoin:round; stroke-width:5; stroke-opacity:1; fill:none" points="
  853.013,1062.56 853.06,1062.72 853.107,1062.88 853.154,1063.03 853.201,1063.19 853.248,1063.35 853.295,1063.51 853.341,1063.67 853.388,1063.83 853.434,1063.99 
  853.48,1064.15 853.526,1064.3 853.571,1064.46 853.617,1064.62 853.662,1064.78 853.708,1064.94 853.753,1065.1 853.798,1065.26 853.842,1065.42 853.887,1065.58 
  853.931,1065.74 853.976,1065.9 854.02,1066.05 854.064,1066.21 854.107,1066.37 854.151,1066.53 854.194,1066.69 854.238,1066.85 854.281,1067.01 854.324,1067.17 
  854.367,1067.33 854.409,1067.49 854.452,1067.65 854.494,1067.81 854.536,1067.97 854.579,1068.13 854.62,1068.29 854.662,1068.45 854.704,1068.61 854.745,1068.77 
  854.786,1068.93 854.827,1069.09 854.868,1069.25 854.909,1069.41 854.95,1069.57 854.99,1069.73 855.03,1069.89 855.07,1070.05 855.11,1070.21 855.15,1070.37 
  855.19,1070.53 855.229,1070.7 855.268,1070.86 855.308,1071.02 855.347,1071.18 855.385,1071.34 855.424,1071.5 855.463,1071.66 855.501,1071.82 855.539,1071.98 
  855.577,1072.14 855.615,1072.3 855.653,1072.46 855.69,1072.63 855.728,1072.79 855.765,1072.95 855.802,1073.11 855.839,1073.27 855.875,1073.43 855.912,1073.59 
  855.948,1073.75 855.985,1073.92 856.021,1074.08 856.057,1074.24 856.092,1074.4 856.128,1074.56 856.163,1074.72 856.199,1074.88 856.234,1075.05 856.269,1075.21 
  856.304,1075.37 856.338,1075.53 856.373,1075.69 856.407,1075.85 856.441,1076.02 856.475,1076.18 856.509,1076.34 856.543,1076.5 856.576,1076.66 856.609,1076.83 
  856.643,1076.99 856.676,1077.15 856.708,1077.31 856.741,1077.47 856.774,1077.64 856.806,1077.8 856.838,1077.96 856.87,1078.12 856.902,1078.29 856.934,1078.45 
  856.965,1078.61 856.997,1078.77 857.028,1078.93 857.059,1079.1 857.09,1079.26 857.121,1079.42 857.151,1079.58 857.182,1079.75 857.212,1079.91 857.242,1080.07 
  857.272,1080.24 857.302,1080.4 857.331,1080.56 857.361,1080.72 857.39,1080.89 857.419,1081.05 857.448,1081.21 857.477,1081.37 857.506,1081.54 857.534,1081.7 
  857.562,1081.86 857.59,1082.03 857.618,1082.19 857.646,1082.35 857.674,1082.52 857.701,1082.68 857.729,1082.84 857.756,1083 857.783,1083.17 857.81,1083.33 
  857.836,1083.49 857.863,1083.66 857.889,1083.82 857.915,1083.98 857.941,1084.15 857.967,1084.31 857.993,1084.47 858.018,1084.64 858.044,1084.8 858.069,1084.96 
  858.094,1085.13 858.119,1085.29 858.144,1085.45 858.168,1085.62 858.192,1085.78 858.217,1085.95 858.241,1086.11 858.265,1086.27 858.288,1086.44 858.312,1086.6 
  858.335,1086.76 858.359,1086.93 858.382,1087.09 858.405,1087.25 858.427,1087.42 858.45,1087.58 858.472,1087.75 858.495,1087.91 858.517,1088.07 858.539,1088.24 
  858.56,1088.4 858.582,1088.57 858.603,1088.73 858.625,1088.89 858.646,1089.06 858.667,1089.22 858.687,1089.39 858.708,1089.55 858.728,1089.71 858.749,1089.88 
  858.769,1090.04 858.789,1090.21 858.809,1090.37 858.828,1090.54 858.848,1090.7 858.867,1090.86 858.886,1091.03 858.905,1091.19 858.924,1091.36 858.943,1091.52 
  858.961,1091.69 858.979,1091.85 858.997,1092.01 859.015,1092.18 859.033,1092.34 859.051,1092.51 859.068,1092.67 859.086,1092.84 859.103,1093 859.12,1093.16 
  859.137,1093.33 859.153,1093.49 859.17,1093.66 859.186,1093.82 859.202,1093.99 859.218,1094.15 859.234,1094.32 859.25,1094.48 859.265,1094.65 859.281,1094.81 
  859.296,1094.98 859.311,1095.14 859.326,1095.3 859.341,1095.47 859.355,1095.63 859.369,1095.8 859.384,1095.96 859.398,1096.13 859.412,1096.29 859.425,1096.46 
  859.439,1096.62 859.452,1096.79 859.465,1096.95 859.478,1097.12 859.491,1097.28 859.504,1097.45 859.517,1097.61 859.529,1097.78 859.541,1097.94 859.553,1098.11 
  859.565,1098.27 859.577,1098.44 859.588,1098.6 859.6,1098.77 859.611,1098.93 859.622,1099.1 859.633,1099.26 859.644,1099.43 859.654,1099.59 859.665,1099.76 
  859.675,1099.92 859.685,1100.09 859.695,1100.25 859.705,1100.42 859.714,1100.58 859.724,1100.75 859.733,1100.91 859.742,1101.08 859.751,1101.24 859.76,1101.41 
  859.768,1101.57 859.777,1101.74 859.785,1101.9 859.793,1102.07 859.801,1102.23 859.809,1102.4 859.816,1102.56 859.824,1102.73 859.831,1102.89 859.838,1103.06 
  859.845,1103.23 859.852,1103.39 859.858,1103.56 859.865,1103.72 859.871,1103.89 859.877,1104.05 859.883,1104.22 859.889,1104.38 859.895,1104.55 859.9,1104.71 
  859.905,1104.88 859.91,1105.04 859.915,1105.21 859.92,1105.37 859.925,1105.54 859.929,1105.7 859.934,1105.87 859.938,1106.04 859.942,1106.2 859.945,1106.37 
  859.949,1106.53 859.953,1106.7 859.956,1106.86 859.959,1107.03 859.962,1107.19 859.965,1107.36 859.967,1107.52 859.97,1107.69 859.972,1107.85 859.974,1108.02 
  859.976,1108.18 859.978,1108.35 859.98,1108.52 859.981,1108.68 859.983,1108.85 859.984,1109.01 859.985,1109.18 859.986,1109.34 859.986,1109.51 859.987,1109.67 
  859.987,1109.84 859.987,1110 859.987,1110.17 859.987,1110.33 859.987,1110.5 859.986,1110.67 859.985,1110.83 859.985,1111 859.984,1111.16 859.982,1111.33 
  859.981,1111.49 859.98,1111.66 859.978,1111.82 859.976,1111.99 859.974,1112.15 859.972,1112.32 859.97,1112.48 859.967,1112.65 859.965,1112.81 859.962,1112.98 
  859.959,1113.15 859.956,1113.31 859.952,1113.48 859.949,1113.64 859.945,1113.81 859.941,1113.97 859.937,1114.14 859.933,1114.3 859.929,1114.47 859.924,1114.63 
  859.92,1114.8 859.915,1114.96 859.91,1115.13 859.905,1115.29 859.9,1115.46 859.894,1115.63 859.888,1115.79 859.883,1115.96 859.877,1116.12 859.871,1116.29 
  859.864,1116.45 859.858,1116.62 859.851,1116.78 859.844,1116.95 859.838,1117.11 859.83,1117.28 859.823,1117.44 859.816,1117.61 859.808,1117.77 859.8,1117.94 
  859.792,1118.1 859.784,1118.27 859.776,1118.43 859.768,1118.6 859.759,1118.76 859.75,1118.93 859.741,1119.09 859.732,1119.26 859.723,1119.43 859.713,1119.59 
  859.704,1119.76 859.694,1119.92 859.684,1120.09 859.674,1120.25 859.664,1120.42 859.653,1120.58 859.643,1120.75 859.632,1120.91 859.621,1121.08 859.61,1121.24 
  859.599,1121.41 859.587,1121.57 859.576,1121.74 859.564,1121.9 859.552,1122.07 859.54,1122.23 859.528,1122.4 859.515,1122.56 859.503,1122.73 859.49,1122.89 
  859.477,1123.05 859.464,1123.22 859.451,1123.38 859.438,1123.55 859.424,1123.71 859.41,1123.88 859.396,1124.04 859.382,1124.21 859.368,1124.37 859.354,1124.54 
  859.339,1124.7 859.325,1124.87 859.31,1125.03 859.295,1125.2 859.279,1125.36 859.264,1125.53 859.249,1125.69 859.233,1125.86 859.217,1126.02 859.201,1126.18 
  859.185,1126.35 859.168,1126.51 
  "/>
<polyline clip-path="url(#clip283)" style="stroke:#000000; stroke-linecap:butt; stroke-linejoin:round; stroke-width:5; stroke-opacity:1; fill:none" points="
  670.851,1030.88 750.052,1007.12 773.812,1086.32 
  "/>
<path clip-path="url(#clip280)" d="
M1849.42 308.293 L2162.24 308.293 L2162.24 84.1995 L1849.42 84.1995  Z
  " fill="#ffffff" fill-rule="evenodd" fill-opacity="1"/>
<polyline clip-path="url(#clip280)" style="stroke:#000000; stroke-linecap:butt; stroke-linejoin:round; stroke-width:4; stroke-opacity:1; fill:none" points="
  1849.42,308.293 2162.24,308.293 2162.24,84.1995 1849.42,84.1995 1849.42,308.293 
  "/>
<polyline clip-path="url(#clip280)" style="stroke:#009af9; stroke-linecap:butt; stroke-linejoin:round; stroke-width:4; stroke-opacity:1; fill:none" points="
  1875.35,140.223 2030.94,140.223 
  "/>
<path clip-path="url(#clip280)" d="M2083.78 132.354 Q2083.73 132.588 2083.64 133.01 Q2083.55 133.408 2083.13 134.673 Q2082.7 135.937 2082.14 137.226 Q2081.6 138.49 2080.55 140.271 Q2079.52 142.027 2078.25 143.62 Q2077.9 144.042 2077.83 144.299 Q2077.79 144.533 2077.79 145.306 Q2077.79 150.178 2079.26 150.178 Q2079.33 150.178 2079.45 150.178 Q2079.59 150.155 2079.94 150.038 Q2080.32 149.897 2080.64 149.686 Q2080.97 149.452 2081.35 148.984 Q2081.72 148.492 2081.95 147.836 Q2082.17 147.368 2082.59 147.368 Q2083.15 147.368 2083.15 147.836 Q2083.15 148.679 2081.98 149.967 Q2080.81 151.256 2079.12 151.256 Q2077.5 151.256 2076.36 150.202 Q2075.23 149.124 2074.76 147.204 Q2069.7 151.256 2064.65 151.256 Q2061.09 151.256 2058.98 148.937 Q2056.87 146.595 2056.87 143.128 Q2056.87 139.802 2058.7 136.64 Q2060.55 133.478 2063.54 131.511 Q2066.57 129.52 2069.78 129.52 Q2070.9 129.52 2071.98 129.824 Q2073.05 130.105 2074.13 130.831 Q2075.21 131.557 2076.01 132.658 Q2076.8 133.759 2077.29 135.492 Q2077.79 137.226 2077.79 139.404 L2077.79 142.379 Q2080.88 138.467 2082.49 132.869 Q2082.73 132.026 2082.87 131.932 Q2082.96 131.862 2083.2 131.862 Q2083.43 131.862 2083.57 132.002 Q2083.73 132.12 2083.76 132.237 L2083.78 132.354 M2074.58 145.962 Q2074.48 145.142 2074.48 140.598 Q2074.48 139.732 2074.48 139.263 Q2074.48 138.771 2074.44 137.835 Q2074.39 136.898 2074.3 136.312 Q2074.23 135.727 2074.06 134.883 Q2073.9 134.04 2073.66 133.501 Q2073.43 132.963 2073.05 132.354 Q2072.7 131.745 2072.23 131.393 Q2071.79 131.042 2071.13 130.808 Q2070.5 130.574 2069.73 130.574 Q2068.77 130.574 2067.76 130.925 Q2066.78 131.253 2065.51 132.307 Q2064.25 133.337 2063.19 134.977 Q2062.09 136.71 2061.25 139.896 Q2060.43 143.058 2060.43 144.955 Q2060.43 147.344 2061.53 148.773 Q2062.63 150.178 2064.74 150.178 Q2069.78 150.178 2074.58 145.962 Z" fill="#000000" fill-rule="evenodd" fill-opacity="1" /><path clip-path="url(#clip280)" d="M2088.63 145.371 L2088.63 144.321 Q2092.66 144.321 2094.75 142.174 Q2095.32 142.174 2095.42 142.305 Q2095.52 142.436 2095.52 143.042 L2095.52 161.881 Q2095.52 162.881 2096.01 163.193 Q2096.5 163.504 2098.65 163.504 L2099.71 163.504 L2099.71 164.537 Q2098.53 164.439 2094.27 164.439 Q2090.01 164.439 2088.84 164.537 L2088.84 163.504 L2089.91 163.504 Q2092.02 163.504 2092.53 163.209 Q2093.04 162.898 2093.04 161.881 L2093.04 144.485 Q2091.29 145.371 2088.63 145.371 Z" fill="#000000" fill-rule="evenodd" fill-opacity="1" /><polyline clip-path="url(#clip280)" style="stroke:#e26f46; stroke-linecap:butt; stroke-linejoin:round; stroke-width:4; stroke-opacity:1; fill:none" points="
  1875.35,196.246 2030.94,196.246 
  "/>
<path clip-path="url(#clip280)" d="M2083.78 188.377 Q2083.73 188.611 2083.64 189.033 Q2083.55 189.431 2083.13 190.696 Q2082.7 191.961 2082.14 193.249 Q2081.6 194.514 2080.55 196.294 Q2079.52 198.051 2078.25 199.643 Q2077.9 200.065 2077.83 200.323 Q2077.79 200.557 2077.79 201.33 Q2077.79 206.202 2079.26 206.202 Q2079.33 206.202 2079.45 206.202 Q2079.59 206.178 2079.94 206.061 Q2080.32 205.921 2080.64 205.71 Q2080.97 205.476 2081.35 205.007 Q2081.72 204.515 2081.95 203.859 Q2082.17 203.391 2082.59 203.391 Q2083.15 203.391 2083.15 203.859 Q2083.15 204.703 2081.98 205.991 Q2080.81 207.279 2079.12 207.279 Q2077.5 207.279 2076.36 206.225 Q2075.23 205.148 2074.76 203.227 Q2069.7 207.279 2064.65 207.279 Q2061.09 207.279 2058.98 204.96 Q2056.87 202.618 2056.87 199.152 Q2056.87 195.826 2058.7 192.663 Q2060.55 189.501 2063.54 187.534 Q2066.57 185.543 2069.78 185.543 Q2070.9 185.543 2071.98 185.848 Q2073.05 186.129 2074.13 186.855 Q2075.21 187.581 2076.01 188.682 Q2076.8 189.783 2077.29 191.516 Q2077.79 193.249 2077.79 195.427 L2077.79 198.402 Q2080.88 194.49 2082.49 188.892 Q2082.73 188.049 2082.87 187.956 Q2082.96 187.885 2083.2 187.885 Q2083.43 187.885 2083.57 188.026 Q2083.73 188.143 2083.76 188.26 L2083.78 188.377 M2074.58 201.986 Q2074.48 201.166 2074.48 196.622 Q2074.48 195.755 2074.48 195.287 Q2074.48 194.795 2074.44 193.858 Q2074.39 192.921 2074.3 192.336 Q2074.23 191.75 2074.06 190.907 Q2073.9 190.064 2073.66 189.525 Q2073.43 188.986 2073.05 188.377 Q2072.7 187.768 2072.23 187.417 Q2071.79 187.066 2071.13 186.831 Q2070.5 186.597 2069.73 186.597 Q2068.77 186.597 2067.76 186.948 Q2066.78 187.276 2065.51 188.33 Q2064.25 189.361 2063.19 191 Q2062.09 192.734 2061.25 195.919 Q2060.43 199.081 2060.43 200.978 Q2060.43 203.368 2061.53 204.796 Q2062.63 206.202 2064.74 206.202 Q2069.78 206.202 2074.58 201.986 Z" fill="#000000" fill-rule="evenodd" fill-opacity="1" /><path clip-path="url(#clip280)" d="M2088.63 220.561 Q2088.63 219.954 2088.68 219.774 Q2088.74 219.593 2089.01 219.315 L2095.45 212.133 Q2098.98 208.166 2098.98 204.706 Q2098.98 202.46 2097.8 200.853 Q2096.63 199.246 2094.48 199.246 Q2093.01 199.246 2091.76 200.148 Q2090.52 201.05 2089.94 202.657 Q2090.04 202.624 2090.38 202.624 Q2091.22 202.624 2091.68 203.148 Q2092.15 203.673 2092.15 204.378 Q2092.15 205.28 2091.56 205.723 Q2090.99 206.149 2090.42 206.149 Q2090.19 206.149 2089.88 206.1 Q2089.58 206.05 2089.11 205.591 Q2088.63 205.116 2088.63 204.28 Q2088.63 201.935 2090.4 200.066 Q2092.19 198.197 2094.91 198.197 Q2097.99 198.197 2100.01 200.033 Q2102.04 201.853 2102.04 204.706 Q2102.04 205.706 2101.73 206.624 Q2101.43 207.526 2101.03 208.231 Q2100.63 208.936 2099.55 210.067 Q2098.47 211.199 2097.6 212.002 Q2096.73 212.806 2094.78 214.511 L2091.22 217.97 L2097.27 217.97 Q2100.22 217.97 2100.45 217.708 Q2100.78 217.232 2101.19 214.724 L2102.04 214.724 L2101.09 220.561 L2088.63 220.561 Z" fill="#000000" fill-rule="evenodd" fill-opacity="1" /><polyline clip-path="url(#clip280)" style="stroke:#3da44d; stroke-linecap:butt; stroke-linejoin:round; stroke-width:4; stroke-opacity:1; fill:none" points="
  1875.35,252.27 2030.94,252.27 
  "/>
<path clip-path="url(#clip280)" d="M2082.99 237.157 Q2082.99 237.766 2082.73 238.937 Q2081.91 242.239 2078.84 244.511 Q2078.32 244.933 2077.41 245.471 Q2078.51 246.198 2079.47 247.533 Q2080.9 249.734 2080.9 252.709 Q2080.9 254.091 2080.53 255.777 Q2079.47 259.689 2075.77 262.5 Q2072.05 265.24 2067.62 265.24 Q2065.23 265.24 2063.59 263.975 Q2061.98 262.687 2061.34 260.532 L2058.09 273.672 Q2058.02 274 2057.6 274 L2057.36 274 Q2056.87 274 2056.87 273.438 L2064.27 243.926 Q2064.76 241.935 2065.56 240.061 Q2066.36 238.187 2067.46 236.501 Q2068.58 234.814 2069.87 233.573 Q2071.16 232.308 2072.75 231.582 Q2074.34 230.832 2076.03 230.832 Q2079.57 230.832 2081.58 233.245 Q2082.99 234.955 2082.99 237.157 M2080.29 236.313 Q2080.29 234.861 2079.71 233.854 Q2078.51 231.933 2075.98 231.933 Q2074.46 231.933 2073.01 232.636 Q2071.58 233.315 2070.43 234.486 Q2069.28 235.657 2068.3 237.25 Q2067.32 238.843 2066.59 240.576 Q2065.89 242.286 2065.42 244.16 L2062.54 255.777 Q2062.26 257.019 2062.26 258.12 Q2062.26 260.743 2063.71 262.453 Q2065.16 264.163 2067.67 264.163 Q2070.99 264.163 2073.85 261.68 Q2076.33 259.455 2077.36 255.543 Q2077.95 253.084 2077.95 251.374 Q2077.95 249.5 2077.27 248.048 Q2076.78 246.877 2075.82 246.174 Q2074.04 246.807 2072.23 246.807 Q2071.37 246.807 2070.9 246.783 Q2070.45 246.76 2069.8 246.666 Q2069.17 246.572 2068.86 246.315 Q2068.58 246.057 2068.58 245.659 Q2068.58 245.425 2068.63 245.331 Q2068.72 244.956 2069.03 244.699 Q2069.33 244.441 2069.68 244.324 Q2070.03 244.183 2070.62 244.113 Q2071.23 244.043 2071.63 244.043 Q2072.02 244.019 2072.7 244.019 Q2074.3 244.019 2075.91 244.652 Q2076.52 244.324 2077.18 243.738 Q2079.26 241.794 2079.96 238.702 Q2080.29 237.555 2080.29 236.313 M2074.39 245.378 Q2073.41 245.12 2072.66 245.12 Q2069.92 245.12 2069.78 245.565 Q2069.78 245.612 2069.87 245.659 Q2069.96 245.682 2070.17 245.706 Q2070.41 245.706 2070.59 245.729 Q2070.81 245.753 2071.16 245.753 Q2071.51 245.753 2071.7 245.753 Q2071.91 245.753 2072.28 245.753 Q2073.22 245.753 2074.39 245.378 Z" fill="#000000" fill-rule="evenodd" fill-opacity="1" /><path clip-path="url(#clip280)" d="M2087.85 287.194 Q2087.85 286.587 2087.9 286.407 Q2087.96 286.226 2088.23 285.947 L2094.67 278.766 Q2098.19 274.798 2098.19 271.339 Q2098.19 269.093 2097.01 267.486 Q2095.85 265.879 2093.7 265.879 Q2092.23 265.879 2090.98 266.781 Q2089.73 267.683 2089.16 269.289 Q2089.26 269.257 2089.6 269.257 Q2090.44 269.257 2090.9 269.781 Q2091.37 270.306 2091.37 271.011 Q2091.37 271.913 2090.78 272.355 Q2090.21 272.782 2089.64 272.782 Q2089.41 272.782 2089.09 272.732 Q2088.8 272.683 2088.32 272.224 Q2087.85 271.749 2087.85 270.913 Q2087.85 268.568 2089.62 266.699 Q2091.41 264.83 2094.13 264.83 Q2097.21 264.83 2099.23 266.666 Q2101.26 268.486 2101.26 271.339 Q2101.26 272.339 2100.95 273.257 Q2100.65 274.159 2100.24 274.864 Q2099.85 275.569 2098.77 276.7 Q2097.69 277.832 2096.82 278.635 Q2095.95 279.438 2094 281.143 L2090.44 284.603 L2096.49 284.603 Q2099.44 284.603 2099.67 284.341 Q2100 283.865 2100.41 281.357 L2101.26 281.357 L2100.31 287.194 L2087.85 287.194 Z" fill="#000000" fill-rule="evenodd" fill-opacity="1" /><path clip-path="url(#clip280)" d="M957.866 1071.84 Q957.866 1078.72 955.652 1086.47 Q953.48 1094.18 950.037 1100.41 Q946.594 1106.6 942.085 1110.69 Q937.576 1114.75 933.272 1114.75 Q930.526 1114.75 928.476 1113.24 Q926.468 1111.68 925.361 1109.1 Q924.255 1106.47 923.722 1103.6 Q923.189 1100.69 923.189 1097.54 Q923.189 1092.82 924.214 1087.7 Q925.238 1082.53 926.96 1077.86 Q928.681 1073.15 931.1 1068.89 Q933.518 1064.58 936.182 1061.47 Q938.888 1058.31 941.921 1056.47 Q944.954 1054.62 947.782 1054.62 Q949.832 1054.62 951.471 1055.52 Q953.152 1056.38 954.218 1057.9 Q955.283 1059.38 956.021 1061.14 Q956.8 1062.9 957.169 1064.95 Q957.538 1066.96 957.702 1068.64 Q957.866 1070.28 957.866 1071.84 M952.332 1066.63 Q952.332 1064.54 952.168 1062.98 Q952.004 1061.38 951.553 1059.79 Q951.103 1058.19 950.119 1057.33 Q949.176 1056.47 947.7 1056.47 Q943.397 1056.47 938.56 1065.28 Q937.002 1068.02 935.609 1071.75 Q934.215 1075.48 933.723 1077.25 Q933.231 1079.01 932.084 1083.35 L949.627 1083.35 Q952.332 1072.16 952.332 1066.63 M948.889 1086.02 L931.428 1086.02 Q928.722 1096.27 928.722 1102.66 Q928.722 1108.23 929.87 1110.57 Q931.059 1112.87 933.272 1112.87 Q935.814 1112.87 938.191 1110.33 Q940.568 1107.74 942.987 1103.07 Q946.184 1097 948.889 1086.02 Z" fill="#000000" fill-rule="evenodd" fill-opacity="1" /></svg>
