<?xml version="1.0" encoding="utf-8"?>
<svg xmlns="http://www.w3.org/2000/svg" xmlns:xlink="http://www.w3.org/1999/xlink" width="600" height="400" viewBox="0 0 2400 1600">
<defs>
  <clipPath id="clip250">
    <rect x="0" y="0" width="2400" height="1600"/>
  </clipPath>
</defs>
<path clip-path="url(#clip250)" d="
M0 1600 L2400 1600 L2400 0 L0 0  Z
  " fill="#ffffff" fill-rule="evenodd" fill-opacity="1"/>
<defs>
  <clipPath id="clip251">
    <rect x="480" y="0" width="1681" height="1600"/>
  </clipPath>
</defs>
<defs>
  <clipPath id="clip252">
    <rect x="249" y="33" width="1535" height="1535"/>
  </clipPath>
</defs>
<path clip-path="url(#clip250)" d="
M249.323 1566.93 L1783.18 1566.93 L1783.18 33.0709 L249.323 33.0709  Z
  " fill="#ffffff" fill-rule="evenodd" fill-opacity="1"/>
<polyline clip-path="url(#clip252)" style="stroke:#009af9; stroke-linecap:butt; stroke-linejoin:round; stroke-width:8; stroke-opacity:1; fill:none" points="
  706.173,1110.08 458.109,283.201 
  "/>
<polyline clip-path="url(#clip252)" style="stroke:#009af9; stroke-linecap:butt; stroke-linejoin:round; stroke-width:8; stroke-opacity:1; fill:none" points="
  451.213,322.855 458.109,283.201 485.695,312.511 
  "/>
<polyline clip-path="url(#clip252)" style="stroke:#009af9; stroke-linecap:butt; stroke-linejoin:round; stroke-width:8; stroke-opacity:1; fill:none" points="
  458.109,283.201 706.173,1110.08 
  "/>
<polyline clip-path="url(#clip252)" style="stroke:#e26f46; stroke-linecap:butt; stroke-linejoin:round; stroke-width:8; stroke-opacity:1; fill:none" points="
  706.173,1110.08 1533.05,1192.77 
  "/>
<polyline clip-path="url(#clip252)" style="stroke:#e26f46; stroke-linecap:butt; stroke-linejoin:round; stroke-width:8; stroke-opacity:1; fill:none" points="
  1499.02,1171.27 1533.05,1192.77 1495.44,1207.1 
  "/>
<polyline clip-path="url(#clip252)" style="stroke:#e26f46; stroke-linecap:butt; stroke-linejoin:round; stroke-width:8; stroke-opacity:1; fill:none" points="
  1533.05,1192.77 706.173,1110.08 
  "/>
<polyline clip-path="url(#clip252)" style="stroke:#3da44d; stroke-linecap:butt; stroke-linejoin:round; stroke-width:8; stroke-opacity:1; fill:none" points="
  706.173,1110.08 1442.02,889.326 
  "/>
<polyline clip-path="url(#clip252)" style="stroke:#3da44d; stroke-linecap:butt; stroke-linejoin:round; stroke-width:8; stroke-opacity:1; fill:none" points="
  1402.36,882.429 1442.02,889.326 1412.71,916.911 
  "/>
<polyline clip-path="url(#clip252)" style="stroke:#3da44d; stroke-linecap:butt; stroke-linejoin:round; stroke-width:8; stroke-opacity:1; fill:none" points="
  1442.02,889.326 706.173,1110.08 
  "/>
<polyline clip-path="url(#clip252)" style="stroke:#000000; stroke-linecap:butt; stroke-linejoin:round; stroke-width:5; stroke-opacity:1; fill:none" stroke-dasharray="20, 13" points="
  615.14,806.638 1442.02,889.326 1533.05,1192.77 
  "/>
<polyline clip-path="url(#clip252)" style="stroke:#000000; stroke-linecap:butt; stroke-linejoin:round; stroke-width:5; stroke-opacity:1; fill:none" points="
  864.574,1062.56 864.621,1062.72 864.669,1062.88 864.716,1063.03 864.763,1063.19 864.809,1063.35 864.856,1063.51 864.903,1063.67 864.949,1063.83 864.995,1063.99 
  865.041,1064.15 865.087,1064.3 865.133,1064.46 865.178,1064.62 865.224,1064.78 865.269,1064.94 865.314,1065.1 865.359,1065.26 865.403,1065.42 865.448,1065.58 
  865.492,1065.74 865.537,1065.9 865.581,1066.05 865.625,1066.21 865.669,1066.37 865.712,1066.53 865.756,1066.69 865.799,1066.85 865.842,1067.01 865.885,1067.17 
  865.928,1067.33 865.971,1067.49 866.013,1067.65 866.055,1067.81 866.098,1067.97 866.14,1068.13 866.182,1068.29 866.223,1068.45 866.265,1068.61 866.306,1068.77 
  866.347,1068.93 866.388,1069.09 866.429,1069.25 866.47,1069.41 866.511,1069.57 866.551,1069.73 866.591,1069.89 866.632,1070.05 866.671,1070.21 866.711,1070.37 
  866.751,1070.53 866.79,1070.7 866.83,1070.86 866.869,1071.02 866.908,1071.18 866.947,1071.34 866.985,1071.5 867.024,1071.66 867.062,1071.82 867.1,1071.98 
  867.138,1072.14 867.176,1072.3 867.214,1072.46 867.251,1072.63 867.289,1072.79 867.326,1072.95 867.363,1073.11 867.4,1073.27 867.437,1073.43 867.473,1073.59 
  867.51,1073.75 867.546,1073.92 867.582,1074.08 867.618,1074.24 867.654,1074.4 867.689,1074.56 867.725,1074.72 867.76,1074.88 867.795,1075.05 867.83,1075.21 
  867.865,1075.37 867.899,1075.53 867.934,1075.69 867.968,1075.85 868.002,1076.02 868.036,1076.18 868.07,1076.34 868.104,1076.5 868.137,1076.66 868.171,1076.83 
  868.204,1076.99 868.237,1077.15 868.27,1077.31 868.302,1077.47 868.335,1077.64 868.367,1077.8 868.399,1077.96 868.431,1078.12 868.463,1078.29 868.495,1078.45 
  868.527,1078.61 868.558,1078.77 868.589,1078.93 868.62,1079.1 868.651,1079.26 868.682,1079.42 868.712,1079.58 868.743,1079.75 868.773,1079.91 868.803,1080.07 
  868.833,1080.24 868.863,1080.4 868.893,1080.56 868.922,1080.72 868.951,1080.89 868.98,1081.05 869.009,1081.21 869.038,1081.37 869.067,1081.54 869.095,1081.7 
  869.123,1081.86 869.152,1082.03 869.18,1082.19 869.207,1082.35 869.235,1082.52 869.262,1082.68 869.29,1082.84 869.317,1083 869.344,1083.17 869.371,1083.33 
  869.397,1083.49 869.424,1083.66 869.45,1083.82 869.476,1083.98 869.502,1084.15 869.528,1084.31 869.554,1084.47 869.58,1084.64 869.605,1084.8 869.63,1084.96 
  869.655,1085.13 869.68,1085.29 869.705,1085.45 869.729,1085.62 869.754,1085.78 869.778,1085.95 869.802,1086.11 869.826,1086.27 869.85,1086.44 869.873,1086.6 
  869.896,1086.76 869.92,1086.93 869.943,1087.09 869.966,1087.25 869.988,1087.42 870.011,1087.58 870.033,1087.75 870.056,1087.91 870.078,1088.07 870.1,1088.24 
  870.121,1088.4 870.143,1088.57 870.164,1088.73 870.186,1088.89 870.207,1089.06 870.228,1089.22 870.249,1089.39 870.269,1089.55 870.29,1089.71 870.31,1089.88 
  870.33,1090.04 870.35,1090.21 870.37,1090.37 870.389,1090.54 870.409,1090.7 870.428,1090.86 870.447,1091.03 870.466,1091.19 870.485,1091.36 870.504,1091.52 
  870.522,1091.69 870.54,1091.85 870.559,1092.01 870.577,1092.18 870.594,1092.34 870.612,1092.51 870.63,1092.67 870.647,1092.84 870.664,1093 870.681,1093.16 
  870.698,1093.33 870.715,1093.49 870.731,1093.66 870.747,1093.82 870.764,1093.99 870.78,1094.15 870.795,1094.32 870.811,1094.48 870.827,1094.65 870.842,1094.81 
  870.857,1094.98 870.872,1095.14 870.887,1095.3 870.902,1095.47 870.916,1095.63 870.931,1095.8 870.945,1095.96 870.959,1096.13 870.973,1096.29 870.986,1096.46 
  871,1096.62 871.013,1096.79 871.027,1096.95 871.04,1097.12 871.052,1097.28 871.065,1097.45 871.078,1097.61 871.09,1097.78 871.102,1097.94 871.114,1098.11 
  871.126,1098.27 871.138,1098.44 871.15,1098.6 871.161,1098.77 871.172,1098.93 871.183,1099.1 871.194,1099.26 871.205,1099.43 871.215,1099.59 871.226,1099.76 
  871.236,1099.92 871.246,1100.09 871.256,1100.25 871.266,1100.42 871.275,1100.58 871.285,1100.75 871.294,1100.91 871.303,1101.08 871.312,1101.24 871.321,1101.41 
  871.329,1101.57 871.338,1101.74 871.346,1101.9 871.354,1102.07 871.362,1102.23 871.37,1102.4 871.377,1102.56 871.385,1102.73 871.392,1102.89 871.399,1103.06 
  871.406,1103.23 871.413,1103.39 871.42,1103.56 871.426,1103.72 871.432,1103.89 871.438,1104.05 871.444,1104.22 871.45,1104.38 871.456,1104.55 871.461,1104.71 
  871.466,1104.88 871.472,1105.04 871.477,1105.21 871.481,1105.37 871.486,1105.54 871.49,1105.7 871.495,1105.87 871.499,1106.04 871.503,1106.2 871.507,1106.37 
  871.51,1106.53 871.514,1106.7 871.517,1106.86 871.52,1107.03 871.523,1107.19 871.526,1107.36 871.529,1107.52 871.531,1107.69 871.533,1107.85 871.535,1108.02 
  871.537,1108.18 871.539,1108.35 871.541,1108.52 871.542,1108.68 871.544,1108.85 871.545,1109.01 871.546,1109.18 871.547,1109.34 871.547,1109.51 871.548,1109.67 
  871.548,1109.84 871.548,1110 871.548,1110.17 871.548,1110.33 871.548,1110.5 871.547,1110.67 871.547,1110.83 871.546,1111 871.545,1111.16 871.544,1111.33 
  871.542,1111.49 871.541,1111.66 871.539,1111.82 871.537,1111.99 871.535,1112.15 871.533,1112.32 871.531,1112.48 871.528,1112.65 871.526,1112.81 871.523,1112.98 
  871.52,1113.15 871.517,1113.31 871.513,1113.48 871.51,1113.64 871.506,1113.81 871.502,1113.97 871.499,1114.14 871.494,1114.3 871.49,1114.47 871.486,1114.63 
  871.481,1114.8 871.476,1114.96 871.471,1115.13 871.466,1115.29 871.461,1115.46 871.455,1115.63 871.45,1115.79 871.444,1115.96 871.438,1116.12 871.432,1116.29 
  871.425,1116.45 871.419,1116.62 871.412,1116.78 871.406,1116.95 871.399,1117.11 871.392,1117.28 871.384,1117.44 871.377,1117.61 871.369,1117.77 871.361,1117.94 
  871.353,1118.1 871.345,1118.27 871.337,1118.43 871.329,1118.6 871.32,1118.76 871.311,1118.93 871.302,1119.09 871.293,1119.26 871.284,1119.43 871.275,1119.59 
  871.265,1119.76 871.255,1119.92 871.245,1120.09 871.235,1120.25 871.225,1120.42 871.215,1120.58 871.204,1120.75 871.193,1120.91 871.182,1121.08 871.171,1121.24 
  871.16,1121.41 871.149,1121.57 871.137,1121.74 871.125,1121.9 871.113,1122.07 871.101,1122.23 871.089,1122.4 871.077,1122.56 871.064,1122.73 871.051,1122.89 
  871.038,1123.05 871.025,1123.22 871.012,1123.38 870.999,1123.55 870.985,1123.71 870.972,1123.88 870.958,1124.04 870.944,1124.21 870.929,1124.37 870.915,1124.54 
  870.9,1124.7 870.886,1124.87 870.871,1125.03 870.856,1125.2 870.841,1125.36 870.825,1125.53 870.81,1125.69 870.794,1125.86 870.778,1126.02 870.762,1126.18 
  870.746,1126.35 870.73,1126.51 
  "/>
<polyline clip-path="url(#clip252)" style="stroke:#000000; stroke-linecap:butt; stroke-linejoin:round; stroke-width:5; stroke-opacity:1; fill:none" points="
  682.413,1030.88 761.613,1007.12 785.373,1086.32 
  "/>
<path clip-path="url(#clip250)" d="
M1860.98 291.559 L2150.68 291.559 L2150.68 84.1995 L1860.98 84.1995  Z
  " fill="#ffffff" fill-rule="evenodd" fill-opacity="1"/>
<polyline clip-path="url(#clip250)" style="stroke:#000000; stroke-linecap:butt; stroke-linejoin:round; stroke-width:4; stroke-opacity:1; fill:none" points="
  1860.98,291.559 2150.68,291.559 2150.68,84.1995 1860.98,84.1995 1860.98,291.559 
  "/>
<polyline clip-path="url(#clip250)" style="stroke:#009af9; stroke-linecap:butt; stroke-linejoin:round; stroke-width:4; stroke-opacity:1; fill:none" points="
  1886.91,136.039 2042.5,136.039 
  "/>
<path clip-path="url(#clip250)" d="M2095.34 134.815 Q2095.3 135.049 2095.2 135.471 Q2095.11 135.869 2094.69 137.134 Q2094.27 138.398 2093.7 139.687 Q2093.16 140.952 2092.11 142.732 Q2091.08 144.488 2089.82 146.081 Q2089.46 146.503 2089.39 146.76 Q2089.35 146.995 2089.35 147.767 Q2089.35 152.639 2090.82 152.639 Q2090.89 152.639 2091.01 152.639 Q2091.15 152.616 2091.5 152.499 Q2091.88 152.358 2092.2 152.147 Q2092.53 151.913 2092.91 151.445 Q2093.28 150.953 2093.52 150.297 Q2093.73 149.829 2094.15 149.829 Q2094.71 149.829 2094.71 150.297 Q2094.71 151.14 2093.54 152.429 Q2092.37 153.717 2090.68 153.717 Q2089.07 153.717 2087.92 152.663 Q2086.79 151.585 2086.33 149.665 Q2081.27 153.717 2076.21 153.717 Q2072.65 153.717 2070.54 151.398 Q2068.43 149.056 2068.43 145.589 Q2068.43 142.263 2070.26 139.101 Q2072.11 135.939 2075.11 133.972 Q2078.13 131.981 2081.34 131.981 Q2082.46 131.981 2083.54 132.285 Q2084.62 132.566 2085.69 133.292 Q2086.77 134.018 2087.57 135.119 Q2088.36 136.22 2088.85 137.953 Q2089.35 139.687 2089.35 141.865 L2089.35 144.84 Q2092.44 140.928 2094.05 135.33 Q2094.29 134.487 2094.43 134.393 Q2094.52 134.323 2094.76 134.323 Q2094.99 134.323 2095.13 134.464 Q2095.3 134.581 2095.32 134.698 L2095.34 134.815 M2086.14 148.423 Q2086.04 147.603 2086.04 143.06 Q2086.04 142.193 2086.04 141.724 Q2086.04 141.233 2086 140.296 Q2085.95 139.359 2085.86 138.773 Q2085.79 138.188 2085.62 137.344 Q2085.46 136.501 2085.22 135.963 Q2084.99 135.424 2084.62 134.815 Q2084.26 134.206 2083.8 133.855 Q2083.35 133.503 2082.69 133.269 Q2082.06 133.035 2081.29 133.035 Q2080.33 133.035 2079.32 133.386 Q2078.34 133.714 2077.07 134.768 Q2075.81 135.799 2074.75 137.438 Q2073.65 139.171 2072.81 142.357 Q2071.99 145.519 2071.99 147.416 Q2071.99 149.805 2073.09 151.234 Q2074.19 152.639 2076.3 152.639 Q2081.34 152.639 2086.14 148.423 Z" fill="#000000" fill-rule="evenodd" fill-opacity="1" /><polyline clip-path="url(#clip250)" style="stroke:#e26f46; stroke-linecap:butt; stroke-linejoin:round; stroke-width:4; stroke-opacity:1; fill:none" points="
  1886.91,187.879 2042.5,187.879 
  "/>
<path clip-path="url(#clip250)" d="M2094.55 179.411 Q2094.55 180.02 2094.29 181.191 Q2093.47 184.493 2090.4 186.765 Q2089.89 187.187 2088.97 187.726 Q2090.07 188.452 2091.03 189.787 Q2092.46 191.989 2092.46 194.963 Q2092.46 196.345 2092.09 198.032 Q2091.03 201.943 2087.33 204.754 Q2083.61 207.494 2079.18 207.494 Q2076.79 207.494 2075.15 206.229 Q2073.54 204.941 2072.9 202.786 L2069.65 215.926 Q2069.58 216.254 2069.16 216.254 L2068.92 216.254 Q2068.43 216.254 2068.43 215.692 L2075.83 186.18 Q2076.32 184.189 2077.12 182.315 Q2077.92 180.441 2079.02 178.755 Q2080.14 177.068 2081.43 175.827 Q2082.72 174.562 2084.31 173.836 Q2085.9 173.087 2087.59 173.087 Q2091.13 173.087 2093.14 175.499 Q2094.55 177.209 2094.55 179.411 M2091.85 178.568 Q2091.85 177.115 2091.27 176.108 Q2090.07 174.188 2087.54 174.188 Q2086.02 174.188 2084.57 174.89 Q2083.14 175.569 2081.99 176.741 Q2080.84 177.912 2079.86 179.504 Q2078.88 181.097 2078.15 182.83 Q2077.45 184.54 2076.98 186.414 L2074.1 198.032 Q2073.82 199.273 2073.82 200.374 Q2073.82 202.997 2075.27 204.707 Q2076.72 206.417 2079.23 206.417 Q2082.55 206.417 2085.41 203.934 Q2087.89 201.709 2088.93 197.797 Q2089.51 195.338 2089.51 193.628 Q2089.51 191.754 2088.83 190.302 Q2088.34 189.131 2087.38 188.428 Q2085.6 189.061 2083.8 189.061 Q2082.93 189.061 2082.46 189.037 Q2082.02 189.014 2081.36 188.92 Q2080.73 188.827 2080.42 188.569 Q2080.14 188.311 2080.14 187.913 Q2080.14 187.679 2080.19 187.585 Q2080.28 187.21 2080.59 186.953 Q2080.89 186.695 2081.24 186.578 Q2081.59 186.437 2082.18 186.367 Q2082.79 186.297 2083.19 186.297 Q2083.58 186.274 2084.26 186.274 Q2085.86 186.274 2087.47 186.906 Q2088.08 186.578 2088.74 185.992 Q2090.82 184.048 2091.52 180.957 Q2091.85 179.809 2091.85 178.568 M2085.95 187.632 Q2084.97 187.374 2084.22 187.374 Q2081.48 187.374 2081.34 187.819 Q2081.34 187.866 2081.43 187.913 Q2081.52 187.937 2081.73 187.96 Q2081.97 187.96 2082.16 187.983 Q2082.37 188.007 2082.72 188.007 Q2083.07 188.007 2083.26 188.007 Q2083.47 188.007 2083.84 188.007 Q2084.78 188.007 2085.95 187.632 Z" fill="#000000" fill-rule="evenodd" fill-opacity="1" /><polyline clip-path="url(#clip250)" style="stroke:#3da44d; stroke-linecap:butt; stroke-linejoin:round; stroke-width:4; stroke-opacity:1; fill:none" points="
  1886.91,239.719 2042.5,239.719 
  "/>
<path clip-path="url(#clip250)" d="M2093.61 231.832 Q2093.61 232.019 2092.7 233.659 Q2091.17 236.68 2089.23 241.295 Q2087.29 245.909 2086.18 249.329 Q2085.95 250.148 2085.79 251.202 Q2085.36 254.435 2084.01 259.447 Q2083.54 261.016 2083.23 261.672 Q2082.93 262.328 2082.48 262.328 Q2081.85 262.328 2081.85 261.461 Q2081.85 260.595 2082.65 257.362 Q2083.47 254.13 2084.36 251.155 Q2084.92 249.516 2084.92 246.448 Q2084.92 245.464 2084.87 244.574 Q2084.83 243.684 2084.64 242.395 Q2084.45 241.107 2084.15 240.053 Q2083.84 238.999 2083.26 237.898 Q2082.67 236.774 2081.87 236.025 Q2081.08 235.252 2079.86 234.76 Q2078.67 234.268 2077.17 234.268 Q2076.79 234.268 2076.32 234.315 Q2075.88 234.338 2074.8 234.643 Q2073.75 234.947 2072.86 235.486 Q2071.97 236.001 2071.01 237.149 Q2070.05 238.297 2069.53 239.842 L2069.34 240.077 Q2069.04 240.077 2068.88 240.077 Q2068.73 240.053 2068.57 239.936 Q2068.43 239.819 2068.43 239.608 Q2068.43 239.116 2068.81 238.133 Q2069.2 237.149 2070 235.884 Q2070.82 234.619 2071.87 233.495 Q2072.95 232.371 2074.52 231.598 Q2076.09 230.825 2077.78 230.825 Q2082.11 230.825 2084.17 236.095 Q2085.97 240.569 2086.14 245.885 Q2089.89 236.446 2092.46 231.691 Q2092.6 231.34 2093.02 231.34 Q2093.61 231.364 2093.61 231.832 Z" fill="#000000" fill-rule="evenodd" fill-opacity="1" /><path clip-path="url(#clip250)" d="M969.427 1071.84 Q969.427 1078.72 967.214 1086.47 Q965.041 1094.18 961.598 1100.41 Q958.155 1106.6 953.646 1110.69 Q949.137 1114.75 944.833 1114.75 Q942.087 1114.75 940.038 1113.24 Q938.029 1111.68 936.922 1109.1 Q935.816 1106.47 935.283 1103.6 Q934.75 1100.69 934.75 1097.54 Q934.75 1092.82 935.775 1087.7 Q936.799 1082.53 938.521 1077.86 Q940.243 1073.15 942.661 1068.89 Q945.079 1064.58 947.744 1061.47 Q950.449 1058.31 953.482 1056.47 Q956.515 1054.62 959.344 1054.62 Q961.393 1054.62 963.033 1055.52 Q964.713 1056.38 965.779 1057.9 Q966.845 1059.38 967.582 1061.14 Q968.361 1062.9 968.73 1064.95 Q969.099 1066.96 969.263 1068.64 Q969.427 1070.28 969.427 1071.84 M963.893 1066.63 Q963.893 1064.54 963.729 1062.98 Q963.565 1061.38 963.115 1059.79 Q962.664 1058.19 961.68 1057.33 Q960.737 1056.47 959.262 1056.47 Q954.958 1056.47 950.121 1065.28 Q948.563 1068.02 947.17 1071.75 Q945.776 1075.48 945.284 1077.25 Q944.792 1079.01 943.645 1083.35 L961.188 1083.35 Q963.893 1072.16 963.893 1066.63 M960.45 1086.02 L942.989 1086.02 Q940.284 1096.27 940.284 1102.66 Q940.284 1108.23 941.431 1110.57 Q942.62 1112.87 944.833 1112.87 Q947.375 1112.87 949.752 1110.33 Q952.129 1107.74 954.548 1103.07 Q957.745 1097 960.45 1086.02 Z" fill="#000000" fill-rule="evenodd" fill-opacity="1" /></svg>
