<?xml version="1.0" encoding="utf-8"?>
<svg xmlns="http://www.w3.org/2000/svg" xmlns:xlink="http://www.w3.org/1999/xlink" width="600" height="400" viewBox="0 0 2400 1600">
<defs>
  <clipPath id="clip060">
    <rect x="0" y="0" width="2400" height="1600"/>
  </clipPath>
</defs>
<path clip-path="url(#clip060)" d="
M0 1600 L2400 1600 L2400 0 L0 0  Z
  " fill="#ffffff" fill-rule="evenodd" fill-opacity="1"/>
<defs>
  <clipPath id="clip061">
    <rect x="480" y="0" width="1681" height="1600"/>
  </clipPath>
</defs>
<path clip-path="url(#clip060)" d="
M47.2441 198.526 L2352.76 198.526 L2352.76 123.472 L47.2441 123.472  Z
  " fill="#ffffff" fill-rule="evenodd" fill-opacity="1"/>
<defs>
  <clipPath id="clip062">
    <rect x="47" y="123" width="2307" height="76"/>
  </clipPath>
</defs>
<path clip-path="url(#clip060)" d="M913.662 12.096 L924.68 12.096 L951.497 62.6918 L951.497 12.096 L959.437 12.096 L959.437 72.576 L948.419 72.576 L921.602 21.9802 L921.602 72.576 L913.662 72.576 L913.662 12.096 Z" fill="#000000" fill-rule="evenodd" fill-opacity="1" /><path clip-path="url(#clip060)" d="M992.979 32.4315 Q986.983 32.4315 983.499 37.1306 Q980.016 41.7891 980.016 49.9314 Q980.016 58.0738 983.459 62.7728 Q986.943 67.4314 992.979 67.4314 Q998.933 67.4314 1002.42 62.7323 Q1005.9 58.0333 1005.9 49.9314 Q1005.9 41.8701 1002.42 37.1711 Q998.933 32.4315 992.979 32.4315 M992.979 26.1121 Q1002.7 26.1121 1008.25 32.4315 Q1013.8 38.7509 1013.8 49.9314 Q1013.8 61.0714 1008.25 67.4314 Q1002.7 73.7508 992.979 73.7508 Q983.216 73.7508 977.666 67.4314 Q972.157 61.0714 972.157 49.9314 Q972.157 38.7509 977.666 32.4315 Q983.216 26.1121 992.979 26.1121 Z" fill="#000000" fill-rule="evenodd" fill-opacity="1" /><path clip-path="url(#clip060)" d="M1052.53 27.2059 L1059.98 27.2059 L1059.98 72.576 L1052.53 72.576 L1052.53 27.2059 M1052.53 9.54393 L1059.98 9.54393 L1059.98 18.9825 L1052.53 18.9825 L1052.53 9.54393 Z" fill="#000000" fill-rule="evenodd" fill-opacity="1" /><path clip-path="url(#clip060)" d="M1113.29 45.1919 L1113.29 72.576 L1105.84 72.576 L1105.84 45.4349 Q1105.84 38.994 1103.33 35.7938 Q1100.81 32.5936 1095.79 32.5936 Q1089.75 32.5936 1086.27 36.4419 Q1082.79 40.2903 1082.79 46.9338 L1082.79 72.576 L1075.29 72.576 L1075.29 27.2059 L1082.79 27.2059 L1082.79 34.2544 Q1085.46 30.163 1089.07 28.1376 Q1092.71 26.1121 1097.45 26.1121 Q1105.27 26.1121 1109.28 30.9732 Q1113.29 35.7938 1113.29 45.1919 Z" fill="#000000" fill-rule="evenodd" fill-opacity="1" /><path clip-path="url(#clip060)" d="M1135.53 14.324 L1135.53 27.2059 L1150.88 27.2059 L1150.88 32.9987 L1135.53 32.9987 L1135.53 57.6282 Q1135.53 63.1779 1137.03 64.7578 Q1138.57 66.3376 1143.23 66.3376 L1150.88 66.3376 L1150.88 72.576 L1143.23 72.576 Q1134.6 72.576 1131.32 69.3758 Q1128.04 66.1351 1128.04 57.6282 L1128.04 32.9987 L1122.57 32.9987 L1122.57 27.2059 L1128.04 27.2059 L1128.04 14.324 L1135.53 14.324 Z" fill="#000000" fill-rule="evenodd" fill-opacity="1" /><path clip-path="url(#clip060)" d="M1199.49 48.0275 L1199.49 51.6733 L1165.22 51.6733 Q1165.71 59.3701 1169.84 63.421 Q1174.01 67.4314 1181.43 67.4314 Q1185.72 67.4314 1189.73 66.3781 Q1193.78 65.3249 1197.75 63.2184 L1197.75 70.267 Q1193.74 71.9684 1189.53 72.8596 Q1185.32 73.7508 1180.98 73.7508 Q1170.12 73.7508 1163.76 67.4314 Q1157.45 61.1119 1157.45 50.3365 Q1157.45 39.1965 1163.44 32.6746 Q1169.48 26.1121 1179.68 26.1121 Q1188.84 26.1121 1194.15 32.0264 Q1199.49 37.9003 1199.49 48.0275 M1192.04 45.84 Q1191.96 39.7232 1188.6 36.0774 Q1185.27 32.4315 1179.77 32.4315 Q1173.53 32.4315 1169.76 35.9558 Q1166.03 39.4801 1165.47 45.8805 L1192.04 45.84 Z" fill="#000000" fill-rule="evenodd" fill-opacity="1" /><path clip-path="url(#clip060)" d="M1238.02 34.1734 Q1236.76 33.4443 1235.26 33.1202 Q1233.8 32.7556 1232.02 32.7556 Q1225.7 32.7556 1222.3 36.8875 Q1218.94 40.9789 1218.94 48.6757 L1218.94 72.576 L1211.44 72.576 L1211.44 27.2059 L1218.94 27.2059 L1218.94 34.2544 Q1221.29 30.1225 1225.05 28.1376 Q1228.82 26.1121 1234.21 26.1121 Q1234.98 26.1121 1235.91 26.2337 Q1236.84 26.3147 1237.98 26.5172 L1238.02 34.1734 Z" fill="#000000" fill-rule="evenodd" fill-opacity="1" /><path clip-path="url(#clip060)" d="M1266.46 49.7694 Q1257.42 49.7694 1253.94 51.8354 Q1250.45 53.9013 1250.45 58.8839 Q1250.45 62.8538 1253.05 65.2034 Q1255.68 67.5124 1260.18 67.5124 Q1266.37 67.5124 1270.1 63.1374 Q1273.87 58.7219 1273.87 51.4303 L1273.87 49.7694 L1266.46 49.7694 M1281.32 46.6907 L1281.32 72.576 L1273.87 72.576 L1273.87 65.6895 Q1271.32 69.8214 1267.51 71.8063 Q1263.7 73.7508 1258.19 73.7508 Q1251.22 73.7508 1247.09 69.8619 Q1243 65.9325 1243 59.3701 Q1243 51.7138 1248.1 47.825 Q1253.25 43.9361 1263.42 43.9361 L1273.87 43.9361 L1273.87 43.2069 Q1273.87 38.0623 1270.47 35.2672 Q1267.1 32.4315 1260.99 32.4315 Q1257.1 32.4315 1253.41 33.3632 Q1249.72 34.295 1246.32 36.1584 L1246.32 29.2718 Q1250.41 27.692 1254.26 26.9223 Q1258.11 26.1121 1261.76 26.1121 Q1271.6 26.1121 1276.46 31.2163 Q1281.32 36.3204 1281.32 46.6907 Z" fill="#000000" fill-rule="evenodd" fill-opacity="1" /><path clip-path="url(#clip060)" d="M1329.33 28.9478 L1329.33 35.9153 Q1326.17 34.1734 1322.97 33.3227 Q1319.81 32.4315 1316.56 32.4315 Q1309.31 32.4315 1305.3 37.0496 Q1301.29 41.6271 1301.29 49.9314 Q1301.29 58.2358 1305.3 62.8538 Q1309.31 67.4314 1316.56 67.4314 Q1319.81 67.4314 1322.97 66.5807 Q1326.17 65.6895 1329.33 63.9476 L1329.33 70.8341 Q1326.21 72.2924 1322.84 73.0216 Q1319.52 73.7508 1315.75 73.7508 Q1305.51 73.7508 1299.47 67.3098 Q1293.43 60.8689 1293.43 49.9314 Q1293.43 38.832 1299.51 32.472 Q1305.63 26.1121 1316.24 26.1121 Q1319.68 26.1121 1322.97 26.8413 Q1326.25 27.5299 1329.33 28.9478 Z" fill="#000000" fill-rule="evenodd" fill-opacity="1" /><path clip-path="url(#clip060)" d="M1349.66 14.324 L1349.66 27.2059 L1365.01 27.2059 L1365.01 32.9987 L1349.66 32.9987 L1349.66 57.6282 Q1349.66 63.1779 1351.16 64.7578 Q1352.7 66.3376 1357.36 66.3376 L1365.01 66.3376 L1365.01 72.576 L1357.36 72.576 Q1348.73 72.576 1345.45 69.3758 Q1342.17 66.1351 1342.17 57.6282 L1342.17 32.9987 L1336.7 32.9987 L1336.7 27.2059 L1342.17 27.2059 L1342.17 14.324 L1349.66 14.324 Z" fill="#000000" fill-rule="evenodd" fill-opacity="1" /><path clip-path="url(#clip060)" d="M1374.82 27.2059 L1382.27 27.2059 L1382.27 72.576 L1374.82 72.576 L1374.82 27.2059 M1374.82 9.54393 L1382.27 9.54393 L1382.27 18.9825 L1374.82 18.9825 L1374.82 9.54393 Z" fill="#000000" fill-rule="evenodd" fill-opacity="1" /><path clip-path="url(#clip060)" d="M1415.45 32.4315 Q1409.45 32.4315 1405.97 37.1306 Q1402.48 41.7891 1402.48 49.9314 Q1402.48 58.0738 1405.93 62.7728 Q1409.41 67.4314 1415.45 67.4314 Q1421.4 67.4314 1424.89 62.7323 Q1428.37 58.0333 1428.37 49.9314 Q1428.37 41.8701 1424.89 37.1711 Q1421.4 32.4315 1415.45 32.4315 M1415.45 26.1121 Q1425.17 26.1121 1430.72 32.4315 Q1436.27 38.7509 1436.27 49.9314 Q1436.27 61.0714 1430.72 67.4314 Q1425.17 73.7508 1415.45 73.7508 Q1405.68 73.7508 1400.13 67.4314 Q1394.63 61.0714 1394.63 49.9314 Q1394.63 38.7509 1400.13 32.4315 Q1405.68 26.1121 1415.45 26.1121 Z" fill="#000000" fill-rule="evenodd" fill-opacity="1" /><path clip-path="url(#clip060)" d="M1486.34 45.1919 L1486.34 72.576 L1478.88 72.576 L1478.88 45.4349 Q1478.88 38.994 1476.37 35.7938 Q1473.86 32.5936 1468.84 32.5936 Q1462.8 32.5936 1459.32 36.4419 Q1455.83 40.2903 1455.83 46.9338 L1455.83 72.576 L1448.34 72.576 L1448.34 27.2059 L1455.83 27.2059 L1455.83 34.2544 Q1458.51 30.163 1462.11 28.1376 Q1465.76 26.1121 1470.5 26.1121 Q1478.32 26.1121 1482.33 30.9732 Q1486.34 35.7938 1486.34 45.1919 Z" fill="#000000" fill-rule="evenodd" fill-opacity="1" /><path clip-path="url(#clip060)" d="
M47.2441 752.756 L752.756 752.756 L752.756 77.2666 L47.2441 77.2666  Z
  " fill="#ffffff" fill-rule="evenodd" fill-opacity="1"/>
<defs>
  <clipPath id="clip063">
    <rect x="47" y="77" width="707" height="676"/>
  </clipPath>
</defs>
<polyline clip-path="url(#clip060)" style="stroke:#000000; stroke-linecap:butt; stroke-linejoin:round; stroke-width:4; stroke-opacity:1; fill:none" points="
  47.2441,752.756 752.756,752.756 
  "/>
<polyline clip-path="url(#clip060)" style="stroke:#000000; stroke-linecap:butt; stroke-linejoin:round; stroke-width:4; stroke-opacity:1; fill:none" points="
  47.2441,752.756 47.2441,77.2666 
  "/>
<polyline clip-path="url(#clip063)" style="stroke:#fab4ad; stroke-linecap:butt; stroke-linejoin:round; stroke-width:20; stroke-opacity:1; fill:none" points="
  67.2114,202.593 732.789,415.011 
  "/>
<polyline clip-path="url(#clip063)" style="stroke:#b3cde2; stroke-linecap:butt; stroke-linejoin:round; stroke-width:20; stroke-opacity:1; fill:none" points="
  67.2114,415.011 732.789,627.429 
  "/>
<path clip-path="url(#clip060)" d="
M847.244 752.756 L1552.76 752.756 L1552.76 77.2666 L847.244 77.2666  Z
  " fill="#ffffff" fill-rule="evenodd" fill-opacity="1"/>
<defs>
  <clipPath id="clip064">
    <rect x="847" y="77" width="707" height="676"/>
  </clipPath>
</defs>
<polyline clip-path="url(#clip060)" style="stroke:#000000; stroke-linecap:butt; stroke-linejoin:round; stroke-width:4; stroke-opacity:1; fill:none" points="
  847.244,752.756 1552.76,752.756 
  "/>
<polyline clip-path="url(#clip060)" style="stroke:#000000; stroke-linecap:butt; stroke-linejoin:round; stroke-width:4; stroke-opacity:1; fill:none" points="
  847.244,752.756 847.244,77.2666 
  "/>
<polyline clip-path="url(#clip064)" style="stroke:#fab4ad; stroke-linecap:butt; stroke-linejoin:round; stroke-width:20; stroke-opacity:1; fill:none" points="
  867.211,308.802 1532.79,308.802 
  "/>
<polyline clip-path="url(#clip064)" style="stroke:#b3cde2; stroke-linecap:butt; stroke-linejoin:round; stroke-width:20; stroke-opacity:1; fill:none" points="
  867.211,521.22 1532.79,521.22 
  "/>
<path clip-path="url(#clip060)" d="
M1647.24 752.756 L2352.76 752.756 L2352.76 77.2666 L1647.24 77.2666  Z
  " fill="#ffffff" fill-rule="evenodd" fill-opacity="1"/>
<defs>
  <clipPath id="clip065">
    <rect x="1647" y="77" width="707" height="676"/>
  </clipPath>
</defs>
<polyline clip-path="url(#clip060)" style="stroke:#000000; stroke-linecap:butt; stroke-linejoin:round; stroke-width:4; stroke-opacity:1; fill:none" points="
  1647.24,752.756 2352.76,752.756 
  "/>
<polyline clip-path="url(#clip060)" style="stroke:#000000; stroke-linecap:butt; stroke-linejoin:round; stroke-width:4; stroke-opacity:1; fill:none" points="
  1647.24,752.756 1647.24,77.2666 
  "/>
<polyline clip-path="url(#clip065)" style="stroke:#fab4ad; stroke-linecap:butt; stroke-linejoin:round; stroke-width:20; stroke-opacity:1; fill:none" points="
  1667.21,627.429 2332.79,415.011 
  "/>
<polyline clip-path="url(#clip065)" style="stroke:#b3cde2; stroke-linecap:butt; stroke-linejoin:round; stroke-width:20; stroke-opacity:1; fill:none" points="
  1667.21,415.011 2332.79,202.593 
  "/>
<path clip-path="url(#clip060)" d="
M47.2441 998.526 L2352.76 998.526 L2352.76 923.472 L47.2441 923.472  Z
  " fill="#ffffff" fill-rule="evenodd" fill-opacity="1"/>
<defs>
  <clipPath id="clip066">
    <rect x="47" y="923" width="2307" height="76"/>
  </clipPath>
</defs>
<path clip-path="url(#clip060)" d="M982.547 812.096 L990.73 812.096 L990.73 872.576 L982.547 872.576 L982.547 812.096 Z" fill="#000000" fill-rule="evenodd" fill-opacity="1" /><path clip-path="url(#clip060)" d="M1044.4 845.192 L1044.4 872.576 L1036.95 872.576 L1036.95 845.435 Q1036.95 838.994 1034.44 835.794 Q1031.93 832.594 1026.9 832.594 Q1020.87 832.594 1017.39 836.442 Q1013.9 840.29 1013.9 846.934 L1013.9 872.576 L1006.41 872.576 L1006.41 827.206 L1013.9 827.206 L1013.9 834.254 Q1016.58 830.163 1020.18 828.138 Q1023.83 826.112 1028.57 826.112 Q1036.38 826.112 1040.39 830.973 Q1044.4 835.794 1044.4 845.192 Z" fill="#000000" fill-rule="evenodd" fill-opacity="1" /><path clip-path="url(#clip060)" d="M1066.64 814.324 L1066.64 827.206 L1082 827.206 L1082 832.999 L1066.64 832.999 L1066.64 857.628 Q1066.64 863.178 1068.14 864.758 Q1069.68 866.338 1074.34 866.338 L1082 866.338 L1082 872.576 L1074.34 872.576 Q1065.71 872.576 1062.43 869.376 Q1059.15 866.135 1059.15 857.628 L1059.15 832.999 L1053.68 832.999 L1053.68 827.206 L1059.15 827.206 L1059.15 814.324 L1066.64 814.324 Z" fill="#000000" fill-rule="evenodd" fill-opacity="1" /><path clip-path="url(#clip060)" d="M1130.61 848.028 L1130.61 851.673 L1096.34 851.673 Q1096.82 859.37 1100.96 863.421 Q1105.13 867.431 1112.54 867.431 Q1116.83 867.431 1120.85 866.378 Q1124.9 865.325 1128.87 863.218 L1128.87 870.267 Q1124.86 871.968 1120.64 872.86 Q1116.43 873.751 1112.1 873.751 Q1101.24 873.751 1094.88 867.431 Q1088.56 861.112 1088.56 850.337 Q1088.56 839.197 1094.55 832.675 Q1100.59 826.112 1110.8 826.112 Q1119.95 826.112 1125.26 832.026 Q1130.61 837.9 1130.61 848.028 M1123.15 845.84 Q1123.07 839.723 1119.71 836.077 Q1116.39 832.432 1110.88 832.432 Q1104.64 832.432 1100.87 835.956 Q1097.15 839.48 1096.58 845.881 L1123.15 845.84 Z" fill="#000000" fill-rule="evenodd" fill-opacity="1" /><path clip-path="url(#clip060)" d="M1169.13 834.173 Q1167.88 833.444 1166.38 833.12 Q1164.92 832.756 1163.14 832.756 Q1156.82 832.756 1153.41 836.888 Q1150.05 840.979 1150.05 848.676 L1150.05 872.576 L1142.56 872.576 L1142.56 827.206 L1150.05 827.206 L1150.05 834.254 Q1152.4 830.123 1156.17 828.138 Q1159.94 826.112 1165.32 826.112 Q1166.09 826.112 1167.03 826.234 Q1167.96 826.315 1169.09 826.517 L1169.13 834.173 Z" fill="#000000" fill-rule="evenodd" fill-opacity="1" /><path clip-path="url(#clip060)" d="M1197.57 849.769 Q1188.54 849.769 1185.05 851.835 Q1181.57 853.901 1181.57 858.884 Q1181.57 862.854 1184.16 865.203 Q1186.79 867.512 1191.29 867.512 Q1197.49 867.512 1201.22 863.137 Q1204.98 858.722 1204.98 851.43 L1204.98 849.769 L1197.57 849.769 M1212.44 846.691 L1212.44 872.576 L1204.98 872.576 L1204.98 865.689 Q1202.43 869.821 1198.62 871.806 Q1194.81 873.751 1189.31 873.751 Q1182.34 873.751 1178.21 869.862 Q1174.11 865.933 1174.11 859.37 Q1174.11 851.714 1179.22 847.825 Q1184.36 843.936 1194.53 843.936 L1204.98 843.936 L1204.98 843.207 Q1204.98 838.062 1201.58 835.267 Q1198.22 832.432 1192.1 832.432 Q1188.21 832.432 1184.53 833.363 Q1180.84 834.295 1177.44 836.158 L1177.44 829.272 Q1181.53 827.692 1185.38 826.922 Q1189.22 826.112 1192.87 826.112 Q1202.71 826.112 1207.58 831.216 Q1212.44 836.32 1212.44 846.691 Z" fill="#000000" fill-rule="evenodd" fill-opacity="1" /><path clip-path="url(#clip060)" d="M1260.44 828.948 L1260.44 835.915 Q1257.28 834.173 1254.08 833.323 Q1250.92 832.432 1247.68 832.432 Q1240.43 832.432 1236.42 837.05 Q1232.41 841.627 1232.41 849.931 Q1232.41 858.236 1236.42 862.854 Q1240.43 867.431 1247.68 867.431 Q1250.92 867.431 1254.08 866.581 Q1257.28 865.689 1260.44 863.948 L1260.44 870.834 Q1257.32 872.292 1253.96 873.022 Q1250.64 873.751 1246.87 873.751 Q1236.62 873.751 1230.58 867.31 Q1224.55 860.869 1224.55 849.931 Q1224.55 838.832 1230.62 832.472 Q1236.74 826.112 1247.36 826.112 Q1250.8 826.112 1254.08 826.841 Q1257.36 827.53 1260.44 828.948 Z" fill="#000000" fill-rule="evenodd" fill-opacity="1" /><path clip-path="url(#clip060)" d="M1280.78 814.324 L1280.78 827.206 L1296.13 827.206 L1296.13 832.999 L1280.78 832.999 L1280.78 857.628 Q1280.78 863.178 1282.27 864.758 Q1283.81 866.338 1288.47 866.338 L1296.13 866.338 L1296.13 872.576 L1288.47 872.576 Q1279.84 872.576 1276.56 869.376 Q1273.28 866.135 1273.28 857.628 L1273.28 832.999 L1267.81 832.999 L1267.81 827.206 L1273.28 827.206 L1273.28 814.324 L1280.78 814.324 Z" fill="#000000" fill-rule="evenodd" fill-opacity="1" /><path clip-path="url(#clip060)" d="M1305.93 827.206 L1313.38 827.206 L1313.38 872.576 L1305.93 872.576 L1305.93 827.206 M1305.93 809.544 L1313.38 809.544 L1313.38 818.983 L1305.93 818.983 L1305.93 809.544 Z" fill="#000000" fill-rule="evenodd" fill-opacity="1" /><path clip-path="url(#clip060)" d="M1346.56 832.432 Q1340.57 832.432 1337.08 837.131 Q1333.6 841.789 1333.6 849.931 Q1333.6 858.074 1337.04 862.773 Q1340.53 867.431 1346.56 867.431 Q1352.52 867.431 1356 862.732 Q1359.48 858.033 1359.48 849.931 Q1359.48 841.87 1356 837.171 Q1352.52 832.432 1346.56 832.432 M1346.56 826.112 Q1356.28 826.112 1361.83 832.432 Q1367.38 838.751 1367.38 849.931 Q1367.38 861.071 1361.83 867.431 Q1356.28 873.751 1346.56 873.751 Q1336.8 873.751 1331.25 867.431 Q1325.74 861.071 1325.74 849.931 Q1325.74 838.751 1331.25 832.432 Q1336.8 826.112 1346.56 826.112 Z" fill="#000000" fill-rule="evenodd" fill-opacity="1" /><path clip-path="url(#clip060)" d="M1417.45 845.192 L1417.45 872.576 L1410 872.576 L1410 845.435 Q1410 838.994 1407.49 835.794 Q1404.98 832.594 1399.95 832.594 Q1393.92 832.594 1390.43 836.442 Q1386.95 840.29 1386.95 846.934 L1386.95 872.576 L1379.46 872.576 L1379.46 827.206 L1386.95 827.206 L1386.95 834.254 Q1389.62 830.163 1393.23 828.138 Q1396.87 826.112 1401.61 826.112 Q1409.43 826.112 1413.44 830.973 Q1417.45 835.794 1417.45 845.192 Z" fill="#000000" fill-rule="evenodd" fill-opacity="1" /><path clip-path="url(#clip060)" d="
M47.2441 1552.76 L752.756 1552.76 L752.756 877.267 L47.2441 877.267  Z
  " fill="#ffffff" fill-rule="evenodd" fill-opacity="1"/>
<defs>
  <clipPath id="clip067">
    <rect x="47" y="877" width="707" height="676"/>
  </clipPath>
</defs>
<polyline clip-path="url(#clip060)" style="stroke:#000000; stroke-linecap:butt; stroke-linejoin:round; stroke-width:4; stroke-opacity:1; fill:none" points="
  47.2441,1552.76 752.756,1552.76 
  "/>
<polyline clip-path="url(#clip060)" style="stroke:#000000; stroke-linecap:butt; stroke-linejoin:round; stroke-width:4; stroke-opacity:1; fill:none" points="
  47.2441,1552.76 47.2441,877.267 
  "/>
<polyline clip-path="url(#clip067)" style="stroke:#b3e1cd; stroke-linecap:butt; stroke-linejoin:round; stroke-width:20; stroke-opacity:1; fill:none" points="
  67.2114,1108.8 732.789,1002.59 
  "/>
<polyline clip-path="url(#clip067)" style="stroke:#fccdac; stroke-linecap:butt; stroke-linejoin:round; stroke-width:20; stroke-opacity:1; fill:none" points="
  67.2114,1215.01 732.789,1321.22 
  "/>
<path clip-path="url(#clip060)" d="
M847.244 1552.76 L1552.76 1552.76 L1552.76 877.267 L847.244 877.267  Z
  " fill="#ffffff" fill-rule="evenodd" fill-opacity="1"/>
<defs>
  <clipPath id="clip068">
    <rect x="847" y="877" width="707" height="676"/>
  </clipPath>
</defs>
<polyline clip-path="url(#clip060)" style="stroke:#000000; stroke-linecap:butt; stroke-linejoin:round; stroke-width:4; stroke-opacity:1; fill:none" points="
  847.244,1552.76 1552.76,1552.76 
  "/>
<polyline clip-path="url(#clip060)" style="stroke:#000000; stroke-linecap:butt; stroke-linejoin:round; stroke-width:4; stroke-opacity:1; fill:none" points="
  847.244,1552.76 847.244,877.267 
  "/>
<polyline clip-path="url(#clip068)" style="stroke:#b3e1cd; stroke-linecap:butt; stroke-linejoin:round; stroke-width:20; stroke-opacity:1; fill:none" points="
  867.211,1002.59 1532.79,1108.8 
  "/>
<polyline clip-path="url(#clip068)" style="stroke:#fccdac; stroke-linecap:butt; stroke-linejoin:round; stroke-width:20; stroke-opacity:1; fill:none" points="
  867.211,1321.22 1532.79,1215.01 
  "/>
<path clip-path="url(#clip060)" d="
M1647.24 1552.76 L2352.76 1552.76 L2352.76 877.267 L1647.24 877.267  Z
  " fill="#ffffff" fill-rule="evenodd" fill-opacity="1"/>
<defs>
  <clipPath id="clip069">
    <rect x="1647" y="877" width="707" height="676"/>
  </clipPath>
</defs>
<polyline clip-path="url(#clip060)" style="stroke:#000000; stroke-linecap:butt; stroke-linejoin:round; stroke-width:4; stroke-opacity:1; fill:none" points="
  1647.24,1552.76 2352.76,1552.76 
  "/>
<polyline clip-path="url(#clip060)" style="stroke:#000000; stroke-linecap:butt; stroke-linejoin:round; stroke-width:4; stroke-opacity:1; fill:none" points="
  1647.24,1552.76 1647.24,877.267 
  "/>
<polyline clip-path="url(#clip069)" style="stroke:#b3e1cd; stroke-linecap:butt; stroke-linejoin:round; stroke-width:20; stroke-opacity:1; fill:none" points="
  1667.21,1002.59 2332.79,1321.22 
  "/>
<polyline clip-path="url(#clip069)" style="stroke:#fccdac; stroke-linecap:butt; stroke-linejoin:round; stroke-width:20; stroke-opacity:1; fill:none" points="
  1667.21,1321.22 2332.79,1002.59 
  "/>
</svg>
