<?xml version="1.0" encoding="utf-8"?>
<svg xmlns="http://www.w3.org/2000/svg" xmlns:xlink="http://www.w3.org/1999/xlink" width="600" height="400" viewBox="0 0 2400 1600">
<defs>
  <clipPath id="clip300">
    <rect x="0" y="0" width="2400" height="1600"/>
  </clipPath>
</defs>
<path clip-path="url(#clip300)" d="
M0 1600 L2400 1600 L2400 0 L0 0  Z
  " fill="#ffffff" fill-rule="evenodd" fill-opacity="1"/>
<defs>
  <clipPath id="clip301">
    <rect x="480" y="0" width="1681" height="1600"/>
  </clipPath>
</defs>
<defs>
  <clipPath id="clip302">
    <rect x="534" y="47" width="1440" height="1440"/>
  </clipPath>
</defs>
<path clip-path="url(#clip300)" d="
M534.832 1486.45 L1974.04 1486.45 L1974.04 47.2441 L534.832 47.2441  Z
  " fill="#ffffff" fill-rule="evenodd" fill-opacity="1"/>
<polyline clip-path="url(#clip302)" style="stroke:#000000; stroke-linecap:butt; stroke-linejoin:round; stroke-width:2; stroke-opacity:0.1; fill:none" points="
  575.564,1486.45 575.564,47.2441 
  "/>
<polyline clip-path="url(#clip302)" style="stroke:#000000; stroke-linecap:butt; stroke-linejoin:round; stroke-width:2; stroke-opacity:0.1; fill:none" points="
  1028.14,1486.45 1028.14,47.2441 
  "/>
<polyline clip-path="url(#clip302)" style="stroke:#000000; stroke-linecap:butt; stroke-linejoin:round; stroke-width:2; stroke-opacity:0.1; fill:none" points="
  1480.72,1486.45 1480.72,47.2441 
  "/>
<polyline clip-path="url(#clip302)" style="stroke:#000000; stroke-linecap:butt; stroke-linejoin:round; stroke-width:2; stroke-opacity:0.1; fill:none" points="
  1933.3,1486.45 1933.3,47.2441 
  "/>
<polyline clip-path="url(#clip300)" style="stroke:#000000; stroke-linecap:butt; stroke-linejoin:round; stroke-width:4; stroke-opacity:1; fill:none" points="
  534.832,1486.45 1974.04,1486.45 
  "/>
<polyline clip-path="url(#clip300)" style="stroke:#000000; stroke-linecap:butt; stroke-linejoin:round; stroke-width:4; stroke-opacity:1; fill:none" points="
  575.564,1486.45 575.564,1467.55 
  "/>
<polyline clip-path="url(#clip300)" style="stroke:#000000; stroke-linecap:butt; stroke-linejoin:round; stroke-width:4; stroke-opacity:1; fill:none" points="
  1028.14,1486.45 1028.14,1467.55 
  "/>
<polyline clip-path="url(#clip300)" style="stroke:#000000; stroke-linecap:butt; stroke-linejoin:round; stroke-width:4; stroke-opacity:1; fill:none" points="
  1480.72,1486.45 1480.72,1467.55 
  "/>
<polyline clip-path="url(#clip300)" style="stroke:#000000; stroke-linecap:butt; stroke-linejoin:round; stroke-width:4; stroke-opacity:1; fill:none" points="
  1933.3,1486.45 1933.3,1467.55 
  "/>
<path clip-path="url(#clip300)" d="M552.949 1517.37 Q549.338 1517.37 547.509 1520.93 Q545.703 1524.47 545.703 1531.6 Q545.703 1538.71 547.509 1542.27 Q549.338 1545.82 552.949 1545.82 Q556.583 1545.82 558.388 1542.27 Q560.217 1538.71 560.217 1531.6 Q560.217 1524.47 558.388 1520.93 Q556.583 1517.37 552.949 1517.37 M552.949 1513.66 Q558.759 1513.66 561.814 1518.27 Q564.893 1522.85 564.893 1531.6 Q564.893 1540.33 561.814 1544.94 Q558.759 1549.52 552.949 1549.52 Q547.139 1549.52 544.06 1544.94 Q541.004 1540.33 541.004 1531.6 Q541.004 1522.85 544.06 1518.27 Q547.139 1513.66 552.949 1513.66 Z" fill="#000000" fill-rule="evenodd" fill-opacity="1" /><path clip-path="url(#clip300)" d="M573.111 1542.97 L577.995 1542.97 L577.995 1548.85 L573.111 1548.85 L573.111 1542.97 Z" fill="#000000" fill-rule="evenodd" fill-opacity="1" /><path clip-path="url(#clip300)" d="M598.18 1517.37 Q594.569 1517.37 592.74 1520.93 Q590.935 1524.47 590.935 1531.6 Q590.935 1538.71 592.74 1542.27 Q594.569 1545.82 598.18 1545.82 Q601.814 1545.82 603.62 1542.27 Q605.448 1538.71 605.448 1531.6 Q605.448 1524.47 603.62 1520.93 Q601.814 1517.37 598.18 1517.37 M598.18 1513.66 Q603.99 1513.66 607.046 1518.27 Q610.124 1522.85 610.124 1531.6 Q610.124 1540.33 607.046 1544.94 Q603.99 1549.52 598.18 1549.52 Q592.37 1549.52 589.291 1544.94 Q586.236 1540.33 586.236 1531.6 Q586.236 1522.85 589.291 1518.27 Q592.37 1513.66 598.18 1513.66 Z" fill="#000000" fill-rule="evenodd" fill-opacity="1" /><path clip-path="url(#clip300)" d="M1006.03 1517.37 Q1002.42 1517.37 1000.59 1520.93 Q998.781 1524.47 998.781 1531.6 Q998.781 1538.71 1000.59 1542.27 Q1002.42 1545.82 1006.03 1545.82 Q1009.66 1545.82 1011.47 1542.27 Q1013.29 1538.71 1013.29 1531.6 Q1013.29 1524.47 1011.47 1520.93 Q1009.66 1517.37 1006.03 1517.37 M1006.03 1513.66 Q1011.84 1513.66 1014.89 1518.27 Q1017.97 1522.85 1017.97 1531.6 Q1017.97 1540.33 1014.89 1544.94 Q1011.84 1549.52 1006.03 1549.52 Q1000.22 1549.52 997.137 1544.94 Q994.082 1540.33 994.082 1531.6 Q994.082 1522.85 997.137 1518.27 Q1000.22 1513.66 1006.03 1513.66 Z" fill="#000000" fill-rule="evenodd" fill-opacity="1" /><path clip-path="url(#clip300)" d="M1026.19 1542.97 L1031.07 1542.97 L1031.07 1548.85 L1026.19 1548.85 L1026.19 1542.97 Z" fill="#000000" fill-rule="evenodd" fill-opacity="1" /><path clip-path="url(#clip300)" d="M1041.3 1514.29 L1059.66 1514.29 L1059.66 1518.22 L1045.59 1518.22 L1045.59 1526.7 Q1046.6 1526.35 1047.62 1526.19 Q1048.64 1526 1049.66 1526 Q1055.45 1526 1058.83 1529.17 Q1062.21 1532.34 1062.21 1537.76 Q1062.21 1543.34 1058.73 1546.44 Q1055.26 1549.52 1048.94 1549.52 Q1046.77 1549.52 1044.5 1549.15 Q1042.25 1548.78 1039.85 1548.04 L1039.85 1543.34 Q1041.93 1544.47 1044.15 1545.03 Q1046.37 1545.58 1048.85 1545.58 Q1052.85 1545.58 1055.19 1543.48 Q1057.53 1541.37 1057.53 1537.76 Q1057.53 1534.15 1055.19 1532.04 Q1052.85 1529.94 1048.85 1529.94 Q1046.98 1529.94 1045.1 1530.35 Q1043.25 1530.77 1041.3 1531.65 L1041.3 1514.29 Z" fill="#000000" fill-rule="evenodd" fill-opacity="1" /><path clip-path="url(#clip300)" d="M1447.88 1544.91 L1455.52 1544.91 L1455.52 1518.55 L1447.21 1520.21 L1447.21 1515.95 L1455.47 1514.29 L1460.15 1514.29 L1460.15 1544.91 L1467.78 1544.91 L1467.78 1548.85 L1447.88 1548.85 L1447.88 1544.91 Z" fill="#000000" fill-rule="evenodd" fill-opacity="1" /><path clip-path="url(#clip300)" d="M1477.23 1542.97 L1482.11 1542.97 L1482.11 1548.85 L1477.23 1548.85 L1477.23 1542.97 Z" fill="#000000" fill-rule="evenodd" fill-opacity="1" /><path clip-path="url(#clip300)" d="M1502.3 1517.37 Q1498.69 1517.37 1496.86 1520.93 Q1495.05 1524.47 1495.05 1531.6 Q1495.05 1538.71 1496.86 1542.27 Q1498.69 1545.82 1502.3 1545.82 Q1505.93 1545.82 1507.74 1542.27 Q1509.57 1538.71 1509.57 1531.6 Q1509.57 1524.47 1507.74 1520.93 Q1505.93 1517.37 1502.3 1517.37 M1502.3 1513.66 Q1508.11 1513.66 1511.16 1518.27 Q1514.24 1522.85 1514.24 1531.6 Q1514.24 1540.33 1511.16 1544.94 Q1508.11 1549.52 1502.3 1549.52 Q1496.49 1549.52 1493.41 1544.94 Q1490.35 1540.33 1490.35 1531.6 Q1490.35 1522.85 1493.41 1518.27 Q1496.49 1513.66 1502.3 1513.66 Z" fill="#000000" fill-rule="evenodd" fill-opacity="1" /><path clip-path="url(#clip300)" d="M1900.95 1544.91 L1908.59 1544.91 L1908.59 1518.55 L1900.28 1520.21 L1900.28 1515.95 L1908.55 1514.29 L1913.22 1514.29 L1913.22 1544.91 L1920.86 1544.91 L1920.86 1548.85 L1900.95 1548.85 L1900.95 1544.91 Z" fill="#000000" fill-rule="evenodd" fill-opacity="1" /><path clip-path="url(#clip300)" d="M1930.31 1542.97 L1935.19 1542.97 L1935.19 1548.85 L1930.31 1548.85 L1930.31 1542.97 Z" fill="#000000" fill-rule="evenodd" fill-opacity="1" /><path clip-path="url(#clip300)" d="M1945.42 1514.29 L1963.78 1514.29 L1963.78 1518.22 L1949.7 1518.22 L1949.7 1526.7 Q1950.72 1526.35 1951.74 1526.19 Q1952.76 1526 1953.78 1526 Q1959.57 1526 1962.94 1529.17 Q1966.32 1532.34 1966.32 1537.76 Q1966.32 1543.34 1962.85 1546.44 Q1959.38 1549.52 1953.06 1549.52 Q1950.88 1549.52 1948.62 1549.15 Q1946.37 1548.78 1943.96 1548.04 L1943.96 1543.34 Q1946.05 1544.47 1948.27 1545.03 Q1950.49 1545.58 1952.97 1545.58 Q1956.97 1545.58 1959.31 1543.48 Q1961.65 1541.37 1961.65 1537.76 Q1961.65 1534.15 1959.31 1532.04 Q1956.97 1529.94 1952.97 1529.94 Q1951.09 1529.94 1949.22 1530.35 Q1947.37 1530.77 1945.42 1531.65 L1945.42 1514.29 Z" fill="#000000" fill-rule="evenodd" fill-opacity="1" /><polyline clip-path="url(#clip302)" style="stroke:#000000; stroke-linecap:butt; stroke-linejoin:round; stroke-width:2; stroke-opacity:0.1; fill:none" points="
  534.832,1445.72 1974.04,1445.72 
  "/>
<polyline clip-path="url(#clip302)" style="stroke:#000000; stroke-linecap:butt; stroke-linejoin:round; stroke-width:2; stroke-opacity:0.1; fill:none" points="
  534.832,993.136 1974.04,993.136 
  "/>
<polyline clip-path="url(#clip302)" style="stroke:#000000; stroke-linecap:butt; stroke-linejoin:round; stroke-width:2; stroke-opacity:0.1; fill:none" points="
  534.832,540.556 1974.04,540.556 
  "/>
<polyline clip-path="url(#clip302)" style="stroke:#000000; stroke-linecap:butt; stroke-linejoin:round; stroke-width:2; stroke-opacity:0.1; fill:none" points="
  534.832,87.9763 1974.04,87.9763 
  "/>
<polyline clip-path="url(#clip300)" style="stroke:#000000; stroke-linecap:butt; stroke-linejoin:round; stroke-width:4; stroke-opacity:1; fill:none" points="
  534.832,1486.45 534.832,47.2441 
  "/>
<polyline clip-path="url(#clip300)" style="stroke:#000000; stroke-linecap:butt; stroke-linejoin:round; stroke-width:4; stroke-opacity:1; fill:none" points="
  534.832,1445.72 547.214,1445.72 
  "/>
<polyline clip-path="url(#clip300)" style="stroke:#000000; stroke-linecap:butt; stroke-linejoin:round; stroke-width:4; stroke-opacity:1; fill:none" points="
  534.832,993.136 547.214,993.136 
  "/>
<polyline clip-path="url(#clip300)" style="stroke:#000000; stroke-linecap:butt; stroke-linejoin:round; stroke-width:4; stroke-opacity:1; fill:none" points="
  534.832,540.556 547.214,540.556 
  "/>
<polyline clip-path="url(#clip300)" style="stroke:#000000; stroke-linecap:butt; stroke-linejoin:round; stroke-width:4; stroke-opacity:1; fill:none" points="
  534.832,87.9763 547.214,87.9763 
  "/>
<path clip-path="url(#clip300)" d="M441.657 1431.51 Q438.045 1431.51 436.217 1435.08 Q434.411 1438.62 434.411 1445.75 Q434.411 1452.86 436.217 1456.42 Q438.045 1459.96 441.657 1459.96 Q445.291 1459.96 447.096 1456.42 Q448.925 1452.86 448.925 1445.75 Q448.925 1438.62 447.096 1435.08 Q445.291 1431.51 441.657 1431.51 M441.657 1427.81 Q447.467 1427.81 450.522 1432.42 Q453.601 1437 453.601 1445.75 Q453.601 1454.48 450.522 1459.08 Q447.467 1463.67 441.657 1463.67 Q435.846 1463.67 432.768 1459.08 Q429.712 1454.48 429.712 1445.75 Q429.712 1437 432.768 1432.42 Q435.846 1427.81 441.657 1427.81 Z" fill="#000000" fill-rule="evenodd" fill-opacity="1" /><path clip-path="url(#clip300)" d="M461.818 1457.12 L466.703 1457.12 L466.703 1463 L461.818 1463 L461.818 1457.12 Z" fill="#000000" fill-rule="evenodd" fill-opacity="1" /><path clip-path="url(#clip300)" d="M486.888 1431.51 Q483.277 1431.51 481.448 1435.08 Q479.642 1438.62 479.642 1445.75 Q479.642 1452.86 481.448 1456.42 Q483.277 1459.96 486.888 1459.96 Q490.522 1459.96 492.328 1456.42 Q494.156 1452.86 494.156 1445.75 Q494.156 1438.62 492.328 1435.08 Q490.522 1431.51 486.888 1431.51 M486.888 1427.81 Q492.698 1427.81 495.753 1432.42 Q498.832 1437 498.832 1445.75 Q498.832 1454.48 495.753 1459.08 Q492.698 1463.67 486.888 1463.67 Q481.078 1463.67 477.999 1459.08 Q474.943 1454.48 474.943 1445.75 Q474.943 1437 477.999 1432.42 Q481.078 1427.81 486.888 1427.81 Z" fill="#000000" fill-rule="evenodd" fill-opacity="1" /><path clip-path="url(#clip300)" d="M442.652 978.935 Q439.041 978.935 437.212 982.499 Q435.407 986.041 435.407 993.171 Q435.407 1000.28 437.212 1003.84 Q439.041 1007.38 442.652 1007.38 Q446.286 1007.38 448.092 1003.84 Q449.92 1000.28 449.92 993.171 Q449.92 986.041 448.092 982.499 Q446.286 978.935 442.652 978.935 M442.652 975.231 Q448.462 975.231 451.518 979.837 Q454.596 984.421 454.596 993.171 Q454.596 1001.9 451.518 1006.5 Q448.462 1011.09 442.652 1011.09 Q436.842 1011.09 433.763 1006.5 Q430.707 1001.9 430.707 993.171 Q430.707 984.421 433.763 979.837 Q436.842 975.231 442.652 975.231 Z" fill="#000000" fill-rule="evenodd" fill-opacity="1" /><path clip-path="url(#clip300)" d="M462.814 1004.54 L467.698 1004.54 L467.698 1010.42 L462.814 1010.42 L462.814 1004.54 Z" fill="#000000" fill-rule="evenodd" fill-opacity="1" /><path clip-path="url(#clip300)" d="M477.929 975.856 L496.286 975.856 L496.286 979.791 L482.212 979.791 L482.212 988.263 Q483.23 987.916 484.249 987.754 Q485.267 987.569 486.286 987.569 Q492.073 987.569 495.453 990.74 Q498.832 993.911 498.832 999.328 Q498.832 1004.91 495.36 1008.01 Q491.888 1011.09 485.568 1011.09 Q483.392 1011.09 481.124 1010.72 Q478.879 1010.35 476.471 1009.61 L476.471 1004.91 Q478.554 1006.04 480.777 1006.6 Q482.999 1007.15 485.476 1007.15 Q489.48 1007.15 491.818 1005.05 Q494.156 1002.94 494.156 999.328 Q494.156 995.717 491.818 993.61 Q489.48 991.504 485.476 991.504 Q483.601 991.504 481.726 991.921 Q479.874 992.337 477.929 993.217 L477.929 975.856 Z" fill="#000000" fill-rule="evenodd" fill-opacity="1" /><path clip-path="url(#clip300)" d="M432.467 553.901 L440.106 553.901 L440.106 527.535 L431.795 529.202 L431.795 524.943 L440.059 523.276 L444.735 523.276 L444.735 553.901 L452.374 553.901 L452.374 557.836 L432.467 557.836 L432.467 553.901 Z" fill="#000000" fill-rule="evenodd" fill-opacity="1" /><path clip-path="url(#clip300)" d="M461.818 551.956 L466.703 551.956 L466.703 557.836 L461.818 557.836 L461.818 551.956 Z" fill="#000000" fill-rule="evenodd" fill-opacity="1" /><path clip-path="url(#clip300)" d="M486.888 526.355 Q483.277 526.355 481.448 529.92 Q479.642 533.461 479.642 540.591 Q479.642 547.697 481.448 551.262 Q483.277 554.804 486.888 554.804 Q490.522 554.804 492.328 551.262 Q494.156 547.697 494.156 540.591 Q494.156 533.461 492.328 529.92 Q490.522 526.355 486.888 526.355 M486.888 522.651 Q492.698 522.651 495.753 527.258 Q498.832 531.841 498.832 540.591 Q498.832 549.318 495.753 553.924 Q492.698 558.507 486.888 558.507 Q481.078 558.507 477.999 553.924 Q474.943 549.318 474.943 540.591 Q474.943 531.841 477.999 527.258 Q481.078 522.651 486.888 522.651 Z" fill="#000000" fill-rule="evenodd" fill-opacity="1" /><path clip-path="url(#clip300)" d="M433.462 101.321 L441.101 101.321 L441.101 74.9555 L432.791 76.6222 L432.791 72.3629 L441.055 70.6963 L445.731 70.6963 L445.731 101.321 L453.369 101.321 L453.369 105.256 L433.462 105.256 L433.462 101.321 Z" fill="#000000" fill-rule="evenodd" fill-opacity="1" /><path clip-path="url(#clip300)" d="M462.814 99.3767 L467.698 99.3767 L467.698 105.256 L462.814 105.256 L462.814 99.3767 Z" fill="#000000" fill-rule="evenodd" fill-opacity="1" /><path clip-path="url(#clip300)" d="M477.929 70.6963 L496.286 70.6963 L496.286 74.6314 L482.212 74.6314 L482.212 83.1036 Q483.23 82.7564 484.249 82.5944 Q485.267 82.4092 486.286 82.4092 Q492.073 82.4092 495.453 85.5805 Q498.832 88.7517 498.832 94.1684 Q498.832 99.747 495.36 102.849 Q491.888 105.928 485.568 105.928 Q483.392 105.928 481.124 105.557 Q478.879 105.187 476.471 104.446 L476.471 99.747 Q478.554 100.881 480.777 101.437 Q482.999 101.992 485.476 101.992 Q489.48 101.992 491.818 99.8859 Q494.156 97.7795 494.156 94.1684 Q494.156 90.5573 491.818 88.4508 Q489.48 86.3443 485.476 86.3443 Q483.601 86.3443 481.726 86.761 Q479.874 87.1777 477.929 88.0573 L477.929 70.6963 Z" fill="#000000" fill-rule="evenodd" fill-opacity="1" /><polyline clip-path="url(#clip302)" style="stroke:#009af9; stroke-linecap:butt; stroke-linejoin:round; stroke-width:4; stroke-opacity:1; fill:none" points="
  575.564,540.556 576.469,541.461 577.375,542.366 578.28,543.272 579.185,544.177 580.09,545.082 580.995,545.987 581.9,546.892 582.806,547.797 583.711,548.703 
  584.616,549.608 585.521,550.513 586.426,551.418 587.331,552.323 588.237,553.228 589.142,554.133 590.047,555.039 590.952,555.944 591.857,556.849 592.762,557.754 
  593.668,558.659 594.573,559.564 595.478,560.47 596.383,561.375 597.288,562.28 598.193,563.185 599.098,564.09 600.004,564.995 600.909,565.901 601.814,566.806 
  602.719,567.711 603.624,568.616 604.529,569.521 605.435,570.426 606.34,571.332 607.245,572.237 608.15,573.142 609.055,574.047 609.96,574.952 610.866,575.857 
  611.771,576.762 612.676,577.668 613.581,578.573 614.486,579.478 615.391,580.383 616.296,581.288 617.202,582.193 618.107,583.099 619.012,584.004 619.917,584.909 
  620.822,585.814 621.727,586.719 622.633,587.624 623.538,588.53 624.443,589.435 625.348,590.34 626.253,591.245 627.158,592.15 628.064,593.055 628.969,593.96 
  629.874,594.866 630.779,595.771 631.684,596.676 632.589,597.581 633.495,598.486 634.4,599.391 635.305,600.297 636.21,601.202 637.115,602.107 638.02,603.012 
  638.925,603.917 639.831,604.822 640.736,605.728 641.641,606.633 642.546,607.538 643.451,608.443 644.356,609.348 645.262,610.253 646.167,611.159 647.072,612.064 
  647.977,612.969 648.882,613.874 649.787,614.779 650.693,615.684 651.598,616.589 652.503,617.495 653.408,618.4 654.313,619.305 655.218,620.21 656.124,621.115 
  657.029,622.02 657.934,622.926 658.839,623.831 659.744,624.736 660.649,625.641 661.554,626.546 662.46,627.451 663.365,628.357 664.27,629.262 665.175,630.167 
  666.08,631.072 666.985,631.977 667.891,632.882 668.796,633.788 669.701,634.693 670.606,635.598 671.511,636.503 672.416,637.408 673.322,638.313 674.227,639.218 
  675.132,640.124 676.037,641.029 676.942,641.934 677.847,642.839 678.753,643.744 679.658,644.649 680.563,645.555 681.468,646.46 682.373,647.365 683.278,648.27 
  684.183,649.175 685.089,650.08 685.994,650.986 686.899,651.891 687.804,652.796 688.709,653.701 689.614,654.606 690.52,655.511 691.425,656.417 692.33,657.322 
  693.235,658.227 694.14,659.132 695.045,660.037 695.951,660.942 696.856,661.847 697.761,662.753 698.666,663.658 699.571,664.563 700.476,665.468 701.381,666.373 
  702.287,667.278 703.192,668.184 704.097,669.089 705.002,669.994 705.907,670.899 706.812,671.804 707.718,672.709 708.623,673.615 709.528,674.52 710.433,675.425 
  711.338,676.33 712.243,677.235 713.149,678.14 714.054,679.046 714.959,679.951 715.864,680.856 716.769,681.761 717.674,682.666 718.58,683.571 719.485,684.476 
  720.39,685.382 721.295,686.287 722.2,687.192 723.105,688.097 724.01,689.002 724.916,689.907 725.821,690.813 726.726,691.718 727.631,692.623 728.536,693.528 
  729.441,694.433 730.347,695.338 731.252,696.244 732.157,697.149 733.062,698.054 733.967,698.959 734.872,699.864 735.778,700.769 736.683,701.674 737.588,702.58 
  738.493,703.485 739.398,704.39 740.303,705.295 741.209,706.2 742.114,707.105 743.019,708.011 743.924,708.916 744.829,709.821 745.734,710.726 746.639,711.631 
  747.545,712.536 748.45,713.442 749.355,714.347 750.26,715.252 751.165,716.157 752.07,717.062 752.976,717.967 753.881,718.873 754.786,719.778 755.691,720.683 
  756.596,721.588 757.501,722.493 758.407,723.398 759.312,724.303 760.217,725.209 761.122,726.114 762.027,727.019 762.932,727.924 763.838,728.829 764.743,729.734 
  765.648,730.64 766.553,731.545 767.458,732.45 768.363,733.355 769.268,734.26 770.174,735.165 771.079,736.071 771.984,736.976 772.889,737.881 773.794,738.786 
  774.699,739.691 775.605,740.596 776.51,741.502 777.415,742.407 778.32,743.312 779.225,744.217 780.13,745.122 781.036,746.027 781.941,746.932 782.846,747.838 
  783.751,748.743 784.656,749.648 785.561,750.553 786.466,751.458 787.372,752.363 788.277,753.269 789.182,754.174 790.087,755.079 790.992,755.984 791.897,756.889 
  792.803,757.794 793.708,758.7 794.613,759.605 795.518,760.51 796.423,761.415 797.328,762.32 798.234,763.225 799.139,764.131 800.044,765.036 800.949,765.941 
  801.854,766.846 802.759,767.751 803.665,768.656 804.57,769.561 805.475,770.467 806.38,771.372 807.285,772.277 808.19,773.182 809.095,774.087 810.001,774.992 
  810.906,775.898 811.811,776.803 812.716,777.708 813.621,778.613 814.526,779.518 815.432,780.423 816.337,781.329 817.242,782.234 818.147,783.139 819.052,784.044 
  819.957,784.949 820.863,785.854 821.768,786.759 822.673,787.665 823.578,788.57 824.483,789.475 825.388,790.38 826.294,791.285 827.199,792.19 828.104,793.096 
  829.009,794.001 829.914,794.906 830.819,795.811 831.724,796.716 832.63,797.621 833.535,798.527 834.44,799.432 835.345,800.337 836.25,801.242 837.155,802.147 
  838.061,803.052 838.966,803.958 839.871,804.863 840.776,805.768 841.681,806.673 842.586,807.578 843.492,808.483 844.397,809.388 845.302,810.294 846.207,811.199 
  847.112,812.104 848.017,813.009 848.923,813.914 849.828,814.819 850.733,815.725 851.638,816.63 852.543,817.535 853.448,818.44 854.353,819.345 855.259,820.25 
  856.164,821.156 857.069,822.061 857.974,822.966 858.879,823.871 859.784,824.776 860.69,825.681 861.595,826.587 862.5,827.492 863.405,828.397 864.31,829.302 
  865.215,830.207 866.121,831.112 867.026,832.017 867.931,832.923 868.836,833.828 869.741,834.733 870.646,835.638 871.552,836.543 872.457,837.448 873.362,838.354 
  874.267,839.259 875.172,840.164 876.077,841.069 876.982,841.974 877.888,842.879 878.793,843.785 879.698,844.69 880.603,845.595 881.508,846.5 882.413,847.405 
  883.319,848.31 884.224,849.216 885.129,850.121 886.034,851.026 886.939,851.931 887.844,852.836 888.75,853.741 889.655,854.646 890.56,855.552 891.465,856.457 
  892.37,857.362 893.275,858.267 894.18,859.172 895.086,860.077 895.991,860.983 896.896,861.888 897.801,862.793 898.706,863.698 899.611,864.603 900.517,865.508 
  901.422,866.414 902.327,867.319 903.232,868.224 904.137,869.129 905.042,870.034 905.948,870.939 906.853,871.844 907.758,872.75 908.663,873.655 909.568,874.56 
  910.473,875.465 911.379,876.37 912.284,877.275 913.189,878.181 914.094,879.086 914.999,879.991 915.904,880.896 916.809,881.801 917.715,882.706 918.62,883.612 
  919.525,884.517 920.43,885.422 921.335,886.327 922.24,887.232 923.146,888.137 924.051,889.043 924.956,889.948 925.861,890.853 926.766,891.758 927.671,892.663 
  928.577,893.568 929.482,894.473 930.387,895.379 931.292,896.284 932.197,897.189 933.102,898.094 934.008,898.999 934.913,899.904 935.818,900.81 936.723,901.715 
  937.628,902.62 938.533,903.525 939.438,904.43 940.344,905.335 941.249,906.241 942.154,907.146 943.059,908.051 943.964,908.956 944.869,909.861 945.775,910.766 
  946.68,911.672 947.585,912.577 948.49,913.482 949.395,914.387 950.3,915.292 951.206,916.197 952.111,917.102 953.016,918.008 953.921,918.913 954.826,919.818 
  955.731,920.723 956.637,921.628 957.542,922.533 958.447,923.439 959.352,924.344 960.257,925.249 961.162,926.154 962.067,927.059 962.973,927.964 963.878,928.87 
  964.783,929.775 965.688,930.68 966.593,931.585 967.498,932.49 968.404,933.395 969.309,934.301 970.214,935.206 971.119,936.111 972.024,937.016 972.929,937.921 
  973.835,938.826 974.74,939.731 975.645,940.637 976.55,941.542 977.455,942.447 978.36,943.352 979.265,944.257 980.171,945.162 981.076,946.068 981.981,946.973 
  982.886,947.878 983.791,948.783 984.696,949.688 985.602,950.593 986.507,951.499 987.412,952.404 988.317,953.309 989.222,954.214 990.127,955.119 991.033,956.024 
  991.938,956.93 992.843,957.835 993.748,958.74 994.653,959.645 995.558,960.55 996.464,961.455 997.369,962.36 998.274,963.266 999.179,964.171 1000.08,965.076 
  1000.99,965.981 1001.89,966.886 1002.8,967.791 1003.7,968.697 1004.61,969.602 1005.52,970.507 1006.42,971.412 1007.33,972.317 1008.23,973.222 1009.14,974.128 
  1010.04,975.033 1010.95,975.938 1011.85,976.843 1012.76,977.748 1013.66,978.653 1014.57,979.558 1015.47,980.464 1016.38,981.369 1017.28,982.274 1018.19,983.179 
  1019.09,984.084 1020,984.989 1020.9,985.895 1021.81,986.8 1022.71,987.705 1023.62,988.61 1024.52,989.515 1025.43,990.42 1026.33,991.326 1027.24,992.231 
  1028.14,993.136 1029.05,994.041 1029.95,994.946 1030.86,995.851 1031.76,996.757 1032.67,997.662 1033.58,998.567 1034.48,999.472 1035.39,1000.38 1036.29,1001.28 
  1037.2,1002.19 1038.1,1003.09 1039.01,1004 1039.91,1004.9 1040.82,1005.81 1041.72,1006.71 1042.63,1007.62 1043.53,1008.52 1044.44,1009.43 1045.34,1010.33 
  1046.25,1011.24 1047.15,1012.14 1048.06,1013.05 1048.96,1013.95 1049.87,1014.86 1050.77,1015.76 1051.68,1016.67 1052.58,1017.58 1053.49,1018.48 1054.39,1019.39 
  1055.3,1020.29 1056.2,1021.2 1057.11,1022.1 1058.01,1023.01 1058.92,1023.91 1059.82,1024.82 1060.73,1025.72 1061.64,1026.63 1062.54,1027.53 1063.45,1028.44 
  1064.35,1029.34 1065.26,1030.25 1066.16,1031.15 1067.07,1032.06 1067.97,1032.96 1068.88,1033.87 1069.78,1034.77 1070.69,1035.68 1071.59,1036.58 1072.5,1037.49 
  1073.4,1038.39 1074.31,1039.3 1075.21,1040.2 1076.12,1041.11 1077.02,1042.01 1077.93,1042.92 1078.83,1043.82 1079.74,1044.73 1080.64,1045.64 1081.55,1046.54 
  1082.45,1047.45 1083.36,1048.35 1084.26,1049.26 1085.17,1050.16 1086.07,1051.07 1086.98,1051.97 1087.88,1052.88 1088.79,1053.78 1089.69,1054.69 1090.6,1055.59 
  1091.51,1056.5 1092.41,1057.4 1093.32,1058.31 1094.22,1059.21 1095.13,1060.12 1096.03,1061.02 1096.94,1061.93 1097.84,1062.83 1098.75,1063.74 1099.65,1064.64 
  1100.56,1065.55 1101.46,1066.45 1102.37,1067.36 1103.27,1068.26 1104.18,1069.17 1105.08,1070.07 1105.99,1070.98 1106.89,1071.88 1107.8,1072.79 1108.7,1073.7 
  1109.61,1074.6 1110.51,1075.51 1111.42,1076.41 1112.32,1077.32 1113.23,1078.22 1114.13,1079.13 1115.04,1080.03 1115.94,1080.94 1116.85,1081.84 1117.75,1082.75 
  1118.66,1083.65 1119.57,1084.56 1120.47,1085.46 1121.38,1086.37 1122.28,1087.27 1123.19,1088.18 1124.09,1089.08 1125,1089.99 1125.9,1090.89 1126.81,1091.8 
  1127.71,1092.7 1128.62,1093.61 1129.52,1094.51 1130.43,1095.42 1131.33,1096.32 1132.24,1097.23 1133.14,1098.13 1134.05,1099.04 1134.95,1099.94 1135.86,1100.85 
  1136.76,1101.76 1137.67,1102.66 1138.57,1103.57 1139.48,1104.47 1140.38,1105.38 1141.29,1106.28 1142.19,1107.19 1143.1,1108.09 1144,1109 1144.91,1109.9 
  1145.81,1110.81 1146.72,1111.71 1147.63,1112.62 1148.53,1113.52 1149.44,1114.43 1150.34,1115.33 1151.25,1116.24 1152.15,1117.14 1153.06,1118.05 1153.96,1118.95 
  1154.87,1119.86 1155.77,1120.76 1156.68,1121.67 1157.58,1122.57 1158.49,1123.48 1159.39,1124.38 1160.3,1125.29 1161.2,1126.19 1162.11,1127.1 1163.01,1128 
  1163.92,1128.91 1164.82,1129.81 1165.73,1130.72 1166.63,1131.63 1167.54,1132.53 1168.44,1133.44 1169.35,1134.34 1170.25,1135.25 1171.16,1136.15 1172.06,1137.06 
  1172.97,1137.96 1173.87,1138.87 1174.78,1139.77 1175.69,1140.68 1176.59,1141.58 1177.5,1142.49 1178.4,1143.39 1179.31,1144.3 1180.21,1145.2 1181.12,1146.11 
  1182.02,1147.01 1182.93,1147.92 1183.83,1148.82 1184.74,1149.73 1185.64,1150.63 1186.55,1151.54 1187.45,1152.44 1188.36,1153.35 1189.26,1154.25 1190.17,1155.16 
  1191.07,1156.06 1191.98,1156.97 1192.88,1157.87 1193.79,1158.78 1194.69,1159.69 1195.6,1160.59 1196.5,1161.5 1197.41,1162.4 1198.31,1163.31 1199.22,1164.21 
  1200.12,1165.12 1201.03,1166.02 1201.93,1166.93 1202.84,1167.83 1203.75,1168.74 1204.65,1169.64 1205.56,1170.55 1206.46,1171.45 1207.37,1172.36 1208.27,1173.26 
  1209.18,1174.17 1210.08,1175.07 1210.99,1175.98 1211.89,1176.88 1212.8,1177.79 1213.7,1178.69 1214.61,1179.6 1215.51,1180.5 1216.42,1181.41 1217.32,1182.31 
  1218.23,1183.22 1219.13,1184.12 1220.04,1185.03 1220.94,1185.93 1221.85,1186.84 1222.75,1187.75 1223.66,1188.65 1224.56,1189.56 1225.47,1190.46 1226.37,1191.37 
  1227.28,1192.27 1228.18,1193.18 1229.09,1194.08 1229.99,1194.99 1230.9,1195.89 1231.81,1196.8 1232.71,1197.7 1233.62,1198.61 1234.52,1199.51 1235.43,1200.42 
  1236.33,1201.32 1237.24,1202.23 1238.14,1203.13 1239.05,1204.04 1239.95,1204.94 1240.86,1205.85 1241.76,1206.75 1242.67,1207.66 1243.57,1208.56 1244.48,1209.47 
  1245.38,1210.37 1246.29,1211.28 1247.19,1212.18 1248.1,1213.09 1249,1213.99 1249.91,1214.9 1250.81,1215.81 1251.72,1216.71 1252.62,1217.62 1253.53,1218.52 
  1254.43,1219.43 1255.34,1220.33 1256.24,1221.24 1257.15,1222.14 1258.05,1223.05 1258.96,1223.95 1259.86,1224.86 1260.77,1225.76 1261.68,1226.67 1262.58,1227.57 
  1263.49,1228.48 1264.39,1229.38 1265.3,1230.29 1266.2,1231.19 1267.11,1232.1 1268.01,1233 1268.92,1233.91 1269.82,1234.81 1270.73,1235.72 1271.63,1236.62 
  1272.54,1237.53 1273.44,1238.43 1274.35,1239.34 1275.25,1240.24 1276.16,1241.15 1277.06,1242.05 1277.97,1242.96 1278.87,1243.87 1279.78,1244.77 1280.68,1245.68 
  1281.59,1246.58 1282.49,1247.49 1283.4,1248.39 1284.3,1249.3 1285.21,1250.2 1286.11,1251.11 1287.02,1252.01 1287.92,1252.92 1288.83,1253.82 1289.74,1254.73 
  1290.64,1255.63 1291.55,1256.54 1292.45,1257.44 1293.36,1258.35 1294.26,1259.25 1295.17,1260.16 1296.07,1261.06 1296.98,1261.97 1297.88,1262.87 1298.79,1263.78 
  1299.69,1264.68 1300.6,1265.59 1301.5,1266.49 1302.41,1267.4 1303.31,1268.3 1304.22,1269.21 1305.12,1270.11 1306.03,1271.02 1306.93,1271.93 1307.84,1272.83 
  1308.74,1273.74 1309.65,1274.64 1310.55,1275.55 1311.46,1276.45 1312.36,1277.36 1313.27,1278.26 1314.17,1279.17 1315.08,1280.07 1315.98,1280.98 1316.89,1281.88 
  1317.8,1282.79 1318.7,1283.69 1319.61,1284.6 1320.51,1285.5 1321.42,1286.41 1322.32,1287.31 1323.23,1288.22 1324.13,1289.12 1325.04,1290.03 1325.94,1290.93 
  1326.85,1291.84 1327.75,1292.74 1328.66,1293.65 1329.56,1294.55 1330.47,1295.46 1331.37,1296.36 1332.28,1297.27 1333.18,1298.17 1334.09,1299.08 1334.99,1299.98 
  1335.9,1300.89 1336.8,1301.8 1337.71,1302.7 1338.61,1303.61 1339.52,1304.51 1340.42,1305.42 1341.33,1306.32 1342.23,1307.23 1343.14,1308.13 1344.04,1309.04 
  1344.95,1309.94 1345.86,1310.85 1346.76,1311.75 1347.67,1312.66 1348.57,1313.56 1349.48,1314.47 1350.38,1315.37 1351.29,1316.28 1352.19,1317.18 1353.1,1318.09 
  1354,1318.99 1354.91,1319.9 1355.81,1320.8 1356.72,1321.71 1357.62,1322.61 1358.53,1323.52 1359.43,1324.42 1360.34,1325.33 1361.24,1326.23 1362.15,1327.14 
  1363.05,1328.04 1363.96,1328.95 1364.86,1329.86 1365.77,1330.76 1366.67,1331.67 1367.58,1332.57 1368.48,1333.48 1369.39,1334.38 1370.29,1335.29 1371.2,1336.19 
  1372.1,1337.1 1373.01,1338 1373.92,1338.91 1374.82,1339.81 1375.73,1340.72 1376.63,1341.62 1377.54,1342.53 1378.44,1343.43 1379.35,1344.34 1380.25,1345.24 
  1381.16,1346.15 1382.06,1347.05 1382.97,1347.96 1383.87,1348.86 1384.78,1349.77 1385.68,1350.67 1386.59,1351.58 1387.49,1352.48 1388.4,1353.39 1389.3,1354.29 
  1390.21,1355.2 1391.11,1356.1 1392.02,1357.01 1392.92,1357.92 1393.83,1358.82 1394.73,1359.73 1395.64,1360.63 1396.54,1361.54 1397.45,1362.44 1398.35,1363.35 
  1399.26,1364.25 1400.16,1365.16 1401.07,1366.06 1401.98,1366.97 1402.88,1367.87 1403.79,1368.78 1404.69,1369.68 1405.6,1370.59 1406.5,1371.49 1407.41,1372.4 
  1408.31,1373.3 1409.22,1374.21 1410.12,1375.11 1411.03,1376.02 1411.93,1376.92 1412.84,1377.83 1413.74,1378.73 1414.65,1379.64 1415.55,1380.54 1416.46,1381.45 
  1417.36,1382.35 1418.27,1383.26 1419.17,1384.16 1420.08,1385.07 1420.98,1385.98 1421.89,1386.88 1422.79,1387.79 1423.7,1388.69 1424.6,1389.6 1425.51,1390.5 
  1426.41,1391.41 1427.32,1392.31 1428.22,1393.22 1429.13,1394.12 1430.03,1395.03 1430.94,1395.93 1431.85,1396.84 1432.75,1397.74 1433.66,1398.65 1434.56,1399.55 
  1435.47,1400.46 1436.37,1401.36 1437.28,1402.27 1438.18,1403.17 1439.09,1404.08 1439.99,1404.98 1440.9,1405.89 1441.8,1406.79 1442.71,1407.7 1443.61,1408.6 
  1444.52,1409.51 1445.42,1410.41 1446.33,1411.32 1447.23,1412.22 1448.14,1413.13 1449.04,1414.04 1449.95,1414.94 1450.85,1415.85 1451.76,1416.75 1452.66,1417.66 
  1453.57,1418.56 1454.47,1419.47 1455.38,1420.37 1456.28,1421.28 1457.19,1422.18 1458.09,1423.09 1459,1423.99 1459.91,1424.9 1460.81,1425.8 1461.72,1426.71 
  1462.62,1427.61 1463.53,1428.52 1464.43,1429.42 1465.34,1430.33 1466.24,1431.23 1467.15,1432.14 1468.05,1433.04 1468.96,1433.95 1469.86,1434.85 1470.77,1435.76 
  1471.67,1436.66 1472.58,1437.57 1473.48,1438.47 1474.39,1439.38 1475.29,1440.28 1476.2,1441.19 1477.1,1442.1 1478.01,1443 1478.91,1443.91 1479.82,1444.81 
  1480.72,1445.72 
  "/>
<polyline clip-path="url(#clip302)" style="stroke:#e26f46; stroke-linecap:butt; stroke-linejoin:round; stroke-width:4; stroke-opacity:1; fill:none" points="
  575.633,-5.93049e+06 575.702,-2.96452e+06 575.771,-1.97587e+06 575.841,-1.48154e+06 575.91,-1.18494e+06 575.979,-987210 576.048,-845974 576.117,-740046 576.186,-657658 576.255,-591748 
  576.324,-537821 576.393,-492882 576.462,-454857 576.531,-422264 576.6,-394017 576.669,-369300 576.738,-347492 576.807,-328106 576.876,-310761 576.945,-295151 
  577.084,-268188 577.222,-245718 577.36,-226706 577.498,-210409 577.636,-196285 577.774,-183927 577.912,-173023 578.05,-163330 578.189,-154658 578.327,-146853 
  578.603,-133371 578.879,-122136 579.155,-112630 579.432,-104482 579.708,-97419.9 579.984,-91240.8 580.26,-85788.6 580.537,-80942.3 580.813,-76606.1 581.089,-72703.5 
  581.642,-65962.6 582.194,-60345.3 582.747,-55592.1 583.299,-51518 583.575,-49691.7 583.851,-47987.1 584.128,-46392.5 584.404,-44897.5 586.958,-34508.5 589.512,-27924.4 
  592.067,-23378.5 594.621,-20051.2 599.729,-15506.8 604.838,-12548.5 609.946,-10469.2 615.055,-8927.9 620.163,-7739.68 625.271,-6795.69 635.488,-5390.55 645.705,-4394.77 
  655.922,-3652.19 666.139,-3077.15 678.419,-2537.16 690.699,-2112.36 702.979,-1769.44 715.258,-1486.81 736.023,-1107.32 756.788,-814.786 779.345,-564.57 801.901,-364.227 
  822.696,-211.928 843.491,-83.2706 888.081,134.882 939.741,320.832 985.651,446.765 1025.91,536.067 1069.8,616.852 1113.96,684.828 1162.78,748.084 1209.22,799.222 
  1257.52,845.007 1298.18,878.804 1347.81,915.241 1393.28,944.738 1435.27,969.21 1477.81,991.676 1525.49,1014.46 1568.69,1033.22 1618.15,1052.79 1663.95,1069.32 
  1709.1,1084.32 1752.93,1097.77 1797.87,1110.57 1847.11,1123.54 1918.63,1140.7 1933.3,1144 
  "/>
<polyline clip-path="url(#clip302)" style="stroke:#000000; stroke-linecap:butt; stroke-linejoin:round; stroke-width:4; stroke-opacity:1; fill:none" stroke-dasharray="16, 10" points="
  575.564,540.556 1480.72,540.556 1480.72,1445.72 
  "/>
<path clip-path="url(#clip302)" d="
M575.564 540.556 L576.469 541.461 L577.375 542.366 L578.28 543.272 L579.185 544.177 L580.09 545.082 L580.995 545.987 L581.9 546.892 L582.806 547.797 L583.711 548.703 
  L584.616 549.608 L585.521 550.513 L586.426 551.418 L587.331 552.323 L588.237 553.228 L589.142 554.133 L590.047 555.039 L590.952 555.944 L591.857 556.849 L592.762 557.754 
  L593.668 558.659 L594.573 559.564 L595.478 560.47 L596.383 561.375 L597.288 562.28 L598.193 563.185 L599.098 564.09 L600.004 564.995 L600.909 565.901 L601.814 566.806 
  L602.719 567.711 L603.624 568.616 L604.529 569.521 L605.435 570.426 L606.34 571.332 L607.245 572.237 L608.15 573.142 L609.055 574.047 L609.96 574.952 L610.866 575.857 
  L611.771 576.762 L612.676 577.668 L613.581 578.573 L614.486 579.478 L615.391 580.383 L616.296 581.288 L617.202 582.193 L618.107 583.099 L619.012 584.004 L619.917 584.909 
  L620.822 585.814 L621.727 586.719 L622.633 587.624 L623.538 588.53 L624.443 589.435 L625.348 590.34 L626.253 591.245 L627.158 592.15 L628.064 593.055 L628.969 593.96 
  L629.874 594.866 L630.779 595.771 L631.684 596.676 L632.589 597.581 L633.495 598.486 L634.4 599.391 L635.305 600.297 L636.21 601.202 L637.115 602.107 L638.02 603.012 
  L638.925 603.917 L639.831 604.822 L640.736 605.728 L641.641 606.633 L642.546 607.538 L643.451 608.443 L644.356 609.348 L645.262 610.253 L646.167 611.159 L647.072 612.064 
  L647.977 612.969 L648.882 613.874 L649.787 614.779 L650.693 615.684 L651.598 616.589 L652.503 617.495 L653.408 618.4 L654.313 619.305 L655.218 620.21 L656.124 621.115 
  L657.029 622.02 L657.934 622.926 L658.839 623.831 L659.744 624.736 L660.649 625.641 L661.554 626.546 L662.46 627.451 L663.365 628.357 L664.27 629.262 L665.175 630.167 
  L666.08 631.072 L666.985 631.977 L667.891 632.882 L668.796 633.788 L669.701 634.693 L670.606 635.598 L671.511 636.503 L672.416 637.408 L673.322 638.313 L674.227 639.218 
  L675.132 640.124 L676.037 641.029 L676.942 641.934 L677.847 642.839 L678.753 643.744 L679.658 644.649 L680.563 645.555 L681.468 646.46 L682.373 647.365 L683.278 648.27 
  L684.183 649.175 L685.089 650.08 L685.994 650.986 L686.899 651.891 L687.804 652.796 L688.709 653.701 L689.614 654.606 L690.52 655.511 L691.425 656.417 L692.33 657.322 
  L693.235 658.227 L694.14 659.132 L695.045 660.037 L695.951 660.942 L696.856 661.847 L697.761 662.753 L698.666 663.658 L699.571 664.563 L700.476 665.468 L701.381 666.373 
  L702.287 667.278 L703.192 668.184 L704.097 669.089 L705.002 669.994 L705.907 670.899 L706.812 671.804 L707.718 672.709 L708.623 673.615 L709.528 674.52 L710.433 675.425 
  L711.338 676.33 L712.243 677.235 L713.149 678.14 L714.054 679.046 L714.959 679.951 L715.864 680.856 L716.769 681.761 L717.674 682.666 L718.58 683.571 L719.485 684.476 
  L720.39 685.382 L721.295 686.287 L722.2 687.192 L723.105 688.097 L724.01 689.002 L724.916 689.907 L725.821 690.813 L726.726 691.718 L727.631 692.623 L728.536 693.528 
  L729.441 694.433 L730.347 695.338 L731.252 696.244 L732.157 697.149 L733.062 698.054 L733.967 698.959 L734.872 699.864 L735.778 700.769 L736.683 701.674 L737.588 702.58 
  L738.493 703.485 L739.398 704.39 L740.303 705.295 L741.209 706.2 L742.114 707.105 L743.019 708.011 L743.924 708.916 L744.829 709.821 L745.734 710.726 L746.639 711.631 
  L747.545 712.536 L748.45 713.442 L749.355 714.347 L750.26 715.252 L751.165 716.157 L752.07 717.062 L752.976 717.967 L753.881 718.873 L754.786 719.778 L755.691 720.683 
  L756.596 721.588 L757.501 722.493 L758.407 723.398 L759.312 724.303 L760.217 725.209 L761.122 726.114 L762.027 727.019 L762.932 727.924 L763.838 728.829 L764.743 729.734 
  L765.648 730.64 L766.553 731.545 L767.458 732.45 L768.363 733.355 L769.268 734.26 L770.174 735.165 L771.079 736.071 L771.984 736.976 L772.889 737.881 L773.794 738.786 
  L774.699 739.691 L775.605 740.596 L776.51 741.502 L777.415 742.407 L778.32 743.312 L779.225 744.217 L780.13 745.122 L781.036 746.027 L781.941 746.932 L782.846 747.838 
  L783.751 748.743 L784.656 749.648 L785.561 750.553 L786.466 751.458 L787.372 752.363 L788.277 753.269 L789.182 754.174 L790.087 755.079 L790.992 755.984 L791.897 756.889 
  L792.803 757.794 L793.708 758.7 L794.613 759.605 L795.518 760.51 L796.423 761.415 L797.328 762.32 L798.234 763.225 L799.139 764.131 L800.044 765.036 L800.949 765.941 
  L801.854 766.846 L802.759 767.751 L803.665 768.656 L804.57 769.561 L805.475 770.467 L806.38 771.372 L807.285 772.277 L808.19 773.182 L809.095 774.087 L810.001 774.992 
  L810.906 775.898 L811.811 776.803 L812.716 777.708 L813.621 778.613 L814.526 779.518 L815.432 780.423 L816.337 781.329 L817.242 782.234 L818.147 783.139 L819.052 784.044 
  L819.957 784.949 L820.863 785.854 L821.768 786.759 L822.673 787.665 L823.578 788.57 L824.483 789.475 L825.388 790.38 L826.294 791.285 L827.199 792.19 L828.104 793.096 
  L829.009 794.001 L829.914 794.906 L830.819 795.811 L831.724 796.716 L832.63 797.621 L833.535 798.527 L834.44 799.432 L835.345 800.337 L836.25 801.242 L837.155 802.147 
  L838.061 803.052 L838.966 803.958 L839.871 804.863 L840.776 805.768 L841.681 806.673 L842.586 807.578 L843.492 808.483 L844.397 809.388 L845.302 810.294 L846.207 811.199 
  L847.112 812.104 L848.017 813.009 L848.923 813.914 L849.828 814.819 L850.733 815.725 L851.638 816.63 L852.543 817.535 L853.448 818.44 L854.353 819.345 L855.259 820.25 
  L856.164 821.156 L857.069 822.061 L857.974 822.966 L858.879 823.871 L859.784 824.776 L860.69 825.681 L861.595 826.587 L862.5 827.492 L863.405 828.397 L864.31 829.302 
  L865.215 830.207 L866.121 831.112 L867.026 832.017 L867.931 832.923 L868.836 833.828 L869.741 834.733 L870.646 835.638 L871.552 836.543 L872.457 837.448 L873.362 838.354 
  L874.267 839.259 L875.172 840.164 L876.077 841.069 L876.982 841.974 L877.888 842.879 L878.793 843.785 L879.698 844.69 L880.603 845.595 L881.508 846.5 L882.413 847.405 
  L883.319 848.31 L884.224 849.216 L885.129 850.121 L886.034 851.026 L886.939 851.931 L887.844 852.836 L888.75 853.741 L889.655 854.646 L890.56 855.552 L891.465 856.457 
  L892.37 857.362 L893.275 858.267 L894.18 859.172 L895.086 860.077 L895.991 860.983 L896.896 861.888 L897.801 862.793 L898.706 863.698 L899.611 864.603 L900.517 865.508 
  L901.422 866.414 L902.327 867.319 L903.232 868.224 L904.137 869.129 L905.042 870.034 L905.948 870.939 L906.853 871.844 L907.758 872.75 L908.663 873.655 L909.568 874.56 
  L910.473 875.465 L911.379 876.37 L912.284 877.275 L913.189 878.181 L914.094 879.086 L914.999 879.991 L915.904 880.896 L916.809 881.801 L917.715 882.706 L918.62 883.612 
  L919.525 884.517 L920.43 885.422 L921.335 886.327 L922.24 887.232 L923.146 888.137 L924.051 889.043 L924.956 889.948 L925.861 890.853 L926.766 891.758 L927.671 892.663 
  L928.577 893.568 L929.482 894.473 L930.387 895.379 L931.292 896.284 L932.197 897.189 L933.102 898.094 L934.008 898.999 L934.913 899.904 L935.818 900.81 L936.723 901.715 
  L937.628 902.62 L938.533 903.525 L939.438 904.43 L940.344 905.335 L941.249 906.241 L942.154 907.146 L943.059 908.051 L943.964 908.956 L944.869 909.861 L945.775 910.766 
  L946.68 911.672 L947.585 912.577 L948.49 913.482 L949.395 914.387 L950.3 915.292 L951.206 916.197 L952.111 917.102 L953.016 918.008 L953.921 918.913 L954.826 919.818 
  L955.731 920.723 L956.637 921.628 L957.542 922.533 L958.447 923.439 L959.352 924.344 L960.257 925.249 L961.162 926.154 L962.067 927.059 L962.973 927.964 L963.878 928.87 
  L964.783 929.775 L965.688 930.68 L966.593 931.585 L967.498 932.49 L968.404 933.395 L969.309 934.301 L970.214 935.206 L971.119 936.111 L972.024 937.016 L972.929 937.921 
  L973.835 938.826 L974.74 939.731 L975.645 940.637 L976.55 941.542 L977.455 942.447 L978.36 943.352 L979.265 944.257 L980.171 945.162 L981.076 946.068 L981.981 946.973 
  L982.886 947.878 L983.791 948.783 L984.696 949.688 L985.602 950.593 L986.507 951.499 L987.412 952.404 L988.317 953.309 L989.222 954.214 L990.127 955.119 L991.033 956.024 
  L991.938 956.93 L992.843 957.835 L993.748 958.74 L994.653 959.645 L995.558 960.55 L996.464 961.455 L997.369 962.36 L998.274 963.266 L999.179 964.171 L1000.08 965.076 
  L1000.99 965.981 L1001.89 966.886 L1002.8 967.791 L1003.7 968.697 L1004.61 969.602 L1005.52 970.507 L1006.42 971.412 L1007.33 972.317 L1008.23 973.222 L1009.14 974.128 
  L1010.04 975.033 L1010.95 975.938 L1011.85 976.843 L1012.76 977.748 L1013.66 978.653 L1014.57 979.558 L1015.47 980.464 L1016.38 981.369 L1017.28 982.274 L1018.19 983.179 
  L1019.09 984.084 L1020 984.989 L1020.9 985.895 L1021.81 986.8 L1022.71 987.705 L1023.62 988.61 L1024.52 989.515 L1025.43 990.42 L1026.33 991.326 L1027.24 992.231 
  L1028.14 993.136 L1029.05 994.041 L1029.95 994.946 L1030.86 995.851 L1031.76 996.757 L1032.67 997.662 L1033.58 998.567 L1034.48 999.472 L1035.39 1000.38 L1036.29 1001.28 
  L1037.2 1002.19 L1038.1 1003.09 L1039.01 1004 L1039.91 1004.9 L1040.82 1005.81 L1041.72 1006.71 L1042.63 1007.62 L1043.53 1008.52 L1044.44 1009.43 L1045.34 1010.33 
  L1046.25 1011.24 L1047.15 1012.14 L1048.06 1013.05 L1048.96 1013.95 L1049.87 1014.86 L1050.77 1015.76 L1051.68 1016.67 L1052.58 1017.58 L1053.49 1018.48 L1054.39 1019.39 
  L1055.3 1020.29 L1056.2 1021.2 L1057.11 1022.1 L1058.01 1023.01 L1058.92 1023.91 L1059.82 1024.82 L1060.73 1025.72 L1061.64 1026.63 L1062.54 1027.53 L1063.45 1028.44 
  L1064.35 1029.34 L1065.26 1030.25 L1066.16 1031.15 L1067.07 1032.06 L1067.97 1032.96 L1068.88 1033.87 L1069.78 1034.77 L1070.69 1035.68 L1071.59 1036.58 L1072.5 1037.49 
  L1073.4 1038.39 L1074.31 1039.3 L1075.21 1040.2 L1076.12 1041.11 L1077.02 1042.01 L1077.93 1042.92 L1078.83 1043.82 L1079.74 1044.73 L1080.64 1045.64 L1081.55 1046.54 
  L1082.45 1047.45 L1083.36 1048.35 L1084.26 1049.26 L1085.17 1050.16 L1086.07 1051.07 L1086.98 1051.97 L1087.88 1052.88 L1088.79 1053.78 L1089.69 1054.69 L1090.6 1055.59 
  L1091.51 1056.5 L1092.41 1057.4 L1093.32 1058.31 L1094.22 1059.21 L1095.13 1060.12 L1096.03 1061.02 L1096.94 1061.93 L1097.84 1062.83 L1098.75 1063.74 L1099.65 1064.64 
  L1100.56 1065.55 L1101.46 1066.45 L1102.37 1067.36 L1103.27 1068.26 L1104.18 1069.17 L1105.08 1070.07 L1105.99 1070.98 L1106.89 1071.88 L1107.8 1072.79 L1108.7 1073.7 
  L1109.61 1074.6 L1110.51 1075.51 L1111.42 1076.41 L1112.32 1077.32 L1113.23 1078.22 L1114.13 1079.13 L1115.04 1080.03 L1115.94 1080.94 L1116.85 1081.84 L1117.75 1082.75 
  L1118.66 1083.65 L1119.57 1084.56 L1120.47 1085.46 L1121.38 1086.37 L1122.28 1087.27 L1123.19 1088.18 L1124.09 1089.08 L1125 1089.99 L1125.9 1090.89 L1126.81 1091.8 
  L1127.71 1092.7 L1128.62 1093.61 L1129.52 1094.51 L1130.43 1095.42 L1131.33 1096.32 L1132.24 1097.23 L1133.14 1098.13 L1134.05 1099.04 L1134.95 1099.94 L1135.86 1100.85 
  L1136.76 1101.76 L1137.67 1102.66 L1138.57 1103.57 L1139.48 1104.47 L1140.38 1105.38 L1141.29 1106.28 L1142.19 1107.19 L1143.1 1108.09 L1144 1109 L1144.91 1109.9 
  L1145.81 1110.81 L1146.72 1111.71 L1147.63 1112.62 L1148.53 1113.52 L1149.44 1114.43 L1150.34 1115.33 L1151.25 1116.24 L1152.15 1117.14 L1153.06 1118.05 L1153.96 1118.95 
  L1154.87 1119.86 L1155.77 1120.76 L1156.68 1121.67 L1157.58 1122.57 L1158.49 1123.48 L1159.39 1124.38 L1160.3 1125.29 L1161.2 1126.19 L1162.11 1127.1 L1163.01 1128 
  L1163.92 1128.91 L1164.82 1129.81 L1165.73 1130.72 L1166.63 1131.63 L1167.54 1132.53 L1168.44 1133.44 L1169.35 1134.34 L1170.25 1135.25 L1171.16 1136.15 L1172.06 1137.06 
  L1172.97 1137.96 L1173.87 1138.87 L1174.78 1139.77 L1175.69 1140.68 L1176.59 1141.58 L1177.5 1142.49 L1178.4 1143.39 L1179.31 1144.3 L1180.21 1145.2 L1181.12 1146.11 
  L1182.02 1147.01 L1182.93 1147.92 L1183.83 1148.82 L1184.74 1149.73 L1185.64 1150.63 L1186.55 1151.54 L1187.45 1152.44 L1188.36 1153.35 L1189.26 1154.25 L1190.17 1155.16 
  L1191.07 1156.06 L1191.98 1156.97 L1192.88 1157.87 L1193.79 1158.78 L1194.69 1159.69 L1195.6 1160.59 L1196.5 1161.5 L1197.41 1162.4 L1198.31 1163.31 L1199.22 1164.21 
  L1200.12 1165.12 L1201.03 1166.02 L1201.93 1166.93 L1202.84 1167.83 L1203.75 1168.74 L1204.65 1169.64 L1205.56 1170.55 L1206.46 1171.45 L1207.37 1172.36 L1208.27 1173.26 
  L1209.18 1174.17 L1210.08 1175.07 L1210.99 1175.98 L1211.89 1176.88 L1212.8 1177.79 L1213.7 1178.69 L1214.61 1179.6 L1215.51 1180.5 L1216.42 1181.41 L1217.32 1182.31 
  L1218.23 1183.22 L1219.13 1184.12 L1220.04 1185.03 L1220.94 1185.93 L1221.85 1186.84 L1222.75 1187.75 L1223.66 1188.65 L1224.56 1189.56 L1225.47 1190.46 L1226.37 1191.37 
  L1227.28 1192.27 L1228.18 1193.18 L1229.09 1194.08 L1229.99 1194.99 L1230.9 1195.89 L1231.81 1196.8 L1232.71 1197.7 L1233.62 1198.61 L1234.52 1199.51 L1235.43 1200.42 
  L1236.33 1201.32 L1237.24 1202.23 L1238.14 1203.13 L1239.05 1204.04 L1239.95 1204.94 L1240.86 1205.85 L1241.76 1206.75 L1242.67 1207.66 L1243.57 1208.56 L1244.48 1209.47 
  L1245.38 1210.37 L1246.29 1211.28 L1247.19 1212.18 L1248.1 1213.09 L1249 1213.99 L1249.91 1214.9 L1250.81 1215.81 L1251.72 1216.71 L1252.62 1217.62 L1253.53 1218.52 
  L1254.43 1219.43 L1255.34 1220.33 L1256.24 1221.24 L1257.15 1222.14 L1258.05 1223.05 L1258.96 1223.95 L1259.86 1224.86 L1260.77 1225.76 L1261.68 1226.67 L1262.58 1227.57 
  L1263.49 1228.48 L1264.39 1229.38 L1265.3 1230.29 L1266.2 1231.19 L1267.11 1232.1 L1268.01 1233 L1268.92 1233.91 L1269.82 1234.81 L1270.73 1235.72 L1271.63 1236.62 
  L1272.54 1237.53 L1273.44 1238.43 L1274.35 1239.34 L1275.25 1240.24 L1276.16 1241.15 L1277.06 1242.05 L1277.97 1242.96 L1278.87 1243.87 L1279.78 1244.77 L1280.68 1245.68 
  L1281.59 1246.58 L1282.49 1247.49 L1283.4 1248.39 L1284.3 1249.3 L1285.21 1250.2 L1286.11 1251.11 L1287.02 1252.01 L1287.92 1252.92 L1288.83 1253.82 L1289.74 1254.73 
  L1290.64 1255.63 L1291.55 1256.54 L1292.45 1257.44 L1293.36 1258.35 L1294.26 1259.25 L1295.17 1260.16 L1296.07 1261.06 L1296.98 1261.97 L1297.88 1262.87 L1298.79 1263.78 
  L1299.69 1264.68 L1300.6 1265.59 L1301.5 1266.49 L1302.41 1267.4 L1303.31 1268.3 L1304.22 1269.21 L1305.12 1270.11 L1306.03 1271.02 L1306.93 1271.93 L1307.84 1272.83 
  L1308.74 1273.74 L1309.65 1274.64 L1310.55 1275.55 L1311.46 1276.45 L1312.36 1277.36 L1313.27 1278.26 L1314.17 1279.17 L1315.08 1280.07 L1315.98 1280.98 L1316.89 1281.88 
  L1317.8 1282.79 L1318.7 1283.69 L1319.61 1284.6 L1320.51 1285.5 L1321.42 1286.41 L1322.32 1287.31 L1323.23 1288.22 L1324.13 1289.12 L1325.04 1290.03 L1325.94 1290.93 
  L1326.85 1291.84 L1327.75 1292.74 L1328.66 1293.65 L1329.56 1294.55 L1330.47 1295.46 L1331.37 1296.36 L1332.28 1297.27 L1333.18 1298.17 L1334.09 1299.08 L1334.99 1299.98 
  L1335.9 1300.89 L1336.8 1301.8 L1337.71 1302.7 L1338.61 1303.61 L1339.52 1304.51 L1340.42 1305.42 L1341.33 1306.32 L1342.23 1307.23 L1343.14 1308.13 L1344.04 1309.04 
  L1344.95 1309.94 L1345.86 1310.85 L1346.76 1311.75 L1347.67 1312.66 L1348.57 1313.56 L1349.48 1314.47 L1350.38 1315.37 L1351.29 1316.28 L1352.19 1317.18 L1353.1 1318.09 
  L1354 1318.99 L1354.91 1319.9 L1355.81 1320.8 L1356.72 1321.71 L1357.62 1322.61 L1358.53 1323.52 L1359.43 1324.42 L1360.34 1325.33 L1361.24 1326.23 L1362.15 1327.14 
  L1363.05 1328.04 L1363.96 1328.95 L1364.86 1329.86 L1365.77 1330.76 L1366.67 1331.67 L1367.58 1332.57 L1368.48 1333.48 L1369.39 1334.38 L1370.29 1335.29 L1371.2 1336.19 
  L1372.1 1337.1 L1373.01 1338 L1373.92 1338.91 L1374.82 1339.81 L1375.73 1340.72 L1376.63 1341.62 L1377.54 1342.53 L1378.44 1343.43 L1379.35 1344.34 L1380.25 1345.24 
  L1381.16 1346.15 L1382.06 1347.05 L1382.97 1347.96 L1383.87 1348.86 L1384.78 1349.77 L1385.68 1350.67 L1386.59 1351.58 L1387.49 1352.48 L1388.4 1353.39 L1389.3 1354.29 
  L1390.21 1355.2 L1391.11 1356.1 L1392.02 1357.01 L1392.92 1357.92 L1393.83 1358.82 L1394.73 1359.73 L1395.64 1360.63 L1396.54 1361.54 L1397.45 1362.44 L1398.35 1363.35 
  L1399.26 1364.25 L1400.16 1365.16 L1401.07 1366.06 L1401.98 1366.97 L1402.88 1367.87 L1403.79 1368.78 L1404.69 1369.68 L1405.6 1370.59 L1406.5 1371.49 L1407.41 1372.4 
  L1408.31 1373.3 L1409.22 1374.21 L1410.12 1375.11 L1411.03 1376.02 L1411.93 1376.92 L1412.84 1377.83 L1413.74 1378.73 L1414.65 1379.64 L1415.55 1380.54 L1416.46 1381.45 
  L1417.36 1382.35 L1418.27 1383.26 L1419.17 1384.16 L1420.08 1385.07 L1420.98 1385.98 L1421.89 1386.88 L1422.79 1387.79 L1423.7 1388.69 L1424.6 1389.6 L1425.51 1390.5 
  L1426.41 1391.41 L1427.32 1392.31 L1428.22 1393.22 L1429.13 1394.12 L1430.03 1395.03 L1430.94 1395.93 L1431.85 1396.84 L1432.75 1397.74 L1433.66 1398.65 L1434.56 1399.55 
  L1435.47 1400.46 L1436.37 1401.36 L1437.28 1402.27 L1438.18 1403.17 L1439.09 1404.08 L1439.99 1404.98 L1440.9 1405.89 L1441.8 1406.79 L1442.71 1407.7 L1443.61 1408.6 
  L1444.52 1409.51 L1445.42 1410.41 L1446.33 1411.32 L1447.23 1412.22 L1448.14 1413.13 L1449.04 1414.04 L1449.95 1414.94 L1450.85 1415.85 L1451.76 1416.75 L1452.66 1417.66 
  L1453.57 1418.56 L1454.47 1419.47 L1455.38 1420.37 L1456.28 1421.28 L1457.19 1422.18 L1458.09 1423.09 L1459 1423.99 L1459.91 1424.9 L1460.81 1425.8 L1461.72 1426.71 
  L1462.62 1427.61 L1463.53 1428.52 L1464.43 1429.42 L1465.34 1430.33 L1466.24 1431.23 L1467.15 1432.14 L1468.05 1433.04 L1468.96 1433.95 L1469.86 1434.85 L1470.77 1435.76 
  L1471.67 1436.66 L1472.58 1437.57 L1473.48 1438.47 L1474.39 1439.38 L1475.29 1440.28 L1476.2 1441.19 L1477.1 1442.1 L1478.01 1443 L1478.91 1443.91 L1479.82 1444.81 
  L1480.72 1445.72 L1480.72 993.136 L1479.82 992.683 L1478.91 992.229 L1478.01 991.774 L1477.1 991.318 L1476.2 990.862 L1475.29 990.404 L1474.39 989.945 L1473.48 989.486 
  L1472.58 989.026 L1471.67 988.564 L1470.77 988.102 L1469.86 987.639 L1468.96 987.175 L1468.05 986.71 L1467.15 986.244 L1466.24 985.777 L1465.34 985.309 L1464.43 984.84 
  L1463.53 984.37 L1462.62 983.9 L1461.72 983.428 L1460.81 982.955 L1459.91 982.482 L1459 982.007 L1458.09 981.531 L1457.19 981.055 L1456.28 980.577 L1455.38 980.099 
  L1454.47 979.619 L1453.57 979.139 L1452.66 978.657 L1451.76 978.175 L1450.85 977.691 L1449.95 977.207 L1449.04 976.721 L1448.14 976.235 L1447.23 975.747 L1446.33 975.259 
  L1445.42 974.769 L1444.52 974.278 L1443.61 973.787 L1442.71 973.294 L1441.8 972.801 L1440.9 972.306 L1439.99 971.81 L1439.09 971.313 L1438.18 970.816 L1437.28 970.317 
  L1436.37 969.817 L1435.47 969.316 L1434.56 968.814 L1433.66 968.311 L1432.75 967.807 L1431.85 967.302 L1430.94 966.795 L1430.03 966.288 L1429.13 965.78 L1428.22 965.27 
  L1427.32 964.759 L1426.41 964.248 L1425.51 963.735 L1424.6 963.221 L1423.7 962.706 L1422.79 962.19 L1421.89 961.673 L1420.98 961.155 L1420.08 960.636 L1419.17 960.115 
  L1418.27 959.593 L1417.36 959.071 L1416.46 958.547 L1415.55 958.022 L1414.65 957.496 L1413.74 956.969 L1412.84 956.44 L1411.93 955.911 L1411.03 955.38 L1410.12 954.848 
  L1409.22 954.315 L1408.31 953.781 L1407.41 953.246 L1406.5 952.709 L1405.6 952.172 L1404.69 951.633 L1403.79 951.093 L1402.88 950.552 L1401.98 950.009 L1401.07 949.466 
  L1400.16 948.921 L1399.26 948.375 L1398.35 947.828 L1397.45 947.28 L1396.54 946.73 L1395.64 946.179 L1394.73 945.628 L1393.83 945.074 L1392.92 944.52 L1392.02 943.964 
  L1391.11 943.407 L1390.21 942.849 L1389.3 942.29 L1388.4 941.729 L1387.49 941.167 L1386.59 940.604 L1385.68 940.04 L1384.78 939.474 L1383.87 938.907 L1382.97 938.339 
  L1382.06 937.77 L1381.16 937.199 L1380.25 936.627 L1379.35 936.054 L1378.44 935.479 L1377.54 934.903 L1376.63 934.326 L1375.73 933.748 L1374.82 933.168 L1373.92 932.587 
  L1373.01 932.004 L1372.1 931.42 L1371.2 930.835 L1370.29 930.249 L1369.39 929.661 L1368.48 929.072 L1367.58 928.482 L1366.67 927.89 L1365.77 927.297 L1364.86 926.702 
  L1363.96 926.106 L1363.05 925.509 L1362.15 924.91 L1361.24 924.31 L1360.34 923.709 L1359.43 923.106 L1358.53 922.502 L1357.62 921.896 L1356.72 921.289 L1355.81 920.681 
  L1354.91 920.071 L1354 919.46 L1353.1 918.847 L1352.19 918.233 L1351.29 917.618 L1350.38 917.001 L1349.48 916.383 L1348.57 915.763 L1347.67 915.141 L1346.76 914.519 
  L1345.86 913.895 L1344.95 913.269 L1344.04 912.642 L1343.14 912.013 L1342.23 911.383 L1341.33 910.751 L1340.42 910.118 L1339.52 909.484 L1338.61 908.848 L1337.71 908.21 
  L1336.8 907.571 L1335.9 906.93 L1334.99 906.288 L1334.09 905.644 L1333.18 904.999 L1332.28 904.352 L1331.37 903.704 L1330.47 903.054 L1329.56 902.403 L1328.66 901.75 
  L1327.75 901.095 L1326.85 900.439 L1325.94 899.781 L1325.04 899.122 L1324.13 898.461 L1323.23 897.798 L1322.32 897.134 L1321.42 896.468 L1320.51 895.801 L1319.61 895.132 
  L1318.7 894.461 L1317.8 893.789 L1316.89 893.115 L1315.98 892.44 L1315.08 891.762 L1314.17 891.084 L1313.27 890.403 L1312.36 889.721 L1311.46 889.037 L1310.55 888.351 
  L1309.65 887.664 L1308.74 886.975 L1307.84 886.285 L1306.93 885.592 L1306.03 884.898 L1305.12 884.202 L1304.22 883.505 L1303.31 882.805 L1302.41 882.104 L1301.5 881.402 
  L1300.6 880.697 L1299.69 879.991 L1298.79 879.283 L1297.88 878.573 L1296.98 877.861 L1296.07 877.148 L1295.17 876.433 L1294.26 875.716 L1293.36 874.997 L1292.45 874.277 
  L1291.55 873.554 L1290.64 872.83 L1289.74 872.104 L1288.83 871.376 L1287.92 870.646 L1287.02 869.914 L1286.11 869.181 L1285.21 868.446 L1284.3 867.708 L1283.4 866.969 
  L1282.49 866.228 L1281.59 865.485 L1280.68 864.74 L1279.78 863.994 L1278.87 863.245 L1277.97 862.494 L1277.06 861.742 L1276.16 860.987 L1275.25 860.231 L1274.35 859.472 
  L1273.44 858.712 L1272.54 857.95 L1271.63 857.185 L1270.73 856.419 L1269.82 855.651 L1268.92 854.88 L1268.01 854.108 L1267.11 853.334 L1266.2 852.557 L1265.3 851.779 
  L1264.39 850.998 L1263.49 850.216 L1262.58 849.431 L1261.68 848.645 L1260.77 847.856 L1259.86 847.065 L1258.96 846.272 L1258.05 845.477 L1257.15 844.68 L1256.24 843.881 
  L1255.34 843.079 L1254.43 842.276 L1253.53 841.47 L1252.62 840.662 L1251.72 839.852 L1250.81 839.04 L1249.91 838.226 L1249 837.41 L1248.1 836.591 L1247.19 835.77 
  L1246.29 834.947 L1245.38 834.121 L1244.48 833.294 L1243.57 832.464 L1242.67 831.632 L1241.76 830.797 L1240.86 829.961 L1239.95 829.122 L1239.05 828.281 L1238.14 827.437 
  L1237.24 826.591 L1236.33 825.743 L1235.43 824.893 L1234.52 824.04 L1233.62 823.185 L1232.71 822.328 L1231.81 821.468 L1230.9 820.605 L1229.99 819.741 L1229.09 818.874 
  L1228.18 818.004 L1227.28 817.133 L1226.37 816.258 L1225.47 815.382 L1224.56 814.503 L1223.66 813.621 L1222.75 812.737 L1221.85 811.85 L1220.94 810.961 L1220.04 810.07 
  L1219.13 809.176 L1218.23 808.279 L1217.32 807.38 L1216.42 806.479 L1215.51 805.575 L1214.61 804.668 L1213.7 803.759 L1212.8 802.847 L1211.89 801.932 L1210.99 801.015 
  L1210.08 800.095 L1209.18 799.173 L1208.27 798.248 L1207.37 797.321 L1206.46 796.39 L1205.56 795.457 L1204.65 794.522 L1203.75 793.583 L1202.84 792.642 L1201.93 791.699 
  L1201.03 790.752 L1200.12 789.803 L1199.22 788.851 L1198.31 787.896 L1197.41 786.939 L1196.5 785.978 L1195.6 785.015 L1194.69 784.049 L1193.79 783.081 L1192.88 782.109 
  L1191.98 781.134 L1191.07 780.157 L1190.17 779.177 L1189.26 778.194 L1188.36 777.208 L1187.45 776.219 L1186.55 775.227 L1185.64 774.232 L1184.74 773.235 L1183.83 772.234 
  L1182.93 771.23 L1182.02 770.223 L1181.12 769.214 L1180.21 768.201 L1179.31 767.185 L1178.4 766.166 L1177.5 765.145 L1176.59 764.12 L1175.69 763.092 L1174.78 762.06 
  L1173.87 761.026 L1172.97 759.989 L1172.06 758.948 L1171.16 757.904 L1170.25 756.858 L1169.35 755.807 L1168.44 754.754 L1167.54 753.698 L1166.63 752.638 L1165.73 751.575 
  L1164.82 750.509 L1163.92 749.439 L1163.01 748.366 L1162.11 747.29 L1161.2 746.211 L1160.3 745.128 L1159.39 744.042 L1158.49 742.952 L1157.58 741.859 L1156.68 740.763 
  L1155.77 739.663 L1154.87 738.56 L1153.96 737.453 L1153.06 736.343 L1152.15 735.229 L1151.25 734.112 L1150.34 732.992 L1149.44 731.867 L1148.53 730.74 L1147.63 729.608 
  L1146.72 728.474 L1145.81 727.335 L1144.91 726.193 L1144 725.047 L1143.1 723.898 L1142.19 722.745 L1141.29 721.588 L1140.38 720.428 L1139.48 719.263 L1138.57 718.095 
  L1137.67 716.924 L1136.76 715.748 L1135.86 714.569 L1134.95 713.386 L1134.05 712.199 L1133.14 711.008 L1132.24 709.814 L1131.33 708.615 L1130.43 707.413 L1129.52 706.206 
  L1128.62 704.996 L1127.71 703.782 L1126.81 702.563 L1125.9 701.341 L1125 700.115 L1124.09 698.884 L1123.19 697.65 L1122.28 696.411 L1121.38 695.169 L1120.47 693.922 
  L1119.57 692.671 L1118.66 691.416 L1117.75 690.157 L1116.85 688.893 L1115.94 687.626 L1115.04 686.354 L1114.13 685.077 L1113.23 683.797 L1112.32 682.512 L1111.42 681.223 
  L1110.51 679.929 L1109.61 678.631 L1108.7 677.329 L1107.8 676.022 L1106.89 674.711 L1105.99 673.395 L1105.08 672.075 L1104.18 670.75 L1103.27 669.421 L1102.37 668.087 
  L1101.46 666.749 L1100.56 665.406 L1099.65 664.058 L1098.75 662.706 L1097.84 661.349 L1096.94 659.987 L1096.03 658.62 L1095.13 657.249 L1094.22 655.873 L1093.32 654.492 
  L1092.41 653.107 L1091.51 651.716 L1090.6 650.321 L1089.69 648.92 L1088.79 647.515 L1087.88 646.105 L1086.98 644.689 L1086.07 643.269 L1085.17 641.844 L1084.26 640.414 
  L1083.36 638.978 L1082.45 637.537 L1081.55 636.092 L1080.64 634.641 L1079.74 633.185 L1078.83 631.723 L1077.93 630.257 L1077.02 628.785 L1076.12 627.307 L1075.21 625.825 
  L1074.31 624.337 L1073.4 622.843 L1072.5 621.344 L1071.59 619.84 L1070.69 618.33 L1069.78 616.815 L1068.88 615.294 L1067.97 613.768 L1067.07 612.235 L1066.16 610.698 
  L1065.26 609.154 L1064.35 607.605 L1063.45 606.05 L1062.54 604.489 L1061.64 602.923 L1060.73 601.35 L1059.82 599.772 L1058.92 598.188 L1058.01 596.598 L1057.11 595.002 
  L1056.2 593.4 L1055.3 591.792 L1054.39 590.177 L1053.49 588.557 L1052.58 586.93 L1051.68 585.298 L1050.77 583.659 L1049.87 582.014 L1048.96 580.362 L1048.06 578.705 
  L1047.15 577.04 L1046.25 575.37 L1045.34 573.693 L1044.44 572.01 L1043.53 570.32 L1042.63 568.623 L1041.72 566.92 L1040.82 565.21 L1039.91 563.494 L1039.01 561.771 
  L1038.1 560.041 L1037.2 558.304 L1036.29 556.561 L1035.39 554.811 L1034.48 553.053 L1033.58 551.289 L1032.67 549.518 L1031.76 547.74 L1030.86 545.955 L1029.95 544.162 
  L1029.05 542.363 L1028.14 540.556 L1027.24 540.556 L1026.33 540.556 L1025.43 540.556 L1024.52 540.556 L1023.62 540.556 L1022.71 540.556 L1021.81 540.556 L1020.9 540.556 
  L1020 540.556 L1019.09 540.556 L1018.19 540.556 L1017.28 540.556 L1016.38 540.556 L1015.47 540.556 L1014.57 540.556 L1013.66 540.556 L1012.76 540.556 L1011.85 540.556 
  L1010.95 540.556 L1010.04 540.556 L1009.14 540.556 L1008.23 540.556 L1007.33 540.556 L1006.42 540.556 L1005.52 540.556 L1004.61 540.556 L1003.7 540.556 L1002.8 540.556 
  L1001.89 540.556 L1000.99 540.556 L1000.08 540.556 L999.179 540.556 L998.274 540.556 L997.369 540.556 L996.464 540.556 L995.558 540.556 L994.653 540.556 L993.748 540.556 
  L992.843 540.556 L991.938 540.556 L991.033 540.556 L990.127 540.556 L989.222 540.556 L988.317 540.556 L987.412 540.556 L986.507 540.556 L985.602 540.556 L984.696 540.556 
  L983.791 540.556 L982.886 540.556 L981.981 540.556 L981.076 540.556 L980.171 540.556 L979.265 540.556 L978.36 540.556 L977.455 540.556 L976.55 540.556 L975.645 540.556 
  L974.74 540.556 L973.835 540.556 L972.929 540.556 L972.024 540.556 L971.119 540.556 L970.214 540.556 L969.309 540.556 L968.404 540.556 L967.498 540.556 L966.593 540.556 
  L965.688 540.556 L964.783 540.556 L963.878 540.556 L962.973 540.556 L962.067 540.556 L961.162 540.556 L960.257 540.556 L959.352 540.556 L958.447 540.556 L957.542 540.556 
  L956.637 540.556 L955.731 540.556 L954.826 540.556 L953.921 540.556 L953.016 540.556 L952.111 540.556 L951.206 540.556 L950.3 540.556 L949.395 540.556 L948.49 540.556 
  L947.585 540.556 L946.68 540.556 L945.775 540.556 L944.869 540.556 L943.964 540.556 L943.059 540.556 L942.154 540.556 L941.249 540.556 L940.344 540.556 L939.438 540.556 
  L938.533 540.556 L937.628 540.556 L936.723 540.556 L935.818 540.556 L934.913 540.556 L934.008 540.556 L933.102 540.556 L932.197 540.556 L931.292 540.556 L930.387 540.556 
  L929.482 540.556 L928.577 540.556 L927.671 540.556 L926.766 540.556 L925.861 540.556 L924.956 540.556 L924.051 540.556 L923.146 540.556 L922.24 540.556 L921.335 540.556 
  L920.43 540.556 L919.525 540.556 L918.62 540.556 L917.715 540.556 L916.809 540.556 L915.904 540.556 L914.999 540.556 L914.094 540.556 L913.189 540.556 L912.284 540.556 
  L911.379 540.556 L910.473 540.556 L909.568 540.556 L908.663 540.556 L907.758 540.556 L906.853 540.556 L905.948 540.556 L905.042 540.556 L904.137 540.556 L903.232 540.556 
  L902.327 540.556 L901.422 540.556 L900.517 540.556 L899.611 540.556 L898.706 540.556 L897.801 540.556 L896.896 540.556 L895.991 540.556 L895.086 540.556 L894.18 540.556 
  L893.275 540.556 L892.37 540.556 L891.465 540.556 L890.56 540.556 L889.655 540.556 L888.75 540.556 L887.844 540.556 L886.939 540.556 L886.034 540.556 L885.129 540.556 
  L884.224 540.556 L883.319 540.556 L882.413 540.556 L881.508 540.556 L880.603 540.556 L879.698 540.556 L878.793 540.556 L877.888 540.556 L876.982 540.556 L876.077 540.556 
  L875.172 540.556 L874.267 540.556 L873.362 540.556 L872.457 540.556 L871.552 540.556 L870.646 540.556 L869.741 540.556 L868.836 540.556 L867.931 540.556 L867.026 540.556 
  L866.121 540.556 L865.215 540.556 L864.31 540.556 L863.405 540.556 L862.5 540.556 L861.595 540.556 L860.69 540.556 L859.784 540.556 L858.879 540.556 L857.974 540.556 
  L857.069 540.556 L856.164 540.556 L855.259 540.556 L854.353 540.556 L853.448 540.556 L852.543 540.556 L851.638 540.556 L850.733 540.556 L849.828 540.556 L848.923 540.556 
  L848.017 540.556 L847.112 540.556 L846.207 540.556 L845.302 540.556 L844.397 540.556 L843.492 540.556 L842.586 540.556 L841.681 540.556 L840.776 540.556 L839.871 540.556 
  L838.966 540.556 L838.061 540.556 L837.155 540.556 L836.25 540.556 L835.345 540.556 L834.44 540.556 L833.535 540.556 L832.63 540.556 L831.724 540.556 L830.819 540.556 
  L829.914 540.556 L829.009 540.556 L828.104 540.556 L827.199 540.556 L826.294 540.556 L825.388 540.556 L824.483 540.556 L823.578 540.556 L822.673 540.556 L821.768 540.556 
  L820.863 540.556 L819.957 540.556 L819.052 540.556 L818.147 540.556 L817.242 540.556 L816.337 540.556 L815.432 540.556 L814.526 540.556 L813.621 540.556 L812.716 540.556 
  L811.811 540.556 L810.906 540.556 L810.001 540.556 L809.095 540.556 L808.19 540.556 L807.285 540.556 L806.38 540.556 L805.475 540.556 L804.57 540.556 L803.665 540.556 
  L802.759 540.556 L801.854 540.556 L800.949 540.556 L800.044 540.556 L799.139 540.556 L798.234 540.556 L797.328 540.556 L796.423 540.556 L795.518 540.556 L794.613 540.556 
  L793.708 540.556 L792.803 540.556 L791.897 540.556 L790.992 540.556 L790.087 540.556 L789.182 540.556 L788.277 540.556 L787.372 540.556 L786.466 540.556 L785.561 540.556 
  L784.656 540.556 L783.751 540.556 L782.846 540.556 L781.941 540.556 L781.036 540.556 L780.13 540.556 L779.225 540.556 L778.32 540.556 L777.415 540.556 L776.51 540.556 
  L775.605 540.556 L774.699 540.556 L773.794 540.556 L772.889 540.556 L771.984 540.556 L771.079 540.556 L770.174 540.556 L769.268 540.556 L768.363 540.556 L767.458 540.556 
  L766.553 540.556 L765.648 540.556 L764.743 540.556 L763.838 540.556 L762.932 540.556 L762.027 540.556 L761.122 540.556 L760.217 540.556 L759.312 540.556 L758.407 540.556 
  L757.501 540.556 L756.596 540.556 L755.691 540.556 L754.786 540.556 L753.881 540.556 L752.976 540.556 L752.07 540.556 L751.165 540.556 L750.26 540.556 L749.355 540.556 
  L748.45 540.556 L747.545 540.556 L746.639 540.556 L745.734 540.556 L744.829 540.556 L743.924 540.556 L743.019 540.556 L742.114 540.556 L741.209 540.556 L740.303 540.556 
  L739.398 540.556 L738.493 540.556 L737.588 540.556 L736.683 540.556 L735.778 540.556 L734.872 540.556 L733.967 540.556 L733.062 540.556 L732.157 540.556 L731.252 540.556 
  L730.347 540.556 L729.441 540.556 L728.536 540.556 L727.631 540.556 L726.726 540.556 L725.821 540.556 L724.916 540.556 L724.01 540.556 L723.105 540.556 L722.2 540.556 
  L721.295 540.556 L720.39 540.556 L719.485 540.556 L718.58 540.556 L717.674 540.556 L716.769 540.556 L715.864 540.556 L714.959 540.556 L714.054 540.556 L713.149 540.556 
  L712.243 540.556 L711.338 540.556 L710.433 540.556 L709.528 540.556 L708.623 540.556 L707.718 540.556 L706.812 540.556 L705.907 540.556 L705.002 540.556 L704.097 540.556 
  L703.192 540.556 L702.287 540.556 L701.381 540.556 L700.476 540.556 L699.571 540.556 L698.666 540.556 L697.761 540.556 L696.856 540.556 L695.951 540.556 L695.045 540.556 
  L694.14 540.556 L693.235 540.556 L692.33 540.556 L691.425 540.556 L690.52 540.556 L689.614 540.556 L688.709 540.556 L687.804 540.556 L686.899 540.556 L685.994 540.556 
  L685.089 540.556 L684.183 540.556 L683.278 540.556 L682.373 540.556 L681.468 540.556 L680.563 540.556 L679.658 540.556 L678.753 540.556 L677.847 540.556 L676.942 540.556 
  L676.037 540.556 L675.132 540.556 L674.227 540.556 L673.322 540.556 L672.416 540.556 L671.511 540.556 L670.606 540.556 L669.701 540.556 L668.796 540.556 L667.891 540.556 
  L666.985 540.556 L666.08 540.556 L665.175 540.556 L664.27 540.556 L663.365 540.556 L662.46 540.556 L661.554 540.556 L660.649 540.556 L659.744 540.556 L658.839 540.556 
  L657.934 540.556 L657.029 540.556 L656.124 540.556 L655.218 540.556 L654.313 540.556 L653.408 540.556 L652.503 540.556 L651.598 540.556 L650.693 540.556 L649.787 540.556 
  L648.882 540.556 L647.977 540.556 L647.072 540.556 L646.167 540.556 L645.262 540.556 L644.356 540.556 L643.451 540.556 L642.546 540.556 L641.641 540.556 L640.736 540.556 
  L639.831 540.556 L638.925 540.556 L638.02 540.556 L637.115 540.556 L636.21 540.556 L635.305 540.556 L634.4 540.556 L633.495 540.556 L632.589 540.556 L631.684 540.556 
  L630.779 540.556 L629.874 540.556 L628.969 540.556 L628.064 540.556 L627.158 540.556 L626.253 540.556 L625.348 540.556 L624.443 540.556 L623.538 540.556 L622.633 540.556 
  L621.727 540.556 L620.822 540.556 L619.917 540.556 L619.012 540.556 L618.107 540.556 L617.202 540.556 L616.296 540.556 L615.391 540.556 L614.486 540.556 L613.581 540.556 
  L612.676 540.556 L611.771 540.556 L610.866 540.556 L609.96 540.556 L609.055 540.556 L608.15 540.556 L607.245 540.556 L606.34 540.556 L605.435 540.556 L604.529 540.556 
  L603.624 540.556 L602.719 540.556 L601.814 540.556 L600.909 540.556 L600.004 540.556 L599.098 540.556 L598.193 540.556 L597.288 540.556 L596.383 540.556 L595.478 540.556 
  L594.573 540.556 L593.668 540.556 L592.762 540.556 L591.857 540.556 L590.952 540.556 L590.047 540.556 L589.142 540.556 L588.237 540.556 L587.331 540.556 L586.426 540.556 
  L585.521 540.556 L584.616 540.556 L583.711 540.556 L582.806 540.556 L581.9 540.556 L580.995 540.556 L580.09 540.556 L579.185 540.556 L578.28 540.556 L577.375 540.556 
  L576.469 540.556 L575.564 540.556  Z
  " fill="#009af9" fill-rule="evenodd" fill-opacity="0.3"/>
<polyline clip-path="url(#clip302)" style="stroke:#009af9; stroke-linecap:butt; stroke-linejoin:round; stroke-width:4; stroke-opacity:1; fill:none" points="
  575.564,540.556 576.469,541.461 577.375,542.366 578.28,543.272 579.185,544.177 580.09,545.082 580.995,545.987 581.9,546.892 582.806,547.797 583.711,548.703 
  584.616,549.608 585.521,550.513 586.426,551.418 587.331,552.323 588.237,553.228 589.142,554.133 590.047,555.039 590.952,555.944 591.857,556.849 592.762,557.754 
  593.668,558.659 594.573,559.564 595.478,560.47 596.383,561.375 597.288,562.28 598.193,563.185 599.098,564.09 600.004,564.995 600.909,565.901 601.814,566.806 
  602.719,567.711 603.624,568.616 604.529,569.521 605.435,570.426 606.34,571.332 607.245,572.237 608.15,573.142 609.055,574.047 609.96,574.952 610.866,575.857 
  611.771,576.762 612.676,577.668 613.581,578.573 614.486,579.478 615.391,580.383 616.296,581.288 617.202,582.193 618.107,583.099 619.012,584.004 619.917,584.909 
  620.822,585.814 621.727,586.719 622.633,587.624 623.538,588.53 624.443,589.435 625.348,590.34 626.253,591.245 627.158,592.15 628.064,593.055 628.969,593.96 
  629.874,594.866 630.779,595.771 631.684,596.676 632.589,597.581 633.495,598.486 634.4,599.391 635.305,600.297 636.21,601.202 637.115,602.107 638.02,603.012 
  638.925,603.917 639.831,604.822 640.736,605.728 641.641,606.633 642.546,607.538 643.451,608.443 644.356,609.348 645.262,610.253 646.167,611.159 647.072,612.064 
  647.977,612.969 648.882,613.874 649.787,614.779 650.693,615.684 651.598,616.589 652.503,617.495 653.408,618.4 654.313,619.305 655.218,620.21 656.124,621.115 
  657.029,622.02 657.934,622.926 658.839,623.831 659.744,624.736 660.649,625.641 661.554,626.546 662.46,627.451 663.365,628.357 664.27,629.262 665.175,630.167 
  666.08,631.072 666.985,631.977 667.891,632.882 668.796,633.788 669.701,634.693 670.606,635.598 671.511,636.503 672.416,637.408 673.322,638.313 674.227,639.218 
  675.132,640.124 676.037,641.029 676.942,641.934 677.847,642.839 678.753,643.744 679.658,644.649 680.563,645.555 681.468,646.46 682.373,647.365 683.278,648.27 
  684.183,649.175 685.089,650.08 685.994,650.986 686.899,651.891 687.804,652.796 688.709,653.701 689.614,654.606 690.52,655.511 691.425,656.417 692.33,657.322 
  693.235,658.227 694.14,659.132 695.045,660.037 695.951,660.942 696.856,661.847 697.761,662.753 698.666,663.658 699.571,664.563 700.476,665.468 701.381,666.373 
  702.287,667.278 703.192,668.184 704.097,669.089 705.002,669.994 705.907,670.899 706.812,671.804 707.718,672.709 708.623,673.615 709.528,674.52 710.433,675.425 
  711.338,676.33 712.243,677.235 713.149,678.14 714.054,679.046 714.959,679.951 715.864,680.856 716.769,681.761 717.674,682.666 718.58,683.571 719.485,684.476 
  720.39,685.382 721.295,686.287 722.2,687.192 723.105,688.097 724.01,689.002 724.916,689.907 725.821,690.813 726.726,691.718 727.631,692.623 728.536,693.528 
  729.441,694.433 730.347,695.338 731.252,696.244 732.157,697.149 733.062,698.054 733.967,698.959 734.872,699.864 735.778,700.769 736.683,701.674 737.588,702.58 
  738.493,703.485 739.398,704.39 740.303,705.295 741.209,706.2 742.114,707.105 743.019,708.011 743.924,708.916 744.829,709.821 745.734,710.726 746.639,711.631 
  747.545,712.536 748.45,713.442 749.355,714.347 750.26,715.252 751.165,716.157 752.07,717.062 752.976,717.967 753.881,718.873 754.786,719.778 755.691,720.683 
  756.596,721.588 757.501,722.493 758.407,723.398 759.312,724.303 760.217,725.209 761.122,726.114 762.027,727.019 762.932,727.924 763.838,728.829 764.743,729.734 
  765.648,730.64 766.553,731.545 767.458,732.45 768.363,733.355 769.268,734.26 770.174,735.165 771.079,736.071 771.984,736.976 772.889,737.881 773.794,738.786 
  774.699,739.691 775.605,740.596 776.51,741.502 777.415,742.407 778.32,743.312 779.225,744.217 780.13,745.122 781.036,746.027 781.941,746.932 782.846,747.838 
  783.751,748.743 784.656,749.648 785.561,750.553 786.466,751.458 787.372,752.363 788.277,753.269 789.182,754.174 790.087,755.079 790.992,755.984 791.897,756.889 
  792.803,757.794 793.708,758.7 794.613,759.605 795.518,760.51 796.423,761.415 797.328,762.32 798.234,763.225 799.139,764.131 800.044,765.036 800.949,765.941 
  801.854,766.846 802.759,767.751 803.665,768.656 804.57,769.561 805.475,770.467 806.38,771.372 807.285,772.277 808.19,773.182 809.095,774.087 810.001,774.992 
  810.906,775.898 811.811,776.803 812.716,777.708 813.621,778.613 814.526,779.518 815.432,780.423 816.337,781.329 817.242,782.234 818.147,783.139 819.052,784.044 
  819.957,784.949 820.863,785.854 821.768,786.759 822.673,787.665 823.578,788.57 824.483,789.475 825.388,790.38 826.294,791.285 827.199,792.19 828.104,793.096 
  829.009,794.001 829.914,794.906 830.819,795.811 831.724,796.716 832.63,797.621 833.535,798.527 834.44,799.432 835.345,800.337 836.25,801.242 837.155,802.147 
  838.061,803.052 838.966,803.958 839.871,804.863 840.776,805.768 841.681,806.673 842.586,807.578 843.492,808.483 844.397,809.388 845.302,810.294 846.207,811.199 
  847.112,812.104 848.017,813.009 848.923,813.914 849.828,814.819 850.733,815.725 851.638,816.63 852.543,817.535 853.448,818.44 854.353,819.345 855.259,820.25 
  856.164,821.156 857.069,822.061 857.974,822.966 858.879,823.871 859.784,824.776 860.69,825.681 861.595,826.587 862.5,827.492 863.405,828.397 864.31,829.302 
  865.215,830.207 866.121,831.112 867.026,832.017 867.931,832.923 868.836,833.828 869.741,834.733 870.646,835.638 871.552,836.543 872.457,837.448 873.362,838.354 
  874.267,839.259 875.172,840.164 876.077,841.069 876.982,841.974 877.888,842.879 878.793,843.785 879.698,844.69 880.603,845.595 881.508,846.5 882.413,847.405 
  883.319,848.31 884.224,849.216 885.129,850.121 886.034,851.026 886.939,851.931 887.844,852.836 888.75,853.741 889.655,854.646 890.56,855.552 891.465,856.457 
  892.37,857.362 893.275,858.267 894.18,859.172 895.086,860.077 895.991,860.983 896.896,861.888 897.801,862.793 898.706,863.698 899.611,864.603 900.517,865.508 
  901.422,866.414 902.327,867.319 903.232,868.224 904.137,869.129 905.042,870.034 905.948,870.939 906.853,871.844 907.758,872.75 908.663,873.655 909.568,874.56 
  910.473,875.465 911.379,876.37 912.284,877.275 913.189,878.181 914.094,879.086 914.999,879.991 915.904,880.896 916.809,881.801 917.715,882.706 918.62,883.612 
  919.525,884.517 920.43,885.422 921.335,886.327 922.24,887.232 923.146,888.137 924.051,889.043 924.956,889.948 925.861,890.853 926.766,891.758 927.671,892.663 
  928.577,893.568 929.482,894.473 930.387,895.379 931.292,896.284 932.197,897.189 933.102,898.094 934.008,898.999 934.913,899.904 935.818,900.81 936.723,901.715 
  937.628,902.62 938.533,903.525 939.438,904.43 940.344,905.335 941.249,906.241 942.154,907.146 943.059,908.051 943.964,908.956 944.869,909.861 945.775,910.766 
  946.68,911.672 947.585,912.577 948.49,913.482 949.395,914.387 950.3,915.292 951.206,916.197 952.111,917.102 953.016,918.008 953.921,918.913 954.826,919.818 
  955.731,920.723 956.637,921.628 957.542,922.533 958.447,923.439 959.352,924.344 960.257,925.249 961.162,926.154 962.067,927.059 962.973,927.964 963.878,928.87 
  964.783,929.775 965.688,930.68 966.593,931.585 967.498,932.49 968.404,933.395 969.309,934.301 970.214,935.206 971.119,936.111 972.024,937.016 972.929,937.921 
  973.835,938.826 974.74,939.731 975.645,940.637 976.55,941.542 977.455,942.447 978.36,943.352 979.265,944.257 980.171,945.162 981.076,946.068 981.981,946.973 
  982.886,947.878 983.791,948.783 984.696,949.688 985.602,950.593 986.507,951.499 987.412,952.404 988.317,953.309 989.222,954.214 990.127,955.119 991.033,956.024 
  991.938,956.93 992.843,957.835 993.748,958.74 994.653,959.645 995.558,960.55 996.464,961.455 997.369,962.36 998.274,963.266 999.179,964.171 1000.08,965.076 
  1000.99,965.981 1001.89,966.886 1002.8,967.791 1003.7,968.697 1004.61,969.602 1005.52,970.507 1006.42,971.412 1007.33,972.317 1008.23,973.222 1009.14,974.128 
  1010.04,975.033 1010.95,975.938 1011.85,976.843 1012.76,977.748 1013.66,978.653 1014.57,979.558 1015.47,980.464 1016.38,981.369 1017.28,982.274 1018.19,983.179 
  1019.09,984.084 1020,984.989 1020.9,985.895 1021.81,986.8 1022.71,987.705 1023.62,988.61 1024.52,989.515 1025.43,990.42 1026.33,991.326 1027.24,992.231 
  1028.14,993.136 1029.05,994.041 1029.95,994.946 1030.86,995.851 1031.76,996.757 1032.67,997.662 1033.58,998.567 1034.48,999.472 1035.39,1000.38 1036.29,1001.28 
  1037.2,1002.19 1038.1,1003.09 1039.01,1004 1039.91,1004.9 1040.82,1005.81 1041.72,1006.71 1042.63,1007.62 1043.53,1008.52 1044.44,1009.43 1045.34,1010.33 
  1046.25,1011.24 1047.15,1012.14 1048.06,1013.05 1048.96,1013.95 1049.87,1014.86 1050.77,1015.76 1051.68,1016.67 1052.58,1017.58 1053.49,1018.48 1054.39,1019.39 
  1055.3,1020.29 1056.2,1021.2 1057.11,1022.1 1058.01,1023.01 1058.92,1023.91 1059.82,1024.82 1060.73,1025.72 1061.64,1026.63 1062.54,1027.53 1063.45,1028.44 
  1064.35,1029.34 1065.26,1030.25 1066.16,1031.15 1067.07,1032.06 1067.97,1032.96 1068.88,1033.87 1069.78,1034.77 1070.69,1035.68 1071.59,1036.58 1072.5,1037.49 
  1073.4,1038.39 1074.31,1039.3 1075.21,1040.2 1076.12,1041.11 1077.02,1042.01 1077.93,1042.92 1078.83,1043.82 1079.74,1044.73 1080.64,1045.64 1081.55,1046.54 
  1082.45,1047.45 1083.36,1048.35 1084.26,1049.26 1085.17,1050.16 1086.07,1051.07 1086.98,1051.97 1087.88,1052.88 1088.79,1053.78 1089.69,1054.69 1090.6,1055.59 
  1091.51,1056.5 1092.41,1057.4 1093.32,1058.31 1094.22,1059.21 1095.13,1060.12 1096.03,1061.02 1096.94,1061.93 1097.84,1062.83 1098.75,1063.74 1099.65,1064.64 
  1100.56,1065.55 1101.46,1066.45 1102.37,1067.36 1103.27,1068.26 1104.18,1069.17 1105.08,1070.07 1105.99,1070.98 1106.89,1071.88 1107.8,1072.79 1108.7,1073.7 
  1109.61,1074.6 1110.51,1075.51 1111.42,1076.41 1112.32,1077.32 1113.23,1078.22 1114.13,1079.13 1115.04,1080.03 1115.94,1080.94 1116.85,1081.84 1117.75,1082.75 
  1118.66,1083.65 1119.57,1084.56 1120.47,1085.46 1121.38,1086.37 1122.28,1087.27 1123.19,1088.18 1124.09,1089.08 1125,1089.99 1125.9,1090.89 1126.81,1091.8 
  1127.71,1092.7 1128.62,1093.61 1129.52,1094.51 1130.43,1095.42 1131.33,1096.32 1132.24,1097.23 1133.14,1098.13 1134.05,1099.04 1134.95,1099.94 1135.86,1100.85 
  1136.76,1101.76 1137.67,1102.66 1138.57,1103.57 1139.48,1104.47 1140.38,1105.38 1141.29,1106.28 1142.19,1107.19 1143.1,1108.09 1144,1109 1144.91,1109.9 
  1145.81,1110.81 1146.72,1111.71 1147.63,1112.62 1148.53,1113.52 1149.44,1114.43 1150.34,1115.33 1151.25,1116.24 1152.15,1117.14 1153.06,1118.05 1153.96,1118.95 
  1154.87,1119.86 1155.77,1120.76 1156.68,1121.67 1157.58,1122.57 1158.49,1123.48 1159.39,1124.38 1160.3,1125.29 1161.2,1126.19 1162.11,1127.1 1163.01,1128 
  1163.92,1128.91 1164.82,1129.81 1165.73,1130.72 1166.63,1131.63 1167.54,1132.53 1168.44,1133.44 1169.35,1134.34 1170.25,1135.25 1171.16,1136.15 1172.06,1137.06 
  1172.97,1137.96 1173.87,1138.87 1174.78,1139.77 1175.69,1140.68 1176.59,1141.58 1177.5,1142.49 1178.4,1143.39 1179.31,1144.3 1180.21,1145.2 1181.12,1146.11 
  1182.02,1147.01 1182.93,1147.92 1183.83,1148.82 1184.74,1149.73 1185.64,1150.63 1186.55,1151.54 1187.45,1152.44 1188.36,1153.35 1189.26,1154.25 1190.17,1155.16 
  1191.07,1156.06 1191.98,1156.97 1192.88,1157.87 1193.79,1158.78 1194.69,1159.69 1195.6,1160.59 1196.5,1161.5 1197.41,1162.4 1198.31,1163.31 1199.22,1164.21 
  1200.12,1165.12 1201.03,1166.02 1201.93,1166.93 1202.84,1167.83 1203.75,1168.74 1204.65,1169.64 1205.56,1170.55 1206.46,1171.45 1207.37,1172.36 1208.27,1173.26 
  1209.18,1174.17 1210.08,1175.07 1210.99,1175.98 1211.89,1176.88 1212.8,1177.79 1213.7,1178.69 1214.61,1179.6 1215.51,1180.5 1216.42,1181.41 1217.32,1182.31 
  1218.23,1183.22 1219.13,1184.12 1220.04,1185.03 1220.94,1185.93 1221.85,1186.84 1222.75,1187.75 1223.66,1188.65 1224.56,1189.56 1225.47,1190.46 1226.37,1191.37 
  1227.28,1192.27 1228.18,1193.18 1229.09,1194.08 1229.99,1194.99 1230.9,1195.89 1231.81,1196.8 1232.71,1197.7 1233.62,1198.61 1234.52,1199.51 1235.43,1200.42 
  1236.33,1201.32 1237.24,1202.23 1238.14,1203.13 1239.05,1204.04 1239.95,1204.94 1240.86,1205.85 1241.76,1206.75 1242.67,1207.66 1243.57,1208.56 1244.48,1209.47 
  1245.38,1210.37 1246.29,1211.28 1247.19,1212.18 1248.1,1213.09 1249,1213.99 1249.91,1214.9 1250.81,1215.81 1251.72,1216.71 1252.62,1217.62 1253.53,1218.52 
  1254.43,1219.43 1255.34,1220.33 1256.24,1221.24 1257.15,1222.14 1258.05,1223.05 1258.96,1223.95 1259.86,1224.86 1260.77,1225.76 1261.68,1226.67 1262.58,1227.57 
  1263.49,1228.48 1264.39,1229.38 1265.3,1230.29 1266.2,1231.19 1267.11,1232.1 1268.01,1233 1268.92,1233.91 1269.82,1234.81 1270.73,1235.72 1271.63,1236.62 
  1272.54,1237.53 1273.44,1238.43 1274.35,1239.34 1275.25,1240.24 1276.16,1241.15 1277.06,1242.05 1277.97,1242.96 1278.87,1243.87 1279.78,1244.77 1280.68,1245.68 
  1281.59,1246.58 1282.49,1247.49 1283.4,1248.39 1284.3,1249.3 1285.21,1250.2 1286.11,1251.11 1287.02,1252.01 1287.92,1252.92 1288.83,1253.82 1289.74,1254.73 
  1290.64,1255.63 1291.55,1256.54 1292.45,1257.44 1293.36,1258.35 1294.26,1259.25 1295.17,1260.16 1296.07,1261.06 1296.98,1261.97 1297.88,1262.87 1298.79,1263.78 
  1299.69,1264.68 1300.6,1265.59 1301.5,1266.49 1302.41,1267.4 1303.31,1268.3 1304.22,1269.21 1305.12,1270.11 1306.03,1271.02 1306.93,1271.93 1307.84,1272.83 
  1308.74,1273.74 1309.65,1274.64 1310.55,1275.55 1311.46,1276.45 1312.36,1277.36 1313.27,1278.26 1314.17,1279.17 1315.08,1280.07 1315.98,1280.98 1316.89,1281.88 
  1317.8,1282.79 1318.7,1283.69 1319.61,1284.6 1320.51,1285.5 1321.42,1286.41 1322.32,1287.31 1323.23,1288.22 1324.13,1289.12 1325.04,1290.03 1325.94,1290.93 
  1326.85,1291.84 1327.75,1292.74 1328.66,1293.65 1329.56,1294.55 1330.47,1295.46 1331.37,1296.36 1332.28,1297.27 1333.18,1298.17 1334.09,1299.08 1334.99,1299.98 
  1335.9,1300.89 1336.8,1301.8 1337.71,1302.7 1338.61,1303.61 1339.52,1304.51 1340.42,1305.42 1341.33,1306.32 1342.23,1307.23 1343.14,1308.13 1344.04,1309.04 
  1344.95,1309.94 1345.86,1310.85 1346.76,1311.75 1347.67,1312.66 1348.57,1313.56 1349.48,1314.47 1350.38,1315.37 1351.29,1316.28 1352.19,1317.18 1353.1,1318.09 
  1354,1318.99 1354.91,1319.9 1355.81,1320.8 1356.72,1321.71 1357.62,1322.61 1358.53,1323.52 1359.43,1324.42 1360.34,1325.33 1361.24,1326.23 1362.15,1327.14 
  1363.05,1328.04 1363.96,1328.95 1364.86,1329.86 1365.77,1330.76 1366.67,1331.67 1367.58,1332.57 1368.48,1333.48 1369.39,1334.38 1370.29,1335.29 1371.2,1336.19 
  1372.1,1337.1 1373.01,1338 1373.92,1338.91 1374.82,1339.81 1375.73,1340.72 1376.63,1341.62 1377.54,1342.53 1378.44,1343.43 1379.35,1344.34 1380.25,1345.24 
  1381.16,1346.15 1382.06,1347.05 1382.97,1347.96 1383.87,1348.86 1384.78,1349.77 1385.68,1350.67 1386.59,1351.58 1387.49,1352.48 1388.4,1353.39 1389.3,1354.29 
  1390.21,1355.2 1391.11,1356.1 1392.02,1357.01 1392.92,1357.92 1393.83,1358.82 1394.73,1359.73 1395.64,1360.63 1396.54,1361.54 1397.45,1362.44 1398.35,1363.35 
  1399.26,1364.25 1400.16,1365.16 1401.07,1366.06 1401.98,1366.97 1402.88,1367.87 1403.79,1368.78 1404.69,1369.68 1405.6,1370.59 1406.5,1371.49 1407.41,1372.4 
  1408.31,1373.3 1409.22,1374.21 1410.12,1375.11 1411.03,1376.02 1411.93,1376.92 1412.84,1377.83 1413.74,1378.73 1414.65,1379.64 1415.55,1380.54 1416.46,1381.45 
  1417.36,1382.35 1418.27,1383.26 1419.17,1384.16 1420.08,1385.07 1420.98,1385.98 1421.89,1386.88 1422.79,1387.79 1423.7,1388.69 1424.6,1389.6 1425.51,1390.5 
  1426.41,1391.41 1427.32,1392.31 1428.22,1393.22 1429.13,1394.12 1430.03,1395.03 1430.94,1395.93 1431.85,1396.84 1432.75,1397.74 1433.66,1398.65 1434.56,1399.55 
  1435.47,1400.46 1436.37,1401.36 1437.28,1402.27 1438.18,1403.17 1439.09,1404.08 1439.99,1404.98 1440.9,1405.89 1441.8,1406.79 1442.71,1407.7 1443.61,1408.6 
  1444.52,1409.51 1445.42,1410.41 1446.33,1411.32 1447.23,1412.22 1448.14,1413.13 1449.04,1414.04 1449.95,1414.94 1450.85,1415.85 1451.76,1416.75 1452.66,1417.66 
  1453.57,1418.56 1454.47,1419.47 1455.38,1420.37 1456.28,1421.28 1457.19,1422.18 1458.09,1423.09 1459,1423.99 1459.91,1424.9 1460.81,1425.8 1461.72,1426.71 
  1462.62,1427.61 1463.53,1428.52 1464.43,1429.42 1465.34,1430.33 1466.24,1431.23 1467.15,1432.14 1468.05,1433.04 1468.96,1433.95 1469.86,1434.85 1470.77,1435.76 
  1471.67,1436.66 1472.58,1437.57 1473.48,1438.47 1474.39,1439.38 1475.29,1440.28 1476.2,1441.19 1477.1,1442.1 1478.01,1443 1478.91,1443.91 1479.82,1444.81 
  1480.72,1445.72 
  "/>
<path clip-path="url(#clip300)" d="
M1391.9 355.775 L1900.81 355.775 L1900.81 95.2176 L1391.9 95.2176  Z
  " fill="#ffffff" fill-rule="evenodd" fill-opacity="1"/>
<polyline clip-path="url(#clip300)" style="stroke:#000000; stroke-linecap:butt; stroke-linejoin:round; stroke-width:4; stroke-opacity:1; fill:none" points="
  1391.9,355.775 1900.81,355.775 1900.81,95.2176 1391.9,95.2176 1391.9,355.775 
  "/>
<polyline clip-path="url(#clip300)" style="stroke:#009af9; stroke-linecap:butt; stroke-linejoin:round; stroke-width:4; stroke-opacity:1; fill:none" points="
  1416.31,182.07 1562.75,182.07 
  "/>
<path clip-path="url(#clip300)" d="M1609.29 180.565 Q1609.29 180.893 1609.08 181.666 L1604.49 199.982 Q1603.48 204.058 1600.2 206.915 Q1596.95 209.773 1593.25 209.773 Q1591.02 209.773 1589.59 208.578 Q1588.17 207.407 1588.17 205.603 Q1588.17 204.011 1589.01 203.238 Q1589.85 202.488 1590.86 202.488 Q1591.19 202.488 1591.54 202.582 Q1591.89 202.676 1592.26 203.074 Q1592.64 203.472 1592.64 204.151 Q1592.64 205.252 1591.68 206.119 Q1591.21 206.517 1590.77 206.611 Q1590.34 206.704 1589.62 206.704 Q1589.9 207.36 1590.41 207.805 Q1590.93 208.25 1591.52 208.414 Q1592.1 208.601 1592.48 208.648 Q1592.87 208.719 1593.25 208.719 Q1596.25 208.719 1598.54 205.697 Q1599.22 204.784 1599.71 203.87 Q1600.23 202.98 1600.6 201.879 Q1600.98 200.802 1601.14 200.216 Q1601.33 199.631 1601.66 198.296 Q1599.48 200.474 1596.81 200.474 Q1595.68 200.474 1594.68 200.169 Q1593.69 199.865 1592.83 199.233 Q1591.96 198.577 1591.44 197.429 Q1590.95 196.281 1590.95 194.759 Q1590.95 193.143 1591.59 190.941 Q1592.22 188.739 1593.74 184.687 Q1594.56 182.415 1594.56 181.314 Q1594.56 180.776 1594.44 180.448 Q1594.33 180.096 1594.09 179.979 Q1593.86 179.839 1593.72 179.815 Q1593.6 179.792 1593.37 179.792 Q1591.98 179.792 1590.7 181.197 Q1589.41 182.603 1588.52 185.741 Q1588.33 186.327 1588.21 186.467 Q1588.1 186.608 1587.74 186.608 Q1587.16 186.584 1587.16 186.116 Q1587.16 185.929 1587.37 185.202 Q1587.58 184.453 1588.07 183.352 Q1588.59 182.228 1589.29 181.221 Q1589.99 180.19 1591.09 179.464 Q1592.22 178.738 1593.51 178.738 Q1595.26 178.738 1596.34 179.886 Q1597.44 181.01 1597.44 182.673 Q1597.44 183.352 1597.25 183.961 Q1597.09 184.547 1596.48 186.116 Q1594.02 192.44 1594.02 195.532 Q1594.02 196.281 1594.14 196.914 Q1594.28 197.523 1594.58 198.132 Q1594.89 198.717 1595.5 199.069 Q1596.13 199.396 1597 199.396 Q1598.1 199.396 1599.13 198.881 Q1600.18 198.342 1600.84 197.616 Q1601.52 196.89 1601.91 196.281 Q1602.34 195.649 1602.43 195.321 L1604.58 186.701 L1605.55 182.86 Q1605.99 180.776 1606.2 180.26 Q1606.48 179.768 1606.97 179.511 Q1607.47 179.253 1607.89 179.253 Q1608.47 179.253 1608.87 179.604 Q1609.29 179.956 1609.29 180.565 Z" fill="#000000" fill-rule="evenodd" fill-opacity="1" /><path clip-path="url(#clip300)" d="M1623.73 192.651 Q1623.77 192.065 1624.69 192.065 L1654.08 192.065 Q1655.46 192.065 1655.49 192.604 Q1655.49 193.19 1654.18 193.166 L1625.01 193.166 Q1623.73 193.19 1623.73 192.651 M1623.73 183.282 Q1623.73 182.696 1624.73 182.72 L1654.03 182.72 Q1655.46 182.72 1655.49 183.282 Q1655.49 183.821 1654.27 183.821 L1624.69 183.821 Q1623.73 183.821 1623.73 183.282 Z" fill="#000000" fill-rule="evenodd" fill-opacity="1" /><path clip-path="url(#clip300)" d="M1718.95 187.264 Q1719.23 187.545 1719.23 187.943 Q1719.23 188.341 1718.95 188.622 Q1718.67 188.903 1718.27 188.903 L1688.24 188.903 Q1687.84 188.903 1687.56 188.622 Q1687.28 188.341 1687.28 187.943 Q1687.28 187.545 1687.56 187.264 Q1687.84 186.983 1688.24 186.983 L1718.27 186.983 Q1718.67 186.983 1718.95 187.264 Z" fill="#000000" fill-rule="evenodd" fill-opacity="1" /><path clip-path="url(#clip300)" d="M1761.43 181.9 Q1761.43 183.212 1760.61 183.961 Q1759.79 184.687 1758.85 184.687 Q1757.96 184.687 1757.49 184.172 Q1757.02 183.657 1757.02 183.001 Q1757.02 182.111 1757.68 181.338 Q1758.33 180.565 1759.32 180.401 Q1758.36 179.792 1756.93 179.792 Q1755.99 179.792 1755.17 180.284 Q1754.38 180.776 1753.88 181.408 Q1753.41 182.04 1752.99 182.954 Q1752.59 183.844 1752.43 184.383 Q1752.29 184.898 1752.17 185.46 L1750.53 192.018 Q1749.74 195.134 1749.74 196.234 Q1749.74 197.593 1750.39 198.506 Q1751.05 199.396 1752.36 199.396 Q1752.88 199.396 1753.46 199.256 Q1754.05 199.092 1754.8 198.67 Q1755.57 198.225 1756.25 197.57 Q1756.95 196.89 1757.63 195.743 Q1758.31 194.595 1758.76 193.119 Q1758.9 192.604 1759.36 192.604 Q1759.95 192.604 1759.95 193.072 Q1759.95 193.471 1759.62 194.314 Q1759.32 195.134 1758.64 196.211 Q1757.98 197.265 1757.12 198.225 Q1756.25 199.162 1754.96 199.818 Q1753.67 200.474 1752.27 200.474 Q1750.25 200.474 1748.92 199.396 Q1747.58 198.319 1747.09 196.82 Q1746.97 197.031 1746.81 197.312 Q1746.65 197.593 1746.15 198.225 Q1745.69 198.834 1745.15 199.303 Q1744.61 199.748 1743.76 200.099 Q1742.94 200.474 1742.05 200.474 Q1740.93 200.474 1739.92 200.146 Q1738.94 199.818 1738.24 199.069 Q1737.53 198.319 1737.53 197.288 Q1737.53 196.141 1738.31 195.344 Q1739.1 194.525 1740.18 194.525 Q1740.86 194.525 1741.4 194.923 Q1741.96 195.321 1741.96 196.188 Q1741.96 197.148 1741.31 197.874 Q1740.65 198.6 1739.71 198.787 Q1740.67 199.396 1742.1 199.396 Q1743.65 199.396 1744.87 198.038 Q1746.08 196.679 1746.67 194.407 Q1748.12 188.95 1748.68 186.514 Q1749.25 184.055 1749.25 183.001 Q1749.25 182.017 1748.99 181.338 Q1748.73 180.659 1748.29 180.354 Q1747.86 180.026 1747.47 179.909 Q1747.09 179.792 1746.67 179.792 Q1745.97 179.792 1745.17 180.073 Q1744.4 180.354 1743.46 181.01 Q1742.55 181.642 1741.68 182.954 Q1740.81 184.266 1740.23 186.069 Q1740.11 186.608 1739.6 186.608 Q1739.03 186.584 1739.03 186.116 Q1739.03 185.718 1739.34 184.898 Q1739.67 184.055 1740.32 183.001 Q1741 181.947 1741.87 181.01 Q1742.76 180.05 1744.05 179.394 Q1745.36 178.738 1746.76 178.738 Q1747.4 178.738 1748 178.878 Q1748.64 178.996 1749.39 179.347 Q1750.16 179.698 1750.84 180.471 Q1751.52 181.244 1751.94 182.368 Q1752.22 181.83 1752.59 181.314 Q1752.99 180.799 1753.6 180.167 Q1754.23 179.511 1755.1 179.136 Q1755.99 178.738 1756.97 178.738 Q1757.94 178.738 1758.87 178.996 Q1759.81 179.23 1760.61 180.003 Q1761.43 180.752 1761.43 181.9 Z" fill="#000000" fill-rule="evenodd" fill-opacity="1" /><path clip-path="url(#clip300)" d="M1779.1 188.528 Q1778 188.528 1778 187.943 Q1778 187.357 1779.15 187.357 Q1779.29 187.357 1779.52 187.381 Q1779.78 187.404 1779.83 187.404 L1793.34 187.404 L1793.34 173.843 Q1793.34 173.796 1793.32 173.585 Q1793.29 173.351 1793.29 173.21 Q1793.29 172.062 1793.86 172.062 Q1794.44 172.062 1794.44 173.21 L1794.44 187.404 L1807.98 187.404 Q1808.03 187.404 1808.26 187.381 Q1808.49 187.357 1808.63 187.357 Q1809.74 187.357 1809.74 187.943 Q1809.76 188.528 1808.59 188.528 Q1808.45 188.528 1808.24 188.505 Q1808.03 188.482 1807.98 188.482 L1794.44 188.482 L1794.44 202.722 Q1794.44 203.823 1793.86 203.823 Q1793.29 203.823 1793.29 202.676 Q1793.29 202.535 1793.32 202.301 Q1793.34 202.09 1793.34 202.043 L1793.34 188.482 L1779.83 188.482 Q1779.78 188.482 1779.5 188.505 Q1779.24 188.528 1779.1 188.528 Z" fill="#000000" fill-rule="evenodd" fill-opacity="1" /><path clip-path="url(#clip300)" d="M1828.25 172.554 L1828.25 171.055 Q1834.01 171.055 1836.99 167.987 Q1837.81 167.987 1837.95 168.174 Q1838.09 168.362 1838.09 169.228 L1838.09 196.141 Q1838.09 197.57 1838.79 198.015 Q1839.49 198.46 1842.56 198.46 L1844.08 198.46 L1844.08 199.935 Q1842.4 199.795 1836.31 199.795 Q1830.22 199.795 1828.55 199.935 L1828.55 198.46 L1830.08 198.46 Q1833.1 198.46 1833.82 198.038 Q1834.55 197.593 1834.55 196.141 L1834.55 171.29 Q1832.04 172.554 1828.25 172.554 Z" fill="#000000" fill-rule="evenodd" fill-opacity="1" /><polyline clip-path="url(#clip300)" style="stroke:#e26f46; stroke-linecap:butt; stroke-linejoin:round; stroke-width:4; stroke-opacity:1; fill:none" points="
  1416.31,268.923 1562.75,268.923 
  "/>
<path clip-path="url(#clip300)" d="M1609.29 268.081 Q1609.29 268.409 1609.08 269.182 L1604.49 287.499 Q1603.48 291.574 1600.2 294.432 Q1596.95 297.289 1593.25 297.289 Q1591.02 297.289 1589.59 296.095 Q1588.17 294.924 1588.17 293.12 Q1588.17 291.527 1589.01 290.754 Q1589.85 290.005 1590.86 290.005 Q1591.19 290.005 1591.54 290.098 Q1591.89 290.192 1592.26 290.59 Q1592.64 290.989 1592.64 291.668 Q1592.64 292.769 1591.68 293.635 Q1591.21 294.033 1590.77 294.127 Q1590.34 294.221 1589.62 294.221 Q1589.9 294.877 1590.41 295.322 Q1590.93 295.767 1591.52 295.931 Q1592.1 296.118 1592.48 296.165 Q1592.87 296.235 1593.25 296.235 Q1596.25 296.235 1598.54 293.214 Q1599.22 292.3 1599.71 291.387 Q1600.23 290.497 1600.6 289.396 Q1600.98 288.318 1601.14 287.733 Q1601.33 287.147 1601.66 285.812 Q1599.48 287.99 1596.81 287.99 Q1595.68 287.99 1594.68 287.686 Q1593.69 287.381 1592.83 286.749 Q1591.96 286.093 1591.44 284.946 Q1590.95 283.798 1590.95 282.275 Q1590.95 280.659 1591.59 278.458 Q1592.22 276.256 1593.74 272.204 Q1594.56 269.932 1594.56 268.831 Q1594.56 268.292 1594.44 267.964 Q1594.33 267.613 1594.09 267.496 Q1593.86 267.355 1593.72 267.332 Q1593.6 267.308 1593.37 267.308 Q1591.98 267.308 1590.7 268.714 Q1589.41 270.119 1588.52 273.258 Q1588.33 273.843 1588.21 273.984 Q1588.1 274.124 1587.74 274.124 Q1587.16 274.101 1587.16 273.632 Q1587.16 273.445 1587.37 272.719 Q1587.58 271.97 1588.07 270.869 Q1588.59 269.744 1589.29 268.737 Q1589.99 267.707 1591.09 266.981 Q1592.22 266.254 1593.51 266.254 Q1595.26 266.254 1596.34 267.402 Q1597.44 268.526 1597.44 270.189 Q1597.44 270.869 1597.25 271.478 Q1597.09 272.063 1596.48 273.632 Q1594.02 279.957 1594.02 283.048 Q1594.02 283.798 1594.14 284.43 Q1594.28 285.039 1594.58 285.648 Q1594.89 286.234 1595.5 286.585 Q1596.13 286.913 1597 286.913 Q1598.1 286.913 1599.13 286.398 Q1600.18 285.859 1600.84 285.133 Q1601.52 284.407 1601.91 283.798 Q1602.34 283.165 1602.43 282.838 L1604.58 274.218 L1605.55 270.377 Q1605.99 268.292 1606.2 267.777 Q1606.48 267.285 1606.97 267.027 Q1607.47 266.77 1607.89 266.77 Q1608.47 266.77 1608.87 267.121 Q1609.29 267.472 1609.29 268.081 Z" fill="#000000" fill-rule="evenodd" fill-opacity="1" /><path clip-path="url(#clip300)" d="M1623.73 280.167 Q1623.77 279.582 1624.69 279.582 L1654.08 279.582 Q1655.46 279.582 1655.49 280.121 Q1655.49 280.706 1654.18 280.683 L1625.01 280.683 Q1623.73 280.706 1623.73 280.167 M1623.73 270.798 Q1623.73 270.213 1624.73 270.236 L1654.03 270.236 Q1655.46 270.236 1655.49 270.798 Q1655.49 271.337 1654.27 271.337 L1624.69 271.337 Q1623.73 271.337 1623.73 270.798 Z" fill="#000000" fill-rule="evenodd" fill-opacity="1" /><path clip-path="url(#clip300)" d="M1699.22 236.668 L1699.22 235.169 Q1704.98 235.169 1707.95 232.101 Q1708.77 232.101 1708.91 232.288 Q1709.06 232.475 1709.06 233.342 L1709.06 260.254 Q1709.06 261.683 1709.76 262.128 Q1710.46 262.573 1713.53 262.573 L1715.05 262.573 L1715.05 264.049 Q1713.37 263.908 1707.28 263.908 Q1701.19 263.908 1699.52 264.049 L1699.52 262.573 L1701.04 262.573 Q1704.07 262.573 1704.79 262.152 Q1705.52 261.707 1705.52 260.254 L1705.52 235.403 Q1703.01 236.668 1699.22 236.668 Z" fill="#000000" fill-rule="evenodd" fill-opacity="1" /><path clip-path="url(#clip300)" d="
M1684.22 276.849 L1735.98 276.849 L1735.98 274.289 L1684.22 274.289  Z
  " fill="#000000" fill-rule="evenodd" fill-opacity="1"/>
<path clip-path="url(#clip300)" d="M1684.22 318.73 Q1684.22 317.863 1684.29 317.605 Q1684.38 317.348 1684.76 316.949 L1693.96 306.69 Q1699 301.022 1699 296.08 Q1699 292.871 1697.31 290.576 Q1695.65 288.28 1692.58 288.28 Q1690.47 288.28 1688.69 289.569 Q1686.91 290.857 1686.09 293.152 Q1686.23 293.105 1686.72 293.105 Q1687.92 293.105 1688.57 293.855 Q1689.25 294.604 1689.25 295.612 Q1689.25 296.9 1688.41 297.532 Q1687.59 298.141 1686.77 298.141 Q1686.44 298.141 1686 298.071 Q1685.58 298.001 1684.9 297.345 Q1684.22 296.666 1684.22 295.471 Q1684.22 292.122 1686.75 289.451 Q1689.3 286.781 1693.19 286.781 Q1697.59 286.781 1700.47 289.405 Q1703.38 292.005 1703.38 296.08 Q1703.38 297.509 1702.93 298.82 Q1702.51 300.109 1701.93 301.116 Q1701.36 302.123 1699.82 303.739 Q1698.27 305.355 1697.03 306.503 Q1695.79 307.651 1693 310.087 L1687.92 315.029 L1696.56 315.029 Q1700.78 315.029 1701.11 314.654 Q1701.57 313.975 1702.16 310.391 L1703.38 310.391 L1702.02 318.73 L1684.22 318.73 Z" fill="#000000" fill-rule="evenodd" fill-opacity="1" /><path clip-path="url(#clip300)" d="M1731.09 300.694 Q1731.09 302.006 1730.27 302.755 Q1729.45 303.482 1728.51 303.482 Q1727.62 303.482 1727.16 302.966 Q1726.69 302.451 1726.69 301.795 Q1726.69 300.905 1727.34 300.132 Q1728 299.359 1728.98 299.195 Q1728.02 298.586 1726.59 298.586 Q1725.66 298.586 1724.84 299.078 Q1724.04 299.57 1723.55 300.202 Q1723.08 300.835 1722.66 301.748 Q1722.26 302.638 1722.1 303.177 Q1721.96 303.692 1721.84 304.254 L1720.2 310.813 Q1719.4 313.928 1719.4 315.029 Q1719.4 316.387 1720.06 317.301 Q1720.71 318.191 1722.03 318.191 Q1722.54 318.191 1723.13 318.05 Q1723.71 317.886 1724.46 317.465 Q1725.24 317.02 1725.91 316.364 Q1726.62 315.685 1727.3 314.537 Q1727.98 313.389 1728.42 311.914 Q1728.56 311.398 1729.03 311.398 Q1729.62 311.398 1729.62 311.867 Q1729.62 312.265 1729.29 313.108 Q1728.98 313.928 1728.3 315.005 Q1727.65 316.059 1726.78 317.02 Q1725.91 317.957 1724.63 318.612 Q1723.34 319.268 1721.93 319.268 Q1719.92 319.268 1718.58 318.191 Q1717.25 317.113 1716.76 315.614 Q1716.64 315.825 1716.48 316.106 Q1716.31 316.387 1715.82 317.02 Q1715.35 317.629 1714.81 318.097 Q1714.27 318.542 1713.43 318.894 Q1712.61 319.268 1711.72 319.268 Q1710.6 319.268 1709.59 318.94 Q1708.61 318.612 1707.9 317.863 Q1707.2 317.113 1707.2 316.083 Q1707.2 314.935 1707.97 314.139 Q1708.77 313.319 1709.85 313.319 Q1710.53 313.319 1711.06 313.717 Q1711.63 314.115 1711.63 314.982 Q1711.63 315.942 1710.97 316.668 Q1710.32 317.394 1709.38 317.582 Q1710.34 318.191 1711.77 318.191 Q1713.31 318.191 1714.53 316.832 Q1715.75 315.474 1716.33 313.202 Q1717.79 307.744 1718.35 305.308 Q1718.91 302.849 1718.91 301.795 Q1718.91 300.811 1718.65 300.132 Q1718.4 299.453 1717.95 299.148 Q1717.53 298.82 1717.13 298.703 Q1716.76 298.586 1716.33 298.586 Q1715.63 298.586 1714.84 298.867 Q1714.06 299.148 1713.13 299.804 Q1712.21 300.437 1711.35 301.748 Q1710.48 303.06 1709.89 304.863 Q1709.78 305.402 1709.26 305.402 Q1708.7 305.379 1708.7 304.91 Q1708.7 304.512 1709 303.692 Q1709.33 302.849 1709.99 301.795 Q1710.67 300.741 1711.53 299.804 Q1712.42 298.844 1713.71 298.188 Q1715.02 297.532 1716.43 297.532 Q1717.06 297.532 1717.67 297.673 Q1718.3 297.79 1719.05 298.141 Q1719.82 298.493 1720.5 299.266 Q1721.18 300.038 1721.6 301.163 Q1721.89 300.624 1722.26 300.109 Q1722.66 299.593 1723.27 298.961 Q1723.9 298.305 1724.77 297.93 Q1725.66 297.532 1726.64 297.532 Q1727.6 297.532 1728.54 297.79 Q1729.47 298.024 1730.27 298.797 Q1731.09 299.547 1731.09 300.694 Z" fill="#000000" fill-rule="evenodd" fill-opacity="1" /></svg>
