<?xml version="1.0" encoding="utf-8"?>
<svg xmlns="http://www.w3.org/2000/svg" xmlns:xlink="http://www.w3.org/1999/xlink" width="600" height="400" viewBox="0 0 2400 1600">
<defs>
  <clipPath id="clip810">
    <rect x="0" y="0" width="2400" height="1600"/>
  </clipPath>
</defs>
<path clip-path="url(#clip810)" d="
M0 1600 L2400 1600 L2400 0 L0 0  Z
  " fill="#ffffff" fill-rule="evenodd" fill-opacity="1"/>
<defs>
  <clipPath id="clip811">
    <rect x="480" y="0" width="1681" height="1600"/>
  </clipPath>
</defs>
<defs>
  <clipPath id="clip812">
    <rect x="512" y="47" width="1440" height="1440"/>
  </clipPath>
</defs>
<path clip-path="url(#clip810)" d="
M512.865 1486.45 L1952.07 1486.45 L1952.07 47.2441 L512.865 47.2441  Z
  " fill="#ffffff" fill-rule="evenodd" fill-opacity="1"/>
<polyline clip-path="url(#clip812)" style="stroke:#000000; stroke-linecap:butt; stroke-linejoin:round; stroke-width:2; stroke-opacity:0.1; fill:none" points="
  553.597,1486.45 553.597,47.2441 
  "/>
<polyline clip-path="url(#clip812)" style="stroke:#000000; stroke-linecap:butt; stroke-linejoin:round; stroke-width:2; stroke-opacity:0.1; fill:none" points="
  825.145,1486.45 825.145,47.2441 
  "/>
<polyline clip-path="url(#clip812)" style="stroke:#000000; stroke-linecap:butt; stroke-linejoin:round; stroke-width:2; stroke-opacity:0.1; fill:none" points="
  1096.69,1486.45 1096.69,47.2441 
  "/>
<polyline clip-path="url(#clip812)" style="stroke:#000000; stroke-linecap:butt; stroke-linejoin:round; stroke-width:2; stroke-opacity:0.1; fill:none" points="
  1368.24,1486.45 1368.24,47.2441 
  "/>
<polyline clip-path="url(#clip812)" style="stroke:#000000; stroke-linecap:butt; stroke-linejoin:round; stroke-width:2; stroke-opacity:0.1; fill:none" points="
  1639.79,1486.45 1639.79,47.2441 
  "/>
<polyline clip-path="url(#clip812)" style="stroke:#000000; stroke-linecap:butt; stroke-linejoin:round; stroke-width:2; stroke-opacity:0.1; fill:none" points="
  1911.34,1486.45 1911.34,47.2441 
  "/>
<polyline clip-path="url(#clip810)" style="stroke:#000000; stroke-linecap:butt; stroke-linejoin:round; stroke-width:4; stroke-opacity:1; fill:none" points="
  512.865,1486.45 1952.07,1486.45 
  "/>
<polyline clip-path="url(#clip810)" style="stroke:#000000; stroke-linecap:butt; stroke-linejoin:round; stroke-width:4; stroke-opacity:1; fill:none" points="
  553.597,1486.45 553.597,1467.55 
  "/>
<polyline clip-path="url(#clip810)" style="stroke:#000000; stroke-linecap:butt; stroke-linejoin:round; stroke-width:4; stroke-opacity:1; fill:none" points="
  825.145,1486.45 825.145,1467.55 
  "/>
<polyline clip-path="url(#clip810)" style="stroke:#000000; stroke-linecap:butt; stroke-linejoin:round; stroke-width:4; stroke-opacity:1; fill:none" points="
  1096.69,1486.45 1096.69,1467.55 
  "/>
<polyline clip-path="url(#clip810)" style="stroke:#000000; stroke-linecap:butt; stroke-linejoin:round; stroke-width:4; stroke-opacity:1; fill:none" points="
  1368.24,1486.45 1368.24,1467.55 
  "/>
<polyline clip-path="url(#clip810)" style="stroke:#000000; stroke-linecap:butt; stroke-linejoin:round; stroke-width:4; stroke-opacity:1; fill:none" points="
  1639.79,1486.45 1639.79,1467.55 
  "/>
<polyline clip-path="url(#clip810)" style="stroke:#000000; stroke-linecap:butt; stroke-linejoin:round; stroke-width:4; stroke-opacity:1; fill:none" points="
  1911.34,1486.45 1911.34,1467.55 
  "/>
<path clip-path="url(#clip810)" d="M553.597 1517.37 Q549.986 1517.37 548.157 1520.93 Q546.352 1524.47 546.352 1531.6 Q546.352 1538.71 548.157 1542.27 Q549.986 1545.82 553.597 1545.82 Q557.231 1545.82 559.037 1542.27 Q560.865 1538.71 560.865 1531.6 Q560.865 1524.47 559.037 1520.93 Q557.231 1517.37 553.597 1517.37 M553.597 1513.66 Q559.407 1513.66 562.463 1518.27 Q565.541 1522.85 565.541 1531.6 Q565.541 1540.33 562.463 1544.94 Q559.407 1549.52 553.597 1549.52 Q547.787 1549.52 544.708 1544.94 Q541.652 1540.33 541.652 1531.6 Q541.652 1522.85 544.708 1518.27 Q547.787 1513.66 553.597 1513.66 Z" fill="#000000" fill-rule="evenodd" fill-opacity="1" /><path clip-path="url(#clip810)" d="M815.527 1544.91 L823.166 1544.91 L823.166 1518.55 L814.855 1520.21 L814.855 1515.95 L823.119 1514.29 L827.795 1514.29 L827.795 1544.91 L835.434 1544.91 L835.434 1548.85 L815.527 1548.85 L815.527 1544.91 Z" fill="#000000" fill-rule="evenodd" fill-opacity="1" /><path clip-path="url(#clip810)" d="M1091.35 1544.91 L1107.66 1544.91 L1107.66 1548.85 L1085.72 1548.85 L1085.72 1544.91 Q1088.38 1542.16 1092.97 1537.53 Q1097.57 1532.88 1098.75 1531.53 Q1101 1529.01 1101.88 1527.27 Q1102.78 1525.51 1102.78 1523.82 Q1102.78 1521.07 1100.84 1519.33 Q1098.91 1517.6 1095.81 1517.6 Q1093.61 1517.6 1091.16 1518.36 Q1088.73 1519.13 1085.95 1520.68 L1085.95 1515.95 Q1088.78 1514.82 1091.23 1514.24 Q1093.68 1513.66 1095.72 1513.66 Q1101.09 1513.66 1104.29 1516.35 Q1107.48 1519.03 1107.48 1523.52 Q1107.48 1525.65 1106.67 1527.57 Q1105.88 1529.47 1103.78 1532.07 Q1103.2 1532.74 1100.1 1535.95 Q1096.99 1539.15 1091.35 1544.91 Z" fill="#000000" fill-rule="evenodd" fill-opacity="1" /><path clip-path="url(#clip810)" d="M1372.49 1530.21 Q1375.84 1530.93 1377.72 1533.2 Q1379.62 1535.47 1379.62 1538.8 Q1379.62 1543.92 1376.1 1546.72 Q1372.58 1549.52 1366.1 1549.52 Q1363.92 1549.52 1361.61 1549.08 Q1359.32 1548.66 1356.86 1547.81 L1356.86 1543.29 Q1358.81 1544.43 1361.12 1545.01 Q1363.44 1545.58 1365.96 1545.58 Q1370.36 1545.58 1372.65 1543.85 Q1374.96 1542.11 1374.96 1538.8 Q1374.96 1535.75 1372.81 1534.03 Q1370.68 1532.3 1366.86 1532.3 L1362.84 1532.3 L1362.84 1528.45 L1367.05 1528.45 Q1370.5 1528.45 1372.33 1527.09 Q1374.15 1525.7 1374.15 1523.11 Q1374.15 1520.45 1372.26 1519.03 Q1370.38 1517.6 1366.86 1517.6 Q1364.94 1517.6 1362.74 1518.01 Q1360.54 1518.43 1357.9 1519.31 L1357.9 1515.14 Q1360.57 1514.4 1362.88 1514.03 Q1365.22 1513.66 1367.28 1513.66 Q1372.6 1513.66 1375.71 1516.09 Q1378.81 1518.5 1378.81 1522.62 Q1378.81 1525.49 1377.16 1527.48 Q1375.52 1529.45 1372.49 1530.21 Z" fill="#000000" fill-rule="evenodd" fill-opacity="1" /><path clip-path="url(#clip810)" d="M1642.8 1518.36 L1630.99 1536.81 L1642.8 1536.81 L1642.8 1518.36 M1641.57 1514.29 L1647.45 1514.29 L1647.45 1536.81 L1652.38 1536.81 L1652.38 1540.7 L1647.45 1540.7 L1647.45 1548.85 L1642.8 1548.85 L1642.8 1540.7 L1627.2 1540.7 L1627.2 1536.19 L1641.57 1514.29 Z" fill="#000000" fill-rule="evenodd" fill-opacity="1" /><path clip-path="url(#clip810)" d="M1901.61 1514.29 L1919.97 1514.29 L1919.97 1518.22 L1905.9 1518.22 L1905.9 1526.7 Q1906.91 1526.35 1907.93 1526.19 Q1908.95 1526 1909.97 1526 Q1915.76 1526 1919.14 1529.17 Q1922.52 1532.34 1922.52 1537.76 Q1922.52 1543.34 1919.04 1546.44 Q1915.57 1549.52 1909.25 1549.52 Q1907.08 1549.52 1904.81 1549.15 Q1902.56 1548.78 1900.16 1548.04 L1900.16 1543.34 Q1902.24 1544.47 1904.46 1545.03 Q1906.68 1545.58 1909.16 1545.58 Q1913.16 1545.58 1915.5 1543.48 Q1917.84 1541.37 1917.84 1537.76 Q1917.84 1534.15 1915.5 1532.04 Q1913.16 1529.94 1909.16 1529.94 Q1907.29 1529.94 1905.41 1530.35 Q1903.56 1530.77 1901.61 1531.65 L1901.61 1514.29 Z" fill="#000000" fill-rule="evenodd" fill-opacity="1" /><polyline clip-path="url(#clip812)" style="stroke:#000000; stroke-linecap:butt; stroke-linejoin:round; stroke-width:2; stroke-opacity:0.1; fill:none" points="
  512.865,1445.72 1952.07,1445.72 
  "/>
<polyline clip-path="url(#clip812)" style="stroke:#000000; stroke-linecap:butt; stroke-linejoin:round; stroke-width:2; stroke-opacity:0.1; fill:none" points="
  512.865,1174.17 1952.07,1174.17 
  "/>
<polyline clip-path="url(#clip812)" style="stroke:#000000; stroke-linecap:butt; stroke-linejoin:round; stroke-width:2; stroke-opacity:0.1; fill:none" points="
  512.865,902.62 1952.07,902.62 
  "/>
<polyline clip-path="url(#clip812)" style="stroke:#000000; stroke-linecap:butt; stroke-linejoin:round; stroke-width:2; stroke-opacity:0.1; fill:none" points="
  512.865,631.072 1952.07,631.072 
  "/>
<polyline clip-path="url(#clip812)" style="stroke:#000000; stroke-linecap:butt; stroke-linejoin:round; stroke-width:2; stroke-opacity:0.1; fill:none" points="
  512.865,359.524 1952.07,359.524 
  "/>
<polyline clip-path="url(#clip812)" style="stroke:#000000; stroke-linecap:butt; stroke-linejoin:round; stroke-width:2; stroke-opacity:0.1; fill:none" points="
  512.865,87.9763 1952.07,87.9763 
  "/>
<polyline clip-path="url(#clip810)" style="stroke:#000000; stroke-linecap:butt; stroke-linejoin:round; stroke-width:4; stroke-opacity:1; fill:none" points="
  512.865,1486.45 512.865,47.2441 
  "/>
<polyline clip-path="url(#clip810)" style="stroke:#000000; stroke-linecap:butt; stroke-linejoin:round; stroke-width:4; stroke-opacity:1; fill:none" points="
  512.865,1445.72 525.003,1445.72 
  "/>
<polyline clip-path="url(#clip810)" style="stroke:#000000; stroke-linecap:butt; stroke-linejoin:round; stroke-width:4; stroke-opacity:1; fill:none" points="
  512.865,1174.17 525.003,1174.17 
  "/>
<polyline clip-path="url(#clip810)" style="stroke:#000000; stroke-linecap:butt; stroke-linejoin:round; stroke-width:4; stroke-opacity:1; fill:none" points="
  512.865,902.62 525.003,902.62 
  "/>
<polyline clip-path="url(#clip810)" style="stroke:#000000; stroke-linecap:butt; stroke-linejoin:round; stroke-width:4; stroke-opacity:1; fill:none" points="
  512.865,631.072 525.003,631.072 
  "/>
<polyline clip-path="url(#clip810)" style="stroke:#000000; stroke-linecap:butt; stroke-linejoin:round; stroke-width:4; stroke-opacity:1; fill:none" points="
  512.865,359.524 525.003,359.524 
  "/>
<polyline clip-path="url(#clip810)" style="stroke:#000000; stroke-linecap:butt; stroke-linejoin:round; stroke-width:4; stroke-opacity:1; fill:none" points="
  512.865,87.9763 525.003,87.9763 
  "/>
<path clip-path="url(#clip810)" d="M464.92 1431.51 Q461.309 1431.51 459.48 1435.08 Q457.675 1438.62 457.675 1445.75 Q457.675 1452.86 459.48 1456.42 Q461.309 1459.96 464.92 1459.96 Q468.555 1459.96 470.36 1456.42 Q472.189 1452.86 472.189 1445.75 Q472.189 1438.62 470.36 1435.08 Q468.555 1431.51 464.92 1431.51 M464.92 1427.81 Q470.73 1427.81 473.786 1432.42 Q476.865 1437 476.865 1445.75 Q476.865 1454.48 473.786 1459.08 Q470.73 1463.67 464.92 1463.67 Q459.11 1463.67 456.031 1459.08 Q452.976 1454.48 452.976 1445.75 Q452.976 1437 456.031 1432.42 Q459.11 1427.81 464.92 1427.81 Z" fill="#000000" fill-rule="evenodd" fill-opacity="1" /><path clip-path="url(#clip810)" d="M456.957 1187.51 L464.596 1187.51 L464.596 1161.15 L456.286 1162.81 L456.286 1158.55 L464.55 1156.89 L469.226 1156.89 L469.226 1187.51 L476.865 1187.51 L476.865 1191.45 L456.957 1191.45 L456.957 1187.51 Z" fill="#000000" fill-rule="evenodd" fill-opacity="1" /><path clip-path="url(#clip810)" d="M460.545 915.965 L476.865 915.965 L476.865 919.9 L454.92 919.9 L454.92 915.965 Q457.582 913.21 462.166 908.581 Q466.772 903.928 467.953 902.585 Q470.198 900.062 471.078 898.326 Q471.98 896.567 471.98 894.877 Q471.98 892.122 470.036 890.386 Q468.115 888.65 465.013 888.65 Q462.814 888.65 460.36 889.414 Q457.93 890.178 455.152 891.729 L455.152 887.007 Q457.976 885.872 460.43 885.294 Q462.883 884.715 464.92 884.715 Q470.291 884.715 473.485 887.4 Q476.679 890.085 476.679 894.576 Q476.679 896.706 475.869 898.627 Q475.082 900.525 472.976 903.118 Q472.397 903.789 469.295 907.006 Q466.193 910.201 460.545 915.965 Z" fill="#000000" fill-rule="evenodd" fill-opacity="1" /><path clip-path="url(#clip810)" d="M469.735 629.718 Q473.092 630.435 474.967 632.704 Q476.865 634.972 476.865 638.306 Q476.865 643.422 473.346 646.222 Q469.828 649.023 463.346 649.023 Q461.17 649.023 458.855 648.584 Q456.564 648.167 454.11 647.31 L454.11 642.797 Q456.055 643.931 458.369 644.509 Q460.684 645.088 463.207 645.088 Q467.605 645.088 469.897 643.352 Q472.212 641.616 472.212 638.306 Q472.212 635.25 470.059 633.537 Q467.93 631.801 464.11 631.801 L460.082 631.801 L460.082 627.959 L464.295 627.959 Q467.744 627.959 469.573 626.593 Q471.402 625.204 471.402 622.611 Q471.402 619.949 469.504 618.537 Q467.629 617.102 464.11 617.102 Q462.189 617.102 459.99 617.519 Q457.791 617.936 455.152 618.815 L455.152 614.649 Q457.814 613.908 460.129 613.537 Q462.467 613.167 464.527 613.167 Q469.851 613.167 472.953 615.598 Q476.054 618.005 476.054 622.125 Q476.054 624.996 474.411 626.986 Q472.767 628.954 469.735 629.718 Z" fill="#000000" fill-rule="evenodd" fill-opacity="1" /><path clip-path="url(#clip810)" d="M467.281 346.318 L455.476 364.767 L467.281 364.767 L467.281 346.318 M466.055 342.244 L471.934 342.244 L471.934 364.767 L476.865 364.767 L476.865 368.656 L471.934 368.656 L471.934 376.804 L467.281 376.804 L467.281 368.656 L451.68 368.656 L451.68 364.142 L466.055 342.244 Z" fill="#000000" fill-rule="evenodd" fill-opacity="1" /><path clip-path="url(#clip810)" d="M455.962 70.6963 L474.318 70.6963 L474.318 74.6314 L460.244 74.6314 L460.244 83.1036 Q461.263 82.7564 462.281 82.5944 Q463.3 82.4092 464.318 82.4092 Q470.105 82.4092 473.485 85.5805 Q476.865 88.7517 476.865 94.1684 Q476.865 99.747 473.392 102.849 Q469.92 105.928 463.601 105.928 Q461.425 105.928 459.156 105.557 Q456.911 105.187 454.504 104.446 L454.504 99.747 Q456.587 100.881 458.809 101.437 Q461.031 101.992 463.508 101.992 Q467.513 101.992 469.851 99.8859 Q472.189 97.7795 472.189 94.1684 Q472.189 90.5573 469.851 88.4508 Q467.513 86.3443 463.508 86.3443 Q461.633 86.3443 459.758 86.761 Q457.906 87.1777 455.962 88.0573 L455.962 70.6963 Z" fill="#000000" fill-rule="evenodd" fill-opacity="1" /><polyline clip-path="url(#clip812)" style="stroke:#009af9; stroke-linecap:butt; stroke-linejoin:round; stroke-width:4; stroke-opacity:1; fill:none" points="
  -804.143,-998.215 -786.463,-980.536 -622.993,-817.066 -524.754,-718.827 -441.695,-635.767 -351.469,-545.541 -268.288,-462.361 -179.11,-373.183 -75.7884,-269.861 16.0318,-178.041 
  96.5498,-97.5229 184.336,-9.73669 272.644,78.5713 370.28,176.207 463.178,269.105 559.77,365.697 641.08,447.007 740.351,546.278 831.289,637.216 915.277,721.204 
  1000.35,806.282 1095.7,901.63 1182.1,988.031 1281.03,1086.95 1372.62,1178.55 1462.92,1268.85 1550.6,1356.52 1640.47,1446.4 1738.94,1544.87 1881.99,1687.92 
  1911.34,1717.26 
  "/>
<path clip-path="url(#clip812)" d="
M553.597 359.524 L556.312 362.24 L559.028 364.955 L561.743 367.671 L564.459 370.386 L567.174 373.102 L569.89 375.817 L572.605 378.533 L575.321 381.248 L578.036 383.963 
  L580.752 386.679 L583.467 389.394 L586.183 392.11 L588.898 394.825 L591.614 397.541 L594.329 400.256 L597.044 402.972 L599.76 405.687 L602.475 408.403 L605.191 411.118 
  L607.906 413.834 L610.622 416.549 L613.337 419.265 L616.053 421.98 L618.768 424.696 L621.484 427.411 L624.199 430.127 L626.915 432.842 L629.63 435.558 L632.346 438.273 
  L635.061 440.989 L637.777 443.704 L640.492 446.419 L643.208 449.135 L645.923 451.85 L648.639 454.566 L651.354 457.281 L654.07 459.997 L656.785 462.712 L659.501 465.428 
  L662.216 468.143 L664.931 470.859 L667.647 473.574 L670.362 476.29 L673.078 479.005 L675.793 481.721 L678.509 484.436 L681.224 487.152 L683.94 489.867 L686.655 492.583 
  L689.371 495.298 L692.086 498.014 L694.802 500.729 L697.517 503.445 L700.233 506.16 L702.948 508.875 L705.664 511.591 L708.379 514.306 L711.095 517.022 L713.81 519.737 
  L716.526 522.453 L719.241 525.168 L721.957 527.884 L724.672 530.599 L727.387 533.315 L730.103 536.03 L732.818 538.746 L735.534 541.461 L738.249 544.177 L740.965 546.892 
  L743.68 549.608 L746.396 552.323 L749.111 555.039 L751.827 557.754 L754.542 560.47 L757.258 563.185 L759.973 565.901 L762.689 568.616 L765.404 571.332 L768.12 574.047 
  L770.835 576.762 L773.551 579.478 L776.266 582.193 L778.982 584.909 L781.697 587.624 L784.413 590.34 L787.128 593.055 L789.843 595.771 L792.559 598.486 L795.274 601.202 
  L797.99 603.917 L800.705 606.633 L803.421 609.348 L806.136 612.064 L808.852 614.779 L811.567 617.495 L814.283 620.21 L816.998 622.926 L819.714 625.641 L822.429 628.357 
  L825.145 631.072 L827.86 633.788 L830.576 636.503 L833.291 639.218 L836.007 641.934 L838.722 644.649 L841.438 647.365 L844.153 650.08 L846.869 652.796 L849.584 655.511 
  L852.3 658.227 L855.015 660.942 L857.73 663.658 L860.446 666.373 L863.161 669.089 L865.877 671.804 L868.592 674.52 L871.308 677.235 L874.023 679.951 L876.739 682.666 
  L879.454 685.382 L882.17 688.097 L884.885 690.813 L887.601 693.528 L890.316 696.244 L893.032 698.959 L895.747 701.674 L898.463 704.39 L901.178 707.105 L903.894 709.821 
  L906.609 712.536 L909.325 715.252 L912.04 717.967 L914.756 720.683 L917.471 723.398 L920.186 726.114 L922.902 728.829 L925.617 731.545 L928.333 734.26 L931.048 736.976 
  L933.764 739.691 L936.479 742.407 L939.195 745.122 L941.91 747.838 L944.626 750.553 L947.341 753.269 L950.057 755.984 L952.772 758.7 L955.488 761.415 L958.203 764.131 
  L960.919 766.846 L963.634 769.561 L966.35 772.277 L969.065 774.992 L971.781 777.708 L974.496 780.423 L977.212 783.139 L979.927 785.854 L982.642 788.57 L985.358 791.285 
  L988.073 794.001 L990.789 796.716 L993.504 799.432 L996.22 802.147 L998.935 804.863 L1001.65 807.578 L1004.37 810.294 L1007.08 813.009 L1009.8 815.725 L1012.51 818.44 
  L1015.23 821.156 L1017.94 823.871 L1020.66 826.587 L1023.37 829.302 L1026.09 832.017 L1028.81 834.733 L1031.52 837.448 L1034.24 840.164 L1036.95 842.879 L1039.67 845.595 
  L1042.38 848.31 L1045.1 851.026 L1047.81 853.741 L1050.53 856.457 L1053.24 859.172 L1055.96 861.888 L1058.68 864.603 L1061.39 867.319 L1064.11 870.034 L1066.82 872.75 
  L1069.54 875.465 L1072.25 878.181 L1074.97 880.896 L1077.68 883.612 L1080.4 886.327 L1083.12 889.043 L1085.83 891.758 L1088.55 894.473 L1091.26 897.189 L1093.98 899.904 
  L1096.69 902.62 L1096.69 902.62 L1093.98 902.62 L1091.26 902.62 L1088.55 902.62 L1085.83 902.62 L1083.12 902.62 L1080.4 902.62 L1077.68 902.62 L1074.97 902.62 
  L1072.25 902.62 L1069.54 902.62 L1066.82 902.62 L1064.11 902.62 L1061.39 902.62 L1058.68 902.62 L1055.96 902.62 L1053.24 902.62 L1050.53 902.62 L1047.81 902.62 
  L1045.1 902.62 L1042.38 902.62 L1039.67 902.62 L1036.95 902.62 L1034.24 902.62 L1031.52 902.62 L1028.81 902.62 L1026.09 902.62 L1023.37 902.62 L1020.66 902.62 
  L1017.94 902.62 L1015.23 902.62 L1012.51 902.62 L1009.8 902.62 L1007.08 902.62 L1004.37 902.62 L1001.65 902.62 L998.935 902.62 L996.22 902.62 L993.504 902.62 
  L990.789 902.62 L988.073 902.62 L985.358 902.62 L982.642 902.62 L979.927 902.62 L977.212 902.62 L974.496 902.62 L971.781 902.62 L969.065 902.62 L966.35 902.62 
  L963.634 902.62 L960.919 902.62 L958.203 902.62 L955.488 902.62 L952.772 902.62 L950.057 902.62 L947.341 902.62 L944.626 902.62 L941.91 902.62 L939.195 902.62 
  L936.479 902.62 L933.764 902.62 L931.048 902.62 L928.333 902.62 L925.617 902.62 L922.902 902.62 L920.186 902.62 L917.471 902.62 L914.756 902.62 L912.04 902.62 
  L909.325 902.62 L906.609 902.62 L903.894 902.62 L901.178 902.62 L898.463 902.62 L895.747 902.62 L893.032 902.62 L890.316 902.62 L887.601 902.62 L884.885 902.62 
  L882.17 902.62 L879.454 902.62 L876.739 902.62 L874.023 902.62 L871.308 902.62 L868.592 902.62 L865.877 902.62 L863.161 902.62 L860.446 902.62 L857.73 902.62 
  L855.015 902.62 L852.3 902.62 L849.584 902.62 L846.869 902.62 L844.153 902.62 L841.438 902.62 L838.722 902.62 L836.007 902.62 L833.291 902.62 L830.576 902.62 
  L827.86 902.62 L825.145 902.62 L822.429 902.62 L819.714 902.62 L816.998 902.62 L814.283 902.62 L811.567 902.62 L808.852 902.62 L806.136 902.62 L803.421 902.62 
  L800.705 902.62 L797.99 902.62 L795.274 902.62 L792.559 902.62 L789.843 902.62 L787.128 902.62 L784.413 902.62 L781.697 902.62 L778.982 902.62 L776.266 902.62 
  L773.551 902.62 L770.835 902.62 L768.12 902.62 L765.404 902.62 L762.689 902.62 L759.973 902.62 L757.258 902.62 L754.542 902.62 L751.827 902.62 L749.111 902.62 
  L746.396 902.62 L743.68 902.62 L740.965 902.62 L738.249 902.62 L735.534 902.62 L732.818 902.62 L730.103 902.62 L727.387 902.62 L724.672 902.62 L721.957 902.62 
  L719.241 902.62 L716.526 902.62 L713.81 902.62 L711.095 902.62 L708.379 902.62 L705.664 902.62 L702.948 902.62 L700.233 902.62 L697.517 902.62 L694.802 902.62 
  L692.086 902.62 L689.371 902.62 L686.655 902.62 L683.94 902.62 L681.224 902.62 L678.509 902.62 L675.793 902.62 L673.078 902.62 L670.362 902.62 L667.647 902.62 
  L664.931 902.62 L662.216 902.62 L659.501 902.62 L656.785 902.62 L654.07 902.62 L651.354 902.62 L648.639 902.62 L645.923 902.62 L643.208 902.62 L640.492 902.62 
  L637.777 902.62 L635.061 902.62 L632.346 902.62 L629.63 902.62 L626.915 902.62 L624.199 902.62 L621.484 902.62 L618.768 902.62 L616.053 902.62 L613.337 902.62 
  L610.622 902.62 L607.906 902.62 L605.191 902.62 L602.475 902.62 L599.76 902.62 L597.044 902.62 L594.329 902.62 L591.614 902.62 L588.898 902.62 L586.183 902.62 
  L583.467 902.62 L580.752 902.62 L578.036 902.62 L575.321 902.62 L572.605 902.62 L569.89 902.62 L567.174 902.62 L564.459 902.62 L561.743 902.62 L559.028 902.62 
  L556.312 902.62 L553.597 902.62  Z
  " fill="#009af9" fill-rule="evenodd" fill-opacity="0.35"/>
<polyline clip-path="url(#clip812)" style="stroke:#009af9; stroke-linecap:butt; stroke-linejoin:round; stroke-width:4; stroke-opacity:1; fill:none" points="
  553.597,359.524 556.312,362.24 559.028,364.955 561.743,367.671 564.459,370.386 567.174,373.102 569.89,375.817 572.605,378.533 575.321,381.248 578.036,383.963 
  580.752,386.679 583.467,389.394 586.183,392.11 588.898,394.825 591.614,397.541 594.329,400.256 597.044,402.972 599.76,405.687 602.475,408.403 605.191,411.118 
  607.906,413.834 610.622,416.549 613.337,419.265 616.053,421.98 618.768,424.696 621.484,427.411 624.199,430.127 626.915,432.842 629.63,435.558 632.346,438.273 
  635.061,440.989 637.777,443.704 640.492,446.419 643.208,449.135 645.923,451.85 648.639,454.566 651.354,457.281 654.07,459.997 656.785,462.712 659.501,465.428 
  662.216,468.143 664.931,470.859 667.647,473.574 670.362,476.29 673.078,479.005 675.793,481.721 678.509,484.436 681.224,487.152 683.94,489.867 686.655,492.583 
  689.371,495.298 692.086,498.014 694.802,500.729 697.517,503.445 700.233,506.16 702.948,508.875 705.664,511.591 708.379,514.306 711.095,517.022 713.81,519.737 
  716.526,522.453 719.241,525.168 721.957,527.884 724.672,530.599 727.387,533.315 730.103,536.03 732.818,538.746 735.534,541.461 738.249,544.177 740.965,546.892 
  743.68,549.608 746.396,552.323 749.111,555.039 751.827,557.754 754.542,560.47 757.258,563.185 759.973,565.901 762.689,568.616 765.404,571.332 768.12,574.047 
  770.835,576.762 773.551,579.478 776.266,582.193 778.982,584.909 781.697,587.624 784.413,590.34 787.128,593.055 789.843,595.771 792.559,598.486 795.274,601.202 
  797.99,603.917 800.705,606.633 803.421,609.348 806.136,612.064 808.852,614.779 811.567,617.495 814.283,620.21 816.998,622.926 819.714,625.641 822.429,628.357 
  825.145,631.072 827.86,633.788 830.576,636.503 833.291,639.218 836.007,641.934 838.722,644.649 841.438,647.365 844.153,650.08 846.869,652.796 849.584,655.511 
  852.3,658.227 855.015,660.942 857.73,663.658 860.446,666.373 863.161,669.089 865.877,671.804 868.592,674.52 871.308,677.235 874.023,679.951 876.739,682.666 
  879.454,685.382 882.17,688.097 884.885,690.813 887.601,693.528 890.316,696.244 893.032,698.959 895.747,701.674 898.463,704.39 901.178,707.105 903.894,709.821 
  906.609,712.536 909.325,715.252 912.04,717.967 914.756,720.683 917.471,723.398 920.186,726.114 922.902,728.829 925.617,731.545 928.333,734.26 931.048,736.976 
  933.764,739.691 936.479,742.407 939.195,745.122 941.91,747.838 944.626,750.553 947.341,753.269 950.057,755.984 952.772,758.7 955.488,761.415 958.203,764.131 
  960.919,766.846 963.634,769.561 966.35,772.277 969.065,774.992 971.781,777.708 974.496,780.423 977.212,783.139 979.927,785.854 982.642,788.57 985.358,791.285 
  988.073,794.001 990.789,796.716 993.504,799.432 996.22,802.147 998.935,804.863 1001.65,807.578 1004.37,810.294 1007.08,813.009 1009.8,815.725 1012.51,818.44 
  1015.23,821.156 1017.94,823.871 1020.66,826.587 1023.37,829.302 1026.09,832.017 1028.81,834.733 1031.52,837.448 1034.24,840.164 1036.95,842.879 1039.67,845.595 
  1042.38,848.31 1045.1,851.026 1047.81,853.741 1050.53,856.457 1053.24,859.172 1055.96,861.888 1058.68,864.603 1061.39,867.319 1064.11,870.034 1066.82,872.75 
  1069.54,875.465 1072.25,878.181 1074.97,880.896 1077.68,883.612 1080.4,886.327 1083.12,889.043 1085.83,891.758 1088.55,894.473 1091.26,897.189 1093.98,899.904 
  1096.69,902.62 
  "/>
<polyline clip-path="url(#clip812)" style="stroke:#000000; stroke-linecap:butt; stroke-linejoin:round; stroke-width:4; stroke-opacity:1; fill:none" stroke-dasharray="16, 10" points="
  553.597,902.62 553.597,359.524 1096.69,359.524 1096.69,902.62 553.597,902.62 
  "/>
<path clip-path="url(#clip810)" d="
M1427.14 198.898 L1877.38 198.898 L1877.38 95.2176 L1427.14 95.2176  Z
  " fill="#ffffff" fill-rule="evenodd" fill-opacity="1"/>
<polyline clip-path="url(#clip810)" style="stroke:#000000; stroke-linecap:butt; stroke-linejoin:round; stroke-width:4; stroke-opacity:1; fill:none" points="
  1427.14,198.898 1877.38,198.898 1877.38,95.2176 1427.14,95.2176 1427.14,198.898 
  "/>
<polyline clip-path="url(#clip810)" style="stroke:#009af9; stroke-linecap:butt; stroke-linejoin:round; stroke-width:4; stroke-opacity:1; fill:none" points="
  1452.04,147.058 1601.41,147.058 
  "/>
<path clip-path="url(#clip810)" d="M1648.44 145.818 Q1648.44 146.146 1648.23 146.919 L1643.64 165.235 Q1642.63 169.311 1639.35 172.168 Q1636.1 175.026 1632.4 175.026 Q1630.17 175.026 1628.74 173.831 Q1627.31 172.66 1627.31 170.857 Q1627.31 169.264 1628.16 168.491 Q1629 167.741 1630.01 167.741 Q1630.34 167.741 1630.69 167.835 Q1631.04 167.929 1631.41 168.327 Q1631.79 168.725 1631.79 169.404 Q1631.79 170.505 1630.83 171.372 Q1630.36 171.77 1629.91 171.864 Q1629.49 171.957 1628.77 171.957 Q1629.05 172.613 1629.56 173.058 Q1630.08 173.503 1630.66 173.667 Q1631.25 173.855 1631.62 173.901 Q1632.02 173.972 1632.4 173.972 Q1635.39 173.972 1637.69 170.95 Q1638.37 170.037 1638.86 169.123 Q1639.38 168.233 1639.75 167.132 Q1640.13 166.055 1640.29 165.469 Q1640.48 164.884 1640.81 163.549 Q1638.63 165.727 1635.96 165.727 Q1634.83 165.727 1633.83 165.423 Q1632.84 165.118 1631.97 164.486 Q1631.11 163.83 1630.59 162.682 Q1630.1 161.534 1630.1 160.012 Q1630.1 158.396 1630.73 156.194 Q1631.37 153.992 1632.89 149.94 Q1633.71 147.668 1633.71 146.567 Q1633.71 146.029 1633.59 145.701 Q1633.47 145.349 1633.24 145.232 Q1633.01 145.092 1632.86 145.068 Q1632.75 145.045 1632.51 145.045 Q1631.13 145.045 1629.84 146.45 Q1628.56 147.856 1627.67 150.994 Q1627.48 151.58 1627.36 151.72 Q1627.24 151.861 1626.89 151.861 Q1626.31 151.838 1626.31 151.369 Q1626.31 151.182 1626.52 150.456 Q1626.73 149.706 1627.22 148.605 Q1627.74 147.481 1628.44 146.474 Q1629.14 145.443 1630.24 144.717 Q1631.37 143.991 1632.65 143.991 Q1634.41 143.991 1635.49 145.139 Q1636.59 146.263 1636.59 147.926 Q1636.59 148.605 1636.4 149.214 Q1636.24 149.8 1635.63 151.369 Q1633.17 157.693 1633.17 160.785 Q1633.17 161.534 1633.29 162.167 Q1633.43 162.776 1633.73 163.385 Q1634.04 163.97 1634.65 164.322 Q1635.28 164.65 1636.14 164.65 Q1637.24 164.65 1638.28 164.134 Q1639.33 163.596 1639.99 162.869 Q1640.66 162.143 1641.06 161.534 Q1641.48 160.902 1641.58 160.574 L1643.73 151.955 L1644.69 148.113 Q1645.14 146.029 1645.35 145.513 Q1645.63 145.022 1646.12 144.764 Q1646.61 144.506 1647.04 144.506 Q1647.62 144.506 1648.02 144.858 Q1648.44 145.209 1648.44 145.818 Z" fill="#000000" fill-rule="evenodd" fill-opacity="1" /><path clip-path="url(#clip810)" d="M1662.87 157.904 Q1662.92 157.318 1663.83 157.318 L1693.23 157.318 Q1694.61 157.318 1694.64 157.857 Q1694.64 158.443 1693.32 158.419 L1664.16 158.419 Q1662.87 158.443 1662.87 157.904 M1662.87 148.535 Q1662.87 147.949 1663.88 147.973 L1693.18 147.973 Q1694.61 147.973 1694.64 148.535 Q1694.64 149.074 1693.42 149.074 L1663.83 149.074 Q1662.87 149.074 1662.87 148.535 Z" fill="#000000" fill-rule="evenodd" fill-opacity="1" /><path clip-path="url(#clip810)" d="M1713.13 157.272 L1713.13 155.796 L1727.86 133.287 Q1728.23 132.701 1728.82 132.725 Q1729.36 132.725 1729.47 132.936 Q1729.59 133.146 1729.59 133.966 L1729.59 155.796 L1734.39 155.796 L1734.39 157.272 L1729.59 157.272 L1729.59 161.441 Q1729.59 162.823 1730.15 163.268 Q1730.74 163.713 1733.22 163.713 L1734.23 163.713 L1734.23 165.188 Q1732.26 165.048 1727.72 165.048 Q1723.2 165.048 1721.23 165.188 L1721.23 163.713 L1722.24 163.713 Q1724.72 163.713 1725.31 163.291 Q1725.89 162.846 1725.89 161.441 L1725.89 157.272 L1713.13 157.272 M1714.48 155.796 L1726.17 155.796 L1726.17 137.901 L1714.48 155.796 Z" fill="#000000" fill-rule="evenodd" fill-opacity="1" /><path clip-path="url(#clip810)" d="M1781.85 152.517 Q1782.13 152.798 1782.13 153.196 Q1782.13 153.594 1781.85 153.875 Q1781.57 154.156 1781.17 154.156 L1751.14 154.156 Q1750.74 154.156 1750.46 153.875 Q1750.18 153.594 1750.18 153.196 Q1750.18 152.798 1750.46 152.517 Q1750.74 152.236 1751.14 152.236 L1781.17 152.236 Q1781.57 152.236 1781.85 152.517 Z" fill="#000000" fill-rule="evenodd" fill-opacity="1" /><path clip-path="url(#clip810)" d="M1824.32 147.153 Q1824.32 148.465 1823.5 149.214 Q1822.68 149.94 1821.75 149.94 Q1820.86 149.94 1820.39 149.425 Q1819.92 148.91 1819.92 148.254 Q1819.92 147.364 1820.58 146.591 Q1821.23 145.818 1822.22 145.654 Q1821.25 145.045 1819.83 145.045 Q1818.89 145.045 1818.07 145.537 Q1817.27 146.029 1816.78 146.661 Q1816.31 147.294 1815.89 148.207 Q1815.49 149.097 1815.33 149.636 Q1815.19 150.151 1815.07 150.713 L1813.43 157.272 Q1812.64 160.387 1812.64 161.488 Q1812.64 162.846 1813.29 163.76 Q1813.95 164.65 1815.26 164.65 Q1815.77 164.65 1816.36 164.509 Q1816.95 164.345 1817.69 163.923 Q1818.47 163.478 1819.15 162.823 Q1819.85 162.143 1820.53 160.996 Q1821.21 159.848 1821.65 158.372 Q1821.79 157.857 1822.26 157.857 Q1822.85 157.857 1822.85 158.326 Q1822.85 158.724 1822.52 159.567 Q1822.22 160.387 1821.54 161.464 Q1820.88 162.518 1820.01 163.478 Q1819.15 164.415 1817.86 165.071 Q1816.57 165.727 1815.17 165.727 Q1813.15 165.727 1811.82 164.65 Q1810.48 163.572 1809.99 162.073 Q1809.87 162.284 1809.71 162.565 Q1809.54 162.846 1809.05 163.478 Q1808.58 164.087 1808.04 164.556 Q1807.51 165.001 1806.66 165.352 Q1805.84 165.727 1804.95 165.727 Q1803.83 165.727 1802.82 165.399 Q1801.84 165.071 1801.14 164.322 Q1800.43 163.572 1800.43 162.542 Q1800.43 161.394 1801.21 160.598 Q1802 159.778 1803.08 159.778 Q1803.76 159.778 1804.3 160.176 Q1804.86 160.574 1804.86 161.441 Q1804.86 162.401 1804.2 163.127 Q1803.55 163.853 1802.61 164.041 Q1803.57 164.65 1805 164.65 Q1806.55 164.65 1807.76 163.291 Q1808.98 161.933 1809.57 159.661 Q1811.02 154.203 1811.58 151.767 Q1812.14 149.308 1812.14 148.254 Q1812.14 147.27 1811.89 146.591 Q1811.63 145.912 1811.18 145.607 Q1810.76 145.279 1810.36 145.162 Q1809.99 145.045 1809.57 145.045 Q1808.86 145.045 1808.07 145.326 Q1807.3 145.607 1806.36 146.263 Q1805.44 146.895 1804.58 148.207 Q1803.71 149.519 1803.13 151.322 Q1803.01 151.861 1802.49 151.861 Q1801.93 151.838 1801.93 151.369 Q1801.93 150.971 1802.24 150.151 Q1802.56 149.308 1803.22 148.254 Q1803.9 147.2 1804.77 146.263 Q1805.66 145.303 1806.94 144.647 Q1808.26 143.991 1809.66 143.991 Q1810.29 143.991 1810.9 144.132 Q1811.53 144.249 1812.28 144.6 Q1813.06 144.951 1813.74 145.724 Q1814.42 146.497 1814.84 147.621 Q1815.12 147.083 1815.49 146.567 Q1815.89 146.052 1816.5 145.42 Q1817.13 144.764 1818 144.389 Q1818.89 143.991 1819.87 143.991 Q1820.83 143.991 1821.77 144.249 Q1822.71 144.483 1823.5 145.256 Q1824.32 146.005 1824.32 147.153 Z" fill="#000000" fill-rule="evenodd" fill-opacity="1" /></svg>
