<?xml version="1.0" encoding="utf-8"?>
<svg xmlns="http://www.w3.org/2000/svg" xmlns:xlink="http://www.w3.org/1999/xlink" width="600" height="400" viewBox="0 0 2400 1600">
<defs>
  <clipPath id="clip180">
    <rect x="0" y="0" width="2400" height="1600"/>
  </clipPath>
</defs>
<path clip-path="url(#clip180)" d="
M0 1600 L2400 1600 L2400 0 L0 0  Z
  " fill="#ffffff" fill-rule="evenodd" fill-opacity="1"/>
<defs>
  <clipPath id="clip181">
    <rect x="480" y="0" width="1681" height="1600"/>
  </clipPath>
</defs>
<defs>
  <clipPath id="clip182">
    <rect x="549" y="47" width="1440" height="1440"/>
  </clipPath>
</defs>
<path clip-path="url(#clip180)" d="
M534.832 1486.45 L1974.04 1486.45 L1974.04 47.2441 L534.832 47.2441  Z
  " fill="#ffffff" fill-rule="evenodd" fill-opacity="1"/>
<defs>
  <clipPath id="clip183">
    <rect x="534" y="47" width="1440" height="1440"/>
  </clipPath>
</defs>
<polyline clip-path="url(#clip183)" style="stroke:#000000; stroke-linecap:butt; stroke-linejoin:round; stroke-width:2; stroke-opacity:0.1; fill:none" points="
  575.564,1486.45 575.564,47.2441 
  "/>
<polyline clip-path="url(#clip183)" style="stroke:#000000; stroke-linecap:butt; stroke-linejoin:round; stroke-width:2; stroke-opacity:0.1; fill:none" points="
  914.999,1486.45 914.999,47.2441 
  "/>
<polyline clip-path="url(#clip183)" style="stroke:#000000; stroke-linecap:butt; stroke-linejoin:round; stroke-width:2; stroke-opacity:0.1; fill:none" points="
  1254.43,1486.45 1254.43,47.2441 
  "/>
<polyline clip-path="url(#clip183)" style="stroke:#000000; stroke-linecap:butt; stroke-linejoin:round; stroke-width:2; stroke-opacity:0.1; fill:none" points="
  1593.87,1486.45 1593.87,47.2441 
  "/>
<polyline clip-path="url(#clip183)" style="stroke:#000000; stroke-linecap:butt; stroke-linejoin:round; stroke-width:2; stroke-opacity:0.1; fill:none" points="
  1933.3,1486.45 1933.3,47.2441 
  "/>
<polyline clip-path="url(#clip180)" style="stroke:#000000; stroke-linecap:butt; stroke-linejoin:round; stroke-width:4; stroke-opacity:1; fill:none" points="
  534.832,1486.45 1974.04,1486.45 
  "/>
<polyline clip-path="url(#clip180)" style="stroke:#000000; stroke-linecap:butt; stroke-linejoin:round; stroke-width:4; stroke-opacity:1; fill:none" points="
  575.564,1486.45 575.564,1467.55 
  "/>
<polyline clip-path="url(#clip180)" style="stroke:#000000; stroke-linecap:butt; stroke-linejoin:round; stroke-width:4; stroke-opacity:1; fill:none" points="
  914.999,1486.45 914.999,1467.55 
  "/>
<polyline clip-path="url(#clip180)" style="stroke:#000000; stroke-linecap:butt; stroke-linejoin:round; stroke-width:4; stroke-opacity:1; fill:none" points="
  1254.43,1486.45 1254.43,1467.55 
  "/>
<polyline clip-path="url(#clip180)" style="stroke:#000000; stroke-linecap:butt; stroke-linejoin:round; stroke-width:4; stroke-opacity:1; fill:none" points="
  1593.87,1486.45 1593.87,1467.55 
  "/>
<polyline clip-path="url(#clip180)" style="stroke:#000000; stroke-linecap:butt; stroke-linejoin:round; stroke-width:4; stroke-opacity:1; fill:none" points="
  1933.3,1486.45 1933.3,1467.55 
  "/>
<path clip-path="url(#clip180)" d="M552.949 1517.37 Q549.338 1517.37 547.509 1520.93 Q545.703 1524.47 545.703 1531.6 Q545.703 1538.71 547.509 1542.27 Q549.338 1545.82 552.949 1545.82 Q556.583 1545.82 558.388 1542.27 Q560.217 1538.71 560.217 1531.6 Q560.217 1524.47 558.388 1520.93 Q556.583 1517.37 552.949 1517.37 M552.949 1513.66 Q558.759 1513.66 561.814 1518.27 Q564.893 1522.85 564.893 1531.6 Q564.893 1540.33 561.814 1544.94 Q558.759 1549.52 552.949 1549.52 Q547.139 1549.52 544.06 1544.94 Q541.004 1540.33 541.004 1531.6 Q541.004 1522.85 544.06 1518.27 Q547.139 1513.66 552.949 1513.66 Z" fill="#000000" fill-rule="evenodd" fill-opacity="1" /><path clip-path="url(#clip180)" d="M573.111 1542.97 L577.995 1542.97 L577.995 1548.85 L573.111 1548.85 L573.111 1542.97 Z" fill="#000000" fill-rule="evenodd" fill-opacity="1" /><path clip-path="url(#clip180)" d="M598.18 1517.37 Q594.569 1517.37 592.74 1520.93 Q590.935 1524.47 590.935 1531.6 Q590.935 1538.71 592.74 1542.27 Q594.569 1545.82 598.18 1545.82 Q601.814 1545.82 603.62 1542.27 Q605.448 1538.71 605.448 1531.6 Q605.448 1524.47 603.62 1520.93 Q601.814 1517.37 598.18 1517.37 M598.18 1513.66 Q603.99 1513.66 607.046 1518.27 Q610.124 1522.85 610.124 1531.6 Q610.124 1540.33 607.046 1544.94 Q603.99 1549.52 598.18 1549.52 Q592.37 1549.52 589.291 1544.94 Q586.236 1540.33 586.236 1531.6 Q586.236 1522.85 589.291 1518.27 Q592.37 1513.66 598.18 1513.66 Z" fill="#000000" fill-rule="evenodd" fill-opacity="1" /><path clip-path="url(#clip180)" d="M892.881 1517.37 Q889.27 1517.37 887.441 1520.93 Q885.636 1524.47 885.636 1531.6 Q885.636 1538.71 887.441 1542.27 Q889.27 1545.82 892.881 1545.82 Q896.515 1545.82 898.321 1542.27 Q900.15 1538.71 900.15 1531.6 Q900.15 1524.47 898.321 1520.93 Q896.515 1517.37 892.881 1517.37 M892.881 1513.66 Q898.691 1513.66 901.747 1518.27 Q904.826 1522.85 904.826 1531.6 Q904.826 1540.33 901.747 1544.94 Q898.691 1549.52 892.881 1549.52 Q887.071 1549.52 883.992 1544.94 Q880.937 1540.33 880.937 1531.6 Q880.937 1522.85 883.992 1518.27 Q887.071 1513.66 892.881 1513.66 Z" fill="#000000" fill-rule="evenodd" fill-opacity="1" /><path clip-path="url(#clip180)" d="M913.043 1542.97 L917.927 1542.97 L917.927 1548.85 L913.043 1548.85 L913.043 1542.97 Z" fill="#000000" fill-rule="evenodd" fill-opacity="1" /><path clip-path="url(#clip180)" d="M928.159 1514.29 L946.515 1514.29 L946.515 1518.22 L932.441 1518.22 L932.441 1526.7 Q933.46 1526.35 934.478 1526.19 Q935.497 1526 936.515 1526 Q942.302 1526 945.682 1529.17 Q949.061 1532.34 949.061 1537.76 Q949.061 1543.34 945.589 1546.44 Q942.117 1549.52 935.798 1549.52 Q933.622 1549.52 931.353 1549.15 Q929.108 1548.78 926.7 1548.04 L926.7 1543.34 Q928.784 1544.47 931.006 1545.03 Q933.228 1545.58 935.705 1545.58 Q939.71 1545.58 942.048 1543.48 Q944.386 1541.37 944.386 1537.76 Q944.386 1534.15 942.048 1532.04 Q939.71 1529.94 935.705 1529.94 Q933.83 1529.94 931.955 1530.35 Q930.103 1530.77 928.159 1531.65 L928.159 1514.29 Z" fill="#000000" fill-rule="evenodd" fill-opacity="1" /><path clip-path="url(#clip180)" d="M1221.59 1544.91 L1229.23 1544.91 L1229.23 1518.55 L1220.92 1520.21 L1220.92 1515.95 L1229.18 1514.29 L1233.86 1514.29 L1233.86 1544.91 L1241.49 1544.91 L1241.49 1548.85 L1221.59 1548.85 L1221.59 1544.91 Z" fill="#000000" fill-rule="evenodd" fill-opacity="1" /><path clip-path="url(#clip180)" d="M1250.94 1542.97 L1255.82 1542.97 L1255.82 1548.85 L1250.94 1548.85 L1250.94 1542.97 Z" fill="#000000" fill-rule="evenodd" fill-opacity="1" /><path clip-path="url(#clip180)" d="M1276.01 1517.37 Q1272.4 1517.37 1270.57 1520.93 Q1268.76 1524.47 1268.76 1531.6 Q1268.76 1538.71 1270.57 1542.27 Q1272.4 1545.82 1276.01 1545.82 Q1279.64 1545.82 1281.45 1542.27 Q1283.28 1538.71 1283.28 1531.6 Q1283.28 1524.47 1281.45 1520.93 Q1279.64 1517.37 1276.01 1517.37 M1276.01 1513.66 Q1281.82 1513.66 1284.87 1518.27 Q1287.95 1522.85 1287.95 1531.6 Q1287.95 1540.33 1284.87 1544.94 Q1281.82 1549.52 1276.01 1549.52 Q1270.2 1549.52 1267.12 1544.94 Q1264.06 1540.33 1264.06 1531.6 Q1264.06 1522.85 1267.12 1518.27 Q1270.2 1513.66 1276.01 1513.66 Z" fill="#000000" fill-rule="evenodd" fill-opacity="1" /><path clip-path="url(#clip180)" d="M1561.52 1544.91 L1569.16 1544.91 L1569.16 1518.55 L1560.85 1520.21 L1560.85 1515.95 L1569.11 1514.29 L1573.79 1514.29 L1573.79 1544.91 L1581.43 1544.91 L1581.43 1548.85 L1561.52 1548.85 L1561.52 1544.91 Z" fill="#000000" fill-rule="evenodd" fill-opacity="1" /><path clip-path="url(#clip180)" d="M1590.87 1542.97 L1595.76 1542.97 L1595.76 1548.85 L1590.87 1548.85 L1590.87 1542.97 Z" fill="#000000" fill-rule="evenodd" fill-opacity="1" /><path clip-path="url(#clip180)" d="M1605.99 1514.29 L1624.34 1514.29 L1624.34 1518.22 L1610.27 1518.22 L1610.27 1526.7 Q1611.29 1526.35 1612.31 1526.19 Q1613.32 1526 1614.34 1526 Q1620.13 1526 1623.51 1529.17 Q1626.89 1532.34 1626.89 1537.76 Q1626.89 1543.34 1623.42 1546.44 Q1619.95 1549.52 1613.63 1549.52 Q1611.45 1549.52 1609.18 1549.15 Q1606.94 1548.78 1604.53 1548.04 L1604.53 1543.34 Q1606.61 1544.47 1608.83 1545.03 Q1611.06 1545.58 1613.53 1545.58 Q1617.54 1545.58 1619.88 1543.48 Q1622.21 1541.37 1622.21 1537.76 Q1622.21 1534.15 1619.88 1532.04 Q1617.54 1529.94 1613.53 1529.94 Q1611.66 1529.94 1609.78 1530.35 Q1607.93 1530.77 1605.99 1531.65 L1605.99 1514.29 Z" fill="#000000" fill-rule="evenodd" fill-opacity="1" /><path clip-path="url(#clip180)" d="M1904.54 1544.91 L1920.86 1544.91 L1920.86 1548.85 L1898.92 1548.85 L1898.92 1544.91 Q1901.58 1542.16 1906.16 1537.53 Q1910.77 1532.88 1911.95 1531.53 Q1914.2 1529.01 1915.07 1527.27 Q1915.98 1525.51 1915.98 1523.82 Q1915.98 1521.07 1914.03 1519.33 Q1912.11 1517.6 1909.01 1517.6 Q1906.81 1517.6 1904.36 1518.36 Q1901.93 1519.13 1899.15 1520.68 L1899.15 1515.95 Q1901.97 1514.82 1904.43 1514.24 Q1906.88 1513.66 1908.92 1513.66 Q1914.29 1513.66 1917.48 1516.35 Q1920.68 1519.03 1920.68 1523.52 Q1920.68 1525.65 1919.87 1527.57 Q1919.08 1529.47 1916.97 1532.07 Q1916.39 1532.74 1913.29 1535.95 Q1910.19 1539.15 1904.54 1544.91 Z" fill="#000000" fill-rule="evenodd" fill-opacity="1" /><path clip-path="url(#clip180)" d="M1930.68 1542.97 L1935.56 1542.97 L1935.56 1548.85 L1930.68 1548.85 L1930.68 1542.97 Z" fill="#000000" fill-rule="evenodd" fill-opacity="1" /><path clip-path="url(#clip180)" d="M1955.75 1517.37 Q1952.13 1517.37 1950.31 1520.93 Q1948.5 1524.47 1948.5 1531.6 Q1948.5 1538.71 1950.31 1542.27 Q1952.13 1545.82 1955.75 1545.82 Q1959.38 1545.82 1961.19 1542.27 Q1963.01 1538.71 1963.01 1531.6 Q1963.01 1524.47 1961.19 1520.93 Q1959.38 1517.37 1955.75 1517.37 M1955.75 1513.66 Q1961.56 1513.66 1964.61 1518.27 Q1967.69 1522.85 1967.69 1531.6 Q1967.69 1540.33 1964.61 1544.94 Q1961.56 1549.52 1955.75 1549.52 Q1949.94 1549.52 1946.86 1544.94 Q1943.8 1540.33 1943.8 1531.6 Q1943.8 1522.85 1946.86 1518.27 Q1949.94 1513.66 1955.75 1513.66 Z" fill="#000000" fill-rule="evenodd" fill-opacity="1" /><polyline clip-path="url(#clip183)" style="stroke:#000000; stroke-linecap:butt; stroke-linejoin:round; stroke-width:2; stroke-opacity:0.1; fill:none" points="
  534.832,1445.72 1974.04,1445.72 
  "/>
<polyline clip-path="url(#clip183)" style="stroke:#000000; stroke-linecap:butt; stroke-linejoin:round; stroke-width:2; stroke-opacity:0.1; fill:none" points="
  534.832,1106.28 1974.04,1106.28 
  "/>
<polyline clip-path="url(#clip183)" style="stroke:#000000; stroke-linecap:butt; stroke-linejoin:round; stroke-width:2; stroke-opacity:0.1; fill:none" points="
  534.832,766.846 1974.04,766.846 
  "/>
<polyline clip-path="url(#clip183)" style="stroke:#000000; stroke-linecap:butt; stroke-linejoin:round; stroke-width:2; stroke-opacity:0.1; fill:none" points="
  534.832,427.411 1974.04,427.411 
  "/>
<polyline clip-path="url(#clip183)" style="stroke:#000000; stroke-linecap:butt; stroke-linejoin:round; stroke-width:2; stroke-opacity:0.1; fill:none" points="
  534.832,87.9763 1974.04,87.9763 
  "/>
<polyline clip-path="url(#clip180)" style="stroke:#000000; stroke-linecap:butt; stroke-linejoin:round; stroke-width:4; stroke-opacity:1; fill:none" points="
  534.832,1486.45 534.832,47.2441 
  "/>
<polyline clip-path="url(#clip180)" style="stroke:#000000; stroke-linecap:butt; stroke-linejoin:round; stroke-width:4; stroke-opacity:1; fill:none" points="
  534.832,1445.72 547.214,1445.72 
  "/>
<polyline clip-path="url(#clip180)" style="stroke:#000000; stroke-linecap:butt; stroke-linejoin:round; stroke-width:4; stroke-opacity:1; fill:none" points="
  534.832,1106.28 547.214,1106.28 
  "/>
<polyline clip-path="url(#clip180)" style="stroke:#000000; stroke-linecap:butt; stroke-linejoin:round; stroke-width:4; stroke-opacity:1; fill:none" points="
  534.832,766.846 547.214,766.846 
  "/>
<polyline clip-path="url(#clip180)" style="stroke:#000000; stroke-linecap:butt; stroke-linejoin:round; stroke-width:4; stroke-opacity:1; fill:none" points="
  534.832,427.411 547.214,427.411 
  "/>
<polyline clip-path="url(#clip180)" style="stroke:#000000; stroke-linecap:butt; stroke-linejoin:round; stroke-width:4; stroke-opacity:1; fill:none" points="
  534.832,87.9763 547.214,87.9763 
  "/>
<path clip-path="url(#clip180)" d="M441.657 1431.51 Q438.045 1431.51 436.217 1435.08 Q434.411 1438.62 434.411 1445.75 Q434.411 1452.86 436.217 1456.42 Q438.045 1459.96 441.657 1459.96 Q445.291 1459.96 447.096 1456.42 Q448.925 1452.86 448.925 1445.75 Q448.925 1438.62 447.096 1435.08 Q445.291 1431.51 441.657 1431.51 M441.657 1427.81 Q447.467 1427.81 450.522 1432.42 Q453.601 1437 453.601 1445.75 Q453.601 1454.48 450.522 1459.08 Q447.467 1463.67 441.657 1463.67 Q435.846 1463.67 432.768 1459.08 Q429.712 1454.48 429.712 1445.75 Q429.712 1437 432.768 1432.42 Q435.846 1427.81 441.657 1427.81 Z" fill="#000000" fill-rule="evenodd" fill-opacity="1" /><path clip-path="url(#clip180)" d="M461.818 1457.12 L466.703 1457.12 L466.703 1463 L461.818 1463 L461.818 1457.12 Z" fill="#000000" fill-rule="evenodd" fill-opacity="1" /><path clip-path="url(#clip180)" d="M486.888 1431.51 Q483.277 1431.51 481.448 1435.08 Q479.642 1438.62 479.642 1445.75 Q479.642 1452.86 481.448 1456.42 Q483.277 1459.96 486.888 1459.96 Q490.522 1459.96 492.328 1456.42 Q494.156 1452.86 494.156 1445.75 Q494.156 1438.62 492.328 1435.08 Q490.522 1431.51 486.888 1431.51 M486.888 1427.81 Q492.698 1427.81 495.753 1432.42 Q498.832 1437 498.832 1445.75 Q498.832 1454.48 495.753 1459.08 Q492.698 1463.67 486.888 1463.67 Q481.078 1463.67 477.999 1459.08 Q474.943 1454.48 474.943 1445.75 Q474.943 1437 477.999 1432.42 Q481.078 1427.81 486.888 1427.81 Z" fill="#000000" fill-rule="evenodd" fill-opacity="1" /><path clip-path="url(#clip180)" d="M442.652 1092.08 Q439.041 1092.08 437.212 1095.64 Q435.407 1099.19 435.407 1106.32 Q435.407 1113.42 437.212 1116.99 Q439.041 1120.53 442.652 1120.53 Q446.286 1120.53 448.092 1116.99 Q449.92 1113.42 449.92 1106.32 Q449.92 1099.19 448.092 1095.64 Q446.286 1092.08 442.652 1092.08 M442.652 1088.38 Q448.462 1088.38 451.518 1092.98 Q454.596 1097.57 454.596 1106.32 Q454.596 1115.04 451.518 1119.65 Q448.462 1124.23 442.652 1124.23 Q436.842 1124.23 433.763 1119.65 Q430.707 1115.04 430.707 1106.32 Q430.707 1097.57 433.763 1092.98 Q436.842 1088.38 442.652 1088.38 Z" fill="#000000" fill-rule="evenodd" fill-opacity="1" /><path clip-path="url(#clip180)" d="M462.814 1117.68 L467.698 1117.68 L467.698 1123.56 L462.814 1123.56 L462.814 1117.68 Z" fill="#000000" fill-rule="evenodd" fill-opacity="1" /><path clip-path="url(#clip180)" d="M477.929 1089 L496.286 1089 L496.286 1092.94 L482.212 1092.94 L482.212 1101.41 Q483.23 1101.06 484.249 1100.9 Q485.267 1100.71 486.286 1100.71 Q492.073 1100.71 495.453 1103.89 Q498.832 1107.06 498.832 1112.47 Q498.832 1118.05 495.36 1121.15 Q491.888 1124.23 485.568 1124.23 Q483.392 1124.23 481.124 1123.86 Q478.879 1123.49 476.471 1122.75 L476.471 1118.05 Q478.554 1119.19 480.777 1119.74 Q482.999 1120.3 485.476 1120.3 Q489.48 1120.3 491.818 1118.19 Q494.156 1116.08 494.156 1112.47 Q494.156 1108.86 491.818 1106.76 Q489.48 1104.65 485.476 1104.65 Q483.601 1104.65 481.726 1105.07 Q479.874 1105.48 477.929 1106.36 L477.929 1089 Z" fill="#000000" fill-rule="evenodd" fill-opacity="1" /><path clip-path="url(#clip180)" d="M432.467 780.191 L440.106 780.191 L440.106 753.825 L431.795 755.492 L431.795 751.233 L440.059 749.566 L444.735 749.566 L444.735 780.191 L452.374 780.191 L452.374 784.126 L432.467 784.126 L432.467 780.191 Z" fill="#000000" fill-rule="evenodd" fill-opacity="1" /><path clip-path="url(#clip180)" d="M461.818 778.246 L466.703 778.246 L466.703 784.126 L461.818 784.126 L461.818 778.246 Z" fill="#000000" fill-rule="evenodd" fill-opacity="1" /><path clip-path="url(#clip180)" d="M486.888 752.645 Q483.277 752.645 481.448 756.209 Q479.642 759.751 479.642 766.881 Q479.642 773.987 481.448 777.552 Q483.277 781.094 486.888 781.094 Q490.522 781.094 492.328 777.552 Q494.156 773.987 494.156 766.881 Q494.156 759.751 492.328 756.209 Q490.522 752.645 486.888 752.645 M486.888 748.941 Q492.698 748.941 495.753 753.547 Q498.832 758.131 498.832 766.881 Q498.832 775.608 495.753 780.214 Q492.698 784.797 486.888 784.797 Q481.078 784.797 477.999 780.214 Q474.943 775.608 474.943 766.881 Q474.943 758.131 477.999 753.547 Q481.078 748.941 486.888 748.941 Z" fill="#000000" fill-rule="evenodd" fill-opacity="1" /><path clip-path="url(#clip180)" d="M433.462 440.756 L441.101 440.756 L441.101 414.39 L432.791 416.057 L432.791 411.798 L441.055 410.131 L445.731 410.131 L445.731 440.756 L453.369 440.756 L453.369 444.691 L433.462 444.691 L433.462 440.756 Z" fill="#000000" fill-rule="evenodd" fill-opacity="1" /><path clip-path="url(#clip180)" d="M462.814 438.812 L467.698 438.812 L467.698 444.691 L462.814 444.691 L462.814 438.812 Z" fill="#000000" fill-rule="evenodd" fill-opacity="1" /><path clip-path="url(#clip180)" d="M477.929 410.131 L496.286 410.131 L496.286 414.066 L482.212 414.066 L482.212 422.538 Q483.23 422.191 484.249 422.029 Q485.267 421.844 486.286 421.844 Q492.073 421.844 495.453 425.015 Q498.832 428.187 498.832 433.603 Q498.832 439.182 495.36 442.284 Q491.888 445.362 485.568 445.362 Q483.392 445.362 481.124 444.992 Q478.879 444.622 476.471 443.881 L476.471 439.182 Q478.554 440.316 480.777 440.872 Q482.999 441.427 485.476 441.427 Q489.48 441.427 491.818 439.321 Q494.156 437.214 494.156 433.603 Q494.156 429.992 491.818 427.886 Q489.48 425.779 485.476 425.779 Q483.601 425.779 481.726 426.196 Q479.874 426.613 477.929 427.492 L477.929 410.131 Z" fill="#000000" fill-rule="evenodd" fill-opacity="1" /><path clip-path="url(#clip180)" d="M435.684 101.321 L452.004 101.321 L452.004 105.256 L430.059 105.256 L430.059 101.321 Q432.721 98.5665 437.305 93.9369 Q441.911 89.2841 443.092 87.9416 Q445.337 85.4184 446.217 83.6823 Q447.119 81.9231 447.119 80.2333 Q447.119 77.4786 445.175 75.7425 Q443.254 74.0064 440.152 74.0064 Q437.953 74.0064 435.499 74.7703 Q433.069 75.5342 430.291 77.0851 L430.291 72.3629 Q433.115 71.2287 435.569 70.65 Q438.022 70.0713 440.059 70.0713 Q445.43 70.0713 448.624 72.7565 Q451.818 75.4416 451.818 79.9323 Q451.818 82.062 451.008 83.9832 Q450.221 85.8814 448.115 88.474 Q447.536 89.1453 444.434 92.3628 Q441.332 95.5573 435.684 101.321 Z" fill="#000000" fill-rule="evenodd" fill-opacity="1" /><path clip-path="url(#clip180)" d="M461.818 99.3767 L466.703 99.3767 L466.703 105.256 L461.818 105.256 L461.818 99.3767 Z" fill="#000000" fill-rule="evenodd" fill-opacity="1" /><path clip-path="url(#clip180)" d="M486.888 73.775 Q483.277 73.775 481.448 77.3398 Q479.642 80.8814 479.642 88.011 Q479.642 95.1174 481.448 98.6822 Q483.277 102.224 486.888 102.224 Q490.522 102.224 492.328 98.6822 Q494.156 95.1174 494.156 88.011 Q494.156 80.8814 492.328 77.3398 Q490.522 73.775 486.888 73.775 M486.888 70.0713 Q492.698 70.0713 495.753 74.6777 Q498.832 79.261 498.832 88.011 Q498.832 96.7378 495.753 101.344 Q492.698 105.928 486.888 105.928 Q481.078 105.928 477.999 101.344 Q474.943 96.7378 474.943 88.011 Q474.943 79.261 477.999 74.6777 Q481.078 70.0713 486.888 70.0713 Z" fill="#000000" fill-rule="evenodd" fill-opacity="1" /><polyline clip-path="url(#clip183)" style="stroke:#009af9; stroke-linecap:butt; stroke-linejoin:round; stroke-width:4; stroke-opacity:1; fill:none" points="
  -2818.78,-2627.5 -2774.59,-2583.3 -2365.91,-2174.63 -2120.31,-1929.03 -1912.66,-1721.38 -1687.1,-1495.82 -1479.15,-1287.87 -1256.2,-1064.92 -997.899,-806.617 -768.348,-577.067 
  -567.053,-375.772 -347.588,-156.306 -126.818,64.4638 117.271,308.553 349.516,540.798 590.997,782.279 794.272,985.554 1042.45,1233.73 1269.79,1461.08 1479.76,1671.05 
  1692.46,1883.74 1930.83,2122.11 2146.83,2338.11 2394.14,2585.42 2623.12,2814.4 2848.87,3040.16 3068.06,3259.34 3292.75,3484.04 3538.93,3730.21 3896.55,4087.83 
  3969.91,4161.19 
  "/>
<polyline clip-path="url(#clip183)" style="stroke:#000000; stroke-linecap:butt; stroke-linejoin:round; stroke-width:4; stroke-opacity:1; fill:none" stroke-dasharray="16, 10" points="
  575.564,766.846 575.564,1445.72 1254.43,1445.72 1254.43,8234.41 1254.43,-5342.98 
  "/>
<path clip-path="url(#clip183)" d="
M575.564 766.846 L582.353 773.635 L589.142 780.423 L595.93 787.212 L602.719 794.001 L609.508 800.789 L616.296 807.578 L623.085 814.367 L629.874 821.156 L636.663 827.944 
  L643.451 834.733 L650.24 841.522 L657.029 848.31 L663.817 855.099 L670.606 861.888 L677.395 868.676 L684.183 875.465 L690.972 882.254 L697.761 889.043 L704.55 895.831 
  L711.338 902.62 L718.127 909.409 L724.916 916.197 L731.704 922.986 L738.493 929.775 L745.282 936.563 L752.07 943.352 L758.859 950.141 L765.648 956.93 L772.437 963.718 
  L779.225 970.507 L786.014 977.296 L792.803 984.084 L799.591 990.873 L806.38 997.662 L813.169 1004.45 L819.957 1011.24 L826.746 1018.03 L833.535 1024.82 L840.323 1031.61 
  L847.112 1038.39 L853.901 1045.18 L860.69 1051.97 L867.478 1058.76 L874.267 1065.55 L881.056 1072.34 L887.844 1079.13 L894.633 1085.91 L901.422 1092.7 L908.21 1099.49 
  L914.999 1106.28 L921.788 1113.07 L928.577 1119.86 L935.365 1126.65 L942.154 1133.44 L948.943 1140.22 L955.731 1147.01 L962.52 1153.8 L969.309 1160.59 L976.097 1167.38 
  L982.886 1174.17 L989.675 1180.96 L996.464 1187.75 L1003.25 1194.53 L1010.04 1201.32 L1016.83 1208.11 L1023.62 1214.9 L1030.41 1221.69 L1037.2 1228.48 L1043.98 1235.27 
  L1050.77 1242.05 L1057.56 1248.84 L1064.35 1255.63 L1071.14 1262.42 L1077.93 1269.21 L1084.72 1276 L1091.51 1282.79 L1098.29 1289.58 L1105.08 1296.36 L1111.87 1303.15 
  L1118.66 1309.94 L1125.45 1316.73 L1132.24 1323.52 L1139.03 1330.31 L1145.81 1337.1 L1152.6 1343.89 L1159.39 1350.67 L1166.18 1357.46 L1172.97 1364.25 L1179.76 1371.04 
  L1186.55 1377.83 L1193.34 1384.62 L1200.12 1391.41 L1206.91 1398.19 L1213.7 1404.98 L1220.49 1411.77 L1227.28 1418.56 L1234.07 1425.35 L1240.86 1432.14 L1247.65 1438.93 
  L1254.43 1445.72 L1254.43 1445.72 L1247.65 1445.72 L1240.86 1445.72 L1234.07 1445.72 L1227.28 1445.72 L1220.49 1445.72 L1213.7 1445.72 L1206.91 1445.72 L1200.12 1445.72 
  L1193.34 1445.72 L1186.55 1445.72 L1179.76 1445.72 L1172.97 1445.72 L1166.18 1445.72 L1159.39 1445.72 L1152.6 1445.72 L1145.81 1445.72 L1139.03 1445.72 L1132.24 1445.72 
  L1125.45 1445.72 L1118.66 1445.72 L1111.87 1445.72 L1105.08 1445.72 L1098.29 1445.72 L1091.51 1445.72 L1084.72 1445.72 L1077.93 1445.72 L1071.14 1445.72 L1064.35 1445.72 
  L1057.56 1445.72 L1050.77 1445.72 L1043.98 1445.72 L1037.2 1445.72 L1030.41 1445.72 L1023.62 1445.72 L1016.83 1445.72 L1010.04 1445.72 L1003.25 1445.72 L996.464 1445.72 
  L989.675 1445.72 L982.886 1445.72 L976.097 1445.72 L969.309 1445.72 L962.52 1445.72 L955.731 1445.72 L948.943 1445.72 L942.154 1445.72 L935.365 1445.72 L928.577 1445.72 
  L921.788 1445.72 L914.999 1445.72 L908.21 1445.72 L901.422 1445.72 L894.633 1445.72 L887.844 1445.72 L881.056 1445.72 L874.267 1445.72 L867.478 1445.72 L860.69 1445.72 
  L853.901 1445.72 L847.112 1445.72 L840.323 1445.72 L833.535 1445.72 L826.746 1445.72 L819.957 1445.72 L813.169 1445.72 L806.38 1445.72 L799.591 1445.72 L792.803 1445.72 
  L786.014 1445.72 L779.225 1445.72 L772.437 1445.72 L765.648 1445.72 L758.859 1445.72 L752.07 1445.72 L745.282 1445.72 L738.493 1445.72 L731.704 1445.72 L724.916 1445.72 
  L718.127 1445.72 L711.338 1445.72 L704.55 1445.72 L697.761 1445.72 L690.972 1445.72 L684.183 1445.72 L677.395 1445.72 L670.606 1445.72 L663.817 1445.72 L657.029 1445.72 
  L650.24 1445.72 L643.451 1445.72 L636.663 1445.72 L629.874 1445.72 L623.085 1445.72 L616.296 1445.72 L609.508 1445.72 L602.719 1445.72 L595.93 1445.72 L589.142 1445.72 
  L582.353 1445.72 L575.564 1445.72  Z
  " fill="#009af9" fill-rule="evenodd" fill-opacity="0.3"/>
<polyline clip-path="url(#clip183)" style="stroke:#009af9; stroke-linecap:butt; stroke-linejoin:round; stroke-width:4; stroke-opacity:1; fill:none" points="
  575.564,766.846 582.353,773.635 589.142,780.423 595.93,787.212 602.719,794.001 609.508,800.789 616.296,807.578 623.085,814.367 629.874,821.156 636.663,827.944 
  643.451,834.733 650.24,841.522 657.029,848.31 663.817,855.099 670.606,861.888 677.395,868.676 684.183,875.465 690.972,882.254 697.761,889.043 704.55,895.831 
  711.338,902.62 718.127,909.409 724.916,916.197 731.704,922.986 738.493,929.775 745.282,936.563 752.07,943.352 758.859,950.141 765.648,956.93 772.437,963.718 
  779.225,970.507 786.014,977.296 792.803,984.084 799.591,990.873 806.38,997.662 813.169,1004.45 819.957,1011.24 826.746,1018.03 833.535,1024.82 840.323,1031.61 
  847.112,1038.39 853.901,1045.18 860.69,1051.97 867.478,1058.76 874.267,1065.55 881.056,1072.34 887.844,1079.13 894.633,1085.91 901.422,1092.7 908.21,1099.49 
  914.999,1106.28 921.788,1113.07 928.577,1119.86 935.365,1126.65 942.154,1133.44 948.943,1140.22 955.731,1147.01 962.52,1153.8 969.309,1160.59 976.097,1167.38 
  982.886,1174.17 989.675,1180.96 996.464,1187.75 1003.25,1194.53 1010.04,1201.32 1016.83,1208.11 1023.62,1214.9 1030.41,1221.69 1037.2,1228.48 1043.98,1235.27 
  1050.77,1242.05 1057.56,1248.84 1064.35,1255.63 1071.14,1262.42 1077.93,1269.21 1084.72,1276 1091.51,1282.79 1098.29,1289.58 1105.08,1296.36 1111.87,1303.15 
  1118.66,1309.94 1125.45,1316.73 1132.24,1323.52 1139.03,1330.31 1145.81,1337.1 1152.6,1343.89 1159.39,1350.67 1166.18,1357.46 1172.97,1364.25 1179.76,1371.04 
  1186.55,1377.83 1193.34,1384.62 1200.12,1391.41 1206.91,1398.19 1213.7,1404.98 1220.49,1411.77 1227.28,1418.56 1234.07,1425.35 1240.86,1432.14 1247.65,1438.93 
  1254.43,1445.72 
  "/>
<path clip-path="url(#clip180)" d="
M1455.46 198.898 L1900.81 198.898 L1900.81 95.2176 L1455.46 95.2176  Z
  " fill="#ffffff" fill-rule="evenodd" fill-opacity="1"/>
<polyline clip-path="url(#clip180)" style="stroke:#000000; stroke-linecap:butt; stroke-linejoin:round; stroke-width:4; stroke-opacity:1; fill:none" points="
  1455.46,198.898 1900.81,198.898 1900.81,95.2176 1455.46,95.2176 1455.46,198.898 
  "/>
<polyline clip-path="url(#clip180)" style="stroke:#009af9; stroke-linecap:butt; stroke-linejoin:round; stroke-width:4; stroke-opacity:1; fill:none" points="
  1479.86,147.058 1626.31,147.058 
  "/>
<path clip-path="url(#clip180)" d="M1672.85 145.552 Q1672.85 145.88 1672.64 146.653 L1668.05 164.97 Q1667.04 169.045 1663.76 171.903 Q1660.51 174.76 1656.8 174.76 Q1654.58 174.76 1653.15 173.566 Q1651.72 172.394 1651.72 170.591 Q1651.72 168.998 1652.57 168.225 Q1653.41 167.476 1654.42 167.476 Q1654.74 167.476 1655.09 167.569 Q1655.45 167.663 1655.82 168.061 Q1656.2 168.459 1656.2 169.139 Q1656.2 170.24 1655.24 171.106 Q1654.77 171.504 1654.32 171.598 Q1653.9 171.692 1653.17 171.692 Q1653.46 172.348 1653.97 172.793 Q1654.49 173.238 1655.07 173.402 Q1655.66 173.589 1656.03 173.636 Q1656.43 173.706 1656.8 173.706 Q1659.8 173.706 1662.1 170.685 Q1662.78 169.771 1663.27 168.858 Q1663.78 167.968 1664.16 166.867 Q1664.53 165.789 1664.7 165.204 Q1664.89 164.618 1665.21 163.283 Q1663.04 165.461 1660.36 165.461 Q1659.24 165.461 1658.23 165.157 Q1657.25 164.852 1656.38 164.22 Q1655.52 163.564 1655 162.416 Q1654.51 161.269 1654.51 159.746 Q1654.51 158.13 1655.14 155.928 Q1655.77 153.727 1657.3 149.675 Q1658.12 147.403 1658.12 146.302 Q1658.12 145.763 1658 145.435 Q1657.88 145.084 1657.65 144.967 Q1657.41 144.826 1657.27 144.803 Q1657.16 144.779 1656.92 144.779 Q1655.54 144.779 1654.25 146.185 Q1652.96 147.59 1652.07 150.729 Q1651.89 151.314 1651.77 151.455 Q1651.65 151.595 1651.3 151.595 Q1650.71 151.572 1650.71 151.103 Q1650.71 150.916 1650.93 150.19 Q1651.14 149.44 1651.63 148.34 Q1652.14 147.215 1652.85 146.208 Q1653.55 145.178 1654.65 144.451 Q1655.77 143.725 1657.06 143.725 Q1658.82 143.725 1659.9 144.873 Q1661 145.997 1661 147.66 Q1661 148.34 1660.81 148.949 Q1660.65 149.534 1660.04 151.103 Q1657.58 157.427 1657.58 160.519 Q1657.58 161.269 1657.69 161.901 Q1657.84 162.51 1658.14 163.119 Q1658.44 163.705 1659.05 164.056 Q1659.69 164.384 1660.55 164.384 Q1661.65 164.384 1662.68 163.869 Q1663.74 163.33 1664.39 162.604 Q1665.07 161.878 1665.47 161.269 Q1665.89 160.636 1665.99 160.308 L1668.14 151.689 L1669.1 147.848 Q1669.55 145.763 1669.76 145.248 Q1670.04 144.756 1670.53 144.498 Q1671.02 144.241 1671.44 144.241 Q1672.03 144.241 1672.43 144.592 Q1672.85 144.943 1672.85 145.552 Z" fill="#000000" fill-rule="evenodd" fill-opacity="1" /><path clip-path="url(#clip180)" d="M1687.28 157.638 Q1687.33 157.053 1688.24 157.053 L1717.64 157.053 Q1719.02 157.053 1719.04 157.591 Q1719.04 158.177 1717.73 158.154 L1688.57 158.154 Q1687.28 158.177 1687.28 157.638 M1687.28 148.269 Q1687.28 147.684 1688.29 147.707 L1717.59 147.707 Q1719.02 147.707 1719.04 148.269 Q1719.04 148.808 1717.83 148.808 L1688.24 148.808 Q1687.28 148.808 1687.28 148.269 Z" fill="#000000" fill-rule="evenodd" fill-opacity="1" /><path clip-path="url(#clip180)" d="M1737.53 137.542 L1737.53 136.043 Q1743.3 136.043 1746.27 132.974 Q1747.09 132.974 1747.23 133.162 Q1747.37 133.349 1747.37 134.216 L1747.37 161.128 Q1747.37 162.557 1748.07 163.002 Q1748.78 163.447 1751.85 163.447 L1753.37 163.447 L1753.37 164.923 Q1751.68 164.782 1745.59 164.782 Q1739.5 164.782 1737.84 164.923 L1737.84 163.447 L1739.36 163.447 Q1742.38 163.447 1743.11 163.025 Q1743.83 162.58 1743.83 161.128 L1743.83 136.277 Q1741.33 137.542 1737.53 137.542 Z" fill="#000000" fill-rule="evenodd" fill-opacity="1" /><path clip-path="url(#clip180)" d="M1806.26 152.251 Q1806.54 152.532 1806.54 152.93 Q1806.54 153.329 1806.26 153.61 Q1805.98 153.891 1805.58 153.891 L1775.55 153.891 Q1775.15 153.891 1774.87 153.61 Q1774.59 153.329 1774.59 152.93 Q1774.59 152.532 1774.87 152.251 Q1775.15 151.97 1775.55 151.97 L1805.58 151.97 Q1805.98 151.97 1806.26 152.251 Z" fill="#000000" fill-rule="evenodd" fill-opacity="1" /><path clip-path="url(#clip180)" d="M1848.73 146.887 Q1848.73 148.199 1847.91 148.949 Q1847.09 149.675 1846.16 149.675 Q1845.27 149.675 1844.8 149.159 Q1844.33 148.644 1844.33 147.988 Q1844.33 147.098 1844.98 146.325 Q1845.64 145.552 1846.62 145.388 Q1845.66 144.779 1844.23 144.779 Q1843.3 144.779 1842.48 145.271 Q1841.68 145.763 1841.19 146.396 Q1840.72 147.028 1840.3 147.941 Q1839.9 148.831 1839.74 149.37 Q1839.6 149.885 1839.48 150.448 L1837.84 157.006 Q1837.04 160.121 1837.04 161.222 Q1837.04 162.58 1837.7 163.494 Q1838.36 164.384 1839.67 164.384 Q1840.18 164.384 1840.77 164.243 Q1841.35 164.079 1842.1 163.658 Q1842.88 163.213 1843.56 162.557 Q1844.26 161.878 1844.94 160.73 Q1845.62 159.582 1846.06 158.107 Q1846.2 157.591 1846.67 157.591 Q1847.26 157.591 1847.26 158.06 Q1847.26 158.458 1846.93 159.301 Q1846.62 160.121 1845.94 161.199 Q1845.29 162.253 1844.42 163.213 Q1843.56 164.15 1842.27 164.806 Q1840.98 165.461 1839.57 165.461 Q1837.56 165.461 1836.22 164.384 Q1834.89 163.307 1834.4 161.807 Q1834.28 162.018 1834.12 162.299 Q1833.95 162.58 1833.46 163.213 Q1832.99 163.822 1832.45 164.29 Q1831.91 164.735 1831.07 165.087 Q1830.25 165.461 1829.36 165.461 Q1828.24 165.461 1827.23 165.133 Q1826.25 164.806 1825.54 164.056 Q1824.84 163.307 1824.84 162.276 Q1824.84 161.128 1825.61 160.332 Q1826.41 159.512 1827.49 159.512 Q1828.17 159.512 1828.71 159.91 Q1829.27 160.308 1829.27 161.175 Q1829.27 162.135 1828.61 162.862 Q1827.96 163.588 1827.02 163.775 Q1827.98 164.384 1829.41 164.384 Q1830.95 164.384 1832.17 163.025 Q1833.39 161.667 1833.98 159.395 Q1835.43 153.938 1835.99 151.502 Q1836.55 149.042 1836.55 147.988 Q1836.55 147.005 1836.29 146.325 Q1836.04 145.646 1835.59 145.342 Q1835.17 145.014 1834.77 144.896 Q1834.4 144.779 1833.98 144.779 Q1833.27 144.779 1832.48 145.06 Q1831.7 145.342 1830.77 145.997 Q1829.85 146.63 1828.99 147.941 Q1828.12 149.253 1827.53 151.057 Q1827.42 151.595 1826.9 151.595 Q1826.34 151.572 1826.34 151.103 Q1826.34 150.705 1826.64 149.885 Q1826.97 149.042 1827.63 147.988 Q1828.31 146.934 1829.17 145.997 Q1830.06 145.037 1831.35 144.381 Q1832.66 143.725 1834.07 143.725 Q1834.7 143.725 1835.31 143.866 Q1835.94 143.983 1836.69 144.334 Q1837.47 144.686 1838.14 145.459 Q1838.82 146.232 1839.25 147.356 Q1839.53 146.817 1839.9 146.302 Q1840.3 145.787 1840.91 145.154 Q1841.54 144.498 1842.41 144.124 Q1843.3 143.725 1844.28 143.725 Q1845.24 143.725 1846.18 143.983 Q1847.12 144.217 1847.91 144.99 Q1848.73 145.74 1848.73 146.887 Z" fill="#000000" fill-rule="evenodd" fill-opacity="1" /></svg>
