<?xml version="1.0" encoding="utf-8"?>
<svg xmlns="http://www.w3.org/2000/svg" xmlns:xlink="http://www.w3.org/1999/xlink" width="600" height="400" viewBox="0 0 2400 1600">
<defs>
  <clipPath id="clip340">
    <rect x="0" y="0" width="2400" height="1600"/>
  </clipPath>
</defs>
<path clip-path="url(#clip340)" d="
M0 1600 L2400 1600 L2400 0 L0 0  Z
  " fill="#ffffff" fill-rule="evenodd" fill-opacity="1"/>
<defs>
  <clipPath id="clip341">
    <rect x="480" y="0" width="1681" height="1600"/>
  </clipPath>
</defs>
<defs>
  <clipPath id="clip342">
    <rect x="209" y="47" width="1440" height="1440"/>
  </clipPath>
</defs>
<path clip-path="url(#clip340)" d="
M293.637 1486.45 L1732.84 1486.45 L1732.84 47.2441 L293.637 47.2441  Z
  " fill="#ffffff" fill-rule="evenodd" fill-opacity="1"/>
<defs>
  <clipPath id="clip343">
    <rect x="293" y="47" width="1440" height="1440"/>
  </clipPath>
</defs>
<polyline clip-path="url(#clip343)" style="stroke:#000000; stroke-linecap:butt; stroke-linejoin:round; stroke-width:2; stroke-opacity:0.1; fill:none" points="
  491.032,1486.45 491.032,47.2441 
  "/>
<polyline clip-path="url(#clip343)" style="stroke:#000000; stroke-linecap:butt; stroke-linejoin:round; stroke-width:2; stroke-opacity:0.1; fill:none" points="
  752.135,1486.45 752.135,47.2441 
  "/>
<polyline clip-path="url(#clip343)" style="stroke:#000000; stroke-linecap:butt; stroke-linejoin:round; stroke-width:2; stroke-opacity:0.1; fill:none" points="
  1013.24,1486.45 1013.24,47.2441 
  "/>
<polyline clip-path="url(#clip343)" style="stroke:#000000; stroke-linecap:butt; stroke-linejoin:round; stroke-width:2; stroke-opacity:0.1; fill:none" points="
  1274.34,1486.45 1274.34,47.2441 
  "/>
<polyline clip-path="url(#clip343)" style="stroke:#000000; stroke-linecap:butt; stroke-linejoin:round; stroke-width:2; stroke-opacity:0.1; fill:none" points="
  1535.45,1486.45 1535.45,47.2441 
  "/>
<polyline clip-path="url(#clip340)" style="stroke:#000000; stroke-linecap:butt; stroke-linejoin:round; stroke-width:4; stroke-opacity:1; fill:none" points="
  293.637,1486.45 1732.84,1486.45 
  "/>
<polyline clip-path="url(#clip340)" style="stroke:#000000; stroke-linecap:butt; stroke-linejoin:round; stroke-width:4; stroke-opacity:1; fill:none" points="
  491.032,1486.45 491.032,1467.55 
  "/>
<polyline clip-path="url(#clip340)" style="stroke:#000000; stroke-linecap:butt; stroke-linejoin:round; stroke-width:4; stroke-opacity:1; fill:none" points="
  752.135,1486.45 752.135,1467.55 
  "/>
<polyline clip-path="url(#clip340)" style="stroke:#000000; stroke-linecap:butt; stroke-linejoin:round; stroke-width:4; stroke-opacity:1; fill:none" points="
  1013.24,1486.45 1013.24,1467.55 
  "/>
<polyline clip-path="url(#clip340)" style="stroke:#000000; stroke-linecap:butt; stroke-linejoin:round; stroke-width:4; stroke-opacity:1; fill:none" points="
  1274.34,1486.45 1274.34,1467.55 
  "/>
<polyline clip-path="url(#clip340)" style="stroke:#000000; stroke-linecap:butt; stroke-linejoin:round; stroke-width:4; stroke-opacity:1; fill:none" points="
  1535.45,1486.45 1535.45,1467.55 
  "/>
<path clip-path="url(#clip340)" d="M453.335 1517.37 Q449.724 1517.37 447.895 1520.93 Q446.09 1524.47 446.09 1531.6 Q446.09 1538.71 447.895 1542.27 Q449.724 1545.82 453.335 1545.82 Q456.969 1545.82 458.775 1542.27 Q460.604 1538.71 460.604 1531.6 Q460.604 1524.47 458.775 1520.93 Q456.969 1517.37 453.335 1517.37 M453.335 1513.66 Q459.145 1513.66 462.201 1518.27 Q465.28 1522.85 465.28 1531.6 Q465.28 1540.33 462.201 1544.94 Q459.145 1549.52 453.335 1549.52 Q447.525 1549.52 444.446 1544.94 Q441.391 1540.33 441.391 1531.6 Q441.391 1522.85 444.446 1518.27 Q447.525 1513.66 453.335 1513.66 Z" fill="#000000" fill-rule="evenodd" fill-opacity="1" /><path clip-path="url(#clip340)" d="M473.497 1542.97 L478.381 1542.97 L478.381 1548.85 L473.497 1548.85 L473.497 1542.97 Z" fill="#000000" fill-rule="evenodd" fill-opacity="1" /><path clip-path="url(#clip340)" d="M498.566 1517.37 Q494.955 1517.37 493.127 1520.93 Q491.321 1524.47 491.321 1531.6 Q491.321 1538.71 493.127 1542.27 Q494.955 1545.82 498.566 1545.82 Q502.201 1545.82 504.006 1542.27 Q505.835 1538.71 505.835 1531.6 Q505.835 1524.47 504.006 1520.93 Q502.201 1517.37 498.566 1517.37 M498.566 1513.66 Q504.377 1513.66 507.432 1518.27 Q510.511 1522.85 510.511 1531.6 Q510.511 1540.33 507.432 1544.94 Q504.377 1549.52 498.566 1549.52 Q492.756 1549.52 489.678 1544.94 Q486.622 1540.33 486.622 1531.6 Q486.622 1522.85 489.678 1518.27 Q492.756 1513.66 498.566 1513.66 Z" fill="#000000" fill-rule="evenodd" fill-opacity="1" /><path clip-path="url(#clip340)" d="M528.728 1517.37 Q525.117 1517.37 523.288 1520.93 Q521.483 1524.47 521.483 1531.6 Q521.483 1538.71 523.288 1542.27 Q525.117 1545.82 528.728 1545.82 Q532.363 1545.82 534.168 1542.27 Q535.997 1538.71 535.997 1531.6 Q535.997 1524.47 534.168 1520.93 Q532.363 1517.37 528.728 1517.37 M528.728 1513.66 Q534.538 1513.66 537.594 1518.27 Q540.673 1522.85 540.673 1531.6 Q540.673 1540.33 537.594 1544.94 Q534.538 1549.52 528.728 1549.52 Q522.918 1549.52 519.839 1544.94 Q516.784 1540.33 516.784 1531.6 Q516.784 1522.85 519.839 1518.27 Q522.918 1513.66 528.728 1513.66 Z" fill="#000000" fill-rule="evenodd" fill-opacity="1" /><path clip-path="url(#clip340)" d="M714.937 1517.37 Q711.325 1517.37 709.497 1520.93 Q707.691 1524.47 707.691 1531.6 Q707.691 1538.71 709.497 1542.27 Q711.325 1545.82 714.937 1545.82 Q718.571 1545.82 720.376 1542.27 Q722.205 1538.71 722.205 1531.6 Q722.205 1524.47 720.376 1520.93 Q718.571 1517.37 714.937 1517.37 M714.937 1513.66 Q720.747 1513.66 723.802 1518.27 Q726.881 1522.85 726.881 1531.6 Q726.881 1540.33 723.802 1544.94 Q720.747 1549.52 714.937 1549.52 Q709.126 1549.52 706.048 1544.94 Q702.992 1540.33 702.992 1531.6 Q702.992 1522.85 706.048 1518.27 Q709.126 1513.66 714.937 1513.66 Z" fill="#000000" fill-rule="evenodd" fill-opacity="1" /><path clip-path="url(#clip340)" d="M735.098 1542.97 L739.983 1542.97 L739.983 1548.85 L735.098 1548.85 L735.098 1542.97 Z" fill="#000000" fill-rule="evenodd" fill-opacity="1" /><path clip-path="url(#clip340)" d="M754.196 1544.91 L770.515 1544.91 L770.515 1548.85 L748.571 1548.85 L748.571 1544.91 Q751.233 1542.16 755.816 1537.53 Q760.422 1532.88 761.603 1531.53 Q763.848 1529.01 764.728 1527.27 Q765.631 1525.51 765.631 1523.82 Q765.631 1521.07 763.686 1519.33 Q761.765 1517.6 758.663 1517.6 Q756.464 1517.6 754.01 1518.36 Q751.58 1519.13 748.802 1520.68 L748.802 1515.95 Q751.626 1514.82 754.08 1514.24 Q756.534 1513.66 758.571 1513.66 Q763.941 1513.66 767.135 1516.35 Q770.33 1519.03 770.33 1523.52 Q770.33 1525.65 769.52 1527.57 Q768.733 1529.47 766.626 1532.07 Q766.047 1532.74 762.946 1535.95 Q759.844 1539.15 754.196 1544.91 Z" fill="#000000" fill-rule="evenodd" fill-opacity="1" /><path clip-path="url(#clip340)" d="M780.376 1514.29 L798.732 1514.29 L798.732 1518.22 L784.658 1518.22 L784.658 1526.7 Q785.677 1526.35 786.695 1526.19 Q787.714 1526 788.732 1526 Q794.519 1526 797.899 1529.17 Q801.279 1532.34 801.279 1537.76 Q801.279 1543.34 797.806 1546.44 Q794.334 1549.52 788.015 1549.52 Q785.839 1549.52 783.57 1549.15 Q781.325 1548.78 778.918 1548.04 L778.918 1543.34 Q781.001 1544.47 783.223 1545.03 Q785.445 1545.58 787.922 1545.58 Q791.927 1545.58 794.265 1543.48 Q796.603 1541.37 796.603 1537.76 Q796.603 1534.15 794.265 1532.04 Q791.927 1529.94 787.922 1529.94 Q786.047 1529.94 784.172 1530.35 Q782.32 1530.77 780.376 1531.65 L780.376 1514.29 Z" fill="#000000" fill-rule="evenodd" fill-opacity="1" /><path clip-path="url(#clip340)" d="M975.543 1517.37 Q971.932 1517.37 970.103 1520.93 Q968.297 1524.47 968.297 1531.6 Q968.297 1538.71 970.103 1542.27 Q971.932 1545.82 975.543 1545.82 Q979.177 1545.82 980.982 1542.27 Q982.811 1538.71 982.811 1531.6 Q982.811 1524.47 980.982 1520.93 Q979.177 1517.37 975.543 1517.37 M975.543 1513.66 Q981.353 1513.66 984.408 1518.27 Q987.487 1522.85 987.487 1531.6 Q987.487 1540.33 984.408 1544.94 Q981.353 1549.52 975.543 1549.52 Q969.732 1549.52 966.654 1544.94 Q963.598 1540.33 963.598 1531.6 Q963.598 1522.85 966.654 1518.27 Q969.732 1513.66 975.543 1513.66 Z" fill="#000000" fill-rule="evenodd" fill-opacity="1" /><path clip-path="url(#clip340)" d="M995.705 1542.97 L1000.59 1542.97 L1000.59 1548.85 L995.705 1548.85 L995.705 1542.97 Z" fill="#000000" fill-rule="evenodd" fill-opacity="1" /><path clip-path="url(#clip340)" d="M1010.82 1514.29 L1029.18 1514.29 L1029.18 1518.22 L1015.1 1518.22 L1015.1 1526.7 Q1016.12 1526.35 1017.14 1526.19 Q1018.16 1526 1019.18 1526 Q1024.96 1526 1028.34 1529.17 Q1031.72 1532.34 1031.72 1537.76 Q1031.72 1543.34 1028.25 1546.44 Q1024.78 1549.52 1018.46 1549.52 Q1016.28 1549.52 1014.01 1549.15 Q1011.77 1548.78 1009.36 1548.04 L1009.36 1543.34 Q1011.45 1544.47 1013.67 1545.03 Q1015.89 1545.58 1018.37 1545.58 Q1022.37 1545.58 1024.71 1543.48 Q1027.05 1541.37 1027.05 1537.76 Q1027.05 1534.15 1024.71 1532.04 Q1022.37 1529.94 1018.37 1529.94 Q1016.49 1529.94 1014.62 1530.35 Q1012.76 1530.77 1010.82 1531.65 L1010.82 1514.29 Z" fill="#000000" fill-rule="evenodd" fill-opacity="1" /><path clip-path="url(#clip340)" d="M1050.94 1517.37 Q1047.32 1517.37 1045.5 1520.93 Q1043.69 1524.47 1043.69 1531.6 Q1043.69 1538.71 1045.5 1542.27 Q1047.32 1545.82 1050.94 1545.82 Q1054.57 1545.82 1056.38 1542.27 Q1058.2 1538.71 1058.2 1531.6 Q1058.2 1524.47 1056.38 1520.93 Q1054.57 1517.37 1050.94 1517.37 M1050.94 1513.66 Q1056.75 1513.66 1059.8 1518.27 Q1062.88 1522.85 1062.88 1531.6 Q1062.88 1540.33 1059.8 1544.94 Q1056.75 1549.52 1050.94 1549.52 Q1045.13 1549.52 1042.05 1544.94 Q1038.99 1540.33 1038.99 1531.6 Q1038.99 1522.85 1042.05 1518.27 Q1045.13 1513.66 1050.94 1513.66 Z" fill="#000000" fill-rule="evenodd" fill-opacity="1" /><path clip-path="url(#clip340)" d="M1237.14 1517.37 Q1233.53 1517.37 1231.7 1520.93 Q1229.9 1524.47 1229.9 1531.6 Q1229.9 1538.71 1231.7 1542.27 Q1233.53 1545.82 1237.14 1545.82 Q1240.78 1545.82 1242.58 1542.27 Q1244.41 1538.71 1244.41 1531.6 Q1244.41 1524.47 1242.58 1520.93 Q1240.78 1517.37 1237.14 1517.37 M1237.14 1513.66 Q1242.95 1513.66 1246.01 1518.27 Q1249.09 1522.85 1249.09 1531.6 Q1249.09 1540.33 1246.01 1544.94 Q1242.95 1549.52 1237.14 1549.52 Q1231.33 1549.52 1228.26 1544.94 Q1225.2 1540.33 1225.2 1531.6 Q1225.2 1522.85 1228.26 1518.27 Q1231.33 1513.66 1237.14 1513.66 Z" fill="#000000" fill-rule="evenodd" fill-opacity="1" /><path clip-path="url(#clip340)" d="M1257.31 1542.97 L1262.19 1542.97 L1262.19 1548.85 L1257.31 1548.85 L1257.31 1542.97 Z" fill="#000000" fill-rule="evenodd" fill-opacity="1" /><path clip-path="url(#clip340)" d="M1271.19 1514.29 L1293.42 1514.29 L1293.42 1516.28 L1280.87 1548.85 L1275.99 1548.85 L1287.79 1518.22 L1271.19 1518.22 L1271.19 1514.29 Z" fill="#000000" fill-rule="evenodd" fill-opacity="1" /><path clip-path="url(#clip340)" d="M1302.58 1514.29 L1320.94 1514.29 L1320.94 1518.22 L1306.87 1518.22 L1306.87 1526.7 Q1307.88 1526.35 1308.9 1526.19 Q1309.92 1526 1310.94 1526 Q1316.73 1526 1320.11 1529.17 Q1323.49 1532.34 1323.49 1537.76 Q1323.49 1543.34 1320.01 1546.44 Q1316.54 1549.52 1310.22 1549.52 Q1308.05 1549.52 1305.78 1549.15 Q1303.53 1548.78 1301.13 1548.04 L1301.13 1543.34 Q1303.21 1544.47 1305.43 1545.03 Q1307.65 1545.58 1310.13 1545.58 Q1314.13 1545.58 1316.47 1543.48 Q1318.81 1541.37 1318.81 1537.76 Q1318.81 1534.15 1316.47 1532.04 Q1314.13 1529.94 1310.13 1529.94 Q1308.25 1529.94 1306.38 1530.35 Q1304.53 1530.77 1302.58 1531.65 L1302.58 1514.29 Z" fill="#000000" fill-rule="evenodd" fill-opacity="1" /><path clip-path="url(#clip340)" d="M1487.52 1544.91 L1495.16 1544.91 L1495.16 1518.55 L1486.85 1520.21 L1486.85 1515.95 L1495.11 1514.29 L1499.79 1514.29 L1499.79 1544.91 L1507.43 1544.91 L1507.43 1548.85 L1487.52 1548.85 L1487.52 1544.91 Z" fill="#000000" fill-rule="evenodd" fill-opacity="1" /><path clip-path="url(#clip340)" d="M1516.87 1542.97 L1521.75 1542.97 L1521.75 1548.85 L1516.87 1548.85 L1516.87 1542.97 Z" fill="#000000" fill-rule="evenodd" fill-opacity="1" /><path clip-path="url(#clip340)" d="M1541.94 1517.37 Q1538.33 1517.37 1536.5 1520.93 Q1534.69 1524.47 1534.69 1531.6 Q1534.69 1538.71 1536.5 1542.27 Q1538.33 1545.82 1541.94 1545.82 Q1545.57 1545.82 1547.38 1542.27 Q1549.21 1538.71 1549.21 1531.6 Q1549.21 1524.47 1547.38 1520.93 Q1545.57 1517.37 1541.94 1517.37 M1541.94 1513.66 Q1547.75 1513.66 1550.81 1518.27 Q1553.88 1522.85 1553.88 1531.6 Q1553.88 1540.33 1550.81 1544.94 Q1547.75 1549.52 1541.94 1549.52 Q1536.13 1549.52 1533.05 1544.94 Q1530 1540.33 1530 1531.6 Q1530 1522.85 1533.05 1518.27 Q1536.13 1513.66 1541.94 1513.66 Z" fill="#000000" fill-rule="evenodd" fill-opacity="1" /><path clip-path="url(#clip340)" d="M1572.1 1517.37 Q1568.49 1517.37 1566.66 1520.93 Q1564.86 1524.47 1564.86 1531.6 Q1564.86 1538.71 1566.66 1542.27 Q1568.49 1545.82 1572.1 1545.82 Q1575.74 1545.82 1577.54 1542.27 Q1579.37 1538.71 1579.37 1531.6 Q1579.37 1524.47 1577.54 1520.93 Q1575.74 1517.37 1572.1 1517.37 M1572.1 1513.66 Q1577.91 1513.66 1580.97 1518.27 Q1584.05 1522.85 1584.05 1531.6 Q1584.05 1540.33 1580.97 1544.94 Q1577.91 1549.52 1572.1 1549.52 Q1566.29 1549.52 1563.21 1544.94 Q1560.16 1540.33 1560.16 1531.6 Q1560.16 1522.85 1563.21 1518.27 Q1566.29 1513.66 1572.1 1513.66 Z" fill="#000000" fill-rule="evenodd" fill-opacity="1" /><polyline clip-path="url(#clip343)" style="stroke:#000000; stroke-linecap:butt; stroke-linejoin:round; stroke-width:2; stroke-opacity:0.1; fill:none" points="
  293.637,1289.05 1732.84,1289.05 
  "/>
<polyline clip-path="url(#clip343)" style="stroke:#000000; stroke-linecap:butt; stroke-linejoin:round; stroke-width:2; stroke-opacity:0.1; fill:none" points="
  293.637,1027.95 1732.84,1027.95 
  "/>
<polyline clip-path="url(#clip343)" style="stroke:#000000; stroke-linecap:butt; stroke-linejoin:round; stroke-width:2; stroke-opacity:0.1; fill:none" points="
  293.637,766.846 1732.84,766.846 
  "/>
<polyline clip-path="url(#clip343)" style="stroke:#000000; stroke-linecap:butt; stroke-linejoin:round; stroke-width:2; stroke-opacity:0.1; fill:none" points="
  293.637,505.742 1732.84,505.742 
  "/>
<polyline clip-path="url(#clip343)" style="stroke:#000000; stroke-linecap:butt; stroke-linejoin:round; stroke-width:2; stroke-opacity:0.1; fill:none" points="
  293.637,244.639 1732.84,244.639 
  "/>
<polyline clip-path="url(#clip340)" style="stroke:#000000; stroke-linecap:butt; stroke-linejoin:round; stroke-width:4; stroke-opacity:1; fill:none" points="
  293.637,1486.45 293.637,47.2441 
  "/>
<polyline clip-path="url(#clip340)" style="stroke:#000000; stroke-linecap:butt; stroke-linejoin:round; stroke-width:4; stroke-opacity:1; fill:none" points="
  293.637,1289.05 306.191,1289.05 
  "/>
<polyline clip-path="url(#clip340)" style="stroke:#000000; stroke-linecap:butt; stroke-linejoin:round; stroke-width:4; stroke-opacity:1; fill:none" points="
  293.637,1027.95 306.191,1027.95 
  "/>
<polyline clip-path="url(#clip340)" style="stroke:#000000; stroke-linecap:butt; stroke-linejoin:round; stroke-width:4; stroke-opacity:1; fill:none" points="
  293.637,766.846 306.191,766.846 
  "/>
<polyline clip-path="url(#clip340)" style="stroke:#000000; stroke-linecap:butt; stroke-linejoin:round; stroke-width:4; stroke-opacity:1; fill:none" points="
  293.637,505.742 306.191,505.742 
  "/>
<polyline clip-path="url(#clip340)" style="stroke:#000000; stroke-linecap:butt; stroke-linejoin:round; stroke-width:4; stroke-opacity:1; fill:none" points="
  293.637,244.639 306.191,244.639 
  "/>
<path clip-path="url(#clip340)" d="M170.3 1274.85 Q166.689 1274.85 164.86 1278.42 Q163.054 1281.96 163.054 1289.09 Q163.054 1296.19 164.86 1299.76 Q166.689 1303.3 170.3 1303.3 Q173.934 1303.3 175.74 1299.76 Q177.568 1296.19 177.568 1289.09 Q177.568 1281.96 175.74 1278.42 Q173.934 1274.85 170.3 1274.85 M170.3 1271.15 Q176.11 1271.15 179.165 1275.75 Q182.244 1280.34 182.244 1289.09 Q182.244 1297.81 179.165 1302.42 Q176.11 1307 170.3 1307 Q164.49 1307 161.411 1302.42 Q158.355 1297.81 158.355 1289.09 Q158.355 1280.34 161.411 1275.75 Q164.49 1271.15 170.3 1271.15 Z" fill="#000000" fill-rule="evenodd" fill-opacity="1" /><path clip-path="url(#clip340)" d="M190.462 1300.45 L195.346 1300.45 L195.346 1306.33 L190.462 1306.33 L190.462 1300.45 Z" fill="#000000" fill-rule="evenodd" fill-opacity="1" /><path clip-path="url(#clip340)" d="M215.531 1274.85 Q211.92 1274.85 210.091 1278.42 Q208.286 1281.96 208.286 1289.09 Q208.286 1296.19 210.091 1299.76 Q211.92 1303.3 215.531 1303.3 Q219.165 1303.3 220.971 1299.76 Q222.8 1296.19 222.8 1289.09 Q222.8 1281.96 220.971 1278.42 Q219.165 1274.85 215.531 1274.85 M215.531 1271.15 Q221.341 1271.15 224.397 1275.75 Q227.475 1280.34 227.475 1289.09 Q227.475 1297.81 224.397 1302.42 Q221.341 1307 215.531 1307 Q209.721 1307 206.642 1302.42 Q203.587 1297.81 203.587 1289.09 Q203.587 1280.34 206.642 1275.75 Q209.721 1271.15 215.531 1271.15 Z" fill="#000000" fill-rule="evenodd" fill-opacity="1" /><path clip-path="url(#clip340)" d="M245.693 1274.85 Q242.082 1274.85 240.253 1278.42 Q238.448 1281.96 238.448 1289.09 Q238.448 1296.19 240.253 1299.76 Q242.082 1303.3 245.693 1303.3 Q249.327 1303.3 251.133 1299.76 Q252.961 1296.19 252.961 1289.09 Q252.961 1281.96 251.133 1278.42 Q249.327 1274.85 245.693 1274.85 M245.693 1271.15 Q251.503 1271.15 254.559 1275.75 Q257.637 1280.34 257.637 1289.09 Q257.637 1297.81 254.559 1302.42 Q251.503 1307 245.693 1307 Q239.883 1307 236.804 1302.42 Q233.749 1297.81 233.749 1289.09 Q233.749 1280.34 236.804 1275.75 Q239.883 1271.15 245.693 1271.15 Z" fill="#000000" fill-rule="evenodd" fill-opacity="1" /><path clip-path="url(#clip340)" d="M171.295 1013.75 Q167.684 1013.75 165.855 1017.31 Q164.05 1020.85 164.05 1027.98 Q164.05 1035.09 165.855 1038.66 Q167.684 1042.2 171.295 1042.2 Q174.929 1042.2 176.735 1038.66 Q178.564 1035.09 178.564 1027.98 Q178.564 1020.85 176.735 1017.31 Q174.929 1013.75 171.295 1013.75 M171.295 1010.04 Q177.105 1010.04 180.161 1014.65 Q183.24 1019.23 183.24 1027.98 Q183.24 1036.71 180.161 1041.32 Q177.105 1045.9 171.295 1045.9 Q165.485 1045.9 162.406 1041.32 Q159.351 1036.71 159.351 1027.98 Q159.351 1019.23 162.406 1014.65 Q165.485 1010.04 171.295 1010.04 Z" fill="#000000" fill-rule="evenodd" fill-opacity="1" /><path clip-path="url(#clip340)" d="M191.457 1039.35 L196.341 1039.35 L196.341 1045.23 L191.457 1045.23 L191.457 1039.35 Z" fill="#000000" fill-rule="evenodd" fill-opacity="1" /><path clip-path="url(#clip340)" d="M210.554 1041.29 L226.874 1041.29 L226.874 1045.23 L204.929 1045.23 L204.929 1041.29 Q207.591 1038.54 212.175 1033.91 Q216.781 1029.26 217.962 1027.91 Q220.207 1025.39 221.087 1023.66 Q221.989 1021.9 221.989 1020.21 Q221.989 1017.45 220.045 1015.72 Q218.124 1013.98 215.022 1013.98 Q212.823 1013.98 210.369 1014.74 Q207.938 1015.51 205.161 1017.06 L205.161 1012.34 Q207.985 1011.2 210.438 1010.62 Q212.892 1010.04 214.929 1010.04 Q220.3 1010.04 223.494 1012.73 Q226.688 1015.42 226.688 1019.91 Q226.688 1022.04 225.878 1023.96 Q225.091 1025.85 222.985 1028.45 Q222.406 1029.12 219.304 1032.34 Q216.202 1035.53 210.554 1041.29 Z" fill="#000000" fill-rule="evenodd" fill-opacity="1" /><path clip-path="url(#clip340)" d="M236.735 1010.67 L255.091 1010.67 L255.091 1014.6 L241.017 1014.6 L241.017 1023.08 Q242.036 1022.73 243.054 1022.57 Q244.073 1022.38 245.091 1022.38 Q250.878 1022.38 254.258 1025.55 Q257.637 1028.73 257.637 1034.14 Q257.637 1039.72 254.165 1042.82 Q250.693 1045.9 244.373 1045.9 Q242.198 1045.9 239.929 1045.53 Q237.684 1045.16 235.276 1044.42 L235.276 1039.72 Q237.36 1040.85 239.582 1041.41 Q241.804 1041.97 244.281 1041.97 Q248.285 1041.97 250.623 1039.86 Q252.961 1037.75 252.961 1034.14 Q252.961 1030.53 250.623 1028.42 Q248.285 1026.32 244.281 1026.32 Q242.406 1026.32 240.531 1026.73 Q238.679 1027.15 236.735 1028.03 L236.735 1010.67 Z" fill="#000000" fill-rule="evenodd" fill-opacity="1" /><path clip-path="url(#clip340)" d="M170.3 752.645 Q166.689 752.645 164.86 756.209 Q163.054 759.751 163.054 766.881 Q163.054 773.987 164.86 777.552 Q166.689 781.094 170.3 781.094 Q173.934 781.094 175.74 777.552 Q177.568 773.987 177.568 766.881 Q177.568 759.751 175.74 756.209 Q173.934 752.645 170.3 752.645 M170.3 748.941 Q176.11 748.941 179.165 753.547 Q182.244 758.131 182.244 766.881 Q182.244 775.608 179.165 780.214 Q176.11 784.797 170.3 784.797 Q164.49 784.797 161.411 780.214 Q158.355 775.608 158.355 766.881 Q158.355 758.131 161.411 753.547 Q164.49 748.941 170.3 748.941 Z" fill="#000000" fill-rule="evenodd" fill-opacity="1" /><path clip-path="url(#clip340)" d="M190.462 778.246 L195.346 778.246 L195.346 784.126 L190.462 784.126 L190.462 778.246 Z" fill="#000000" fill-rule="evenodd" fill-opacity="1" /><path clip-path="url(#clip340)" d="M205.577 749.566 L223.934 749.566 L223.934 753.501 L209.86 753.501 L209.86 761.973 Q210.878 761.626 211.897 761.464 Q212.915 761.279 213.934 761.279 Q219.721 761.279 223.1 764.45 Q226.48 767.621 226.48 773.038 Q226.48 778.617 223.008 781.719 Q219.536 784.797 213.216 784.797 Q211.04 784.797 208.772 784.427 Q206.526 784.057 204.119 783.316 L204.119 778.617 Q206.202 779.751 208.425 780.307 Q210.647 780.862 213.124 780.862 Q217.128 780.862 219.466 778.756 Q221.804 776.649 221.804 773.038 Q221.804 769.427 219.466 767.321 Q217.128 765.214 213.124 765.214 Q211.249 765.214 209.374 765.631 Q207.522 766.047 205.577 766.927 L205.577 749.566 Z" fill="#000000" fill-rule="evenodd" fill-opacity="1" /><path clip-path="url(#clip340)" d="M245.693 752.645 Q242.082 752.645 240.253 756.209 Q238.448 759.751 238.448 766.881 Q238.448 773.987 240.253 777.552 Q242.082 781.094 245.693 781.094 Q249.327 781.094 251.133 777.552 Q252.961 773.987 252.961 766.881 Q252.961 759.751 251.133 756.209 Q249.327 752.645 245.693 752.645 M245.693 748.941 Q251.503 748.941 254.559 753.547 Q257.637 758.131 257.637 766.881 Q257.637 775.608 254.559 780.214 Q251.503 784.797 245.693 784.797 Q239.883 784.797 236.804 780.214 Q233.749 775.608 233.749 766.881 Q233.749 758.131 236.804 753.547 Q239.883 748.941 245.693 748.941 Z" fill="#000000" fill-rule="evenodd" fill-opacity="1" /><path clip-path="url(#clip340)" d="M171.295 491.541 Q167.684 491.541 165.855 495.106 Q164.05 498.647 164.05 505.777 Q164.05 512.883 165.855 516.448 Q167.684 519.99 171.295 519.99 Q174.929 519.99 176.735 516.448 Q178.564 512.883 178.564 505.777 Q178.564 498.647 176.735 495.106 Q174.929 491.541 171.295 491.541 M171.295 487.837 Q177.105 487.837 180.161 492.444 Q183.24 497.027 183.24 505.777 Q183.24 514.504 180.161 519.11 Q177.105 523.694 171.295 523.694 Q165.485 523.694 162.406 519.11 Q159.351 514.504 159.351 505.777 Q159.351 497.027 162.406 492.444 Q165.485 487.837 171.295 487.837 Z" fill="#000000" fill-rule="evenodd" fill-opacity="1" /><path clip-path="url(#clip340)" d="M191.457 517.143 L196.341 517.143 L196.341 523.022 L191.457 523.022 L191.457 517.143 Z" fill="#000000" fill-rule="evenodd" fill-opacity="1" /><path clip-path="url(#clip340)" d="M205.346 488.462 L227.568 488.462 L227.568 490.453 L215.022 523.022 L210.138 523.022 L221.943 492.397 L205.346 492.397 L205.346 488.462 Z" fill="#000000" fill-rule="evenodd" fill-opacity="1" /><path clip-path="url(#clip340)" d="M236.735 488.462 L255.091 488.462 L255.091 492.397 L241.017 492.397 L241.017 500.87 Q242.036 500.522 243.054 500.36 Q244.073 500.175 245.091 500.175 Q250.878 500.175 254.258 503.346 Q257.637 506.518 257.637 511.934 Q257.637 517.513 254.165 520.615 Q250.693 523.694 244.373 523.694 Q242.198 523.694 239.929 523.323 Q237.684 522.953 235.276 522.212 L235.276 517.513 Q237.36 518.647 239.582 519.203 Q241.804 519.758 244.281 519.758 Q248.285 519.758 250.623 517.652 Q252.961 515.545 252.961 511.934 Q252.961 508.323 250.623 506.217 Q248.285 504.11 244.281 504.11 Q242.406 504.11 240.531 504.527 Q238.679 504.944 236.735 505.823 L236.735 488.462 Z" fill="#000000" fill-rule="evenodd" fill-opacity="1" /><path clip-path="url(#clip340)" d="M161.11 257.983 L168.749 257.983 L168.749 231.618 L160.439 233.284 L160.439 229.025 L168.703 227.359 L173.378 227.359 L173.378 257.983 L181.017 257.983 L181.017 261.919 L161.11 261.919 L161.11 257.983 Z" fill="#000000" fill-rule="evenodd" fill-opacity="1" /><path clip-path="url(#clip340)" d="M190.462 256.039 L195.346 256.039 L195.346 261.919 L190.462 261.919 L190.462 256.039 Z" fill="#000000" fill-rule="evenodd" fill-opacity="1" /><path clip-path="url(#clip340)" d="M215.531 230.437 Q211.92 230.437 210.091 234.002 Q208.286 237.544 208.286 244.673 Q208.286 251.78 210.091 255.344 Q211.92 258.886 215.531 258.886 Q219.165 258.886 220.971 255.344 Q222.8 251.78 222.8 244.673 Q222.8 237.544 220.971 234.002 Q219.165 230.437 215.531 230.437 M215.531 226.734 Q221.341 226.734 224.397 231.34 Q227.475 235.923 227.475 244.673 Q227.475 253.4 224.397 258.007 Q221.341 262.59 215.531 262.59 Q209.721 262.59 206.642 258.007 Q203.587 253.4 203.587 244.673 Q203.587 235.923 206.642 231.34 Q209.721 226.734 215.531 226.734 Z" fill="#000000" fill-rule="evenodd" fill-opacity="1" /><path clip-path="url(#clip340)" d="M245.693 230.437 Q242.082 230.437 240.253 234.002 Q238.448 237.544 238.448 244.673 Q238.448 251.78 240.253 255.344 Q242.082 258.886 245.693 258.886 Q249.327 258.886 251.133 255.344 Q252.961 251.78 252.961 244.673 Q252.961 237.544 251.133 234.002 Q249.327 230.437 245.693 230.437 M245.693 226.734 Q251.503 226.734 254.559 231.34 Q257.637 235.923 257.637 244.673 Q257.637 253.4 254.559 258.007 Q251.503 262.59 245.693 262.59 Q239.883 262.59 236.804 258.007 Q233.749 253.4 233.749 244.673 Q233.749 235.923 236.804 231.34 Q239.883 226.734 245.693 226.734 Z" fill="#000000" fill-rule="evenodd" fill-opacity="1" /><polyline clip-path="url(#clip343)" style="stroke:#009af9; stroke-linecap:butt; stroke-linejoin:round; stroke-width:4; stroke-opacity:1; fill:none" points="
  -4731.04,7015.85 -4663.05,6947.85 -4034.31,6319.12 -3656.47,5941.28 -3337.01,5621.82 -2989.99,5274.8 -2670.06,4954.87 -2327.07,4611.88 -1929.68,4214.49 -1576.53,3861.33 
  -1266.84,3551.65 -929.202,3214.01 -589.556,2874.36 -214.034,2498.84 143.265,2141.54 514.774,1770.03 827.506,1457.3 1209.32,1075.49 1559.08,725.732 1882.11,402.7 
  2209.33,75.4784 2576.05,-291.245 2908.36,-623.555 3288.84,-1004.03 3641.12,-1356.31 3988.43,-1703.62 4325.64,-2040.83 4671.32,-2386.52 5050.06,-2765.25 5600.24,-3315.43 
  5713.11,-3428.3 
  "/>
<polyline clip-path="url(#clip343)" style="stroke:#e26f46; stroke-linecap:butt; stroke-linejoin:round; stroke-width:4; stroke-opacity:1; fill:none" points="
  -4731.04,6006.4 -4663.05,5938.41 -4034.31,5309.68 -3656.47,4931.83 -3337.01,4612.37 -2989.99,4265.35 -2670.06,3945.43 -2327.07,3602.43 -1929.68,3205.04 -1576.53,2851.89 
  -1266.84,2542.2 -929.202,2204.56 -589.556,1864.92 -214.034,1489.4 143.265,1132.1 514.774,760.588 827.506,447.856 1209.32,66.0467 1559.08,-283.715 1882.11,-606.747 
  2209.33,-933.968 2576.05,-1300.69 2908.36,-1633 3288.84,-2013.47 3641.12,-2365.76 3988.43,-2713.07 4325.64,-3050.28 4671.32,-3395.96 5050.06,-3774.7 5600.24,-4324.87 
  5713.11,-4437.74 
  "/>
<path clip-path="url(#clip343)" d="
M491.032 1289.05 L492.076 1289.05 L493.121 1289.05 L494.165 1289.05 L495.209 1289.05 L496.254 1289.05 L497.298 1289.05 L498.343 1289.05 L499.387 1289.05 L500.431 1289.05 
  L501.476 1289.05 L502.52 1289.05 L503.565 1289.05 L504.609 1289.05 L505.654 1289.05 L506.698 1289.05 L507.742 1289.05 L508.787 1289.05 L509.831 1289.05 L510.876 1289.05 
  L511.92 1289.05 L512.964 1289.05 L514.009 1289.05 L515.053 1289.05 L516.098 1289.05 L517.142 1289.05 L518.186 1289.05 L519.231 1289.05 L520.275 1289.05 L521.32 1289.05 
  L522.364 1289.05 L523.409 1289.05 L524.453 1289.05 L525.497 1289.05 L526.542 1289.05 L527.586 1289.05 L528.631 1289.05 L529.675 1289.05 L530.719 1289.05 L531.764 1289.05 
  L532.808 1289.05 L533.853 1289.05 L534.897 1289.05 L535.942 1289.05 L536.986 1289.05 L538.03 1289.05 L539.075 1289.05 L540.119 1289.05 L541.164 1289.05 L542.208 1289.05 
  L543.252 1289.05 L544.297 1289.05 L545.341 1289.05 L546.386 1289.05 L547.43 1289.05 L548.475 1289.05 L549.519 1289.05 L550.563 1289.05 L551.608 1289.05 L552.652 1289.05 
  L553.697 1289.05 L554.741 1289.05 L555.785 1289.05 L556.83 1289.05 L557.874 1289.05 L558.919 1289.05 L559.963 1289.05 L561.008 1289.05 L562.052 1289.05 L563.096 1289.05 
  L564.141 1289.05 L565.185 1289.05 L566.23 1289.05 L567.274 1289.05 L568.318 1289.05 L569.363 1289.05 L570.407 1289.05 L571.452 1289.05 L572.496 1289.05 L573.54 1289.05 
  L574.585 1289.05 L575.629 1289.05 L576.674 1289.05 L577.718 1289.05 L578.763 1289.05 L579.807 1289.05 L580.851 1289.05 L581.896 1289.05 L582.94 1289.05 L583.985 1289.05 
  L585.029 1289.05 L586.073 1289.05 L587.118 1289.05 L588.162 1289.05 L589.207 1289.05 L590.251 1289.05 L591.296 1289.05 L592.34 1289.05 L593.384 1289.05 L594.429 1289.05 
  L595.473 1289.05 L596.518 1289.05 L597.562 1289.05 L598.606 1289.05 L599.651 1289.05 L600.695 1289.05 L601.74 1289.05 L602.784 1289.05 L603.829 1289.05 L604.873 1289.05 
  L605.917 1289.05 L606.962 1289.05 L608.006 1289.05 L609.051 1289.05 L610.095 1289.05 L611.139 1289.05 L612.184 1289.05 L613.228 1289.05 L614.273 1289.05 L615.317 1289.05 
  L616.361 1289.05 L617.406 1289.05 L618.45 1289.05 L619.495 1289.05 L620.539 1289.05 L621.584 1289.05 L622.628 1289.05 L623.672 1289.05 L624.717 1289.05 L625.761 1289.05 
  L626.806 1289.05 L627.85 1289.05 L628.894 1289.05 L629.939 1289.05 L630.983 1289.05 L632.028 1289.05 L633.072 1289.05 L634.117 1289.05 L635.161 1289.05 L636.205 1289.05 
  L637.25 1289.05 L638.294 1289.05 L639.339 1289.05 L640.383 1289.05 L641.427 1289.05 L642.472 1289.05 L643.516 1289.05 L644.561 1289.05 L645.605 1289.05 L646.65 1289.05 
  L647.694 1289.05 L648.738 1289.05 L649.783 1289.05 L650.827 1289.05 L651.872 1289.05 L652.916 1289.05 L653.96 1289.05 L655.005 1289.05 L656.049 1289.05 L657.094 1289.05 
  L658.138 1289.05 L659.183 1289.05 L660.227 1289.05 L661.271 1289.05 L662.316 1289.05 L663.36 1289.05 L664.405 1289.05 L665.449 1289.05 L666.493 1289.05 L667.538 1289.05 
  L668.582 1289.05 L669.627 1289.05 L670.671 1289.05 L671.715 1289.05 L672.76 1289.05 L673.804 1289.05 L674.849 1289.05 L675.893 1289.05 L676.938 1289.05 L677.982 1289.05 
  L679.026 1289.05 L680.071 1289.05 L681.115 1289.05 L682.16 1289.05 L683.204 1289.05 L684.248 1289.05 L685.293 1289.05 L686.337 1289.05 L687.382 1289.05 L688.426 1289.05 
  L689.471 1289.05 L690.515 1289.05 L691.559 1289.05 L692.604 1289.05 L693.648 1289.05 L694.693 1289.05 L695.737 1289.05 L696.781 1289.05 L697.826 1289.05 L698.87 1289.05 
  L699.915 1289.05 L700.959 1289.05 L702.004 1289.05 L703.048 1289.05 L704.092 1289.05 L705.137 1289.05 L706.181 1289.05 L707.226 1289.05 L708.27 1289.05 L709.314 1289.05 
  L710.359 1289.05 L711.403 1289.05 L712.448 1289.05 L713.492 1289.05 L714.537 1289.05 L715.581 1289.05 L716.625 1289.05 L717.67 1289.05 L718.714 1289.05 L719.759 1289.05 
  L720.803 1289.05 L721.847 1289.05 L722.892 1289.05 L723.936 1289.05 L724.981 1289.05 L726.025 1289.05 L727.069 1289.05 L728.114 1289.05 L729.158 1289.05 L730.203 1289.05 
  L731.247 1289.05 L732.292 1289.05 L733.336 1289.05 L734.38 1289.05 L735.425 1289.05 L736.469 1289.05 L737.514 1289.05 L738.558 1289.05 L739.602 1289.05 L740.647 1289.05 
  L741.691 1289.05 L742.736 1289.05 L743.78 1289.05 L744.825 1289.05 L745.869 1289.05 L746.913 1289.05 L747.958 1289.05 L749.002 1289.05 L750.047 1289.05 L751.091 1289.05 
  L752.135 1289.05 L753.18 1289.05 L754.224 1289.05 L755.269 1289.05 L756.313 1289.05 L757.358 1289.05 L758.402 1289.05 L759.446 1289.05 L760.491 1289.05 L761.535 1289.05 
  L762.58 1289.05 L763.624 1289.05 L764.668 1289.05 L765.713 1289.05 L766.757 1289.05 L767.802 1289.05 L768.846 1289.05 L769.89 1289.05 L770.935 1289.05 L771.979 1289.05 
  L773.024 1289.05 L774.068 1289.05 L775.113 1289.05 L776.157 1289.05 L777.201 1289.05 L778.246 1289.05 L779.29 1289.05 L780.335 1289.05 L781.379 1289.05 L782.423 1289.05 
  L783.468 1289.05 L784.512 1289.05 L785.557 1289.05 L786.601 1289.05 L787.646 1289.05 L788.69 1289.05 L789.734 1289.05 L790.779 1289.05 L791.823 1289.05 L792.868 1289.05 
  L793.912 1289.05 L794.956 1289.05 L796.001 1289.05 L797.045 1289.05 L798.09 1289.05 L799.134 1289.05 L800.179 1289.05 L801.223 1289.05 L802.267 1289.05 L803.312 1289.05 
  L804.356 1289.05 L805.401 1289.05 L806.445 1289.05 L807.489 1289.05 L808.534 1289.05 L809.578 1289.05 L810.623 1289.05 L811.667 1289.05 L812.712 1289.05 L813.756 1289.05 
  L814.8 1289.05 L815.845 1289.05 L816.889 1289.05 L817.934 1289.05 L818.978 1289.05 L820.022 1289.05 L821.067 1289.05 L822.111 1289.05 L823.156 1289.05 L824.2 1289.05 
  L825.244 1289.05 L826.289 1289.05 L827.333 1289.05 L828.378 1289.05 L829.422 1289.05 L830.467 1289.05 L831.511 1289.05 L832.555 1289.05 L833.6 1289.05 L834.644 1289.05 
  L835.689 1289.05 L836.733 1289.05 L837.777 1289.05 L838.822 1289.05 L839.866 1289.05 L840.911 1289.05 L841.955 1289.05 L843 1289.05 L844.044 1289.05 L845.088 1289.05 
  L846.133 1289.05 L847.177 1289.05 L848.222 1289.05 L849.266 1289.05 L850.31 1289.05 L851.355 1289.05 L852.399 1289.05 L853.444 1289.05 L854.488 1289.05 L855.533 1289.05 
  L856.577 1289.05 L857.621 1289.05 L858.666 1289.05 L859.71 1289.05 L860.755 1289.05 L861.799 1289.05 L862.843 1289.05 L863.888 1289.05 L864.932 1289.05 L865.977 1289.05 
  L867.021 1289.05 L868.065 1289.05 L869.11 1289.05 L870.154 1289.05 L871.199 1289.05 L872.243 1289.05 L873.288 1289.05 L874.332 1289.05 L875.376 1289.05 L876.421 1289.05 
  L877.465 1289.05 L878.51 1289.05 L879.554 1289.05 L880.598 1289.05 L881.643 1289.05 L882.687 1289.05 L883.732 1289.05 L884.776 1289.05 L885.821 1289.05 L886.865 1289.05 
  L887.909 1289.05 L888.954 1289.05 L889.998 1289.05 L891.043 1289.05 L892.087 1289.05 L893.131 1289.05 L894.176 1289.05 L895.22 1289.05 L896.265 1289.05 L897.309 1289.05 
  L898.354 1289.05 L899.398 1289.05 L900.442 1289.05 L901.487 1289.05 L902.531 1289.05 L903.576 1289.05 L904.62 1289.05 L905.664 1289.05 L906.709 1289.05 L907.753 1289.05 
  L908.798 1289.05 L909.842 1289.05 L910.887 1289.05 L911.931 1289.05 L912.975 1289.05 L914.02 1289.05 L915.064 1289.05 L916.109 1289.05 L917.153 1289.05 L918.197 1289.05 
  L919.242 1289.05 L920.286 1289.05 L921.331 1289.05 L922.375 1289.05 L923.419 1289.05 L924.464 1289.05 L925.508 1289.05 L926.553 1289.05 L927.597 1289.05 L928.642 1289.05 
  L929.686 1289.05 L930.73 1289.05 L931.775 1289.05 L932.819 1289.05 L933.864 1289.05 L934.908 1289.05 L935.952 1289.05 L936.997 1289.05 L938.041 1289.05 L939.086 1289.05 
  L940.13 1289.05 L941.175 1289.05 L942.219 1289.05 L943.263 1289.05 L944.308 1289.05 L945.352 1289.05 L946.397 1289.05 L947.441 1289.05 L948.485 1289.05 L949.53 1289.05 
  L950.574 1289.05 L951.619 1289.05 L952.663 1289.05 L953.708 1289.05 L954.752 1289.05 L955.796 1289.05 L956.841 1289.05 L957.885 1289.05 L958.93 1289.05 L959.974 1289.05 
  L961.018 1289.05 L962.063 1289.05 L963.107 1289.05 L964.152 1289.05 L965.196 1289.05 L966.241 1289.05 L967.285 1289.05 L968.329 1289.05 L969.374 1289.05 L970.418 1289.05 
  L971.463 1289.05 L972.507 1289.05 L973.551 1289.05 L974.596 1289.05 L975.64 1289.05 L976.685 1289.05 L977.729 1289.05 L978.773 1289.05 L979.818 1289.05 L980.862 1289.05 
  L981.907 1289.05 L982.951 1289.05 L983.996 1289.05 L985.04 1289.05 L986.084 1289.05 L987.129 1289.05 L988.173 1289.05 L989.218 1289.05 L990.262 1289.05 L991.306 1289.05 
  L992.351 1289.05 L993.395 1289.05 L994.44 1289.05 L995.484 1289.05 L996.529 1288.28 L997.573 1287.24 L998.617 1286.19 L999.662 1285.15 L1000.71 1284.1 L1001.75 1283.06 
  L1002.8 1282.01 L1003.84 1280.97 L1004.88 1279.92 L1005.93 1278.88 L1006.97 1277.84 L1008.02 1276.79 L1009.06 1275.75 L1010.11 1274.7 L1011.15 1273.66 L1012.19 1272.61 
  L1013.24 1271.57 L1014.28 1270.52 L1015.33 1269.48 L1016.37 1268.44 L1017.42 1267.39 L1018.46 1266.35 L1019.51 1265.3 L1020.55 1264.26 L1021.59 1263.21 L1022.64 1262.17 
  L1023.68 1261.13 L1024.73 1260.08 L1025.77 1259.04 L1026.82 1257.99 L1027.86 1256.95 L1028.91 1255.9 L1029.95 1254.86 L1030.99 1253.81 L1032.04 1252.77 L1033.08 1251.73 
  L1034.13 1250.68 L1035.17 1249.64 L1036.22 1248.59 L1037.26 1247.55 L1038.31 1246.5 L1039.35 1245.46 L1040.39 1244.41 L1041.44 1243.37 L1042.48 1242.33 L1043.53 1241.28 
  L1044.57 1240.24 L1045.62 1239.19 L1046.66 1238.15 L1047.7 1237.1 L1048.75 1236.06 L1049.79 1235.01 L1050.84 1233.97 L1051.88 1232.93 L1052.93 1231.88 L1053.97 1230.84 
  L1055.02 1229.79 L1056.06 1228.75 L1057.1 1227.7 L1058.15 1226.66 L1059.19 1225.61 L1060.24 1224.57 L1061.28 1223.53 L1062.33 1222.48 L1063.37 1221.44 L1064.42 1220.39 
  L1065.46 1219.35 L1066.5 1218.3 L1067.55 1217.26 L1068.59 1216.22 L1069.64 1215.17 L1070.68 1214.13 L1071.73 1213.08 L1072.77 1212.04 L1073.82 1210.99 L1074.86 1209.95 
  L1075.9 1208.9 L1076.95 1207.86 L1077.99 1206.82 L1079.04 1205.77 L1080.08 1204.73 L1081.13 1203.68 L1082.17 1202.64 L1083.21 1201.59 L1084.26 1200.55 L1085.3 1199.5 
  L1086.35 1198.46 L1087.39 1197.42 L1088.44 1196.37 L1089.48 1195.33 L1090.53 1194.28 L1091.57 1193.24 L1092.61 1192.19 L1093.66 1191.15 L1094.7 1190.1 L1095.75 1189.06 
  L1096.79 1188.02 L1097.84 1186.97 L1098.88 1185.93 L1099.93 1184.88 L1100.97 1183.84 L1102.01 1182.79 L1103.06 1181.75 L1104.1 1180.71 L1105.15 1179.66 L1106.19 1178.62 
  L1107.24 1177.57 L1108.28 1176.53 L1109.33 1175.48 L1110.37 1174.44 L1111.41 1173.39 L1112.46 1172.35 L1113.5 1171.31 L1114.55 1170.26 L1115.59 1169.22 L1116.64 1168.17 
  L1117.68 1167.13 L1118.73 1166.08 L1119.77 1165.04 L1120.81 1163.99 L1121.86 1162.95 L1122.9 1161.91 L1123.95 1160.86 L1124.99 1159.82 L1126.04 1158.77 L1127.08 1157.73 
  L1128.12 1156.68 L1129.17 1155.64 L1130.21 1154.59 L1131.26 1153.55 L1132.3 1152.51 L1133.35 1151.46 L1134.39 1150.42 L1135.44 1149.37 L1136.48 1148.33 L1137.52 1147.28 
  L1138.57 1146.24 L1139.61 1145.2 L1140.66 1144.15 L1141.7 1143.11 L1142.75 1142.06 L1143.79 1141.02 L1144.84 1139.97 L1145.88 1138.93 L1146.92 1137.88 L1147.97 1136.84 
  L1149.01 1135.8 L1150.06 1134.75 L1151.1 1133.71 L1152.15 1132.66 L1153.19 1131.62 L1154.24 1130.57 L1155.28 1129.53 L1156.32 1128.48 L1157.37 1127.44 L1158.41 1126.4 
  L1159.46 1125.35 L1160.5 1124.31 L1161.55 1123.26 L1162.59 1122.22 L1163.63 1121.17 L1164.68 1120.13 L1165.72 1119.08 L1166.77 1118.04 L1167.81 1117 L1168.86 1115.95 
  L1169.9 1114.91 L1170.95 1113.86 L1171.99 1112.82 L1173.03 1111.77 L1174.08 1110.73 L1175.12 1109.68 L1176.17 1108.64 L1177.21 1107.6 L1178.26 1106.55 L1179.3 1105.51 
  L1180.35 1104.46 L1181.39 1103.42 L1182.43 1102.37 L1183.48 1101.33 L1184.52 1100.29 L1185.57 1099.24 L1186.61 1098.2 L1187.66 1097.15 L1188.7 1096.11 L1189.75 1095.06 
  L1190.79 1094.02 L1191.83 1092.97 L1192.88 1091.93 L1193.92 1090.89 L1194.97 1089.84 L1196.01 1088.8 L1197.06 1087.75 L1198.1 1086.71 L1199.15 1085.66 L1200.19 1084.62 
  L1201.23 1083.57 L1202.28 1082.53 L1203.32 1081.49 L1204.37 1080.44 L1205.41 1079.4 L1206.46 1078.35 L1207.5 1077.31 L1208.54 1076.26 L1209.59 1075.22 L1210.63 1074.17 
  L1211.68 1073.13 L1212.72 1072.09 L1213.77 1071.04 L1214.81 1070 L1215.86 1068.95 L1216.9 1067.91 L1217.94 1066.86 L1218.99 1065.82 L1220.03 1064.78 L1221.08 1063.73 
  L1222.12 1062.69 L1223.17 1061.64 L1224.21 1060.6 L1225.26 1059.55 L1226.3 1058.51 L1227.34 1057.46 L1228.39 1056.42 L1229.43 1055.38 L1230.48 1054.33 L1231.52 1053.29 
  L1232.57 1052.24 L1233.61 1051.2 L1234.66 1050.15 L1235.7 1049.11 L1236.74 1048.06 L1237.79 1047.02 L1238.83 1045.98 L1239.88 1044.93 L1240.92 1043.89 L1241.97 1042.84 
  L1243.01 1041.8 L1244.05 1040.75 L1245.1 1039.71 L1246.14 1038.66 L1247.19 1037.62 L1248.23 1036.58 L1249.28 1035.53 L1250.32 1034.49 L1251.37 1033.44 L1252.41 1032.4 
  L1253.45 1031.35 L1254.5 1030.31 L1255.54 1029.26 L1256.59 1028.22 L1257.63 1027.18 L1258.68 1026.13 L1259.72 1025.09 L1260.77 1024.04 L1261.81 1023 L1262.85 1021.95 
  L1263.9 1020.91 L1264.94 1019.87 L1265.99 1018.82 L1267.03 1017.78 L1268.08 1016.73 L1269.12 1015.69 L1270.17 1014.64 L1271.21 1013.6 L1272.25 1012.55 L1273.3 1011.51 
  L1274.34 1010.47 L1275.39 1009.42 L1276.43 1008.38 L1277.48 1007.33 L1278.52 1006.29 L1279.56 1005.24 L1280.61 1004.2 L1281.65 1003.15 L1282.7 1002.11 L1283.74 1001.07 
  L1284.79 1000.02 L1285.83 998.977 L1286.88 997.933 L1287.92 996.888 L1288.96 995.844 L1290.01 994.799 L1291.05 993.755 L1292.1 992.71 L1293.14 991.666 L1294.19 990.622 
  L1295.23 989.577 L1296.28 988.533 L1297.32 987.488 L1298.36 986.444 L1299.41 985.4 L1300.45 984.355 L1301.5 983.311 L1302.54 982.266 L1303.59 981.222 L1304.63 980.177 
  L1305.68 979.133 L1306.72 978.089 L1307.76 977.044 L1308.81 976 L1309.85 974.955 L1310.9 973.911 L1311.94 972.867 L1312.99 971.822 L1314.03 970.778 L1315.08 969.733 
  L1316.12 968.689 L1317.16 967.645 L1318.21 966.6 L1319.25 965.556 L1320.3 964.511 L1321.34 963.467 L1322.39 962.422 L1323.43 961.378 L1324.47 960.334 L1325.52 959.289 
  L1326.56 958.245 L1327.61 957.2 L1328.65 956.156 L1329.7 955.112 L1330.74 954.067 L1331.79 953.023 L1332.83 951.978 L1333.87 950.934 L1334.92 949.889 L1335.96 948.845 
  L1337.01 947.801 L1338.05 946.756 L1339.1 945.712 L1340.14 944.667 L1341.19 943.623 L1342.23 942.579 L1343.27 941.534 L1344.32 940.49 L1345.36 939.445 L1346.41 938.401 
  L1347.45 937.356 L1348.5 936.312 L1349.54 935.268 L1350.59 934.223 L1351.63 933.179 L1352.67 932.134 L1353.72 931.09 L1354.76 930.046 L1355.81 929.001 L1356.85 927.957 
  L1357.9 926.912 L1358.94 925.868 L1359.98 924.823 L1361.03 923.779 L1362.07 922.735 L1363.12 921.69 L1364.16 920.646 L1365.21 919.601 L1366.25 918.557 L1367.3 917.513 
  L1368.34 916.468 L1369.38 915.424 L1370.43 914.379 L1371.47 913.335 L1372.52 912.291 L1373.56 911.246 L1374.61 910.202 L1375.65 909.157 L1376.7 908.113 L1377.74 907.068 
  L1378.78 906.024 L1379.83 904.98 L1380.87 903.935 L1381.92 902.891 L1382.96 901.846 L1384.01 900.802 L1385.05 899.758 L1386.1 898.713 L1387.14 897.669 L1388.18 896.624 
  L1389.23 895.58 L1390.27 894.535 L1391.32 893.491 L1392.36 892.447 L1393.41 891.402 L1394.45 890.358 L1395.5 889.313 L1396.54 888.269 L1397.58 887.225 L1398.63 886.18 
  L1399.67 885.136 L1400.72 884.091 L1401.76 883.047 L1402.81 882.002 L1403.85 880.958 L1404.89 879.914 L1405.94 878.869 L1406.98 877.825 L1408.03 876.78 L1409.07 875.736 
  L1410.12 874.692 L1411.16 873.647 L1412.21 872.603 L1413.25 871.558 L1414.29 870.514 L1415.34 869.469 L1416.38 868.425 L1417.43 867.381 L1418.47 866.336 L1419.52 865.292 
  L1420.56 864.247 L1421.61 863.203 L1422.65 862.159 L1423.69 861.114 L1424.74 860.07 L1425.78 859.025 L1426.83 857.981 L1427.87 856.937 L1428.92 855.892 L1429.96 854.848 
  L1431.01 853.803 L1432.05 852.759 L1433.09 851.714 L1434.14 850.67 L1435.18 849.626 L1436.23 848.581 L1437.27 847.537 L1438.32 846.492 L1439.36 845.448 L1440.4 844.404 
  L1441.45 843.359 L1442.49 842.315 L1443.54 841.27 L1444.58 840.226 L1445.63 839.181 L1446.67 838.137 L1447.72 837.093 L1448.76 836.048 L1449.8 835.004 L1450.85 833.959 
  L1451.89 832.915 L1452.94 831.871 L1453.98 830.826 L1455.03 829.782 L1456.07 828.737 L1457.12 827.693 L1458.16 826.648 L1459.2 825.604 L1460.25 824.56 L1461.29 823.515 
  L1462.34 822.471 L1463.38 821.426 L1464.43 820.382 L1465.47 819.338 L1466.52 818.293 L1467.56 817.249 L1468.6 816.204 L1469.65 815.16 L1470.69 814.116 L1471.74 813.071 
  L1472.78 812.027 L1473.83 810.982 L1474.87 809.938 L1475.91 808.893 L1476.96 807.849 L1478 806.805 L1479.05 805.76 L1480.09 804.716 L1481.14 803.671 L1482.18 802.627 
  L1483.23 801.583 L1484.27 800.538 L1485.31 799.494 L1486.36 798.449 L1487.4 797.405 L1488.45 796.36 L1489.49 795.316 L1490.54 794.272 L1491.58 793.227 L1492.63 792.183 
  L1493.67 791.138 L1494.71 790.094 L1495.76 789.05 L1496.8 788.005 L1497.85 786.961 L1498.89 785.916 L1499.94 784.872 L1500.98 783.827 L1502.03 782.783 L1503.07 781.739 
  L1504.11 780.694 L1505.16 779.65 L1506.2 778.605 L1507.25 777.561 L1508.29 776.517 L1509.34 775.472 L1510.38 774.428 L1511.43 773.383 L1512.47 772.339 L1513.51 771.294 
  L1514.56 770.25 L1515.6 769.206 L1516.65 768.161 L1517.69 767.117 L1518.74 766.072 L1519.78 765.028 L1520.82 763.984 L1521.87 762.939 L1522.91 761.895 L1523.96 760.85 
  L1525 759.806 L1526.05 758.762 L1527.09 757.717 L1528.14 756.673 L1529.18 755.628 L1530.22 754.584 L1531.27 753.539 L1532.31 752.495 L1533.36 751.451 L1534.4 750.406 
  L1535.45 749.362 L1535.45 244.639 L1534.4 244.639 L1533.36 244.639 L1532.31 244.639 L1531.27 244.639 L1530.22 244.639 L1529.18 244.639 L1528.14 244.639 L1527.09 244.639 
  L1526.05 244.639 L1525 244.639 L1523.96 244.639 L1522.91 244.639 L1521.87 244.639 L1520.82 244.639 L1519.78 244.639 L1518.74 244.639 L1517.69 244.639 L1516.65 244.639 
  L1515.6 244.639 L1514.56 244.639 L1513.51 244.639 L1512.47 244.639 L1511.43 244.639 L1510.38 244.639 L1509.34 244.639 L1508.29 244.639 L1507.25 244.639 L1506.2 244.639 
  L1505.16 244.639 L1504.11 244.639 L1503.07 244.639 L1502.03 244.639 L1500.98 244.639 L1499.94 244.639 L1498.89 244.639 L1497.85 244.639 L1496.8 244.639 L1495.76 244.639 
  L1494.71 244.639 L1493.67 244.639 L1492.63 244.639 L1491.58 244.639 L1490.54 244.639 L1489.49 244.639 L1488.45 244.639 L1487.4 244.639 L1486.36 244.639 L1485.31 244.639 
  L1484.27 244.639 L1483.23 244.639 L1482.18 244.639 L1481.14 244.639 L1480.09 244.639 L1479.05 244.639 L1478 244.639 L1476.96 244.639 L1475.91 244.639 L1474.87 244.639 
  L1473.83 244.639 L1472.78 244.639 L1471.74 244.639 L1470.69 244.639 L1469.65 244.639 L1468.6 244.639 L1467.56 244.639 L1466.52 244.639 L1465.47 244.639 L1464.43 244.639 
  L1463.38 244.639 L1462.34 244.639 L1461.29 244.639 L1460.25 244.639 L1459.2 244.639 L1458.16 244.639 L1457.12 244.639 L1456.07 244.639 L1455.03 244.639 L1453.98 244.639 
  L1452.94 244.639 L1451.89 244.639 L1450.85 244.639 L1449.8 244.639 L1448.76 244.639 L1447.72 244.639 L1446.67 244.639 L1445.63 244.639 L1444.58 244.639 L1443.54 244.639 
  L1442.49 244.639 L1441.45 244.639 L1440.4 244.639 L1439.36 244.639 L1438.32 244.639 L1437.27 244.639 L1436.23 244.639 L1435.18 244.639 L1434.14 244.639 L1433.09 244.639 
  L1432.05 244.639 L1431.01 244.639 L1429.96 244.639 L1428.92 244.639 L1427.87 244.639 L1426.83 244.639 L1425.78 244.639 L1424.74 244.639 L1423.69 244.639 L1422.65 244.639 
  L1421.61 244.639 L1420.56 244.639 L1419.52 244.639 L1418.47 244.639 L1417.43 244.639 L1416.38 244.639 L1415.34 244.639 L1414.29 244.639 L1413.25 244.639 L1412.21 244.639 
  L1411.16 244.639 L1410.12 244.639 L1409.07 244.639 L1408.03 244.639 L1406.98 244.639 L1405.94 244.639 L1404.89 244.639 L1403.85 244.639 L1402.81 244.639 L1401.76 244.639 
  L1400.72 244.639 L1399.67 244.639 L1398.63 244.639 L1397.58 244.639 L1396.54 244.639 L1395.5 244.639 L1394.45 244.639 L1393.41 244.639 L1392.36 244.639 L1391.32 244.639 
  L1390.27 244.639 L1389.23 244.639 L1388.18 244.639 L1387.14 244.639 L1386.1 244.639 L1385.05 244.639 L1384.01 244.639 L1382.96 244.639 L1381.92 244.639 L1380.87 244.639 
  L1379.83 244.639 L1378.78 244.639 L1377.74 244.639 L1376.7 244.639 L1375.65 244.639 L1374.61 244.639 L1373.56 244.639 L1372.52 244.639 L1371.47 244.639 L1370.43 244.639 
  L1369.38 244.639 L1368.34 244.639 L1367.3 244.639 L1366.25 244.639 L1365.21 244.639 L1364.16 244.639 L1363.12 244.639 L1362.07 244.639 L1361.03 244.639 L1359.98 244.639 
  L1358.94 244.639 L1357.9 244.639 L1356.85 244.639 L1355.81 244.639 L1354.76 244.639 L1353.72 244.639 L1352.67 244.639 L1351.63 244.639 L1350.59 244.639 L1349.54 244.639 
  L1348.5 244.639 L1347.45 244.639 L1346.41 244.639 L1345.36 244.639 L1344.32 244.639 L1343.27 244.639 L1342.23 244.639 L1341.19 244.639 L1340.14 244.639 L1339.1 244.639 
  L1338.05 244.639 L1337.01 244.639 L1335.96 244.639 L1334.92 244.639 L1333.87 244.639 L1332.83 244.639 L1331.79 244.639 L1330.74 244.639 L1329.7 244.639 L1328.65 244.639 
  L1327.61 244.639 L1326.56 244.639 L1325.52 244.639 L1324.47 244.639 L1323.43 244.639 L1322.39 244.639 L1321.34 244.639 L1320.3 244.639 L1319.25 244.639 L1318.21 244.639 
  L1317.16 244.639 L1316.12 244.639 L1315.08 244.639 L1314.03 244.639 L1312.99 244.639 L1311.94 244.639 L1310.9 244.639 L1309.85 244.639 L1308.81 244.639 L1307.76 244.639 
  L1306.72 244.639 L1305.68 244.639 L1304.63 244.639 L1303.59 244.639 L1302.54 244.639 L1301.5 244.639 L1300.45 244.639 L1299.41 244.639 L1298.36 244.639 L1297.32 244.639 
  L1296.28 244.639 L1295.23 244.639 L1294.19 244.639 L1293.14 244.639 L1292.1 244.639 L1291.05 244.639 L1290.01 244.639 L1288.96 244.639 L1287.92 244.639 L1286.88 244.639 
  L1285.83 244.639 L1284.79 244.639 L1283.74 244.639 L1282.7 244.639 L1281.65 244.639 L1280.61 244.639 L1279.56 244.639 L1278.52 244.639 L1277.48 244.639 L1276.43 244.639 
  L1275.39 244.639 L1274.34 244.639 L1273.3 244.639 L1272.25 244.639 L1271.21 244.639 L1270.17 244.639 L1269.12 244.639 L1268.08 244.639 L1267.03 244.639 L1265.99 244.639 
  L1264.94 244.639 L1263.9 244.639 L1262.85 244.639 L1261.81 244.639 L1260.77 244.639 L1259.72 244.639 L1258.68 244.639 L1257.63 244.639 L1256.59 244.639 L1255.54 244.639 
  L1254.5 244.639 L1253.45 244.639 L1252.41 244.639 L1251.37 244.639 L1250.32 244.639 L1249.28 244.639 L1248.23 244.639 L1247.19 244.639 L1246.14 244.639 L1245.1 244.639 
  L1244.05 244.639 L1243.01 244.639 L1241.97 244.639 L1240.92 244.639 L1239.88 244.639 L1238.83 244.639 L1237.79 244.639 L1236.74 244.639 L1235.7 244.639 L1234.66 244.639 
  L1233.61 244.639 L1232.57 244.639 L1231.52 244.639 L1230.48 244.639 L1229.43 244.639 L1228.39 244.639 L1227.34 244.639 L1226.3 244.639 L1225.26 244.639 L1224.21 244.639 
  L1223.17 244.639 L1222.12 244.639 L1221.08 244.639 L1220.03 244.639 L1218.99 244.639 L1217.94 244.639 L1216.9 244.639 L1215.86 244.639 L1214.81 244.639 L1213.77 244.639 
  L1212.72 244.639 L1211.68 244.639 L1210.63 244.639 L1209.59 244.639 L1208.54 244.639 L1207.5 244.639 L1206.46 244.639 L1205.41 244.639 L1204.37 244.639 L1203.32 244.639 
  L1202.28 244.639 L1201.23 244.639 L1200.19 244.639 L1199.15 244.639 L1198.1 244.639 L1197.06 244.639 L1196.01 244.639 L1194.97 244.639 L1193.92 244.639 L1192.88 244.639 
  L1191.83 244.639 L1190.79 244.639 L1189.75 244.639 L1188.7 244.639 L1187.66 244.639 L1186.61 244.639 L1185.57 244.639 L1184.52 244.639 L1183.48 244.639 L1182.43 244.639 
  L1181.39 244.639 L1180.35 244.639 L1179.3 244.639 L1178.26 244.639 L1177.21 244.639 L1176.17 244.639 L1175.12 244.639 L1174.08 244.639 L1173.03 244.639 L1171.99 244.639 
  L1170.95 244.639 L1169.9 244.639 L1168.86 244.639 L1167.81 244.639 L1166.77 244.639 L1165.72 244.639 L1164.68 244.639 L1163.63 244.639 L1162.59 244.639 L1161.55 244.639 
  L1160.5 244.639 L1159.46 244.639 L1158.41 244.639 L1157.37 244.639 L1156.32 244.639 L1155.28 244.639 L1154.24 244.639 L1153.19 244.639 L1152.15 244.639 L1151.1 244.639 
  L1150.06 244.639 L1149.01 244.639 L1147.97 244.639 L1146.92 244.639 L1145.88 244.639 L1144.84 244.639 L1143.79 244.639 L1142.75 244.639 L1141.7 244.639 L1140.66 244.639 
  L1139.61 244.639 L1138.57 244.639 L1137.52 244.639 L1136.48 244.639 L1135.44 244.639 L1134.39 244.639 L1133.35 244.639 L1132.3 244.639 L1131.26 244.639 L1130.21 244.639 
  L1129.17 244.639 L1128.12 244.639 L1127.08 244.639 L1126.04 244.639 L1124.99 244.639 L1123.95 244.639 L1122.9 244.639 L1121.86 244.639 L1120.81 244.639 L1119.77 244.639 
  L1118.73 244.639 L1117.68 244.639 L1116.64 244.639 L1115.59 244.639 L1114.55 244.639 L1113.5 244.639 L1112.46 244.639 L1111.41 244.639 L1110.37 244.639 L1109.33 244.639 
  L1108.28 244.639 L1107.24 244.639 L1106.19 244.639 L1105.15 244.639 L1104.1 244.639 L1103.06 244.639 L1102.01 244.639 L1100.97 244.639 L1099.93 244.639 L1098.88 244.639 
  L1097.84 244.639 L1096.79 244.639 L1095.75 244.639 L1094.7 244.639 L1093.66 244.639 L1092.61 244.639 L1091.57 244.639 L1090.53 244.639 L1089.48 244.639 L1088.44 244.639 
  L1087.39 244.639 L1086.35 244.639 L1085.3 244.639 L1084.26 244.639 L1083.21 244.639 L1082.17 244.639 L1081.13 244.639 L1080.08 244.639 L1079.04 244.639 L1077.99 244.639 
  L1076.95 244.639 L1075.9 244.639 L1074.86 244.639 L1073.82 244.639 L1072.77 244.639 L1071.73 244.639 L1070.68 244.639 L1069.64 244.639 L1068.59 244.639 L1067.55 244.639 
  L1066.5 244.639 L1065.46 244.639 L1064.42 244.639 L1063.37 244.639 L1062.33 244.639 L1061.28 244.639 L1060.24 244.639 L1059.19 244.639 L1058.15 244.639 L1057.1 244.639 
  L1056.06 244.639 L1055.02 244.639 L1053.97 244.639 L1052.93 244.639 L1051.88 244.639 L1050.84 244.639 L1049.79 244.639 L1048.75 244.639 L1047.7 244.639 L1046.66 244.639 
  L1045.62 244.639 L1044.57 244.639 L1043.53 244.639 L1042.48 244.639 L1041.44 244.639 L1040.39 244.639 L1039.35 244.639 L1038.31 244.639 L1037.26 244.639 L1036.22 244.639 
  L1035.17 244.639 L1034.13 244.639 L1033.08 244.639 L1032.04 244.639 L1030.99 244.639 L1029.95 245.412 L1028.91 246.456 L1027.86 247.501 L1026.82 248.545 L1025.77 249.59 
  L1024.73 250.634 L1023.68 251.679 L1022.64 252.723 L1021.59 253.767 L1020.55 254.812 L1019.51 255.856 L1018.46 256.901 L1017.42 257.945 L1016.37 258.989 L1015.33 260.034 
  L1014.28 261.078 L1013.24 262.123 L1012.19 263.167 L1011.15 264.212 L1010.11 265.256 L1009.06 266.3 L1008.02 267.345 L1006.97 268.389 L1005.93 269.434 L1004.88 270.478 
  L1003.84 271.522 L1002.8 272.567 L1001.75 273.611 L1000.71 274.656 L999.662 275.7 L998.617 276.745 L997.573 277.789 L996.529 278.833 L995.484 279.878 L994.44 280.922 
  L993.395 281.967 L992.351 283.011 L991.306 284.055 L990.262 285.1 L989.218 286.144 L988.173 287.189 L987.129 288.233 L986.084 289.278 L985.04 290.322 L983.996 291.366 
  L982.951 292.411 L981.907 293.455 L980.862 294.5 L979.818 295.544 L978.773 296.588 L977.729 297.633 L976.685 298.677 L975.64 299.722 L974.596 300.766 L973.551 301.81 
  L972.507 302.855 L971.463 303.899 L970.418 304.944 L969.374 305.988 L968.329 307.033 L967.285 308.077 L966.241 309.121 L965.196 310.166 L964.152 311.21 L963.107 312.255 
  L962.063 313.299 L961.018 314.343 L959.974 315.388 L958.93 316.432 L957.885 317.477 L956.841 318.521 L955.796 319.566 L954.752 320.61 L953.708 321.654 L952.663 322.699 
  L951.619 323.743 L950.574 324.788 L949.53 325.832 L948.485 326.876 L947.441 327.921 L946.397 328.965 L945.352 330.01 L944.308 331.054 L943.263 332.099 L942.219 333.143 
  L941.175 334.187 L940.13 335.232 L939.086 336.276 L938.041 337.321 L936.997 338.365 L935.952 339.409 L934.908 340.454 L933.864 341.498 L932.819 342.543 L931.775 343.587 
  L930.73 344.632 L929.686 345.676 L928.642 346.72 L927.597 347.765 L926.553 348.809 L925.508 349.854 L924.464 350.898 L923.419 351.942 L922.375 352.987 L921.331 354.031 
  L920.286 355.076 L919.242 356.12 L918.197 357.164 L917.153 358.209 L916.109 359.253 L915.064 360.298 L914.02 361.342 L912.975 362.387 L911.931 363.431 L910.887 364.475 
  L909.842 365.52 L908.798 366.564 L907.753 367.609 L906.709 368.653 L905.664 369.697 L904.62 370.742 L903.576 371.786 L902.531 372.831 L901.487 373.875 L900.442 374.92 
  L899.398 375.964 L898.354 377.008 L897.309 378.053 L896.265 379.097 L895.22 380.142 L894.176 381.186 L893.131 382.23 L892.087 383.275 L891.043 384.319 L889.998 385.364 
  L888.954 386.408 L887.909 387.453 L886.865 388.497 L885.821 389.541 L884.776 390.586 L883.732 391.63 L882.687 392.675 L881.643 393.719 L880.598 394.763 L879.554 395.808 
  L878.51 396.852 L877.465 397.897 L876.421 398.941 L875.376 399.985 L874.332 401.03 L873.288 402.074 L872.243 403.119 L871.199 404.163 L870.154 405.208 L869.11 406.252 
  L868.065 407.296 L867.021 408.341 L865.977 409.385 L864.932 410.43 L863.888 411.474 L862.843 412.518 L861.799 413.563 L860.755 414.607 L859.71 415.652 L858.666 416.696 
  L857.621 417.741 L856.577 418.785 L855.533 419.829 L854.488 420.874 L853.444 421.918 L852.399 422.963 L851.355 424.007 L850.31 425.051 L849.266 426.096 L848.222 427.14 
  L847.177 428.185 L846.133 429.229 L845.088 430.274 L844.044 431.318 L843 432.362 L841.955 433.407 L840.911 434.451 L839.866 435.496 L838.822 436.54 L837.777 437.584 
  L836.733 438.629 L835.689 439.673 L834.644 440.718 L833.6 441.762 L832.555 442.807 L831.511 443.851 L830.467 444.895 L829.422 445.94 L828.378 446.984 L827.333 448.029 
  L826.289 449.073 L825.244 450.117 L824.2 451.162 L823.156 452.206 L822.111 453.251 L821.067 454.295 L820.022 455.339 L818.978 456.384 L817.934 457.428 L816.889 458.473 
  L815.845 459.517 L814.8 460.562 L813.756 461.606 L812.712 462.65 L811.667 463.695 L810.623 464.739 L809.578 465.784 L808.534 466.828 L807.489 467.872 L806.445 468.917 
  L805.401 469.961 L804.356 471.006 L803.312 472.05 L802.267 473.095 L801.223 474.139 L800.179 475.183 L799.134 476.228 L798.09 477.272 L797.045 478.317 L796.001 479.361 
  L794.956 480.405 L793.912 481.45 L792.868 482.494 L791.823 483.539 L790.779 484.583 L789.734 485.628 L788.69 486.672 L787.646 487.716 L786.601 488.761 L785.557 489.805 
  L784.512 490.85 L783.468 491.894 L782.423 492.938 L781.379 493.983 L780.335 495.027 L779.29 496.072 L778.246 497.116 L777.201 498.16 L776.157 499.205 L775.113 500.249 
  L774.068 501.294 L773.024 502.338 L771.979 503.383 L770.935 504.427 L769.89 505.471 L768.846 506.516 L767.802 507.56 L766.757 508.605 L765.713 509.649 L764.668 510.693 
  L763.624 511.738 L762.58 512.782 L761.535 513.827 L760.491 514.871 L759.446 515.916 L758.402 516.96 L757.358 518.004 L756.313 519.049 L755.269 520.093 L754.224 521.138 
  L753.18 522.182 L752.135 523.226 L751.091 524.271 L750.047 525.315 L749.002 526.36 L747.958 527.404 L746.913 528.449 L745.869 529.493 L744.825 530.537 L743.78 531.582 
  L742.736 532.626 L741.691 533.671 L740.647 534.715 L739.602 535.759 L738.558 536.804 L737.514 537.848 L736.469 538.893 L735.425 539.937 L734.38 540.982 L733.336 542.026 
  L732.292 543.07 L731.247 544.115 L730.203 545.159 L729.158 546.204 L728.114 547.248 L727.069 548.292 L726.025 549.337 L724.981 550.381 L723.936 551.426 L722.892 552.47 
  L721.847 553.514 L720.803 554.559 L719.759 555.603 L718.714 556.648 L717.67 557.692 L716.625 558.737 L715.581 559.781 L714.537 560.825 L713.492 561.87 L712.448 562.914 
  L711.403 563.959 L710.359 565.003 L709.314 566.047 L708.27 567.092 L707.226 568.136 L706.181 569.181 L705.137 570.225 L704.092 571.27 L703.048 572.314 L702.004 573.358 
  L700.959 574.403 L699.915 575.447 L698.87 576.492 L697.826 577.536 L696.781 578.58 L695.737 579.625 L694.693 580.669 L693.648 581.714 L692.604 582.758 L691.559 583.803 
  L690.515 584.847 L689.471 585.891 L688.426 586.936 L687.382 587.98 L686.337 589.025 L685.293 590.069 L684.248 591.113 L683.204 592.158 L682.16 593.202 L681.115 594.247 
  L680.071 595.291 L679.026 596.336 L677.982 597.38 L676.938 598.424 L675.893 599.469 L674.849 600.513 L673.804 601.558 L672.76 602.602 L671.715 603.646 L670.671 604.691 
  L669.627 605.735 L668.582 606.78 L667.538 607.824 L666.493 608.868 L665.449 609.913 L664.405 610.957 L663.36 612.002 L662.316 613.046 L661.271 614.091 L660.227 615.135 
  L659.183 616.179 L658.138 617.224 L657.094 618.268 L656.049 619.313 L655.005 620.357 L653.96 621.401 L652.916 622.446 L651.872 623.49 L650.827 624.535 L649.783 625.579 
  L648.738 626.624 L647.694 627.668 L646.65 628.712 L645.605 629.757 L644.561 630.801 L643.516 631.846 L642.472 632.89 L641.427 633.934 L640.383 634.979 L639.339 636.023 
  L638.294 637.068 L637.25 638.112 L636.205 639.157 L635.161 640.201 L634.117 641.245 L633.072 642.29 L632.028 643.334 L630.983 644.379 L629.939 645.423 L628.894 646.467 
  L627.85 647.512 L626.806 648.556 L625.761 649.601 L624.717 650.645 L623.672 651.689 L622.628 652.734 L621.584 653.778 L620.539 654.823 L619.495 655.867 L618.45 656.912 
  L617.406 657.956 L616.361 659 L615.317 660.045 L614.273 661.089 L613.228 662.134 L612.184 663.178 L611.139 664.222 L610.095 665.267 L609.051 666.311 L608.006 667.356 
  L606.962 668.4 L605.917 669.445 L604.873 670.489 L603.829 671.533 L602.784 672.578 L601.74 673.622 L600.695 674.667 L599.651 675.711 L598.606 676.755 L597.562 677.8 
  L596.518 678.844 L595.473 679.889 L594.429 680.933 L593.384 681.978 L592.34 683.022 L591.296 684.066 L590.251 685.111 L589.207 686.155 L588.162 687.2 L587.118 688.244 
  L586.073 689.288 L585.029 690.333 L583.985 691.377 L582.94 692.422 L581.896 693.466 L580.851 694.511 L579.807 695.555 L578.763 696.599 L577.718 697.644 L576.674 698.688 
  L575.629 699.733 L574.585 700.777 L573.54 701.821 L572.496 702.866 L571.452 703.91 L570.407 704.955 L569.363 705.999 L568.318 707.043 L567.274 708.088 L566.23 709.132 
  L565.185 710.177 L564.141 711.221 L563.096 712.266 L562.052 713.31 L561.008 714.354 L559.963 715.399 L558.919 716.443 L557.874 717.488 L556.83 718.532 L555.785 719.576 
  L554.741 720.621 L553.697 721.665 L552.652 722.71 L551.608 723.754 L550.563 724.799 L549.519 725.843 L548.475 726.887 L547.43 727.932 L546.386 728.976 L545.341 730.021 
  L544.297 731.065 L543.252 732.109 L542.208 733.154 L541.164 734.198 L540.119 735.243 L539.075 736.287 L538.03 737.332 L536.986 738.376 L535.942 739.42 L534.897 740.465 
  L533.853 741.509 L532.808 742.554 L531.764 743.598 L530.719 744.642 L529.675 745.687 L528.631 746.731 L527.586 747.776 L526.542 748.82 L525.497 749.864 L524.453 750.909 
  L523.409 751.953 L522.364 752.998 L521.32 754.042 L520.275 755.087 L519.231 756.131 L518.186 757.175 L517.142 758.22 L516.098 759.264 L515.053 760.309 L514.009 761.353 
  L512.964 762.397 L511.92 763.442 L510.876 764.486 L509.831 765.531 L508.787 766.575 L507.742 767.62 L506.698 768.664 L505.654 769.708 L504.609 770.753 L503.565 771.797 
  L502.52 772.842 L501.476 773.886 L500.431 774.93 L499.387 775.975 L498.343 777.019 L497.298 778.064 L496.254 779.108 L495.209 780.153 L494.165 781.197 L493.121 782.241 
  L492.076 783.286 L491.032 784.33  Z
  " fill="#3da44d" fill-rule="evenodd" fill-opacity="0.3"/>
<polyline clip-path="url(#clip343)" style="stroke:#3da44d; stroke-linecap:butt; stroke-linejoin:round; stroke-width:4; stroke-opacity:1; fill:none" points="
  491.032,1289.05 492.076,1289.05 493.121,1289.05 494.165,1289.05 495.209,1289.05 496.254,1289.05 497.298,1289.05 498.343,1289.05 499.387,1289.05 500.431,1289.05 
  501.476,1289.05 502.52,1289.05 503.565,1289.05 504.609,1289.05 505.654,1289.05 506.698,1289.05 507.742,1289.05 508.787,1289.05 509.831,1289.05 510.876,1289.05 
  511.92,1289.05 512.964,1289.05 514.009,1289.05 515.053,1289.05 516.098,1289.05 517.142,1289.05 518.186,1289.05 519.231,1289.05 520.275,1289.05 521.32,1289.05 
  522.364,1289.05 523.409,1289.05 524.453,1289.05 525.497,1289.05 526.542,1289.05 527.586,1289.05 528.631,1289.05 529.675,1289.05 530.719,1289.05 531.764,1289.05 
  532.808,1289.05 533.853,1289.05 534.897,1289.05 535.942,1289.05 536.986,1289.05 538.03,1289.05 539.075,1289.05 540.119,1289.05 541.164,1289.05 542.208,1289.05 
  543.252,1289.05 544.297,1289.05 545.341,1289.05 546.386,1289.05 547.43,1289.05 548.475,1289.05 549.519,1289.05 550.563,1289.05 551.608,1289.05 552.652,1289.05 
  553.697,1289.05 554.741,1289.05 555.785,1289.05 556.83,1289.05 557.874,1289.05 558.919,1289.05 559.963,1289.05 561.008,1289.05 562.052,1289.05 563.096,1289.05 
  564.141,1289.05 565.185,1289.05 566.23,1289.05 567.274,1289.05 568.318,1289.05 569.363,1289.05 570.407,1289.05 571.452,1289.05 572.496,1289.05 573.54,1289.05 
  574.585,1289.05 575.629,1289.05 576.674,1289.05 577.718,1289.05 578.763,1289.05 579.807,1289.05 580.851,1289.05 581.896,1289.05 582.94,1289.05 583.985,1289.05 
  585.029,1289.05 586.073,1289.05 587.118,1289.05 588.162,1289.05 589.207,1289.05 590.251,1289.05 591.296,1289.05 592.34,1289.05 593.384,1289.05 594.429,1289.05 
  595.473,1289.05 596.518,1289.05 597.562,1289.05 598.606,1289.05 599.651,1289.05 600.695,1289.05 601.74,1289.05 602.784,1289.05 603.829,1289.05 604.873,1289.05 
  605.917,1289.05 606.962,1289.05 608.006,1289.05 609.051,1289.05 610.095,1289.05 611.139,1289.05 612.184,1289.05 613.228,1289.05 614.273,1289.05 615.317,1289.05 
  616.361,1289.05 617.406,1289.05 618.45,1289.05 619.495,1289.05 620.539,1289.05 621.584,1289.05 622.628,1289.05 623.672,1289.05 624.717,1289.05 625.761,1289.05 
  626.806,1289.05 627.85,1289.05 628.894,1289.05 629.939,1289.05 630.983,1289.05 632.028,1289.05 633.072,1289.05 634.117,1289.05 635.161,1289.05 636.205,1289.05 
  637.25,1289.05 638.294,1289.05 639.339,1289.05 640.383,1289.05 641.427,1289.05 642.472,1289.05 643.516,1289.05 644.561,1289.05 645.605,1289.05 646.65,1289.05 
  647.694,1289.05 648.738,1289.05 649.783,1289.05 650.827,1289.05 651.872,1289.05 652.916,1289.05 653.96,1289.05 655.005,1289.05 656.049,1289.05 657.094,1289.05 
  658.138,1289.05 659.183,1289.05 660.227,1289.05 661.271,1289.05 662.316,1289.05 663.36,1289.05 664.405,1289.05 665.449,1289.05 666.493,1289.05 667.538,1289.05 
  668.582,1289.05 669.627,1289.05 670.671,1289.05 671.715,1289.05 672.76,1289.05 673.804,1289.05 674.849,1289.05 675.893,1289.05 676.938,1289.05 677.982,1289.05 
  679.026,1289.05 680.071,1289.05 681.115,1289.05 682.16,1289.05 683.204,1289.05 684.248,1289.05 685.293,1289.05 686.337,1289.05 687.382,1289.05 688.426,1289.05 
  689.471,1289.05 690.515,1289.05 691.559,1289.05 692.604,1289.05 693.648,1289.05 694.693,1289.05 695.737,1289.05 696.781,1289.05 697.826,1289.05 698.87,1289.05 
  699.915,1289.05 700.959,1289.05 702.004,1289.05 703.048,1289.05 704.092,1289.05 705.137,1289.05 706.181,1289.05 707.226,1289.05 708.27,1289.05 709.314,1289.05 
  710.359,1289.05 711.403,1289.05 712.448,1289.05 713.492,1289.05 714.537,1289.05 715.581,1289.05 716.625,1289.05 717.67,1289.05 718.714,1289.05 719.759,1289.05 
  720.803,1289.05 721.847,1289.05 722.892,1289.05 723.936,1289.05 724.981,1289.05 726.025,1289.05 727.069,1289.05 728.114,1289.05 729.158,1289.05 730.203,1289.05 
  731.247,1289.05 732.292,1289.05 733.336,1289.05 734.38,1289.05 735.425,1289.05 736.469,1289.05 737.514,1289.05 738.558,1289.05 739.602,1289.05 740.647,1289.05 
  741.691,1289.05 742.736,1289.05 743.78,1289.05 744.825,1289.05 745.869,1289.05 746.913,1289.05 747.958,1289.05 749.002,1289.05 750.047,1289.05 751.091,1289.05 
  752.135,1289.05 753.18,1289.05 754.224,1289.05 755.269,1289.05 756.313,1289.05 757.358,1289.05 758.402,1289.05 759.446,1289.05 760.491,1289.05 761.535,1289.05 
  762.58,1289.05 763.624,1289.05 764.668,1289.05 765.713,1289.05 766.757,1289.05 767.802,1289.05 768.846,1289.05 769.89,1289.05 770.935,1289.05 771.979,1289.05 
  773.024,1289.05 774.068,1289.05 775.113,1289.05 776.157,1289.05 777.201,1289.05 778.246,1289.05 779.29,1289.05 780.335,1289.05 781.379,1289.05 782.423,1289.05 
  783.468,1289.05 784.512,1289.05 785.557,1289.05 786.601,1289.05 787.646,1289.05 788.69,1289.05 789.734,1289.05 790.779,1289.05 791.823,1289.05 792.868,1289.05 
  793.912,1289.05 794.956,1289.05 796.001,1289.05 797.045,1289.05 798.09,1289.05 799.134,1289.05 800.179,1289.05 801.223,1289.05 802.267,1289.05 803.312,1289.05 
  804.356,1289.05 805.401,1289.05 806.445,1289.05 807.489,1289.05 808.534,1289.05 809.578,1289.05 810.623,1289.05 811.667,1289.05 812.712,1289.05 813.756,1289.05 
  814.8,1289.05 815.845,1289.05 816.889,1289.05 817.934,1289.05 818.978,1289.05 820.022,1289.05 821.067,1289.05 822.111,1289.05 823.156,1289.05 824.2,1289.05 
  825.244,1289.05 826.289,1289.05 827.333,1289.05 828.378,1289.05 829.422,1289.05 830.467,1289.05 831.511,1289.05 832.555,1289.05 833.6,1289.05 834.644,1289.05 
  835.689,1289.05 836.733,1289.05 837.777,1289.05 838.822,1289.05 839.866,1289.05 840.911,1289.05 841.955,1289.05 843,1289.05 844.044,1289.05 845.088,1289.05 
  846.133,1289.05 847.177,1289.05 848.222,1289.05 849.266,1289.05 850.31,1289.05 851.355,1289.05 852.399,1289.05 853.444,1289.05 854.488,1289.05 855.533,1289.05 
  856.577,1289.05 857.621,1289.05 858.666,1289.05 859.71,1289.05 860.755,1289.05 861.799,1289.05 862.843,1289.05 863.888,1289.05 864.932,1289.05 865.977,1289.05 
  867.021,1289.05 868.065,1289.05 869.11,1289.05 870.154,1289.05 871.199,1289.05 872.243,1289.05 873.288,1289.05 874.332,1289.05 875.376,1289.05 876.421,1289.05 
  877.465,1289.05 878.51,1289.05 879.554,1289.05 880.598,1289.05 881.643,1289.05 882.687,1289.05 883.732,1289.05 884.776,1289.05 885.821,1289.05 886.865,1289.05 
  887.909,1289.05 888.954,1289.05 889.998,1289.05 891.043,1289.05 892.087,1289.05 893.131,1289.05 894.176,1289.05 895.22,1289.05 896.265,1289.05 897.309,1289.05 
  898.354,1289.05 899.398,1289.05 900.442,1289.05 901.487,1289.05 902.531,1289.05 903.576,1289.05 904.62,1289.05 905.664,1289.05 906.709,1289.05 907.753,1289.05 
  908.798,1289.05 909.842,1289.05 910.887,1289.05 911.931,1289.05 912.975,1289.05 914.02,1289.05 915.064,1289.05 916.109,1289.05 917.153,1289.05 918.197,1289.05 
  919.242,1289.05 920.286,1289.05 921.331,1289.05 922.375,1289.05 923.419,1289.05 924.464,1289.05 925.508,1289.05 926.553,1289.05 927.597,1289.05 928.642,1289.05 
  929.686,1289.05 930.73,1289.05 931.775,1289.05 932.819,1289.05 933.864,1289.05 934.908,1289.05 935.952,1289.05 936.997,1289.05 938.041,1289.05 939.086,1289.05 
  940.13,1289.05 941.175,1289.05 942.219,1289.05 943.263,1289.05 944.308,1289.05 945.352,1289.05 946.397,1289.05 947.441,1289.05 948.485,1289.05 949.53,1289.05 
  950.574,1289.05 951.619,1289.05 952.663,1289.05 953.708,1289.05 954.752,1289.05 955.796,1289.05 956.841,1289.05 957.885,1289.05 958.93,1289.05 959.974,1289.05 
  961.018,1289.05 962.063,1289.05 963.107,1289.05 964.152,1289.05 965.196,1289.05 966.241,1289.05 967.285,1289.05 968.329,1289.05 969.374,1289.05 970.418,1289.05 
  971.463,1289.05 972.507,1289.05 973.551,1289.05 974.596,1289.05 975.64,1289.05 976.685,1289.05 977.729,1289.05 978.773,1289.05 979.818,1289.05 980.862,1289.05 
  981.907,1289.05 982.951,1289.05 983.996,1289.05 985.04,1289.05 986.084,1289.05 987.129,1289.05 988.173,1289.05 989.218,1289.05 990.262,1289.05 991.306,1289.05 
  992.351,1289.05 993.395,1289.05 994.44,1289.05 995.484,1289.05 996.529,1288.28 997.573,1287.24 998.617,1286.19 999.662,1285.15 1000.71,1284.1 1001.75,1283.06 
  1002.8,1282.01 1003.84,1280.97 1004.88,1279.92 1005.93,1278.88 1006.97,1277.84 1008.02,1276.79 1009.06,1275.75 1010.11,1274.7 1011.15,1273.66 1012.19,1272.61 
  1013.24,1271.57 1014.28,1270.52 1015.33,1269.48 1016.37,1268.44 1017.42,1267.39 1018.46,1266.35 1019.51,1265.3 1020.55,1264.26 1021.59,1263.21 1022.64,1262.17 
  1023.68,1261.13 1024.73,1260.08 1025.77,1259.04 1026.82,1257.99 1027.86,1256.95 1028.91,1255.9 1029.95,1254.86 1030.99,1253.81 1032.04,1252.77 1033.08,1251.73 
  1034.13,1250.68 1035.17,1249.64 1036.22,1248.59 1037.26,1247.55 1038.31,1246.5 1039.35,1245.46 1040.39,1244.41 1041.44,1243.37 1042.48,1242.33 1043.53,1241.28 
  1044.57,1240.24 1045.62,1239.19 1046.66,1238.15 1047.7,1237.1 1048.75,1236.06 1049.79,1235.01 1050.84,1233.97 1051.88,1232.93 1052.93,1231.88 1053.97,1230.84 
  1055.02,1229.79 1056.06,1228.75 1057.1,1227.7 1058.15,1226.66 1059.19,1225.61 1060.24,1224.57 1061.28,1223.53 1062.33,1222.48 1063.37,1221.44 1064.42,1220.39 
  1065.46,1219.35 1066.5,1218.3 1067.55,1217.26 1068.59,1216.22 1069.64,1215.17 1070.68,1214.13 1071.73,1213.08 1072.77,1212.04 1073.82,1210.99 1074.86,1209.95 
  1075.9,1208.9 1076.95,1207.86 1077.99,1206.82 1079.04,1205.77 1080.08,1204.73 1081.13,1203.68 1082.17,1202.64 1083.21,1201.59 1084.26,1200.55 1085.3,1199.5 
  1086.35,1198.46 1087.39,1197.42 1088.44,1196.37 1089.48,1195.33 1090.53,1194.28 1091.57,1193.24 1092.61,1192.19 1093.66,1191.15 1094.7,1190.1 1095.75,1189.06 
  1096.79,1188.02 1097.84,1186.97 1098.88,1185.93 1099.93,1184.88 1100.97,1183.84 1102.01,1182.79 1103.06,1181.75 1104.1,1180.71 1105.15,1179.66 1106.19,1178.62 
  1107.24,1177.57 1108.28,1176.53 1109.33,1175.48 1110.37,1174.44 1111.41,1173.39 1112.46,1172.35 1113.5,1171.31 1114.55,1170.26 1115.59,1169.22 1116.64,1168.17 
  1117.68,1167.13 1118.73,1166.08 1119.77,1165.04 1120.81,1163.99 1121.86,1162.95 1122.9,1161.91 1123.95,1160.86 1124.99,1159.82 1126.04,1158.77 1127.08,1157.73 
  1128.12,1156.68 1129.17,1155.64 1130.21,1154.59 1131.26,1153.55 1132.3,1152.51 1133.35,1151.46 1134.39,1150.42 1135.44,1149.37 1136.48,1148.33 1137.52,1147.28 
  1138.57,1146.24 1139.61,1145.2 1140.66,1144.15 1141.7,1143.11 1142.75,1142.06 1143.79,1141.02 1144.84,1139.97 1145.88,1138.93 1146.92,1137.88 1147.97,1136.84 
  1149.01,1135.8 1150.06,1134.75 1151.1,1133.71 1152.15,1132.66 1153.19,1131.62 1154.24,1130.57 1155.28,1129.53 1156.32,1128.48 1157.37,1127.44 1158.41,1126.4 
  1159.46,1125.35 1160.5,1124.31 1161.55,1123.26 1162.59,1122.22 1163.63,1121.17 1164.68,1120.13 1165.72,1119.08 1166.77,1118.04 1167.81,1117 1168.86,1115.95 
  1169.9,1114.91 1170.95,1113.86 1171.99,1112.82 1173.03,1111.77 1174.08,1110.73 1175.12,1109.68 1176.17,1108.64 1177.21,1107.6 1178.26,1106.55 1179.3,1105.51 
  1180.35,1104.46 1181.39,1103.42 1182.43,1102.37 1183.48,1101.33 1184.52,1100.29 1185.57,1099.24 1186.61,1098.2 1187.66,1097.15 1188.7,1096.11 1189.75,1095.06 
  1190.79,1094.02 1191.83,1092.97 1192.88,1091.93 1193.92,1090.89 1194.97,1089.84 1196.01,1088.8 1197.06,1087.75 1198.1,1086.71 1199.15,1085.66 1200.19,1084.62 
  1201.23,1083.57 1202.28,1082.53 1203.32,1081.49 1204.37,1080.44 1205.41,1079.4 1206.46,1078.35 1207.5,1077.31 1208.54,1076.26 1209.59,1075.22 1210.63,1074.17 
  1211.68,1073.13 1212.72,1072.09 1213.77,1071.04 1214.81,1070 1215.86,1068.95 1216.9,1067.91 1217.94,1066.86 1218.99,1065.82 1220.03,1064.78 1221.08,1063.73 
  1222.12,1062.69 1223.17,1061.64 1224.21,1060.6 1225.26,1059.55 1226.3,1058.51 1227.34,1057.46 1228.39,1056.42 1229.43,1055.38 1230.48,1054.33 1231.52,1053.29 
  1232.57,1052.24 1233.61,1051.2 1234.66,1050.15 1235.7,1049.11 1236.74,1048.06 1237.79,1047.02 1238.83,1045.98 1239.88,1044.93 1240.92,1043.89 1241.97,1042.84 
  1243.01,1041.8 1244.05,1040.75 1245.1,1039.71 1246.14,1038.66 1247.19,1037.62 1248.23,1036.58 1249.28,1035.53 1250.32,1034.49 1251.37,1033.44 1252.41,1032.4 
  1253.45,1031.35 1254.5,1030.31 1255.54,1029.26 1256.59,1028.22 1257.63,1027.18 1258.68,1026.13 1259.72,1025.09 1260.77,1024.04 1261.81,1023 1262.85,1021.95 
  1263.9,1020.91 1264.94,1019.87 1265.99,1018.82 1267.03,1017.78 1268.08,1016.73 1269.12,1015.69 1270.17,1014.64 1271.21,1013.6 1272.25,1012.55 1273.3,1011.51 
  1274.34,1010.47 1275.39,1009.42 1276.43,1008.38 1277.48,1007.33 1278.52,1006.29 1279.56,1005.24 1280.61,1004.2 1281.65,1003.15 1282.7,1002.11 1283.74,1001.07 
  1284.79,1000.02 1285.83,998.977 1286.88,997.933 1287.92,996.888 1288.96,995.844 1290.01,994.799 1291.05,993.755 1292.1,992.71 1293.14,991.666 1294.19,990.622 
  1295.23,989.577 1296.28,988.533 1297.32,987.488 1298.36,986.444 1299.41,985.4 1300.45,984.355 1301.5,983.311 1302.54,982.266 1303.59,981.222 1304.63,980.177 
  1305.68,979.133 1306.72,978.089 1307.76,977.044 1308.81,976 1309.85,974.955 1310.9,973.911 1311.94,972.867 1312.99,971.822 1314.03,970.778 1315.08,969.733 
  1316.12,968.689 1317.16,967.645 1318.21,966.6 1319.25,965.556 1320.3,964.511 1321.34,963.467 1322.39,962.422 1323.43,961.378 1324.47,960.334 1325.52,959.289 
  1326.56,958.245 1327.61,957.2 1328.65,956.156 1329.7,955.112 1330.74,954.067 1331.79,953.023 1332.83,951.978 1333.87,950.934 1334.92,949.889 1335.96,948.845 
  1337.01,947.801 1338.05,946.756 1339.1,945.712 1340.14,944.667 1341.19,943.623 1342.23,942.579 1343.27,941.534 1344.32,940.49 1345.36,939.445 1346.41,938.401 
  1347.45,937.356 1348.5,936.312 1349.54,935.268 1350.59,934.223 1351.63,933.179 1352.67,932.134 1353.72,931.09 1354.76,930.046 1355.81,929.001 1356.85,927.957 
  1357.9,926.912 1358.94,925.868 1359.98,924.823 1361.03,923.779 1362.07,922.735 1363.12,921.69 1364.16,920.646 1365.21,919.601 1366.25,918.557 1367.3,917.513 
  1368.34,916.468 1369.38,915.424 1370.43,914.379 1371.47,913.335 1372.52,912.291 1373.56,911.246 1374.61,910.202 1375.65,909.157 1376.7,908.113 1377.74,907.068 
  1378.78,906.024 1379.83,904.98 1380.87,903.935 1381.92,902.891 1382.96,901.846 1384.01,900.802 1385.05,899.758 1386.1,898.713 1387.14,897.669 1388.18,896.624 
  1389.23,895.58 1390.27,894.535 1391.32,893.491 1392.36,892.447 1393.41,891.402 1394.45,890.358 1395.5,889.313 1396.54,888.269 1397.58,887.225 1398.63,886.18 
  1399.67,885.136 1400.72,884.091 1401.76,883.047 1402.81,882.002 1403.85,880.958 1404.89,879.914 1405.94,878.869 1406.98,877.825 1408.03,876.78 1409.07,875.736 
  1410.12,874.692 1411.16,873.647 1412.21,872.603 1413.25,871.558 1414.29,870.514 1415.34,869.469 1416.38,868.425 1417.43,867.381 1418.47,866.336 1419.52,865.292 
  1420.56,864.247 1421.61,863.203 1422.65,862.159 1423.69,861.114 1424.74,860.07 1425.78,859.025 1426.83,857.981 1427.87,856.937 1428.92,855.892 1429.96,854.848 
  1431.01,853.803 1432.05,852.759 1433.09,851.714 1434.14,850.67 1435.18,849.626 1436.23,848.581 1437.27,847.537 1438.32,846.492 1439.36,845.448 1440.4,844.404 
  1441.45,843.359 1442.49,842.315 1443.54,841.27 1444.58,840.226 1445.63,839.181 1446.67,838.137 1447.72,837.093 1448.76,836.048 1449.8,835.004 1450.85,833.959 
  1451.89,832.915 1452.94,831.871 1453.98,830.826 1455.03,829.782 1456.07,828.737 1457.12,827.693 1458.16,826.648 1459.2,825.604 1460.25,824.56 1461.29,823.515 
  1462.34,822.471 1463.38,821.426 1464.43,820.382 1465.47,819.338 1466.52,818.293 1467.56,817.249 1468.6,816.204 1469.65,815.16 1470.69,814.116 1471.74,813.071 
  1472.78,812.027 1473.83,810.982 1474.87,809.938 1475.91,808.893 1476.96,807.849 1478,806.805 1479.05,805.76 1480.09,804.716 1481.14,803.671 1482.18,802.627 
  1483.23,801.583 1484.27,800.538 1485.31,799.494 1486.36,798.449 1487.4,797.405 1488.45,796.36 1489.49,795.316 1490.54,794.272 1491.58,793.227 1492.63,792.183 
  1493.67,791.138 1494.71,790.094 1495.76,789.05 1496.8,788.005 1497.85,786.961 1498.89,785.916 1499.94,784.872 1500.98,783.827 1502.03,782.783 1503.07,781.739 
  1504.11,780.694 1505.16,779.65 1506.2,778.605 1507.25,777.561 1508.29,776.517 1509.34,775.472 1510.38,774.428 1511.43,773.383 1512.47,772.339 1513.51,771.294 
  1514.56,770.25 1515.6,769.206 1516.65,768.161 1517.69,767.117 1518.74,766.072 1519.78,765.028 1520.82,763.984 1521.87,762.939 1522.91,761.895 1523.96,760.85 
  1525,759.806 1526.05,758.762 1527.09,757.717 1528.14,756.673 1529.18,755.628 1530.22,754.584 1531.27,753.539 1532.31,752.495 1533.36,751.451 1534.4,750.406 
  1535.45,749.362 
  "/>
<polyline clip-path="url(#clip343)" style="stroke:#000000; stroke-linecap:butt; stroke-linejoin:round; stroke-width:4; stroke-opacity:1; fill:none" stroke-dasharray="16, 10" points="
  491.032,1289.05 491.032,244.639 1535.45,244.639 1535.45,1289.05 491.032,1289.05 
  "/>
<path clip-path="url(#clip340)" d="
M1805.06 250.738 L2245.39 250.738 L2245.39 95.2176 L1805.06 95.2176  Z
  " fill="#ffffff" fill-rule="evenodd" fill-opacity="1"/>
<polyline clip-path="url(#clip340)" style="stroke:#000000; stroke-linecap:butt; stroke-linejoin:round; stroke-width:4; stroke-opacity:1; fill:none" points="
  1805.06,250.738 2245.39,250.738 2245.39,95.2176 1805.06,95.2176 1805.06,250.738 
  "/>
<polyline clip-path="url(#clip340)" style="stroke:#009af9; stroke-linecap:butt; stroke-linejoin:round; stroke-width:4; stroke-opacity:1; fill:none" points="
  1829.13,147.058 1973.56,147.058 
  "/>
<path clip-path="url(#clip340)" d="M2021.52 141.559 Q2021.52 142.871 2020.7 143.62 Q2019.88 144.347 2018.95 144.347 Q2018.06 144.347 2017.59 143.831 Q2017.12 143.316 2017.12 142.66 Q2017.12 141.77 2017.78 140.997 Q2018.43 140.224 2019.42 140.06 Q2018.46 139.451 2017.03 139.451 Q2016.09 139.451 2015.27 139.943 Q2014.47 140.435 2013.98 141.067 Q2013.51 141.7 2013.09 142.613 Q2012.69 143.503 2012.53 144.042 Q2012.39 144.557 2012.27 145.119 L2010.63 151.678 Q2009.84 154.793 2009.84 155.894 Q2009.84 157.252 2010.49 158.166 Q2011.15 159.056 2012.46 159.056 Q2012.97 159.056 2013.56 158.915 Q2014.15 158.751 2014.9 158.33 Q2015.67 157.885 2016.35 157.229 Q2017.05 156.55 2017.73 155.402 Q2018.41 154.254 2018.85 152.779 Q2018.99 152.263 2019.46 152.263 Q2020.05 152.263 2020.05 152.732 Q2020.05 153.13 2019.72 153.973 Q2019.42 154.793 2018.74 155.87 Q2018.08 156.924 2017.21 157.885 Q2016.35 158.822 2015.06 159.477 Q2013.77 160.133 2012.37 160.133 Q2010.35 160.133 2009.02 159.056 Q2007.68 157.978 2007.19 156.479 Q2007.07 156.69 2006.91 156.971 Q2006.74 157.252 2006.25 157.885 Q2005.78 158.494 2005.25 158.962 Q2004.71 159.407 2003.86 159.759 Q2003.04 160.133 2002.15 160.133 Q2001.03 160.133 2000.02 159.805 Q1999.04 159.477 1998.34 158.728 Q1997.63 157.978 1997.63 156.948 Q1997.63 155.8 1998.41 155.004 Q1999.2 154.184 2000.28 154.184 Q2000.96 154.184 2001.5 154.582 Q2002.06 154.98 2002.06 155.847 Q2002.06 156.807 2001.4 157.533 Q2000.75 158.259 1999.81 158.447 Q2000.77 159.056 2002.2 159.056 Q2003.75 159.056 2004.96 157.697 Q2006.18 156.339 2006.77 154.067 Q2008.22 148.609 2008.78 146.173 Q2009.34 143.714 2009.34 142.66 Q2009.34 141.676 2009.09 140.997 Q2008.83 140.318 2008.38 140.013 Q2007.96 139.685 2007.56 139.568 Q2007.19 139.451 2006.77 139.451 Q2006.07 139.451 2005.27 139.732 Q2004.5 140.013 2003.56 140.669 Q2002.65 141.302 2001.78 142.613 Q2000.91 143.925 2000.33 145.728 Q2000.21 146.267 1999.69 146.267 Q1999.13 146.244 1999.13 145.775 Q1999.13 145.377 1999.44 144.557 Q1999.76 143.714 2000.42 142.66 Q2001.1 141.606 2001.97 140.669 Q2002.86 139.709 2004.14 139.053 Q2005.46 138.397 2006.86 138.397 Q2007.49 138.397 2008.1 138.538 Q2008.74 138.655 2009.49 139.006 Q2010.26 139.358 2010.94 140.131 Q2011.62 140.903 2012.04 142.028 Q2012.32 141.489 2012.69 140.974 Q2013.09 140.458 2013.7 139.826 Q2014.33 139.17 2015.2 138.795 Q2016.09 138.397 2017.07 138.397 Q2018.03 138.397 2018.97 138.655 Q2019.91 138.889 2020.7 139.662 Q2021.52 140.412 2021.52 141.559 Z" fill="#000000" fill-rule="evenodd" fill-opacity="1" /><path clip-path="url(#clip340)" d="M2069.76 146.923 Q2070.05 147.204 2070.05 147.602 Q2070.05 148 2069.76 148.282 Q2069.48 148.563 2069.09 148.563 L2039.06 148.563 Q2038.66 148.563 2038.38 148.282 Q2038.1 148 2038.1 147.602 Q2038.1 147.204 2038.38 146.923 Q2038.66 146.642 2039.06 146.642 L2069.09 146.642 Q2069.48 146.642 2069.76 146.923 Z" fill="#000000" fill-rule="evenodd" fill-opacity="1" /><path clip-path="url(#clip340)" d="M2110.48 140.224 Q2110.48 140.552 2110.27 141.325 L2105.68 159.641 Q2104.67 163.717 2101.4 166.574 Q2098.14 169.432 2094.44 169.432 Q2092.21 169.432 2090.79 168.237 Q2089.36 167.066 2089.36 165.263 Q2089.36 163.67 2090.2 162.897 Q2091.04 162.148 2092.05 162.148 Q2092.38 162.148 2092.73 162.241 Q2093.08 162.335 2093.46 162.733 Q2093.83 163.131 2093.83 163.811 Q2093.83 164.911 2092.87 165.778 Q2092.4 166.176 2091.96 166.27 Q2091.53 166.364 2090.81 166.364 Q2091.09 167.019 2091.6 167.464 Q2092.12 167.91 2092.71 168.073 Q2093.29 168.261 2093.67 168.308 Q2094.06 168.378 2094.44 168.378 Q2097.44 168.378 2099.73 165.356 Q2100.41 164.443 2100.9 163.53 Q2101.42 162.639 2101.79 161.539 Q2102.17 160.461 2102.33 159.876 Q2102.52 159.29 2102.85 157.955 Q2100.67 160.133 2098 160.133 Q2096.87 160.133 2095.87 159.829 Q2094.88 159.524 2094.02 158.892 Q2093.15 158.236 2092.64 157.088 Q2092.14 155.941 2092.14 154.418 Q2092.14 152.802 2092.78 150.6 Q2093.41 148.399 2094.93 144.347 Q2095.75 142.075 2095.75 140.974 Q2095.75 140.435 2095.63 140.107 Q2095.52 139.756 2095.28 139.639 Q2095.05 139.498 2094.91 139.475 Q2094.79 139.451 2094.56 139.451 Q2093.17 139.451 2091.89 140.857 Q2090.6 142.262 2089.71 145.401 Q2089.52 145.986 2089.4 146.127 Q2089.29 146.267 2088.93 146.267 Q2088.35 146.244 2088.35 145.775 Q2088.35 145.588 2088.56 144.862 Q2088.77 144.112 2089.26 143.011 Q2089.78 141.887 2090.48 140.88 Q2091.18 139.849 2092.28 139.123 Q2093.41 138.397 2094.7 138.397 Q2096.45 138.397 2097.53 139.545 Q2098.63 140.669 2098.63 142.332 Q2098.63 143.011 2098.44 143.62 Q2098.28 144.206 2097.67 145.775 Q2095.21 152.099 2095.21 155.191 Q2095.21 155.941 2095.33 156.573 Q2095.47 157.182 2095.77 157.791 Q2096.08 158.377 2096.69 158.728 Q2097.32 159.056 2098.19 159.056 Q2099.29 159.056 2100.32 158.541 Q2101.37 158.002 2102.03 157.276 Q2102.71 156.55 2103.11 155.941 Q2103.53 155.308 2103.62 154.98 L2105.78 146.361 L2106.74 142.52 Q2107.18 140.435 2107.39 139.92 Q2107.67 139.428 2108.16 139.17 Q2108.66 138.913 2109.08 138.913 Q2109.66 138.913 2110.06 139.264 Q2110.48 139.615 2110.48 140.224 Z" fill="#000000" fill-rule="evenodd" fill-opacity="1" /><path clip-path="url(#clip340)" d="M2124.92 152.31 Q2124.96 151.725 2125.88 151.725 L2155.27 151.725 Q2156.65 151.725 2156.68 152.263 Q2156.68 152.849 2155.37 152.825 L2126.21 152.825 Q2124.92 152.849 2124.92 152.31 M2124.92 142.941 Q2124.92 142.356 2125.92 142.379 L2155.23 142.379 Q2156.65 142.379 2156.68 142.941 Q2156.68 143.48 2155.46 143.48 L2125.88 143.48 Q2124.92 143.48 2124.92 142.941 Z" fill="#000000" fill-rule="evenodd" fill-opacity="1" /><path clip-path="url(#clip340)" d="M2195.5 138.866 Q2195.5 139.03 2195.1 139.732 Q2194.73 140.412 2193.34 142.121 Q2191.96 143.831 2189.9 145.822 Q2189.13 146.595 2187.96 147.673 Q2186.79 148.75 2185.99 149.453 L2185.19 150.155 Q2182.15 152.732 2179.48 155.613 Q2179.67 155.542 2179.99 155.519 Q2180.32 155.472 2180.56 155.472 L2180.79 155.472 Q2182.01 155.472 2184.14 156.292 Q2186.01 156.901 2186.97 156.901 Q2187.91 156.901 2188.94 156.573 Q2189.97 156.245 2191.1 155.285 Q2192.22 154.325 2192.74 152.872 Q2192.83 152.638 2192.88 152.568 Q2192.92 152.474 2193.06 152.38 Q2193.2 152.263 2193.39 152.263 Q2193.65 152.263 2193.81 152.404 Q2193.98 152.544 2193.98 152.732 Q2193.98 153.153 2193.65 153.997 Q2193.34 154.84 2192.67 155.894 Q2192.01 156.948 2191.14 157.908 Q2190.3 158.845 2189.03 159.501 Q2187.77 160.133 2186.43 160.133 Q2185.47 160.133 2184.77 159.665 Q2184.07 159.22 2183.37 158.353 Q2182.41 157.252 2181.89 156.901 Q2181.38 156.526 2180.58 156.526 Q2178.45 156.526 2176.5 159.501 Q2176.29 159.922 2176.15 160.016 Q2176.04 160.133 2175.75 160.133 Q2175.17 160.11 2175.17 159.641 Q2175.17 159.454 2175.68 158.634 Q2176.22 157.791 2177.42 156.315 Q2178.64 154.84 2180.11 153.364 L2184.42 149.336 Q2189.2 145.307 2191.1 143.035 Q2190.3 143.035 2189.95 143.011 Q2189.62 142.988 2188.96 142.848 Q2188.31 142.684 2187.4 142.332 Q2185.26 141.606 2184.37 141.606 Q2184.14 141.606 2183.88 141.63 Q2183.62 141.653 2183.04 141.77 Q2182.48 141.887 2182.01 142.121 Q2181.54 142.332 2181.05 142.801 Q2180.56 143.246 2180.3 143.855 Q2180.23 144.042 2180.18 144.136 Q2180.13 144.229 2179.99 144.323 Q2179.88 144.393 2179.69 144.393 Q2179.41 144.393 2179.24 144.229 Q2179.1 144.065 2179.1 143.855 Q2179.1 143.433 2179.53 142.566 Q2179.95 141.7 2180.65 140.763 Q2181.35 139.803 2182.5 139.1 Q2183.65 138.397 2184.91 138.397 Q2185.66 138.397 2186.29 138.725 Q2186.95 139.053 2187.28 139.404 Q2187.63 139.732 2188.21 140.458 Q2188.71 141.021 2188.94 141.255 Q2189.18 141.489 2189.64 141.747 Q2190.14 141.981 2190.67 141.981 Q2191.56 141.981 2192.38 141.302 Q2193.2 140.599 2194.26 138.913 Q2194.54 138.397 2194.98 138.397 Q2195.5 138.397 2195.5 138.866 Z" fill="#000000" fill-rule="evenodd" fill-opacity="1" /><polyline clip-path="url(#clip340)" style="stroke:#e26f46; stroke-linecap:butt; stroke-linejoin:round; stroke-width:4; stroke-opacity:1; fill:none" points="
  1829.13,198.898 1973.56,198.898 
  "/>
<path clip-path="url(#clip340)" d="M2019.77 192.064 Q2019.77 192.392 2019.56 193.165 L2014.97 211.481 Q2013.96 215.557 2010.68 218.414 Q2007.42 221.272 2003.72 221.272 Q2001.5 221.272 2000.07 220.077 Q1998.64 218.906 1998.64 217.103 Q1998.64 215.51 1999.48 214.737 Q2000.33 213.988 2001.33 213.988 Q2001.66 213.988 2002.01 214.081 Q2002.36 214.175 2002.74 214.573 Q2003.11 214.971 2003.11 215.651 Q2003.11 216.751 2002.15 217.618 Q2001.69 218.016 2001.24 218.11 Q2000.82 218.204 2000.09 218.204 Q2000.37 218.859 2000.89 219.304 Q2001.4 219.75 2001.99 219.913 Q2002.58 220.101 2002.95 220.148 Q2003.35 220.218 2003.72 220.218 Q2006.72 220.218 2009.02 217.196 Q2009.7 216.283 2010.19 215.37 Q2010.7 214.479 2011.08 213.379 Q2011.45 212.301 2011.62 211.716 Q2011.8 211.13 2012.13 209.795 Q2009.95 211.973 2007.28 211.973 Q2006.16 211.973 2005.15 211.669 Q2004.17 211.364 2003.3 210.732 Q2002.43 210.076 2001.92 208.928 Q2001.43 207.781 2001.43 206.258 Q2001.43 204.642 2002.06 202.44 Q2002.69 200.239 2004.22 196.187 Q2005.03 193.915 2005.03 192.814 Q2005.03 192.275 2004.92 191.947 Q2004.8 191.596 2004.57 191.479 Q2004.33 191.338 2004.19 191.315 Q2004.07 191.291 2003.84 191.291 Q2002.46 191.291 2001.17 192.697 Q1999.88 194.102 1998.99 197.241 Q1998.8 197.826 1998.69 197.967 Q1998.57 198.107 1998.22 198.107 Q1997.63 198.084 1997.63 197.615 Q1997.63 197.428 1997.84 196.702 Q1998.05 195.952 1998.55 194.851 Q1999.06 193.727 1999.76 192.72 Q2000.47 191.689 2001.57 190.963 Q2002.69 190.237 2003.98 190.237 Q2005.74 190.237 2006.81 191.385 Q2007.92 192.509 2007.92 194.172 Q2007.92 194.851 2007.73 195.46 Q2007.56 196.046 2006.96 197.615 Q2004.5 203.939 2004.5 207.031 Q2004.5 207.781 2004.61 208.413 Q2004.75 209.022 2005.06 209.631 Q2005.36 210.217 2005.97 210.568 Q2006.6 210.896 2007.47 210.896 Q2008.57 210.896 2009.6 210.381 Q2010.66 209.842 2011.31 209.116 Q2011.99 208.39 2012.39 207.781 Q2012.81 207.148 2012.9 206.82 L2015.06 198.201 L2016.02 194.36 Q2016.46 192.275 2016.68 191.76 Q2016.96 191.268 2017.45 191.01 Q2017.94 190.753 2018.36 190.753 Q2018.95 190.753 2019.35 191.104 Q2019.77 191.455 2019.77 192.064 Z" fill="#000000" fill-rule="evenodd" fill-opacity="1" /><path clip-path="url(#clip340)" d="M2065.87 198.763 Q2066.15 199.044 2066.15 199.442 Q2066.15 199.84 2065.87 200.122 Q2065.59 200.403 2065.19 200.403 L2035.16 200.403 Q2034.76 200.403 2034.48 200.122 Q2034.2 199.84 2034.2 199.442 Q2034.2 199.044 2034.48 198.763 Q2034.76 198.482 2035.16 198.482 L2065.19 198.482 Q2065.59 198.482 2065.87 198.763 Z" fill="#000000" fill-rule="evenodd" fill-opacity="1" /><path clip-path="url(#clip340)" d="M2108.34 193.399 Q2108.34 194.711 2107.52 195.46 Q2106.7 196.187 2105.77 196.187 Q2104.88 196.187 2104.41 195.671 Q2103.94 195.156 2103.94 194.5 Q2103.94 193.61 2104.6 192.837 Q2105.25 192.064 2106.24 191.9 Q2105.28 191.291 2103.85 191.291 Q2102.91 191.291 2102.09 191.783 Q2101.29 192.275 2100.8 192.907 Q2100.33 193.54 2099.91 194.453 Q2099.51 195.343 2099.35 195.882 Q2099.21 196.397 2099.09 196.959 L2097.45 203.518 Q2096.66 206.633 2096.66 207.734 Q2096.66 209.092 2097.31 210.006 Q2097.97 210.896 2099.28 210.896 Q2099.79 210.896 2100.38 210.755 Q2100.97 210.591 2101.71 210.17 Q2102.49 209.725 2103.17 209.069 Q2103.87 208.39 2104.55 207.242 Q2105.23 206.094 2105.67 204.619 Q2105.81 204.103 2106.28 204.103 Q2106.87 204.103 2106.87 204.572 Q2106.87 204.97 2106.54 205.813 Q2106.24 206.633 2105.56 207.71 Q2104.9 208.764 2104.03 209.725 Q2103.17 210.662 2101.88 211.317 Q2100.59 211.973 2099.19 211.973 Q2097.17 211.973 2095.84 210.896 Q2094.5 209.818 2094.01 208.319 Q2093.89 208.53 2093.73 208.811 Q2093.56 209.092 2093.07 209.725 Q2092.6 210.334 2092.06 210.802 Q2091.53 211.247 2090.68 211.599 Q2089.86 211.973 2088.97 211.973 Q2087.85 211.973 2086.84 211.645 Q2085.86 211.317 2085.16 210.568 Q2084.45 209.818 2084.45 208.788 Q2084.45 207.64 2085.23 206.844 Q2086.02 206.024 2087.1 206.024 Q2087.78 206.024 2088.32 206.422 Q2088.88 206.82 2088.88 207.687 Q2088.88 208.647 2088.22 209.373 Q2087.57 210.099 2086.63 210.287 Q2087.59 210.896 2089.02 210.896 Q2090.57 210.896 2091.78 209.537 Q2093 208.179 2093.59 205.907 Q2095.04 200.449 2095.6 198.013 Q2096.16 195.554 2096.16 194.5 Q2096.16 193.516 2095.91 192.837 Q2095.65 192.158 2095.2 191.853 Q2094.78 191.525 2094.38 191.408 Q2094.01 191.291 2093.59 191.291 Q2092.88 191.291 2092.09 191.572 Q2091.32 191.853 2090.38 192.509 Q2089.47 193.142 2088.6 194.453 Q2087.73 195.765 2087.15 197.568 Q2087.03 198.107 2086.51 198.107 Q2085.95 198.084 2085.95 197.615 Q2085.95 197.217 2086.26 196.397 Q2086.58 195.554 2087.24 194.5 Q2087.92 193.446 2088.79 192.509 Q2089.68 191.549 2090.96 190.893 Q2092.28 190.237 2093.68 190.237 Q2094.31 190.237 2094.92 190.378 Q2095.55 190.495 2096.3 190.846 Q2097.08 191.198 2097.76 191.971 Q2098.44 192.743 2098.86 193.868 Q2099.14 193.329 2099.51 192.814 Q2099.91 192.298 2100.52 191.666 Q2101.15 191.01 2102.02 190.635 Q2102.91 190.237 2103.89 190.237 Q2104.85 190.237 2105.79 190.495 Q2106.73 190.729 2107.52 191.502 Q2108.34 192.252 2108.34 193.399 Z" fill="#000000" fill-rule="evenodd" fill-opacity="1" /><path clip-path="url(#clip340)" d="M2124.92 204.15 Q2124.96 203.565 2125.88 203.565 L2155.27 203.565 Q2156.65 203.565 2156.68 204.103 Q2156.68 204.689 2155.37 204.665 L2126.21 204.665 Q2124.92 204.689 2124.92 204.15 M2124.92 194.781 Q2124.92 194.196 2125.92 194.219 L2155.23 194.219 Q2156.65 194.219 2156.68 194.781 Q2156.68 195.32 2155.46 195.32 L2125.88 195.32 Q2124.92 195.32 2124.92 194.781 Z" fill="#000000" fill-rule="evenodd" fill-opacity="1" /><path clip-path="url(#clip340)" d="M2195.5 190.706 Q2195.5 190.87 2195.1 191.572 Q2194.73 192.252 2193.34 193.961 Q2191.96 195.671 2189.9 197.662 Q2189.13 198.435 2187.96 199.513 Q2186.79 200.59 2185.99 201.293 L2185.19 201.995 Q2182.15 204.572 2179.48 207.453 Q2179.67 207.382 2179.99 207.359 Q2180.32 207.312 2180.56 207.312 L2180.79 207.312 Q2182.01 207.312 2184.14 208.132 Q2186.01 208.741 2186.97 208.741 Q2187.91 208.741 2188.94 208.413 Q2189.97 208.085 2191.1 207.125 Q2192.22 206.165 2192.74 204.712 Q2192.83 204.478 2192.88 204.408 Q2192.92 204.314 2193.06 204.22 Q2193.2 204.103 2193.39 204.103 Q2193.65 204.103 2193.81 204.244 Q2193.98 204.384 2193.98 204.572 Q2193.98 204.993 2193.65 205.837 Q2193.34 206.68 2192.67 207.734 Q2192.01 208.788 2191.14 209.748 Q2190.3 210.685 2189.03 211.341 Q2187.77 211.973 2186.43 211.973 Q2185.47 211.973 2184.77 211.505 Q2184.07 211.06 2183.37 210.193 Q2182.41 209.092 2181.89 208.741 Q2181.38 208.366 2180.58 208.366 Q2178.45 208.366 2176.5 211.341 Q2176.29 211.762 2176.15 211.856 Q2176.04 211.973 2175.75 211.973 Q2175.17 211.95 2175.17 211.481 Q2175.17 211.294 2175.68 210.474 Q2176.22 209.631 2177.42 208.155 Q2178.64 206.68 2180.11 205.204 L2184.42 201.176 Q2189.2 197.147 2191.1 194.875 Q2190.3 194.875 2189.95 194.851 Q2189.62 194.828 2188.96 194.688 Q2188.31 194.524 2187.4 194.172 Q2185.26 193.446 2184.37 193.446 Q2184.14 193.446 2183.88 193.47 Q2183.62 193.493 2183.04 193.61 Q2182.48 193.727 2182.01 193.961 Q2181.54 194.172 2181.05 194.641 Q2180.56 195.086 2180.3 195.695 Q2180.23 195.882 2180.18 195.976 Q2180.13 196.069 2179.99 196.163 Q2179.88 196.233 2179.69 196.233 Q2179.41 196.233 2179.24 196.069 Q2179.1 195.905 2179.1 195.695 Q2179.1 195.273 2179.53 194.406 Q2179.95 193.54 2180.65 192.603 Q2181.35 191.643 2182.5 190.94 Q2183.65 190.237 2184.91 190.237 Q2185.66 190.237 2186.29 190.565 Q2186.95 190.893 2187.28 191.244 Q2187.63 191.572 2188.21 192.298 Q2188.71 192.861 2188.94 193.095 Q2189.18 193.329 2189.64 193.587 Q2190.14 193.821 2190.67 193.821 Q2191.56 193.821 2192.38 193.142 Q2193.2 192.439 2194.26 190.753 Q2194.54 190.237 2194.98 190.237 Q2195.5 190.237 2195.5 190.706 Z" fill="#000000" fill-rule="evenodd" fill-opacity="1" /></svg>
