<?xml version="1.0" encoding="utf-8"?>
<svg xmlns="http://www.w3.org/2000/svg" xmlns:xlink="http://www.w3.org/1999/xlink" width="600" height="400" viewBox="0 0 2400 1600">
<defs>
  <clipPath id="clip290">
    <rect x="0" y="0" width="2400" height="1600"/>
  </clipPath>
</defs>
<path clip-path="url(#clip290)" d="
M0 1600 L2400 1600 L2400 0 L0 0  Z
  " fill="#ffffff" fill-rule="evenodd" fill-opacity="1"/>
<defs>
  <clipPath id="clip291">
    <rect x="480" y="0" width="1681" height="1600"/>
  </clipPath>
</defs>
<defs>
  <clipPath id="clip292">
    <rect x="271" y="47" width="1440" height="1440"/>
  </clipPath>
</defs>
<path clip-path="url(#clip290)" d="
M271.225 1486.45 L1710.43 1486.45 L1710.43 47.2441 L271.225 47.2441  Z
  " fill="#ffffff" fill-rule="evenodd" fill-opacity="1"/>
<polyline clip-path="url(#clip292)" style="stroke:#000000; stroke-linecap:butt; stroke-linejoin:round; stroke-width:2; stroke-opacity:0.1; fill:none" points="
  416.399,1486.45 416.399,47.2441 
  "/>
<polyline clip-path="url(#clip292)" style="stroke:#000000; stroke-linecap:butt; stroke-linejoin:round; stroke-width:2; stroke-opacity:0.1; fill:none" points="
  625.282,1486.45 625.282,47.2441 
  "/>
<polyline clip-path="url(#clip292)" style="stroke:#000000; stroke-linecap:butt; stroke-linejoin:round; stroke-width:2; stroke-opacity:0.1; fill:none" points="
  834.165,1486.45 834.165,47.2441 
  "/>
<polyline clip-path="url(#clip292)" style="stroke:#000000; stroke-linecap:butt; stroke-linejoin:round; stroke-width:2; stroke-opacity:0.1; fill:none" points="
  1043.05,1486.45 1043.05,47.2441 
  "/>
<polyline clip-path="url(#clip292)" style="stroke:#000000; stroke-linecap:butt; stroke-linejoin:round; stroke-width:2; stroke-opacity:0.1; fill:none" points="
  1251.93,1486.45 1251.93,47.2441 
  "/>
<polyline clip-path="url(#clip292)" style="stroke:#000000; stroke-linecap:butt; stroke-linejoin:round; stroke-width:2; stroke-opacity:0.1; fill:none" points="
  1460.81,1486.45 1460.81,47.2441 
  "/>
<polyline clip-path="url(#clip292)" style="stroke:#000000; stroke-linecap:butt; stroke-linejoin:round; stroke-width:2; stroke-opacity:0.1; fill:none" points="
  1669.7,1486.45 1669.7,47.2441 
  "/>
<polyline clip-path="url(#clip290)" style="stroke:#000000; stroke-linecap:butt; stroke-linejoin:round; stroke-width:4; stroke-opacity:1; fill:none" points="
  271.225,1486.45 1710.43,1486.45 
  "/>
<polyline clip-path="url(#clip290)" style="stroke:#000000; stroke-linecap:butt; stroke-linejoin:round; stroke-width:4; stroke-opacity:1; fill:none" points="
  416.399,1486.45 416.399,1467.55 
  "/>
<polyline clip-path="url(#clip290)" style="stroke:#000000; stroke-linecap:butt; stroke-linejoin:round; stroke-width:4; stroke-opacity:1; fill:none" points="
  625.282,1486.45 625.282,1467.55 
  "/>
<polyline clip-path="url(#clip290)" style="stroke:#000000; stroke-linecap:butt; stroke-linejoin:round; stroke-width:4; stroke-opacity:1; fill:none" points="
  834.165,1486.45 834.165,1467.55 
  "/>
<polyline clip-path="url(#clip290)" style="stroke:#000000; stroke-linecap:butt; stroke-linejoin:round; stroke-width:4; stroke-opacity:1; fill:none" points="
  1043.05,1486.45 1043.05,1467.55 
  "/>
<polyline clip-path="url(#clip290)" style="stroke:#000000; stroke-linecap:butt; stroke-linejoin:round; stroke-width:4; stroke-opacity:1; fill:none" points="
  1251.93,1486.45 1251.93,1467.55 
  "/>
<polyline clip-path="url(#clip290)" style="stroke:#000000; stroke-linecap:butt; stroke-linejoin:round; stroke-width:4; stroke-opacity:1; fill:none" points="
  1460.81,1486.45 1460.81,1467.55 
  "/>
<polyline clip-path="url(#clip290)" style="stroke:#000000; stroke-linecap:butt; stroke-linejoin:round; stroke-width:4; stroke-opacity:1; fill:none" points="
  1669.7,1486.45 1669.7,1467.55 
  "/>
<path clip-path="url(#clip290)" d="M386.341 1532.02 L416.017 1532.02 L416.017 1535.95 L386.341 1535.95 L386.341 1532.02 Z" fill="#000000" fill-rule="evenodd" fill-opacity="1" /><path clip-path="url(#clip290)" d="M430.137 1544.91 L446.457 1544.91 L446.457 1548.85 L424.512 1548.85 L424.512 1544.91 Q427.174 1542.16 431.758 1537.53 Q436.364 1532.88 437.545 1531.53 Q439.79 1529.01 440.67 1527.27 Q441.573 1525.51 441.573 1523.82 Q441.573 1521.07 439.628 1519.33 Q437.707 1517.6 434.605 1517.6 Q432.406 1517.6 429.952 1518.36 Q427.522 1519.13 424.744 1520.68 L424.744 1515.95 Q427.568 1514.82 430.022 1514.24 Q432.475 1513.66 434.512 1513.66 Q439.883 1513.66 443.077 1516.35 Q446.272 1519.03 446.272 1523.52 Q446.272 1525.65 445.461 1527.57 Q444.674 1529.47 442.568 1532.07 Q441.989 1532.74 438.887 1535.95 Q435.786 1539.15 430.137 1544.91 Z" fill="#000000" fill-rule="evenodd" fill-opacity="1" /><path clip-path="url(#clip290)" d="M625.282 1517.37 Q621.671 1517.37 619.842 1520.93 Q618.037 1524.47 618.037 1531.6 Q618.037 1538.71 619.842 1542.27 Q621.671 1545.82 625.282 1545.82 Q628.916 1545.82 630.722 1542.27 Q632.551 1538.71 632.551 1531.6 Q632.551 1524.47 630.722 1520.93 Q628.916 1517.37 625.282 1517.37 M625.282 1513.66 Q631.092 1513.66 634.148 1518.27 Q637.226 1522.85 637.226 1531.6 Q637.226 1540.33 634.148 1544.94 Q631.092 1549.52 625.282 1549.52 Q619.472 1549.52 616.393 1544.94 Q613.338 1540.33 613.338 1531.6 Q613.338 1522.85 616.393 1518.27 Q619.472 1513.66 625.282 1513.66 Z" fill="#000000" fill-rule="evenodd" fill-opacity="1" /><path clip-path="url(#clip290)" d="M828.818 1544.91 L845.137 1544.91 L845.137 1548.85 L823.193 1548.85 L823.193 1544.91 Q825.855 1542.16 830.438 1537.53 Q835.045 1532.88 836.225 1531.53 Q838.471 1529.01 839.35 1527.27 Q840.253 1525.51 840.253 1523.82 Q840.253 1521.07 838.309 1519.33 Q836.387 1517.6 833.285 1517.6 Q831.086 1517.6 828.633 1518.36 Q826.202 1519.13 823.424 1520.68 L823.424 1515.95 Q826.248 1514.82 828.702 1514.24 Q831.156 1513.66 833.193 1513.66 Q838.563 1513.66 841.758 1516.35 Q844.952 1519.03 844.952 1523.52 Q844.952 1525.65 844.142 1527.57 Q843.355 1529.47 841.248 1532.07 Q840.67 1532.74 837.568 1535.95 Q834.466 1539.15 828.818 1544.91 Z" fill="#000000" fill-rule="evenodd" fill-opacity="1" /><path clip-path="url(#clip290)" d="M1046.06 1518.36 L1034.25 1536.81 L1046.06 1536.81 L1046.06 1518.36 M1044.83 1514.29 L1050.71 1514.29 L1050.71 1536.81 L1055.64 1536.81 L1055.64 1540.7 L1050.71 1540.7 L1050.71 1548.85 L1046.06 1548.85 L1046.06 1540.7 L1030.46 1540.7 L1030.46 1536.19 L1044.83 1514.29 Z" fill="#000000" fill-rule="evenodd" fill-opacity="1" /><path clip-path="url(#clip290)" d="M1252.34 1529.7 Q1249.19 1529.7 1247.34 1531.86 Q1245.51 1534.01 1245.51 1537.76 Q1245.51 1541.49 1247.34 1543.66 Q1249.19 1545.82 1252.34 1545.82 Q1255.48 1545.82 1257.31 1543.66 Q1259.16 1541.49 1259.16 1537.76 Q1259.16 1534.01 1257.31 1531.86 Q1255.48 1529.7 1252.34 1529.7 M1261.62 1515.05 L1261.62 1519.31 Q1259.86 1518.48 1258.05 1518.04 Q1256.27 1517.6 1254.51 1517.6 Q1249.88 1517.6 1247.43 1520.72 Q1245 1523.85 1244.65 1530.17 Q1246.02 1528.15 1248.08 1527.09 Q1250.14 1526 1252.61 1526 Q1257.82 1526 1260.83 1529.17 Q1263.86 1532.32 1263.86 1537.76 Q1263.86 1543.08 1260.72 1546.3 Q1257.57 1549.52 1252.34 1549.52 Q1246.34 1549.52 1243.17 1544.94 Q1240 1540.33 1240 1531.6 Q1240 1523.41 1243.89 1518.55 Q1247.78 1513.66 1254.33 1513.66 Q1256.09 1513.66 1257.87 1514.01 Q1259.67 1514.36 1261.62 1515.05 Z" fill="#000000" fill-rule="evenodd" fill-opacity="1" /><path clip-path="url(#clip290)" d="M1460.81 1532.44 Q1457.48 1532.44 1455.56 1534.22 Q1453.66 1536 1453.66 1539.13 Q1453.66 1542.25 1455.56 1544.03 Q1457.48 1545.82 1460.81 1545.82 Q1464.15 1545.82 1466.07 1544.03 Q1467.99 1542.23 1467.99 1539.13 Q1467.99 1536 1466.07 1534.22 Q1464.17 1532.44 1460.81 1532.44 M1456.14 1530.45 Q1453.13 1529.7 1451.44 1527.64 Q1449.77 1525.58 1449.77 1522.62 Q1449.77 1518.48 1452.71 1516.07 Q1455.68 1513.66 1460.81 1513.66 Q1465.98 1513.66 1468.92 1516.07 Q1471.86 1518.48 1471.86 1522.62 Q1471.86 1525.58 1470.17 1527.64 Q1468.5 1529.7 1465.51 1530.45 Q1468.89 1531.23 1470.77 1533.52 Q1472.67 1535.82 1472.67 1539.13 Q1472.67 1544.15 1469.59 1546.83 Q1466.53 1549.52 1460.81 1549.52 Q1455.1 1549.52 1452.02 1546.83 Q1448.96 1544.15 1448.96 1539.13 Q1448.96 1535.82 1450.86 1533.52 Q1452.76 1531.23 1456.14 1530.45 M1454.43 1523.06 Q1454.43 1525.75 1456.09 1527.25 Q1457.78 1528.76 1460.81 1528.76 Q1463.82 1528.76 1465.51 1527.25 Q1467.23 1525.75 1467.23 1523.06 Q1467.23 1520.38 1465.51 1518.87 Q1463.82 1517.37 1460.81 1517.37 Q1457.78 1517.37 1456.09 1518.87 Q1454.43 1520.38 1454.43 1523.06 Z" fill="#000000" fill-rule="evenodd" fill-opacity="1" /><path clip-path="url(#clip290)" d="M1644.38 1544.91 L1652.02 1544.91 L1652.02 1518.55 L1643.71 1520.21 L1643.71 1515.95 L1651.98 1514.29 L1656.65 1514.29 L1656.65 1544.91 L1664.29 1544.91 L1664.29 1548.85 L1644.38 1548.85 L1644.38 1544.91 Z" fill="#000000" fill-rule="evenodd" fill-opacity="1" /><path clip-path="url(#clip290)" d="M1683.74 1517.37 Q1680.13 1517.37 1678.3 1520.93 Q1676.49 1524.47 1676.49 1531.6 Q1676.49 1538.71 1678.3 1542.27 Q1680.13 1545.82 1683.74 1545.82 Q1687.37 1545.82 1689.18 1542.27 Q1691 1538.71 1691 1531.6 Q1691 1524.47 1689.18 1520.93 Q1687.37 1517.37 1683.74 1517.37 M1683.74 1513.66 Q1689.55 1513.66 1692.6 1518.27 Q1695.68 1522.85 1695.68 1531.6 Q1695.68 1540.33 1692.6 1544.94 Q1689.55 1549.52 1683.74 1549.52 Q1677.93 1549.52 1674.85 1544.94 Q1671.79 1540.33 1671.79 1531.6 Q1671.79 1522.85 1674.85 1518.27 Q1677.93 1513.66 1683.74 1513.66 Z" fill="#000000" fill-rule="evenodd" fill-opacity="1" /><polyline clip-path="url(#clip292)" style="stroke:#000000; stroke-linecap:butt; stroke-linejoin:round; stroke-width:2; stroke-opacity:0.1; fill:none" points="
  271.225,1341.27 1710.43,1341.27 
  "/>
<polyline clip-path="url(#clip292)" style="stroke:#000000; stroke-linecap:butt; stroke-linejoin:round; stroke-width:2; stroke-opacity:0.1; fill:none" points="
  271.225,1132.39 1710.43,1132.39 
  "/>
<polyline clip-path="url(#clip292)" style="stroke:#000000; stroke-linecap:butt; stroke-linejoin:round; stroke-width:2; stroke-opacity:0.1; fill:none" points="
  271.225,923.508 1710.43,923.508 
  "/>
<polyline clip-path="url(#clip292)" style="stroke:#000000; stroke-linecap:butt; stroke-linejoin:round; stroke-width:2; stroke-opacity:0.1; fill:none" points="
  271.225,714.625 1710.43,714.625 
  "/>
<polyline clip-path="url(#clip292)" style="stroke:#000000; stroke-linecap:butt; stroke-linejoin:round; stroke-width:2; stroke-opacity:0.1; fill:none" points="
  271.225,505.742 1710.43,505.742 
  "/>
<polyline clip-path="url(#clip292)" style="stroke:#000000; stroke-linecap:butt; stroke-linejoin:round; stroke-width:2; stroke-opacity:0.1; fill:none" points="
  271.225,296.859 1710.43,296.859 
  "/>
<polyline clip-path="url(#clip292)" style="stroke:#000000; stroke-linecap:butt; stroke-linejoin:round; stroke-width:2; stroke-opacity:0.1; fill:none" points="
  271.225,87.9763 1710.43,87.9763 
  "/>
<polyline clip-path="url(#clip290)" style="stroke:#000000; stroke-linecap:butt; stroke-linejoin:round; stroke-width:4; stroke-opacity:1; fill:none" points="
  271.225,1486.45 271.225,47.2441 
  "/>
<polyline clip-path="url(#clip290)" style="stroke:#000000; stroke-linecap:butt; stroke-linejoin:round; stroke-width:4; stroke-opacity:1; fill:none" points="
  271.225,1341.27 283.556,1341.27 
  "/>
<polyline clip-path="url(#clip290)" style="stroke:#000000; stroke-linecap:butt; stroke-linejoin:round; stroke-width:4; stroke-opacity:1; fill:none" points="
  271.225,1132.39 283.556,1132.39 
  "/>
<polyline clip-path="url(#clip290)" style="stroke:#000000; stroke-linecap:butt; stroke-linejoin:round; stroke-width:4; stroke-opacity:1; fill:none" points="
  271.225,923.508 283.556,923.508 
  "/>
<polyline clip-path="url(#clip290)" style="stroke:#000000; stroke-linecap:butt; stroke-linejoin:round; stroke-width:4; stroke-opacity:1; fill:none" points="
  271.225,714.625 283.556,714.625 
  "/>
<polyline clip-path="url(#clip290)" style="stroke:#000000; stroke-linecap:butt; stroke-linejoin:round; stroke-width:4; stroke-opacity:1; fill:none" points="
  271.225,505.742 283.556,505.742 
  "/>
<polyline clip-path="url(#clip290)" style="stroke:#000000; stroke-linecap:butt; stroke-linejoin:round; stroke-width:4; stroke-opacity:1; fill:none" points="
  271.225,296.859 283.556,296.859 
  "/>
<polyline clip-path="url(#clip290)" style="stroke:#000000; stroke-linecap:butt; stroke-linejoin:round; stroke-width:4; stroke-opacity:1; fill:none" points="
  271.225,87.9763 283.556,87.9763 
  "/>
<path clip-path="url(#clip290)" d="M175.11 1341.73 L204.786 1341.73 L204.786 1345.66 L175.11 1345.66 L175.11 1341.73 Z" fill="#000000" fill-rule="evenodd" fill-opacity="1" /><path clip-path="url(#clip290)" d="M218.906 1354.62 L235.225 1354.62 L235.225 1358.55 L213.281 1358.55 L213.281 1354.62 Q215.943 1351.86 220.526 1347.23 Q225.133 1342.58 226.313 1341.24 Q228.559 1338.72 229.438 1336.98 Q230.341 1335.22 230.341 1333.53 Q230.341 1330.78 228.397 1329.04 Q226.475 1327.3 223.374 1327.3 Q221.175 1327.3 218.721 1328.07 Q216.29 1328.83 213.513 1330.38 L213.513 1325.66 Q216.337 1324.53 218.79 1323.95 Q221.244 1323.37 223.281 1323.37 Q228.651 1323.37 231.846 1326.05 Q235.04 1328.74 235.04 1333.23 Q235.04 1335.36 234.23 1337.28 Q233.443 1339.18 231.336 1341.77 Q230.758 1342.44 227.656 1345.66 Q224.554 1348.86 218.906 1354.62 Z" fill="#000000" fill-rule="evenodd" fill-opacity="1" /><path clip-path="url(#clip290)" d="M223.281 1118.19 Q219.67 1118.19 217.841 1121.75 Q216.036 1125.3 216.036 1132.43 Q216.036 1139.53 217.841 1143.1 Q219.67 1146.64 223.281 1146.64 Q226.915 1146.64 228.721 1143.1 Q230.549 1139.53 230.549 1132.43 Q230.549 1125.3 228.721 1121.75 Q226.915 1118.19 223.281 1118.19 M223.281 1114.49 Q229.091 1114.49 232.147 1119.09 Q235.225 1123.68 235.225 1132.43 Q235.225 1141.15 232.147 1145.76 Q229.091 1150.34 223.281 1150.34 Q217.471 1150.34 214.392 1145.76 Q211.337 1141.15 211.337 1132.43 Q211.337 1123.68 214.392 1119.09 Q217.471 1114.49 223.281 1114.49 Z" fill="#000000" fill-rule="evenodd" fill-opacity="1" /><path clip-path="url(#clip290)" d="M218.906 936.853 L235.225 936.853 L235.225 940.788 L213.281 940.788 L213.281 936.853 Q215.943 934.098 220.526 929.469 Q225.133 924.816 226.313 923.474 Q228.559 920.95 229.438 919.214 Q230.341 917.455 230.341 915.765 Q230.341 913.011 228.397 911.274 Q226.475 909.538 223.374 909.538 Q221.175 909.538 218.721 910.302 Q216.29 911.066 213.513 912.617 L213.513 907.895 Q216.337 906.761 218.79 906.182 Q221.244 905.603 223.281 905.603 Q228.651 905.603 231.846 908.288 Q235.04 910.974 235.04 915.464 Q235.04 917.594 234.23 919.515 Q233.443 921.413 231.336 924.006 Q230.758 924.677 227.656 927.895 Q224.554 931.089 218.906 936.853 Z" fill="#000000" fill-rule="evenodd" fill-opacity="1" /><path clip-path="url(#clip290)" d="M225.642 701.419 L213.837 719.868 L225.642 719.868 L225.642 701.419 M224.415 697.345 L230.295 697.345 L230.295 719.868 L235.225 719.868 L235.225 723.757 L230.295 723.757 L230.295 731.905 L225.642 731.905 L225.642 723.757 L210.04 723.757 L210.04 719.243 L224.415 697.345 Z" fill="#000000" fill-rule="evenodd" fill-opacity="1" /><path clip-path="url(#clip290)" d="M223.698 503.879 Q220.55 503.879 218.698 506.032 Q216.869 508.184 216.869 511.934 Q216.869 515.661 218.698 517.837 Q220.55 519.99 223.698 519.99 Q226.846 519.99 228.674 517.837 Q230.526 515.661 230.526 511.934 Q230.526 508.184 228.674 506.032 Q226.846 503.879 223.698 503.879 M232.98 489.226 L232.98 493.485 Q231.221 492.652 229.415 492.212 Q227.633 491.772 225.874 491.772 Q221.244 491.772 218.79 494.897 Q216.36 498.022 216.013 504.342 Q217.378 502.328 219.438 501.263 Q221.499 500.175 223.975 500.175 Q229.184 500.175 232.193 503.346 Q235.225 506.495 235.225 511.934 Q235.225 517.258 232.077 520.476 Q228.929 523.694 223.698 523.694 Q217.702 523.694 214.531 519.11 Q211.36 514.504 211.36 505.777 Q211.36 497.583 215.249 492.721 Q219.137 487.837 225.688 487.837 Q227.448 487.837 229.23 488.184 Q231.036 488.532 232.98 489.226 Z" fill="#000000" fill-rule="evenodd" fill-opacity="1" /><path clip-path="url(#clip290)" d="M223.374 297.727 Q220.04 297.727 218.119 299.51 Q216.221 301.292 216.221 304.417 Q216.221 307.542 218.119 309.324 Q220.04 311.107 223.374 311.107 Q226.707 311.107 228.628 309.324 Q230.549 307.519 230.549 304.417 Q230.549 301.292 228.628 299.51 Q226.73 297.727 223.374 297.727 M218.698 295.737 Q215.688 294.996 213.999 292.936 Q212.332 290.875 212.332 287.913 Q212.332 283.769 215.272 281.362 Q218.235 278.954 223.374 278.954 Q228.536 278.954 231.475 281.362 Q234.415 283.769 234.415 287.913 Q234.415 290.875 232.725 292.936 Q231.059 294.996 228.073 295.737 Q231.452 296.524 233.327 298.815 Q235.225 301.107 235.225 304.417 Q235.225 309.44 232.147 312.125 Q229.091 314.811 223.374 314.811 Q217.656 314.811 214.577 312.125 Q211.522 309.44 211.522 304.417 Q211.522 301.107 213.42 298.815 Q215.318 296.524 218.698 295.737 M216.985 288.352 Q216.985 291.038 218.651 292.542 Q220.341 294.047 223.374 294.047 Q226.383 294.047 228.073 292.542 Q229.786 291.038 229.786 288.352 Q229.786 285.667 228.073 284.163 Q226.383 282.658 223.374 282.658 Q220.341 282.658 218.651 284.163 Q216.985 285.667 216.985 288.352 Z" fill="#000000" fill-rule="evenodd" fill-opacity="1" /><path clip-path="url(#clip290)" d="M183.929 101.321 L191.568 101.321 L191.568 74.9555 L183.258 76.6222 L183.258 72.3629 L191.522 70.6963 L196.198 70.6963 L196.198 101.321 L203.837 101.321 L203.837 105.256 L183.929 105.256 L183.929 101.321 Z" fill="#000000" fill-rule="evenodd" fill-opacity="1" /><path clip-path="url(#clip290)" d="M223.281 73.775 Q219.67 73.775 217.841 77.3398 Q216.036 80.8814 216.036 88.011 Q216.036 95.1174 217.841 98.6822 Q219.67 102.224 223.281 102.224 Q226.915 102.224 228.721 98.6822 Q230.549 95.1174 230.549 88.011 Q230.549 80.8814 228.721 77.3398 Q226.915 73.775 223.281 73.775 M223.281 70.0713 Q229.091 70.0713 232.147 74.6777 Q235.225 79.261 235.225 88.011 Q235.225 96.7378 232.147 101.344 Q229.091 105.928 223.281 105.928 Q217.471 105.928 214.392 101.344 Q211.337 96.7378 211.337 88.011 Q211.337 79.261 214.392 74.6777 Q217.471 70.0713 223.281 70.0713 Z" fill="#000000" fill-rule="evenodd" fill-opacity="1" /><polyline clip-path="url(#clip292)" style="stroke:#009af9; stroke-linecap:butt; stroke-linejoin:round; stroke-width:4; stroke-opacity:1; fill:none" points="
  103.075,-323.027 109.874,-316.227 172.747,-253.354 210.532,-215.57 242.478,-183.624 277.18,-148.922 309.172,-116.929 343.472,-82.63 383.211,-42.8909 418.526,-7.57542 
  449.495,23.393 483.259,57.157 517.223,91.1216 554.775,128.674 590.505,164.404 627.656,201.555 658.929,232.828 697.11,271.009 732.087,305.985 764.39,338.288 
  797.112,371.01 833.784,407.683 867.015,440.914 905.063,478.961 940.291,514.189 975.022,548.92 1008.74,582.641 1043.31,617.21 1081.18,655.083 1136.2,710.101 
  1147.49,721.388 
  "/>
<path clip-path="url(#clip292)" d="
M311.958 -114.144 L320.797 -105.304 L402.532 -23.5694 L451.652 25.55 L493.181 67.0798 L538.294 112.193 L579.885 153.783 L624.474 198.372 L676.135 250.033 L722.045 295.943 
  L762.304 336.202 L806.197 380.095 L850.351 424.249 L899.169 473.067 L945.618 519.516 L993.914 567.812 L1034.57 608.467 L1084.2 658.102 L1129.67 703.571 L1171.67 745.566 
  L1214.21 788.104 L1261.88 835.778 L1305.08 878.979 L1354.54 928.44 L1400.34 974.237 L1445.49 1019.39 L1489.33 1063.22 L1534.27 1108.16 L1583.5 1157.4 L1655.02 1228.92 
  L1669.7 1243.6 L1669.7 11576.5 L1655.02 11576.5 L1583.5 11576.5 L1534.27 11576.5 L1489.33 11576.5 L1445.49 11576.5 L1400.34 11576.5 L1354.54 11576.5 L1305.08 11576.5 
  L1261.88 11576.5 L1214.21 11576.5 L1171.67 11576.5 L1129.67 11576.5 L1084.2 11576.5 L1034.57 11576.5 L993.914 11576.5 L945.618 11576.5 L899.169 11576.5 L850.351 11576.5 
  L806.197 11576.5 L762.304 11576.5 L722.045 11576.5 L676.135 11576.5 L624.474 11576.5 L579.885 11576.5 L538.294 11576.5 L493.181 11576.5 L451.652 11576.5 L402.532 11576.5 
  L320.797 11576.5 L311.958 11576.5  Z
  " fill="#009af9" fill-rule="evenodd" fill-opacity="0.3"/>
<polyline clip-path="url(#clip292)" style="stroke:#009af9; stroke-linecap:butt; stroke-linejoin:round; stroke-width:4; stroke-opacity:1; fill:none" points="
  311.958,-114.144 320.797,-105.304 402.532,-23.5694 451.652,25.55 493.181,67.0798 538.294,112.193 579.885,153.783 624.474,198.372 676.135,250.033 722.045,295.943 
  762.304,336.202 806.197,380.095 850.351,424.249 899.169,473.067 945.618,519.516 993.914,567.812 1034.57,608.467 1084.2,658.102 1129.67,703.571 1171.67,745.566 
  1214.21,788.104 1261.88,835.778 1305.08,878.979 1354.54,928.44 1400.34,974.237 1445.49,1019.39 1489.33,1063.22 1534.27,1108.16 1583.5,1157.4 1655.02,1228.92 
  1669.7,1243.6 
  "/>
<path clip-path="url(#clip290)" d="
M1783.95 198.898 L2228.64 198.898 L2228.64 95.2176 L1783.95 95.2176  Z
  " fill="#ffffff" fill-rule="evenodd" fill-opacity="1"/>
<polyline clip-path="url(#clip290)" style="stroke:#000000; stroke-linecap:butt; stroke-linejoin:round; stroke-width:4; stroke-opacity:1; fill:none" points="
  1783.95,198.898 2228.64,198.898 2228.64,95.2176 1783.95,95.2176 1783.95,198.898 
  "/>
<polyline clip-path="url(#clip290)" style="stroke:#009af9; stroke-linecap:butt; stroke-linejoin:round; stroke-width:4; stroke-opacity:1; fill:none" points="
  1808.46,147.058 1955.5,147.058 
  "/>
<path clip-path="url(#clip290)" d="M2003.9 144.864 Q2003.9 146.176 2003.08 146.925 Q2002.26 147.651 2001.32 147.651 Q2000.43 147.651 1999.96 147.136 Q1999.5 146.621 1999.5 145.965 Q1999.5 145.075 2000.15 144.302 Q2000.81 143.529 2001.79 143.365 Q2000.83 142.756 1999.4 142.756 Q1998.47 142.756 1997.65 143.248 Q1996.85 143.74 1996.36 144.372 Q1995.89 145.004 1995.47 145.918 Q1995.07 146.808 1994.91 147.347 Q1994.76 147.862 1994.65 148.424 L1993.01 154.982 Q1992.21 158.098 1992.21 159.198 Q1992.21 160.557 1992.87 161.47 Q1993.52 162.361 1994.83 162.361 Q1995.35 162.361 1995.94 162.22 Q1996.52 162.056 1997.27 161.634 Q1998.04 161.189 1998.72 160.534 Q1999.43 159.854 2000.1 158.707 Q2000.78 157.559 2001.23 156.083 Q2001.37 155.568 2001.84 155.568 Q2002.42 155.568 2002.42 156.036 Q2002.42 156.435 2002.1 157.278 Q2001.79 158.098 2001.11 159.175 Q2000.46 160.229 1999.59 161.189 Q1998.72 162.126 1997.43 162.782 Q1996.15 163.438 1994.74 163.438 Q1992.73 163.438 1991.39 162.361 Q1990.06 161.283 1989.56 159.784 Q1989.45 159.995 1989.28 160.276 Q1989.12 160.557 1988.63 161.189 Q1988.16 161.798 1987.62 162.267 Q1987.08 162.712 1986.24 163.063 Q1985.42 163.438 1984.53 163.438 Q1983.4 163.438 1982.4 163.11 Q1981.41 162.782 1980.71 162.033 Q1980.01 161.283 1980.01 160.253 Q1980.01 159.105 1980.78 158.308 Q1981.58 157.489 1982.66 157.489 Q1983.33 157.489 1983.87 157.887 Q1984.44 158.285 1984.44 159.152 Q1984.44 160.112 1983.78 160.838 Q1983.12 161.564 1982.19 161.752 Q1983.15 162.361 1984.58 162.361 Q1986.12 162.361 1987.34 161.002 Q1988.56 159.644 1989.14 157.372 Q1990.6 151.914 1991.16 149.478 Q1991.72 147.019 1991.72 145.965 Q1991.72 144.981 1991.46 144.302 Q1991.2 143.623 1990.76 143.318 Q1990.34 142.99 1989.94 142.873 Q1989.56 142.756 1989.14 142.756 Q1988.44 142.756 1987.64 143.037 Q1986.87 143.318 1985.93 143.974 Q1985.02 144.606 1984.15 145.918 Q1983.29 147.23 1982.7 149.033 Q1982.58 149.572 1982.07 149.572 Q1981.51 149.548 1981.51 149.08 Q1981.51 148.682 1981.81 147.862 Q1982.14 147.019 1982.8 145.965 Q1983.47 144.911 1984.34 143.974 Q1985.23 143.014 1986.52 142.358 Q1987.83 141.702 1989.24 141.702 Q1989.87 141.702 1990.48 141.842 Q1991.11 141.96 1991.86 142.311 Q1992.63 142.662 1993.31 143.435 Q1993.99 144.208 1994.41 145.332 Q1994.69 144.794 1995.07 144.278 Q1995.47 143.763 1996.08 143.131 Q1996.71 142.475 1997.58 142.1 Q1998.47 141.702 1999.45 141.702 Q2000.41 141.702 2001.35 141.96 Q2002.28 142.194 2003.08 142.967 Q2003.9 143.716 2003.9 144.864 Z" fill="#000000" fill-rule="evenodd" fill-opacity="1" /><path clip-path="url(#clip290)" d="M2021.57 151.493 Q2020.47 151.493 2020.47 150.907 Q2020.47 150.321 2021.62 150.321 Q2021.76 150.321 2021.99 150.345 Q2022.25 150.368 2022.3 150.368 L2035.81 150.368 L2035.81 136.807 Q2035.81 136.76 2035.79 136.549 Q2035.77 136.315 2035.77 136.174 Q2035.77 135.027 2036.33 135.027 Q2036.92 135.027 2036.92 136.174 L2036.92 150.368 L2050.45 150.368 Q2050.5 150.368 2050.73 150.345 Q2050.97 150.321 2051.11 150.321 Q2052.21 150.321 2052.21 150.907 Q2052.23 151.493 2051.06 151.493 Q2050.92 151.493 2050.71 151.469 Q2050.5 151.446 2050.45 151.446 L2036.92 151.446 L2036.92 165.687 Q2036.92 166.787 2036.33 166.787 Q2035.77 166.787 2035.77 165.64 Q2035.77 165.499 2035.79 165.265 Q2035.81 165.054 2035.81 165.007 L2035.81 151.446 L2022.3 151.446 Q2022.25 151.446 2021.97 151.469 Q2021.71 151.493 2021.57 151.493 Z" fill="#000000" fill-rule="evenodd" fill-opacity="1" /><path clip-path="url(#clip290)" d="M2092.86 143.529 Q2092.86 143.857 2092.65 144.63 L2088.06 162.946 Q2087.05 167.022 2083.77 169.879 Q2080.51 172.737 2076.81 172.737 Q2074.59 172.737 2073.16 171.542 Q2071.73 170.371 2071.73 168.567 Q2071.73 166.975 2072.57 166.202 Q2073.42 165.452 2074.42 165.452 Q2074.75 165.452 2075.1 165.546 Q2075.46 165.64 2075.83 166.038 Q2076.21 166.436 2076.21 167.115 Q2076.21 168.216 2075.24 169.083 Q2074.78 169.481 2074.33 169.575 Q2073.91 169.668 2073.18 169.668 Q2073.46 170.324 2073.98 170.769 Q2074.5 171.214 2075.08 171.378 Q2075.67 171.566 2076.04 171.612 Q2076.44 171.683 2076.81 171.683 Q2079.81 171.683 2082.11 168.661 Q2082.79 167.748 2083.28 166.834 Q2083.79 165.944 2084.17 164.843 Q2084.54 163.766 2084.71 163.18 Q2084.89 162.595 2085.22 161.26 Q2083.04 163.438 2080.37 163.438 Q2079.25 163.438 2078.24 163.133 Q2077.26 162.829 2076.39 162.197 Q2075.53 161.541 2075.01 160.393 Q2074.52 159.245 2074.52 157.723 Q2074.52 156.107 2075.15 153.905 Q2075.78 151.703 2077.31 147.651 Q2078.13 145.379 2078.13 144.278 Q2078.13 143.74 2078.01 143.412 Q2077.89 143.06 2077.66 142.943 Q2077.42 142.803 2077.28 142.779 Q2077.17 142.756 2076.93 142.756 Q2075.55 142.756 2074.26 144.161 Q2072.97 145.567 2072.08 148.705 Q2071.9 149.291 2071.78 149.431 Q2071.66 149.572 2071.31 149.572 Q2070.72 149.548 2070.72 149.08 Q2070.72 148.893 2070.94 148.167 Q2071.15 147.417 2071.64 146.316 Q2072.15 145.192 2072.86 144.185 Q2073.56 143.154 2074.66 142.428 Q2075.78 141.702 2077.07 141.702 Q2078.83 141.702 2079.91 142.85 Q2081.01 143.974 2081.01 145.637 Q2081.01 146.316 2080.82 146.925 Q2080.66 147.511 2080.05 149.08 Q2077.59 155.404 2077.59 158.496 Q2077.59 159.245 2077.7 159.878 Q2077.84 160.487 2078.15 161.096 Q2078.45 161.681 2079.06 162.033 Q2079.7 162.361 2080.56 162.361 Q2081.66 162.361 2082.69 161.845 Q2083.75 161.307 2084.4 160.58 Q2085.08 159.854 2085.48 159.245 Q2085.9 158.613 2086 158.285 L2088.15 149.666 L2089.11 145.824 Q2089.56 143.74 2089.77 143.224 Q2090.05 142.733 2090.54 142.475 Q2091.03 142.217 2091.45 142.217 Q2092.04 142.217 2092.44 142.569 Q2092.86 142.92 2092.86 143.529 Z" fill="#000000" fill-rule="evenodd" fill-opacity="1" /><path clip-path="url(#clip290)" d="M2107.29 155.615 Q2107.34 155.029 2108.25 155.029 L2137.65 155.029 Q2139.03 155.029 2139.05 155.568 Q2139.05 156.154 2137.74 156.13 L2108.58 156.13 Q2107.29 156.154 2107.29 155.615 M2107.29 146.246 Q2107.29 145.66 2108.3 145.684 L2137.6 145.684 Q2139.03 145.684 2139.05 146.246 Q2139.05 146.785 2137.83 146.785 L2108.25 146.785 Q2107.29 146.785 2107.29 146.246 Z" fill="#000000" fill-rule="evenodd" fill-opacity="1" /><path clip-path="url(#clip290)" d="M2177.87 142.17 Q2177.87 142.334 2177.48 143.037 Q2177.1 143.716 2175.72 145.426 Q2174.34 147.136 2172.28 149.127 Q2171.5 149.9 2170.33 150.977 Q2169.16 152.055 2168.36 152.757 L2167.57 153.46 Q2164.52 156.036 2161.85 158.917 Q2162.04 158.847 2162.37 158.824 Q2162.7 158.777 2162.93 158.777 L2163.16 158.777 Q2164.38 158.777 2166.51 159.597 Q2168.39 160.206 2169.35 160.206 Q2170.29 160.206 2171.32 159.878 Q2172.35 159.55 2173.47 158.59 Q2174.6 157.629 2175.11 156.177 Q2175.2 155.943 2175.25 155.873 Q2175.3 155.779 2175.44 155.685 Q2175.58 155.568 2175.77 155.568 Q2176.02 155.568 2176.19 155.709 Q2176.35 155.849 2176.35 156.036 Q2176.35 156.458 2176.02 157.301 Q2175.72 158.144 2175.04 159.198 Q2174.38 160.253 2173.52 161.213 Q2172.67 162.15 2171.41 162.806 Q2170.14 163.438 2168.81 163.438 Q2167.85 163.438 2167.15 162.97 Q2166.44 162.524 2165.74 161.658 Q2164.78 160.557 2164.27 160.206 Q2163.75 159.831 2162.95 159.831 Q2160.82 159.831 2158.88 162.806 Q2158.67 163.227 2158.53 163.321 Q2158.41 163.438 2158.13 163.438 Q2157.54 163.415 2157.54 162.946 Q2157.54 162.759 2158.06 161.939 Q2158.6 161.096 2159.79 159.62 Q2161.01 158.144 2162.49 156.669 L2166.8 152.64 Q2171.57 148.612 2173.47 146.34 Q2172.67 146.34 2172.32 146.316 Q2172 146.293 2171.34 146.152 Q2170.68 145.988 2169.77 145.637 Q2167.64 144.911 2166.75 144.911 Q2166.51 144.911 2166.26 144.934 Q2166 144.958 2165.41 145.075 Q2164.85 145.192 2164.38 145.426 Q2163.91 145.637 2163.42 146.105 Q2162.93 146.55 2162.67 147.159 Q2162.6 147.347 2162.56 147.44 Q2162.51 147.534 2162.37 147.628 Q2162.25 147.698 2162.06 147.698 Q2161.78 147.698 2161.62 147.534 Q2161.48 147.37 2161.48 147.159 Q2161.48 146.738 2161.9 145.871 Q2162.32 145.004 2163.02 144.068 Q2163.73 143.107 2164.87 142.405 Q2166.02 141.702 2167.29 141.702 Q2168.04 141.702 2168.67 142.03 Q2169.33 142.358 2169.65 142.709 Q2170 143.037 2170.59 143.763 Q2171.08 144.325 2171.32 144.559 Q2171.55 144.794 2172.02 145.051 Q2172.51 145.286 2173.05 145.286 Q2173.94 145.286 2174.76 144.606 Q2175.58 143.904 2176.63 142.217 Q2176.91 141.702 2177.36 141.702 Q2177.87 141.702 2177.87 142.17 Z" fill="#000000" fill-rule="evenodd" fill-opacity="1" /></svg>
