<?xml version="1.0" encoding="utf-8"?>
<svg xmlns="http://www.w3.org/2000/svg" xmlns:xlink="http://www.w3.org/1999/xlink" width="600" height="400" viewBox="0 0 2400 1600">
<defs>
  <clipPath id="clip810">
    <rect x="0" y="0" width="2400" height="1600"/>
  </clipPath>
</defs>
<path clip-path="url(#clip810)" d="
M0 1600 L2400 1600 L2400 0 L0 0  Z
  " fill="#ffffff" fill-rule="evenodd" fill-opacity="1"/>
<defs>
  <clipPath id="clip811">
    <rect x="480" y="0" width="1681" height="1600"/>
  </clipPath>
</defs>
<defs>
  <clipPath id="clip812">
    <rect x="293" y="47" width="1440" height="1440"/>
  </clipPath>
</defs>
<path clip-path="url(#clip810)" d="
M293.637 1486.45 L1732.84 1486.45 L1732.84 47.2441 L293.637 47.2441  Z
  " fill="#ffffff" fill-rule="evenodd" fill-opacity="1"/>
<polyline clip-path="url(#clip812)" style="stroke:#000000; stroke-linecap:butt; stroke-linejoin:round; stroke-width:2; stroke-opacity:0.1; fill:none" points="
  491.032,1486.45 491.032,47.2441 
  "/>
<polyline clip-path="url(#clip812)" style="stroke:#000000; stroke-linecap:butt; stroke-linejoin:round; stroke-width:2; stroke-opacity:0.1; fill:none" points="
  752.135,1486.45 752.135,47.2441 
  "/>
<polyline clip-path="url(#clip812)" style="stroke:#000000; stroke-linecap:butt; stroke-linejoin:round; stroke-width:2; stroke-opacity:0.1; fill:none" points="
  1013.24,1486.45 1013.24,47.2441 
  "/>
<polyline clip-path="url(#clip812)" style="stroke:#000000; stroke-linecap:butt; stroke-linejoin:round; stroke-width:2; stroke-opacity:0.1; fill:none" points="
  1274.34,1486.45 1274.34,47.2441 
  "/>
<polyline clip-path="url(#clip812)" style="stroke:#000000; stroke-linecap:butt; stroke-linejoin:round; stroke-width:2; stroke-opacity:0.1; fill:none" points="
  1535.45,1486.45 1535.45,47.2441 
  "/>
<polyline clip-path="url(#clip810)" style="stroke:#000000; stroke-linecap:butt; stroke-linejoin:round; stroke-width:4; stroke-opacity:1; fill:none" points="
  293.637,1486.45 1732.84,1486.45 
  "/>
<polyline clip-path="url(#clip810)" style="stroke:#000000; stroke-linecap:butt; stroke-linejoin:round; stroke-width:4; stroke-opacity:1; fill:none" points="
  491.032,1486.45 491.032,1467.55 
  "/>
<polyline clip-path="url(#clip810)" style="stroke:#000000; stroke-linecap:butt; stroke-linejoin:round; stroke-width:4; stroke-opacity:1; fill:none" points="
  752.135,1486.45 752.135,1467.55 
  "/>
<polyline clip-path="url(#clip810)" style="stroke:#000000; stroke-linecap:butt; stroke-linejoin:round; stroke-width:4; stroke-opacity:1; fill:none" points="
  1013.24,1486.45 1013.24,1467.55 
  "/>
<polyline clip-path="url(#clip810)" style="stroke:#000000; stroke-linecap:butt; stroke-linejoin:round; stroke-width:4; stroke-opacity:1; fill:none" points="
  1274.34,1486.45 1274.34,1467.55 
  "/>
<polyline clip-path="url(#clip810)" style="stroke:#000000; stroke-linecap:butt; stroke-linejoin:round; stroke-width:4; stroke-opacity:1; fill:none" points="
  1535.45,1486.45 1535.45,1467.55 
  "/>
<path clip-path="url(#clip810)" d="M453.335 1517.37 Q449.724 1517.37 447.895 1520.93 Q446.09 1524.47 446.09 1531.6 Q446.09 1538.71 447.895 1542.27 Q449.724 1545.82 453.335 1545.82 Q456.969 1545.82 458.775 1542.27 Q460.604 1538.71 460.604 1531.6 Q460.604 1524.47 458.775 1520.93 Q456.969 1517.37 453.335 1517.37 M453.335 1513.66 Q459.145 1513.66 462.201 1518.27 Q465.28 1522.85 465.28 1531.6 Q465.28 1540.33 462.201 1544.94 Q459.145 1549.52 453.335 1549.52 Q447.525 1549.52 444.446 1544.94 Q441.391 1540.33 441.391 1531.6 Q441.391 1522.85 444.446 1518.27 Q447.525 1513.66 453.335 1513.66 Z" fill="#000000" fill-rule="evenodd" fill-opacity="1" /><path clip-path="url(#clip810)" d="M473.497 1542.97 L478.381 1542.97 L478.381 1548.85 L473.497 1548.85 L473.497 1542.97 Z" fill="#000000" fill-rule="evenodd" fill-opacity="1" /><path clip-path="url(#clip810)" d="M498.566 1517.37 Q494.955 1517.37 493.127 1520.93 Q491.321 1524.47 491.321 1531.6 Q491.321 1538.71 493.127 1542.27 Q494.955 1545.82 498.566 1545.82 Q502.201 1545.82 504.006 1542.27 Q505.835 1538.71 505.835 1531.6 Q505.835 1524.47 504.006 1520.93 Q502.201 1517.37 498.566 1517.37 M498.566 1513.66 Q504.377 1513.66 507.432 1518.27 Q510.511 1522.85 510.511 1531.6 Q510.511 1540.33 507.432 1544.94 Q504.377 1549.52 498.566 1549.52 Q492.756 1549.52 489.678 1544.94 Q486.622 1540.33 486.622 1531.6 Q486.622 1522.85 489.678 1518.27 Q492.756 1513.66 498.566 1513.66 Z" fill="#000000" fill-rule="evenodd" fill-opacity="1" /><path clip-path="url(#clip810)" d="M528.728 1517.37 Q525.117 1517.37 523.288 1520.93 Q521.483 1524.47 521.483 1531.6 Q521.483 1538.71 523.288 1542.27 Q525.117 1545.82 528.728 1545.82 Q532.363 1545.82 534.168 1542.27 Q535.997 1538.71 535.997 1531.6 Q535.997 1524.47 534.168 1520.93 Q532.363 1517.37 528.728 1517.37 M528.728 1513.66 Q534.538 1513.66 537.594 1518.27 Q540.673 1522.85 540.673 1531.6 Q540.673 1540.33 537.594 1544.94 Q534.538 1549.52 528.728 1549.52 Q522.918 1549.52 519.839 1544.94 Q516.784 1540.33 516.784 1531.6 Q516.784 1522.85 519.839 1518.27 Q522.918 1513.66 528.728 1513.66 Z" fill="#000000" fill-rule="evenodd" fill-opacity="1" /><path clip-path="url(#clip810)" d="M714.937 1517.37 Q711.325 1517.37 709.497 1520.93 Q707.691 1524.47 707.691 1531.6 Q707.691 1538.71 709.497 1542.27 Q711.325 1545.82 714.937 1545.82 Q718.571 1545.82 720.376 1542.27 Q722.205 1538.71 722.205 1531.6 Q722.205 1524.47 720.376 1520.93 Q718.571 1517.37 714.937 1517.37 M714.937 1513.66 Q720.747 1513.66 723.802 1518.27 Q726.881 1522.85 726.881 1531.6 Q726.881 1540.33 723.802 1544.94 Q720.747 1549.52 714.937 1549.52 Q709.126 1549.52 706.048 1544.94 Q702.992 1540.33 702.992 1531.6 Q702.992 1522.85 706.048 1518.27 Q709.126 1513.66 714.937 1513.66 Z" fill="#000000" fill-rule="evenodd" fill-opacity="1" /><path clip-path="url(#clip810)" d="M735.098 1542.97 L739.983 1542.97 L739.983 1548.85 L735.098 1548.85 L735.098 1542.97 Z" fill="#000000" fill-rule="evenodd" fill-opacity="1" /><path clip-path="url(#clip810)" d="M754.196 1544.91 L770.515 1544.91 L770.515 1548.85 L748.571 1548.85 L748.571 1544.91 Q751.233 1542.16 755.816 1537.53 Q760.422 1532.88 761.603 1531.53 Q763.848 1529.01 764.728 1527.27 Q765.631 1525.51 765.631 1523.82 Q765.631 1521.07 763.686 1519.33 Q761.765 1517.6 758.663 1517.6 Q756.464 1517.6 754.01 1518.36 Q751.58 1519.13 748.802 1520.68 L748.802 1515.95 Q751.626 1514.82 754.08 1514.24 Q756.534 1513.66 758.571 1513.66 Q763.941 1513.66 767.135 1516.35 Q770.33 1519.03 770.33 1523.52 Q770.33 1525.65 769.52 1527.57 Q768.733 1529.47 766.626 1532.07 Q766.047 1532.74 762.946 1535.95 Q759.844 1539.15 754.196 1544.91 Z" fill="#000000" fill-rule="evenodd" fill-opacity="1" /><path clip-path="url(#clip810)" d="M780.376 1514.29 L798.732 1514.29 L798.732 1518.22 L784.658 1518.22 L784.658 1526.7 Q785.677 1526.35 786.695 1526.19 Q787.714 1526 788.732 1526 Q794.519 1526 797.899 1529.17 Q801.279 1532.34 801.279 1537.76 Q801.279 1543.34 797.806 1546.44 Q794.334 1549.52 788.015 1549.52 Q785.839 1549.52 783.57 1549.15 Q781.325 1548.78 778.918 1548.04 L778.918 1543.34 Q781.001 1544.47 783.223 1545.03 Q785.445 1545.58 787.922 1545.58 Q791.927 1545.58 794.265 1543.48 Q796.603 1541.37 796.603 1537.76 Q796.603 1534.15 794.265 1532.04 Q791.927 1529.94 787.922 1529.94 Q786.047 1529.94 784.172 1530.35 Q782.32 1530.77 780.376 1531.65 L780.376 1514.29 Z" fill="#000000" fill-rule="evenodd" fill-opacity="1" /><path clip-path="url(#clip810)" d="M975.543 1517.37 Q971.932 1517.37 970.103 1520.93 Q968.297 1524.47 968.297 1531.6 Q968.297 1538.71 970.103 1542.27 Q971.932 1545.82 975.543 1545.82 Q979.177 1545.82 980.982 1542.27 Q982.811 1538.71 982.811 1531.6 Q982.811 1524.47 980.982 1520.93 Q979.177 1517.37 975.543 1517.37 M975.543 1513.66 Q981.353 1513.66 984.408 1518.27 Q987.487 1522.85 987.487 1531.6 Q987.487 1540.33 984.408 1544.94 Q981.353 1549.52 975.543 1549.52 Q969.732 1549.52 966.654 1544.94 Q963.598 1540.33 963.598 1531.6 Q963.598 1522.85 966.654 1518.27 Q969.732 1513.66 975.543 1513.66 Z" fill="#000000" fill-rule="evenodd" fill-opacity="1" /><path clip-path="url(#clip810)" d="M995.705 1542.97 L1000.59 1542.97 L1000.59 1548.85 L995.705 1548.85 L995.705 1542.97 Z" fill="#000000" fill-rule="evenodd" fill-opacity="1" /><path clip-path="url(#clip810)" d="M1010.82 1514.29 L1029.18 1514.29 L1029.18 1518.22 L1015.1 1518.22 L1015.1 1526.7 Q1016.12 1526.35 1017.14 1526.19 Q1018.16 1526 1019.18 1526 Q1024.96 1526 1028.34 1529.17 Q1031.72 1532.34 1031.72 1537.76 Q1031.72 1543.34 1028.25 1546.44 Q1024.78 1549.52 1018.46 1549.52 Q1016.28 1549.52 1014.01 1549.15 Q1011.77 1548.78 1009.36 1548.04 L1009.36 1543.34 Q1011.45 1544.47 1013.67 1545.03 Q1015.89 1545.58 1018.37 1545.58 Q1022.37 1545.58 1024.71 1543.48 Q1027.05 1541.37 1027.05 1537.76 Q1027.05 1534.15 1024.71 1532.04 Q1022.37 1529.94 1018.37 1529.94 Q1016.49 1529.94 1014.62 1530.35 Q1012.76 1530.77 1010.82 1531.65 L1010.82 1514.29 Z" fill="#000000" fill-rule="evenodd" fill-opacity="1" /><path clip-path="url(#clip810)" d="M1050.94 1517.37 Q1047.32 1517.37 1045.5 1520.93 Q1043.69 1524.47 1043.69 1531.6 Q1043.69 1538.71 1045.5 1542.27 Q1047.32 1545.82 1050.94 1545.82 Q1054.57 1545.82 1056.38 1542.27 Q1058.2 1538.71 1058.2 1531.6 Q1058.2 1524.47 1056.38 1520.93 Q1054.57 1517.37 1050.94 1517.37 M1050.94 1513.66 Q1056.75 1513.66 1059.8 1518.27 Q1062.88 1522.85 1062.88 1531.6 Q1062.88 1540.33 1059.8 1544.94 Q1056.75 1549.52 1050.94 1549.52 Q1045.13 1549.52 1042.05 1544.94 Q1038.99 1540.33 1038.99 1531.6 Q1038.99 1522.85 1042.05 1518.27 Q1045.13 1513.66 1050.94 1513.66 Z" fill="#000000" fill-rule="evenodd" fill-opacity="1" /><path clip-path="url(#clip810)" d="M1237.14 1517.37 Q1233.53 1517.37 1231.7 1520.93 Q1229.9 1524.47 1229.9 1531.6 Q1229.9 1538.71 1231.7 1542.27 Q1233.53 1545.82 1237.14 1545.82 Q1240.78 1545.82 1242.58 1542.27 Q1244.41 1538.71 1244.41 1531.6 Q1244.41 1524.47 1242.58 1520.93 Q1240.78 1517.37 1237.14 1517.37 M1237.14 1513.66 Q1242.95 1513.66 1246.01 1518.27 Q1249.09 1522.85 1249.09 1531.6 Q1249.09 1540.33 1246.01 1544.94 Q1242.95 1549.52 1237.14 1549.52 Q1231.33 1549.52 1228.26 1544.94 Q1225.2 1540.33 1225.2 1531.6 Q1225.2 1522.85 1228.26 1518.27 Q1231.33 1513.66 1237.14 1513.66 Z" fill="#000000" fill-rule="evenodd" fill-opacity="1" /><path clip-path="url(#clip810)" d="M1257.31 1542.97 L1262.19 1542.97 L1262.19 1548.85 L1257.31 1548.85 L1257.31 1542.97 Z" fill="#000000" fill-rule="evenodd" fill-opacity="1" /><path clip-path="url(#clip810)" d="M1271.19 1514.29 L1293.42 1514.29 L1293.42 1516.28 L1280.87 1548.85 L1275.99 1548.85 L1287.79 1518.22 L1271.19 1518.22 L1271.19 1514.29 Z" fill="#000000" fill-rule="evenodd" fill-opacity="1" /><path clip-path="url(#clip810)" d="M1302.58 1514.29 L1320.94 1514.29 L1320.94 1518.22 L1306.87 1518.22 L1306.87 1526.7 Q1307.88 1526.35 1308.9 1526.19 Q1309.92 1526 1310.94 1526 Q1316.73 1526 1320.11 1529.17 Q1323.49 1532.34 1323.49 1537.76 Q1323.49 1543.34 1320.01 1546.44 Q1316.54 1549.52 1310.22 1549.52 Q1308.05 1549.52 1305.78 1549.15 Q1303.53 1548.78 1301.13 1548.04 L1301.13 1543.34 Q1303.21 1544.47 1305.43 1545.03 Q1307.65 1545.58 1310.13 1545.58 Q1314.13 1545.58 1316.47 1543.48 Q1318.81 1541.37 1318.81 1537.76 Q1318.81 1534.15 1316.47 1532.04 Q1314.13 1529.94 1310.13 1529.94 Q1308.25 1529.94 1306.38 1530.35 Q1304.53 1530.77 1302.58 1531.65 L1302.58 1514.29 Z" fill="#000000" fill-rule="evenodd" fill-opacity="1" /><path clip-path="url(#clip810)" d="M1487.52 1544.91 L1495.16 1544.91 L1495.16 1518.55 L1486.85 1520.21 L1486.85 1515.95 L1495.11 1514.29 L1499.79 1514.29 L1499.79 1544.91 L1507.43 1544.91 L1507.43 1548.85 L1487.52 1548.85 L1487.52 1544.91 Z" fill="#000000" fill-rule="evenodd" fill-opacity="1" /><path clip-path="url(#clip810)" d="M1516.87 1542.97 L1521.75 1542.97 L1521.75 1548.85 L1516.87 1548.85 L1516.87 1542.97 Z" fill="#000000" fill-rule="evenodd" fill-opacity="1" /><path clip-path="url(#clip810)" d="M1541.94 1517.37 Q1538.33 1517.37 1536.5 1520.93 Q1534.69 1524.47 1534.69 1531.6 Q1534.69 1538.71 1536.5 1542.27 Q1538.33 1545.82 1541.94 1545.82 Q1545.57 1545.82 1547.38 1542.27 Q1549.21 1538.71 1549.21 1531.6 Q1549.21 1524.47 1547.38 1520.93 Q1545.57 1517.37 1541.94 1517.37 M1541.94 1513.66 Q1547.75 1513.66 1550.81 1518.27 Q1553.88 1522.85 1553.88 1531.6 Q1553.88 1540.33 1550.81 1544.94 Q1547.75 1549.52 1541.94 1549.52 Q1536.13 1549.52 1533.05 1544.94 Q1530 1540.33 1530 1531.6 Q1530 1522.85 1533.05 1518.27 Q1536.13 1513.66 1541.94 1513.66 Z" fill="#000000" fill-rule="evenodd" fill-opacity="1" /><path clip-path="url(#clip810)" d="M1572.1 1517.37 Q1568.49 1517.37 1566.66 1520.93 Q1564.86 1524.47 1564.86 1531.6 Q1564.86 1538.71 1566.66 1542.27 Q1568.49 1545.82 1572.1 1545.82 Q1575.74 1545.82 1577.54 1542.27 Q1579.37 1538.71 1579.37 1531.6 Q1579.37 1524.47 1577.54 1520.93 Q1575.74 1517.37 1572.1 1517.37 M1572.1 1513.66 Q1577.91 1513.66 1580.97 1518.27 Q1584.05 1522.85 1584.05 1531.6 Q1584.05 1540.33 1580.97 1544.94 Q1577.91 1549.52 1572.1 1549.52 Q1566.29 1549.52 1563.21 1544.94 Q1560.16 1540.33 1560.16 1531.6 Q1560.16 1522.85 1563.21 1518.27 Q1566.29 1513.66 1572.1 1513.66 Z" fill="#000000" fill-rule="evenodd" fill-opacity="1" /><polyline clip-path="url(#clip812)" style="stroke:#000000; stroke-linecap:butt; stroke-linejoin:round; stroke-width:2; stroke-opacity:0.1; fill:none" points="
  293.637,1289.05 1732.84,1289.05 
  "/>
<polyline clip-path="url(#clip812)" style="stroke:#000000; stroke-linecap:butt; stroke-linejoin:round; stroke-width:2; stroke-opacity:0.1; fill:none" points="
  293.637,1027.95 1732.84,1027.95 
  "/>
<polyline clip-path="url(#clip812)" style="stroke:#000000; stroke-linecap:butt; stroke-linejoin:round; stroke-width:2; stroke-opacity:0.1; fill:none" points="
  293.637,766.846 1732.84,766.846 
  "/>
<polyline clip-path="url(#clip812)" style="stroke:#000000; stroke-linecap:butt; stroke-linejoin:round; stroke-width:2; stroke-opacity:0.1; fill:none" points="
  293.637,505.742 1732.84,505.742 
  "/>
<polyline clip-path="url(#clip812)" style="stroke:#000000; stroke-linecap:butt; stroke-linejoin:round; stroke-width:2; stroke-opacity:0.1; fill:none" points="
  293.637,244.639 1732.84,244.639 
  "/>
<polyline clip-path="url(#clip810)" style="stroke:#000000; stroke-linecap:butt; stroke-linejoin:round; stroke-width:4; stroke-opacity:1; fill:none" points="
  293.637,1486.45 293.637,47.2441 
  "/>
<polyline clip-path="url(#clip810)" style="stroke:#000000; stroke-linecap:butt; stroke-linejoin:round; stroke-width:4; stroke-opacity:1; fill:none" points="
  293.637,1289.05 306.191,1289.05 
  "/>
<polyline clip-path="url(#clip810)" style="stroke:#000000; stroke-linecap:butt; stroke-linejoin:round; stroke-width:4; stroke-opacity:1; fill:none" points="
  293.637,1027.95 306.191,1027.95 
  "/>
<polyline clip-path="url(#clip810)" style="stroke:#000000; stroke-linecap:butt; stroke-linejoin:round; stroke-width:4; stroke-opacity:1; fill:none" points="
  293.637,766.846 306.191,766.846 
  "/>
<polyline clip-path="url(#clip810)" style="stroke:#000000; stroke-linecap:butt; stroke-linejoin:round; stroke-width:4; stroke-opacity:1; fill:none" points="
  293.637,505.742 306.191,505.742 
  "/>
<polyline clip-path="url(#clip810)" style="stroke:#000000; stroke-linecap:butt; stroke-linejoin:round; stroke-width:4; stroke-opacity:1; fill:none" points="
  293.637,244.639 306.191,244.639 
  "/>
<path clip-path="url(#clip810)" d="M170.3 1274.85 Q166.689 1274.85 164.86 1278.42 Q163.054 1281.96 163.054 1289.09 Q163.054 1296.19 164.86 1299.76 Q166.689 1303.3 170.3 1303.3 Q173.934 1303.3 175.74 1299.76 Q177.568 1296.19 177.568 1289.09 Q177.568 1281.96 175.74 1278.42 Q173.934 1274.85 170.3 1274.85 M170.3 1271.15 Q176.11 1271.15 179.165 1275.75 Q182.244 1280.34 182.244 1289.09 Q182.244 1297.81 179.165 1302.42 Q176.11 1307 170.3 1307 Q164.49 1307 161.411 1302.42 Q158.355 1297.81 158.355 1289.09 Q158.355 1280.34 161.411 1275.75 Q164.49 1271.15 170.3 1271.15 Z" fill="#000000" fill-rule="evenodd" fill-opacity="1" /><path clip-path="url(#clip810)" d="M190.462 1300.45 L195.346 1300.45 L195.346 1306.33 L190.462 1306.33 L190.462 1300.45 Z" fill="#000000" fill-rule="evenodd" fill-opacity="1" /><path clip-path="url(#clip810)" d="M215.531 1274.85 Q211.92 1274.85 210.091 1278.42 Q208.286 1281.96 208.286 1289.09 Q208.286 1296.19 210.091 1299.76 Q211.92 1303.3 215.531 1303.3 Q219.165 1303.3 220.971 1299.76 Q222.8 1296.19 222.8 1289.09 Q222.8 1281.96 220.971 1278.42 Q219.165 1274.85 215.531 1274.85 M215.531 1271.15 Q221.341 1271.15 224.397 1275.75 Q227.475 1280.34 227.475 1289.09 Q227.475 1297.81 224.397 1302.42 Q221.341 1307 215.531 1307 Q209.721 1307 206.642 1302.42 Q203.587 1297.81 203.587 1289.09 Q203.587 1280.34 206.642 1275.75 Q209.721 1271.15 215.531 1271.15 Z" fill="#000000" fill-rule="evenodd" fill-opacity="1" /><path clip-path="url(#clip810)" d="M245.693 1274.85 Q242.082 1274.85 240.253 1278.42 Q238.448 1281.96 238.448 1289.09 Q238.448 1296.19 240.253 1299.76 Q242.082 1303.3 245.693 1303.3 Q249.327 1303.3 251.133 1299.76 Q252.961 1296.19 252.961 1289.09 Q252.961 1281.96 251.133 1278.42 Q249.327 1274.85 245.693 1274.85 M245.693 1271.15 Q251.503 1271.15 254.559 1275.75 Q257.637 1280.34 257.637 1289.09 Q257.637 1297.81 254.559 1302.42 Q251.503 1307 245.693 1307 Q239.883 1307 236.804 1302.42 Q233.749 1297.81 233.749 1289.09 Q233.749 1280.34 236.804 1275.75 Q239.883 1271.15 245.693 1271.15 Z" fill="#000000" fill-rule="evenodd" fill-opacity="1" /><path clip-path="url(#clip810)" d="M171.295 1013.75 Q167.684 1013.75 165.855 1017.31 Q164.05 1020.85 164.05 1027.98 Q164.05 1035.09 165.855 1038.66 Q167.684 1042.2 171.295 1042.2 Q174.929 1042.2 176.735 1038.66 Q178.564 1035.09 178.564 1027.98 Q178.564 1020.85 176.735 1017.31 Q174.929 1013.75 171.295 1013.75 M171.295 1010.04 Q177.105 1010.04 180.161 1014.65 Q183.24 1019.23 183.24 1027.98 Q183.24 1036.71 180.161 1041.32 Q177.105 1045.9 171.295 1045.9 Q165.485 1045.9 162.406 1041.32 Q159.351 1036.71 159.351 1027.98 Q159.351 1019.23 162.406 1014.65 Q165.485 1010.04 171.295 1010.04 Z" fill="#000000" fill-rule="evenodd" fill-opacity="1" /><path clip-path="url(#clip810)" d="M191.457 1039.35 L196.341 1039.35 L196.341 1045.23 L191.457 1045.23 L191.457 1039.35 Z" fill="#000000" fill-rule="evenodd" fill-opacity="1" /><path clip-path="url(#clip810)" d="M210.554 1041.29 L226.874 1041.29 L226.874 1045.23 L204.929 1045.23 L204.929 1041.29 Q207.591 1038.54 212.175 1033.91 Q216.781 1029.26 217.962 1027.91 Q220.207 1025.39 221.087 1023.66 Q221.989 1021.9 221.989 1020.21 Q221.989 1017.45 220.045 1015.72 Q218.124 1013.98 215.022 1013.98 Q212.823 1013.98 210.369 1014.74 Q207.938 1015.51 205.161 1017.06 L205.161 1012.34 Q207.985 1011.2 210.438 1010.62 Q212.892 1010.04 214.929 1010.04 Q220.3 1010.04 223.494 1012.73 Q226.688 1015.42 226.688 1019.91 Q226.688 1022.04 225.878 1023.96 Q225.091 1025.85 222.985 1028.45 Q222.406 1029.12 219.304 1032.34 Q216.202 1035.53 210.554 1041.29 Z" fill="#000000" fill-rule="evenodd" fill-opacity="1" /><path clip-path="url(#clip810)" d="M236.735 1010.67 L255.091 1010.67 L255.091 1014.6 L241.017 1014.6 L241.017 1023.08 Q242.036 1022.73 243.054 1022.57 Q244.073 1022.38 245.091 1022.38 Q250.878 1022.38 254.258 1025.55 Q257.637 1028.73 257.637 1034.14 Q257.637 1039.72 254.165 1042.82 Q250.693 1045.9 244.373 1045.9 Q242.198 1045.9 239.929 1045.53 Q237.684 1045.16 235.276 1044.42 L235.276 1039.72 Q237.36 1040.85 239.582 1041.41 Q241.804 1041.97 244.281 1041.97 Q248.285 1041.97 250.623 1039.86 Q252.961 1037.75 252.961 1034.14 Q252.961 1030.53 250.623 1028.42 Q248.285 1026.32 244.281 1026.32 Q242.406 1026.32 240.531 1026.73 Q238.679 1027.15 236.735 1028.03 L236.735 1010.67 Z" fill="#000000" fill-rule="evenodd" fill-opacity="1" /><path clip-path="url(#clip810)" d="M170.3 752.645 Q166.689 752.645 164.86 756.209 Q163.054 759.751 163.054 766.881 Q163.054 773.987 164.86 777.552 Q166.689 781.094 170.3 781.094 Q173.934 781.094 175.74 777.552 Q177.568 773.987 177.568 766.881 Q177.568 759.751 175.74 756.209 Q173.934 752.645 170.3 752.645 M170.3 748.941 Q176.11 748.941 179.165 753.547 Q182.244 758.131 182.244 766.881 Q182.244 775.608 179.165 780.214 Q176.11 784.797 170.3 784.797 Q164.49 784.797 161.411 780.214 Q158.355 775.608 158.355 766.881 Q158.355 758.131 161.411 753.547 Q164.49 748.941 170.3 748.941 Z" fill="#000000" fill-rule="evenodd" fill-opacity="1" /><path clip-path="url(#clip810)" d="M190.462 778.246 L195.346 778.246 L195.346 784.126 L190.462 784.126 L190.462 778.246 Z" fill="#000000" fill-rule="evenodd" fill-opacity="1" /><path clip-path="url(#clip810)" d="M205.577 749.566 L223.934 749.566 L223.934 753.501 L209.86 753.501 L209.86 761.973 Q210.878 761.626 211.897 761.464 Q212.915 761.279 213.934 761.279 Q219.721 761.279 223.1 764.45 Q226.48 767.621 226.48 773.038 Q226.48 778.617 223.008 781.719 Q219.536 784.797 213.216 784.797 Q211.04 784.797 208.772 784.427 Q206.526 784.057 204.119 783.316 L204.119 778.617 Q206.202 779.751 208.425 780.307 Q210.647 780.862 213.124 780.862 Q217.128 780.862 219.466 778.756 Q221.804 776.649 221.804 773.038 Q221.804 769.427 219.466 767.321 Q217.128 765.214 213.124 765.214 Q211.249 765.214 209.374 765.631 Q207.522 766.047 205.577 766.927 L205.577 749.566 Z" fill="#000000" fill-rule="evenodd" fill-opacity="1" /><path clip-path="url(#clip810)" d="M245.693 752.645 Q242.082 752.645 240.253 756.209 Q238.448 759.751 238.448 766.881 Q238.448 773.987 240.253 777.552 Q242.082 781.094 245.693 781.094 Q249.327 781.094 251.133 777.552 Q252.961 773.987 252.961 766.881 Q252.961 759.751 251.133 756.209 Q249.327 752.645 245.693 752.645 M245.693 748.941 Q251.503 748.941 254.559 753.547 Q257.637 758.131 257.637 766.881 Q257.637 775.608 254.559 780.214 Q251.503 784.797 245.693 784.797 Q239.883 784.797 236.804 780.214 Q233.749 775.608 233.749 766.881 Q233.749 758.131 236.804 753.547 Q239.883 748.941 245.693 748.941 Z" fill="#000000" fill-rule="evenodd" fill-opacity="1" /><path clip-path="url(#clip810)" d="M171.295 491.541 Q167.684 491.541 165.855 495.106 Q164.05 498.647 164.05 505.777 Q164.05 512.883 165.855 516.448 Q167.684 519.99 171.295 519.99 Q174.929 519.99 176.735 516.448 Q178.564 512.883 178.564 505.777 Q178.564 498.647 176.735 495.106 Q174.929 491.541 171.295 491.541 M171.295 487.837 Q177.105 487.837 180.161 492.444 Q183.24 497.027 183.24 505.777 Q183.24 514.504 180.161 519.11 Q177.105 523.694 171.295 523.694 Q165.485 523.694 162.406 519.11 Q159.351 514.504 159.351 505.777 Q159.351 497.027 162.406 492.444 Q165.485 487.837 171.295 487.837 Z" fill="#000000" fill-rule="evenodd" fill-opacity="1" /><path clip-path="url(#clip810)" d="M191.457 517.143 L196.341 517.143 L196.341 523.022 L191.457 523.022 L191.457 517.143 Z" fill="#000000" fill-rule="evenodd" fill-opacity="1" /><path clip-path="url(#clip810)" d="M205.346 488.462 L227.568 488.462 L227.568 490.453 L215.022 523.022 L210.138 523.022 L221.943 492.397 L205.346 492.397 L205.346 488.462 Z" fill="#000000" fill-rule="evenodd" fill-opacity="1" /><path clip-path="url(#clip810)" d="M236.735 488.462 L255.091 488.462 L255.091 492.397 L241.017 492.397 L241.017 500.87 Q242.036 500.522 243.054 500.36 Q244.073 500.175 245.091 500.175 Q250.878 500.175 254.258 503.346 Q257.637 506.518 257.637 511.934 Q257.637 517.513 254.165 520.615 Q250.693 523.694 244.373 523.694 Q242.198 523.694 239.929 523.323 Q237.684 522.953 235.276 522.212 L235.276 517.513 Q237.36 518.647 239.582 519.203 Q241.804 519.758 244.281 519.758 Q248.285 519.758 250.623 517.652 Q252.961 515.545 252.961 511.934 Q252.961 508.323 250.623 506.217 Q248.285 504.11 244.281 504.11 Q242.406 504.11 240.531 504.527 Q238.679 504.944 236.735 505.823 L236.735 488.462 Z" fill="#000000" fill-rule="evenodd" fill-opacity="1" /><path clip-path="url(#clip810)" d="M161.11 257.983 L168.749 257.983 L168.749 231.618 L160.439 233.284 L160.439 229.025 L168.703 227.359 L173.378 227.359 L173.378 257.983 L181.017 257.983 L181.017 261.919 L161.11 261.919 L161.11 257.983 Z" fill="#000000" fill-rule="evenodd" fill-opacity="1" /><path clip-path="url(#clip810)" d="M190.462 256.039 L195.346 256.039 L195.346 261.919 L190.462 261.919 L190.462 256.039 Z" fill="#000000" fill-rule="evenodd" fill-opacity="1" /><path clip-path="url(#clip810)" d="M215.531 230.437 Q211.92 230.437 210.091 234.002 Q208.286 237.544 208.286 244.673 Q208.286 251.78 210.091 255.344 Q211.92 258.886 215.531 258.886 Q219.165 258.886 220.971 255.344 Q222.8 251.78 222.8 244.673 Q222.8 237.544 220.971 234.002 Q219.165 230.437 215.531 230.437 M215.531 226.734 Q221.341 226.734 224.397 231.34 Q227.475 235.923 227.475 244.673 Q227.475 253.4 224.397 258.007 Q221.341 262.59 215.531 262.59 Q209.721 262.59 206.642 258.007 Q203.587 253.4 203.587 244.673 Q203.587 235.923 206.642 231.34 Q209.721 226.734 215.531 226.734 Z" fill="#000000" fill-rule="evenodd" fill-opacity="1" /><path clip-path="url(#clip810)" d="M245.693 230.437 Q242.082 230.437 240.253 234.002 Q238.448 237.544 238.448 244.673 Q238.448 251.78 240.253 255.344 Q242.082 258.886 245.693 258.886 Q249.327 258.886 251.133 255.344 Q252.961 251.78 252.961 244.673 Q252.961 237.544 251.133 234.002 Q249.327 230.437 245.693 230.437 M245.693 226.734 Q251.503 226.734 254.559 231.34 Q257.637 235.923 257.637 244.673 Q257.637 253.4 254.559 258.007 Q251.503 262.59 245.693 262.59 Q239.883 262.59 236.804 258.007 Q233.749 253.4 233.749 244.673 Q233.749 235.923 236.804 231.34 Q239.883 226.734 245.693 226.734 Z" fill="#000000" fill-rule="evenodd" fill-opacity="1" /><polyline clip-path="url(#clip812)" style="stroke:#009af9; stroke-linecap:butt; stroke-linejoin:round; stroke-width:4; stroke-opacity:1; fill:none" points="
  -4731.04,6845.54 -4663.05,6777.55 -4034.31,6148.82 -3656.47,5770.97 -3337.01,5451.51 -2989.99,5104.49 -2670.06,4784.57 -2327.07,4441.57 -1929.68,4044.18 -1576.53,3691.03 
  -1266.84,3381.34 -929.202,3043.7 -589.556,2704.06 -214.034,2328.54 143.265,1971.24 514.774,1599.73 827.506,1287 1209.32,905.186 1559.08,555.424 1882.11,232.392 
  2209.33,-94.829 2576.05,-461.552 2908.36,-793.863 3288.84,-1174.34 3641.12,-1526.62 3988.43,-1873.93 4325.64,-2211.14 4671.32,-2556.82 5050.06,-2935.56 5600.24,-3485.74 
  5713.11,-3598.61 
  "/>
<polyline clip-path="url(#clip812)" style="stroke:#e26f46; stroke-linecap:butt; stroke-linejoin:round; stroke-width:4; stroke-opacity:1; fill:none" points="
  -4731.04,6176.71 -4663.05,6108.72 -4034.31,5479.98 -3656.47,5102.14 -3337.01,4782.68 -2989.99,4435.66 -2670.06,4115.73 -2327.07,3772.74 -1929.68,3375.35 -1576.53,3022.2 
  -1266.84,2712.51 -929.202,2374.87 -589.556,2035.23 -214.034,1659.7 143.265,1302.4 514.774,930.895 827.506,618.164 1209.32,236.354 1559.08,-113.407 1882.11,-436.439 
  2209.33,-763.661 2576.05,-1130.38 2908.36,-1462.69 3288.84,-1843.17 3641.12,-2195.45 3988.43,-2542.76 4325.64,-2879.97 4671.32,-3225.65 5050.06,-3604.39 5600.24,-4154.57 
  5713.11,-4267.44 
  "/>
<path clip-path="url(#clip812)" d="
M491.032 1289.05 L492.076 1289.05 L493.121 1289.05 L494.165 1289.05 L495.209 1289.05 L496.254 1289.05 L497.298 1289.05 L498.343 1289.05 L499.387 1289.05 L500.431 1289.05 
  L501.476 1289.05 L502.52 1289.05 L503.565 1289.05 L504.609 1289.05 L505.654 1289.05 L506.698 1289.05 L507.742 1289.05 L508.787 1289.05 L509.831 1289.05 L510.876 1289.05 
  L511.92 1289.05 L512.964 1289.05 L514.009 1289.05 L515.053 1289.05 L516.098 1289.05 L517.142 1289.05 L518.186 1289.05 L519.231 1289.05 L520.275 1289.05 L521.32 1289.05 
  L522.364 1289.05 L523.409 1289.05 L524.453 1289.05 L525.497 1289.05 L526.542 1289.05 L527.586 1289.05 L528.631 1289.05 L529.675 1289.05 L530.719 1289.05 L531.764 1289.05 
  L532.808 1289.05 L533.853 1289.05 L534.897 1289.05 L535.942 1289.05 L536.986 1289.05 L538.03 1289.05 L539.075 1289.05 L540.119 1289.05 L541.164 1289.05 L542.208 1289.05 
  L543.252 1289.05 L544.297 1289.05 L545.341 1289.05 L546.386 1289.05 L547.43 1289.05 L548.475 1289.05 L549.519 1289.05 L550.563 1289.05 L551.608 1289.05 L552.652 1289.05 
  L553.697 1289.05 L554.741 1289.05 L555.785 1289.05 L556.83 1289.05 L557.874 1289.05 L558.919 1289.05 L559.963 1289.05 L561.008 1289.05 L562.052 1289.05 L563.096 1289.05 
  L564.141 1289.05 L565.185 1289.05 L566.23 1289.05 L567.274 1289.05 L568.318 1289.05 L569.363 1289.05 L570.407 1289.05 L571.452 1289.05 L572.496 1289.05 L573.54 1289.05 
  L574.585 1289.05 L575.629 1289.05 L576.674 1289.05 L577.718 1289.05 L578.763 1289.05 L579.807 1289.05 L580.851 1289.05 L581.896 1289.05 L582.94 1289.05 L583.985 1289.05 
  L585.029 1289.05 L586.073 1289.05 L587.118 1289.05 L588.162 1289.05 L589.207 1289.05 L590.251 1289.05 L591.296 1289.05 L592.34 1289.05 L593.384 1289.05 L594.429 1289.05 
  L595.473 1289.05 L596.518 1289.05 L597.562 1289.05 L598.606 1289.05 L599.651 1289.05 L600.695 1289.05 L601.74 1289.05 L602.784 1289.05 L603.829 1289.05 L604.873 1289.05 
  L605.917 1289.05 L606.962 1289.05 L608.006 1289.05 L609.051 1289.05 L610.095 1289.05 L611.139 1289.05 L612.184 1289.05 L613.228 1289.05 L614.273 1289.05 L615.317 1289.05 
  L616.361 1289.05 L617.406 1289.05 L618.45 1289.05 L619.495 1289.05 L620.539 1289.05 L621.584 1289.05 L622.628 1289.05 L623.672 1289.05 L624.717 1289.05 L625.761 1289.05 
  L626.806 1289.05 L627.85 1289.05 L628.894 1289.05 L629.939 1289.05 L630.983 1289.05 L632.028 1289.05 L633.072 1289.05 L634.117 1289.05 L635.161 1289.05 L636.205 1289.05 
  L637.25 1289.05 L638.294 1289.05 L639.339 1289.05 L640.383 1289.05 L641.427 1289.05 L642.472 1289.05 L643.516 1289.05 L644.561 1289.05 L645.605 1289.05 L646.65 1289.05 
  L647.694 1289.05 L648.738 1289.05 L649.783 1289.05 L650.827 1289.05 L651.872 1289.05 L652.916 1289.05 L653.96 1289.05 L655.005 1289.05 L656.049 1289.05 L657.094 1289.05 
  L658.138 1289.05 L659.183 1289.05 L660.227 1289.05 L661.271 1289.05 L662.316 1289.05 L663.36 1289.05 L664.405 1289.05 L665.449 1289.05 L666.493 1289.05 L667.538 1289.05 
  L668.582 1289.05 L669.627 1289.05 L670.671 1289.05 L671.715 1289.05 L672.76 1289.05 L673.804 1289.05 L674.849 1289.05 L675.893 1289.05 L676.938 1289.05 L677.982 1289.05 
  L679.026 1289.05 L680.071 1289.05 L681.115 1289.05 L682.16 1289.05 L683.204 1289.05 L684.248 1289.05 L685.293 1289.05 L686.337 1289.05 L687.382 1289.05 L688.426 1289.05 
  L689.471 1289.05 L690.515 1289.05 L691.559 1289.05 L692.604 1289.05 L693.648 1289.05 L694.693 1289.05 L695.737 1289.05 L696.781 1289.05 L697.826 1289.05 L698.87 1289.05 
  L699.915 1289.05 L700.959 1289.05 L702.004 1289.05 L703.048 1289.05 L704.092 1289.05 L705.137 1289.05 L706.181 1289.05 L707.226 1289.05 L708.27 1289.05 L709.314 1289.05 
  L710.359 1289.05 L711.403 1289.05 L712.448 1289.05 L713.492 1289.05 L714.537 1289.05 L715.581 1289.05 L716.625 1289.05 L717.67 1289.05 L718.714 1289.05 L719.759 1289.05 
  L720.803 1289.05 L721.847 1289.05 L722.892 1289.05 L723.936 1289.05 L724.981 1289.05 L726.025 1289.05 L727.069 1289.05 L728.114 1289.05 L729.158 1289.05 L730.203 1289.05 
  L731.247 1289.05 L732.292 1289.05 L733.336 1289.05 L734.38 1289.05 L735.425 1289.05 L736.469 1289.05 L737.514 1289.05 L738.558 1289.05 L739.602 1289.05 L740.647 1289.05 
  L741.691 1289.05 L742.736 1289.05 L743.78 1289.05 L744.825 1289.05 L745.869 1289.05 L746.913 1289.05 L747.958 1289.05 L749.002 1289.05 L750.047 1289.05 L751.091 1289.05 
  L752.135 1289.05 L753.18 1289.05 L754.224 1289.05 L755.269 1289.05 L756.313 1289.05 L757.358 1289.05 L758.402 1289.05 L759.446 1289.05 L760.491 1289.05 L761.535 1289.05 
  L762.58 1289.05 L763.624 1289.05 L764.668 1289.05 L765.713 1289.05 L766.757 1289.05 L767.802 1289.05 L768.846 1289.05 L769.89 1289.05 L770.935 1289.05 L771.979 1289.05 
  L773.024 1289.05 L774.068 1289.05 L775.113 1289.05 L776.157 1289.05 L777.201 1289.05 L778.246 1289.05 L779.29 1289.05 L780.335 1289.05 L781.379 1289.05 L782.423 1289.05 
  L783.468 1289.05 L784.512 1289.05 L785.557 1289.05 L786.601 1289.05 L787.646 1289.05 L788.69 1289.05 L789.734 1289.05 L790.779 1289.05 L791.823 1289.05 L792.868 1289.05 
  L793.912 1289.05 L794.956 1289.05 L796.001 1289.05 L797.045 1289.05 L798.09 1289.05 L799.134 1289.05 L800.179 1289.05 L801.223 1289.05 L802.267 1289.05 L803.312 1289.05 
  L804.356 1289.05 L805.401 1289.05 L806.445 1289.05 L807.489 1289.05 L808.534 1289.05 L809.578 1289.05 L810.623 1289.05 L811.667 1289.05 L812.712 1289.05 L813.756 1289.05 
  L814.8 1289.05 L815.845 1289.05 L816.889 1289.05 L817.934 1289.05 L818.978 1289.05 L820.022 1289.05 L821.067 1289.05 L822.111 1289.05 L823.156 1289.05 L824.2 1289.05 
  L825.244 1289.05 L826.289 1288.21 L827.333 1287.17 L828.378 1286.12 L829.422 1285.08 L830.467 1284.03 L831.511 1282.99 L832.555 1281.95 L833.6 1280.9 L834.644 1279.86 
  L835.689 1278.81 L836.733 1277.77 L837.777 1276.72 L838.822 1275.68 L839.866 1274.63 L840.911 1273.59 L841.955 1272.55 L843 1271.5 L844.044 1270.46 L845.088 1269.41 
  L846.133 1268.37 L847.177 1267.32 L848.222 1266.28 L849.266 1265.23 L850.31 1264.19 L851.355 1263.15 L852.399 1262.1 L853.444 1261.06 L854.488 1260.01 L855.533 1258.97 
  L856.577 1257.92 L857.621 1256.88 L858.666 1255.84 L859.71 1254.79 L860.755 1253.75 L861.799 1252.7 L862.843 1251.66 L863.888 1250.61 L864.932 1249.57 L865.977 1248.52 
  L867.021 1247.48 L868.065 1246.44 L869.11 1245.39 L870.154 1244.35 L871.199 1243.3 L872.243 1242.26 L873.288 1241.21 L874.332 1240.17 L875.376 1239.12 L876.421 1238.08 
  L877.465 1237.04 L878.51 1235.99 L879.554 1234.95 L880.598 1233.9 L881.643 1232.86 L882.687 1231.81 L883.732 1230.77 L884.776 1229.72 L885.821 1228.68 L886.865 1227.64 
  L887.909 1226.59 L888.954 1225.55 L889.998 1224.5 L891.043 1223.46 L892.087 1222.41 L893.131 1221.37 L894.176 1220.33 L895.22 1219.28 L896.265 1218.24 L897.309 1217.19 
  L898.354 1216.15 L899.398 1215.1 L900.442 1214.06 L901.487 1213.01 L902.531 1211.97 L903.576 1210.93 L904.62 1209.88 L905.664 1208.84 L906.709 1207.79 L907.753 1206.75 
  L908.798 1205.7 L909.842 1204.66 L910.887 1203.61 L911.931 1202.57 L912.975 1201.53 L914.02 1200.48 L915.064 1199.44 L916.109 1198.39 L917.153 1197.35 L918.197 1196.3 
  L919.242 1195.26 L920.286 1194.21 L921.331 1193.17 L922.375 1192.13 L923.419 1191.08 L924.464 1190.04 L925.508 1188.99 L926.553 1187.95 L927.597 1186.9 L928.642 1185.86 
  L929.686 1184.81 L930.73 1183.77 L931.775 1182.73 L932.819 1181.68 L933.864 1180.64 L934.908 1179.59 L935.952 1178.55 L936.997 1177.5 L938.041 1176.46 L939.086 1175.42 
  L940.13 1174.37 L941.175 1173.33 L942.219 1172.28 L943.263 1171.24 L944.308 1170.19 L945.352 1169.15 L946.397 1168.1 L947.441 1167.06 L948.485 1166.02 L949.53 1164.97 
  L950.574 1163.93 L951.619 1162.88 L952.663 1161.84 L953.708 1160.79 L954.752 1159.75 L955.796 1158.7 L956.841 1157.66 L957.885 1156.62 L958.93 1155.57 L959.974 1154.53 
  L961.018 1153.48 L962.063 1152.44 L963.107 1151.39 L964.152 1150.35 L965.196 1149.3 L966.241 1148.26 L967.285 1147.22 L968.329 1146.17 L969.374 1145.13 L970.418 1144.08 
  L971.463 1143.04 L972.507 1141.99 L973.551 1140.95 L974.596 1139.91 L975.64 1138.86 L976.685 1137.82 L977.729 1136.77 L978.773 1135.73 L979.818 1134.68 L980.862 1133.64 
  L981.907 1132.59 L982.951 1131.55 L983.996 1130.51 L985.04 1129.46 L986.084 1128.42 L987.129 1127.37 L988.173 1126.33 L989.218 1125.28 L990.262 1124.24 L991.306 1123.19 
  L992.351 1122.15 L993.395 1121.11 L994.44 1120.06 L995.484 1119.02 L996.529 1117.97 L997.573 1116.93 L998.617 1115.88 L999.662 1114.84 L1000.71 1113.79 L1001.75 1112.75 
  L1002.8 1111.71 L1003.84 1110.66 L1004.88 1109.62 L1005.93 1108.57 L1006.97 1107.53 L1008.02 1106.48 L1009.06 1105.44 L1010.11 1104.4 L1011.15 1103.35 L1012.19 1102.31 
  L1013.24 1101.26 L1014.28 1100.22 L1015.33 1099.17 L1016.37 1098.13 L1017.42 1097.08 L1018.46 1096.04 L1019.51 1095 L1020.55 1093.95 L1021.59 1092.91 L1022.64 1091.86 
  L1023.68 1090.82 L1024.73 1089.77 L1025.77 1088.73 L1026.82 1087.68 L1027.86 1086.64 L1028.91 1085.6 L1029.95 1084.55 L1030.99 1083.51 L1032.04 1082.46 L1033.08 1081.42 
  L1034.13 1080.37 L1035.17 1079.33 L1036.22 1078.28 L1037.26 1077.24 L1038.31 1076.2 L1039.35 1075.15 L1040.39 1074.11 L1041.44 1073.06 L1042.48 1072.02 L1043.53 1070.97 
  L1044.57 1069.93 L1045.62 1068.88 L1046.66 1067.84 L1047.7 1066.8 L1048.75 1065.75 L1049.79 1064.71 L1050.84 1063.66 L1051.88 1062.62 L1052.93 1061.57 L1053.97 1060.53 
  L1055.02 1059.49 L1056.06 1058.44 L1057.1 1057.4 L1058.15 1056.35 L1059.19 1055.31 L1060.24 1054.26 L1061.28 1053.22 L1062.33 1052.17 L1063.37 1051.13 L1064.42 1050.09 
  L1065.46 1049.04 L1066.5 1048 L1067.55 1046.95 L1068.59 1045.91 L1069.64 1044.86 L1070.68 1043.82 L1071.73 1042.77 L1072.77 1041.73 L1073.82 1040.69 L1074.86 1039.64 
  L1075.9 1038.6 L1076.95 1037.55 L1077.99 1036.51 L1079.04 1035.46 L1080.08 1034.42 L1081.13 1033.37 L1082.17 1032.33 L1083.21 1031.29 L1084.26 1030.24 L1085.3 1029.2 
  L1086.35 1028.15 L1087.39 1027.11 L1088.44 1026.06 L1089.48 1025.02 L1090.53 1023.98 L1091.57 1022.93 L1092.61 1021.89 L1093.66 1020.84 L1094.7 1019.8 L1095.75 1018.75 
  L1096.79 1017.71 L1097.84 1016.66 L1098.88 1015.62 L1099.93 1014.58 L1100.97 1013.53 L1102.01 1012.49 L1103.06 1011.44 L1104.1 1010.4 L1105.15 1009.35 L1106.19 1008.31 
  L1107.24 1007.26 L1108.28 1006.22 L1109.33 1005.18 L1110.37 1004.13 L1111.41 1003.09 L1112.46 1002.04 L1113.5 1001 L1114.55 999.954 L1115.59 998.909 L1116.64 997.865 
  L1117.68 996.82 L1118.73 995.776 L1119.77 994.731 L1120.81 993.687 L1121.86 992.643 L1122.9 991.598 L1123.95 990.554 L1124.99 989.509 L1126.04 988.465 L1127.08 987.421 
  L1128.12 986.376 L1129.17 985.332 L1130.21 984.287 L1131.26 983.243 L1132.3 982.198 L1133.35 981.154 L1134.39 980.11 L1135.44 979.065 L1136.48 978.021 L1137.52 976.976 
  L1138.57 975.932 L1139.61 974.888 L1140.66 973.843 L1141.7 972.799 L1142.75 971.754 L1143.79 970.71 L1144.84 969.665 L1145.88 968.621 L1146.92 967.577 L1147.97 966.532 
  L1149.01 965.488 L1150.06 964.443 L1151.1 963.399 L1152.15 962.355 L1153.19 961.31 L1154.24 960.266 L1155.28 959.221 L1156.32 958.177 L1157.37 957.133 L1158.41 956.088 
  L1159.46 955.044 L1160.5 953.999 L1161.55 952.955 L1162.59 951.91 L1163.63 950.866 L1164.68 949.822 L1165.72 948.777 L1166.77 947.733 L1167.81 946.688 L1168.86 945.644 
  L1169.9 944.6 L1170.95 943.555 L1171.99 942.511 L1173.03 941.466 L1174.08 940.422 L1175.12 939.377 L1176.17 938.333 L1177.21 937.289 L1178.26 936.244 L1179.3 935.2 
  L1180.35 934.155 L1181.39 933.111 L1182.43 932.067 L1183.48 931.022 L1184.52 929.978 L1185.57 928.933 L1186.61 927.889 L1187.66 926.844 L1188.7 925.8 L1189.75 924.756 
  L1190.79 923.711 L1191.83 922.667 L1192.88 921.622 L1193.92 920.578 L1194.97 919.534 L1196.01 918.489 L1197.06 917.445 L1198.1 916.4 L1199.15 915.356 L1200.19 914.312 
  L1201.23 913.267 L1202.28 912.223 L1203.32 911.178 L1204.37 910.134 L1205.41 909.089 L1206.46 908.045 L1207.5 907.001 L1208.54 905.956 L1209.59 904.912 L1210.63 903.867 
  L1211.68 902.823 L1212.72 901.779 L1213.77 900.734 L1214.81 899.69 L1215.86 898.645 L1216.9 897.601 L1217.94 896.556 L1218.99 895.512 L1220.03 894.468 L1221.08 893.423 
  L1222.12 892.379 L1223.17 891.334 L1224.21 890.29 L1225.26 889.246 L1226.3 888.201 L1227.34 887.157 L1228.39 886.112 L1229.43 885.068 L1230.48 884.023 L1231.52 882.979 
  L1232.57 881.935 L1233.61 880.89 L1234.66 879.846 L1235.7 878.801 L1236.74 877.757 L1237.79 876.713 L1238.83 875.668 L1239.88 874.624 L1240.92 873.579 L1241.97 872.535 
  L1243.01 871.49 L1244.05 870.446 L1245.1 869.402 L1246.14 868.357 L1247.19 867.313 L1248.23 866.268 L1249.28 865.224 L1250.32 864.18 L1251.37 863.135 L1252.41 862.091 
  L1253.45 861.046 L1254.5 860.002 L1255.54 858.958 L1256.59 857.913 L1257.63 856.869 L1258.68 855.824 L1259.72 854.78 L1260.77 853.735 L1261.81 852.691 L1262.85 851.647 
  L1263.9 850.602 L1264.94 849.558 L1265.99 848.513 L1267.03 847.469 L1268.08 846.425 L1269.12 845.38 L1270.17 844.336 L1271.21 843.291 L1272.25 842.247 L1273.3 841.202 
  L1274.34 840.158 L1275.39 839.114 L1276.43 838.069 L1277.48 837.025 L1278.52 835.98 L1279.56 834.936 L1280.61 833.892 L1281.65 832.847 L1282.7 831.803 L1283.74 830.758 
  L1284.79 829.714 L1285.83 828.669 L1286.88 827.625 L1287.92 826.581 L1288.96 825.536 L1290.01 824.492 L1291.05 823.447 L1292.1 822.403 L1293.14 821.359 L1294.19 820.314 
  L1295.23 819.27 L1296.28 818.225 L1297.32 817.181 L1298.36 816.136 L1299.41 815.092 L1300.45 814.048 L1301.5 813.003 L1302.54 811.959 L1303.59 810.914 L1304.63 809.87 
  L1305.68 808.826 L1306.72 807.781 L1307.76 806.737 L1308.81 805.692 L1309.85 804.648 L1310.9 803.604 L1311.94 802.559 L1312.99 801.515 L1314.03 800.47 L1315.08 799.426 
  L1316.12 798.381 L1317.16 797.337 L1318.21 796.293 L1319.25 795.248 L1320.3 794.204 L1321.34 793.159 L1322.39 792.115 L1323.43 791.071 L1324.47 790.026 L1325.52 788.982 
  L1326.56 787.937 L1327.61 786.893 L1328.65 785.848 L1329.7 784.804 L1330.74 783.76 L1331.79 782.715 L1332.83 781.671 L1333.87 780.626 L1334.92 779.582 L1335.96 778.538 
  L1337.01 777.493 L1338.05 776.449 L1339.1 775.404 L1340.14 774.36 L1341.19 773.315 L1342.23 772.271 L1343.27 771.227 L1344.32 770.182 L1345.36 769.138 L1346.41 768.093 
  L1347.45 767.049 L1348.5 766.005 L1349.54 764.96 L1350.59 763.916 L1351.63 762.871 L1352.67 761.827 L1353.72 760.783 L1354.76 759.738 L1355.81 758.694 L1356.85 757.649 
  L1357.9 756.605 L1358.94 755.56 L1359.98 754.516 L1361.03 753.472 L1362.07 752.427 L1363.12 751.383 L1364.16 750.338 L1365.21 749.294 L1366.25 748.25 L1367.3 747.205 
  L1368.34 746.161 L1369.38 745.116 L1370.43 744.072 L1371.47 743.027 L1372.52 741.983 L1373.56 740.939 L1374.61 739.894 L1375.65 738.85 L1376.7 737.805 L1377.74 736.761 
  L1378.78 735.717 L1379.83 734.672 L1380.87 733.628 L1381.92 732.583 L1382.96 731.539 L1384.01 730.494 L1385.05 729.45 L1386.1 728.406 L1387.14 727.361 L1388.18 726.317 
  L1389.23 725.272 L1390.27 724.228 L1391.32 723.184 L1392.36 722.139 L1393.41 721.095 L1394.45 720.05 L1395.5 719.006 L1396.54 717.961 L1397.58 716.917 L1398.63 715.873 
  L1399.67 714.828 L1400.72 713.784 L1401.76 712.739 L1402.81 711.695 L1403.85 710.651 L1404.89 709.606 L1405.94 708.562 L1406.98 707.517 L1408.03 706.473 L1409.07 705.429 
  L1410.12 704.384 L1411.16 703.34 L1412.21 702.295 L1413.25 701.251 L1414.29 700.206 L1415.34 699.162 L1416.38 698.118 L1417.43 697.073 L1418.47 696.029 L1419.52 694.984 
  L1420.56 693.94 L1421.61 692.896 L1422.65 691.851 L1423.69 690.807 L1424.74 689.762 L1425.78 688.718 L1426.83 687.673 L1427.87 686.629 L1428.92 685.585 L1429.96 684.54 
  L1431.01 683.496 L1432.05 682.451 L1433.09 681.407 L1434.14 680.363 L1435.18 679.318 L1436.23 678.274 L1437.27 677.229 L1438.32 676.185 L1439.36 675.14 L1440.4 674.096 
  L1441.45 673.052 L1442.49 672.007 L1443.54 670.963 L1444.58 669.918 L1445.63 668.874 L1446.67 667.83 L1447.72 666.785 L1448.76 665.741 L1449.8 664.696 L1450.85 663.652 
  L1451.89 662.608 L1452.94 661.563 L1453.98 660.519 L1455.03 659.474 L1456.07 658.43 L1457.12 657.385 L1458.16 656.341 L1459.2 655.297 L1460.25 654.252 L1461.29 653.208 
  L1462.34 652.163 L1463.38 651.119 L1464.43 650.075 L1465.47 649.03 L1466.52 647.986 L1467.56 646.941 L1468.6 645.897 L1469.65 644.852 L1470.69 643.808 L1471.74 642.764 
  L1472.78 641.719 L1473.83 640.675 L1474.87 639.63 L1475.91 638.586 L1476.96 637.542 L1478 636.497 L1479.05 635.453 L1480.09 634.408 L1481.14 633.364 L1482.18 632.319 
  L1483.23 631.275 L1484.27 630.231 L1485.31 629.186 L1486.36 628.142 L1487.4 627.097 L1488.45 626.053 L1489.49 625.009 L1490.54 623.964 L1491.58 622.92 L1492.63 621.875 
  L1493.67 620.831 L1494.71 619.786 L1495.76 618.742 L1496.8 617.698 L1497.85 616.653 L1498.89 615.609 L1499.94 614.564 L1500.98 613.52 L1502.03 612.476 L1503.07 611.431 
  L1504.11 610.387 L1505.16 609.342 L1506.2 608.298 L1507.25 607.254 L1508.29 606.209 L1509.34 605.165 L1510.38 604.12 L1511.43 603.076 L1512.47 602.031 L1513.51 600.987 
  L1514.56 599.943 L1515.6 598.898 L1516.65 597.854 L1517.69 596.809 L1518.74 595.765 L1519.78 594.721 L1520.82 593.676 L1521.87 592.632 L1522.91 591.587 L1523.96 590.543 
  L1525 589.498 L1526.05 588.454 L1527.09 587.41 L1528.14 586.365 L1529.18 585.321 L1530.22 584.276 L1531.27 583.232 L1532.31 582.188 L1533.36 581.143 L1534.4 580.099 
  L1535.45 579.054 L1535.45 244.639 L1534.4 244.639 L1533.36 244.639 L1532.31 244.639 L1531.27 244.639 L1530.22 244.639 L1529.18 244.639 L1528.14 244.639 L1527.09 244.639 
  L1526.05 244.639 L1525 244.639 L1523.96 244.639 L1522.91 244.639 L1521.87 244.639 L1520.82 244.639 L1519.78 244.639 L1518.74 244.639 L1517.69 244.639 L1516.65 244.639 
  L1515.6 244.639 L1514.56 244.639 L1513.51 244.639 L1512.47 244.639 L1511.43 244.639 L1510.38 244.639 L1509.34 244.639 L1508.29 244.639 L1507.25 244.639 L1506.2 244.639 
  L1505.16 244.639 L1504.11 244.639 L1503.07 244.639 L1502.03 244.639 L1500.98 244.639 L1499.94 244.639 L1498.89 244.639 L1497.85 244.639 L1496.8 244.639 L1495.76 244.639 
  L1494.71 244.639 L1493.67 244.639 L1492.63 244.639 L1491.58 244.639 L1490.54 244.639 L1489.49 244.639 L1488.45 244.639 L1487.4 244.639 L1486.36 244.639 L1485.31 244.639 
  L1484.27 244.639 L1483.23 244.639 L1482.18 244.639 L1481.14 244.639 L1480.09 244.639 L1479.05 244.639 L1478 244.639 L1476.96 244.639 L1475.91 244.639 L1474.87 244.639 
  L1473.83 244.639 L1472.78 244.639 L1471.74 244.639 L1470.69 244.639 L1469.65 244.639 L1468.6 244.639 L1467.56 244.639 L1466.52 244.639 L1465.47 244.639 L1464.43 244.639 
  L1463.38 244.639 L1462.34 244.639 L1461.29 244.639 L1460.25 244.639 L1459.2 244.639 L1458.16 244.639 L1457.12 244.639 L1456.07 244.639 L1455.03 244.639 L1453.98 244.639 
  L1452.94 244.639 L1451.89 244.639 L1450.85 244.639 L1449.8 244.639 L1448.76 244.639 L1447.72 244.639 L1446.67 244.639 L1445.63 244.639 L1444.58 244.639 L1443.54 244.639 
  L1442.49 244.639 L1441.45 244.639 L1440.4 244.639 L1439.36 244.639 L1438.32 244.639 L1437.27 244.639 L1436.23 244.639 L1435.18 244.639 L1434.14 244.639 L1433.09 244.639 
  L1432.05 244.639 L1431.01 244.639 L1429.96 244.639 L1428.92 244.639 L1427.87 244.639 L1426.83 244.639 L1425.78 244.639 L1424.74 244.639 L1423.69 244.639 L1422.65 244.639 
  L1421.61 244.639 L1420.56 244.639 L1419.52 244.639 L1418.47 244.639 L1417.43 244.639 L1416.38 244.639 L1415.34 244.639 L1414.29 244.639 L1413.25 244.639 L1412.21 244.639 
  L1411.16 244.639 L1410.12 244.639 L1409.07 244.639 L1408.03 244.639 L1406.98 244.639 L1405.94 244.639 L1404.89 244.639 L1403.85 244.639 L1402.81 244.639 L1401.76 244.639 
  L1400.72 244.639 L1399.67 244.639 L1398.63 244.639 L1397.58 244.639 L1396.54 244.639 L1395.5 244.639 L1394.45 244.639 L1393.41 244.639 L1392.36 244.639 L1391.32 244.639 
  L1390.27 244.639 L1389.23 244.639 L1388.18 244.639 L1387.14 244.639 L1386.1 244.639 L1385.05 244.639 L1384.01 244.639 L1382.96 244.639 L1381.92 244.639 L1380.87 244.639 
  L1379.83 244.639 L1378.78 244.639 L1377.74 244.639 L1376.7 244.639 L1375.65 244.639 L1374.61 244.639 L1373.56 244.639 L1372.52 244.639 L1371.47 244.639 L1370.43 244.639 
  L1369.38 244.639 L1368.34 244.639 L1367.3 244.639 L1366.25 244.639 L1365.21 244.639 L1364.16 244.639 L1363.12 244.639 L1362.07 244.639 L1361.03 244.639 L1359.98 244.639 
  L1358.94 244.639 L1357.9 244.639 L1356.85 244.639 L1355.81 244.639 L1354.76 244.639 L1353.72 244.639 L1352.67 244.639 L1351.63 244.639 L1350.59 244.639 L1349.54 244.639 
  L1348.5 244.639 L1347.45 244.639 L1346.41 244.639 L1345.36 244.639 L1344.32 244.639 L1343.27 244.639 L1342.23 244.639 L1341.19 244.639 L1340.14 244.639 L1339.1 244.639 
  L1338.05 244.639 L1337.01 244.639 L1335.96 244.639 L1334.92 244.639 L1333.87 244.639 L1332.83 244.639 L1331.79 244.639 L1330.74 244.639 L1329.7 244.639 L1328.65 244.639 
  L1327.61 244.639 L1326.56 244.639 L1325.52 244.639 L1324.47 244.639 L1323.43 244.639 L1322.39 244.639 L1321.34 244.639 L1320.3 244.639 L1319.25 244.639 L1318.21 244.639 
  L1317.16 244.639 L1316.12 244.639 L1315.08 244.639 L1314.03 244.639 L1312.99 244.639 L1311.94 244.639 L1310.9 244.639 L1309.85 244.639 L1308.81 244.639 L1307.76 244.639 
  L1306.72 244.639 L1305.68 244.639 L1304.63 244.639 L1303.59 244.639 L1302.54 244.639 L1301.5 244.639 L1300.45 244.639 L1299.41 244.639 L1298.36 244.639 L1297.32 244.639 
  L1296.28 244.639 L1295.23 244.639 L1294.19 244.639 L1293.14 244.639 L1292.1 244.639 L1291.05 244.639 L1290.01 244.639 L1288.96 244.639 L1287.92 244.639 L1286.88 244.639 
  L1285.83 244.639 L1284.79 244.639 L1283.74 244.639 L1282.7 244.639 L1281.65 244.639 L1280.61 244.639 L1279.56 244.639 L1278.52 244.639 L1277.48 244.639 L1276.43 244.639 
  L1275.39 244.639 L1274.34 244.639 L1273.3 244.639 L1272.25 244.639 L1271.21 244.639 L1270.17 244.639 L1269.12 244.639 L1268.08 244.639 L1267.03 244.639 L1265.99 244.639 
  L1264.94 244.639 L1263.9 244.639 L1262.85 244.639 L1261.81 244.639 L1260.77 244.639 L1259.72 244.639 L1258.68 244.639 L1257.63 244.639 L1256.59 244.639 L1255.54 244.639 
  L1254.5 244.639 L1253.45 244.639 L1252.41 244.639 L1251.37 244.639 L1250.32 244.639 L1249.28 244.639 L1248.23 244.639 L1247.19 244.639 L1246.14 244.639 L1245.1 244.639 
  L1244.05 244.639 L1243.01 244.639 L1241.97 244.639 L1240.92 244.639 L1239.88 244.639 L1238.83 244.639 L1237.79 244.639 L1236.74 244.639 L1235.7 244.639 L1234.66 244.639 
  L1233.61 244.639 L1232.57 244.639 L1231.52 244.639 L1230.48 244.639 L1229.43 244.639 L1228.39 244.639 L1227.34 244.639 L1226.3 244.639 L1225.26 244.639 L1224.21 244.639 
  L1223.17 244.639 L1222.12 244.639 L1221.08 244.639 L1220.03 244.639 L1218.99 244.639 L1217.94 244.639 L1216.9 244.639 L1215.86 244.639 L1214.81 244.639 L1213.77 244.639 
  L1212.72 244.639 L1211.68 244.639 L1210.63 244.639 L1209.59 244.639 L1208.54 244.639 L1207.5 244.639 L1206.46 244.639 L1205.41 244.639 L1204.37 244.639 L1203.32 244.639 
  L1202.28 244.639 L1201.23 244.639 L1200.19 245.48 L1199.15 246.524 L1198.1 247.569 L1197.06 248.613 L1196.01 249.658 L1194.97 250.702 L1193.92 251.746 L1192.88 252.791 
  L1191.83 253.835 L1190.79 254.88 L1189.75 255.924 L1188.7 256.968 L1187.66 258.013 L1186.61 259.057 L1185.57 260.102 L1184.52 261.146 L1183.48 262.191 L1182.43 263.235 
  L1181.39 264.279 L1180.35 265.324 L1179.3 266.368 L1178.26 267.413 L1177.21 268.457 L1176.17 269.501 L1175.12 270.546 L1174.08 271.59 L1173.03 272.635 L1171.99 273.679 
  L1170.95 274.724 L1169.9 275.768 L1168.86 276.812 L1167.81 277.857 L1166.77 278.901 L1165.72 279.946 L1164.68 280.99 L1163.63 282.034 L1162.59 283.079 L1161.55 284.123 
  L1160.5 285.168 L1159.46 286.212 L1158.41 287.257 L1157.37 288.301 L1156.32 289.345 L1155.28 290.39 L1154.24 291.434 L1153.19 292.479 L1152.15 293.523 L1151.1 294.567 
  L1150.06 295.612 L1149.01 296.656 L1147.97 297.701 L1146.92 298.745 L1145.88 299.789 L1144.84 300.834 L1143.79 301.878 L1142.75 302.923 L1141.7 303.967 L1140.66 305.012 
  L1139.61 306.056 L1138.57 307.1 L1137.52 308.145 L1136.48 309.189 L1135.44 310.234 L1134.39 311.278 L1133.35 312.322 L1132.3 313.367 L1131.26 314.411 L1130.21 315.456 
  L1129.17 316.5 L1128.12 317.545 L1127.08 318.589 L1126.04 319.633 L1124.99 320.678 L1123.95 321.722 L1122.9 322.767 L1121.86 323.811 L1120.81 324.855 L1119.77 325.9 
  L1118.73 326.944 L1117.68 327.989 L1116.64 329.033 L1115.59 330.078 L1114.55 331.122 L1113.5 332.166 L1112.46 333.211 L1111.41 334.255 L1110.37 335.3 L1109.33 336.344 
  L1108.28 337.388 L1107.24 338.433 L1106.19 339.477 L1105.15 340.522 L1104.1 341.566 L1103.06 342.611 L1102.01 343.655 L1100.97 344.699 L1099.93 345.744 L1098.88 346.788 
  L1097.84 347.833 L1096.79 348.877 L1095.75 349.921 L1094.7 350.966 L1093.66 352.01 L1092.61 353.055 L1091.57 354.099 L1090.53 355.143 L1089.48 356.188 L1088.44 357.232 
  L1087.39 358.277 L1086.35 359.321 L1085.3 360.366 L1084.26 361.41 L1083.21 362.454 L1082.17 363.499 L1081.13 364.543 L1080.08 365.588 L1079.04 366.632 L1077.99 367.676 
  L1076.95 368.721 L1075.9 369.765 L1074.86 370.81 L1073.82 371.854 L1072.77 372.899 L1071.73 373.943 L1070.68 374.987 L1069.64 376.032 L1068.59 377.076 L1067.55 378.121 
  L1066.5 379.165 L1065.46 380.209 L1064.42 381.254 L1063.37 382.298 L1062.33 383.343 L1061.28 384.387 L1060.24 385.432 L1059.19 386.476 L1058.15 387.52 L1057.1 388.565 
  L1056.06 389.609 L1055.02 390.654 L1053.97 391.698 L1052.93 392.742 L1051.88 393.787 L1050.84 394.831 L1049.79 395.876 L1048.75 396.92 L1047.7 397.964 L1046.66 399.009 
  L1045.62 400.053 L1044.57 401.098 L1043.53 402.142 L1042.48 403.187 L1041.44 404.231 L1040.39 405.275 L1039.35 406.32 L1038.31 407.364 L1037.26 408.409 L1036.22 409.453 
  L1035.17 410.497 L1034.13 411.542 L1033.08 412.586 L1032.04 413.631 L1030.99 414.675 L1029.95 415.72 L1028.91 416.764 L1027.86 417.808 L1026.82 418.853 L1025.77 419.897 
  L1024.73 420.942 L1023.68 421.986 L1022.64 423.03 L1021.59 424.075 L1020.55 425.119 L1019.51 426.164 L1018.46 427.208 L1017.42 428.253 L1016.37 429.297 L1015.33 430.341 
  L1014.28 431.386 L1013.24 432.43 L1012.19 433.475 L1011.15 434.519 L1010.11 435.563 L1009.06 436.608 L1008.02 437.652 L1006.97 438.697 L1005.93 439.741 L1004.88 440.786 
  L1003.84 441.83 L1002.8 442.874 L1001.75 443.919 L1000.71 444.963 L999.662 446.008 L998.617 447.052 L997.573 448.096 L996.529 449.141 L995.484 450.185 L994.44 451.23 
  L993.395 452.274 L992.351 453.318 L991.306 454.363 L990.262 455.407 L989.218 456.452 L988.173 457.496 L987.129 458.541 L986.084 459.585 L985.04 460.629 L983.996 461.674 
  L982.951 462.718 L981.907 463.763 L980.862 464.807 L979.818 465.851 L978.773 466.896 L977.729 467.94 L976.685 468.985 L975.64 470.029 L974.596 471.074 L973.551 472.118 
  L972.507 473.162 L971.463 474.207 L970.418 475.251 L969.374 476.296 L968.329 477.34 L967.285 478.384 L966.241 479.429 L965.196 480.473 L964.152 481.518 L963.107 482.562 
  L962.063 483.607 L961.018 484.651 L959.974 485.695 L958.93 486.74 L957.885 487.784 L956.841 488.829 L955.796 489.873 L954.752 490.917 L953.708 491.962 L952.663 493.006 
  L951.619 494.051 L950.574 495.095 L949.53 496.14 L948.485 497.184 L947.441 498.228 L946.397 499.273 L945.352 500.317 L944.308 501.362 L943.263 502.406 L942.219 503.45 
  L941.175 504.495 L940.13 505.539 L939.086 506.584 L938.041 507.628 L936.997 508.672 L935.952 509.717 L934.908 510.761 L933.864 511.806 L932.819 512.85 L931.775 513.895 
  L930.73 514.939 L929.686 515.983 L928.642 517.028 L927.597 518.072 L926.553 519.117 L925.508 520.161 L924.464 521.205 L923.419 522.25 L922.375 523.294 L921.331 524.339 
  L920.286 525.383 L919.242 526.428 L918.197 527.472 L917.153 528.516 L916.109 529.561 L915.064 530.605 L914.02 531.65 L912.975 532.694 L911.931 533.738 L910.887 534.783 
  L909.842 535.827 L908.798 536.872 L907.753 537.916 L906.709 538.961 L905.664 540.005 L904.62 541.049 L903.576 542.094 L902.531 543.138 L901.487 544.183 L900.442 545.227 
  L899.398 546.271 L898.354 547.316 L897.309 548.36 L896.265 549.405 L895.22 550.449 L894.176 551.493 L893.131 552.538 L892.087 553.582 L891.043 554.627 L889.998 555.671 
  L888.954 556.716 L887.909 557.76 L886.865 558.804 L885.821 559.849 L884.776 560.893 L883.732 561.938 L882.687 562.982 L881.643 564.026 L880.598 565.071 L879.554 566.115 
  L878.51 567.16 L877.465 568.204 L876.421 569.249 L875.376 570.293 L874.332 571.337 L873.288 572.382 L872.243 573.426 L871.199 574.471 L870.154 575.515 L869.11 576.559 
  L868.065 577.604 L867.021 578.648 L865.977 579.693 L864.932 580.737 L863.888 581.782 L862.843 582.826 L861.799 583.87 L860.755 584.915 L859.71 585.959 L858.666 587.004 
  L857.621 588.048 L856.577 589.092 L855.533 590.137 L854.488 591.181 L853.444 592.226 L852.399 593.27 L851.355 594.315 L850.31 595.359 L849.266 596.403 L848.222 597.448 
  L847.177 598.492 L846.133 599.537 L845.088 600.581 L844.044 601.625 L843 602.67 L841.955 603.714 L840.911 604.759 L839.866 605.803 L838.822 606.847 L837.777 607.892 
  L836.733 608.936 L835.689 609.981 L834.644 611.025 L833.6 612.07 L832.555 613.114 L831.511 614.158 L830.467 615.203 L829.422 616.247 L828.378 617.292 L827.333 618.336 
  L826.289 619.38 L825.244 620.425 L824.2 621.469 L823.156 622.514 L822.111 623.558 L821.067 624.603 L820.022 625.647 L818.978 626.691 L817.934 627.736 L816.889 628.78 
  L815.845 629.825 L814.8 630.869 L813.756 631.913 L812.712 632.958 L811.667 634.002 L810.623 635.047 L809.578 636.091 L808.534 637.136 L807.489 638.18 L806.445 639.224 
  L805.401 640.269 L804.356 641.313 L803.312 642.358 L802.267 643.402 L801.223 644.446 L800.179 645.491 L799.134 646.535 L798.09 647.58 L797.045 648.624 L796.001 649.668 
  L794.956 650.713 L793.912 651.757 L792.868 652.802 L791.823 653.846 L790.779 654.891 L789.734 655.935 L788.69 656.979 L787.646 658.024 L786.601 659.068 L785.557 660.113 
  L784.512 661.157 L783.468 662.201 L782.423 663.246 L781.379 664.29 L780.335 665.335 L779.29 666.379 L778.246 667.424 L777.201 668.468 L776.157 669.512 L775.113 670.557 
  L774.068 671.601 L773.024 672.646 L771.979 673.69 L770.935 674.734 L769.89 675.779 L768.846 676.823 L767.802 677.868 L766.757 678.912 L765.713 679.957 L764.668 681.001 
  L763.624 682.045 L762.58 683.09 L761.535 684.134 L760.491 685.179 L759.446 686.223 L758.402 687.267 L757.358 688.312 L756.313 689.356 L755.269 690.401 L754.224 691.445 
  L753.18 692.49 L752.135 693.534 L751.091 694.578 L750.047 695.623 L749.002 696.667 L747.958 697.712 L746.913 698.756 L745.869 699.8 L744.825 700.845 L743.78 701.889 
  L742.736 702.934 L741.691 703.978 L740.647 705.022 L739.602 706.067 L738.558 707.111 L737.514 708.156 L736.469 709.2 L735.425 710.245 L734.38 711.289 L733.336 712.333 
  L732.292 713.378 L731.247 714.422 L730.203 715.467 L729.158 716.511 L728.114 717.555 L727.069 718.6 L726.025 719.644 L724.981 720.689 L723.936 721.733 L722.892 722.778 
  L721.847 723.822 L720.803 724.866 L719.759 725.911 L718.714 726.955 L717.67 728 L716.625 729.044 L715.581 730.088 L714.537 731.133 L713.492 732.177 L712.448 733.222 
  L711.403 734.266 L710.359 735.311 L709.314 736.355 L708.27 737.399 L707.226 738.444 L706.181 739.488 L705.137 740.533 L704.092 741.577 L703.048 742.621 L702.004 743.666 
  L700.959 744.71 L699.915 745.755 L698.87 746.799 L697.826 747.844 L696.781 748.888 L695.737 749.932 L694.693 750.977 L693.648 752.021 L692.604 753.066 L691.559 754.11 
  L690.515 755.154 L689.471 756.199 L688.426 757.243 L687.382 758.288 L686.337 759.332 L685.293 760.376 L684.248 761.421 L683.204 762.465 L682.16 763.51 L681.115 764.554 
  L680.071 765.599 L679.026 766.643 L677.982 767.687 L676.938 768.732 L675.893 769.776 L674.849 770.821 L673.804 771.865 L672.76 772.909 L671.715 773.954 L670.671 774.998 
  L669.627 776.043 L668.582 777.087 L667.538 778.132 L666.493 779.176 L665.449 780.22 L664.405 781.265 L663.36 782.309 L662.316 783.354 L661.271 784.398 L660.227 785.442 
  L659.183 786.487 L658.138 787.531 L657.094 788.576 L656.049 789.62 L655.005 790.665 L653.96 791.709 L652.916 792.753 L651.872 793.798 L650.827 794.842 L649.783 795.887 
  L648.738 796.931 L647.694 797.975 L646.65 799.02 L645.605 800.064 L644.561 801.109 L643.516 802.153 L642.472 803.197 L641.427 804.242 L640.383 805.286 L639.339 806.331 
  L638.294 807.375 L637.25 808.42 L636.205 809.464 L635.161 810.508 L634.117 811.553 L633.072 812.597 L632.028 813.642 L630.983 814.686 L629.939 815.73 L628.894 816.775 
  L627.85 817.819 L626.806 818.864 L625.761 819.908 L624.717 820.953 L623.672 821.997 L622.628 823.041 L621.584 824.086 L620.539 825.13 L619.495 826.175 L618.45 827.219 
  L617.406 828.263 L616.361 829.308 L615.317 830.352 L614.273 831.397 L613.228 832.441 L612.184 833.486 L611.139 834.53 L610.095 835.574 L609.051 836.619 L608.006 837.663 
  L606.962 838.708 L605.917 839.752 L604.873 840.796 L603.829 841.841 L602.784 842.885 L601.74 843.93 L600.695 844.974 L599.651 846.019 L598.606 847.063 L597.562 848.107 
  L596.518 849.152 L595.473 850.196 L594.429 851.241 L593.384 852.285 L592.34 853.329 L591.296 854.374 L590.251 855.418 L589.207 856.463 L588.162 857.507 L587.118 858.551 
  L586.073 859.596 L585.029 860.64 L583.985 861.685 L582.94 862.729 L581.896 863.774 L580.851 864.818 L579.807 865.862 L578.763 866.907 L577.718 867.951 L576.674 868.996 
  L575.629 870.04 L574.585 871.084 L573.54 872.129 L572.496 873.173 L571.452 874.218 L570.407 875.262 L569.363 876.307 L568.318 877.351 L567.274 878.395 L566.23 879.44 
  L565.185 880.484 L564.141 881.529 L563.096 882.573 L562.052 883.617 L561.008 884.662 L559.963 885.706 L558.919 886.751 L557.874 887.795 L556.83 888.84 L555.785 889.884 
  L554.741 890.928 L553.697 891.973 L552.652 893.017 L551.608 894.062 L550.563 895.106 L549.519 896.15 L548.475 897.195 L547.43 898.239 L546.386 899.284 L545.341 900.328 
  L544.297 901.372 L543.252 902.417 L542.208 903.461 L541.164 904.506 L540.119 905.55 L539.075 906.595 L538.03 907.639 L536.986 908.683 L535.942 909.728 L534.897 910.772 
  L533.853 911.817 L532.808 912.861 L531.764 913.905 L530.719 914.95 L529.675 915.994 L528.631 917.039 L527.586 918.083 L526.542 919.128 L525.497 920.172 L524.453 921.216 
  L523.409 922.261 L522.364 923.305 L521.32 924.35 L520.275 925.394 L519.231 926.438 L518.186 927.483 L517.142 928.527 L516.098 929.572 L515.053 930.616 L514.009 931.661 
  L512.964 932.705 L511.92 933.749 L510.876 934.794 L509.831 935.838 L508.787 936.883 L507.742 937.927 L506.698 938.971 L505.654 940.016 L504.609 941.06 L503.565 942.105 
  L502.52 943.149 L501.476 944.194 L500.431 945.238 L499.387 946.282 L498.343 947.327 L497.298 948.371 L496.254 949.416 L495.209 950.46 L494.165 951.504 L493.121 952.549 
  L492.076 953.593 L491.032 954.638  Z
  " fill="#3da44d" fill-rule="evenodd" fill-opacity="0.3"/>
<polyline clip-path="url(#clip812)" style="stroke:#3da44d; stroke-linecap:butt; stroke-linejoin:round; stroke-width:4; stroke-opacity:1; fill:none" points="
  491.032,1289.05 492.076,1289.05 493.121,1289.05 494.165,1289.05 495.209,1289.05 496.254,1289.05 497.298,1289.05 498.343,1289.05 499.387,1289.05 500.431,1289.05 
  501.476,1289.05 502.52,1289.05 503.565,1289.05 504.609,1289.05 505.654,1289.05 506.698,1289.05 507.742,1289.05 508.787,1289.05 509.831,1289.05 510.876,1289.05 
  511.92,1289.05 512.964,1289.05 514.009,1289.05 515.053,1289.05 516.098,1289.05 517.142,1289.05 518.186,1289.05 519.231,1289.05 520.275,1289.05 521.32,1289.05 
  522.364,1289.05 523.409,1289.05 524.453,1289.05 525.497,1289.05 526.542,1289.05 527.586,1289.05 528.631,1289.05 529.675,1289.05 530.719,1289.05 531.764,1289.05 
  532.808,1289.05 533.853,1289.05 534.897,1289.05 535.942,1289.05 536.986,1289.05 538.03,1289.05 539.075,1289.05 540.119,1289.05 541.164,1289.05 542.208,1289.05 
  543.252,1289.05 544.297,1289.05 545.341,1289.05 546.386,1289.05 547.43,1289.05 548.475,1289.05 549.519,1289.05 550.563,1289.05 551.608,1289.05 552.652,1289.05 
  553.697,1289.05 554.741,1289.05 555.785,1289.05 556.83,1289.05 557.874,1289.05 558.919,1289.05 559.963,1289.05 561.008,1289.05 562.052,1289.05 563.096,1289.05 
  564.141,1289.05 565.185,1289.05 566.23,1289.05 567.274,1289.05 568.318,1289.05 569.363,1289.05 570.407,1289.05 571.452,1289.05 572.496,1289.05 573.54,1289.05 
  574.585,1289.05 575.629,1289.05 576.674,1289.05 577.718,1289.05 578.763,1289.05 579.807,1289.05 580.851,1289.05 581.896,1289.05 582.94,1289.05 583.985,1289.05 
  585.029,1289.05 586.073,1289.05 587.118,1289.05 588.162,1289.05 589.207,1289.05 590.251,1289.05 591.296,1289.05 592.34,1289.05 593.384,1289.05 594.429,1289.05 
  595.473,1289.05 596.518,1289.05 597.562,1289.05 598.606,1289.05 599.651,1289.05 600.695,1289.05 601.74,1289.05 602.784,1289.05 603.829,1289.05 604.873,1289.05 
  605.917,1289.05 606.962,1289.05 608.006,1289.05 609.051,1289.05 610.095,1289.05 611.139,1289.05 612.184,1289.05 613.228,1289.05 614.273,1289.05 615.317,1289.05 
  616.361,1289.05 617.406,1289.05 618.45,1289.05 619.495,1289.05 620.539,1289.05 621.584,1289.05 622.628,1289.05 623.672,1289.05 624.717,1289.05 625.761,1289.05 
  626.806,1289.05 627.85,1289.05 628.894,1289.05 629.939,1289.05 630.983,1289.05 632.028,1289.05 633.072,1289.05 634.117,1289.05 635.161,1289.05 636.205,1289.05 
  637.25,1289.05 638.294,1289.05 639.339,1289.05 640.383,1289.05 641.427,1289.05 642.472,1289.05 643.516,1289.05 644.561,1289.05 645.605,1289.05 646.65,1289.05 
  647.694,1289.05 648.738,1289.05 649.783,1289.05 650.827,1289.05 651.872,1289.05 652.916,1289.05 653.96,1289.05 655.005,1289.05 656.049,1289.05 657.094,1289.05 
  658.138,1289.05 659.183,1289.05 660.227,1289.05 661.271,1289.05 662.316,1289.05 663.36,1289.05 664.405,1289.05 665.449,1289.05 666.493,1289.05 667.538,1289.05 
  668.582,1289.05 669.627,1289.05 670.671,1289.05 671.715,1289.05 672.76,1289.05 673.804,1289.05 674.849,1289.05 675.893,1289.05 676.938,1289.05 677.982,1289.05 
  679.026,1289.05 680.071,1289.05 681.115,1289.05 682.16,1289.05 683.204,1289.05 684.248,1289.05 685.293,1289.05 686.337,1289.05 687.382,1289.05 688.426,1289.05 
  689.471,1289.05 690.515,1289.05 691.559,1289.05 692.604,1289.05 693.648,1289.05 694.693,1289.05 695.737,1289.05 696.781,1289.05 697.826,1289.05 698.87,1289.05 
  699.915,1289.05 700.959,1289.05 702.004,1289.05 703.048,1289.05 704.092,1289.05 705.137,1289.05 706.181,1289.05 707.226,1289.05 708.27,1289.05 709.314,1289.05 
  710.359,1289.05 711.403,1289.05 712.448,1289.05 713.492,1289.05 714.537,1289.05 715.581,1289.05 716.625,1289.05 717.67,1289.05 718.714,1289.05 719.759,1289.05 
  720.803,1289.05 721.847,1289.05 722.892,1289.05 723.936,1289.05 724.981,1289.05 726.025,1289.05 727.069,1289.05 728.114,1289.05 729.158,1289.05 730.203,1289.05 
  731.247,1289.05 732.292,1289.05 733.336,1289.05 734.38,1289.05 735.425,1289.05 736.469,1289.05 737.514,1289.05 738.558,1289.05 739.602,1289.05 740.647,1289.05 
  741.691,1289.05 742.736,1289.05 743.78,1289.05 744.825,1289.05 745.869,1289.05 746.913,1289.05 747.958,1289.05 749.002,1289.05 750.047,1289.05 751.091,1289.05 
  752.135,1289.05 753.18,1289.05 754.224,1289.05 755.269,1289.05 756.313,1289.05 757.358,1289.05 758.402,1289.05 759.446,1289.05 760.491,1289.05 761.535,1289.05 
  762.58,1289.05 763.624,1289.05 764.668,1289.05 765.713,1289.05 766.757,1289.05 767.802,1289.05 768.846,1289.05 769.89,1289.05 770.935,1289.05 771.979,1289.05 
  773.024,1289.05 774.068,1289.05 775.113,1289.05 776.157,1289.05 777.201,1289.05 778.246,1289.05 779.29,1289.05 780.335,1289.05 781.379,1289.05 782.423,1289.05 
  783.468,1289.05 784.512,1289.05 785.557,1289.05 786.601,1289.05 787.646,1289.05 788.69,1289.05 789.734,1289.05 790.779,1289.05 791.823,1289.05 792.868,1289.05 
  793.912,1289.05 794.956,1289.05 796.001,1289.05 797.045,1289.05 798.09,1289.05 799.134,1289.05 800.179,1289.05 801.223,1289.05 802.267,1289.05 803.312,1289.05 
  804.356,1289.05 805.401,1289.05 806.445,1289.05 807.489,1289.05 808.534,1289.05 809.578,1289.05 810.623,1289.05 811.667,1289.05 812.712,1289.05 813.756,1289.05 
  814.8,1289.05 815.845,1289.05 816.889,1289.05 817.934,1289.05 818.978,1289.05 820.022,1289.05 821.067,1289.05 822.111,1289.05 823.156,1289.05 824.2,1289.05 
  825.244,1289.05 826.289,1288.21 827.333,1287.17 828.378,1286.12 829.422,1285.08 830.467,1284.03 831.511,1282.99 832.555,1281.95 833.6,1280.9 834.644,1279.86 
  835.689,1278.81 836.733,1277.77 837.777,1276.72 838.822,1275.68 839.866,1274.63 840.911,1273.59 841.955,1272.55 843,1271.5 844.044,1270.46 845.088,1269.41 
  846.133,1268.37 847.177,1267.32 848.222,1266.28 849.266,1265.23 850.31,1264.19 851.355,1263.15 852.399,1262.1 853.444,1261.06 854.488,1260.01 855.533,1258.97 
  856.577,1257.92 857.621,1256.88 858.666,1255.84 859.71,1254.79 860.755,1253.75 861.799,1252.7 862.843,1251.66 863.888,1250.61 864.932,1249.57 865.977,1248.52 
  867.021,1247.48 868.065,1246.44 869.11,1245.39 870.154,1244.35 871.199,1243.3 872.243,1242.26 873.288,1241.21 874.332,1240.17 875.376,1239.12 876.421,1238.08 
  877.465,1237.04 878.51,1235.99 879.554,1234.95 880.598,1233.9 881.643,1232.86 882.687,1231.81 883.732,1230.77 884.776,1229.72 885.821,1228.68 886.865,1227.64 
  887.909,1226.59 888.954,1225.55 889.998,1224.5 891.043,1223.46 892.087,1222.41 893.131,1221.37 894.176,1220.33 895.22,1219.28 896.265,1218.24 897.309,1217.19 
  898.354,1216.15 899.398,1215.1 900.442,1214.06 901.487,1213.01 902.531,1211.97 903.576,1210.93 904.62,1209.88 905.664,1208.84 906.709,1207.79 907.753,1206.75 
  908.798,1205.7 909.842,1204.66 910.887,1203.61 911.931,1202.57 912.975,1201.53 914.02,1200.48 915.064,1199.44 916.109,1198.39 917.153,1197.35 918.197,1196.3 
  919.242,1195.26 920.286,1194.21 921.331,1193.17 922.375,1192.13 923.419,1191.08 924.464,1190.04 925.508,1188.99 926.553,1187.95 927.597,1186.9 928.642,1185.86 
  929.686,1184.81 930.73,1183.77 931.775,1182.73 932.819,1181.68 933.864,1180.64 934.908,1179.59 935.952,1178.55 936.997,1177.5 938.041,1176.46 939.086,1175.42 
  940.13,1174.37 941.175,1173.33 942.219,1172.28 943.263,1171.24 944.308,1170.19 945.352,1169.15 946.397,1168.1 947.441,1167.06 948.485,1166.02 949.53,1164.97 
  950.574,1163.93 951.619,1162.88 952.663,1161.84 953.708,1160.79 954.752,1159.75 955.796,1158.7 956.841,1157.66 957.885,1156.62 958.93,1155.57 959.974,1154.53 
  961.018,1153.48 962.063,1152.44 963.107,1151.39 964.152,1150.35 965.196,1149.3 966.241,1148.26 967.285,1147.22 968.329,1146.17 969.374,1145.13 970.418,1144.08 
  971.463,1143.04 972.507,1141.99 973.551,1140.95 974.596,1139.91 975.64,1138.86 976.685,1137.82 977.729,1136.77 978.773,1135.73 979.818,1134.68 980.862,1133.64 
  981.907,1132.59 982.951,1131.55 983.996,1130.51 985.04,1129.46 986.084,1128.42 987.129,1127.37 988.173,1126.33 989.218,1125.28 990.262,1124.24 991.306,1123.19 
  992.351,1122.15 993.395,1121.11 994.44,1120.06 995.484,1119.02 996.529,1117.97 997.573,1116.93 998.617,1115.88 999.662,1114.84 1000.71,1113.79 1001.75,1112.75 
  1002.8,1111.71 1003.84,1110.66 1004.88,1109.62 1005.93,1108.57 1006.97,1107.53 1008.02,1106.48 1009.06,1105.44 1010.11,1104.4 1011.15,1103.35 1012.19,1102.31 
  1013.24,1101.26 1014.28,1100.22 1015.33,1099.17 1016.37,1098.13 1017.42,1097.08 1018.46,1096.04 1019.51,1095 1020.55,1093.95 1021.59,1092.91 1022.64,1091.86 
  1023.68,1090.82 1024.73,1089.77 1025.77,1088.73 1026.82,1087.68 1027.86,1086.64 1028.91,1085.6 1029.95,1084.55 1030.99,1083.51 1032.04,1082.46 1033.08,1081.42 
  1034.13,1080.37 1035.17,1079.33 1036.22,1078.28 1037.26,1077.24 1038.31,1076.2 1039.35,1075.15 1040.39,1074.11 1041.44,1073.06 1042.48,1072.02 1043.53,1070.97 
  1044.57,1069.93 1045.62,1068.88 1046.66,1067.84 1047.7,1066.8 1048.75,1065.75 1049.79,1064.71 1050.84,1063.66 1051.88,1062.62 1052.93,1061.57 1053.97,1060.53 
  1055.02,1059.49 1056.06,1058.44 1057.1,1057.4 1058.15,1056.35 1059.19,1055.31 1060.24,1054.26 1061.28,1053.22 1062.33,1052.17 1063.37,1051.13 1064.42,1050.09 
  1065.46,1049.04 1066.5,1048 1067.55,1046.95 1068.59,1045.91 1069.64,1044.86 1070.68,1043.82 1071.73,1042.77 1072.77,1041.73 1073.82,1040.69 1074.86,1039.64 
  1075.9,1038.6 1076.95,1037.55 1077.99,1036.51 1079.04,1035.46 1080.08,1034.42 1081.13,1033.37 1082.17,1032.33 1083.21,1031.29 1084.26,1030.24 1085.3,1029.2 
  1086.35,1028.15 1087.39,1027.11 1088.44,1026.06 1089.48,1025.02 1090.53,1023.98 1091.57,1022.93 1092.61,1021.89 1093.66,1020.84 1094.7,1019.8 1095.75,1018.75 
  1096.79,1017.71 1097.84,1016.66 1098.88,1015.62 1099.93,1014.58 1100.97,1013.53 1102.01,1012.49 1103.06,1011.44 1104.1,1010.4 1105.15,1009.35 1106.19,1008.31 
  1107.24,1007.26 1108.28,1006.22 1109.33,1005.18 1110.37,1004.13 1111.41,1003.09 1112.46,1002.04 1113.5,1001 1114.55,999.954 1115.59,998.909 1116.64,997.865 
  1117.68,996.82 1118.73,995.776 1119.77,994.731 1120.81,993.687 1121.86,992.643 1122.9,991.598 1123.95,990.554 1124.99,989.509 1126.04,988.465 1127.08,987.421 
  1128.12,986.376 1129.17,985.332 1130.21,984.287 1131.26,983.243 1132.3,982.198 1133.35,981.154 1134.39,980.11 1135.44,979.065 1136.48,978.021 1137.52,976.976 
  1138.57,975.932 1139.61,974.888 1140.66,973.843 1141.7,972.799 1142.75,971.754 1143.79,970.71 1144.84,969.665 1145.88,968.621 1146.92,967.577 1147.97,966.532 
  1149.01,965.488 1150.06,964.443 1151.1,963.399 1152.15,962.355 1153.19,961.31 1154.24,960.266 1155.28,959.221 1156.32,958.177 1157.37,957.133 1158.41,956.088 
  1159.46,955.044 1160.5,953.999 1161.55,952.955 1162.59,951.91 1163.63,950.866 1164.68,949.822 1165.72,948.777 1166.77,947.733 1167.81,946.688 1168.86,945.644 
  1169.9,944.6 1170.95,943.555 1171.99,942.511 1173.03,941.466 1174.08,940.422 1175.12,939.377 1176.17,938.333 1177.21,937.289 1178.26,936.244 1179.3,935.2 
  1180.35,934.155 1181.39,933.111 1182.43,932.067 1183.48,931.022 1184.52,929.978 1185.57,928.933 1186.61,927.889 1187.66,926.844 1188.7,925.8 1189.75,924.756 
  1190.79,923.711 1191.83,922.667 1192.88,921.622 1193.92,920.578 1194.97,919.534 1196.01,918.489 1197.06,917.445 1198.1,916.4 1199.15,915.356 1200.19,914.312 
  1201.23,913.267 1202.28,912.223 1203.32,911.178 1204.37,910.134 1205.41,909.089 1206.46,908.045 1207.5,907.001 1208.54,905.956 1209.59,904.912 1210.63,903.867 
  1211.68,902.823 1212.72,901.779 1213.77,900.734 1214.81,899.69 1215.86,898.645 1216.9,897.601 1217.94,896.556 1218.99,895.512 1220.03,894.468 1221.08,893.423 
  1222.12,892.379 1223.17,891.334 1224.21,890.29 1225.26,889.246 1226.3,888.201 1227.34,887.157 1228.39,886.112 1229.43,885.068 1230.48,884.023 1231.52,882.979 
  1232.57,881.935 1233.61,880.89 1234.66,879.846 1235.7,878.801 1236.74,877.757 1237.79,876.713 1238.83,875.668 1239.88,874.624 1240.92,873.579 1241.97,872.535 
  1243.01,871.49 1244.05,870.446 1245.1,869.402 1246.14,868.357 1247.19,867.313 1248.23,866.268 1249.28,865.224 1250.32,864.18 1251.37,863.135 1252.41,862.091 
  1253.45,861.046 1254.5,860.002 1255.54,858.958 1256.59,857.913 1257.63,856.869 1258.68,855.824 1259.72,854.78 1260.77,853.735 1261.81,852.691 1262.85,851.647 
  1263.9,850.602 1264.94,849.558 1265.99,848.513 1267.03,847.469 1268.08,846.425 1269.12,845.38 1270.17,844.336 1271.21,843.291 1272.25,842.247 1273.3,841.202 
  1274.34,840.158 1275.39,839.114 1276.43,838.069 1277.48,837.025 1278.52,835.98 1279.56,834.936 1280.61,833.892 1281.65,832.847 1282.7,831.803 1283.74,830.758 
  1284.79,829.714 1285.83,828.669 1286.88,827.625 1287.92,826.581 1288.96,825.536 1290.01,824.492 1291.05,823.447 1292.1,822.403 1293.14,821.359 1294.19,820.314 
  1295.23,819.27 1296.28,818.225 1297.32,817.181 1298.36,816.136 1299.41,815.092 1300.45,814.048 1301.5,813.003 1302.54,811.959 1303.59,810.914 1304.63,809.87 
  1305.68,808.826 1306.72,807.781 1307.76,806.737 1308.81,805.692 1309.85,804.648 1310.9,803.604 1311.94,802.559 1312.99,801.515 1314.03,800.47 1315.08,799.426 
  1316.12,798.381 1317.16,797.337 1318.21,796.293 1319.25,795.248 1320.3,794.204 1321.34,793.159 1322.39,792.115 1323.43,791.071 1324.47,790.026 1325.52,788.982 
  1326.56,787.937 1327.61,786.893 1328.65,785.848 1329.7,784.804 1330.74,783.76 1331.79,782.715 1332.83,781.671 1333.87,780.626 1334.92,779.582 1335.96,778.538 
  1337.01,777.493 1338.05,776.449 1339.1,775.404 1340.14,774.36 1341.19,773.315 1342.23,772.271 1343.27,771.227 1344.32,770.182 1345.36,769.138 1346.41,768.093 
  1347.45,767.049 1348.5,766.005 1349.54,764.96 1350.59,763.916 1351.63,762.871 1352.67,761.827 1353.72,760.783 1354.76,759.738 1355.81,758.694 1356.85,757.649 
  1357.9,756.605 1358.94,755.56 1359.98,754.516 1361.03,753.472 1362.07,752.427 1363.12,751.383 1364.16,750.338 1365.21,749.294 1366.25,748.25 1367.3,747.205 
  1368.34,746.161 1369.38,745.116 1370.43,744.072 1371.47,743.027 1372.52,741.983 1373.56,740.939 1374.61,739.894 1375.65,738.85 1376.7,737.805 1377.74,736.761 
  1378.78,735.717 1379.83,734.672 1380.87,733.628 1381.92,732.583 1382.96,731.539 1384.01,730.494 1385.05,729.45 1386.1,728.406 1387.14,727.361 1388.18,726.317 
  1389.23,725.272 1390.27,724.228 1391.32,723.184 1392.36,722.139 1393.41,721.095 1394.45,720.05 1395.5,719.006 1396.54,717.961 1397.58,716.917 1398.63,715.873 
  1399.67,714.828 1400.72,713.784 1401.76,712.739 1402.81,711.695 1403.85,710.651 1404.89,709.606 1405.94,708.562 1406.98,707.517 1408.03,706.473 1409.07,705.429 
  1410.12,704.384 1411.16,703.34 1412.21,702.295 1413.25,701.251 1414.29,700.206 1415.34,699.162 1416.38,698.118 1417.43,697.073 1418.47,696.029 1419.52,694.984 
  1420.56,693.94 1421.61,692.896 1422.65,691.851 1423.69,690.807 1424.74,689.762 1425.78,688.718 1426.83,687.673 1427.87,686.629 1428.92,685.585 1429.96,684.54 
  1431.01,683.496 1432.05,682.451 1433.09,681.407 1434.14,680.363 1435.18,679.318 1436.23,678.274 1437.27,677.229 1438.32,676.185 1439.36,675.14 1440.4,674.096 
  1441.45,673.052 1442.49,672.007 1443.54,670.963 1444.58,669.918 1445.63,668.874 1446.67,667.83 1447.72,666.785 1448.76,665.741 1449.8,664.696 1450.85,663.652 
  1451.89,662.608 1452.94,661.563 1453.98,660.519 1455.03,659.474 1456.07,658.43 1457.12,657.385 1458.16,656.341 1459.2,655.297 1460.25,654.252 1461.29,653.208 
  1462.34,652.163 1463.38,651.119 1464.43,650.075 1465.47,649.03 1466.52,647.986 1467.56,646.941 1468.6,645.897 1469.65,644.852 1470.69,643.808 1471.74,642.764 
  1472.78,641.719 1473.83,640.675 1474.87,639.63 1475.91,638.586 1476.96,637.542 1478,636.497 1479.05,635.453 1480.09,634.408 1481.14,633.364 1482.18,632.319 
  1483.23,631.275 1484.27,630.231 1485.31,629.186 1486.36,628.142 1487.4,627.097 1488.45,626.053 1489.49,625.009 1490.54,623.964 1491.58,622.92 1492.63,621.875 
  1493.67,620.831 1494.71,619.786 1495.76,618.742 1496.8,617.698 1497.85,616.653 1498.89,615.609 1499.94,614.564 1500.98,613.52 1502.03,612.476 1503.07,611.431 
  1504.11,610.387 1505.16,609.342 1506.2,608.298 1507.25,607.254 1508.29,606.209 1509.34,605.165 1510.38,604.12 1511.43,603.076 1512.47,602.031 1513.51,600.987 
  1514.56,599.943 1515.6,598.898 1516.65,597.854 1517.69,596.809 1518.74,595.765 1519.78,594.721 1520.82,593.676 1521.87,592.632 1522.91,591.587 1523.96,590.543 
  1525,589.498 1526.05,588.454 1527.09,587.41 1528.14,586.365 1529.18,585.321 1530.22,584.276 1531.27,583.232 1532.31,582.188 1533.36,581.143 1534.4,580.099 
  1535.45,579.054 
  "/>
<polyline clip-path="url(#clip812)" style="stroke:#000000; stroke-linecap:butt; stroke-linejoin:round; stroke-width:4; stroke-opacity:1; fill:none" stroke-dasharray="16, 10" points="
  491.032,1289.05 491.032,244.639 1535.45,244.639 1535.45,1289.05 491.032,1289.05 
  "/>
<path clip-path="url(#clip810)" d="
M1805.06 250.738 L2245.39 250.738 L2245.39 95.2176 L1805.06 95.2176  Z
  " fill="#ffffff" fill-rule="evenodd" fill-opacity="1"/>
<polyline clip-path="url(#clip810)" style="stroke:#000000; stroke-linecap:butt; stroke-linejoin:round; stroke-width:4; stroke-opacity:1; fill:none" points="
  1805.06,250.738 2245.39,250.738 2245.39,95.2176 1805.06,95.2176 1805.06,250.738 
  "/>
<polyline clip-path="url(#clip810)" style="stroke:#009af9; stroke-linecap:butt; stroke-linejoin:round; stroke-width:4; stroke-opacity:1; fill:none" points="
  1829.13,147.058 1973.56,147.058 
  "/>
<path clip-path="url(#clip810)" d="M2021.52 141.559 Q2021.52 142.871 2020.7 143.62 Q2019.88 144.347 2018.95 144.347 Q2018.06 144.347 2017.59 143.831 Q2017.12 143.316 2017.12 142.66 Q2017.12 141.77 2017.78 140.997 Q2018.43 140.224 2019.42 140.06 Q2018.46 139.451 2017.03 139.451 Q2016.09 139.451 2015.27 139.943 Q2014.47 140.435 2013.98 141.067 Q2013.51 141.7 2013.09 142.613 Q2012.69 143.503 2012.53 144.042 Q2012.39 144.557 2012.27 145.119 L2010.63 151.678 Q2009.84 154.793 2009.84 155.894 Q2009.84 157.252 2010.49 158.166 Q2011.15 159.056 2012.46 159.056 Q2012.97 159.056 2013.56 158.915 Q2014.15 158.751 2014.9 158.33 Q2015.67 157.885 2016.35 157.229 Q2017.05 156.55 2017.73 155.402 Q2018.41 154.254 2018.85 152.779 Q2018.99 152.263 2019.46 152.263 Q2020.05 152.263 2020.05 152.732 Q2020.05 153.13 2019.72 153.973 Q2019.42 154.793 2018.74 155.87 Q2018.08 156.924 2017.21 157.885 Q2016.35 158.822 2015.06 159.477 Q2013.77 160.133 2012.37 160.133 Q2010.35 160.133 2009.02 159.056 Q2007.68 157.978 2007.19 156.479 Q2007.07 156.69 2006.91 156.971 Q2006.74 157.252 2006.25 157.885 Q2005.78 158.494 2005.25 158.962 Q2004.71 159.407 2003.86 159.759 Q2003.04 160.133 2002.15 160.133 Q2001.03 160.133 2000.02 159.805 Q1999.04 159.477 1998.34 158.728 Q1997.63 157.978 1997.63 156.948 Q1997.63 155.8 1998.41 155.004 Q1999.2 154.184 2000.28 154.184 Q2000.96 154.184 2001.5 154.582 Q2002.06 154.98 2002.06 155.847 Q2002.06 156.807 2001.4 157.533 Q2000.75 158.259 1999.81 158.447 Q2000.77 159.056 2002.2 159.056 Q2003.75 159.056 2004.96 157.697 Q2006.18 156.339 2006.77 154.067 Q2008.22 148.609 2008.78 146.173 Q2009.34 143.714 2009.34 142.66 Q2009.34 141.676 2009.09 140.997 Q2008.83 140.318 2008.38 140.013 Q2007.96 139.685 2007.56 139.568 Q2007.19 139.451 2006.77 139.451 Q2006.07 139.451 2005.27 139.732 Q2004.5 140.013 2003.56 140.669 Q2002.65 141.302 2001.78 142.613 Q2000.91 143.925 2000.33 145.728 Q2000.21 146.267 1999.69 146.267 Q1999.13 146.244 1999.13 145.775 Q1999.13 145.377 1999.44 144.557 Q1999.76 143.714 2000.42 142.66 Q2001.1 141.606 2001.97 140.669 Q2002.86 139.709 2004.14 139.053 Q2005.46 138.397 2006.86 138.397 Q2007.49 138.397 2008.1 138.538 Q2008.74 138.655 2009.49 139.006 Q2010.26 139.358 2010.94 140.131 Q2011.62 140.903 2012.04 142.028 Q2012.32 141.489 2012.69 140.974 Q2013.09 140.458 2013.7 139.826 Q2014.33 139.17 2015.2 138.795 Q2016.09 138.397 2017.07 138.397 Q2018.03 138.397 2018.97 138.655 Q2019.91 138.889 2020.7 139.662 Q2021.52 140.412 2021.52 141.559 Z" fill="#000000" fill-rule="evenodd" fill-opacity="1" /><path clip-path="url(#clip810)" d="M2069.76 146.923 Q2070.05 147.204 2070.05 147.602 Q2070.05 148 2069.76 148.282 Q2069.48 148.563 2069.09 148.563 L2039.06 148.563 Q2038.66 148.563 2038.38 148.282 Q2038.1 148 2038.1 147.602 Q2038.1 147.204 2038.38 146.923 Q2038.66 146.642 2039.06 146.642 L2069.09 146.642 Q2069.48 146.642 2069.76 146.923 Z" fill="#000000" fill-rule="evenodd" fill-opacity="1" /><path clip-path="url(#clip810)" d="M2110.48 140.224 Q2110.48 140.552 2110.27 141.325 L2105.68 159.641 Q2104.67 163.717 2101.4 166.574 Q2098.14 169.432 2094.44 169.432 Q2092.21 169.432 2090.79 168.237 Q2089.36 167.066 2089.36 165.263 Q2089.36 163.67 2090.2 162.897 Q2091.04 162.148 2092.05 162.148 Q2092.38 162.148 2092.73 162.241 Q2093.08 162.335 2093.46 162.733 Q2093.83 163.131 2093.83 163.811 Q2093.83 164.911 2092.87 165.778 Q2092.4 166.176 2091.96 166.27 Q2091.53 166.364 2090.81 166.364 Q2091.09 167.019 2091.6 167.464 Q2092.12 167.91 2092.71 168.073 Q2093.29 168.261 2093.67 168.308 Q2094.06 168.378 2094.44 168.378 Q2097.44 168.378 2099.73 165.356 Q2100.41 164.443 2100.9 163.53 Q2101.42 162.639 2101.79 161.539 Q2102.17 160.461 2102.33 159.876 Q2102.52 159.29 2102.85 157.955 Q2100.67 160.133 2098 160.133 Q2096.87 160.133 2095.87 159.829 Q2094.88 159.524 2094.02 158.892 Q2093.15 158.236 2092.64 157.088 Q2092.14 155.941 2092.14 154.418 Q2092.14 152.802 2092.78 150.6 Q2093.41 148.399 2094.93 144.347 Q2095.75 142.075 2095.75 140.974 Q2095.75 140.435 2095.63 140.107 Q2095.52 139.756 2095.28 139.639 Q2095.05 139.498 2094.91 139.475 Q2094.79 139.451 2094.56 139.451 Q2093.17 139.451 2091.89 140.857 Q2090.6 142.262 2089.71 145.401 Q2089.52 145.986 2089.4 146.127 Q2089.29 146.267 2088.93 146.267 Q2088.35 146.244 2088.35 145.775 Q2088.35 145.588 2088.56 144.862 Q2088.77 144.112 2089.26 143.011 Q2089.78 141.887 2090.48 140.88 Q2091.18 139.849 2092.28 139.123 Q2093.41 138.397 2094.7 138.397 Q2096.45 138.397 2097.53 139.545 Q2098.63 140.669 2098.63 142.332 Q2098.63 143.011 2098.44 143.62 Q2098.28 144.206 2097.67 145.775 Q2095.21 152.099 2095.21 155.191 Q2095.21 155.941 2095.33 156.573 Q2095.47 157.182 2095.77 157.791 Q2096.08 158.377 2096.69 158.728 Q2097.32 159.056 2098.19 159.056 Q2099.29 159.056 2100.32 158.541 Q2101.37 158.002 2102.03 157.276 Q2102.71 156.55 2103.11 155.941 Q2103.53 155.308 2103.62 154.98 L2105.78 146.361 L2106.74 142.52 Q2107.18 140.435 2107.39 139.92 Q2107.67 139.428 2108.16 139.17 Q2108.66 138.913 2109.08 138.913 Q2109.66 138.913 2110.06 139.264 Q2110.48 139.615 2110.48 140.224 Z" fill="#000000" fill-rule="evenodd" fill-opacity="1" /><path clip-path="url(#clip810)" d="M2124.92 152.31 Q2124.96 151.725 2125.88 151.725 L2155.27 151.725 Q2156.65 151.725 2156.68 152.263 Q2156.68 152.849 2155.37 152.825 L2126.21 152.825 Q2124.92 152.849 2124.92 152.31 M2124.92 142.941 Q2124.92 142.356 2125.92 142.379 L2155.23 142.379 Q2156.65 142.379 2156.68 142.941 Q2156.68 143.48 2155.46 143.48 L2125.88 143.48 Q2124.92 143.48 2124.92 142.941 Z" fill="#000000" fill-rule="evenodd" fill-opacity="1" /><path clip-path="url(#clip810)" d="M2195.5 138.866 Q2195.5 139.03 2195.1 139.732 Q2194.73 140.412 2193.34 142.121 Q2191.96 143.831 2189.9 145.822 Q2189.13 146.595 2187.96 147.673 Q2186.79 148.75 2185.99 149.453 L2185.19 150.155 Q2182.15 152.732 2179.48 155.613 Q2179.67 155.542 2179.99 155.519 Q2180.32 155.472 2180.56 155.472 L2180.79 155.472 Q2182.01 155.472 2184.14 156.292 Q2186.01 156.901 2186.97 156.901 Q2187.91 156.901 2188.94 156.573 Q2189.97 156.245 2191.1 155.285 Q2192.22 154.325 2192.74 152.872 Q2192.83 152.638 2192.88 152.568 Q2192.92 152.474 2193.06 152.38 Q2193.2 152.263 2193.39 152.263 Q2193.65 152.263 2193.81 152.404 Q2193.98 152.544 2193.98 152.732 Q2193.98 153.153 2193.65 153.997 Q2193.34 154.84 2192.67 155.894 Q2192.01 156.948 2191.14 157.908 Q2190.3 158.845 2189.03 159.501 Q2187.77 160.133 2186.43 160.133 Q2185.47 160.133 2184.77 159.665 Q2184.07 159.22 2183.37 158.353 Q2182.41 157.252 2181.89 156.901 Q2181.38 156.526 2180.58 156.526 Q2178.45 156.526 2176.5 159.501 Q2176.29 159.922 2176.15 160.016 Q2176.04 160.133 2175.75 160.133 Q2175.17 160.11 2175.17 159.641 Q2175.17 159.454 2175.68 158.634 Q2176.22 157.791 2177.42 156.315 Q2178.64 154.84 2180.11 153.364 L2184.42 149.336 Q2189.2 145.307 2191.1 143.035 Q2190.3 143.035 2189.95 143.011 Q2189.62 142.988 2188.96 142.848 Q2188.31 142.684 2187.4 142.332 Q2185.26 141.606 2184.37 141.606 Q2184.14 141.606 2183.88 141.63 Q2183.62 141.653 2183.04 141.77 Q2182.48 141.887 2182.01 142.121 Q2181.54 142.332 2181.05 142.801 Q2180.56 143.246 2180.3 143.855 Q2180.23 144.042 2180.18 144.136 Q2180.13 144.229 2179.99 144.323 Q2179.88 144.393 2179.69 144.393 Q2179.41 144.393 2179.24 144.229 Q2179.1 144.065 2179.1 143.855 Q2179.1 143.433 2179.53 142.566 Q2179.95 141.7 2180.65 140.763 Q2181.35 139.803 2182.5 139.1 Q2183.65 138.397 2184.91 138.397 Q2185.66 138.397 2186.29 138.725 Q2186.95 139.053 2187.28 139.404 Q2187.63 139.732 2188.21 140.458 Q2188.71 141.021 2188.94 141.255 Q2189.18 141.489 2189.64 141.747 Q2190.14 141.981 2190.67 141.981 Q2191.56 141.981 2192.38 141.302 Q2193.2 140.599 2194.26 138.913 Q2194.54 138.397 2194.98 138.397 Q2195.5 138.397 2195.5 138.866 Z" fill="#000000" fill-rule="evenodd" fill-opacity="1" /><polyline clip-path="url(#clip810)" style="stroke:#e26f46; stroke-linecap:butt; stroke-linejoin:round; stroke-width:4; stroke-opacity:1; fill:none" points="
  1829.13,198.898 1973.56,198.898 
  "/>
<path clip-path="url(#clip810)" d="M2019.77 192.064 Q2019.77 192.392 2019.56 193.165 L2014.97 211.481 Q2013.96 215.557 2010.68 218.414 Q2007.42 221.272 2003.72 221.272 Q2001.5 221.272 2000.07 220.077 Q1998.64 218.906 1998.64 217.103 Q1998.64 215.51 1999.48 214.737 Q2000.33 213.988 2001.33 213.988 Q2001.66 213.988 2002.01 214.081 Q2002.36 214.175 2002.74 214.573 Q2003.11 214.971 2003.11 215.651 Q2003.11 216.751 2002.15 217.618 Q2001.69 218.016 2001.24 218.11 Q2000.82 218.204 2000.09 218.204 Q2000.37 218.859 2000.89 219.304 Q2001.4 219.75 2001.99 219.913 Q2002.58 220.101 2002.95 220.148 Q2003.35 220.218 2003.72 220.218 Q2006.72 220.218 2009.02 217.196 Q2009.7 216.283 2010.19 215.37 Q2010.7 214.479 2011.08 213.379 Q2011.45 212.301 2011.62 211.716 Q2011.8 211.13 2012.13 209.795 Q2009.95 211.973 2007.28 211.973 Q2006.16 211.973 2005.15 211.669 Q2004.17 211.364 2003.3 210.732 Q2002.43 210.076 2001.92 208.928 Q2001.43 207.781 2001.43 206.258 Q2001.43 204.642 2002.06 202.44 Q2002.69 200.239 2004.22 196.187 Q2005.03 193.915 2005.03 192.814 Q2005.03 192.275 2004.92 191.947 Q2004.8 191.596 2004.57 191.479 Q2004.33 191.338 2004.19 191.315 Q2004.07 191.291 2003.84 191.291 Q2002.46 191.291 2001.17 192.697 Q1999.88 194.102 1998.99 197.241 Q1998.8 197.826 1998.69 197.967 Q1998.57 198.107 1998.22 198.107 Q1997.63 198.084 1997.63 197.615 Q1997.63 197.428 1997.84 196.702 Q1998.05 195.952 1998.55 194.851 Q1999.06 193.727 1999.76 192.72 Q2000.47 191.689 2001.57 190.963 Q2002.69 190.237 2003.98 190.237 Q2005.74 190.237 2006.81 191.385 Q2007.92 192.509 2007.92 194.172 Q2007.92 194.851 2007.73 195.46 Q2007.56 196.046 2006.96 197.615 Q2004.5 203.939 2004.5 207.031 Q2004.5 207.781 2004.61 208.413 Q2004.75 209.022 2005.06 209.631 Q2005.36 210.217 2005.97 210.568 Q2006.6 210.896 2007.47 210.896 Q2008.57 210.896 2009.6 210.381 Q2010.66 209.842 2011.31 209.116 Q2011.99 208.39 2012.39 207.781 Q2012.81 207.148 2012.9 206.82 L2015.06 198.201 L2016.02 194.36 Q2016.46 192.275 2016.68 191.76 Q2016.96 191.268 2017.45 191.01 Q2017.94 190.753 2018.36 190.753 Q2018.95 190.753 2019.35 191.104 Q2019.77 191.455 2019.77 192.064 Z" fill="#000000" fill-rule="evenodd" fill-opacity="1" /><path clip-path="url(#clip810)" d="M2065.87 198.763 Q2066.15 199.044 2066.15 199.442 Q2066.15 199.84 2065.87 200.122 Q2065.59 200.403 2065.19 200.403 L2035.16 200.403 Q2034.76 200.403 2034.48 200.122 Q2034.2 199.84 2034.2 199.442 Q2034.2 199.044 2034.48 198.763 Q2034.76 198.482 2035.16 198.482 L2065.19 198.482 Q2065.59 198.482 2065.87 198.763 Z" fill="#000000" fill-rule="evenodd" fill-opacity="1" /><path clip-path="url(#clip810)" d="M2108.34 193.399 Q2108.34 194.711 2107.52 195.46 Q2106.7 196.187 2105.77 196.187 Q2104.88 196.187 2104.41 195.671 Q2103.94 195.156 2103.94 194.5 Q2103.94 193.61 2104.6 192.837 Q2105.25 192.064 2106.24 191.9 Q2105.28 191.291 2103.85 191.291 Q2102.91 191.291 2102.09 191.783 Q2101.29 192.275 2100.8 192.907 Q2100.33 193.54 2099.91 194.453 Q2099.51 195.343 2099.35 195.882 Q2099.21 196.397 2099.09 196.959 L2097.45 203.518 Q2096.66 206.633 2096.66 207.734 Q2096.66 209.092 2097.31 210.006 Q2097.97 210.896 2099.28 210.896 Q2099.79 210.896 2100.38 210.755 Q2100.97 210.591 2101.71 210.17 Q2102.49 209.725 2103.17 209.069 Q2103.87 208.39 2104.55 207.242 Q2105.23 206.094 2105.67 204.619 Q2105.81 204.103 2106.28 204.103 Q2106.87 204.103 2106.87 204.572 Q2106.87 204.97 2106.54 205.813 Q2106.24 206.633 2105.56 207.71 Q2104.9 208.764 2104.03 209.725 Q2103.17 210.662 2101.88 211.317 Q2100.59 211.973 2099.19 211.973 Q2097.17 211.973 2095.84 210.896 Q2094.5 209.818 2094.01 208.319 Q2093.89 208.53 2093.73 208.811 Q2093.56 209.092 2093.07 209.725 Q2092.6 210.334 2092.06 210.802 Q2091.53 211.247 2090.68 211.599 Q2089.86 211.973 2088.97 211.973 Q2087.85 211.973 2086.84 211.645 Q2085.86 211.317 2085.16 210.568 Q2084.45 209.818 2084.45 208.788 Q2084.45 207.64 2085.23 206.844 Q2086.02 206.024 2087.1 206.024 Q2087.78 206.024 2088.32 206.422 Q2088.88 206.82 2088.88 207.687 Q2088.88 208.647 2088.22 209.373 Q2087.57 210.099 2086.63 210.287 Q2087.59 210.896 2089.02 210.896 Q2090.57 210.896 2091.78 209.537 Q2093 208.179 2093.59 205.907 Q2095.04 200.449 2095.6 198.013 Q2096.16 195.554 2096.16 194.5 Q2096.16 193.516 2095.91 192.837 Q2095.65 192.158 2095.2 191.853 Q2094.78 191.525 2094.38 191.408 Q2094.01 191.291 2093.59 191.291 Q2092.88 191.291 2092.09 191.572 Q2091.32 191.853 2090.38 192.509 Q2089.47 193.142 2088.6 194.453 Q2087.73 195.765 2087.15 197.568 Q2087.03 198.107 2086.51 198.107 Q2085.95 198.084 2085.95 197.615 Q2085.95 197.217 2086.26 196.397 Q2086.58 195.554 2087.24 194.5 Q2087.92 193.446 2088.79 192.509 Q2089.68 191.549 2090.96 190.893 Q2092.28 190.237 2093.68 190.237 Q2094.31 190.237 2094.92 190.378 Q2095.55 190.495 2096.3 190.846 Q2097.08 191.198 2097.76 191.971 Q2098.44 192.743 2098.86 193.868 Q2099.14 193.329 2099.51 192.814 Q2099.91 192.298 2100.52 191.666 Q2101.15 191.01 2102.02 190.635 Q2102.91 190.237 2103.89 190.237 Q2104.85 190.237 2105.79 190.495 Q2106.73 190.729 2107.52 191.502 Q2108.34 192.252 2108.34 193.399 Z" fill="#000000" fill-rule="evenodd" fill-opacity="1" /><path clip-path="url(#clip810)" d="M2124.92 204.15 Q2124.96 203.565 2125.88 203.565 L2155.27 203.565 Q2156.65 203.565 2156.68 204.103 Q2156.68 204.689 2155.37 204.665 L2126.21 204.665 Q2124.92 204.689 2124.92 204.15 M2124.92 194.781 Q2124.92 194.196 2125.92 194.219 L2155.23 194.219 Q2156.65 194.219 2156.68 194.781 Q2156.68 195.32 2155.46 195.32 L2125.88 195.32 Q2124.92 195.32 2124.92 194.781 Z" fill="#000000" fill-rule="evenodd" fill-opacity="1" /><path clip-path="url(#clip810)" d="M2195.5 190.706 Q2195.5 190.87 2195.1 191.572 Q2194.73 192.252 2193.34 193.961 Q2191.96 195.671 2189.9 197.662 Q2189.13 198.435 2187.96 199.513 Q2186.79 200.59 2185.99 201.293 L2185.19 201.995 Q2182.15 204.572 2179.48 207.453 Q2179.67 207.382 2179.99 207.359 Q2180.32 207.312 2180.56 207.312 L2180.79 207.312 Q2182.01 207.312 2184.14 208.132 Q2186.01 208.741 2186.97 208.741 Q2187.91 208.741 2188.94 208.413 Q2189.97 208.085 2191.1 207.125 Q2192.22 206.165 2192.74 204.712 Q2192.83 204.478 2192.88 204.408 Q2192.92 204.314 2193.06 204.22 Q2193.2 204.103 2193.39 204.103 Q2193.65 204.103 2193.81 204.244 Q2193.98 204.384 2193.98 204.572 Q2193.98 204.993 2193.65 205.837 Q2193.34 206.68 2192.67 207.734 Q2192.01 208.788 2191.14 209.748 Q2190.3 210.685 2189.03 211.341 Q2187.77 211.973 2186.43 211.973 Q2185.47 211.973 2184.77 211.505 Q2184.07 211.06 2183.37 210.193 Q2182.41 209.092 2181.89 208.741 Q2181.38 208.366 2180.58 208.366 Q2178.45 208.366 2176.5 211.341 Q2176.29 211.762 2176.15 211.856 Q2176.04 211.973 2175.75 211.973 Q2175.17 211.95 2175.17 211.481 Q2175.17 211.294 2175.68 210.474 Q2176.22 209.631 2177.42 208.155 Q2178.64 206.68 2180.11 205.204 L2184.42 201.176 Q2189.2 197.147 2191.1 194.875 Q2190.3 194.875 2189.95 194.851 Q2189.62 194.828 2188.96 194.688 Q2188.31 194.524 2187.4 194.172 Q2185.26 193.446 2184.37 193.446 Q2184.14 193.446 2183.88 193.47 Q2183.62 193.493 2183.04 193.61 Q2182.48 193.727 2182.01 193.961 Q2181.54 194.172 2181.05 194.641 Q2180.56 195.086 2180.3 195.695 Q2180.23 195.882 2180.18 195.976 Q2180.13 196.069 2179.99 196.163 Q2179.88 196.233 2179.69 196.233 Q2179.41 196.233 2179.24 196.069 Q2179.1 195.905 2179.1 195.695 Q2179.1 195.273 2179.53 194.406 Q2179.95 193.54 2180.65 192.603 Q2181.35 191.643 2182.5 190.94 Q2183.65 190.237 2184.91 190.237 Q2185.66 190.237 2186.29 190.565 Q2186.95 190.893 2187.28 191.244 Q2187.63 191.572 2188.21 192.298 Q2188.71 192.861 2188.94 193.095 Q2189.18 193.329 2189.64 193.587 Q2190.14 193.821 2190.67 193.821 Q2191.56 193.821 2192.38 193.142 Q2193.2 192.439 2194.26 190.753 Q2194.54 190.237 2194.98 190.237 Q2195.5 190.237 2195.5 190.706 Z" fill="#000000" fill-rule="evenodd" fill-opacity="1" /></svg>
