<?xml version="1.0" encoding="utf-8"?>
<svg xmlns="http://www.w3.org/2000/svg" xmlns:xlink="http://www.w3.org/1999/xlink" width="600" height="400" viewBox="0 0 2400 1600">
<defs>
  <clipPath id="clip260">
    <rect x="0" y="0" width="2400" height="1600"/>
  </clipPath>
</defs>
<path clip-path="url(#clip260)" d="
M0 1600 L2400 1600 L2400 0 L0 0  Z
  " fill="#ffffff" fill-rule="evenodd" fill-opacity="1"/>
<defs>
  <clipPath id="clip261">
    <rect x="480" y="0" width="1681" height="1600"/>
  </clipPath>
</defs>
<defs>
  <clipPath id="clip262">
    <rect x="47" y="47" width="2307" height="1414"/>
  </clipPath>
</defs>
<path clip-path="url(#clip260)" d="
M47.2441 1460.53 L2352.76 1460.53 L2352.76 47.2441 L47.2441 47.2441  Z
  " fill="#ffffff" fill-rule="evenodd" fill-opacity="1"/>
<path clip-path="url(#clip260)" d="M1458 1511.65 Q1458 1513.94 1456.56 1515.26 Q1455.13 1516.53 1453.49 1516.53 Q1451.93 1516.53 1451.11 1515.62 Q1450.29 1514.72 1450.29 1513.58 Q1450.29 1512.02 1451.44 1510.67 Q1452.59 1509.31 1454.31 1509.03 Q1452.63 1507.96 1450.13 1507.96 Q1448.49 1507.96 1447.05 1508.82 Q1445.66 1509.68 1444.8 1510.79 Q1443.98 1511.89 1443.24 1513.49 Q1442.55 1515.05 1442.26 1515.99 Q1442.01 1516.9 1441.81 1517.88 L1438.94 1529.36 Q1437.54 1534.81 1437.54 1536.73 Q1437.54 1539.11 1438.69 1540.71 Q1439.84 1542.27 1442.14 1542.27 Q1443.04 1542.27 1444.06 1542.02 Q1445.09 1541.74 1446.4 1541 Q1447.75 1540.22 1448.94 1539.07 Q1450.17 1537.88 1451.36 1535.87 Q1452.55 1533.87 1453.33 1531.28 Q1453.57 1530.38 1454.39 1530.38 Q1455.42 1530.38 1455.42 1531.2 Q1455.42 1531.9 1454.84 1533.37 Q1454.31 1534.81 1453.12 1536.69 Q1451.97 1538.54 1450.46 1540.22 Q1448.94 1541.86 1446.69 1543.01 Q1444.43 1544.15 1441.97 1544.15 Q1438.45 1544.15 1436.11 1542.27 Q1433.77 1540.38 1432.91 1537.76 Q1432.71 1538.13 1432.42 1538.62 Q1432.13 1539.11 1431.27 1540.22 Q1430.45 1541.28 1429.51 1542.1 Q1428.57 1542.88 1427.09 1543.5 Q1425.66 1544.15 1424.1 1544.15 Q1422.13 1544.15 1420.37 1543.58 Q1418.65 1543.01 1417.42 1541.69 Q1416.19 1540.38 1416.19 1538.58 Q1416.19 1536.57 1417.54 1535.18 Q1418.94 1533.74 1420.82 1533.74 Q1422.01 1533.74 1422.95 1534.44 Q1423.94 1535.14 1423.94 1536.65 Q1423.94 1538.33 1422.79 1539.6 Q1421.64 1540.87 1420 1541.2 Q1421.68 1542.27 1424.18 1542.27 Q1426.89 1542.27 1429.02 1539.89 Q1431.15 1537.51 1432.18 1533.54 Q1434.72 1523.99 1435.7 1519.72 Q1436.68 1515.42 1436.68 1513.58 Q1436.68 1511.85 1436.23 1510.67 Q1435.78 1509.48 1435 1508.94 Q1434.27 1508.37 1433.57 1508.16 Q1432.91 1507.96 1432.18 1507.96 Q1430.95 1507.96 1429.55 1508.45 Q1428.2 1508.94 1426.56 1510.09 Q1424.96 1511.2 1423.44 1513.49 Q1421.93 1515.79 1420.9 1518.95 Q1420.7 1519.89 1419.8 1519.89 Q1418.81 1519.85 1418.81 1519.03 Q1418.81 1518.33 1419.35 1516.9 Q1419.92 1515.42 1421.07 1513.58 Q1422.26 1511.73 1423.77 1510.09 Q1425.33 1508.41 1427.58 1507.26 Q1429.88 1506.12 1432.34 1506.12 Q1433.45 1506.12 1434.51 1506.36 Q1435.62 1506.57 1436.93 1507.18 Q1438.28 1507.8 1439.47 1509.15 Q1440.66 1510.5 1441.4 1512.47 Q1441.89 1511.53 1442.55 1510.62 Q1443.24 1509.72 1444.31 1508.62 Q1445.41 1507.47 1446.93 1506.81 Q1448.49 1506.12 1450.21 1506.12 Q1451.89 1506.12 1453.53 1506.57 Q1455.17 1506.98 1456.56 1508.33 Q1458 1509.64 1458 1511.65 Z" fill="#000000" fill-rule="evenodd" fill-opacity="1" /><path clip-path="url(#clip260)" d="M1481.56 1530.51 Q1481.56 1531.77 1480.53 1532.72 Q1479.52 1533.64 1478.43 1533.64 Q1477.43 1533.64 1476.8 1533.03 Q1476.2 1532.4 1476.2 1531.51 Q1476.2 1530.34 1477.2 1529.36 Q1478.2 1528.39 1479.38 1528.39 Q1480.36 1528.39 1480.96 1528.99 Q1481.56 1529.59 1481.56 1530.51 M1482.08 1558.83 Q1482.08 1559.06 1481.82 1559.98 Q1481.56 1560.87 1480.93 1562.24 Q1480.33 1563.59 1479.5 1564.85 Q1478.66 1566.12 1477.29 1567.01 Q1475.94 1567.9 1474.39 1567.9 Q1472.29 1567.9 1470.92 1566.52 Q1469.57 1565.14 1469.57 1563.07 Q1469.57 1561.96 1470.92 1558.37 Q1474.82 1547.93 1474.96 1547.49 Q1475.62 1545.86 1475.62 1544.42 Q1475.62 1543.76 1475.48 1543.36 Q1475.34 1542.93 1475.05 1542.79 Q1474.76 1542.62 1474.59 1542.59 Q1474.45 1542.56 1474.16 1542.56 Q1472.47 1542.56 1470.89 1544.28 Q1469.31 1546 1468.22 1549.85 Q1467.99 1550.56 1467.85 1550.74 Q1467.7 1550.91 1467.27 1550.91 Q1466.56 1550.88 1466.56 1550.31 Q1466.56 1550.13 1466.76 1549.47 Q1466.96 1548.79 1467.33 1547.75 Q1467.7 1546.69 1468.36 1545.6 Q1469.02 1544.48 1469.83 1543.51 Q1470.66 1542.53 1471.83 1541.9 Q1473.01 1541.27 1474.33 1541.27 Q1476.48 1541.27 1477.8 1542.67 Q1479.15 1544.05 1479.15 1546.09 Q1479.15 1547.21 1478.38 1549.19 Q1477.43 1551.77 1477.09 1552.6 L1474.79 1558.77 Q1473.96 1561.01 1473.7 1561.7 Q1473.47 1562.36 1473.27 1563.16 Q1473.1 1563.94 1473.1 1564.65 Q1473.1 1565.66 1473.41 1566.12 Q1473.76 1566.58 1474.5 1566.58 Q1476.57 1566.58 1478.09 1564.54 Q1479.61 1562.47 1480.5 1559.32 Q1480.53 1559.23 1480.56 1559.09 Q1480.79 1558.37 1481.02 1558.28 Q1481.13 1558.25 1481.36 1558.25 Q1482.08 1558.25 1482.08 1558.83 Z" fill="#000000" fill-rule="evenodd" fill-opacity="1" /><polyline clip-path="url(#clip262)" style="stroke:#009af9; stroke-linecap:butt; stroke-linejoin:round; stroke-width:4; stroke-opacity:1; fill:none" points="
  112.494,1420.08 115.053,1420.06 117.612,1420.04 120.171,1420.03 122.73,1420 125.289,1419.98 127.847,1419.96 130.406,1419.94 132.965,1419.92 135.524,1419.89 
  138.083,1419.87 140.642,1419.84 143.2,1419.81 145.759,1419.78 148.318,1419.75 150.877,1419.72 153.436,1419.69 155.995,1419.66 158.553,1419.63 161.112,1419.59 
  163.671,1419.55 166.23,1419.52 168.789,1419.48 171.348,1419.44 173.907,1419.39 176.465,1419.35 179.024,1419.31 181.583,1419.26 184.142,1419.21 186.701,1419.16 
  189.26,1419.11 191.818,1419.06 194.377,1419 196.936,1418.94 199.495,1418.88 202.054,1418.82 204.613,1418.76 207.171,1418.69 209.73,1418.63 212.289,1418.56 
  214.848,1418.48 217.407,1418.41 219.966,1418.33 222.524,1418.25 225.083,1418.17 227.642,1418.08 230.201,1418 232.76,1417.9 235.319,1417.81 237.877,1417.71 
  240.436,1417.61 242.995,1417.51 245.554,1417.4 248.113,1417.29 250.672,1417.18 253.23,1417.06 255.789,1416.94 258.348,1416.81 260.907,1416.68 263.466,1416.55 
  266.025,1416.41 268.583,1416.27 271.142,1416.12 273.701,1415.97 276.26,1415.81 278.819,1415.65 281.378,1415.49 283.936,1415.32 286.495,1415.14 289.054,1414.96 
  291.613,1414.77 294.172,1414.58 296.731,1414.38 299.29,1414.18 301.848,1413.97 304.407,1413.75 306.966,1413.52 309.525,1413.29 312.084,1413.06 314.643,1412.81 
  317.201,1412.56 319.76,1412.3 322.319,1412.04 324.878,1411.76 327.437,1411.48 329.996,1411.19 332.554,1410.89 335.113,1410.59 337.672,1410.27 340.231,1409.95 
  342.79,1409.61 345.349,1409.27 347.907,1408.92 350.466,1408.55 353.025,1408.18 355.584,1407.8 358.143,1407.4 360.702,1407 363.26,1406.58 365.819,1406.16 
  368.378,1405.72 370.937,1405.27 373.496,1404.81 376.055,1404.33 378.613,1403.84 381.172,1403.34 383.731,1402.83 386.29,1402.3 388.849,1401.76 391.408,1401.21 
  393.966,1400.64 396.525,1400.05 399.084,1399.45 401.643,1398.84 404.202,1398.21 406.761,1397.56 409.319,1396.9 411.878,1396.22 414.437,1395.52 416.996,1394.81 
  419.555,1394.08 422.114,1393.33 424.672,1392.56 427.231,1391.77 429.79,1390.96 432.349,1390.14 434.908,1389.29 437.467,1388.43 440.026,1387.54 442.584,1386.63 
  445.143,1385.7 447.702,1384.75 450.261,1383.78 452.82,1382.78 455.379,1381.76 457.937,1380.72 460.496,1379.65 463.055,1378.56 465.614,1377.44 468.173,1376.3 
  470.732,1375.13 473.29,1373.94 475.849,1372.72 478.408,1371.47 480.967,1370.2 483.526,1368.9 486.085,1367.57 488.643,1366.21 491.202,1364.82 493.761,1363.4 
  496.32,1361.95 498.879,1360.47 501.438,1358.96 503.996,1357.41 506.555,1355.84 509.114,1354.23 511.673,1352.59 514.232,1350.92 516.791,1349.21 519.349,1347.46 
  521.908,1345.69 524.467,1343.87 527.026,1342.02 529.585,1340.13 532.144,1338.21 534.702,1336.25 537.261,1334.25 539.82,1332.21 542.379,1330.13 544.938,1328.02 
  547.497,1325.86 550.055,1323.66 552.614,1321.42 555.173,1319.14 557.732,1316.82 560.291,1314.45 562.85,1312.05 565.409,1309.59 567.967,1307.1 570.526,1304.56 
  573.085,1301.97 575.644,1299.34 578.203,1296.66 580.762,1293.94 583.32,1291.17 585.879,1288.35 588.438,1285.49 590.997,1282.57 593.556,1279.61 596.115,1276.6 
  598.673,1273.53 601.232,1270.42 603.791,1267.26 606.35,1264.05 608.909,1260.78 611.468,1257.46 614.026,1254.09 616.585,1250.67 619.144,1247.2 621.703,1243.67 
  624.262,1240.09 626.821,1236.45 629.379,1232.76 631.938,1229.02 634.497,1225.22 637.056,1221.36 639.615,1217.45 642.174,1213.48 644.732,1209.46 647.291,1205.38 
  649.85,1201.24 652.409,1197.04 654.968,1192.79 657.527,1188.48 660.085,1184.11 662.644,1179.68 665.203,1175.2 667.762,1170.66 670.321,1166.05 672.88,1161.39 
  675.438,1156.67 677.997,1151.89 680.556,1147.06 683.115,1142.16 685.674,1137.2 688.233,1132.19 690.792,1127.11 693.35,1121.97 695.909,1116.78 698.468,1111.53 
  701.027,1106.21 703.586,1100.84 706.145,1095.41 708.703,1089.92 711.262,1084.36 713.821,1078.75 716.38,1073.09 718.939,1067.36 721.498,1061.57 724.056,1055.73 
  726.615,1049.83 729.174,1043.87 731.733,1037.85 734.292,1031.77 736.851,1025.64 739.409,1019.45 741.968,1013.21 744.527,1006.91 747.086,1000.55 749.645,994.14 
  752.204,987.674 754.762,981.155 757.321,974.581 759.88,967.955 762.439,961.276 764.998,954.545 767.557,947.762 770.115,940.929 772.674,934.046 775.233,927.113 
  777.792,920.132 780.351,913.103 782.91,906.026 785.468,898.903 788.027,891.734 790.586,884.52 793.145,877.262 795.704,869.96 798.263,862.617 800.821,855.232 
  803.38,847.806 805.939,840.341 808.498,832.838 811.057,825.297 813.616,817.719 816.175,810.106 818.733,802.459 821.292,794.778 823.851,787.066 826.41,779.322 
  828.969,771.549 831.528,763.747 834.086,755.918 836.645,748.063 839.204,740.183 841.763,732.279 844.322,724.353 846.881,716.407 849.439,708.441 851.998,700.456 
  854.557,692.456 857.116,684.439 859.675,676.409 862.234,668.367 864.792,660.314 867.351,652.251 869.91,644.18 872.469,636.103 875.028,628.022 877.587,619.937 
  880.145,611.85 882.704,603.764 885.263,595.679 887.822,587.597 890.381,579.52 892.94,571.45 895.498,563.388 898.057,555.337 900.616,547.296 903.175,539.27 
  905.734,531.258 908.293,523.263 910.851,515.287 913.41,507.332 915.969,499.398 918.528,491.489 921.087,483.605 923.646,475.749 926.204,467.922 928.763,460.127 
  931.322,452.365 933.881,444.637 936.44,436.946 938.999,429.294 941.557,421.682 944.116,414.112 946.675,406.586 949.234,399.106 951.793,391.674 954.352,384.291 
  956.911,376.96 959.469,369.682 962.028,362.459 964.587,355.293 967.146,348.185 969.705,341.138 972.264,334.154 974.822,327.233 977.381,320.379 979.94,313.592 
  982.499,306.875 985.058,300.229 987.617,293.656 990.175,287.158 992.734,280.736 995.293,274.392 997.852,268.129 1000.41,261.947 1002.97,255.849 1005.53,249.835 
  1008.09,243.908 1010.65,238.069 1013.2,232.32 1015.76,226.663 1018.32,221.099 1020.88,215.629 1023.44,210.255 1026,204.979 1028.56,199.802 1031.12,194.725 
  1033.68,189.751 1036.23,184.879 1038.79,180.113 1041.35,175.453 1043.91,170.9 1046.47,166.456 1049.03,162.122 1051.59,157.899 1054.15,153.789 1056.71,149.792 
  1059.26,145.911 1061.82,142.145 1064.38,138.496 1066.94,134.966 1069.5,131.555 1072.06,128.264 1074.62,125.094 1077.18,122.046 1079.73,119.121 1082.29,116.32 
  1084.85,113.644 1087.41,111.093 1089.97,108.668 1092.53,106.37 1095.09,104.2 1097.65,102.158 1100.21,100.245 1102.76,98.4615 1105.32,96.8079 1107.88,95.2847 
  1110.44,93.8925 1113,92.6316 1115.56,91.5024 1118.12,90.5052 1120.68,89.6404 1123.23,88.9083 1125.79,88.3089 1128.35,87.8425 1130.91,87.5093 1133.47,87.3094 
  1136.03,87.2427 1138.59,87.3094 1141.15,87.5093 1143.71,87.8425 1146.26,88.3089 1148.82,88.9083 1151.38,89.6404 1153.94,90.5052 1156.5,91.5024 1159.06,92.6316 
  1161.62,93.8925 1164.18,95.2847 1166.74,96.8079 1169.29,98.4615 1171.85,100.245 1174.41,102.158 1176.97,104.2 1179.53,106.37 1182.09,108.668 1184.65,111.093 
  1187.21,113.644 1189.76,116.32 1192.32,119.121 1194.88,122.046 1197.44,125.094 1200,128.264 1202.56,131.555 1205.12,134.966 1207.68,138.496 1210.24,142.145 
  1212.79,145.911 1215.35,149.792 1217.91,153.789 1220.47,157.899 1223.03,162.122 1225.59,166.456 1228.15,170.9 1230.71,175.453 1233.26,180.113 1235.82,184.879 
  1238.38,189.751 1240.94,194.725 1243.5,199.802 1246.06,204.979 1248.62,210.255 1251.18,215.629 1253.74,221.099 1256.29,226.663 1258.85,232.32 1261.41,238.069 
  1263.97,243.908 1266.53,249.835 1269.09,255.849 1271.65,261.947 1274.21,268.129 1276.77,274.392 1279.32,280.736 1281.88,287.158 1284.44,293.656 1287,300.229 
  1289.56,306.875 1292.12,313.592 1294.68,320.379 1297.24,327.233 1299.79,334.154 1302.35,341.138 1304.91,348.185 1307.47,355.293 1310.03,362.459 1312.59,369.682 
  1315.15,376.96 1317.71,384.291 1320.27,391.674 1322.82,399.106 1325.38,406.586 1327.94,414.112 1330.5,421.682 1333.06,429.294 1335.62,436.946 1338.18,444.637 
  1340.74,452.365 1343.29,460.127 1345.85,467.922 1348.41,475.749 1350.97,483.605 1353.53,491.489 1356.09,499.398 1358.65,507.332 1361.21,515.287 1363.77,523.263 
  1366.32,531.258 1368.88,539.27 1371.44,547.296 1374,555.337 1376.56,563.388 1379.12,571.45 1381.68,579.52 1384.24,587.597 1386.8,595.679 1389.35,603.764 
  1391.91,611.85 1394.47,619.937 1397.03,628.022 1399.59,636.103 1402.15,644.18 1404.71,652.251 1407.27,660.314 1409.82,668.367 1412.38,676.409 1414.94,684.439 
  1417.5,692.456 1420.06,700.456 1422.62,708.441 1425.18,716.407 1427.74,724.353 1430.3,732.279 1432.85,740.183 1435.41,748.063 1437.97,755.918 1440.53,763.747 
  1443.09,771.549 1445.65,779.322 1448.21,787.066 1450.77,794.778 1453.32,802.459 1455.88,810.106 1458.44,817.719 1461,825.297 1463.56,832.838 1466.12,840.341 
  1468.68,847.806 1471.24,855.232 1473.8,862.617 1476.35,869.96 1478.91,877.262 1481.47,884.52 1484.03,891.734 1486.59,898.903 1489.15,906.026 1491.71,913.103 
  1494.27,920.132 1496.83,927.113 1499.38,934.046 1501.94,940.929 1504.5,947.762 1507.06,954.545 1509.62,961.276 1512.18,967.955 1514.74,974.581 1517.3,981.155 
  1519.85,987.674 1522.41,994.14 1524.97,1000.55 1527.53,1006.91 1530.09,1013.21 1532.65,1019.45 1535.21,1025.64 1537.77,1031.77 1540.33,1037.85 1542.88,1043.87 
  1545.44,1049.83 1548,1055.73 1550.56,1061.57 1553.12,1067.36 1555.68,1073.09 1558.24,1078.75 1560.8,1084.36 1563.35,1089.92 1565.91,1095.41 1568.47,1100.84 
  1571.03,1106.21 1573.59,1111.53 1576.15,1116.78 1578.71,1121.97 1581.27,1127.11 1583.83,1132.19 1586.38,1137.2 1588.94,1142.16 1591.5,1147.06 1594.06,1151.89 
  1596.62,1156.67 1599.18,1161.39 1601.74,1166.05 1604.3,1170.66 1606.86,1175.2 1609.41,1179.68 1611.97,1184.11 1614.53,1188.48 1617.09,1192.79 1619.65,1197.04 
  1622.21,1201.24 1624.77,1205.38 1627.33,1209.46 1629.88,1213.48 1632.44,1217.45 1635,1221.36 1637.56,1225.22 1640.12,1229.02 1642.68,1232.76 1645.24,1236.45 
  1647.8,1240.09 1650.36,1243.67 1652.91,1247.2 1655.47,1250.67 1658.03,1254.09 1660.59,1257.46 1663.15,1260.78 1665.71,1264.05 1668.27,1267.26 1670.83,1270.42 
  1673.38,1273.53 1675.94,1276.6 1678.5,1279.61 1681.06,1282.57 1683.62,1285.49 1686.18,1288.35 1688.74,1291.17 1691.3,1293.94 1693.86,1296.66 1696.41,1299.34 
  1698.97,1301.97 1701.53,1304.56 1704.09,1307.1 1706.65,1309.59 1709.21,1312.05 1711.77,1314.45 1714.33,1316.82 1716.89,1319.14 1719.44,1321.42 1722,1323.66 
  1724.56,1325.86 1727.12,1328.02 1729.68,1330.13 1732.24,1332.21 1734.8,1334.25 1737.36,1336.25 1739.91,1338.21 1742.47,1340.13 1745.03,1342.02 1747.59,1343.87 
  1750.15,1345.69 1752.71,1347.46 1755.27,1349.21 1757.83,1350.92 1760.39,1352.59 1762.94,1354.23 1765.5,1355.84 1768.06,1357.41 1770.62,1358.96 1773.18,1360.47 
  1775.74,1361.95 1778.3,1363.4 1780.86,1364.82 1783.41,1366.21 1785.97,1367.57 1788.53,1368.9 1791.09,1370.2 1793.65,1371.47 1796.21,1372.72 1798.77,1373.94 
  1801.33,1375.13 1803.89,1376.3 1806.44,1377.44 1809,1378.56 1811.56,1379.65 1814.12,1380.72 1816.68,1381.76 1819.24,1382.78 1821.8,1383.78 1824.36,1384.75 
  1826.91,1385.7 1829.47,1386.63 1832.03,1387.54 1834.59,1388.43 1837.15,1389.29 1839.71,1390.14 1842.27,1390.96 1844.83,1391.77 1847.39,1392.56 1849.94,1393.33 
  1852.5,1394.08 1855.06,1394.81 1857.62,1395.52 1860.18,1396.22 1862.74,1396.9 1865.3,1397.56 1867.86,1398.21 1870.42,1398.84 1872.97,1399.45 1875.53,1400.05 
  1878.09,1400.64 1880.65,1401.21 1883.21,1401.76 1885.77,1402.3 1888.33,1402.83 1890.89,1403.34 1893.44,1403.84 1896,1404.33 1898.56,1404.81 1901.12,1405.27 
  1903.68,1405.72 1906.24,1406.16 1908.8,1406.58 1911.36,1407 1913.92,1407.4 1916.47,1407.8 1919.03,1408.18 1921.59,1408.55 1924.15,1408.92 1926.71,1409.27 
  1929.27,1409.61 1931.83,1409.95 1934.39,1410.27 1936.94,1410.59 1939.5,1410.89 1942.06,1411.19 1944.62,1411.48 1947.18,1411.76 1949.74,1412.04 1952.3,1412.3 
  1954.86,1412.56 1957.42,1412.81 1959.97,1413.06 1962.53,1413.29 1965.09,1413.52 1967.65,1413.75 1970.21,1413.97 1972.77,1414.18 1975.33,1414.38 1977.89,1414.58 
  1980.45,1414.77 1983,1414.96 1985.56,1415.14 1988.12,1415.32 1990.68,1415.49 1993.24,1415.65 1995.8,1415.81 1998.36,1415.97 2000.92,1416.12 2003.47,1416.27 
  2006.03,1416.41 2008.59,1416.55 2011.15,1416.68 2013.71,1416.81 2016.27,1416.94 2018.83,1417.06 2021.39,1417.18 2023.95,1417.29 2026.5,1417.4 2029.06,1417.51 
  2031.62,1417.61 2034.18,1417.71 2036.74,1417.81 2039.3,1417.9 2041.86,1418 2044.42,1418.08 2046.97,1418.17 2049.53,1418.25 2052.09,1418.33 2054.65,1418.41 
  2057.21,1418.48 2059.77,1418.56 2062.33,1418.63 2064.89,1418.69 2067.45,1418.76 2070,1418.82 2072.56,1418.88 2075.12,1418.94 2077.68,1419 2080.24,1419.06 
  2082.8,1419.11 2085.36,1419.16 2087.92,1419.21 2090.48,1419.26 2093.03,1419.31 2095.59,1419.35 2098.15,1419.39 2100.71,1419.44 2103.27,1419.48 2105.83,1419.52 
  2108.39,1419.55 2110.95,1419.59 2113.5,1419.63 2116.06,1419.66 2118.62,1419.69 2121.18,1419.72 2123.74,1419.75 2126.3,1419.78 2128.86,1419.81 2131.42,1419.84 
  2133.98,1419.87 2136.53,1419.89 2139.09,1419.92 2141.65,1419.94 2144.21,1419.96 2146.77,1419.98 2149.33,1420 2151.89,1420.03 2154.45,1420.04 2157,1420.06 
  2159.56,1420.08 
  "/>
<polyline clip-path="url(#clip262)" style="stroke:#000000; stroke-linecap:butt; stroke-linejoin:round; stroke-width:4; stroke-opacity:1; fill:none" points="
  112.494,1420.53 2287.51,1420.53 
  "/>
<polyline clip-path="url(#clip262)" style="stroke:#000000; stroke-linecap:butt; stroke-linejoin:round; stroke-width:4; stroke-opacity:1; fill:none" points="
  2251.51,1402.53 2287.51,1420.53 2251.51,1438.53 
  "/>
<polyline clip-path="url(#clip262)" style="stroke:#000000; stroke-linecap:butt; stroke-linejoin:round; stroke-width:4; stroke-opacity:1; fill:none" points="
  2287.51,1420.53 112.494,1420.53 
  "/>
<polyline clip-path="url(#clip262)" style="stroke:#000000; stroke-linecap:butt; stroke-linejoin:round; stroke-width:4; stroke-opacity:1; fill:none" stroke-dasharray="16, 10" points="
  1455.88,1420.53 1455.88,810.106 
  "/>
<polyline clip-path="url(#clip262)" style="stroke:#000000; stroke-linecap:butt; stroke-linejoin:round; stroke-width:4; stroke-opacity:1; fill:none" points="
  1500.66,1002.77 1571.03,835.67 
  "/>
<polyline clip-path="url(#clip262)" style="stroke:#000000; stroke-linecap:butt; stroke-linejoin:round; stroke-width:4; stroke-opacity:1; fill:none" points="
  1540.47,861.862 1571.03,835.67 1573.65,875.834 
  "/>
<polyline clip-path="url(#clip262)" style="stroke:#000000; stroke-linecap:butt; stroke-linejoin:round; stroke-width:4; stroke-opacity:1; fill:none" points="
  1571.03,835.67 1500.66,1002.77 
  "/>
<path clip-path="url(#clip262)" d="
M1391.91 611.85 L1392.17 612.659 L1392.42 613.467 L1392.68 614.276 L1392.94 615.085 L1393.19 615.893 L1393.45 616.702 L1393.7 617.511 L1393.96 618.319 L1394.22 619.128 
  L1394.47 619.937 L1394.73 620.745 L1394.98 621.554 L1395.24 622.362 L1395.5 623.171 L1395.75 623.979 L1396.01 624.788 L1396.26 625.596 L1396.52 626.405 L1396.77 627.213 
  L1397.03 628.022 L1397.29 628.83 L1397.54 629.638 L1397.8 630.446 L1398.05 631.255 L1398.31 632.063 L1398.57 632.871 L1398.82 633.679 L1399.08 634.487 L1399.33 635.295 
  L1399.59 636.103 L1399.85 636.911 L1400.1 637.719 L1400.36 638.527 L1400.61 639.335 L1400.87 640.142 L1401.12 640.95 L1401.38 641.758 L1401.64 642.565 L1401.89 643.373 
  L1402.15 644.18 L1402.4 644.988 L1402.66 645.795 L1402.92 646.602 L1403.17 647.409 L1403.43 648.216 L1403.68 649.023 L1403.94 649.83 L1404.2 650.637 L1404.45 651.444 
  L1404.71 652.251 L1404.96 653.057 L1405.22 653.864 L1405.47 654.67 L1405.73 655.477 L1405.99 656.283 L1406.24 657.089 L1406.5 657.896 L1406.75 658.702 L1407.01 659.508 
  L1407.27 660.314 L1407.52 661.119 L1407.78 661.925 L1408.03 662.731 L1408.29 663.536 L1408.55 664.341 L1408.8 665.147 L1409.06 665.952 L1409.31 666.757 L1409.57 667.562 
  L1409.82 668.367 L1410.08 669.172 L1410.34 669.976 L1410.59 670.781 L1410.85 671.585 L1411.1 672.39 L1411.36 673.194 L1411.62 673.998 L1411.87 674.802 L1412.13 675.606 
  L1412.38 676.409 L1412.64 677.213 L1412.9 678.016 L1413.15 678.82 L1413.41 679.623 L1413.66 680.426 L1413.92 681.229 L1414.17 682.032 L1414.43 682.834 L1414.69 683.637 
  L1414.94 684.439 L1415.2 685.242 L1415.45 686.044 L1415.71 686.846 L1415.97 687.648 L1416.22 688.449 L1416.48 689.251 L1416.73 690.052 L1416.99 690.854 L1417.25 691.655 
  L1417.5 692.456 L1417.76 693.256 L1418.01 694.057 L1418.27 694.858 L1418.52 695.658 L1418.78 696.458 L1419.04 697.258 L1419.29 698.058 L1419.55 698.858 L1419.8 699.657 
  L1420.06 700.456 L1420.32 701.256 L1420.57 702.055 L1420.83 702.854 L1421.08 703.652 L1421.34 704.451 L1421.6 705.249 L1421.85 706.047 L1422.11 706.845 L1422.36 707.643 
  L1422.62 708.441 L1422.87 709.238 L1423.13 710.035 L1423.39 710.833 L1423.64 711.629 L1423.9 712.426 L1424.15 713.223 L1424.41 714.019 L1424.67 714.815 L1424.92 715.611 
  L1425.18 716.407 L1425.43 717.202 L1425.69 717.998 L1425.95 718.793 L1426.2 719.588 L1426.46 720.383 L1426.71 721.177 L1426.97 721.972 L1427.22 722.766 L1427.48 723.56 
  L1427.74 724.353 L1427.99 725.147 L1428.25 725.94 L1428.5 726.733 L1428.76 727.526 L1429.02 728.319 L1429.27 729.111 L1429.53 729.904 L1429.78 730.696 L1430.04 731.488 
  L1430.3 732.279 L1430.55 733.071 L1430.81 733.862 L1431.06 734.653 L1431.32 735.443 L1431.57 736.234 L1431.83 737.024 L1432.09 737.814 L1432.34 738.604 L1432.6 739.393 
  L1432.85 740.183 L1433.11 740.972 L1433.37 741.761 L1433.62 742.549 L1433.88 743.338 L1434.13 744.126 L1434.39 744.914 L1434.65 745.701 L1434.9 746.489 L1435.16 747.276 
  L1435.41 748.063 L1435.67 748.849 L1435.92 749.636 L1436.18 750.422 L1436.44 751.208 L1436.69 751.994 L1436.95 752.779 L1437.2 753.564 L1437.46 754.349 L1437.72 755.134 
  L1437.97 755.918 L1438.23 756.702 L1438.48 757.486 L1438.74 758.27 L1439 759.053 L1439.25 759.836 L1439.51 760.619 L1439.76 761.401 L1440.02 762.184 L1440.27 762.965 
  L1440.53 763.747 L1440.79 764.529 L1441.04 765.31 L1441.3 766.091 L1441.55 766.871 L1441.81 767.652 L1442.07 768.432 L1442.32 769.211 L1442.58 769.991 L1442.83 770.77 
  L1443.09 771.549 L1443.35 772.328 L1443.6 773.106 L1443.86 773.884 L1444.11 774.662 L1444.37 775.439 L1444.62 776.216 L1444.88 776.993 L1445.14 777.77 L1445.39 778.546 
  L1445.65 779.322 L1445.9 780.098 L1446.16 780.873 L1446.42 781.649 L1446.67 782.423 L1446.93 783.198 L1447.18 783.972 L1447.44 784.746 L1447.7 785.52 L1447.95 786.293 
  L1448.21 787.066 L1448.46 787.839 L1448.72 788.611 L1448.97 789.383 L1449.23 790.155 L1449.49 790.926 L1449.74 791.697 L1450 792.468 L1450.25 793.238 L1450.51 794.009 
  L1450.77 794.778 L1451.02 795.548 L1451.28 796.317 L1451.53 797.086 L1451.79 797.855 L1452.05 798.623 L1452.3 799.391 L1452.56 800.158 L1452.81 800.925 L1453.07 801.692 
  L1453.32 802.459 L1453.58 803.225 L1453.84 803.991 L1454.09 804.757 L1454.35 805.522 L1454.6 806.287 L1454.86 807.051 L1455.12 807.816 L1455.37 808.579 L1455.63 809.343 
  L1455.88 810.106 L1456.14 810.869 L1456.4 811.632 L1456.65 812.394 L1456.91 813.156 L1457.16 813.917 L1457.42 814.678 L1457.67 815.439 L1457.93 816.199 L1458.19 816.959 
  L1458.44 817.719 L1458.7 818.478 L1458.95 819.238 L1459.21 819.996 L1459.47 820.754 L1459.72 821.512 L1459.98 822.27 L1460.23 823.027 L1460.49 823.784 L1460.75 824.541 
  L1461 825.297 L1461.26 826.052 L1461.51 826.808 L1461.77 827.563 L1462.02 828.318 L1462.28 829.072 L1462.54 829.826 L1462.79 830.579 L1463.05 831.332 L1463.3 832.085 
  L1463.56 832.838 L1463.82 833.59 L1464.07 834.341 L1464.33 835.093 L1464.58 835.844 L1464.84 836.594 L1465.1 837.344 L1465.35 838.094 L1465.61 838.844 L1465.86 839.593 
  L1466.12 840.341 L1466.37 841.089 L1466.63 841.837 L1466.89 842.585 L1467.14 843.332 L1467.4 844.079 L1467.65 844.825 L1467.91 845.571 L1468.17 846.316 L1468.42 847.061 
  L1468.68 847.806 L1468.93 848.551 L1469.19 849.295 L1469.45 850.038 L1469.7 850.781 L1469.96 851.524 L1470.21 852.266 L1470.47 853.008 L1470.72 853.75 L1470.98 854.491 
  L1471.24 855.232 L1471.49 855.972 L1471.75 856.712 L1472 857.451 L1472.26 858.191 L1472.52 858.929 L1472.77 859.668 L1473.03 860.405 L1473.28 861.143 L1473.54 861.88 
  L1473.8 862.617 L1474.05 863.353 L1474.31 864.089 L1474.56 864.824 L1474.82 865.559 L1475.07 866.294 L1475.33 867.028 L1475.59 867.762 L1475.84 868.495 L1476.1 869.228 
  L1476.35 869.96 L1476.61 870.692 L1476.87 871.424 L1477.12 872.155 L1477.38 872.886 L1477.63 873.616 L1477.89 874.346 L1478.15 875.076 L1478.4 875.805 L1478.66 876.533 
  L1478.91 877.262 L1479.17 877.989 L1479.42 878.717 L1479.68 879.444 L1479.94 880.17 L1480.19 880.896 L1480.45 881.622 L1480.7 882.347 L1480.96 883.071 L1481.22 883.796 
  L1481.47 884.52 L1481.73 885.243 L1481.98 885.966 L1482.24 886.688 L1482.5 887.41 L1482.75 888.132 L1483.01 888.853 L1483.26 889.574 L1483.52 890.294 L1483.77 891.014 
  L1484.03 891.734 L1484.29 892.452 L1484.54 893.171 L1484.8 893.889 L1485.05 894.607 L1485.31 895.324 L1485.57 896.04 L1485.82 896.757 L1486.08 897.472 L1486.33 898.188 
  L1486.59 898.903 L1486.85 899.617 L1487.1 900.331 L1487.36 901.044 L1487.61 901.757 L1487.87 902.47 L1488.13 903.182 L1488.38 903.894 L1488.64 904.605 L1488.89 905.316 
  L1489.15 906.026 L1489.4 906.736 L1489.66 907.445 L1489.92 908.154 L1490.17 908.862 L1490.43 909.57 L1490.68 910.277 L1490.94 910.984 L1491.2 911.691 L1491.45 912.397 
  L1491.71 913.103 L1491.96 913.808 L1492.22 914.512 L1492.48 915.216 L1492.73 915.92 L1492.99 916.623 L1493.24 917.326 L1493.5 918.028 L1493.75 918.73 L1494.01 919.431 
  L1494.27 920.132 L1494.52 920.832 L1494.78 921.532 L1495.03 922.232 L1495.29 922.93 L1495.55 923.629 L1495.8 924.327 L1496.06 925.024 L1496.31 925.721 L1496.57 926.417 
  L1496.83 927.113 L1497.08 927.809 L1497.34 928.504 L1497.59 929.198 L1497.85 929.892 L1498.1 930.586 L1498.36 931.279 L1498.62 931.971 L1498.87 932.664 L1499.13 933.355 
  L1499.38 934.046 L1499.64 934.737 L1499.9 935.427 L1500.15 936.116 L1500.41 936.805 L1500.66 937.494 L1500.92 938.182 L1501.18 938.87 L1501.43 939.557 L1501.69 940.243 
  L1501.94 940.929 L1502.2 941.615 L1502.45 942.3 L1502.71 942.985 L1502.97 943.669 L1503.22 944.352 L1503.48 945.035 L1503.73 945.718 L1503.99 946.4 L1504.25 947.081 
  L1504.5 947.762 L1504.76 948.443 L1505.01 949.123 L1505.27 949.803 L1505.53 950.482 L1505.78 951.16 L1506.04 951.838 L1506.29 952.515 L1506.55 953.192 L1506.8 953.869 
  L1507.06 954.545 L1507.32 955.22 L1507.57 955.895 L1507.83 956.57 L1508.08 957.243 L1508.34 957.917 L1508.6 958.59 L1508.85 959.262 L1509.11 959.934 L1509.36 960.605 
  L1509.62 961.276 L1509.88 961.946 L1510.13 962.616 L1510.39 963.285 L1510.64 963.954 L1510.9 964.622 L1511.15 965.289 L1511.41 965.957 L1511.67 966.623 L1511.92 967.289 
  L1512.18 967.955 L1512.43 968.62 L1512.69 969.284 L1512.95 969.948 L1513.2 970.612 L1513.46 971.275 L1513.71 971.937 L1513.97 972.599 L1514.23 973.26 L1514.48 973.921 
  L1514.74 974.581 L1514.99 975.241 L1515.25 975.9 L1515.5 976.559 L1515.76 977.217 L1516.02 977.875 L1516.27 978.532 L1516.53 979.188 L1516.78 979.844 L1517.04 980.5 
  L1517.3 981.155 L1517.55 981.809 L1517.81 982.463 L1518.06 983.116 L1518.32 983.769 L1518.58 984.421 L1518.83 985.073 L1519.09 985.724 L1519.34 986.375 L1519.6 987.025 
  L1519.85 987.674 L1519.85 1420.53 L1519.6 1420.53 L1519.34 1420.53 L1519.09 1420.53 L1518.83 1420.53 L1518.58 1420.53 L1518.32 1420.53 L1518.06 1420.53 L1517.81 1420.53 
  L1517.55 1420.53 L1517.3 1420.53 L1517.04 1420.53 L1516.78 1420.53 L1516.53 1420.53 L1516.27 1420.53 L1516.02 1420.53 L1515.76 1420.53 L1515.5 1420.53 L1515.25 1420.53 
  L1514.99 1420.53 L1514.74 1420.53 L1514.48 1420.53 L1514.23 1420.53 L1513.97 1420.53 L1513.71 1420.53 L1513.46 1420.53 L1513.2 1420.53 L1512.95 1420.53 L1512.69 1420.53 
  L1512.43 1420.53 L1512.18 1420.53 L1511.92 1420.53 L1511.67 1420.53 L1511.41 1420.53 L1511.15 1420.53 L1510.9 1420.53 L1510.64 1420.53 L1510.39 1420.53 L1510.13 1420.53 
  L1509.88 1420.53 L1509.62 1420.53 L1509.36 1420.53 L1509.11 1420.53 L1508.85 1420.53 L1508.6 1420.53 L1508.34 1420.53 L1508.08 1420.53 L1507.83 1420.53 L1507.57 1420.53 
  L1507.32 1420.53 L1507.06 1420.53 L1506.8 1420.53 L1506.55 1420.53 L1506.29 1420.53 L1506.04 1420.53 L1505.78 1420.53 L1505.53 1420.53 L1505.27 1420.53 L1505.01 1420.53 
  L1504.76 1420.53 L1504.5 1420.53 L1504.25 1420.53 L1503.99 1420.53 L1503.73 1420.53 L1503.48 1420.53 L1503.22 1420.53 L1502.97 1420.53 L1502.71 1420.53 L1502.45 1420.53 
  L1502.2 1420.53 L1501.94 1420.53 L1501.69 1420.53 L1501.43 1420.53 L1501.18 1420.53 L1500.92 1420.53 L1500.66 1420.53 L1500.41 1420.53 L1500.15 1420.53 L1499.9 1420.53 
  L1499.64 1420.53 L1499.38 1420.53 L1499.13 1420.53 L1498.87 1420.53 L1498.62 1420.53 L1498.36 1420.53 L1498.1 1420.53 L1497.85 1420.53 L1497.59 1420.53 L1497.34 1420.53 
  L1497.08 1420.53 L1496.83 1420.53 L1496.57 1420.53 L1496.31 1420.53 L1496.06 1420.53 L1495.8 1420.53 L1495.55 1420.53 L1495.29 1420.53 L1495.03 1420.53 L1494.78 1420.53 
  L1494.52 1420.53 L1494.27 1420.53 L1494.01 1420.53 L1493.75 1420.53 L1493.5 1420.53 L1493.24 1420.53 L1492.99 1420.53 L1492.73 1420.53 L1492.48 1420.53 L1492.22 1420.53 
  L1491.96 1420.53 L1491.71 1420.53 L1491.45 1420.53 L1491.2 1420.53 L1490.94 1420.53 L1490.68 1420.53 L1490.43 1420.53 L1490.17 1420.53 L1489.92 1420.53 L1489.66 1420.53 
  L1489.4 1420.53 L1489.15 1420.53 L1488.89 1420.53 L1488.64 1420.53 L1488.38 1420.53 L1488.13 1420.53 L1487.87 1420.53 L1487.61 1420.53 L1487.36 1420.53 L1487.1 1420.53 
  L1486.85 1420.53 L1486.59 1420.53 L1486.33 1420.53 L1486.08 1420.53 L1485.82 1420.53 L1485.57 1420.53 L1485.31 1420.53 L1485.05 1420.53 L1484.8 1420.53 L1484.54 1420.53 
  L1484.29 1420.53 L1484.03 1420.53 L1483.77 1420.53 L1483.52 1420.53 L1483.26 1420.53 L1483.01 1420.53 L1482.75 1420.53 L1482.5 1420.53 L1482.24 1420.53 L1481.98 1420.53 
  L1481.73 1420.53 L1481.47 1420.53 L1481.22 1420.53 L1480.96 1420.53 L1480.7 1420.53 L1480.45 1420.53 L1480.19 1420.53 L1479.94 1420.53 L1479.68 1420.53 L1479.42 1420.53 
  L1479.17 1420.53 L1478.91 1420.53 L1478.66 1420.53 L1478.4 1420.53 L1478.15 1420.53 L1477.89 1420.53 L1477.63 1420.53 L1477.38 1420.53 L1477.12 1420.53 L1476.87 1420.53 
  L1476.61 1420.53 L1476.35 1420.53 L1476.1 1420.53 L1475.84 1420.53 L1475.59 1420.53 L1475.33 1420.53 L1475.07 1420.53 L1474.82 1420.53 L1474.56 1420.53 L1474.31 1420.53 
  L1474.05 1420.53 L1473.8 1420.53 L1473.54 1420.53 L1473.28 1420.53 L1473.03 1420.53 L1472.77 1420.53 L1472.52 1420.53 L1472.26 1420.53 L1472 1420.53 L1471.75 1420.53 
  L1471.49 1420.53 L1471.24 1420.53 L1470.98 1420.53 L1470.72 1420.53 L1470.47 1420.53 L1470.21 1420.53 L1469.96 1420.53 L1469.7 1420.53 L1469.45 1420.53 L1469.19 1420.53 
  L1468.93 1420.53 L1468.68 1420.53 L1468.42 1420.53 L1468.17 1420.53 L1467.91 1420.53 L1467.65 1420.53 L1467.4 1420.53 L1467.14 1420.53 L1466.89 1420.53 L1466.63 1420.53 
  L1466.37 1420.53 L1466.12 1420.53 L1465.86 1420.53 L1465.61 1420.53 L1465.35 1420.53 L1465.1 1420.53 L1464.84 1420.53 L1464.58 1420.53 L1464.33 1420.53 L1464.07 1420.53 
  L1463.82 1420.53 L1463.56 1420.53 L1463.3 1420.53 L1463.05 1420.53 L1462.79 1420.53 L1462.54 1420.53 L1462.28 1420.53 L1462.02 1420.53 L1461.77 1420.53 L1461.51 1420.53 
  L1461.26 1420.53 L1461 1420.53 L1460.75 1420.53 L1460.49 1420.53 L1460.23 1420.53 L1459.98 1420.53 L1459.72 1420.53 L1459.47 1420.53 L1459.21 1420.53 L1458.95 1420.53 
  L1458.7 1420.53 L1458.44 1420.53 L1458.19 1420.53 L1457.93 1420.53 L1457.67 1420.53 L1457.42 1420.53 L1457.16 1420.53 L1456.91 1420.53 L1456.65 1420.53 L1456.4 1420.53 
  L1456.14 1420.53 L1455.88 1420.53 L1455.63 1420.53 L1455.37 1420.53 L1455.12 1420.53 L1454.86 1420.53 L1454.6 1420.53 L1454.35 1420.53 L1454.09 1420.53 L1453.84 1420.53 
  L1453.58 1420.53 L1453.32 1420.53 L1453.07 1420.53 L1452.81 1420.53 L1452.56 1420.53 L1452.3 1420.53 L1452.05 1420.53 L1451.79 1420.53 L1451.53 1420.53 L1451.28 1420.53 
  L1451.02 1420.53 L1450.77 1420.53 L1450.51 1420.53 L1450.25 1420.53 L1450 1420.53 L1449.74 1420.53 L1449.49 1420.53 L1449.23 1420.53 L1448.97 1420.53 L1448.72 1420.53 
  L1448.46 1420.53 L1448.21 1420.53 L1447.95 1420.53 L1447.7 1420.53 L1447.44 1420.53 L1447.18 1420.53 L1446.93 1420.53 L1446.67 1420.53 L1446.42 1420.53 L1446.16 1420.53 
  L1445.9 1420.53 L1445.65 1420.53 L1445.39 1420.53 L1445.14 1420.53 L1444.88 1420.53 L1444.62 1420.53 L1444.37 1420.53 L1444.11 1420.53 L1443.86 1420.53 L1443.6 1420.53 
  L1443.35 1420.53 L1443.09 1420.53 L1442.83 1420.53 L1442.58 1420.53 L1442.32 1420.53 L1442.07 1420.53 L1441.81 1420.53 L1441.55 1420.53 L1441.3 1420.53 L1441.04 1420.53 
  L1440.79 1420.53 L1440.53 1420.53 L1440.27 1420.53 L1440.02 1420.53 L1439.76 1420.53 L1439.51 1420.53 L1439.25 1420.53 L1439 1420.53 L1438.74 1420.53 L1438.48 1420.53 
  L1438.23 1420.53 L1437.97 1420.53 L1437.72 1420.53 L1437.46 1420.53 L1437.2 1420.53 L1436.95 1420.53 L1436.69 1420.53 L1436.44 1420.53 L1436.18 1420.53 L1435.92 1420.53 
  L1435.67 1420.53 L1435.41 1420.53 L1435.16 1420.53 L1434.9 1420.53 L1434.65 1420.53 L1434.39 1420.53 L1434.13 1420.53 L1433.88 1420.53 L1433.62 1420.53 L1433.37 1420.53 
  L1433.11 1420.53 L1432.85 1420.53 L1432.6 1420.53 L1432.34 1420.53 L1432.09 1420.53 L1431.83 1420.53 L1431.57 1420.53 L1431.32 1420.53 L1431.06 1420.53 L1430.81 1420.53 
  L1430.55 1420.53 L1430.3 1420.53 L1430.04 1420.53 L1429.78 1420.53 L1429.53 1420.53 L1429.27 1420.53 L1429.02 1420.53 L1428.76 1420.53 L1428.5 1420.53 L1428.25 1420.53 
  L1427.99 1420.53 L1427.74 1420.53 L1427.48 1420.53 L1427.22 1420.53 L1426.97 1420.53 L1426.71 1420.53 L1426.46 1420.53 L1426.2 1420.53 L1425.95 1420.53 L1425.69 1420.53 
  L1425.43 1420.53 L1425.18 1420.53 L1424.92 1420.53 L1424.67 1420.53 L1424.41 1420.53 L1424.15 1420.53 L1423.9 1420.53 L1423.64 1420.53 L1423.39 1420.53 L1423.13 1420.53 
  L1422.87 1420.53 L1422.62 1420.53 L1422.36 1420.53 L1422.11 1420.53 L1421.85 1420.53 L1421.6 1420.53 L1421.34 1420.53 L1421.08 1420.53 L1420.83 1420.53 L1420.57 1420.53 
  L1420.32 1420.53 L1420.06 1420.53 L1419.8 1420.53 L1419.55 1420.53 L1419.29 1420.53 L1419.04 1420.53 L1418.78 1420.53 L1418.52 1420.53 L1418.27 1420.53 L1418.01 1420.53 
  L1417.76 1420.53 L1417.5 1420.53 L1417.25 1420.53 L1416.99 1420.53 L1416.73 1420.53 L1416.48 1420.53 L1416.22 1420.53 L1415.97 1420.53 L1415.71 1420.53 L1415.45 1420.53 
  L1415.2 1420.53 L1414.94 1420.53 L1414.69 1420.53 L1414.43 1420.53 L1414.17 1420.53 L1413.92 1420.53 L1413.66 1420.53 L1413.41 1420.53 L1413.15 1420.53 L1412.9 1420.53 
  L1412.64 1420.53 L1412.38 1420.53 L1412.13 1420.53 L1411.87 1420.53 L1411.62 1420.53 L1411.36 1420.53 L1411.1 1420.53 L1410.85 1420.53 L1410.59 1420.53 L1410.34 1420.53 
  L1410.08 1420.53 L1409.82 1420.53 L1409.57 1420.53 L1409.31 1420.53 L1409.06 1420.53 L1408.8 1420.53 L1408.55 1420.53 L1408.29 1420.53 L1408.03 1420.53 L1407.78 1420.53 
  L1407.52 1420.53 L1407.27 1420.53 L1407.01 1420.53 L1406.75 1420.53 L1406.5 1420.53 L1406.24 1420.53 L1405.99 1420.53 L1405.73 1420.53 L1405.47 1420.53 L1405.22 1420.53 
  L1404.96 1420.53 L1404.71 1420.53 L1404.45 1420.53 L1404.2 1420.53 L1403.94 1420.53 L1403.68 1420.53 L1403.43 1420.53 L1403.17 1420.53 L1402.92 1420.53 L1402.66 1420.53 
  L1402.4 1420.53 L1402.15 1420.53 L1401.89 1420.53 L1401.64 1420.53 L1401.38 1420.53 L1401.12 1420.53 L1400.87 1420.53 L1400.61 1420.53 L1400.36 1420.53 L1400.1 1420.53 
  L1399.85 1420.53 L1399.59 1420.53 L1399.33 1420.53 L1399.08 1420.53 L1398.82 1420.53 L1398.57 1420.53 L1398.31 1420.53 L1398.05 1420.53 L1397.8 1420.53 L1397.54 1420.53 
  L1397.29 1420.53 L1397.03 1420.53 L1396.77 1420.53 L1396.52 1420.53 L1396.26 1420.53 L1396.01 1420.53 L1395.75 1420.53 L1395.5 1420.53 L1395.24 1420.53 L1394.98 1420.53 
  L1394.73 1420.53 L1394.47 1420.53 L1394.22 1420.53 L1393.96 1420.53 L1393.7 1420.53 L1393.45 1420.53 L1393.19 1420.53 L1392.94 1420.53 L1392.68 1420.53 L1392.42 1420.53 
  L1392.17 1420.53 L1391.91 1420.53  Z
  " fill="#009af9" fill-rule="evenodd" fill-opacity="0.35"/>
<polyline clip-path="url(#clip262)" style="stroke:#009af9; stroke-linecap:butt; stroke-linejoin:round; stroke-width:0; stroke-opacity:1; fill:none" points="
  1391.91,611.85 1392.17,612.659 1392.42,613.467 1392.68,614.276 1392.94,615.085 1393.19,615.893 1393.45,616.702 1393.7,617.511 1393.96,618.319 1394.22,619.128 
  1394.47,619.937 1394.73,620.745 1394.98,621.554 1395.24,622.362 1395.5,623.171 1395.75,623.979 1396.01,624.788 1396.26,625.596 1396.52,626.405 1396.77,627.213 
  1397.03,628.022 1397.29,628.83 1397.54,629.638 1397.8,630.446 1398.05,631.255 1398.31,632.063 1398.57,632.871 1398.82,633.679 1399.08,634.487 1399.33,635.295 
  1399.59,636.103 1399.85,636.911 1400.1,637.719 1400.36,638.527 1400.61,639.335 1400.87,640.142 1401.12,640.95 1401.38,641.758 1401.64,642.565 1401.89,643.373 
  1402.15,644.18 1402.4,644.988 1402.66,645.795 1402.92,646.602 1403.17,647.409 1403.43,648.216 1403.68,649.023 1403.94,649.83 1404.2,650.637 1404.45,651.444 
  1404.71,652.251 1404.96,653.057 1405.22,653.864 1405.47,654.67 1405.73,655.477 1405.99,656.283 1406.24,657.089 1406.5,657.896 1406.75,658.702 1407.01,659.508 
  1407.27,660.314 1407.52,661.119 1407.78,661.925 1408.03,662.731 1408.29,663.536 1408.55,664.341 1408.8,665.147 1409.06,665.952 1409.31,666.757 1409.57,667.562 
  1409.82,668.367 1410.08,669.172 1410.34,669.976 1410.59,670.781 1410.85,671.585 1411.1,672.39 1411.36,673.194 1411.62,673.998 1411.87,674.802 1412.13,675.606 
  1412.38,676.409 1412.64,677.213 1412.9,678.016 1413.15,678.82 1413.41,679.623 1413.66,680.426 1413.92,681.229 1414.17,682.032 1414.43,682.834 1414.69,683.637 
  1414.94,684.439 1415.2,685.242 1415.45,686.044 1415.71,686.846 1415.97,687.648 1416.22,688.449 1416.48,689.251 1416.73,690.052 1416.99,690.854 1417.25,691.655 
  1417.5,692.456 1417.76,693.256 1418.01,694.057 1418.27,694.858 1418.52,695.658 1418.78,696.458 1419.04,697.258 1419.29,698.058 1419.55,698.858 1419.8,699.657 
  1420.06,700.456 1420.32,701.256 1420.57,702.055 1420.83,702.854 1421.08,703.652 1421.34,704.451 1421.6,705.249 1421.85,706.047 1422.11,706.845 1422.36,707.643 
  1422.62,708.441 1422.87,709.238 1423.13,710.035 1423.39,710.833 1423.64,711.629 1423.9,712.426 1424.15,713.223 1424.41,714.019 1424.67,714.815 1424.92,715.611 
  1425.18,716.407 1425.43,717.202 1425.69,717.998 1425.95,718.793 1426.2,719.588 1426.46,720.383 1426.71,721.177 1426.97,721.972 1427.22,722.766 1427.48,723.56 
  1427.74,724.353 1427.99,725.147 1428.25,725.94 1428.5,726.733 1428.76,727.526 1429.02,728.319 1429.27,729.111 1429.53,729.904 1429.78,730.696 1430.04,731.488 
  1430.3,732.279 1430.55,733.071 1430.81,733.862 1431.06,734.653 1431.32,735.443 1431.57,736.234 1431.83,737.024 1432.09,737.814 1432.34,738.604 1432.6,739.393 
  1432.85,740.183 1433.11,740.972 1433.37,741.761 1433.62,742.549 1433.88,743.338 1434.13,744.126 1434.39,744.914 1434.65,745.701 1434.9,746.489 1435.16,747.276 
  1435.41,748.063 1435.67,748.849 1435.92,749.636 1436.18,750.422 1436.44,751.208 1436.69,751.994 1436.95,752.779 1437.2,753.564 1437.46,754.349 1437.72,755.134 
  1437.97,755.918 1438.23,756.702 1438.48,757.486 1438.74,758.27 1439,759.053 1439.25,759.836 1439.51,760.619 1439.76,761.401 1440.02,762.184 1440.27,762.965 
  1440.53,763.747 1440.79,764.529 1441.04,765.31 1441.3,766.091 1441.55,766.871 1441.81,767.652 1442.07,768.432 1442.32,769.211 1442.58,769.991 1442.83,770.77 
  1443.09,771.549 1443.35,772.328 1443.6,773.106 1443.86,773.884 1444.11,774.662 1444.37,775.439 1444.62,776.216 1444.88,776.993 1445.14,777.77 1445.39,778.546 
  1445.65,779.322 1445.9,780.098 1446.16,780.873 1446.42,781.649 1446.67,782.423 1446.93,783.198 1447.18,783.972 1447.44,784.746 1447.7,785.52 1447.95,786.293 
  1448.21,787.066 1448.46,787.839 1448.72,788.611 1448.97,789.383 1449.23,790.155 1449.49,790.926 1449.74,791.697 1450,792.468 1450.25,793.238 1450.51,794.009 
  1450.77,794.778 1451.02,795.548 1451.28,796.317 1451.53,797.086 1451.79,797.855 1452.05,798.623 1452.3,799.391 1452.56,800.158 1452.81,800.925 1453.07,801.692 
  1453.32,802.459 1453.58,803.225 1453.84,803.991 1454.09,804.757 1454.35,805.522 1454.6,806.287 1454.86,807.051 1455.12,807.816 1455.37,808.579 1455.63,809.343 
  1455.88,810.106 1456.14,810.869 1456.4,811.632 1456.65,812.394 1456.91,813.156 1457.16,813.917 1457.42,814.678 1457.67,815.439 1457.93,816.199 1458.19,816.959 
  1458.44,817.719 1458.7,818.478 1458.95,819.238 1459.21,819.996 1459.47,820.754 1459.72,821.512 1459.98,822.27 1460.23,823.027 1460.49,823.784 1460.75,824.541 
  1461,825.297 1461.26,826.052 1461.51,826.808 1461.77,827.563 1462.02,828.318 1462.28,829.072 1462.54,829.826 1462.79,830.579 1463.05,831.332 1463.3,832.085 
  1463.56,832.838 1463.82,833.59 1464.07,834.341 1464.33,835.093 1464.58,835.844 1464.84,836.594 1465.1,837.344 1465.35,838.094 1465.61,838.844 1465.86,839.593 
  1466.12,840.341 1466.37,841.089 1466.63,841.837 1466.89,842.585 1467.14,843.332 1467.4,844.079 1467.65,844.825 1467.91,845.571 1468.17,846.316 1468.42,847.061 
  1468.68,847.806 1468.93,848.551 1469.19,849.295 1469.45,850.038 1469.7,850.781 1469.96,851.524 1470.21,852.266 1470.47,853.008 1470.72,853.75 1470.98,854.491 
  1471.24,855.232 1471.49,855.972 1471.75,856.712 1472,857.451 1472.26,858.191 1472.52,858.929 1472.77,859.668 1473.03,860.405 1473.28,861.143 1473.54,861.88 
  1473.8,862.617 1474.05,863.353 1474.31,864.089 1474.56,864.824 1474.82,865.559 1475.07,866.294 1475.33,867.028 1475.59,867.762 1475.84,868.495 1476.1,869.228 
  1476.35,869.96 1476.61,870.692 1476.87,871.424 1477.12,872.155 1477.38,872.886 1477.63,873.616 1477.89,874.346 1478.15,875.076 1478.4,875.805 1478.66,876.533 
  1478.91,877.262 1479.17,877.989 1479.42,878.717 1479.68,879.444 1479.94,880.17 1480.19,880.896 1480.45,881.622 1480.7,882.347 1480.96,883.071 1481.22,883.796 
  1481.47,884.52 1481.73,885.243 1481.98,885.966 1482.24,886.688 1482.5,887.41 1482.75,888.132 1483.01,888.853 1483.26,889.574 1483.52,890.294 1483.77,891.014 
  1484.03,891.734 1484.29,892.452 1484.54,893.171 1484.8,893.889 1485.05,894.607 1485.31,895.324 1485.57,896.04 1485.82,896.757 1486.08,897.472 1486.33,898.188 
  1486.59,898.903 1486.85,899.617 1487.1,900.331 1487.36,901.044 1487.61,901.757 1487.87,902.47 1488.13,903.182 1488.38,903.894 1488.64,904.605 1488.89,905.316 
  1489.15,906.026 1489.4,906.736 1489.66,907.445 1489.92,908.154 1490.17,908.862 1490.43,909.57 1490.68,910.277 1490.94,910.984 1491.2,911.691 1491.45,912.397 
  1491.71,913.103 1491.96,913.808 1492.22,914.512 1492.48,915.216 1492.73,915.92 1492.99,916.623 1493.24,917.326 1493.5,918.028 1493.75,918.73 1494.01,919.431 
  1494.27,920.132 1494.52,920.832 1494.78,921.532 1495.03,922.232 1495.29,922.93 1495.55,923.629 1495.8,924.327 1496.06,925.024 1496.31,925.721 1496.57,926.417 
  1496.83,927.113 1497.08,927.809 1497.34,928.504 1497.59,929.198 1497.85,929.892 1498.1,930.586 1498.36,931.279 1498.62,931.971 1498.87,932.664 1499.13,933.355 
  1499.38,934.046 1499.64,934.737 1499.9,935.427 1500.15,936.116 1500.41,936.805 1500.66,937.494 1500.92,938.182 1501.18,938.87 1501.43,939.557 1501.69,940.243 
  1501.94,940.929 1502.2,941.615 1502.45,942.3 1502.71,942.985 1502.97,943.669 1503.22,944.352 1503.48,945.035 1503.73,945.718 1503.99,946.4 1504.25,947.081 
  1504.5,947.762 1504.76,948.443 1505.01,949.123 1505.27,949.803 1505.53,950.482 1505.78,951.16 1506.04,951.838 1506.29,952.515 1506.55,953.192 1506.8,953.869 
  1507.06,954.545 1507.32,955.22 1507.57,955.895 1507.83,956.57 1508.08,957.243 1508.34,957.917 1508.6,958.59 1508.85,959.262 1509.11,959.934 1509.36,960.605 
  1509.62,961.276 1509.88,961.946 1510.13,962.616 1510.39,963.285 1510.64,963.954 1510.9,964.622 1511.15,965.289 1511.41,965.957 1511.67,966.623 1511.92,967.289 
  1512.18,967.955 1512.43,968.62 1512.69,969.284 1512.95,969.948 1513.2,970.612 1513.46,971.275 1513.71,971.937 1513.97,972.599 1514.23,973.26 1514.48,973.921 
  1514.74,974.581 1514.99,975.241 1515.25,975.9 1515.5,976.559 1515.76,977.217 1516.02,977.875 1516.27,978.532 1516.53,979.188 1516.78,979.844 1517.04,980.5 
  1517.3,981.155 1517.55,981.809 1517.81,982.463 1518.06,983.116 1518.32,983.769 1518.58,984.421 1518.83,985.073 1519.09,985.724 1519.34,986.375 1519.6,987.025 
  1519.85,987.674 
  "/>
<path clip-path="url(#clip260)" d="M1664.26 722.133 Q1664.26 725.576 1662.5 728.404 Q1660.73 731.192 1657.78 732.995 Q1654.83 734.799 1651.1 735.783 Q1647.41 736.725 1643.35 736.725 L1636.39 736.725 L1636.39 761.811 Q1636.39 763.901 1635.94 764.393 Q1635.48 764.844 1633.43 764.844 L1625.32 764.844 Q1623.27 764.844 1622.78 764.352 Q1622.29 763.86 1622.29 761.811 L1622.29 710.533 Q1622.29 708.525 1622.78 708.033 Q1623.27 707.5 1625.32 707.5 L1643.35 707.5 Q1648.85 707.5 1653.48 709.14 Q1658.15 710.738 1661.18 714.14 Q1664.26 717.542 1664.26 722.133 M1660.9 722.133 Q1660.9 718.485 1658.23 715.862 Q1655.57 713.238 1651.63 712.05 Q1647.7 710.861 1643.19 710.861 L1636.39 710.861 L1636.39 733.364 L1643.19 733.364 Q1646.51 733.364 1649.58 732.667 Q1652.66 731.971 1655.24 730.659 Q1657.82 729.347 1659.34 727.134 Q1660.9 724.92 1660.9 722.133 M1633.03 761.483 L1633.03 710.861 L1625.65 710.861 L1625.65 761.483 L1633.03 761.483 Z" fill="#000000" fill-rule="evenodd" fill-opacity="1" /><path clip-path="url(#clip260)" d="M1675.55 744.39 Q1675.39 744.185 1675.39 743.857 Q1675.39 743.53 1675.51 743.325 Q1675.63 743.12 1675.92 743.038 Q1676.21 742.915 1676.49 742.874 Q1676.78 742.833 1677.39 742.751 Q1678.05 742.669 1678.54 742.587 Q1681.57 742.013 1684.03 739.963 Q1686.53 737.914 1687.03 734.881 Q1687.19 734.061 1687.19 732.421 L1687.19 714.14 Q1687.19 709.795 1689.28 707.254 Q1691.54 704.467 1695.59 703.196 Q1699.69 701.884 1703.42 701.884 Q1704.94 701.884 1704.9 702.827 Q1704.9 703.237 1704.65 703.442 Q1704.41 703.647 1703.95 703.729 Q1703.5 703.811 1702.93 703.893 Q1702.4 703.975 1701.62 704.098 Q1700.88 704.221 1700.22 704.385 Q1693.09 706.721 1693.09 713.648 L1693.09 732.544 Q1693.09 741.357 1683.09 743.857 Q1693.09 746.358 1693.09 754.679 L1693.09 773.329 Q1693.09 775.337 1693.26 776.362 Q1693.83 779.231 1696.41 781.322 Q1699.04 783.412 1702.89 783.822 Q1704.9 784.068 1704.9 784.888 Q1704.9 785.83 1703.5 785.83 Q1697.56 785.83 1692.72 783.248 Q1687.89 780.707 1687.27 775.829 Q1687.19 775.009 1687.19 773.411 L1687.19 755.007 Q1687.19 752.219 1686.04 750.129 Q1684.94 748.038 1683.26 747.055 Q1681.57 746.03 1680.3 745.579 Q1679.07 745.128 1678.05 744.964 Q1677.8 744.964 1677.31 744.923 Q1676.86 744.882 1676.57 744.841 Q1676.29 744.8 1676 744.718 Q1675.71 744.595 1675.55 744.39 Z" fill="#000000" fill-rule="evenodd" fill-opacity="1" /><path clip-path="url(#clip260)" d="M1786.15 708.443 Q1786.15 709.181 1785.86 709.59 Q1785.61 709.959 1785.33 710.041 Q1785.04 710.082 1784.3 710.123 Q1778.44 710.41 1773.64 714.386 Q1772.46 715.411 1769.46 718.608 Q1766.51 721.805 1762.58 726.068 Q1758.68 730.331 1756.43 732.626 L1767.25 758.532 Q1767.7 759.556 1767.86 760.007 Q1768.07 760.417 1768.48 760.95 Q1768.93 761.483 1769.26 761.647 Q1769.63 761.811 1770.41 762.016 Q1771.23 762.18 1772.05 762.221 Q1772.91 762.221 1774.46 762.262 Q1774.96 762.262 1775.16 762.303 Q1775.41 762.303 1775.69 762.549 Q1775.98 762.753 1775.98 763.245 Q1775.98 763.983 1775.65 764.393 Q1775.37 764.762 1775.08 764.803 Q1774.83 764.844 1774.38 764.844 Q1773.32 764.844 1769.71 764.721 Q1766.1 764.598 1765.08 764.598 L1754.5 764.844 Q1753.23 764.844 1753.23 763.819 Q1753.23 763.286 1753.31 762.999 Q1753.44 762.672 1753.72 762.549 Q1754.01 762.385 1754.21 762.344 Q1754.42 762.303 1754.91 762.262 Q1756.43 762.098 1757.58 761.647 Q1758.76 761.155 1759.26 760.663 Q1759.79 760.171 1759.79 759.802 L1759.38 758.614 L1750.89 738.57 L1743.31 746.809 L1734.75 755.867 Q1732.49 758.286 1732.49 759.638 Q1732.49 761.893 1735.85 762.262 Q1736.88 762.344 1736.88 763.163 Q1736.88 763.942 1736.55 764.352 Q1736.26 764.721 1735.97 764.803 Q1735.73 764.844 1735.36 764.844 Q1733.84 764.844 1730.65 764.721 Q1727.49 764.598 1725.93 764.598 Q1724.62 764.598 1721.96 764.721 Q1719.29 764.844 1718.06 764.844 Q1717.57 764.844 1717.28 764.598 Q1717 764.352 1717 764.106 L1716.96 763.901 Q1716.96 763.327 1717.04 762.999 Q1717.16 762.672 1717.49 762.508 Q1717.86 762.344 1718.02 762.344 Q1718.19 762.303 1718.8 762.262 Q1722.28 762.057 1725.24 760.704 Q1728.23 759.351 1731.14 756.195 Q1731.38 755.99 1731.67 755.744 Q1732 755.498 1732.24 755.293 L1749.95 736.233 L1740.03 712.788 Q1739.58 711.722 1739.17 711.271 Q1738.76 710.779 1737.49 710.451 Q1736.22 710.123 1733.76 710.123 Q1733.06 710.123 1732.74 710.082 Q1732.41 710.041 1732.12 709.836 Q1731.83 709.631 1731.83 709.181 Q1731.83 708.402 1732.12 708.033 Q1732.45 707.623 1732.7 707.582 Q1732.98 707.5 1733.35 707.5 Q1734.38 707.5 1738.02 707.623 Q1741.67 707.746 1742.74 707.746 Q1744.5 707.746 1748.03 707.623 Q1751.59 707.5 1753.31 707.5 Q1754.58 707.5 1754.58 708.525 Q1754.58 709.181 1754.3 709.549 Q1754.01 709.918 1753.72 710 Q1753.44 710.082 1752.9 710.123 Q1751.3 710.287 1750.08 710.82 Q1748.89 711.312 1748.39 711.804 Q1747.94 712.255 1747.94 712.542 L1748.35 713.648 L1755.4 730.331 L1769.01 715.739 Q1770.61 713.935 1770.61 712.706 Q1770.61 710.492 1767.25 710.123 Q1766.22 709.959 1766.22 709.181 Q1766.22 708.402 1766.55 708.033 Q1766.88 707.623 1767.13 707.582 Q1767.41 707.5 1767.82 707.5 Q1769.34 707.5 1772.46 707.623 Q1775.61 707.746 1777.17 707.746 Q1778.48 707.746 1781.14 707.623 Q1783.81 707.5 1785.04 707.5 Q1785.53 707.5 1785.82 707.746 Q1786.1 707.951 1786.1 708.197 L1786.15 708.443 Z" fill="#000000" fill-rule="evenodd" fill-opacity="1" /><path clip-path="url(#clip260)" d="M1809.44 751.204 Q1809.44 752.467 1808.4 753.414 Q1807.4 754.332 1806.31 754.332 Q1805.31 754.332 1804.67 753.729 Q1804.07 753.098 1804.07 752.209 Q1804.07 751.032 1805.08 750.057 Q1806.08 749.081 1807.26 749.081 Q1808.23 749.081 1808.83 749.684 Q1809.44 750.286 1809.44 751.204 M1809.95 779.524 Q1809.95 779.753 1809.7 780.672 Q1809.44 781.561 1808.81 782.938 Q1808.2 784.287 1807.37 785.549 Q1806.54 786.812 1805.16 787.701 Q1803.81 788.591 1802.26 788.591 Q1800.17 788.591 1798.79 787.214 Q1797.44 785.836 1797.44 783.77 Q1797.44 782.651 1798.79 779.065 Q1802.69 768.621 1802.84 768.19 Q1803.5 766.555 1803.5 765.12 Q1803.5 764.46 1803.35 764.059 Q1803.21 763.628 1802.92 763.485 Q1802.64 763.313 1802.47 763.284 Q1802.32 763.255 1802.03 763.255 Q1800.34 763.255 1798.76 764.977 Q1797.19 766.698 1796.1 770.543 Q1795.87 771.26 1795.72 771.433 Q1795.58 771.605 1795.15 771.605 Q1794.43 771.576 1794.43 771.002 Q1794.43 770.83 1794.63 770.17 Q1794.83 769.482 1795.21 768.449 Q1795.58 767.387 1796.24 766.297 Q1796.9 765.178 1797.7 764.202 Q1798.53 763.227 1799.71 762.595 Q1800.89 761.964 1802.21 761.964 Q1804.36 761.964 1805.68 763.37 Q1807.03 764.747 1807.03 766.784 Q1807.03 767.903 1806.25 769.883 Q1805.31 772.466 1804.96 773.298 L1802.67 779.467 Q1801.83 781.705 1801.58 782.393 Q1801.35 783.053 1801.15 783.856 Q1800.97 784.631 1800.97 785.349 Q1800.97 786.353 1801.29 786.812 Q1801.63 787.271 1802.38 787.271 Q1804.45 787.271 1805.97 785.234 Q1807.49 783.168 1808.38 780.012 Q1808.4 779.926 1808.43 779.782 Q1808.66 779.065 1808.89 778.979 Q1809.01 778.95 1809.24 778.95 Q1809.95 778.95 1809.95 779.524 Z" fill="#000000" fill-rule="evenodd" fill-opacity="1" /><path clip-path="url(#clip260)" d="M1892.04 765.582 Q1892.54 766.074 1892.54 766.77 Q1892.54 767.467 1892.04 767.959 Q1891.55 768.451 1890.86 768.451 L1874.67 768.451 Q1869.66 768.451 1865.07 766.484 Q1860.52 764.557 1857.24 761.278 Q1853.97 757.999 1852 753.449 Q1850.07 748.858 1850.07 743.857 Q1850.07 738.857 1852 734.307 Q1853.97 729.716 1857.24 726.437 Q1860.52 723.158 1865.07 721.231 Q1869.66 719.264 1874.67 719.264 L1890.86 719.264 Q1891.55 719.264 1892.04 719.756 Q1892.54 720.248 1892.54 720.944 Q1892.54 721.641 1892.04 722.133 Q1891.55 722.625 1890.86 722.625 L1874.67 722.625 Q1866.34 722.625 1860.24 728.323 Q1854.13 733.979 1853.51 742.177 L1890.86 742.177 Q1891.92 742.177 1892.33 743.038 Q1892.78 743.857 1892.33 744.718 Q1891.92 745.538 1890.86 745.538 L1853.51 745.538 Q1854.13 753.736 1860.24 759.433 Q1866.34 765.09 1874.67 765.09 L1890.86 765.09 Q1891.55 765.09 1892.04 765.582 Z" fill="#000000" fill-rule="evenodd" fill-opacity="1" /><path clip-path="url(#clip260)" d="M1990.31 708.443 Q1990.31 710.123 1988.91 710.123 Q1986.45 710.205 1984.77 710.697 Q1983.09 711.148 1982.11 712.05 Q1981.17 712.952 1980.63 713.935 Q1980.14 714.878 1979.81 716.313 L1972.35 746.112 Q1970.22 754.515 1963.34 760.622 Q1956.45 766.688 1948.62 766.688 Q1944.15 766.688 1940.42 764.844 Q1936.73 762.999 1934.44 759.269 Q1932.14 755.539 1932.14 750.58 Q1932.14 748.202 1932.76 745.702 L1937.84 724.961 L1939.73 717.583 Q1941.12 712.132 1941.12 711.64 Q1941.12 710.861 1940.63 710.656 Q1940.18 710.41 1938.87 710.287 L1935.67 710.123 Q1934.68 710.123 1934.27 710.082 Q1933.91 710.041 1933.62 709.836 Q1933.33 709.631 1933.33 709.181 Q1933.33 708.607 1933.46 708.238 Q1933.62 707.828 1933.91 707.705 Q1934.19 707.582 1934.4 707.541 Q1934.6 707.5 1934.93 707.5 L1945.75 707.746 L1956.49 707.5 Q1957.68 707.5 1957.68 708.443 Q1957.68 709.631 1957.15 709.877 Q1956.61 710.123 1954.81 710.123 Q1951.74 710.123 1950.34 710.533 Q1948.99 710.902 1948.58 711.558 Q1948.21 712.173 1947.76 713.976 L1939.6 746.645 Q1939.19 748.284 1938.95 749.924 Q1938.74 751.522 1938.74 752.342 L1938.7 753.162 Q1938.7 758.368 1941.57 761.237 Q1944.48 764.106 1948.95 764.106 Q1955.51 764.106 1961.61 758.901 Q1967.76 753.695 1969.85 745.538 L1977.4 715.575 Q1977.64 714.837 1977.64 713.812 Q1977.64 712.173 1976.41 711.189 Q1975.22 710.164 1971.94 710.123 Q1970.43 710.123 1970.43 709.181 Q1970.43 708.402 1970.71 708.033 Q1971.04 707.623 1971.29 707.582 Q1971.58 707.5 1971.94 707.5 Q1973.34 707.5 1976.29 707.623 Q1979.24 707.746 1980.67 707.746 Q1982.11 707.746 1984.98 707.623 Q1987.85 707.5 1989.24 707.5 Q1989.73 707.5 1989.98 707.746 Q1990.27 707.951 1990.31 708.197 L1990.31 708.443 Z" fill="#000000" fill-rule="evenodd" fill-opacity="1" /><path clip-path="url(#clip260)" d="M1999.65 743.857 Q1999.65 729.675 2004.94 718.239 Q2007.19 713.443 2010.35 709.426 Q2013.5 705.409 2015.59 703.647 Q2017.68 701.884 2018.26 701.884 Q2019.08 701.884 2019.12 702.704 Q2019.12 703.114 2018.01 704.139 Q2004.49 717.911 2004.53 743.857 Q2004.53 769.886 2017.68 783.125 Q2019.12 784.56 2019.12 785.011 Q2019.12 785.83 2018.26 785.83 Q2017.68 785.83 2015.68 784.15 Q2013.67 782.469 2010.55 778.616 Q2007.44 774.763 2005.18 770.05 Q1999.65 758.614 1999.65 743.857 Z" fill="#000000" fill-rule="evenodd" fill-opacity="1" /><path clip-path="url(#clip260)" d="M2073.69 733.282 Q2073.69 735.578 2072.26 736.889 Q2070.82 738.16 2069.18 738.16 Q2067.62 738.16 2066.8 737.258 Q2065.99 736.356 2065.99 735.209 Q2065.99 733.651 2067.13 732.298 Q2068.28 730.946 2070 730.659 Q2068.32 729.593 2065.82 729.593 Q2064.18 729.593 2062.75 730.454 Q2061.35 731.315 2060.49 732.421 Q2059.67 733.528 2058.93 735.127 Q2058.24 736.684 2057.95 737.627 Q2057.71 738.529 2057.5 739.513 L2054.63 750.99 Q2053.24 756.441 2053.24 758.368 Q2053.24 760.745 2054.39 762.344 Q2055.53 763.901 2057.83 763.901 Q2058.73 763.901 2059.75 763.655 Q2060.78 763.368 2062.09 762.631 Q2063.44 761.852 2064.63 760.704 Q2065.86 759.515 2067.05 757.507 Q2068.24 755.498 2069.02 752.916 Q2069.26 752.014 2070.08 752.014 Q2071.11 752.014 2071.11 752.834 Q2071.11 753.531 2070.53 755.007 Q2070 756.441 2068.81 758.327 Q2067.67 760.171 2066.15 761.852 Q2064.63 763.491 2062.38 764.639 Q2060.12 765.787 2057.66 765.787 Q2054.14 765.787 2051.8 763.901 Q2049.47 762.016 2048.61 759.392 Q2048.4 759.761 2048.11 760.253 Q2047.83 760.745 2046.97 761.852 Q2046.15 762.917 2045.2 763.737 Q2044.26 764.516 2042.79 765.131 Q2041.35 765.787 2039.79 765.787 Q2037.83 765.787 2036.06 765.213 Q2034.34 764.639 2033.11 763.327 Q2031.88 762.016 2031.88 760.212 Q2031.88 758.204 2033.23 756.81 Q2034.63 755.375 2036.51 755.375 Q2037.7 755.375 2038.65 756.072 Q2039.63 756.769 2039.63 758.286 Q2039.63 759.966 2038.48 761.237 Q2037.33 762.508 2035.69 762.835 Q2037.37 763.901 2039.87 763.901 Q2042.58 763.901 2044.71 761.524 Q2046.84 759.146 2047.87 755.17 Q2050.41 745.62 2051.39 741.357 Q2052.38 737.053 2052.38 735.209 Q2052.38 733.487 2051.93 732.298 Q2051.47 731.11 2050.7 730.577 Q2049.96 730.003 2049.26 729.798 Q2048.61 729.593 2047.87 729.593 Q2046.64 729.593 2045.24 730.085 Q2043.89 730.577 2042.25 731.725 Q2040.65 732.831 2039.14 735.127 Q2037.62 737.422 2036.6 740.578 Q2036.39 741.521 2035.49 741.521 Q2034.51 741.48 2034.51 740.66 Q2034.51 739.963 2035.04 738.529 Q2035.61 737.053 2036.76 735.209 Q2037.95 733.364 2039.46 731.725 Q2041.02 730.044 2043.28 728.896 Q2045.57 727.749 2048.03 727.749 Q2049.14 727.749 2050.2 727.995 Q2051.31 728.2 2052.62 728.814 Q2053.98 729.429 2055.16 730.782 Q2056.35 732.135 2057.09 734.102 Q2057.58 733.159 2058.24 732.257 Q2058.93 731.356 2060 730.249 Q2061.11 729.101 2062.62 728.445 Q2064.18 727.749 2065.9 727.749 Q2067.58 727.749 2069.22 728.2 Q2070.86 728.609 2072.26 729.962 Q2073.69 731.274 2073.69 733.282 Z" fill="#000000" fill-rule="evenodd" fill-opacity="1" /><path clip-path="url(#clip260)" d="M2097.25 752.142 Q2097.25 753.404 2096.22 754.351 Q2095.22 755.269 2094.13 755.269 Q2093.12 755.269 2092.49 754.667 Q2091.89 754.036 2091.89 753.146 Q2091.89 751.97 2092.89 750.994 Q2093.9 750.019 2095.07 750.019 Q2096.05 750.019 2096.65 750.621 Q2097.25 751.224 2097.25 752.142 M2097.77 780.461 Q2097.77 780.691 2097.51 781.609 Q2097.25 782.499 2096.62 783.876 Q2096.02 785.224 2095.19 786.487 Q2094.36 787.749 2092.98 788.639 Q2091.63 789.528 2090.08 789.528 Q2087.99 789.528 2086.61 788.151 Q2085.26 786.774 2085.26 784.708 Q2085.26 783.589 2086.61 780.002 Q2090.51 769.558 2090.66 769.128 Q2091.32 767.492 2091.32 766.058 Q2091.32 765.398 2091.17 764.996 Q2091.03 764.566 2090.74 764.422 Q2090.45 764.25 2090.28 764.221 Q2090.14 764.193 2089.85 764.193 Q2088.16 764.193 2086.58 765.914 Q2085 767.636 2083.91 771.481 Q2083.68 772.198 2083.54 772.37 Q2083.4 772.542 2082.97 772.542 Q2082.25 772.514 2082.25 771.94 Q2082.25 771.768 2082.45 771.108 Q2082.65 770.419 2083.02 769.386 Q2083.4 768.324 2084.06 767.234 Q2084.72 766.115 2085.52 765.14 Q2086.35 764.164 2087.53 763.533 Q2088.7 762.902 2090.02 762.902 Q2092.18 762.902 2093.5 764.308 Q2094.84 765.685 2094.84 767.722 Q2094.84 768.841 2094.07 770.821 Q2093.12 773.403 2092.78 774.235 L2090.48 780.404 Q2089.65 782.642 2089.39 783.331 Q2089.16 783.991 2088.96 784.794 Q2088.79 785.569 2088.79 786.286 Q2088.79 787.29 2089.11 787.749 Q2089.45 788.208 2090.2 788.208 Q2092.26 788.208 2093.78 786.171 Q2095.3 784.105 2096.19 780.949 Q2096.22 780.863 2096.25 780.72 Q2096.48 780.002 2096.71 779.916 Q2096.82 779.888 2097.05 779.888 Q2097.77 779.888 2097.77 780.461 Z" fill="#000000" fill-rule="evenodd" fill-opacity="1" /><path clip-path="url(#clip260)" d="M2111.27 785.011 Q2111.27 784.601 2112.34 783.576 Q2125.86 769.804 2125.86 743.857 Q2125.86 717.829 2112.87 704.672 Q2111.27 703.155 2111.27 702.704 Q2111.27 701.884 2112.09 701.884 Q2112.66 701.884 2114.67 703.565 Q2116.72 705.246 2119.8 709.099 Q2122.91 712.952 2125.21 717.665 Q2130.74 729.101 2130.74 743.857 Q2130.74 758.04 2125.45 769.476 Q2123.2 774.271 2120.04 778.288 Q2116.89 782.305 2114.8 784.068 Q2112.71 785.83 2112.09 785.83 Q2111.27 785.83 2111.27 785.011 Z" fill="#000000" fill-rule="evenodd" fill-opacity="1" /><path clip-path="url(#clip260)" d="M2143.5 784.888 Q2143.5 784.314 2144.04 784.15 Q2144.57 783.986 2145.88 783.822 Q2147.19 783.658 2148.18 783.33 Q2155.31 780.994 2155.31 774.067 L2155.31 755.17 Q2155.31 746.358 2165.31 743.857 Q2155.31 741.357 2155.31 733.118 L2155.31 714.386 Q2155.31 712.378 2155.14 711.353 Q2154.57 708.484 2151.95 706.393 Q2149.37 704.303 2145.51 703.893 Q2145.43 703.893 2145.02 703.852 Q2144.65 703.811 2144.49 703.77 Q2144.32 703.729 2144.04 703.647 Q2143.75 703.565 2143.63 703.36 Q2143.5 703.155 2143.5 702.909 Q2143.5 701.884 2144.9 701.884 Q2150.84 701.884 2155.68 704.467 Q2160.51 707.008 2161.13 711.886 Q2161.21 712.706 2161.21 714.304 L2161.21 732.708 Q2161.21 735.496 2162.28 737.586 Q2163.38 739.677 2165.11 740.701 Q2166.83 741.685 2167.97 742.136 Q2169.16 742.587 2170.35 742.751 Q2170.6 742.751 2171.05 742.792 Q2171.54 742.833 2171.83 742.956 Q2172.11 743.038 2172.4 743.12 Q2172.69 743.202 2172.85 743.407 Q2173.02 743.612 2173.02 743.857 Q2173.02 744.185 2172.89 744.39 Q2172.77 744.595 2172.44 744.718 Q2172.11 744.8 2171.75 744.841 Q2171.42 744.882 2170.84 744.964 Q2170.27 745.046 2169.78 745.128 Q2166.74 745.702 2164.29 747.71 Q2161.87 749.719 2161.38 752.834 Q2161.21 753.654 2161.21 755.293 L2161.21 773.575 Q2161.21 775.255 2161.05 776.239 Q2160.92 777.264 2159.94 779.067 Q2159 780.871 2157.15 782.305 Q2152.36 785.83 2144.98 785.83 Q2143.5 785.83 2143.5 784.888 Z" fill="#000000" fill-rule="evenodd" fill-opacity="1" /><path clip-path="url(#clip260)" d="M1636.51 840.976 Q1636.59 839.952 1638.19 839.952 L1689.63 839.952 Q1692.05 839.952 1692.09 840.894 Q1692.09 841.919 1689.8 841.878 L1638.77 841.878 Q1636.51 841.919 1636.51 840.976 M1636.51 824.581 Q1636.51 823.556 1638.28 823.597 L1689.55 823.597 Q1692.05 823.597 1692.09 824.581 Q1692.09 825.523 1689.96 825.523 L1638.19 825.523 Q1636.51 825.523 1636.51 824.581 Z" fill="#000000" fill-rule="evenodd" fill-opacity="1" /><path clip-path="url(#clip260)" d="M1766.32 800.315 Q1766.32 802.569 1764.89 803.963 Q1763.49 805.357 1761.73 805.357 Q1760.46 805.357 1759.52 804.578 Q1758.62 803.799 1758.62 802.446 Q1758.62 801.053 1759.68 799.577 Q1760.75 798.102 1763.17 797.897 Q1761.57 796.38 1759.03 796.38 Q1757.76 796.38 1756.69 797.2 Q1755.67 797.979 1755.09 799.249 Q1754.48 800.561 1753.08 807.98 Q1752.63 810.398 1752.22 812.735 Q1751.81 815.071 1751.32 817.53 L1758.29 817.53 Q1759.19 817.53 1759.56 817.571 Q1759.93 817.612 1760.22 817.817 Q1760.54 818.022 1760.54 818.473 Q1760.54 819.621 1760.01 819.908 Q1759.52 820.154 1758.04 820.154 L1750.83 820.154 L1745.79 846.756 Q1745.66 847.535 1745.13 849.994 Q1744.64 852.412 1743.45 856.388 Q1742.26 860.405 1741.07 862.783 Q1740.42 864.135 1739.56 865.406 Q1738.74 866.718 1737.55 868.029 Q1736.36 869.341 1734.8 870.12 Q1733.24 870.939 1731.6 870.939 Q1728.82 870.939 1726.65 869.382 Q1724.47 867.824 1724.47 865.16 Q1724.47 862.906 1725.87 861.512 Q1727.3 860.118 1729.06 860.118 Q1730.33 860.118 1731.24 860.897 Q1732.18 861.676 1732.18 863.029 Q1732.18 863.602 1731.97 864.258 Q1731.77 864.914 1731.32 865.652 Q1730.87 866.431 1729.88 866.963 Q1728.9 867.496 1727.55 867.578 Q1729.15 869.095 1731.6 869.095 Q1732.38 869.095 1733.08 868.767 Q1733.78 868.48 1734.35 867.742 Q1734.97 867.004 1735.42 866.267 Q1735.87 865.57 1736.32 864.217 Q1736.77 862.906 1737.06 861.922 Q1737.34 860.938 1737.71 859.176 Q1738.12 857.413 1738.33 856.347 Q1738.53 855.323 1738.9 853.314 L1745.17 820.154 L1739.64 820.154 Q1738.66 820.154 1738.25 820.113 Q1737.88 820.072 1737.59 819.867 Q1737.3 819.621 1737.3 819.129 Q1737.3 818.35 1737.63 818.022 Q1738 817.653 1738.41 817.612 Q1738.82 817.53 1739.8 817.53 L1745.62 817.53 Q1747.59 807.16 1748.37 804.373 Q1749.27 801.422 1750.66 799.372 Q1752.06 797.282 1753.62 796.298 Q1755.17 795.314 1756.44 794.945 Q1757.76 794.535 1759.03 794.535 Q1761.9 794.535 1764.11 796.093 Q1766.32 797.61 1766.32 800.315 Z" fill="#000000" fill-rule="evenodd" fill-opacity="1" /><path clip-path="url(#clip260)" d="M1823.3 855.145 Q1823.3 855.661 1823.1 855.948 Q1822.93 856.206 1822.73 856.264 Q1822.53 856.292 1822.01 856.321 Q1817.91 856.522 1814.55 859.305 Q1813.72 860.022 1811.63 862.26 Q1809.56 864.498 1806.81 867.482 Q1804.08 870.466 1802.5 872.073 L1810.08 890.207 Q1810.39 890.924 1810.51 891.24 Q1810.65 891.527 1810.94 891.9 Q1811.25 892.273 1811.48 892.387 Q1811.74 892.502 1812.29 892.646 Q1812.86 892.761 1813.43 892.789 Q1814.04 892.789 1815.13 892.818 Q1815.47 892.818 1815.61 892.847 Q1815.79 892.847 1815.99 893.019 Q1816.19 893.162 1816.19 893.507 Q1816.19 894.023 1815.96 894.31 Q1815.76 894.568 1815.56 894.597 Q1815.38 894.626 1815.07 894.626 Q1814.32 894.626 1811.8 894.539 Q1809.27 894.453 1808.56 894.453 L1801.15 894.626 Q1800.26 894.626 1800.26 893.908 Q1800.26 893.535 1800.32 893.334 Q1800.41 893.105 1800.61 893.019 Q1800.81 892.904 1800.95 892.875 Q1801.1 892.847 1801.44 892.818 Q1802.5 892.703 1803.3 892.387 Q1804.14 892.043 1804.48 891.699 Q1804.85 891.355 1804.85 891.096 L1804.57 890.264 L1798.63 876.234 L1793.32 882.001 L1787.32 888.342 Q1785.74 890.035 1785.74 890.982 Q1785.74 892.56 1788.1 892.818 Q1788.81 892.875 1788.81 893.449 Q1788.81 893.994 1788.59 894.281 Q1788.38 894.539 1788.18 894.597 Q1788.01 894.626 1787.75 894.626 Q1786.69 894.626 1784.45 894.539 Q1782.24 894.453 1781.15 894.453 Q1780.24 894.453 1778.37 894.539 Q1776.51 894.626 1775.64 894.626 Q1775.3 894.626 1775.1 894.453 Q1774.9 894.281 1774.9 894.109 L1774.87 893.966 Q1774.87 893.564 1774.93 893.334 Q1775.01 893.105 1775.24 892.99 Q1775.5 892.875 1775.62 892.875 Q1775.73 892.847 1776.16 892.818 Q1778.6 892.674 1780.67 891.728 Q1782.76 890.781 1784.8 888.571 Q1784.97 888.428 1785.17 888.256 Q1785.4 888.084 1785.57 887.94 L1797.97 874.598 L1791.02 858.186 Q1790.71 857.44 1790.42 857.124 Q1790.13 856.78 1789.25 856.551 Q1788.36 856.321 1786.63 856.321 Q1786.15 856.321 1785.92 856.292 Q1785.69 856.264 1785.49 856.12 Q1785.29 855.977 1785.29 855.661 Q1785.29 855.116 1785.49 854.858 Q1785.72 854.571 1785.89 854.542 Q1786.09 854.485 1786.35 854.485 Q1787.06 854.485 1789.62 854.571 Q1792.17 854.657 1792.92 854.657 Q1794.15 854.657 1796.62 854.571 Q1799.12 854.485 1800.32 854.485 Q1801.21 854.485 1801.21 855.202 Q1801.21 855.661 1801.01 855.919 Q1800.81 856.178 1800.61 856.235 Q1800.41 856.292 1800.03 856.321 Q1798.91 856.436 1798.05 856.809 Q1797.22 857.153 1796.88 857.497 Q1796.56 857.813 1796.56 858.014 L1796.85 858.789 L1801.78 870.466 L1811.31 860.252 Q1812.43 858.989 1812.43 858.129 Q1812.43 856.579 1810.08 856.321 Q1809.36 856.206 1809.36 855.661 Q1809.36 855.116 1809.59 854.858 Q1809.82 854.571 1809.99 854.542 Q1810.19 854.485 1810.48 854.485 Q1811.54 854.485 1813.72 854.571 Q1815.93 854.657 1817.02 854.657 Q1817.94 854.657 1819.8 854.571 Q1821.67 854.485 1822.53 854.485 Q1822.87 854.485 1823.07 854.657 Q1823.27 854.8 1823.27 854.972 L1823.3 855.145 Z" fill="#000000" fill-rule="evenodd" fill-opacity="1" /><path clip-path="url(#clip260)" d="M1832 832.737 Q1832 818.555 1837.29 807.119 Q1839.54 802.323 1842.7 798.306 Q1845.85 794.289 1847.94 792.527 Q1850.03 790.764 1850.61 790.764 Q1851.43 790.764 1851.47 791.584 Q1851.47 791.994 1850.36 793.019 Q1836.83 806.791 1836.88 832.737 Q1836.88 858.766 1850.03 872.005 Q1851.47 873.44 1851.47 873.891 Q1851.47 874.71 1850.61 874.71 Q1850.03 874.71 1848.02 873.03 Q1846.02 871.349 1842.9 867.496 Q1839.79 863.643 1837.53 858.93 Q1832 847.494 1832 832.737 Z" fill="#000000" fill-rule="evenodd" fill-opacity="1" /><path clip-path="url(#clip260)" d="M1906.04 822.162 Q1906.04 824.458 1904.61 825.769 Q1903.17 827.04 1901.53 827.04 Q1899.97 827.04 1899.15 826.138 Q1898.33 825.236 1898.33 824.089 Q1898.33 822.531 1899.48 821.178 Q1900.63 819.826 1902.35 819.539 Q1900.67 818.473 1898.17 818.473 Q1896.53 818.473 1895.1 819.334 Q1893.7 820.195 1892.84 821.301 Q1892.02 822.408 1891.28 824.007 Q1890.59 825.564 1890.3 826.507 Q1890.05 827.409 1889.85 828.393 L1886.98 839.87 Q1885.59 845.321 1885.59 847.248 Q1885.59 849.625 1886.73 851.224 Q1887.88 852.781 1890.18 852.781 Q1891.08 852.781 1892.1 852.535 Q1893.13 852.248 1894.44 851.511 Q1895.79 850.732 1896.98 849.584 Q1898.21 848.395 1899.4 846.387 Q1900.59 844.378 1901.37 841.796 Q1901.61 840.894 1902.43 840.894 Q1903.46 840.894 1903.46 841.714 Q1903.46 842.411 1902.88 843.887 Q1902.35 845.321 1901.16 847.207 Q1900.01 849.051 1898.5 850.732 Q1896.98 852.371 1894.73 853.519 Q1892.47 854.667 1890.01 854.667 Q1886.49 854.667 1884.15 852.781 Q1881.82 850.896 1880.95 848.272 Q1880.75 848.641 1880.46 849.133 Q1880.18 849.625 1879.31 850.732 Q1878.49 851.797 1877.55 852.617 Q1876.61 853.396 1875.13 854.011 Q1873.7 854.667 1872.14 854.667 Q1870.17 854.667 1868.41 854.093 Q1866.69 853.519 1865.46 852.207 Q1864.23 850.896 1864.23 849.092 Q1864.23 847.084 1865.58 845.69 Q1866.98 844.255 1868.86 844.255 Q1870.05 844.255 1870.99 844.952 Q1871.98 845.649 1871.98 847.166 Q1871.98 848.846 1870.83 850.117 Q1869.68 851.388 1868.04 851.715 Q1869.72 852.781 1872.22 852.781 Q1874.93 852.781 1877.06 850.404 Q1879.19 848.026 1880.22 844.05 Q1882.76 834.5 1883.74 830.237 Q1884.73 825.933 1884.73 824.089 Q1884.73 822.367 1884.27 821.178 Q1883.82 819.99 1883.04 819.457 Q1882.31 818.883 1881.61 818.678 Q1880.95 818.473 1880.22 818.473 Q1878.99 818.473 1877.59 818.965 Q1876.24 819.457 1874.6 820.605 Q1873 821.711 1871.49 824.007 Q1869.97 826.302 1868.94 829.458 Q1868.74 830.401 1867.84 830.401 Q1866.85 830.36 1866.85 829.54 Q1866.85 828.843 1867.39 827.409 Q1867.96 825.933 1869.11 824.089 Q1870.3 822.244 1871.81 820.605 Q1873.37 818.924 1875.63 817.776 Q1877.92 816.629 1880.38 816.629 Q1881.49 816.629 1882.55 816.875 Q1883.66 817.08 1884.97 817.694 Q1886.32 818.309 1887.51 819.662 Q1888.7 821.015 1889.44 822.982 Q1889.93 822.039 1890.59 821.137 Q1891.28 820.236 1892.35 819.129 Q1893.46 817.981 1894.97 817.325 Q1896.53 816.629 1898.25 816.629 Q1899.93 816.629 1901.57 817.08 Q1903.21 817.489 1904.61 818.842 Q1906.04 820.154 1906.04 822.162 Z" fill="#000000" fill-rule="evenodd" fill-opacity="1" /><path clip-path="url(#clip260)" d="M1929.6 841.022 Q1929.6 842.284 1928.57 843.231 Q1927.57 844.149 1926.48 844.149 Q1925.47 844.149 1924.84 843.547 Q1924.24 842.916 1924.24 842.026 Q1924.24 840.85 1925.24 839.874 Q1926.25 838.899 1927.42 838.899 Q1928.4 838.899 1929 839.501 Q1929.6 840.104 1929.6 841.022 M1930.12 869.341 Q1930.12 869.571 1929.86 870.489 Q1929.6 871.379 1928.97 872.756 Q1928.37 874.104 1927.54 875.367 Q1926.71 876.629 1925.33 877.519 Q1923.98 878.408 1922.43 878.408 Q1920.34 878.408 1918.96 877.031 Q1917.61 875.654 1917.61 873.588 Q1917.61 872.469 1918.96 868.882 Q1922.86 858.438 1923 858.008 Q1923.66 856.372 1923.66 854.938 Q1923.66 854.278 1923.52 853.876 Q1923.38 853.446 1923.09 853.302 Q1922.8 853.13 1922.63 853.101 Q1922.49 853.073 1922.2 853.073 Q1920.51 853.073 1918.93 854.794 Q1917.35 856.516 1916.26 860.361 Q1916.03 861.078 1915.89 861.25 Q1915.74 861.422 1915.31 861.422 Q1914.6 861.394 1914.6 860.82 Q1914.6 860.648 1914.8 859.988 Q1915 859.299 1915.37 858.266 Q1915.74 857.204 1916.4 856.114 Q1917.06 854.995 1917.87 854.02 Q1918.7 853.044 1919.88 852.413 Q1921.05 851.782 1922.37 851.782 Q1924.52 851.782 1925.84 853.188 Q1927.19 854.565 1927.19 856.602 Q1927.19 857.721 1926.42 859.701 Q1925.47 862.283 1925.13 863.115 L1922.83 869.284 Q1922 871.522 1921.74 872.211 Q1921.51 872.871 1921.31 873.674 Q1921.14 874.449 1921.14 875.166 Q1921.14 876.17 1921.45 876.629 Q1921.8 877.088 1922.54 877.088 Q1924.61 877.088 1926.13 875.051 Q1927.65 872.985 1928.54 869.829 Q1928.57 869.743 1928.6 869.6 Q1928.83 868.882 1929.06 868.796 Q1929.17 868.768 1929.4 868.768 Q1930.12 868.768 1930.12 869.341 Z" fill="#000000" fill-rule="evenodd" fill-opacity="1" /><path clip-path="url(#clip260)" d="M1943.62 873.891 Q1943.62 873.481 1944.69 872.456 Q1958.21 858.684 1958.21 832.737 Q1958.21 806.709 1945.22 793.552 Q1943.62 792.035 1943.62 791.584 Q1943.62 790.764 1944.44 790.764 Q1945.01 790.764 1947.02 792.445 Q1949.07 794.126 1952.15 797.979 Q1955.26 801.832 1957.56 806.545 Q1963.09 817.981 1963.09 832.737 Q1963.09 846.92 1957.8 858.356 Q1955.55 863.151 1952.39 867.168 Q1949.23 871.185 1947.14 872.948 Q1945.05 874.71 1944.44 874.71 Q1943.62 874.71 1943.62 873.891 Z" fill="#000000" fill-rule="evenodd" fill-opacity="1" /><path clip-path="url(#clip260)" d="M2006.73 829.622 Q2008.04 830.934 2008.04 832.737 Q2008.04 834.541 2006.73 835.894 Q2005.41 837.205 2003.61 837.205 Q2001.81 837.205 2000.45 835.894 Q1999.14 834.541 1999.14 832.737 Q1999.14 830.934 2000.45 829.622 Q2001.81 828.27 2003.61 828.27 Q2005.41 828.27 2006.73 829.622 Z" fill="#000000" fill-rule="evenodd" fill-opacity="1" /><path clip-path="url(#clip260)" d="M2045.53 852.904 Q2045.53 852.576 2046.64 850.445 Q2047.75 848.272 2051.64 840.525 Q2055.53 832.737 2059.55 824.581 L2074.02 795.478 Q2075.05 793.634 2076.36 793.634 Q2077.55 793.634 2078.08 794.371 Q2078.61 795.109 2081.07 800.069 Q2082.34 802.487 2083.08 804.045 L2106.81 851.552 Q2107.22 852.576 2107.26 852.904 Q2107.26 853.724 2105.83 853.724 L2047.75 853.724 Q2045.53 853.724 2045.53 852.904 M2051.07 847.33 L2096.24 847.33 L2073.65 801.995 L2051.07 847.33 Z" fill="#000000" fill-rule="evenodd" fill-opacity="1" /><path clip-path="url(#clip260)" d="M2156.56 822.162 Q2156.56 824.458 2155.12 825.769 Q2153.69 827.04 2152.05 827.04 Q2150.49 827.04 2149.67 826.138 Q2148.85 825.236 2148.85 824.089 Q2148.85 822.531 2150 821.178 Q2151.15 819.826 2152.87 819.539 Q2151.19 818.473 2148.69 818.473 Q2147.05 818.473 2145.61 819.334 Q2144.22 820.195 2143.36 821.301 Q2142.54 822.408 2141.8 824.007 Q2141.11 825.564 2140.82 826.507 Q2140.57 827.409 2140.37 828.393 L2137.5 839.87 Q2136.1 845.321 2136.1 847.248 Q2136.1 849.625 2137.25 851.224 Q2138.4 852.781 2140.7 852.781 Q2141.6 852.781 2142.62 852.535 Q2143.65 852.248 2144.96 851.511 Q2146.31 850.732 2147.5 849.584 Q2148.73 848.395 2149.92 846.387 Q2151.11 844.378 2151.89 841.796 Q2152.13 840.894 2152.95 840.894 Q2153.98 840.894 2153.98 841.714 Q2153.98 842.411 2153.4 843.887 Q2152.87 845.321 2151.68 847.207 Q2150.53 849.051 2149.02 850.732 Q2147.5 852.371 2145.25 853.519 Q2142.99 854.667 2140.53 854.667 Q2137.01 854.667 2134.67 852.781 Q2132.33 850.896 2131.47 848.272 Q2131.27 848.641 2130.98 849.133 Q2130.69 849.625 2129.83 850.732 Q2129.01 851.797 2128.07 852.617 Q2127.13 853.396 2125.65 854.011 Q2124.22 854.667 2122.66 854.667 Q2120.69 854.667 2118.93 854.093 Q2117.21 853.519 2115.98 852.207 Q2114.75 850.896 2114.75 849.092 Q2114.75 847.084 2116.1 845.69 Q2117.5 844.255 2119.38 844.255 Q2120.57 844.255 2121.51 844.952 Q2122.5 845.649 2122.5 847.166 Q2122.5 848.846 2121.35 850.117 Q2120.2 851.388 2118.56 851.715 Q2120.24 852.781 2122.74 852.781 Q2125.45 852.781 2127.58 850.404 Q2129.71 848.026 2130.73 844.05 Q2133.28 834.5 2134.26 830.237 Q2135.24 825.933 2135.24 824.089 Q2135.24 822.367 2134.79 821.178 Q2134.34 819.99 2133.56 819.457 Q2132.83 818.883 2132.13 818.678 Q2131.47 818.473 2130.73 818.473 Q2129.51 818.473 2128.11 818.965 Q2126.76 819.457 2125.12 820.605 Q2123.52 821.711 2122 824.007 Q2120.49 826.302 2119.46 829.458 Q2119.26 830.401 2118.36 830.401 Q2117.37 830.36 2117.37 829.54 Q2117.37 828.843 2117.91 827.409 Q2118.48 825.933 2119.63 824.089 Q2120.82 822.244 2122.33 820.605 Q2123.89 818.924 2126.14 817.776 Q2128.44 816.629 2130.9 816.629 Q2132.01 816.629 2133.07 816.875 Q2134.18 817.08 2135.49 817.694 Q2136.84 818.309 2138.03 819.662 Q2139.22 821.015 2139.96 822.982 Q2140.45 822.039 2141.11 821.137 Q2141.8 820.236 2142.87 819.129 Q2143.97 817.981 2145.49 817.325 Q2147.05 816.629 2148.77 816.629 Q2150.45 816.629 2152.09 817.08 Q2153.73 817.489 2155.12 818.842 Q2156.56 820.154 2156.56 822.162 Z" fill="#000000" fill-rule="evenodd" fill-opacity="1" /><path clip-path="url(#clip260)" d="M2180.12 841.022 Q2180.12 842.284 2179.09 843.231 Q2178.08 844.149 2176.99 844.149 Q2175.99 844.149 2175.36 843.547 Q2174.76 842.916 2174.76 842.026 Q2174.76 840.85 2175.76 839.874 Q2176.76 838.899 2177.94 838.899 Q2178.92 838.899 2179.52 839.501 Q2180.12 840.104 2180.12 841.022 M2180.64 869.341 Q2180.64 869.571 2180.38 870.489 Q2180.12 871.379 2179.49 872.756 Q2178.89 874.104 2178.06 875.367 Q2177.22 876.629 2175.85 877.519 Q2174.5 878.408 2172.95 878.408 Q2170.85 878.408 2169.48 877.031 Q2168.13 875.654 2168.13 873.588 Q2168.13 872.469 2169.48 868.882 Q2173.38 858.438 2173.52 858.008 Q2174.18 856.372 2174.18 854.938 Q2174.18 854.278 2174.04 853.876 Q2173.9 853.446 2173.61 853.302 Q2173.32 853.13 2173.15 853.101 Q2173.01 853.073 2172.72 853.073 Q2171.03 853.073 2169.45 854.794 Q2167.87 856.516 2166.78 860.361 Q2166.55 861.078 2166.41 861.25 Q2166.26 861.422 2165.83 861.422 Q2165.12 861.394 2165.12 860.82 Q2165.12 860.648 2165.32 859.988 Q2165.52 859.299 2165.89 858.266 Q2166.26 857.204 2166.92 856.114 Q2167.58 854.995 2168.39 854.02 Q2169.22 853.044 2170.39 852.413 Q2171.57 851.782 2172.89 851.782 Q2175.04 851.782 2176.36 853.188 Q2177.71 854.565 2177.71 856.602 Q2177.71 857.721 2176.94 859.701 Q2175.99 862.283 2175.65 863.115 L2173.35 869.284 Q2172.52 871.522 2172.26 872.211 Q2172.03 872.871 2171.83 873.674 Q2171.66 874.449 2171.66 875.166 Q2171.66 876.17 2171.97 876.629 Q2172.32 877.088 2173.06 877.088 Q2175.13 877.088 2176.65 875.051 Q2178.17 872.985 2179.06 869.829 Q2179.09 869.743 2179.12 869.6 Q2179.35 868.882 2179.58 868.796 Q2179.69 868.768 2179.92 868.768 Q2180.64 868.768 2180.64 869.341 Z" fill="#000000" fill-rule="evenodd" fill-opacity="1" /></svg>
